<?xml version="1.0" encoding="UTF-8" standalone="no"?>
<!DOCTYPE svg PUBLIC "-//W3C//DTD SVG 1.1//EN"
 "http://www.w3.org/Graphics/SVG/1.1/DTD/svg11.dtd">
<!-- Generated by graphviz version 3.0.0 (20220226.1711)
 -->
<!-- Pages: 1 -->
<svg width="1194pt" height="680pt"
 viewBox="0.00 0.00 1194.30 679.60" xmlns="http://www.w3.org/2000/svg" xmlns:xlink="http://www.w3.org/1999/xlink">
<g id="graph0" class="graph" transform="scale(1 1) rotate(0) translate(4 675.6)">
<polygon fill="white" stroke="transparent" points="-4,4 -4,-675.6 1190.3,-675.6 1190.3,4 -4,4"/>
<!-- Red zone operator -->
<g id="node1" class="node">
<title>Red zone operator</title>
<polygon fill="#1d2559" stroke="black" points="765.8,-566 620.8,-566 620.8,-530 765.8,-530 765.8,-566"/>
<text text-anchor="middle" x="693.3" y="-544.3" font-family="Sans Not-Rotated 14" font-size="14.00" fill="white">Red zone operator</text>
</g>
<!-- Red zone operator&#45;&gt;Red zone operator -->
<g id="edge39" class="edge">
<title>Red zone operator&#45;&gt;Red zone operator</title>
<path fill="none" stroke="black" stroke-width="1.47" d="M766.09,-555.11C776.67,-553.98 783.8,-551.61 783.8,-548 783.8,-545.69 780.87,-543.88 775.99,-542.59"/>
<polygon fill="black" stroke="black" stroke-width="1.47" points="776.53,-539.13 766.09,-540.89 775.35,-546.03 776.53,-539.13"/>
<text text-anchor="middle" x="804.3" y="-544.3" font-family="Sans Not-Rotated 14" font-size="14.00"> &#160;&#160;&#160;&#160;&#160;&#160;&#160;&#160;</text>
</g>
<!-- Red zone doctor FD -->
<g id="node2" class="node">
<title>Red zone doctor FD</title>
<polygon fill="#1d2559" stroke="black" points="673.8,-479 520.8,-479 520.8,-443 673.8,-443 673.8,-479"/>
<text text-anchor="middle" x="597.3" y="-457.3" font-family="Sans Not-Rotated 14" font-size="14.00" fill="white">Red zone doctor FD</text>
</g>
<!-- Red zone operator&#45;&gt;Red zone doctor FD -->
<g id="edge7" class="edge">
<title>Red zone operator&#45;&gt;Red zone doctor FD</title>
<path fill="none" stroke="black" stroke-width="3.32" d="M620.64,-533.31C610.29,-528.26 600.93,-521.38 594.3,-512 589.69,-505.48 588.77,-497.21 589.49,-489.28"/>
<polygon fill="black" stroke="black" stroke-width="3.32" points="592.97,-489.68 591.2,-479.23 586.07,-488.5 592.97,-489.68"/>
<text text-anchor="middle" x="630.8" y="-500.8" font-family="Sans Not-Rotated 14" font-size="14.00"> &#160;&#160;&#160;&#160;&#160;&#160;&#160;&#160;&#160;&#160;&#160;&#160;&#160;&#160;&#160;</text>
</g>
<!-- Red zone doctor -->
<g id="node4" class="node">
<title>Red zone doctor</title>
<polygon fill="#1f3b98" stroke="black" points="232.8,-123 103.8,-123 103.8,-87 232.8,-87 232.8,-123"/>
<text text-anchor="middle" x="168.3" y="-101.3" font-family="Sans Not-Rotated 14" font-size="14.00" fill="white">Red zone doctor</text>
</g>
<!-- Red zone operator&#45;&gt;Red zone doctor -->
<g id="edge13" class="edge">
<title>Red zone operator&#45;&gt;Red zone doctor</title>
<path fill="none" stroke="black" stroke-width="5" d="M620.78,-545.63C496.26,-538.74 246.34,-503.86 154.3,-338 118.93,-274.26 147.99,-246.83 151.3,-174 151.96,-159.29 150.86,-155.32 154.3,-141 154.95,-138.29 155.77,-135.51 156.69,-132.76"/>
<polygon fill="black" stroke="black" stroke-width="5" points="160.89,-134.02 160.3,-123.12 152.69,-130.95 160.89,-134.02"/>
<text text-anchor="middle" x="190.8" y="-326.8" font-family="Sans Not-Rotated 14" font-size="14.00"> &#160;&#160;&#160;&#160;&#160;&#160;&#160;&#160;&#160;&#160;&#160;&#160;&#160;&#160;&#160;</text>
</g>
<!-- Yellow zone doctor -->
<g id="node8" class="node">
<title>Yellow zone doctor</title>
<polygon fill="#a09dde" stroke="black" points="735.8,-392 586.8,-392 586.8,-356 735.8,-356 735.8,-392"/>
<text text-anchor="middle" x="661.3" y="-370.3" font-family="Sans Not-Rotated 14" font-size="14.00">Yellow zone doctor</text>
</g>
<!-- Red zone operator&#45;&gt;Yellow zone doctor -->
<g id="edge30" class="edge">
<title>Red zone operator&#45;&gt;Yellow zone doctor</title>
<path fill="none" stroke="black" stroke-width="1.16" d="M765.99,-534.95C785.49,-529.76 805.95,-522.39 823.3,-512 852.14,-494.72 866.68,-474.26 854.3,-443 846.89,-424.29 840.81,-419.91 823.3,-410 799.87,-396.75 771.93,-388.51 745.9,-383.39"/>
<polygon fill="black" stroke="black" stroke-width="1.16" points="746.51,-379.94 736.04,-381.57 745.24,-386.82 746.51,-379.94"/>
<text text-anchor="middle" x="878.8" y="-457.3" font-family="Sans Not-Rotated 14" font-size="14.00"> &#160;&#160;&#160;&#160;&#160;&#160;&#160;&#160;</text>
</g>
<!-- Red zone doctor FD&#45;&gt;Red zone operator -->
<g id="edge3" class="edge">
<title>Red zone doctor FD&#45;&gt;Red zone operator</title>
<path fill="none" stroke="black" stroke-width="3.42" d="M646.35,-479.09C655.43,-483.86 664.26,-489.77 671.3,-497 677.67,-503.55 682.36,-512.24 685.73,-520.55"/>
<polygon fill="black" stroke="black" stroke-width="3.42" points="682.44,-521.73 689.11,-529.96 689.03,-519.37 682.44,-521.73"/>
<text text-anchor="middle" x="717.8" y="-500.8" font-family="Sans Not-Rotated 14" font-size="14.00"> &#160;&#160;&#160;&#160;&#160;&#160;&#160;&#160;&#160;&#160;&#160;&#160;&#160;&#160;&#160;</text>
</g>
<!-- Red zone doctor FD&#45;&gt;Red zone doctor FD -->
<g id="edge40" class="edge">
<title>Red zone doctor FD&#45;&gt;Red zone doctor FD</title>
<path fill="none" stroke="black" stroke-width="2.51" d="M674.05,-468.03C684.69,-466.87 691.8,-464.53 691.8,-461 691.8,-458.74 688.88,-456.97 683.99,-455.68"/>
<polygon fill="black" stroke="black" stroke-width="2.51" points="684.5,-452.22 674.05,-453.97 683.31,-459.12 684.5,-452.22"/>
<text text-anchor="middle" x="728.3" y="-457.3" font-family="Sans Not-Rotated 14" font-size="14.00"> &#160;&#160;&#160;&#160;&#160;&#160;&#160;&#160;&#160;&#160;&#160;&#160;&#160;&#160;&#160;</text>
</g>
<!-- Yellow zone doctor FD -->
<g id="node3" class="node">
<title>Yellow zone doctor FD</title>
<polygon fill="#a09dde" stroke="black" points="682.8,-214 509.8,-214 509.8,-178 682.8,-178 682.8,-214"/>
<text text-anchor="middle" x="596.3" y="-192.3" font-family="Sans Not-Rotated 14" font-size="14.00">Yellow zone doctor FD</text>
</g>
<!-- Red zone doctor FD&#45;&gt;Yellow zone doctor FD -->
<g id="edge11" class="edge">
<title>Red zone doctor FD&#45;&gt;Yellow zone doctor FD</title>
<path fill="none" stroke="black" stroke-width="1.45" d="M520.65,-447.25C449.22,-430.8 355.85,-395.24 371.3,-323 380.16,-281.56 377.3,-262.58 410.3,-236 410.56,-235.79 457.83,-225.88 504.65,-216.1"/>
<polygon fill="black" stroke="black" stroke-width="1.45" points="505.55,-219.49 514.62,-214.02 504.12,-212.64 505.55,-219.49"/>
<text text-anchor="middle" x="391.8" y="-326.8" font-family="Sans Not-Rotated 14" font-size="14.00"> &#160;&#160;&#160;&#160;&#160;&#160;&#160;&#160;</text>
</g>
<!-- Red zone doctor FD&#45;&gt;Red zone doctor -->
<g id="edge14" class="edge">
<title>Red zone doctor FD&#45;&gt;Red zone doctor</title>
<path fill="none" stroke="black" stroke-width="1.68" d="M520.58,-455.32C471.1,-448.37 408.68,-431.68 368.3,-392 283.5,-308.68 211.19,-185.06 182.05,-131.87"/>
<polygon fill="black" stroke="black" stroke-width="1.68" points="185.12,-130.2 177.27,-123.08 178.97,-133.54 185.12,-130.2"/>
<text text-anchor="middle" x="313.8" y="-283.3" font-family="Sans Not-Rotated 14" font-size="14.00"> &#160;&#160;&#160;&#160;&#160;&#160;&#160;&#160;</text>
</g>
<!-- Meas missing operator -->
<g id="node5" class="node">
<title>Meas missing operator</title>
<polygon fill="#e0ddf4" stroke="black" points="1015.8,-123 844.8,-123 844.8,-87 1015.8,-87 1015.8,-123"/>
<text text-anchor="middle" x="930.3" y="-101.3" font-family="Sans Not-Rotated 14" font-size="14.00">Meas missing operator</text>
</g>
<!-- Red zone doctor FD&#45;&gt;Meas missing operator -->
<g id="edge19" class="edge">
<title>Red zone doctor FD&#45;&gt;Meas missing operator</title>
<path fill="none" stroke="black" stroke-width="1.02" d="M673.91,-454.47C787.19,-441.41 992.56,-397.63 1053.3,-251 1074.61,-199.55 1034.24,-178.75 993.3,-141 988.29,-136.38 982.57,-132.15 976.66,-128.34"/>
<polygon fill="black" stroke="black" stroke-width="1.02" points="978.29,-125.24 967.92,-123.07 974.68,-131.24 978.29,-125.24"/>
<text text-anchor="middle" x="1051.8" y="-283.3" font-family="Sans Not-Rotated 14" font-size="14.00"> &#160;&#160;&#160;</text>
</g>
<!-- Notification operator -->
<g id="node6" class="node">
<title>Notification operator</title>
<polygon fill="#5661c6" stroke="black" points="903.8,-305 744.8,-305 744.8,-269 903.8,-269 903.8,-305"/>
<text text-anchor="middle" x="824.3" y="-283.3" font-family="Sans Not-Rotated 14" font-size="14.00" fill="white">Notification operator</text>
</g>
<!-- Red zone doctor FD&#45;&gt;Notification operator -->
<g id="edge21" class="edge">
<title>Red zone doctor FD&#45;&gt;Notification operator</title>
<path fill="none" stroke="black" stroke-width="1.53" d="M650.99,-442.92C680.86,-431.65 717.5,-414.73 745.3,-392 770.85,-371.1 776.75,-364.6 796.3,-338 801.72,-330.62 806.86,-322.09 811.22,-314.19"/>
<polygon fill="black" stroke="black" stroke-width="1.53" points="814.34,-315.77 815.95,-305.3 808.16,-312.48 814.34,-315.77"/>
<text text-anchor="middle" x="802.8" y="-370.3" font-family="Sans Not-Rotated 14" font-size="14.00"> &#160;&#160;&#160;&#160;&#160;&#160;&#160;&#160;</text>
</g>
<!-- Red zone doctor FD&#45;&gt;Yellow zone doctor -->
<g id="edge26" class="edge">
<title>Red zone doctor FD&#45;&gt;Yellow zone doctor</title>
<path fill="none" stroke="black" stroke-width="2.01" d="M591.58,-442.61C589.3,-432.41 588.44,-419.67 594.3,-410 596.99,-405.55 600.45,-401.65 604.39,-398.22"/>
<polygon fill="black" stroke="black" stroke-width="2.01" points="606.53,-400.98 612.44,-392.19 602.34,-395.38 606.53,-400.98"/>
<text text-anchor="middle" x="614.8" y="-413.8" font-family="Sans Not-Rotated 14" font-size="14.00"> &#160;&#160;&#160;&#160;&#160;&#160;&#160;&#160;</text>
</g>
<!-- Yellow zone doctor FD&#45;&gt;Red zone operator -->
<g id="edge5" class="edge">
<title>Yellow zone doctor FD&#45;&gt;Red zone operator</title>
<path fill="none" stroke="black" stroke-width="1.64" d="M515.58,-214.03C508.73,-215.4 501.9,-216.74 495.3,-218 449.22,-226.78 430.05,-209.57 391.3,-236 360.34,-257.12 307.25,-360.34 327.3,-392 388.27,-488.27 522.87,-524.84 610.74,-538.66"/>
<polygon fill="black" stroke="black" stroke-width="1.64" points="610.28,-542.13 620.69,-540.16 611.32,-535.21 610.28,-542.13"/>
<text text-anchor="middle" x="347.8" y="-370.3" font-family="Sans Not-Rotated 14" font-size="14.00"> &#160;&#160;&#160;&#160;&#160;&#160;&#160;&#160;</text>
</g>
<!-- Yellow zone doctor FD&#45;&gt;Red zone doctor FD -->
<g id="edge8" class="edge">
<title>Yellow zone doctor FD&#45;&gt;Red zone doctor FD</title>
<path fill="none" stroke="black" stroke-width="1.27" d="M515.72,-214.03C471.35,-223.59 424.89,-234 423.3,-236 394.99,-271.41 402.38,-297.78 423.3,-338 448.39,-386.23 502.24,-419.36 543.44,-438.79"/>
<polygon fill="black" stroke="black" stroke-width="1.27" points="542,-441.98 552.55,-442.97 544.91,-435.62 542,-441.98"/>
<text text-anchor="middle" x="443.8" y="-326.8" font-family="Sans Not-Rotated 14" font-size="14.00"> &#160;&#160;&#160;&#160;&#160;&#160;&#160;&#160;</text>
</g>
<!-- Yellow zone doctor FD&#45;&gt;Red zone doctor -->
<g id="edge15" class="edge">
<title>Yellow zone doctor FD&#45;&gt;Red zone doctor</title>
<path fill="none" stroke="black" stroke-width="1.23" d="M542.84,-177.89C504.79,-166.2 452.3,-151.07 405.3,-141 351.4,-129.45 289.79,-120.48 242.9,-114.51"/>
<polygon fill="black" stroke="black" stroke-width="1.23" points="243.18,-111.02 232.83,-113.25 242.31,-117.97 243.18,-111.02"/>
<text text-anchor="middle" x="484.8" y="-144.8" font-family="Sans Not-Rotated 14" font-size="14.00"> &#160;&#160;&#160;&#160;&#160;&#160;&#160;&#160;</text>
</g>
<!-- Yellow zone doctor FD&#45;&gt;Meas missing operator -->
<g id="edge17" class="edge">
<title>Yellow zone doctor FD&#45;&gt;Meas missing operator</title>
<path fill="none" stroke="black" stroke-width="1.1" d="M609,-177.86C619.23,-165.43 634.75,-149.39 652.3,-141 683.76,-125.95 767.19,-116.78 834.51,-111.62"/>
<polygon fill="black" stroke="black" stroke-width="1.1" points="835.03,-115.09 844.74,-110.86 834.5,-108.11 835.03,-115.09"/>
<text text-anchor="middle" x="672.8" y="-144.8" font-family="Sans Not-Rotated 14" font-size="14.00"> &#160;&#160;&#160;&#160;&#160;&#160;&#160;&#160;</text>
</g>
<!-- Yellow zone doctor FD&#45;&gt;Notification operator -->
<g id="edge20" class="edge">
<title>Yellow zone doctor FD&#45;&gt;Notification operator</title>
<path fill="none" stroke="black" stroke-width="1.9" d="M617.72,-214.12C633.61,-226.03 656.24,-241.45 678.3,-251 696.02,-258.68 715.71,-264.84 734.75,-269.73"/>
<polygon fill="black" stroke="black" stroke-width="1.9" points="734.08,-273.17 744.63,-272.17 735.76,-266.37 734.08,-273.17"/>
<text text-anchor="middle" x="698.8" y="-239.8" font-family="Sans Not-Rotated 14" font-size="14.00"> &#160;&#160;&#160;&#160;&#160;&#160;&#160;&#160;</text>
</g>
<!-- Yellow zone doctor FD&#45;&gt;Yellow zone doctor -->
<g id="edge27" class="edge">
<title>Yellow zone doctor FD&#45;&gt;Yellow zone doctor</title>
<path fill="none" stroke="black" stroke-width="2.12" d="M588.95,-214.39C585.41,-225.69 583.28,-240.26 590.3,-251 601.18,-267.66 618.19,-254.02 631.3,-269 650,-290.36 657.07,-322.73 659.73,-345.67"/>
<polygon fill="black" stroke="black" stroke-width="2.12" points="656.26,-346.16 660.69,-355.79 663.23,-345.5 656.26,-346.16"/>
<text text-anchor="middle" x="686.8" y="-283.3" font-family="Sans Not-Rotated 14" font-size="14.00"> &#160;&#160;&#160;&#160;&#160;&#160;&#160;&#160;&#160;&#160;&#160;&#160;&#160;&#160;&#160;</text>
</g>
<!-- Red zone doctor&#45;&gt;Red zone operator -->
<g id="edge2" class="edge">
<title>Red zone doctor&#45;&gt;Red zone operator</title>
<path fill="none" stroke="black" stroke-width="3.44" d="M121.01,-123.08C91.2,-137.22 58.3,-160.61 58.3,-195 58.3,-462 58.3,-462 58.3,-462 58.3,-504.69 99.59,-499.17 140.3,-512 225.52,-538.87 478.3,-545.17 610.55,-546.61"/>
<polygon fill="black" stroke="black" stroke-width="3.44" points="610.6,-550.11 620.63,-546.71 610.67,-543.11 610.6,-550.11"/>
<text text-anchor="middle" x="94.8" y="-326.8" font-family="Sans Not-Rotated 14" font-size="14.00"> &#160;&#160;&#160;&#160;&#160;&#160;&#160;&#160;&#160;&#160;&#160;&#160;&#160;&#160;&#160;</text>
</g>
<!-- Red zone doctor&#45;&gt;Red zone doctor FD -->
<g id="edge6" class="edge">
<title>Red zone doctor&#45;&gt;Red zone doctor FD</title>
<path fill="none" stroke="black" stroke-width="3.48" d="M163.91,-123.01C155.4,-160.22 140.89,-249.9 182.3,-305 196.24,-323.55 212.79,-309.01 231.3,-323 273.63,-354.98 249.25,-395.44 293.3,-425 302.31,-431.05 423.85,-443.65 510.48,-451.97"/>
<polygon fill="black" stroke="black" stroke-width="3.48" points="510.31,-455.47 520.6,-452.93 510.98,-448.5 510.31,-455.47"/>
<text text-anchor="middle" x="218.8" y="-283.3" font-family="Sans Not-Rotated 14" font-size="14.00"> &#160;&#160;&#160;&#160;&#160;&#160;&#160;&#160;&#160;&#160;&#160;&#160;&#160;&#160;&#160;</text>
</g>
<!-- Red zone doctor&#45;&gt;Red zone doctor -->
<g id="edge41" class="edge">
<title>Red zone doctor&#45;&gt;Red zone doctor</title>
<path fill="none" stroke="black" stroke-width="1.19" d="M232.98,-112.29C243.54,-111.24 250.8,-108.81 250.8,-105 250.8,-102.56 247.82,-100.68 242.9,-99.38"/>
<polygon fill="black" stroke="black" stroke-width="1.19" points="243.42,-95.91 232.98,-97.71 242.26,-102.82 243.42,-95.91"/>
<text text-anchor="middle" x="271.3" y="-101.3" font-family="Sans Not-Rotated 14" font-size="14.00"> &#160;&#160;&#160;&#160;&#160;&#160;&#160;&#160;</text>
</g>
<!-- Red zone doctor&#45;&gt;Yellow zone doctor -->
<g id="edge29" class="edge">
<title>Red zone doctor&#45;&gt;Yellow zone doctor</title>
<path fill="none" stroke="black" stroke-width="1.21" d="M233,-117.97C252.56,-123.25 273.54,-130.68 291.3,-141 399.46,-203.83 381.92,-279.16 492.3,-338 517.97,-351.68 548.47,-360.02 576.45,-365.1"/>
<polygon fill="black" stroke="black" stroke-width="1.21" points="576.18,-368.61 586.63,-366.83 577.36,-361.71 576.18,-368.61"/>
<text text-anchor="middle" x="418.8" y="-239.8" font-family="Sans Not-Rotated 14" font-size="14.00"> &#160;&#160;&#160;&#160;&#160;&#160;&#160;&#160;</text>
</g>
<!-- Meas missing operator&#45;&gt;Red zone operator -->
<g id="edge33" class="edge">
<title>Meas missing operator&#45;&gt;Red zone operator</title>
<path fill="none" stroke="black" stroke-width="1.05" d="M1016.03,-115.76C1062.81,-126.39 1111.3,-148.6 1111.3,-195 1111.3,-462 1111.3,-462 1111.3,-462 1111.3,-529.71 898.03,-544.06 776.16,-546.73"/>
<polygon fill="black" stroke="black" stroke-width="1.05" points="776.04,-543.23 766.11,-546.93 776.17,-550.23 776.04,-543.23"/>
<text text-anchor="middle" x="1131.8" y="-326.8" font-family="Sans Not-Rotated 14" font-size="14.00"> &#160;&#160;&#160;&#160;&#160;&#160;&#160;&#160;</text>
</g>
<!-- Meas missing operator&#45;&gt;Notification operator -->
<g id="edge24" class="edge">
<title>Meas missing operator&#45;&gt;Notification operator</title>
<path fill="none" stroke="black" stroke-width="1.42" d="M906.08,-123.07C890.1,-135.5 869.87,-153.67 857.3,-174 841.03,-200.32 832.43,-235.06 828.14,-258.83"/>
<polygon fill="black" stroke="black" stroke-width="1.42" points="824.65,-258.47 826.46,-268.91 831.55,-259.63 824.65,-258.47"/>
<text text-anchor="middle" x="877.8" y="-192.3" font-family="Sans Not-Rotated 14" font-size="14.00"> &#160;&#160;&#160;&#160;&#160;&#160;&#160;&#160;</text>
</g>
<!-- Meas missing doctor -->
<g id="node7" class="node">
<title>Meas missing doctor</title>
<polygon fill="#ffffff" stroke="black" points="915.8,-36 760.8,-36 760.8,0 915.8,0 915.8,-36"/>
<text text-anchor="middle" x="838.3" y="-14.3" font-family="Sans Not-Rotated 14" font-size="14.00">Meas missing doctor</text>
</g>
<!-- Meas missing operator&#45;&gt;Meas missing doctor -->
<g id="edge1" class="edge">
<title>Meas missing operator&#45;&gt;Meas missing doctor</title>
<path fill="none" stroke="black" stroke-width="2.56" d="M920.78,-86.92C914.47,-76.58 905.48,-63.59 895.3,-54 890.64,-49.61 885.34,-45.49 879.9,-41.72"/>
<polygon fill="black" stroke="black" stroke-width="2.56" points="881.58,-38.64 871.3,-36.11 877.76,-44.51 881.58,-38.64"/>
<text text-anchor="middle" x="944.8" y="-57.8" font-family="Sans Not-Rotated 14" font-size="14.00"> &#160;&#160;&#160;&#160;&#160;&#160;&#160;&#160;&#160;&#160;&#160;&#160;&#160;&#160;&#160;</text>
</g>
<!-- Meas missing operator&#45;&gt;Yellow zone doctor -->
<g id="edge31" class="edge">
<title>Meas missing operator&#45;&gt;Yellow zone doctor</title>
<path fill="none" stroke="black" stroke-width="1.06" d="M954.3,-123.23C969.2,-135.48 987.03,-153.39 995.3,-174 1017.3,-228.86 1014.99,-264.11 972.3,-305 971.25,-306 837.44,-335.02 745.71,-354.82"/>
<polygon fill="black" stroke="black" stroke-width="1.06" points="744.89,-351.41 735.85,-356.94 746.37,-358.26 744.89,-351.41"/>
<text text-anchor="middle" x="1028.8" y="-239.8" font-family="Sans Not-Rotated 14" font-size="14.00"> &#160;&#160;&#160;&#160;&#160;&#160;&#160;&#160;</text>
</g>
<!-- Notification operator&#45;&gt;Red zone operator -->
<g id="edge34" class="edge">
<title>Notification operator&#45;&gt;Red zone operator</title>
<path fill="none" stroke="black" stroke-width="1.31" d="M841.57,-305.04C874.12,-339.29 938.25,-418.38 903.3,-479 889.97,-502.12 828.99,-520.21 776.15,-531.9"/>
<polygon fill="black" stroke="black" stroke-width="1.31" points="775.08,-528.55 766.05,-534.08 776.56,-535.39 775.08,-528.55"/>
<text text-anchor="middle" x="931.8" y="-413.8" font-family="Sans Not-Rotated 14" font-size="14.00"> &#160;&#160;&#160;&#160;&#160;&#160;&#160;&#160;</text>
</g>
<!-- Notification operator&#45;&gt;Yellow zone doctor FD -->
<g id="edge12" class="edge">
<title>Notification operator&#45;&gt;Yellow zone doctor FD</title>
<path fill="none" stroke="black" stroke-width="1.25" d="M744.59,-271.37C739.76,-270.55 734.96,-269.75 730.3,-269 702.16,-264.46 623.33,-271.27 603.3,-251 596.42,-244.04 593.96,-233.87 593.47,-224.24"/>
<polygon fill="black" stroke="black" stroke-width="1.25" points="596.97,-224.2 593.59,-214.16 589.97,-224.12 596.97,-224.2"/>
<text text-anchor="middle" x="623.8" y="-239.8" font-family="Sans Not-Rotated 14" font-size="14.00"> &#160;&#160;&#160;&#160;&#160;&#160;&#160;&#160;</text>
</g>
<!-- Notification operator&#45;&gt;Meas missing operator -->
<g id="edge16" class="edge">
<title>Notification operator&#45;&gt;Meas missing operator</title>
<path fill="none" stroke="black" stroke-width="2.74" d="M852.7,-268.79C869.93,-256.77 890.77,-239.13 902.3,-218 916.87,-191.3 924,-156.9 927.4,-133.31"/>
<polygon fill="black" stroke="black" stroke-width="2.74" points="930.88,-133.67 928.71,-123.3 923.94,-132.76 930.88,-133.67"/>
<text text-anchor="middle" x="954.8" y="-192.3" font-family="Sans Not-Rotated 14" font-size="14.00"> &#160;&#160;&#160;&#160;&#160;&#160;&#160;&#160;&#160;&#160;&#160;&#160;&#160;&#160;&#160;</text>
</g>
<!-- Notification operator&#45;&gt;Notification operator -->
<g id="edge42" class="edge">
<title>Notification operator&#45;&gt;Notification operator</title>
<path fill="none" stroke="black" stroke-width="2.02" d="M903.87,-293.99C914.63,-292.82 921.8,-290.49 921.8,-287 921.8,-284.77 918.86,-283.01 913.91,-281.72"/>
<polygon fill="black" stroke="black" stroke-width="2.02" points="914.31,-278.24 903.87,-280.01 913.14,-285.14 914.31,-278.24"/>
<text text-anchor="middle" x="942.3" y="-283.3" font-family="Sans Not-Rotated 14" font-size="14.00"> &#160;&#160;&#160;&#160;&#160;&#160;&#160;&#160;</text>
</g>
<!-- Notification operator&#45;&gt;Meas missing doctor -->
<g id="edge25" class="edge">
<title>Notification operator&#45;&gt;Meas missing doctor</title>
<path fill="none" stroke="black" stroke-width="1.05" d="M823.86,-268.57C823.3,-241.33 822.69,-187 825.3,-141 827.14,-108.4 831.44,-71.09 834.59,-46.4"/>
<polygon fill="black" stroke="black" stroke-width="1.05" points="838.08,-46.7 835.9,-36.33 831.14,-45.79 838.08,-46.7"/>
<text text-anchor="middle" x="845.8" y="-144.8" font-family="Sans Not-Rotated 14" font-size="14.00"> &#160;&#160;&#160;&#160;&#160;&#160;&#160;&#160;</text>
</g>
<!-- Notification operator&#45;&gt;Yellow zone doctor -->
<g id="edge28" class="edge">
<title>Notification operator&#45;&gt;Yellow zone doctor</title>
<path fill="none" stroke="black" stroke-width="1.63" d="M744.59,-304.72C715.63,-311.38 688.63,-318.51 683.3,-323 676.21,-328.97 671.32,-337.67 667.99,-346.15"/>
<polygon fill="black" stroke="black" stroke-width="1.63" points="664.61,-345.22 664.76,-355.82 671.25,-347.44 664.61,-345.22"/>
<text text-anchor="middle" x="703.8" y="-326.8" font-family="Sans Not-Rotated 14" font-size="14.00"> &#160;&#160;&#160;&#160;&#160;&#160;&#160;&#160;</text>
</g>
<!-- end -->
<g id="node10" class="node">
<title>end</title>
<ellipse fill="#ea4126" stroke="black" cx="723.3" cy="-196" rx="18" ry="18"/>
<ellipse fill="none" stroke="black" cx="723.3" cy="-196" rx="22" ry="22"/>
</g>
<!-- Notification operator&#45;&gt;end -->
<g id="edge32" class="edge">
<title>Notification operator&#45;&gt;end</title>
<path fill="none" stroke="black" stroke-dasharray="5,2" d="M753.35,-268.81C744.95,-264.21 737.26,-258.38 731.3,-251 726.11,-244.57 723.53,-236.26 722.38,-228.09"/>
<polygon fill="black" stroke="black" points="725.86,-227.67 721.6,-217.97 718.88,-228.21 725.86,-227.67"/>
<text text-anchor="middle" x="751.8" y="-239.8" font-family="Sans Not-Rotated 14" font-size="14.00"> &#160;&#160;&#160;&#160;&#160;&#160;&#160;&#160;</text>
</g>
<!-- Meas missing doctor&#45;&gt;Red zone operator -->
<g id="edge36" class="edge">
<title>Meas missing doctor&#45;&gt;Red zone operator</title>
<path fill="none" stroke="black" d="M915.85,-23.61C1013.12,-31.55 1167.3,-52.31 1167.3,-104 1167.3,-462 1167.3,-462 1167.3,-462 1167.3,-505.07 1125.23,-498.63 1084.3,-512 1029,-530.06 873.59,-539.6 776.17,-543.95"/>
<polygon fill="black" stroke="black" points="775.89,-540.46 766.05,-544.39 776.19,-547.45 775.89,-540.46"/>
<text text-anchor="middle" x="1176.8" y="-283.3" font-family="Sans Not-Rotated 14" font-size="14.00"> &#160;&#160;&#160;</text>
</g>
<!-- Meas missing doctor&#45;&gt;Meas missing operator -->
<g id="edge18" class="edge">
<title>Meas missing doctor&#45;&gt;Meas missing operator</title>
<path fill="none" stroke="black" stroke-width="1.31" d="M838.69,-36.47C839.78,-46.95 842.73,-59.96 850.3,-69 854.32,-73.81 859.13,-77.97 864.37,-81.58"/>
<polygon fill="black" stroke="black" stroke-width="1.31" points="862.54,-84.57 872.9,-86.8 866.2,-78.6 862.54,-84.57"/>
<text text-anchor="middle" x="870.8" y="-57.8" font-family="Sans Not-Rotated 14" font-size="14.00"> &#160;&#160;&#160;&#160;&#160;&#160;&#160;&#160;</text>
</g>
<!-- Meas missing doctor&#45;&gt;Notification operator -->
<g id="edge22" class="edge">
<title>Meas missing doctor&#45;&gt;Notification operator</title>
<path fill="none" stroke="black" stroke-width="2.1" d="M810.95,-36.11C780.95,-56.72 734.61,-94.45 716.3,-141 713.86,-147.2 712.73,-150.37 716.3,-156 726.29,-171.79 740.46,-161.44 754.3,-174 783.81,-200.8 778.79,-217.43 800.3,-251 802.22,-254.01 804.28,-257.13 806.35,-260.22"/>
<polygon fill="black" stroke="black" stroke-width="2.1" points="803.6,-262.4 812.12,-268.7 809.39,-258.46 803.6,-262.4"/>
<text text-anchor="middle" x="752.8" y="-144.8" font-family="Sans Not-Rotated 14" font-size="14.00"> &#160;&#160;&#160;&#160;&#160;&#160;&#160;&#160;&#160;&#160;&#160;&#160;&#160;&#160;&#160;</text>
</g>
<!-- Meas missing doctor&#45;&gt;Yellow zone doctor -->
<g id="edge35" class="edge">
<title>Meas missing doctor&#45;&gt;Yellow zone doctor</title>
<path fill="none" stroke="black" stroke-width="1.01" d="M760.53,-28.1C675.46,-42.66 543.01,-79.93 481.3,-174 436.04,-242.99 502.7,-287.95 568.3,-338 575.17,-343.25 582.92,-347.78 590.94,-351.68"/>
<polygon fill="black" stroke="black" stroke-width="1.01" points="589.52,-354.88 600.07,-355.81 592.41,-348.5 589.52,-354.88"/>
<text text-anchor="middle" x="490.8" y="-192.3" font-family="Sans Not-Rotated 14" font-size="14.00"> &#160;&#160;&#160;</text>
</g>
<!-- Yellow zone doctor&#45;&gt;Red zone operator -->
<g id="edge37" class="edge">
<title>Yellow zone doctor&#45;&gt;Red zone operator</title>
<path fill="none" stroke="black" stroke-width="1.15" d="M711.93,-392.07C735.32,-402.78 760.83,-419.18 774.3,-443 789.79,-470.4 780.08,-489.27 758.3,-512 753.87,-516.62 748.71,-520.76 743.25,-524.44"/>
<polygon fill="black" stroke="black" stroke-width="1.15" points="741.18,-521.61 734.52,-529.85 744.86,-527.57 741.18,-521.61"/>
<text text-anchor="middle" x="801.8" y="-457.3" font-family="Sans Not-Rotated 14" font-size="14.00"> &#160;&#160;&#160;&#160;&#160;&#160;&#160;&#160;</text>
</g>
<!-- Yellow zone doctor&#45;&gt;Red zone doctor FD -->
<g id="edge9" class="edge">
<title>Yellow zone doctor&#45;&gt;Red zone doctor FD</title>
<path fill="none" stroke="black" stroke-width="1.22" d="M655.94,-392.26C652.27,-402.41 646.71,-415.15 639.3,-425 636.38,-428.87 632.96,-432.59 629.35,-436.07"/>
<polygon fill="black" stroke="black" stroke-width="1.22" points="626.9,-433.56 621.77,-442.82 631.56,-438.78 626.9,-433.56"/>
<text text-anchor="middle" x="667.8" y="-413.8" font-family="Sans Not-Rotated 14" font-size="14.00"> &#160;&#160;&#160;&#160;&#160;&#160;&#160;&#160;</text>
</g>
<!-- Yellow zone doctor&#45;&gt;Yellow zone doctor FD -->
<g id="edge10" class="edge">
<title>Yellow zone doctor&#45;&gt;Yellow zone doctor FD</title>
<path fill="none" stroke="black" stroke-width="3.61" d="M617.16,-355.94C595.25,-344.95 570.84,-328.3 558.3,-305 543.77,-277.99 546.75,-264.41 558.3,-236 560.39,-230.86 563.52,-226.02 567.11,-221.62"/>
<polygon fill="black" stroke="black" stroke-width="3.61" points="569.74,-223.93 573.93,-214.2 564.58,-219.19 569.74,-223.93"/>
<text text-anchor="middle" x="594.8" y="-283.3" font-family="Sans Not-Rotated 14" font-size="14.00"> &#160;&#160;&#160;&#160;&#160;&#160;&#160;&#160;&#160;&#160;&#160;&#160;&#160;&#160;&#160;</text>
</g>
<!-- Yellow zone doctor&#45;&gt;Notification operator -->
<g id="edge23" class="edge">
<title>Yellow zone doctor&#45;&gt;Notification operator</title>
<path fill="none" stroke="black" stroke-width="1.31" d="M695.73,-355.82C706.29,-350.34 717.88,-344.1 728.3,-338 738.83,-331.83 740.66,-328.98 751.3,-323 759.48,-318.39 768.37,-313.81 777.03,-309.55"/>
<polygon fill="black" stroke="black" stroke-width="1.31" points="778.83,-312.57 786.3,-305.06 775.78,-306.26 778.83,-312.57"/>
<text text-anchor="middle" x="771.8" y="-326.8" font-family="Sans Not-Rotated 14" font-size="14.00"> &#160;&#160;&#160;&#160;&#160;&#160;&#160;&#160;</text>
</g>
<!-- start -->
<g id="node9" class="node">
<title>start</title>
<ellipse fill="#95d600" stroke="black" cx="27.3" cy="-644.3" rx="27.1" ry="27.1"/>
<text text-anchor="middle" x="27.3" y="-640.6" font-family="Sans Not-Rotated 14" font-size="14.00">start</text>
</g>
<!-- start&#45;&gt;Red zone operator -->
<g id="edge4" class="edge">
<title>start&#45;&gt;Red zone operator</title>
<path fill="none" stroke="black" stroke-dasharray="5,2" d="M54.23,-639.48C147.6,-626.26 459.92,-582.04 610.59,-560.71"/>
<polygon fill="black" stroke="black" points="611.31,-564.14 620.72,-559.28 610.33,-557.21 611.31,-564.14"/>
<text text-anchor="middle" x="460.8" y="-587.8" font-family="Sans Not-Rotated 14" font-size="14.00"> &#160;&#160;&#160;&#160;&#160;&#160;&#160;&#160;</text>
</g>
<!-- start&#45;&gt;Red zone doctor -->
<g id="edge38" class="edge">
<title>start&#45;&gt;Red zone doctor</title>
<path fill="none" stroke="black" stroke-dasharray="5,2" d="M20.51,-617.48C16.15,-598.64 11.3,-572.41 11.3,-549 11.3,-549 11.3,-549 11.3,-195 11.3,-153.52 53.28,-131.14 93.83,-119.2"/>
<polygon fill="black" stroke="black" points="94.82,-122.56 103.53,-116.52 92.96,-115.81 94.82,-122.56"/>
<text text-anchor="middle" x="20.8" y="-370.3" font-family="Sans Not-Rotated 14" font-size="14.00"> &#160;&#160;&#160;</text>
</g>
</g>
</svg>
