<?xml version="1.0" encoding="UTF-8" standalone="no"?>
<!DOCTYPE svg PUBLIC "-//W3C//DTD SVG 1.1//EN"
 "http://www.w3.org/Graphics/SVG/1.1/DTD/svg11.dtd">
<!-- Generated by graphviz version 3.0.0 (20220226.1711)
 -->
<!-- Pages: 1 -->
<svg width="1287pt" height="680pt"
 viewBox="0.00 0.00 1287.00 679.60" xmlns="http://www.w3.org/2000/svg" xmlns:xlink="http://www.w3.org/1999/xlink">
<g id="graph0" class="graph" transform="scale(1 1) rotate(0) translate(4 675.6)">
<polygon fill="white" stroke="transparent" points="-4,4 -4,-675.6 1283,-675.6 1283,4 -4,4"/>
<!-- Red zone operator -->
<g id="node1" class="node">
<title>Red zone operator</title>
<polygon fill="#1d2559" stroke="black" points="964.5,-566 819.5,-566 819.5,-530 964.5,-530 964.5,-566"/>
<text text-anchor="middle" x="892" y="-544.3" font-family="Sans Not-Rotated 14" font-size="14.00" fill="white">Red zone operator</text>
</g>
<!-- Red zone operator&#45;&gt;Red zone operator -->
<g id="edge42" class="edge">
<title>Red zone operator&#45;&gt;Red zone operator</title>
<path fill="none" stroke="black" stroke-width="1.5" d="M964.79,-555.11C975.37,-553.98 982.5,-551.61 982.5,-548 982.5,-545.69 979.57,-543.88 974.69,-542.59"/>
<polygon fill="black" stroke="black" stroke-width="1.5" points="975.24,-539.13 964.79,-540.89 974.05,-546.03 975.24,-539.13"/>
<text text-anchor="middle" x="1003" y="-544.3" font-family="Sans Not-Rotated 14" font-size="14.00"> &#160;&#160;&#160;&#160;&#160;&#160;&#160;&#160;</text>
</g>
<!-- Red zone doctor FD -->
<g id="node2" class="node">
<title>Red zone doctor FD</title>
<polygon fill="#1d2559" stroke="black" points="796.5,-479 643.5,-479 643.5,-443 796.5,-443 796.5,-479"/>
<text text-anchor="middle" x="720" y="-457.3" font-family="Sans Not-Rotated 14" font-size="14.00" fill="white">Red zone doctor FD</text>
</g>
<!-- Red zone operator&#45;&gt;Red zone doctor FD -->
<g id="edge9" class="edge">
<title>Red zone operator&#45;&gt;Red zone doctor FD</title>
<path fill="none" stroke="black" stroke-width="3.33" d="M869.91,-529.91C855.65,-519.45 836.4,-506.31 818,-497 807.55,-491.71 796.1,-486.85 784.84,-482.55"/>
<polygon fill="black" stroke="black" stroke-width="3.33" points="786.04,-479.26 775.45,-479.07 783.61,-485.83 786.04,-479.26"/>
<text text-anchor="middle" x="880.5" y="-500.8" font-family="Sans Not-Rotated 14" font-size="14.00"> &#160;&#160;&#160;&#160;&#160;&#160;&#160;&#160;&#160;&#160;&#160;&#160;&#160;&#160;&#160;</text>
</g>
<!-- Yellow zone doctor FD -->
<g id="node3" class="node">
<title>Yellow zone doctor FD</title>
<polygon fill="#a09dde" stroke="black" points="808.5,-218 635.5,-218 635.5,-182 808.5,-182 808.5,-218"/>
<text text-anchor="middle" x="722" y="-196.3" font-family="Sans Not-Rotated 14" font-size="14.00">Yellow zone doctor FD</text>
</g>
<!-- Red zone operator&#45;&gt;Yellow zone doctor FD -->
<g id="edge16" class="edge">
<title>Red zone operator&#45;&gt;Yellow zone doctor FD</title>
<path fill="none" stroke="black" stroke-width="1.05" d="M909.87,-529.94C914.32,-524.65 918.52,-518.49 921,-512 940.3,-461.54 960.69,-312.76 929,-269 903.64,-233.97 859.65,-216.67 818.72,-208.24"/>
<polygon fill="black" stroke="black" stroke-width="1.05" points="819.15,-204.76 808.67,-206.34 817.84,-211.64 819.15,-204.76"/>
<text text-anchor="middle" x="955.5" y="-370.3" font-family="Sans Not-Rotated 14" font-size="14.00"> &#160;&#160;&#160;</text>
</g>
<!-- Red zone doctor -->
<g id="node4" class="node">
<title>Red zone doctor</title>
<polygon fill="#1f3b98" stroke="black" points="977.5,-127 848.5,-127 848.5,-91 977.5,-91 977.5,-127"/>
<text text-anchor="middle" x="913" y="-105.3" font-family="Sans Not-Rotated 14" font-size="14.00" fill="white">Red zone doctor</text>
</g>
<!-- Red zone operator&#45;&gt;Red zone doctor -->
<g id="edge17" class="edge">
<title>Red zone operator&#45;&gt;Red zone doctor</title>
<path fill="none" stroke="black" stroke-width="5" d="M954.62,-529.87C965.14,-525.19 975.42,-519.32 984,-512 1008.6,-491.02 1033.8,-404.01 1036,-392 1038.88,-376.26 1039.68,-371.57 1036,-356 1030.49,-332.67 957.94,-194.56 926.91,-136.11"/>
<polygon fill="black" stroke="black" stroke-width="5" points="930.69,-133.9 922.14,-127.12 922.97,-138 930.69,-133.9"/>
<text text-anchor="middle" x="1064.5" y="-326.8" font-family="Sans Not-Rotated 14" font-size="14.00"> &#160;&#160;&#160;&#160;&#160;&#160;&#160;&#160;&#160;&#160;&#160;&#160;&#160;&#160;&#160;</text>
</g>
<!-- Yellow zone doctor -->
<g id="node8" class="node">
<title>Yellow zone doctor</title>
<polygon fill="#a09dde" stroke="black" points="387.5,-392 238.5,-392 238.5,-356 387.5,-356 387.5,-392"/>
<text text-anchor="middle" x="313" y="-370.3" font-family="Sans Not-Rotated 14" font-size="14.00">Yellow zone doctor</text>
</g>
<!-- Red zone operator&#45;&gt;Yellow zone doctor -->
<g id="edge35" class="edge">
<title>Red zone operator&#45;&gt;Yellow zone doctor</title>
<path fill="none" stroke="black" stroke-width="1.19" d="M819.27,-544.45C664.56,-538.24 314.09,-519.78 280,-479 261.15,-456.45 277.28,-423.02 292.9,-400.19"/>
<polygon fill="black" stroke="black" stroke-width="1.19" points="295.79,-402.17 298.79,-392.01 290.11,-398.08 295.79,-402.17"/>
<text text-anchor="middle" x="300.5" y="-457.3" font-family="Sans Not-Rotated 14" font-size="14.00"> &#160;&#160;&#160;&#160;&#160;&#160;&#160;&#160;</text>
</g>
<!-- Red zone doctor FD&#45;&gt;Red zone operator -->
<g id="edge3" class="edge">
<title>Red zone doctor FD&#45;&gt;Red zone operator</title>
<path fill="none" stroke="black" stroke-width="3.43" d="M724.51,-479.25C728.25,-490.2 734.66,-503.8 745,-512 763.26,-526.48 786.56,-535.13 809.19,-540.24"/>
<polygon fill="black" stroke="black" stroke-width="3.43" points="808.68,-543.71 819.18,-542.29 810.08,-536.85 808.68,-543.71"/>
<text text-anchor="middle" x="781.5" y="-500.8" font-family="Sans Not-Rotated 14" font-size="14.00"> &#160;&#160;&#160;&#160;&#160;&#160;&#160;&#160;&#160;&#160;&#160;&#160;&#160;&#160;&#160;</text>
</g>
<!-- Red zone doctor FD&#45;&gt;Red zone doctor FD -->
<g id="edge43" class="edge">
<title>Red zone doctor FD&#45;&gt;Red zone doctor FD</title>
<path fill="none" stroke="black" stroke-width="2.53" d="M796.75,-468.03C807.39,-466.87 814.5,-464.53 814.5,-461 814.5,-458.74 811.58,-456.97 806.69,-455.68"/>
<polygon fill="black" stroke="black" stroke-width="2.53" points="807.2,-452.22 796.75,-453.97 806.02,-459.12 807.2,-452.22"/>
<text text-anchor="middle" x="851" y="-457.3" font-family="Sans Not-Rotated 14" font-size="14.00"> &#160;&#160;&#160;&#160;&#160;&#160;&#160;&#160;&#160;&#160;&#160;&#160;&#160;&#160;&#160;</text>
</g>
<!-- Red zone doctor FD&#45;&gt;Yellow zone doctor FD -->
<g id="edge13" class="edge">
<title>Red zone doctor FD&#45;&gt;Yellow zone doctor FD</title>
<path fill="none" stroke="black" stroke-width="1.47" d="M739.18,-442.89C761.88,-421.16 798.35,-381.26 812,-338 826.43,-292.29 808.43,-272.18 777,-236 773.15,-231.57 768.6,-227.49 763.79,-223.81"/>
<polygon fill="black" stroke="black" stroke-width="1.47" points="765.73,-220.9 755.54,-218 761.7,-226.62 765.73,-220.9"/>
<text text-anchor="middle" x="836.5" y="-326.8" font-family="Sans Not-Rotated 14" font-size="14.00"> &#160;&#160;&#160;&#160;&#160;&#160;&#160;&#160;</text>
</g>
<!-- Red zone doctor FD&#45;&gt;Red zone doctor -->
<g id="edge18" class="edge">
<title>Red zone doctor FD&#45;&gt;Red zone doctor</title>
<path fill="none" stroke="black" stroke-width="1.7" d="M751.72,-442.93C760.55,-437.63 769.93,-431.47 778,-425 819.69,-391.57 835.71,-385.08 861,-338 896.68,-271.59 907.96,-181.56 911.46,-137.12"/>
<polygon fill="black" stroke="black" stroke-width="1.7" points="914.96,-137.32 912.18,-127.1 907.97,-136.82 914.96,-137.32"/>
<text text-anchor="middle" x="909.5" y="-283.3" font-family="Sans Not-Rotated 14" font-size="14.00"> &#160;&#160;&#160;&#160;&#160;&#160;&#160;&#160;</text>
</g>
<!-- Meas missing operator -->
<g id="node5" class="node">
<title>Meas missing operator</title>
<polygon fill="#e0ddf4" stroke="black" points="285.5,-127 114.5,-127 114.5,-91 285.5,-91 285.5,-127"/>
<text text-anchor="middle" x="200" y="-105.3" font-family="Sans Not-Rotated 14" font-size="14.00">Meas missing operator</text>
</g>
<!-- Red zone doctor FD&#45;&gt;Meas missing operator -->
<g id="edge24" class="edge">
<title>Red zone doctor FD&#45;&gt;Meas missing operator</title>
<path fill="none" stroke="black" stroke-width="1.05" d="M643.45,-455C531.81,-447.5 334.07,-433.33 302,-425 267.54,-416.05 259.72,-410 229,-392 172.78,-359.06 149.31,-357.7 111,-305 87.03,-272.03 88.53,-258.23 82,-218 79.44,-202.21 74.17,-195.95 82,-182 94.75,-159.28 117.9,-142.89 140.34,-131.54"/>
<polygon fill="black" stroke="black" stroke-width="1.05" points="142.04,-134.6 149.55,-127.13 139.02,-128.29 142.04,-134.6"/>
<text text-anchor="middle" x="120.5" y="-283.3" font-family="Sans Not-Rotated 14" font-size="14.00"> &#160;&#160;&#160;</text>
</g>
<!-- Notification operator -->
<g id="node6" class="node">
<title>Notification operator</title>
<polygon fill="#5661c6" stroke="black" points="347.5,-305 188.5,-305 188.5,-269 347.5,-269 347.5,-305"/>
<text text-anchor="middle" x="268" y="-283.3" font-family="Sans Not-Rotated 14" font-size="14.00" fill="white">Notification operator</text>
</g>
<!-- Red zone doctor FD&#45;&gt;Notification operator -->
<g id="edge26" class="edge">
<title>Red zone doctor FD&#45;&gt;Notification operator</title>
<path fill="none" stroke="black" stroke-width="1.55" d="M675.01,-442.88C591.41,-411.07 412.47,-342.98 322.3,-308.66"/>
<polygon fill="black" stroke="black" stroke-width="1.55" points="323.4,-305.34 312.81,-305.05 320.91,-311.88 323.4,-305.34"/>
<text text-anchor="middle" x="559.5" y="-370.3" font-family="Sans Not-Rotated 14" font-size="14.00"> &#160;&#160;&#160;&#160;&#160;&#160;&#160;&#160;</text>
</g>
<!-- Red zone doctor FD&#45;&gt;Yellow zone doctor -->
<g id="edge31" class="edge">
<title>Red zone doctor FD&#45;&gt;Yellow zone doctor</title>
<path fill="none" stroke="black" stroke-width="2.03" d="M643.38,-458.9C531.4,-456.49 333.9,-448.86 312,-425 306.47,-418.97 305.14,-410.61 305.68,-402.45"/>
<polygon fill="black" stroke="black" stroke-width="2.03" points="309.16,-402.81 307.17,-392.4 302.24,-401.78 309.16,-402.81"/>
<text text-anchor="middle" x="332.5" y="-413.8" font-family="Sans Not-Rotated 14" font-size="14.00"> &#160;&#160;&#160;&#160;&#160;&#160;&#160;&#160;</text>
</g>
<!-- Yellow zone doctor FD&#45;&gt;Red zone operator -->
<g id="edge5" class="edge">
<title>Yellow zone doctor FD&#45;&gt;Red zone operator</title>
<path fill="none" stroke="black" stroke-width="1.67" d="M808.79,-204.71C860.94,-211.41 925.1,-228.19 967,-269 987.72,-289.18 991,-300.57 991,-329.5 991,-462 991,-462 991,-462 991,-490.25 967.51,-511.14 943.42,-525.15"/>
<polygon fill="black" stroke="black" stroke-width="1.67" points="941.65,-522.12 934.56,-529.99 945.01,-528.26 941.65,-522.12"/>
<text text-anchor="middle" x="1011.5" y="-370.3" font-family="Sans Not-Rotated 14" font-size="14.00"> &#160;&#160;&#160;&#160;&#160;&#160;&#160;&#160;</text>
</g>
<!-- Yellow zone doctor FD&#45;&gt;Red zone doctor FD -->
<g id="edge10" class="edge">
<title>Yellow zone doctor FD&#45;&gt;Red zone doctor FD</title>
<path fill="none" stroke="black" stroke-width="1.3" d="M741.2,-218.23C753.77,-230.87 769.1,-249.21 776,-269 781.27,-284.11 778.76,-289.24 776,-305 773.73,-317.96 745.82,-392.3 730.28,-433.13"/>
<polygon fill="black" stroke="black" stroke-width="1.3" points="726.91,-432.15 726.62,-442.74 733.45,-434.64 726.91,-432.15"/>
<text text-anchor="middle" x="791.5" y="-326.8" font-family="Sans Not-Rotated 14" font-size="14.00"> &#160;&#160;&#160;&#160;&#160;&#160;&#160;&#160;</text>
</g>
<!-- Yellow zone doctor FD&#45;&gt;Red zone doctor -->
<g id="edge19" class="edge">
<title>Yellow zone doctor FD&#45;&gt;Red zone doctor</title>
<path fill="none" stroke="black" stroke-width="1.26" d="M765.58,-181.93C778.71,-176.5 793.06,-170.27 806,-164 818.36,-158.02 820.83,-155.34 833,-149 844.13,-143.2 856.26,-137.15 867.62,-131.6"/>
<polygon fill="black" stroke="black" stroke-width="1.26" points="869.49,-134.58 876.95,-127.07 866.43,-128.29 869.49,-134.58"/>
<text text-anchor="middle" x="853.5" y="-152.8" font-family="Sans Not-Rotated 14" font-size="14.00"> &#160;&#160;&#160;&#160;&#160;&#160;&#160;&#160;</text>
</g>
<!-- Yellow zone doctor FD&#45;&gt;Meas missing operator -->
<g id="edge22" class="edge">
<title>Yellow zone doctor FD&#45;&gt;Meas missing operator</title>
<path fill="none" stroke="black" stroke-width="1.13" d="M646.54,-182C599.15,-171.65 536.69,-158.63 481,-149 419.55,-138.37 350.14,-128.72 295.69,-121.67"/>
<polygon fill="black" stroke="black" stroke-width="1.13" points="296.06,-118.19 285.7,-120.39 295.17,-125.13 296.06,-118.19"/>
<text text-anchor="middle" x="575.5" y="-152.8" font-family="Sans Not-Rotated 14" font-size="14.00"> &#160;&#160;&#160;&#160;&#160;&#160;&#160;&#160;</text>
</g>
<!-- Yellow zone doctor FD&#45;&gt;Notification operator -->
<g id="edge25" class="edge">
<title>Yellow zone doctor FD&#45;&gt;Notification operator</title>
<path fill="none" stroke="black" stroke-width="1.92" d="M635.22,-207.37C570,-213.08 486.66,-222.64 455,-236 445.09,-240.18 445.75,-246.45 436,-251 411.7,-262.34 383.73,-270.04 357.66,-275.25"/>
<polygon fill="black" stroke="black" stroke-width="1.92" points="356.95,-271.82 347.77,-277.12 358.25,-278.7 356.95,-271.82"/>
<text text-anchor="middle" x="475.5" y="-239.8" font-family="Sans Not-Rotated 14" font-size="14.00"> &#160;&#160;&#160;&#160;&#160;&#160;&#160;&#160;</text>
</g>
<!-- Yellow zone doctor FD&#45;&gt;Yellow zone doctor -->
<g id="edge32" class="edge">
<title>Yellow zone doctor FD&#45;&gt;Yellow zone doctor</title>
<path fill="none" stroke="black" stroke-width="2.14" d="M701.55,-218.13C688.31,-228.61 670.36,-241.75 653,-251 632.52,-261.91 623.55,-256.51 604,-269 584.93,-281.19 587.23,-293.07 568,-305 528.94,-329.22 514.27,-325.65 470,-338 446.7,-344.5 421.19,-350.61 397.64,-355.85"/>
<polygon fill="black" stroke="black" stroke-width="2.14" points="396.69,-352.47 387.67,-358.04 398.19,-359.31 396.69,-352.47"/>
<text text-anchor="middle" x="640.5" y="-283.3" font-family="Sans Not-Rotated 14" font-size="14.00"> &#160;&#160;&#160;&#160;&#160;&#160;&#160;&#160;&#160;&#160;&#160;&#160;&#160;&#160;&#160;</text>
</g>
<!-- end -->
<g id="node10" class="node">
<title>end</title>
<ellipse fill="#ea4126" stroke="black" cx="575" cy="-109" rx="18" ry="18"/>
<ellipse fill="none" stroke="black" cx="575" cy="-109" rx="22" ry="22"/>
</g>
<!-- Yellow zone doctor FD&#45;&gt;end -->
<g id="edge39" class="edge">
<title>Yellow zone doctor FD&#45;&gt;end</title>
<path fill="none" stroke="black" stroke-dasharray="5,2" d="M693.66,-181.84C667.24,-165.84 628.11,-142.15 602.1,-126.41"/>
<polygon fill="black" stroke="black" points="603.85,-123.38 593.49,-121.19 600.23,-129.37 603.85,-123.38"/>
<text text-anchor="middle" x="671.5" y="-152.8" font-family="Sans Not-Rotated 14" font-size="14.00"> &#160;&#160;&#160;</text>
</g>
<!-- Red zone doctor&#45;&gt;Red zone operator -->
<g id="edge2" class="edge">
<title>Red zone doctor&#45;&gt;Red zone operator</title>
<path fill="none" stroke="black" stroke-width="3.46" d="M977.76,-111.03C1040.1,-115.87 1125,-134.33 1125,-199 1125,-462 1125,-462 1125,-462 1125,-493.74 1102.12,-497.26 1074,-512 1043.78,-527.84 1007.38,-536.56 975.09,-541.34"/>
<polygon fill="black" stroke="black" stroke-width="3.46" points="974.2,-537.93 964.77,-542.76 975.15,-544.87 974.2,-537.93"/>
<text text-anchor="middle" x="1161.5" y="-326.8" font-family="Sans Not-Rotated 14" font-size="14.00"> &#160;&#160;&#160;&#160;&#160;&#160;&#160;&#160;&#160;&#160;&#160;&#160;&#160;&#160;&#160;</text>
</g>
<!-- Red zone doctor&#45;&gt;Red zone doctor FD -->
<g id="edge8" class="edge">
<title>Red zone doctor&#45;&gt;Red zone doctor FD</title>
<path fill="none" stroke="black" stroke-width="3.5" d="M900.94,-127.2C893.35,-137.9 883.27,-151.88 874,-164 811.24,-246.05 779.52,-259.37 743,-356 733.49,-381.16 727.37,-411.29 723.85,-432.63"/>
<polygon fill="black" stroke="black" stroke-width="3.5" points="720.37,-432.21 722.28,-442.63 727.28,-433.29 720.37,-432.21"/>
<text text-anchor="middle" x="824.5" y="-283.3" font-family="Sans Not-Rotated 14" font-size="14.00"> &#160;&#160;&#160;&#160;&#160;&#160;&#160;&#160;&#160;&#160;&#160;&#160;&#160;&#160;&#160;</text>
</g>
<!-- Red zone doctor&#45;&gt;Yellow zone doctor FD -->
<g id="edge15" class="edge">
<title>Red zone doctor&#45;&gt;Yellow zone doctor FD</title>
<path fill="none" stroke="black" stroke-width="1.08" d="M848.41,-118.31C821.15,-123.95 790,-133.36 765,-149 754.89,-155.32 745.89,-164.77 738.77,-173.76"/>
<polygon fill="black" stroke="black" stroke-width="1.08" points="735.96,-171.68 732.79,-181.78 741.57,-175.87 735.96,-171.68"/>
<text text-anchor="middle" x="785.5" y="-152.8" font-family="Sans Not-Rotated 14" font-size="14.00"> &#160;&#160;&#160;&#160;&#160;&#160;&#160;&#160;</text>
</g>
<!-- Red zone doctor&#45;&gt;Red zone doctor -->
<g id="edge44" class="edge">
<title>Red zone doctor&#45;&gt;Red zone doctor</title>
<path fill="none" stroke="black" stroke-width="1.22" d="M977.68,-116.98C988.24,-115.84 995.5,-113.18 995.5,-109 995.5,-106.32 992.52,-104.27 987.6,-102.84"/>
<polygon fill="black" stroke="black" stroke-width="1.22" points="988.15,-99.38 977.68,-101.02 986.88,-106.27 988.15,-99.38"/>
<text text-anchor="middle" x="1016" y="-105.3" font-family="Sans Not-Rotated 14" font-size="14.00"> &#160;&#160;&#160;&#160;&#160;&#160;&#160;&#160;</text>
</g>
<!-- Red zone doctor&#45;&gt;Yellow zone doctor -->
<g id="edge34" class="edge">
<title>Red zone doctor&#45;&gt;Yellow zone doctor</title>
<path fill="none" stroke="black" stroke-width="1.24" d="M848.22,-124.36C816.96,-131.47 778.95,-140.36 745,-149 691.81,-162.54 672.66,-153.1 626,-182 590.95,-203.71 599.94,-230.8 564,-251 526.16,-272.27 508.13,-252.46 468,-269 441.67,-279.85 438.62,-289.1 415,-305 392.54,-320.11 367.23,-336.99 347.43,-350.15"/>
<polygon fill="black" stroke="black" stroke-width="1.24" points="345.43,-347.28 339.03,-355.73 349.3,-353.11 345.43,-347.28"/>
<text text-anchor="middle" x="603.5" y="-239.8" font-family="Sans Not-Rotated 14" font-size="14.00"> &#160;&#160;&#160;&#160;&#160;&#160;&#160;&#160;</text>
</g>
<!-- Meas missing operator&#45;&gt;Red zone operator -->
<g id="edge40" class="edge">
<title>Meas missing operator&#45;&gt;Red zone operator</title>
<path fill="none" stroke="black" stroke-width="1.08" d="M114.31,-115.44C60.03,-124.09 0,-145.7 0,-199 0,-462 0,-462 0,-462 0,-542.82 587.88,-548.44 809.13,-547.69"/>
<polygon fill="black" stroke="black" stroke-width="1.08" points="809.4,-551.19 819.38,-547.65 809.37,-544.19 809.4,-551.19"/>
<text text-anchor="middle" x="20.5" y="-326.8" font-family="Sans Not-Rotated 14" font-size="14.00"> &#160;&#160;&#160;&#160;&#160;&#160;&#160;&#160;</text>
</g>
<!-- Meas missing operator&#45;&gt;Notification operator -->
<g id="edge29" class="edge">
<title>Meas missing operator&#45;&gt;Notification operator</title>
<path fill="none" stroke="black" stroke-width="1.44" d="M193.56,-127.34C186.43,-149.44 177.62,-188.33 191,-218 199.23,-236.24 215.04,-251.56 230.2,-263.01"/>
<polygon fill="black" stroke="black" stroke-width="1.44" points="228.34,-265.98 238.51,-268.97 232.42,-260.29 228.34,-265.98"/>
<text text-anchor="middle" x="211.5" y="-196.3" font-family="Sans Not-Rotated 14" font-size="14.00"> &#160;&#160;&#160;&#160;&#160;&#160;&#160;&#160;</text>
</g>
<!-- Meas missing doctor -->
<g id="node7" class="node">
<title>Meas missing doctor</title>
<polygon fill="#ffffff" stroke="black" points="392.5,-36 237.5,-36 237.5,0 392.5,0 392.5,-36"/>
<text text-anchor="middle" x="315" y="-14.3" font-family="Sans Not-Rotated 14" font-size="14.00">Meas missing doctor</text>
</g>
<!-- Meas missing operator&#45;&gt;Meas missing doctor -->
<g id="edge1" class="edge">
<title>Meas missing operator&#45;&gt;Meas missing doctor</title>
<path fill="none" stroke="black" stroke-width="2.57" d="M191.44,-90.81C187.06,-79.31 184.12,-64.44 192,-54 197.28,-47 211.02,-40.99 227.49,-36.02"/>
<polygon fill="black" stroke="black" stroke-width="2.57" points="228.78,-39.3 237.46,-33.22 226.88,-32.56 228.78,-39.3"/>
<text text-anchor="middle" x="228.5" y="-57.8" font-family="Sans Not-Rotated 14" font-size="14.00"> &#160;&#160;&#160;&#160;&#160;&#160;&#160;&#160;&#160;&#160;&#160;&#160;&#160;&#160;&#160;</text>
</g>
<!-- Meas missing operator&#45;&gt;Yellow zone doctor -->
<g id="edge36" class="edge">
<title>Meas missing operator&#45;&gt;Yellow zone doctor</title>
<path fill="none" stroke="black" stroke-width="1.09" d="M190.57,-127.23C171.43,-164.81 133.51,-254.78 179,-305 197.95,-325.92 224.81,-341.3 249.51,-352.09"/>
<polygon fill="black" stroke="black" stroke-width="1.09" points="248.28,-355.36 258.86,-356 250.98,-348.91 248.28,-355.36"/>
<text text-anchor="middle" x="178.5" y="-239.8" font-family="Sans Not-Rotated 14" font-size="14.00"> &#160;&#160;&#160;&#160;&#160;&#160;&#160;&#160;</text>
</g>
<!-- Notification operator&#45;&gt;Red zone operator -->
<g id="edge6" class="edge">
<title>Notification operator&#45;&gt;Red zone operator</title>
<path fill="none" stroke="black" stroke-width="1.34" d="M254.84,-305.06C245.59,-318.18 234.01,-337.19 229,-356 224.88,-371.46 227.8,-376.05 229,-392 234.01,-458.48 255.67,-491.18 319,-512 407.53,-541.11 672.47,-546.37 808.86,-547.09"/>
<polygon fill="black" stroke="black" stroke-width="1.34" points="809.24,-550.59 819.25,-547.13 809.27,-543.59 809.24,-550.59"/>
<text text-anchor="middle" x="254.5" y="-413.8" font-family="Sans Not-Rotated 14" font-size="14.00"> &#160;&#160;&#160;&#160;&#160;&#160;&#160;&#160;</text>
</g>
<!-- Notification operator&#45;&gt;Yellow zone doctor FD -->
<g id="edge14" class="edge">
<title>Notification operator&#45;&gt;Yellow zone doctor FD</title>
<path fill="none" stroke="black" stroke-width="1.28" d="M347.72,-282.39C393.5,-278.27 451.37,-269.52 500,-251 511.41,-246.66 511.65,-240.48 523,-236 555.08,-223.33 591.88,-215.23 625.03,-210.06"/>
<polygon fill="black" stroke="black" stroke-width="1.28" points="625.82,-213.48 635.2,-208.55 624.79,-206.56 625.82,-213.48"/>
<text text-anchor="middle" x="543.5" y="-239.8" font-family="Sans Not-Rotated 14" font-size="14.00"> &#160;&#160;&#160;&#160;&#160;&#160;&#160;&#160;</text>
</g>
<!-- Notification operator&#45;&gt;Meas missing operator -->
<g id="edge21" class="edge">
<title>Notification operator&#45;&gt;Meas missing operator</title>
<path fill="none" stroke="black" stroke-width="2.76" d="M263.64,-268.77C258.14,-247.89 247.94,-211.81 236,-182 229.77,-166.45 221.48,-149.67 214.42,-136.22"/>
<polygon fill="black" stroke="black" stroke-width="2.76" points="217.34,-134.27 209.55,-127.09 211.17,-137.56 217.34,-134.27"/>
<text text-anchor="middle" x="285.5" y="-196.3" font-family="Sans Not-Rotated 14" font-size="14.00"> &#160;&#160;&#160;&#160;&#160;&#160;&#160;&#160;&#160;&#160;&#160;&#160;&#160;&#160;&#160;</text>
</g>
<!-- Notification operator&#45;&gt;Notification operator -->
<g id="edge45" class="edge">
<title>Notification operator&#45;&gt;Notification operator</title>
<path fill="none" stroke="black" stroke-width="2.04" d="M347.57,-293.99C358.33,-292.82 365.5,-290.49 365.5,-287 365.5,-284.77 362.56,-283.01 357.62,-281.72"/>
<polygon fill="black" stroke="black" stroke-width="2.04" points="358.02,-278.24 347.57,-280.01 356.84,-285.14 358.02,-278.24"/>
<text text-anchor="middle" x="386" y="-283.3" font-family="Sans Not-Rotated 14" font-size="14.00"> &#160;&#160;&#160;&#160;&#160;&#160;&#160;&#160;</text>
</g>
<!-- Notification operator&#45;&gt;Meas missing doctor -->
<g id="edge30" class="edge">
<title>Notification operator&#45;&gt;Meas missing doctor</title>
<path fill="none" stroke="black" stroke-width="1.07" d="M288.85,-268.77C302.26,-256.26 318.53,-238.07 326,-218 349.11,-155.94 326.78,-135.22 327,-69 327.02,-62.33 328.1,-60.58 327,-54 326.55,-51.3 325.92,-48.53 325.18,-45.79"/>
<polygon fill="black" stroke="black" stroke-width="1.07" points="328.48,-44.64 322.14,-36.15 321.81,-46.74 328.48,-44.64"/>
<text text-anchor="middle" x="357.5" y="-152.8" font-family="Sans Not-Rotated 14" font-size="14.00"> &#160;&#160;&#160;&#160;&#160;&#160;&#160;&#160;</text>
</g>
<!-- Notification operator&#45;&gt;Yellow zone doctor -->
<g id="edge33" class="edge">
<title>Notification operator&#45;&gt;Yellow zone doctor</title>
<path fill="none" stroke="black" stroke-width="1.66" d="M286.79,-305.21C291.68,-310.51 296.54,-316.63 300,-323 303.77,-329.94 306.48,-338.01 308.42,-345.62"/>
<polygon fill="black" stroke="black" stroke-width="1.66" points="305.04,-346.55 310.61,-355.57 311.88,-345.05 305.04,-346.55"/>
<text text-anchor="middle" x="327.5" y="-326.8" font-family="Sans Not-Rotated 14" font-size="14.00"> &#160;&#160;&#160;&#160;&#160;&#160;&#160;&#160;</text>
</g>
<!-- Notification operator&#45;&gt;end -->
<g id="edge38" class="edge">
<title>Notification operator&#45;&gt;end</title>
<path fill="none" stroke="black" stroke-dasharray="5,2" d="M347.85,-271.46C368.86,-266.29 391.17,-259.57 411,-251 427.29,-243.96 532.89,-176.98 545,-164 551.83,-156.69 557.66,-147.54 562.32,-138.86"/>
<polygon fill="black" stroke="black" points="565.54,-140.24 566.9,-129.73 559.29,-137.1 565.54,-140.24"/>
<text text-anchor="middle" x="541.5" y="-196.3" font-family="Sans Not-Rotated 14" font-size="14.00"> &#160;&#160;&#160;&#160;&#160;&#160;&#160;&#160;</text>
</g>
<!-- Meas missing doctor&#45;&gt;Red zone operator -->
<g id="edge41" class="edge">
<title>Meas missing doctor&#45;&gt;Red zone operator</title>
<path fill="none" stroke="black" stroke-width="1.03" d="M392.73,-18.62C610.88,-18.58 1213,-25.9 1213,-108 1213,-462 1213,-462 1213,-462 1213,-511.23 1070.15,-532.6 975.04,-541.38"/>
<polygon fill="black" stroke="black" stroke-width="1.03" points="974.49,-537.91 964.84,-542.29 975.11,-544.89 974.49,-537.91"/>
<text text-anchor="middle" x="1222.5" y="-283.3" font-family="Sans Not-Rotated 14" font-size="14.00"> &#160;&#160;&#160;</text>
</g>
<!-- Meas missing doctor&#45;&gt;Meas missing operator -->
<g id="edge23" class="edge">
<title>Meas missing doctor&#45;&gt;Meas missing operator</title>
<path fill="none" stroke="black" stroke-width="1.34" d="M299.73,-36.28C290.28,-46.44 277.58,-59.18 265,-69 257.53,-74.83 249.13,-80.46 240.9,-85.55"/>
<polygon fill="black" stroke="black" stroke-width="1.34" points="238.87,-82.69 232.1,-90.84 242.47,-88.69 238.87,-82.69"/>
<text text-anchor="middle" x="302.5" y="-57.8" font-family="Sans Not-Rotated 14" font-size="14.00"> &#160;&#160;&#160;&#160;&#160;&#160;&#160;&#160;</text>
</g>
<!-- Meas missing doctor&#45;&gt;Notification operator -->
<g id="edge27" class="edge">
<title>Meas missing doctor&#45;&gt;Notification operator</title>
<path fill="none" stroke="black" stroke-width="2.12" d="M340.47,-36.14C346.59,-41.28 352.62,-47.34 357,-54 381.25,-90.9 409.69,-215.82 383,-251 376.12,-260.06 366.95,-266.86 356.79,-271.93"/>
<polygon fill="black" stroke="black" stroke-width="2.12" points="355.37,-268.73 347.63,-275.96 358.19,-275.14 355.37,-268.73"/>
<text text-anchor="middle" x="427.5" y="-152.8" font-family="Sans Not-Rotated 14" font-size="14.00"> &#160;&#160;&#160;&#160;&#160;&#160;&#160;&#160;&#160;&#160;&#160;&#160;&#160;&#160;&#160;</text>
</g>
<!-- Meas missing doctor&#45;&gt;Yellow zone doctor -->
<g id="edge37" class="edge">
<title>Meas missing doctor&#45;&gt;Yellow zone doctor</title>
<path fill="none" stroke="black" stroke-width="1.04" d="M237.3,-21.42C190.09,-27.51 133.57,-44.1 105,-87 49.79,-169.9 102.46,-221.65 157,-305 173.35,-329.99 201.11,-345.85 228.72,-355.89"/>
<polygon fill="black" stroke="black" stroke-width="1.04" points="227.87,-359.29 238.46,-359.2 230.12,-352.67 227.87,-359.29"/>
<text text-anchor="middle" x="109.5" y="-196.3" font-family="Sans Not-Rotated 14" font-size="14.00"> &#160;&#160;&#160;</text>
</g>
<!-- Yellow zone doctor&#45;&gt;Red zone operator -->
<g id="edge7" class="edge">
<title>Yellow zone doctor&#45;&gt;Red zone operator</title>
<path fill="none" stroke="black" stroke-width="1.18" d="M302.54,-392.43C297.75,-402.89 294.59,-415.9 302,-425 365.01,-502.37 661.82,-532.18 808.93,-542.35"/>
<polygon fill="black" stroke="black" stroke-width="1.18" points="809.05,-545.86 819.26,-543.04 809.52,-538.88 809.05,-545.86"/>
<text text-anchor="middle" x="416.5" y="-457.3" font-family="Sans Not-Rotated 14" font-size="14.00"> &#160;&#160;&#160;&#160;&#160;&#160;&#160;&#160;</text>
</g>
<!-- Yellow zone doctor&#45;&gt;Red zone doctor FD -->
<g id="edge11" class="edge">
<title>Yellow zone doctor&#45;&gt;Red zone doctor FD</title>
<path fill="none" stroke="black" stroke-width="1.25" d="M333.98,-392.06C351,-405.75 372.97,-423 378,-425 422.87,-442.86 547.7,-452.13 633.45,-456.53"/>
<polygon fill="black" stroke="black" stroke-width="1.25" points="633.28,-460.02 643.44,-457.03 633.63,-453.03 633.28,-460.02"/>
<text text-anchor="middle" x="398.5" y="-413.8" font-family="Sans Not-Rotated 14" font-size="14.00"> &#160;&#160;&#160;&#160;&#160;&#160;&#160;&#160;</text>
</g>
<!-- Yellow zone doctor&#45;&gt;Yellow zone doctor FD -->
<g id="edge12" class="edge">
<title>Yellow zone doctor&#45;&gt;Yellow zone doctor FD</title>
<path fill="none" stroke="black" stroke-width="3.62" d="M387.51,-358.74C413.34,-352.77 438.46,-345.48 449,-338 479.05,-316.66 463.75,-288.54 495,-269 545.58,-237.38 571.25,-269.38 628,-251 641.43,-246.65 643.54,-242.64 656,-236 663.98,-231.74 672.52,-227.21 680.71,-222.86"/>
<polygon fill="black" stroke="black" stroke-width="3.62" points="682.56,-225.84 689.76,-218.06 679.28,-219.66 682.56,-225.84"/>
<text text-anchor="middle" x="531.5" y="-283.3" font-family="Sans Not-Rotated 14" font-size="14.00"> &#160;&#160;&#160;&#160;&#160;&#160;&#160;&#160;&#160;&#160;&#160;&#160;&#160;&#160;&#160;</text>
</g>
<!-- Yellow zone doctor&#45;&gt;Notification operator -->
<g id="edge28" class="edge">
<title>Yellow zone doctor&#45;&gt;Notification operator</title>
<path fill="none" stroke="black" stroke-width="1.34" d="M275.64,-355.9C268.96,-351.09 262.89,-345.17 259,-338 255.19,-331 255.2,-322.7 256.79,-314.91"/>
<polygon fill="black" stroke="black" stroke-width="1.34" points="260.22,-315.67 259.63,-305.09 253.49,-313.73 260.22,-315.67"/>
<text text-anchor="middle" x="279.5" y="-326.8" font-family="Sans Not-Rotated 14" font-size="14.00"> &#160;&#160;&#160;&#160;&#160;&#160;&#160;&#160;</text>
</g>
<!-- start -->
<g id="node9" class="node">
<title>start</title>
<ellipse fill="#95d600" stroke="black" cx="1098" cy="-644.3" rx="27.1" ry="27.1"/>
<text text-anchor="middle" x="1098" y="-640.6" font-family="Sans Not-Rotated 14" font-size="14.00">start</text>
</g>
<!-- start&#45;&gt;Red zone operator -->
<g id="edge4" class="edge">
<title>start&#45;&gt;Red zone operator</title>
<path fill="none" stroke="black" stroke-dasharray="5,2" d="M1073.56,-632.11C1040.37,-616.92 980.38,-589.45 938.47,-570.27"/>
<polygon fill="black" stroke="black" points="939.84,-567.05 929.29,-566.07 936.93,-573.42 939.84,-567.05"/>
<text text-anchor="middle" x="1021.5" y="-587.8" font-family="Sans Not-Rotated 14" font-size="14.00"> &#160;&#160;&#160;&#160;&#160;&#160;&#160;&#160;</text>
</g>
<!-- start&#45;&gt;Red zone doctor -->
<g id="edge20" class="edge">
<title>start&#45;&gt;Red zone doctor</title>
<path fill="none" stroke="black" stroke-dasharray="5,2" d="M1125.12,-640C1171.23,-632.71 1260,-610.67 1260,-549 1260,-549 1260,-549 1260,-329.5 1260,-228.52 1210.73,-197.21 1122,-149 1080.95,-126.7 1029.41,-116.91 987.78,-112.72"/>
<polygon fill="black" stroke="black" points="987.97,-109.23 977.69,-111.8 987.33,-116.2 987.97,-109.23"/>
<text text-anchor="middle" x="1269.5" y="-370.3" font-family="Sans Not-Rotated 14" font-size="14.00"> &#160;&#160;&#160;</text>
</g>
</g>
</svg>
