<?xml version="1.0" encoding="UTF-8" standalone="no"?>
<!DOCTYPE svg PUBLIC "-//W3C//DTD SVG 1.1//EN"
 "http://www.w3.org/Graphics/SVG/1.1/DTD/svg11.dtd">
<!-- Generated by graphviz version 3.0.0 (20220226.1711)
 -->
<!-- Pages: 1 -->
<svg width="1118pt" height="680pt"
 viewBox="0.00 0.00 1118.00 679.60" xmlns="http://www.w3.org/2000/svg" xmlns:xlink="http://www.w3.org/1999/xlink">
<g id="graph0" class="graph" transform="scale(1 1) rotate(0) translate(4 675.6)">
<polygon fill="white" stroke="transparent" points="-4,4 -4,-675.6 1114,-675.6 1114,4 -4,4"/>
<!-- Red zone operator -->
<g id="node1" class="node">
<title>Red zone operator</title>
<polygon fill="#1d2559" stroke="black" points="465.5,-566 320.5,-566 320.5,-530 465.5,-530 465.5,-566"/>
<text text-anchor="middle" x="393" y="-544.3" font-family="Sans Not-Rotated 14" font-size="14.00" fill="white">Red zone operator</text>
</g>
<!-- Red zone operator&#45;&gt;Red zone operator -->
<g id="edge34" class="edge">
<title>Red zone operator&#45;&gt;Red zone operator</title>
<path fill="none" stroke="black" stroke-width="1.46" d="M465.79,-555.11C476.37,-553.98 483.5,-551.61 483.5,-548 483.5,-545.69 480.57,-543.88 475.69,-542.59"/>
<polygon fill="black" stroke="black" stroke-width="1.46" points="476.24,-539.13 465.79,-540.89 475.05,-546.03 476.24,-539.13"/>
<text text-anchor="middle" x="504" y="-544.3" font-family="Sans Not-Rotated 14" font-size="14.00"> &#160;&#160;&#160;&#160;&#160;&#160;&#160;&#160;</text>
</g>
<!-- Red zone doctor FD -->
<g id="node2" class="node">
<title>Red zone doctor FD</title>
<polygon fill="#1d2559" stroke="black" points="469.5,-479 316.5,-479 316.5,-443 469.5,-443 469.5,-479"/>
<text text-anchor="middle" x="393" y="-457.3" font-family="Sans Not-Rotated 14" font-size="14.00" fill="white">Red zone doctor FD</text>
</g>
<!-- Red zone operator&#45;&gt;Red zone doctor FD -->
<g id="edge7" class="edge">
<title>Red zone operator&#45;&gt;Red zone doctor FD</title>
<path fill="none" stroke="black" stroke-width="3.32" d="M357.91,-529.91C345.14,-521.19 335.3,-509.73 342,-497 344.17,-492.88 347.07,-489.15 350.38,-485.8"/>
<polygon fill="black" stroke="black" stroke-width="3.32" points="352.91,-488.24 358.19,-479.06 348.34,-482.94 352.91,-488.24"/>
<text text-anchor="middle" x="378.5" y="-500.8" font-family="Sans Not-Rotated 14" font-size="14.00"> &#160;&#160;&#160;&#160;&#160;&#160;&#160;&#160;&#160;&#160;&#160;&#160;&#160;&#160;&#160;</text>
</g>
<!-- Red zone doctor -->
<g id="node4" class="node">
<title>Red zone doctor</title>
<polygon fill="#1f3b98" stroke="black" points="263.5,-123 134.5,-123 134.5,-87 263.5,-87 263.5,-123"/>
<text text-anchor="middle" x="199" y="-101.3" font-family="Sans Not-Rotated 14" font-size="14.00" fill="white">Red zone doctor</text>
</g>
<!-- Red zone operator&#45;&gt;Red zone doctor -->
<g id="edge13" class="edge">
<title>Red zone operator&#45;&gt;Red zone doctor</title>
<path fill="none" stroke="black" stroke-width="5" d="M320.46,-545.96C206.9,-542.33 0,-526.83 0,-462 0,-462 0,-462 0,-195 0,-138.41 67.89,-117.56 124.36,-110.01"/>
<polygon fill="black" stroke="black" stroke-width="5" points="124.99,-114.34 134.39,-108.79 123.93,-105.66 124.99,-114.34"/>
<text text-anchor="middle" x="36.5" y="-326.8" font-family="Sans Not-Rotated 14" font-size="14.00"> &#160;&#160;&#160;&#160;&#160;&#160;&#160;&#160;&#160;&#160;&#160;&#160;&#160;&#160;&#160;</text>
</g>
<!-- Yellow zone doctor -->
<g id="node8" class="node">
<title>Yellow zone doctor</title>
<polygon fill="#a09dde" stroke="black" points="671.5,-392 522.5,-392 522.5,-356 671.5,-356 671.5,-392"/>
<text text-anchor="middle" x="597" y="-370.3" font-family="Sans Not-Rotated 14" font-size="14.00">Yellow zone doctor</text>
</g>
<!-- Red zone operator&#45;&gt;Yellow zone doctor -->
<g id="edge26" class="edge">
<title>Red zone operator&#45;&gt;Yellow zone doctor</title>
<path fill="none" stroke="black" stroke-width="1.14" d="M465.74,-540.4C519.08,-534.62 586.33,-525.1 611,-512 640.7,-496.24 651.69,-475.19 642,-443 637.37,-427.62 628.01,-412.51 619.01,-400.46"/>
<polygon fill="black" stroke="black" stroke-width="1.14" points="621.52,-397.99 612.6,-392.27 616.01,-402.3 621.52,-397.99"/>
<text text-anchor="middle" x="665.5" y="-457.3" font-family="Sans Not-Rotated 14" font-size="14.00"> &#160;&#160;&#160;&#160;&#160;&#160;&#160;&#160;</text>
</g>
<!-- Red zone doctor FD&#45;&gt;Red zone operator -->
<g id="edge3" class="edge">
<title>Red zone doctor FD&#45;&gt;Red zone operator</title>
<path fill="none" stroke="black" stroke-width="3.41" d="M409.99,-479.44C417.02,-488.78 422.75,-500.67 419,-512 417.95,-515.16 416.5,-518.27 414.81,-521.25"/>
<polygon fill="black" stroke="black" stroke-width="3.41" points="411.79,-519.46 409.19,-529.73 417.63,-523.33 411.79,-519.46"/>
<text text-anchor="middle" x="457.5" y="-500.8" font-family="Sans Not-Rotated 14" font-size="14.00"> &#160;&#160;&#160;&#160;&#160;&#160;&#160;&#160;&#160;&#160;&#160;&#160;&#160;&#160;&#160;</text>
</g>
<!-- Red zone doctor FD&#45;&gt;Red zone doctor FD -->
<g id="edge35" class="edge">
<title>Red zone doctor FD&#45;&gt;Red zone doctor FD</title>
<path fill="none" stroke="black" stroke-width="2.51" d="M469.75,-468.03C480.39,-466.87 487.5,-464.53 487.5,-461 487.5,-458.74 484.58,-456.97 479.69,-455.68"/>
<polygon fill="black" stroke="black" stroke-width="2.51" points="480.2,-452.22 469.75,-453.97 479.02,-459.12 480.2,-452.22"/>
<text text-anchor="middle" x="524" y="-457.3" font-family="Sans Not-Rotated 14" font-size="14.00"> &#160;&#160;&#160;&#160;&#160;&#160;&#160;&#160;&#160;&#160;&#160;&#160;&#160;&#160;&#160;</text>
</g>
<!-- Yellow zone doctor FD -->
<g id="node3" class="node">
<title>Yellow zone doctor FD</title>
<polygon fill="#a09dde" stroke="black" points="632.5,-214 459.5,-214 459.5,-178 632.5,-178 632.5,-214"/>
<text text-anchor="middle" x="546" y="-192.3" font-family="Sans Not-Rotated 14" font-size="14.00">Yellow zone doctor FD</text>
</g>
<!-- Red zone doctor FD&#45;&gt;Yellow zone doctor FD -->
<g id="edge11" class="edge">
<title>Red zone doctor FD&#45;&gt;Yellow zone doctor FD</title>
<path fill="none" stroke="black" stroke-width="1.43" d="M391.97,-442.91C389.53,-396.01 385.41,-266.79 412,-236 422.07,-224.34 435.4,-216.07 449.75,-210.22"/>
<polygon fill="black" stroke="black" stroke-width="1.43" points="451.12,-213.44 459.31,-206.71 448.71,-206.87 451.12,-213.44"/>
<text text-anchor="middle" x="412.5" y="-326.8" font-family="Sans Not-Rotated 14" font-size="14.00"> &#160;&#160;&#160;&#160;&#160;&#160;&#160;&#160;</text>
</g>
<!-- Red zone doctor FD&#45;&gt;Red zone doctor -->
<g id="edge14" class="edge">
<title>Red zone doctor FD&#45;&gt;Red zone doctor</title>
<path fill="none" stroke="black" stroke-width="1.67" d="M376.58,-442.95C371.43,-437.37 365.83,-431.04 361,-425 349.83,-411.04 347.17,-407.35 338,-392 283.32,-300.47 232.04,-184.27 210.14,-132.72"/>
<polygon fill="black" stroke="black" stroke-width="1.67" points="213.28,-131.15 206.16,-123.3 206.83,-133.87 213.28,-131.15"/>
<text text-anchor="middle" x="310.5" y="-283.3" font-family="Sans Not-Rotated 14" font-size="14.00"> &#160;&#160;&#160;&#160;&#160;&#160;&#160;&#160;</text>
</g>
<!-- Notification operator -->
<g id="node6" class="node">
<title>Notification operator</title>
<polygon fill="#5661c6" stroke="black" points="943.5,-305 784.5,-305 784.5,-269 943.5,-269 943.5,-305"/>
<text text-anchor="middle" x="864" y="-283.3" font-family="Sans Not-Rotated 14" font-size="14.00" fill="white">Notification operator</text>
</g>
<!-- Red zone doctor FD&#45;&gt;Notification operator -->
<g id="edge18" class="edge">
<title>Red zone doctor FD&#45;&gt;Notification operator</title>
<path fill="none" stroke="black" stroke-width="1.51" d="M469.71,-448.31C504.78,-442.37 546.74,-434.4 584,-425 705.84,-394.28 768.53,-431.02 853,-338 858.63,-331.8 861.61,-323.39 863.12,-315.24"/>
<polygon fill="black" stroke="black" stroke-width="1.51" points="866.6,-315.59 864.34,-305.24 859.65,-314.74 866.6,-315.59"/>
<text text-anchor="middle" x="853.5" y="-370.3" font-family="Sans Not-Rotated 14" font-size="14.00"> &#160;&#160;&#160;&#160;&#160;&#160;&#160;&#160;</text>
</g>
<!-- Red zone doctor FD&#45;&gt;Yellow zone doctor -->
<g id="edge22" class="edge">
<title>Red zone doctor FD&#45;&gt;Yellow zone doctor</title>
<path fill="none" stroke="black" stroke-width="2" d="M458.64,-442.98C475.33,-437.9 493.05,-431.84 509,-425 526.96,-417.3 545.91,-406.86 561.62,-397.51"/>
<polygon fill="black" stroke="black" stroke-width="2" points="563.71,-400.33 570.45,-392.16 560.09,-394.35 563.71,-400.33"/>
<text text-anchor="middle" x="559.5" y="-413.8" font-family="Sans Not-Rotated 14" font-size="14.00"> &#160;&#160;&#160;&#160;&#160;&#160;&#160;&#160;</text>
</g>
<!-- Yellow zone doctor FD&#45;&gt;Red zone operator -->
<g id="edge5" class="edge">
<title>Yellow zone doctor FD&#45;&gt;Red zone operator</title>
<path fill="none" stroke="black" stroke-width="1.63" d="M459.34,-205.16C428.71,-210.75 394.95,-220.16 367,-236 313.28,-266.44 309.91,-295.62 297,-356 285.53,-409.63 284.75,-428.87 307,-479 315.48,-498.11 332.52,-513.34 349.21,-524.5"/>
<polygon fill="black" stroke="black" stroke-width="1.63" points="347.53,-527.59 357.86,-529.97 351.27,-521.67 347.53,-527.59"/>
<text text-anchor="middle" x="317.5" y="-370.3" font-family="Sans Not-Rotated 14" font-size="14.00"> &#160;&#160;&#160;&#160;&#160;&#160;&#160;&#160;</text>
</g>
<!-- Yellow zone doctor FD&#45;&gt;Red zone doctor FD -->
<g id="edge8" class="edge">
<title>Yellow zone doctor FD&#45;&gt;Red zone doctor FD</title>
<path fill="none" stroke="black" stroke-width="1.26" d="M459.46,-204.28C433.21,-209.87 405.62,-219.51 384,-236 383.9,-236.07 325.84,-292.24 336,-338 343.79,-373.06 362.75,-409.97 376.68,-433.89"/>
<polygon fill="black" stroke="black" stroke-width="1.26" points="373.79,-435.89 381.92,-442.69 379.81,-432.31 373.79,-435.89"/>
<text text-anchor="middle" x="356.5" y="-326.8" font-family="Sans Not-Rotated 14" font-size="14.00"> &#160;&#160;&#160;&#160;&#160;&#160;&#160;&#160;</text>
</g>
<!-- Yellow zone doctor FD&#45;&gt;Red zone doctor -->
<g id="edge28" class="edge">
<title>Yellow zone doctor FD&#45;&gt;Red zone doctor</title>
<path fill="none" stroke="black" stroke-width="1.22" d="M520.13,-177.89C500.37,-165.65 472.02,-149.84 445,-141 389.19,-122.74 323.18,-114.01 273.59,-109.83"/>
<polygon fill="black" stroke="black" stroke-width="1.22" points="273.84,-106.33 263.59,-109.03 273.28,-113.31 273.84,-106.33"/>
<text text-anchor="middle" x="500.5" y="-144.8" font-family="Sans Not-Rotated 14" font-size="14.00"> &#160;&#160;&#160;&#160;&#160;&#160;&#160;&#160;</text>
</g>
<!-- Meas missing operator -->
<g id="node5" class="node">
<title>Meas missing operator</title>
<polygon fill="#e0ddf4" stroke="black" points="953.5,-123 782.5,-123 782.5,-87 953.5,-87 953.5,-123"/>
<text text-anchor="middle" x="868" y="-101.3" font-family="Sans Not-Rotated 14" font-size="14.00">Meas missing operator</text>
</g>
<!-- Yellow zone doctor FD&#45;&gt;Meas missing operator -->
<g id="edge16" class="edge">
<title>Yellow zone doctor FD&#45;&gt;Meas missing operator</title>
<path fill="none" stroke="black" stroke-width="1.09" d="M584.01,-177.93C611.36,-166.19 649.39,-150.97 684,-141 712.37,-132.83 743.76,-126.05 772.46,-120.7"/>
<polygon fill="black" stroke="black" stroke-width="1.09" points="773.28,-124.11 782.49,-118.87 772.03,-117.23 773.28,-124.11"/>
<text text-anchor="middle" x="704.5" y="-144.8" font-family="Sans Not-Rotated 14" font-size="14.00"> &#160;&#160;&#160;&#160;&#160;&#160;&#160;&#160;</text>
</g>
<!-- Yellow zone doctor FD&#45;&gt;Notification operator -->
<g id="edge17" class="edge">
<title>Yellow zone doctor FD&#45;&gt;Notification operator</title>
<path fill="none" stroke="black" stroke-width="1.89" d="M578.29,-214.01C602.2,-225.96 635.88,-241.45 667,-251 701.46,-261.58 740.34,-269.33 774.41,-274.81"/>
<polygon fill="black" stroke="black" stroke-width="1.89" points="773.93,-278.28 784.35,-276.37 775.01,-271.36 773.93,-278.28"/>
<text text-anchor="middle" x="687.5" y="-239.8" font-family="Sans Not-Rotated 14" font-size="14.00"> &#160;&#160;&#160;&#160;&#160;&#160;&#160;&#160;</text>
</g>
<!-- Yellow zone doctor FD&#45;&gt;Yellow zone doctor -->
<g id="edge23" class="edge">
<title>Yellow zone doctor FD&#45;&gt;Yellow zone doctor</title>
<path fill="none" stroke="black" stroke-width="2.11" d="M526.13,-214.37C504.08,-235.85 473.74,-273.43 491,-305 502.14,-325.38 522.29,-340.56 542.05,-351.34"/>
<polygon fill="black" stroke="black" stroke-width="2.11" points="540.57,-354.51 551.07,-355.98 543.78,-348.29 540.57,-354.51"/>
<text text-anchor="middle" x="527.5" y="-283.3" font-family="Sans Not-Rotated 14" font-size="14.00"> &#160;&#160;&#160;&#160;&#160;&#160;&#160;&#160;&#160;&#160;&#160;&#160;&#160;&#160;&#160;</text>
</g>
<!-- Red zone doctor&#45;&gt;Red zone operator -->
<g id="edge2" class="edge">
<title>Red zone doctor&#45;&gt;Red zone operator</title>
<path fill="none" stroke="black" stroke-width="3.44" d="M156.21,-123.11C127.91,-137.56 96,-161.32 96,-195 96,-462 96,-462 96,-462 96,-506.8 222.48,-529.33 310.37,-539.57"/>
<polygon fill="black" stroke="black" stroke-width="3.44" points="310.02,-543.05 320.35,-540.7 310.8,-536.1 310.02,-543.05"/>
<text text-anchor="middle" x="132.5" y="-326.8" font-family="Sans Not-Rotated 14" font-size="14.00"> &#160;&#160;&#160;&#160;&#160;&#160;&#160;&#160;&#160;&#160;&#160;&#160;&#160;&#160;&#160;</text>
</g>
<!-- Red zone doctor&#45;&gt;Red zone doctor FD -->
<g id="edge6" class="edge">
<title>Red zone doctor&#45;&gt;Red zone doctor FD</title>
<path fill="none" stroke="black" stroke-width="3.48" d="M188.79,-123.21C169.21,-158.59 130.64,-241.51 158,-305 165.68,-322.83 268.3,-415.1 285,-425 294.35,-430.54 304.67,-435.32 315.13,-439.41"/>
<polygon fill="black" stroke="black" stroke-width="3.48" points="314.15,-442.77 324.74,-442.97 316.58,-436.21 314.15,-442.77"/>
<text text-anchor="middle" x="194.5" y="-283.3" font-family="Sans Not-Rotated 14" font-size="14.00"> &#160;&#160;&#160;&#160;&#160;&#160;&#160;&#160;&#160;&#160;&#160;&#160;&#160;&#160;&#160;</text>
</g>
<!-- Red zone doctor&#45;&gt;Red zone doctor -->
<g id="edge36" class="edge">
<title>Red zone doctor&#45;&gt;Red zone doctor</title>
<path fill="none" stroke="black" stroke-width="1.18" d="M263.68,-112.29C274.24,-111.24 281.5,-108.81 281.5,-105 281.5,-102.56 278.52,-100.68 273.6,-99.38"/>
<polygon fill="black" stroke="black" stroke-width="1.18" points="274.12,-95.91 263.68,-97.71 272.96,-102.82 274.12,-95.91"/>
<text text-anchor="middle" x="302" y="-101.3" font-family="Sans Not-Rotated 14" font-size="14.00"> &#160;&#160;&#160;&#160;&#160;&#160;&#160;&#160;</text>
</g>
<!-- Red zone doctor&#45;&gt;Yellow zone doctor -->
<g id="edge25" class="edge">
<title>Red zone doctor&#45;&gt;Yellow zone doctor</title>
<path fill="none" stroke="black" stroke-width="1.2" d="M235.85,-123.07C246.2,-128.36 257.28,-134.52 267,-141 380.15,-216.36 383.34,-269.9 501,-338 510.23,-343.34 520.41,-348.1 530.6,-352.26"/>
<polygon fill="black" stroke="black" stroke-width="1.2" points="529.34,-355.53 539.93,-355.92 531.89,-349.01 529.34,-355.53"/>
<text text-anchor="middle" x="411.5" y="-239.8" font-family="Sans Not-Rotated 14" font-size="14.00"> &#160;&#160;&#160;&#160;&#160;&#160;&#160;&#160;</text>
</g>
<!-- Meas missing operator&#45;&gt;Notification operator -->
<g id="edge21" class="edge">
<title>Meas missing operator&#45;&gt;Notification operator</title>
<path fill="none" stroke="black" stroke-width="1.4" d="M920.1,-123.12C943.73,-133.78 969.38,-150.13 983,-174 992.69,-190.99 992.82,-201.09 983,-218 970.77,-239.07 949.29,-254.16 927.92,-264.69"/>
<polygon fill="black" stroke="black" stroke-width="1.4" points="926.39,-261.54 918.79,-268.92 929.34,-267.89 926.39,-261.54"/>
<text text-anchor="middle" x="1010.5" y="-192.3" font-family="Sans Not-Rotated 14" font-size="14.00"> &#160;&#160;&#160;&#160;&#160;&#160;&#160;&#160;</text>
</g>
<!-- Meas missing doctor -->
<g id="node7" class="node">
<title>Meas missing doctor</title>
<polygon fill="#ffffff" stroke="black" points="945.5,-36 790.5,-36 790.5,0 945.5,0 945.5,-36"/>
<text text-anchor="middle" x="868" y="-14.3" font-family="Sans Not-Rotated 14" font-size="14.00">Meas missing doctor</text>
</g>
<!-- Meas missing operator&#45;&gt;Meas missing doctor -->
<g id="edge1" class="edge">
<title>Meas missing operator&#45;&gt;Meas missing doctor</title>
<path fill="none" stroke="black" stroke-width="2.55" d="M836.11,-86.67C830.02,-81.8 824.47,-75.91 821,-69 816.21,-59.46 820.53,-50.48 828.17,-42.83"/>
<polygon fill="black" stroke="black" stroke-width="2.55" points="830.6,-45.35 835.95,-36.2 826.06,-40.02 830.6,-45.35"/>
<text text-anchor="middle" x="857.5" y="-57.8" font-family="Sans Not-Rotated 14" font-size="14.00"> &#160;&#160;&#160;&#160;&#160;&#160;&#160;&#160;&#160;&#160;&#160;&#160;&#160;&#160;&#160;</text>
</g>
<!-- Meas missing operator&#45;&gt;Yellow zone doctor -->
<g id="edge29" class="edge">
<title>Meas missing operator&#45;&gt;Yellow zone doctor</title>
<path fill="none" stroke="black" stroke-width="1.04" d="M841.69,-123.16C809.74,-145.37 756.47,-187.09 727,-236 702.79,-276.16 732,-303.72 700,-338 694.47,-343.92 687.91,-348.84 680.8,-352.93"/>
<polygon fill="black" stroke="black" stroke-width="1.04" points="678.86,-349.99 671.56,-357.67 682.05,-356.22 678.86,-349.99"/>
<text text-anchor="middle" x="747.5" y="-239.8" font-family="Sans Not-Rotated 14" font-size="14.00"> &#160;&#160;&#160;&#160;&#160;&#160;&#160;&#160;</text>
</g>
<!-- Notification operator&#45;&gt;Red zone operator -->
<g id="edge30" class="edge">
<title>Notification operator&#45;&gt;Red zone operator</title>
<path fill="none" stroke="black" stroke-width="1.3" d="M872.71,-305.27C882.39,-327.15 894.64,-365.23 878,-392 814.42,-494.3 750.03,-476.27 635,-512 583.35,-528.04 523.17,-536.79 475.75,-541.52"/>
<polygon fill="black" stroke="black" stroke-width="1.3" points="475.14,-538.06 465.52,-542.5 475.81,-545.03 475.14,-538.06"/>
<text text-anchor="middle" x="884.5" y="-413.8" font-family="Sans Not-Rotated 14" font-size="14.00"> &#160;&#160;&#160;&#160;&#160;&#160;&#160;&#160;</text>
</g>
<!-- Notification operator&#45;&gt;Yellow zone doctor FD -->
<g id="edge12" class="edge">
<title>Notification operator&#45;&gt;Yellow zone doctor FD</title>
<path fill="none" stroke="black" stroke-width="1.24" d="M838.09,-268.93C820.22,-257.92 795.53,-244.17 772,-236 770.36,-235.43 703.41,-223.9 642.81,-213.53"/>
<polygon fill="black" stroke="black" stroke-width="1.24" points="643.21,-210.05 632.76,-211.81 642.03,-216.95 643.21,-210.05"/>
<text text-anchor="middle" x="826.5" y="-239.8" font-family="Sans Not-Rotated 14" font-size="14.00"> &#160;&#160;&#160;&#160;&#160;&#160;&#160;&#160;</text>
</g>
<!-- Notification operator&#45;&gt;Meas missing operator -->
<g id="edge15" class="edge">
<title>Notification operator&#45;&gt;Meas missing operator</title>
<path fill="none" stroke="black" stroke-width="2.73" d="M887.06,-268.97C892.29,-263.83 897.15,-257.74 900,-251 916.75,-211.36 898.05,-161.76 883.01,-132.05"/>
<polygon fill="black" stroke="black" stroke-width="2.73" points="886.07,-130.34 878.3,-123.14 879.88,-133.61 886.07,-130.34"/>
<text text-anchor="middle" x="942.5" y="-192.3" font-family="Sans Not-Rotated 14" font-size="14.00"> &#160;&#160;&#160;&#160;&#160;&#160;&#160;&#160;&#160;&#160;&#160;&#160;&#160;&#160;&#160;</text>
</g>
<!-- Notification operator&#45;&gt;Notification operator -->
<g id="edge37" class="edge">
<title>Notification operator&#45;&gt;Notification operator</title>
<path fill="none" stroke="black" stroke-width="2.01" d="M943.57,-293.99C954.33,-292.82 961.5,-290.49 961.5,-287 961.5,-284.77 958.56,-283.01 953.62,-281.72"/>
<polygon fill="black" stroke="black" stroke-width="2.01" points="954.02,-278.24 943.57,-280.01 952.84,-285.14 954.02,-278.24"/>
<text text-anchor="middle" x="982" y="-283.3" font-family="Sans Not-Rotated 14" font-size="14.00"> &#160;&#160;&#160;&#160;&#160;&#160;&#160;&#160;</text>
</g>
<!-- Notification operator&#45;&gt;Yellow zone doctor -->
<g id="edge24" class="edge">
<title>Notification operator&#45;&gt;Yellow zone doctor</title>
<path fill="none" stroke="black" stroke-width="1.62" d="M838.43,-305.22C817.25,-319.46 790.4,-337.44 789,-338 755.26,-351.64 716.04,-359.99 681.87,-365.1"/>
<polygon fill="black" stroke="black" stroke-width="1.62" points="681.32,-361.64 671.91,-366.52 682.31,-368.57 681.32,-361.64"/>
<text text-anchor="middle" x="830.5" y="-326.8" font-family="Sans Not-Rotated 14" font-size="14.00"> &#160;&#160;&#160;&#160;&#160;&#160;&#160;&#160;</text>
</g>
<!-- end -->
<g id="node10" class="node">
<title>end</title>
<ellipse fill="#ea4126" stroke="black" cx="856" cy="-196" rx="18" ry="18"/>
<ellipse fill="none" stroke="black" cx="856" cy="-196" rx="22" ry="22"/>
</g>
<!-- Notification operator&#45;&gt;end -->
<g id="edge27" class="edge">
<title>Notification operator&#45;&gt;end</title>
<path fill="none" stroke="black" stroke-dasharray="5,2" d="M861.26,-268.95C860.43,-263.25 859.58,-256.86 859,-251 858.27,-243.63 857.71,-235.68 857.27,-228.2"/>
<polygon fill="black" stroke="black" points="860.76,-227.87 856.75,-218.06 853.77,-228.23 860.76,-227.87"/>
<text text-anchor="middle" x="879.5" y="-239.8" font-family="Sans Not-Rotated 14" font-size="14.00"> &#160;&#160;&#160;&#160;&#160;&#160;&#160;&#160;</text>
</g>
<!-- Meas missing doctor&#45;&gt;Meas missing operator -->
<g id="edge31" class="edge">
<title>Meas missing doctor&#45;&gt;Meas missing operator</title>
<path fill="none" stroke="black" stroke-width="1.3" d="M884.99,-36.44C892.02,-45.78 897.75,-57.67 894,-69 892.95,-72.16 891.5,-75.27 889.81,-78.25"/>
<polygon fill="black" stroke="black" stroke-width="1.3" points="886.79,-76.46 884.19,-86.73 892.63,-80.33 886.79,-76.46"/>
<text text-anchor="middle" x="915.5" y="-57.8" font-family="Sans Not-Rotated 14" font-size="14.00"> &#160;&#160;&#160;&#160;&#160;&#160;&#160;&#160;</text>
</g>
<!-- Meas missing doctor&#45;&gt;Notification operator -->
<g id="edge19" class="edge">
<title>Meas missing doctor&#45;&gt;Notification operator</title>
<path fill="none" stroke="black" stroke-width="2.09" d="M911.01,-36.01C921.05,-41.01 931.33,-47.04 940,-54 953.08,-64.51 1078.66,-144.74 1035,-218 1017.66,-247.1 985.35,-263.76 953.44,-273.29"/>
<polygon fill="black" stroke="black" stroke-width="2.09" points="952.27,-269.98 943.57,-276.03 954.14,-276.73 952.27,-269.98"/>
<text text-anchor="middle" x="1073.5" y="-144.8" font-family="Sans Not-Rotated 14" font-size="14.00"> &#160;&#160;&#160;&#160;&#160;&#160;&#160;&#160;&#160;&#160;&#160;&#160;&#160;&#160;&#160;</text>
</g>
<!-- Meas missing doctor&#45;&gt;Yellow zone doctor -->
<g id="edge32" class="edge">
<title>Meas missing doctor&#45;&gt;Yellow zone doctor</title>
<path fill="none" stroke="black" d="M790.29,-26.68C743.14,-36.13 692,-57.17 692,-104 692,-244.5 692,-244.5 692,-244.5 692,-287.93 656.48,-326.3 628.87,-349.55"/>
<polygon fill="black" stroke="black" points="626.52,-346.96 620.97,-355.99 630.94,-352.39 626.52,-346.96"/>
<text text-anchor="middle" x="701.5" y="-192.3" font-family="Sans Not-Rotated 14" font-size="14.00"> &#160;&#160;&#160;</text>
</g>
<!-- Yellow zone doctor&#45;&gt;Red zone operator -->
<g id="edge33" class="edge">
<title>Yellow zone doctor&#45;&gt;Red zone operator</title>
<path fill="none" stroke="black" stroke-width="1.14" d="M596.69,-392.13C595.41,-414.55 590.06,-453.96 569,-479 545.49,-506.95 509.07,-523.45 475.45,-533.18"/>
<polygon fill="black" stroke="black" stroke-width="1.14" points="474.32,-529.86 465.59,-535.86 476.16,-536.61 474.32,-529.86"/>
<text text-anchor="middle" x="607.5" y="-457.3" font-family="Sans Not-Rotated 14" font-size="14.00"> &#160;&#160;&#160;&#160;&#160;&#160;&#160;&#160;</text>
</g>
<!-- Yellow zone doctor&#45;&gt;Red zone doctor FD -->
<g id="edge9" class="edge">
<title>Yellow zone doctor&#45;&gt;Red zone doctor FD</title>
<path fill="none" stroke="black" stroke-width="1.21" d="M522.22,-390.9C504.07,-395.94 485.01,-402.27 468,-410 452.22,-417.17 436.06,-427.49 422.8,-436.9"/>
<polygon fill="black" stroke="black" stroke-width="1.21" points="420.57,-434.19 414.54,-442.91 424.68,-439.86 420.57,-434.19"/>
<text text-anchor="middle" x="488.5" y="-413.8" font-family="Sans Not-Rotated 14" font-size="14.00"> &#160;&#160;&#160;&#160;&#160;&#160;&#160;&#160;</text>
</g>
<!-- Yellow zone doctor&#45;&gt;Yellow zone doctor FD -->
<g id="edge10" class="edge">
<title>Yellow zone doctor&#45;&gt;Yellow zone doctor FD</title>
<path fill="none" stroke="black" stroke-width="3.6" d="M592.02,-355.8C583.12,-325.1 564.44,-260.64 553.82,-223.99"/>
<polygon fill="black" stroke="black" stroke-width="3.6" points="557.07,-222.64 550.93,-214.01 550.35,-224.59 557.07,-222.64"/>
<text text-anchor="middle" x="612.5" y="-283.3" font-family="Sans Not-Rotated 14" font-size="14.00"> &#160;&#160;&#160;&#160;&#160;&#160;&#160;&#160;&#160;&#160;&#160;&#160;&#160;&#160;&#160;</text>
</g>
<!-- Yellow zone doctor&#45;&gt;Notification operator -->
<g id="edge20" class="edge">
<title>Yellow zone doctor&#45;&gt;Notification operator</title>
<path fill="none" stroke="black" stroke-width="1.3" d="M671.81,-356.74C689.62,-351.73 708.29,-345.51 725,-338 736.13,-333 736.93,-328.15 748,-323 760.01,-317.41 773.12,-312.46 786.08,-308.16"/>
<polygon fill="black" stroke="black" stroke-width="1.3" points="787.48,-311.39 795.93,-305 785.34,-304.72 787.48,-311.39"/>
<text text-anchor="middle" x="768.5" y="-326.8" font-family="Sans Not-Rotated 14" font-size="14.00"> &#160;&#160;&#160;&#160;&#160;&#160;&#160;&#160;</text>
</g>
<!-- start -->
<g id="node9" class="node">
<title>start</title>
<ellipse fill="#95d600" stroke="black" cx="393" cy="-644.3" rx="27.1" ry="27.1"/>
<text text-anchor="middle" x="393" y="-640.6" font-family="Sans Not-Rotated 14" font-size="14.00">start</text>
</g>
<!-- start&#45;&gt;Red zone operator -->
<g id="edge4" class="edge">
<title>start&#45;&gt;Red zone operator</title>
<path fill="none" stroke="black" stroke-dasharray="5,2" d="M393,-616.78C393,-604.1 393,-588.93 393,-576.17"/>
<polygon fill="black" stroke="black" points="396.5,-576.12 393,-566.12 389.5,-576.12 396.5,-576.12"/>
<text text-anchor="middle" x="413.5" y="-587.8" font-family="Sans Not-Rotated 14" font-size="14.00"> &#160;&#160;&#160;&#160;&#160;&#160;&#160;&#160;</text>
</g>
</g>
</svg>
