<?xml version="1.0" encoding="UTF-8" standalone="no"?>
<!DOCTYPE svg PUBLIC "-//W3C//DTD SVG 1.1//EN"
 "http://www.w3.org/Graphics/SVG/1.1/DTD/svg11.dtd">
<!-- Generated by graphviz version 3.0.0 (20220226.1711)
 -->
<!-- Pages: 1 -->
<svg width="413pt" height="680pt"
 viewBox="0.00 0.00 413.02 679.60" xmlns="http://www.w3.org/2000/svg" xmlns:xlink="http://www.w3.org/1999/xlink">
<g id="graph0" class="graph" transform="scale(1 1) rotate(0) translate(4 675.6)">
<polygon fill="white" stroke="transparent" points="-4,4 -4,-675.6 409.02,-675.6 409.02,4 -4,4"/>
<!-- Red zone operator -->
<g id="node1" class="node">
<title>Red zone operator</title>
<polygon fill="#1d2559" stroke="black" points="183.52,-566 38.52,-566 38.52,-530 183.52,-530 183.52,-566"/>
<text text-anchor="middle" x="111.02" y="-544.3" font-family="Sans Not-Rotated 14" font-size="14.00" fill="white">Red zone operator</text>
</g>
<!-- Red zone doctor FD -->
<g id="node2" class="node">
<title>Red zone doctor FD</title>
<polygon fill="#1d2559" stroke="black" points="229.52,-392 76.52,-392 76.52,-356 229.52,-356 229.52,-392"/>
<text text-anchor="middle" x="153.02" y="-370.3" font-family="Sans Not-Rotated 14" font-size="14.00" fill="white">Red zone doctor FD</text>
</g>
<!-- Red zone operator&#45;&gt;Red zone doctor FD -->
<g id="edge3" class="edge">
<title>Red zone operator&#45;&gt;Red zone doctor FD</title>
<path fill="none" stroke="black" stroke-width="3.29" d="M70.95,-529.92C32.52,-510.96 -16.58,-478.35 6.02,-443 20.06,-421.04 43.2,-406.07 67.02,-395.9"/>
<polygon fill="black" stroke="black" stroke-width="3.29" points="68.53,-399.06 76.52,-392.1 65.93,-392.56 68.53,-399.06"/>
<text text-anchor="middle" x="42.52" y="-457.3" font-family="Sans Not-Rotated 14" font-size="14.00"> &#160;&#160;&#160;&#160;&#160;&#160;&#160;&#160;&#160;&#160;&#160;&#160;&#160;&#160;&#160;</text>
</g>
<!-- Red zone doctor -->
<g id="node4" class="node">
<title>Red zone doctor</title>
<polygon fill="#5661c6" stroke="black" points="217.52,-479 88.52,-479 88.52,-443 217.52,-443 217.52,-479"/>
<text text-anchor="middle" x="153.02" y="-457.3" font-family="Sans Not-Rotated 14" font-size="14.00" fill="white">Red zone doctor</text>
</g>
<!-- Red zone operator&#45;&gt;Red zone doctor -->
<g id="edge5" class="edge">
<title>Red zone operator&#45;&gt;Red zone doctor</title>
<path fill="none" stroke="black" stroke-width="5" d="M75.62,-529.79C62.05,-520.79 51.62,-509.13 60.02,-497 65.03,-489.76 71.74,-484.02 79.27,-479.46"/>
<polygon fill="black" stroke="black" stroke-width="5" points="81.62,-483.17 88.43,-474.64 77.54,-475.42 81.62,-483.17"/>
<text text-anchor="middle" x="96.52" y="-500.8" font-family="Sans Not-Rotated 14" font-size="14.00"> &#160;&#160;&#160;&#160;&#160;&#160;&#160;&#160;&#160;&#160;&#160;&#160;&#160;&#160;&#160;</text>
</g>
<!-- Red zone doctor FD&#45;&gt;Red zone operator -->
<g id="edge10" class="edge">
<title>Red zone doctor FD&#45;&gt;Red zone operator</title>
<path fill="none" stroke="black" stroke-width="3.39" d="M210.92,-392.11C218.48,-396.73 225.25,-402.59 230.02,-410 254.66,-448.26 250.56,-477.39 221.02,-512 213.47,-520.84 203.7,-527.47 193.09,-532.44"/>
<polygon fill="black" stroke="black" stroke-width="3.39" points="191.48,-529.32 183.59,-536.4 194.17,-535.79 191.48,-529.32"/>
<text text-anchor="middle" x="282.52" y="-457.3" font-family="Sans Not-Rotated 14" font-size="14.00"> &#160;&#160;&#160;&#160;&#160;&#160;&#160;&#160;&#160;&#160;&#160;&#160;&#160;&#160;&#160;</text>
</g>
<!-- Red zone doctor FD&#45;&gt;Red zone doctor FD -->
<g id="edge14" class="edge">
<title>Red zone doctor FD&#45;&gt;Red zone doctor FD</title>
<path fill="none" stroke="black" stroke-width="2.47" d="M229.77,-381.03C240.41,-379.87 247.52,-377.53 247.52,-374 247.52,-371.74 244.6,-369.97 239.71,-368.68"/>
<polygon fill="black" stroke="black" stroke-width="2.47" points="240.22,-365.22 229.77,-366.97 239.03,-372.12 240.22,-365.22"/>
<text text-anchor="middle" x="284.02" y="-370.3" font-family="Sans Not-Rotated 14" font-size="14.00"> &#160;&#160;&#160;&#160;&#160;&#160;&#160;&#160;&#160;&#160;&#160;&#160;&#160;&#160;&#160;</text>
</g>
<!-- Notification operator -->
<g id="node5" class="node">
<title>Notification operator</title>
<polygon fill="#a09dde" stroke="black" points="336.52,-131 177.52,-131 177.52,-95 336.52,-95 336.52,-131"/>
<text text-anchor="middle" x="257.02" y="-109.3" font-family="Sans Not-Rotated 14" font-size="14.00">Notification operator</text>
</g>
<!-- Red zone doctor FD&#45;&gt;Notification operator -->
<g id="edge7" class="edge">
<title>Red zone doctor FD&#45;&gt;Notification operator</title>
<path fill="none" stroke="black" stroke-width="1.46" d="M148.75,-355.95C140.91,-320.65 127.9,-238.18 161.02,-182 172.43,-162.64 191.75,-147.37 210.09,-136.24"/>
<polygon fill="black" stroke="black" stroke-width="1.46" points="212.06,-139.14 218.97,-131.11 208.56,-133.08 212.06,-139.14"/>
<text text-anchor="middle" x="163.52" y="-239.8" font-family="Sans Not-Rotated 14" font-size="14.00"> &#160;&#160;&#160;&#160;&#160;&#160;&#160;&#160;</text>
</g>
<!-- Yellow zone doctor -->
<g id="node6" class="node">
<title>Yellow zone doctor</title>
<polygon fill="#ffffff" stroke="black" points="342.52,-305 193.52,-305 193.52,-269 342.52,-269 342.52,-305"/>
<text text-anchor="middle" x="268.02" y="-283.3" font-family="Sans Not-Rotated 14" font-size="14.00">Yellow zone doctor</text>
</g>
<!-- Red zone doctor FD&#45;&gt;Yellow zone doctor -->
<g id="edge8" class="edge">
<title>Red zone doctor FD&#45;&gt;Yellow zone doctor</title>
<path fill="none" stroke="black" stroke-width="1.95" d="M176.29,-355.8C193.67,-342.95 217.61,-325.26 236.67,-311.17"/>
<polygon fill="black" stroke="black" stroke-width="1.95" points="238.82,-313.93 244.78,-305.18 234.66,-308.3 238.82,-313.93"/>
<text text-anchor="middle" x="238.52" y="-326.8" font-family="Sans Not-Rotated 14" font-size="14.00"> &#160;&#160;&#160;&#160;&#160;&#160;&#160;&#160;</text>
</g>
<!-- Yellow zone doctor FD -->
<g id="node3" class="node">
<title>Yellow zone doctor FD</title>
<polygon fill="#ffffff" stroke="black" points="343.52,-218 170.52,-218 170.52,-182 343.52,-182 343.52,-218"/>
<text text-anchor="middle" x="257.02" y="-196.3" font-family="Sans Not-Rotated 14" font-size="14.00">Yellow zone doctor FD</text>
</g>
<!-- Yellow zone doctor FD&#45;&gt;Notification operator -->
<g id="edge6" class="edge">
<title>Yellow zone doctor FD&#45;&gt;Notification operator</title>
<path fill="none" stroke="black" stroke-width="1.84" d="M257.02,-181.8C257.02,-170.16 257.02,-154.55 257.02,-141.24"/>
<polygon fill="black" stroke="black" stroke-width="1.84" points="260.52,-141.18 257.02,-131.18 253.52,-141.18 260.52,-141.18"/>
<text text-anchor="middle" x="277.52" y="-152.8" font-family="Sans Not-Rotated 14" font-size="14.00"> &#160;&#160;&#160;&#160;&#160;&#160;&#160;&#160;</text>
</g>
<!-- Yellow zone doctor FD&#45;&gt;Yellow zone doctor -->
<g id="edge11" class="edge">
<title>Yellow zone doctor FD&#45;&gt;Yellow zone doctor</title>
<path fill="none" stroke="black" stroke-width="2.06" d="M267.89,-218.17C270.8,-223.65 273.54,-229.89 275.02,-236 276.78,-243.3 276.59,-251.31 275.54,-258.74"/>
<polygon fill="black" stroke="black" stroke-width="2.06" points="272.07,-258.24 273.61,-268.72 278.94,-259.56 272.07,-258.24"/>
<text text-anchor="middle" x="312.52" y="-239.8" font-family="Sans Not-Rotated 14" font-size="14.00"> &#160;&#160;&#160;&#160;&#160;&#160;&#160;&#160;&#160;&#160;&#160;&#160;&#160;&#160;&#160;</text>
</g>
<!-- Red zone doctor&#45;&gt;Red zone operator -->
<g id="edge1" class="edge">
<title>Red zone doctor&#45;&gt;Red zone operator</title>
<path fill="none" stroke="black" stroke-width="3.42" d="M149.01,-479.22C146.35,-489.12 142.35,-501.62 137.02,-512 135.38,-515.19 133.45,-518.41 131.4,-521.52"/>
<polygon fill="black" stroke="black" stroke-width="3.42" points="128.37,-519.76 125.44,-529.94 134.08,-523.8 128.37,-519.76"/>
<text text-anchor="middle" x="180.52" y="-500.8" font-family="Sans Not-Rotated 14" font-size="14.00"> &#160;&#160;&#160;&#160;&#160;&#160;&#160;&#160;&#160;&#160;&#160;&#160;&#160;&#160;&#160;</text>
</g>
<!-- Red zone doctor&#45;&gt;Red zone doctor FD -->
<g id="edge2" class="edge">
<title>Red zone doctor&#45;&gt;Red zone doctor FD</title>
<path fill="none" stroke="black" stroke-width="3.46" d="M153.02,-442.8C153.02,-431.16 153.02,-415.55 153.02,-402.24"/>
<polygon fill="black" stroke="black" stroke-width="3.46" points="156.52,-402.18 153.02,-392.18 149.52,-402.18 156.52,-402.18"/>
<text text-anchor="middle" x="189.52" y="-413.8" font-family="Sans Not-Rotated 14" font-size="14.00"> &#160;&#160;&#160;&#160;&#160;&#160;&#160;&#160;&#160;&#160;&#160;&#160;&#160;&#160;&#160;</text>
</g>
<!-- Notification operator&#45;&gt;Yellow zone doctor -->
<g id="edge12" class="edge">
<title>Notification operator&#45;&gt;Yellow zone doctor</title>
<path fill="none" stroke="black" stroke-width="1.57" d="M297,-131.11C317.76,-142.31 341.2,-159.14 353.02,-182 367.1,-209.24 370.08,-225.52 353.02,-251 349.91,-255.64 346.06,-259.67 341.74,-263.16"/>
<polygon fill="black" stroke="black" stroke-width="1.57" points="339.71,-260.31 333.49,-268.89 343.7,-266.06 339.71,-260.31"/>
<text text-anchor="middle" x="384.52" y="-196.3" font-family="Sans Not-Rotated 14" font-size="14.00"> &#160;&#160;&#160;&#160;&#160;&#160;&#160;&#160;</text>
</g>
<!-- end -->
<g id="node8" class="node">
<title>end</title>
<ellipse fill="#ea4126" stroke="black" cx="257.02" cy="-22" rx="18" ry="18"/>
<ellipse fill="none" stroke="black" cx="257.02" cy="-22" rx="22" ry="22"/>
</g>
<!-- Notification operator&#45;&gt;end -->
<g id="edge9" class="edge">
<title>Notification operator&#45;&gt;end</title>
<path fill="none" stroke="black" stroke-dasharray="5,2" d="M257.02,-94.84C257.02,-83.44 257.02,-68.13 257.02,-54.58"/>
<polygon fill="black" stroke="black" points="260.52,-54.19 257.02,-44.19 253.52,-54.19 260.52,-54.19"/>
<text text-anchor="middle" x="277.52" y="-65.8" font-family="Sans Not-Rotated 14" font-size="14.00"> &#160;&#160;&#160;&#160;&#160;&#160;&#160;&#160;</text>
</g>
<!-- Yellow zone doctor&#45;&gt;Yellow zone doctor FD -->
<g id="edge4" class="edge">
<title>Yellow zone doctor&#45;&gt;Yellow zone doctor FD</title>
<path fill="none" stroke="black" stroke-width="3.58" d="M220.21,-268.9C212.95,-264.21 206.43,-258.33 202.02,-251 196.04,-241.07 201.03,-231.95 210.03,-224.29"/>
<polygon fill="black" stroke="black" stroke-width="3.58" points="212.35,-226.93 218.38,-218.22 208.23,-221.27 212.35,-226.93"/>
<text text-anchor="middle" x="238.52" y="-239.8" font-family="Sans Not-Rotated 14" font-size="14.00"> &#160;&#160;&#160;&#160;&#160;&#160;&#160;&#160;&#160;&#160;&#160;&#160;&#160;&#160;&#160;</text>
</g>
<!-- start -->
<g id="node7" class="node">
<title>start</title>
<ellipse fill="#95d600" stroke="black" cx="111.02" cy="-644.3" rx="27.1" ry="27.1"/>
<text text-anchor="middle" x="111.02" y="-640.6" font-family="Sans Not-Rotated 14" font-size="14.00">start</text>
</g>
<!-- start&#45;&gt;Red zone operator -->
<g id="edge13" class="edge">
<title>start&#45;&gt;Red zone operator</title>
<path fill="none" stroke="black" stroke-dasharray="5,2" d="M111.02,-616.78C111.02,-604.1 111.02,-588.93 111.02,-576.17"/>
<polygon fill="black" stroke="black" points="114.52,-576.12 111.02,-566.12 107.52,-576.12 114.52,-576.12"/>
<text text-anchor="middle" x="131.52" y="-587.8" font-family="Sans Not-Rotated 14" font-size="14.00"> &#160;&#160;&#160;&#160;&#160;&#160;&#160;&#160;</text>
</g>
</g>
</svg>
