<?xml version="1.0" encoding="UTF-8" standalone="no"?>
<!DOCTYPE svg PUBLIC "-//W3C//DTD SVG 1.1//EN"
 "http://www.w3.org/Graphics/SVG/1.1/DTD/svg11.dtd">
<!-- Generated by graphviz version 3.0.0 (20220226.1711)
 -->
<!-- Pages: 1 -->
<svg width="380pt" height="680pt"
 viewBox="0.00 0.00 379.56 679.60" xmlns="http://www.w3.org/2000/svg" xmlns:xlink="http://www.w3.org/1999/xlink">
<g id="graph0" class="graph" transform="scale(1 1) rotate(0) translate(4 675.6)">
<polygon fill="white" stroke="transparent" points="-4,4 -4,-675.6 375.56,-675.6 375.56,4 -4,4"/>
<!-- Red zone operator -->
<g id="node1" class="node">
<title>Red zone operator</title>
<polygon fill="#1d2559" stroke="black" points="214.06,-566 69.06,-566 69.06,-530 214.06,-530 214.06,-566"/>
<text text-anchor="middle" x="141.56" y="-544.3" font-family="Sans Not-Rotated 14" font-size="14.00" fill="white">Red zone operator</text>
</g>
<!-- Red zone doctor FD -->
<g id="node2" class="node">
<title>Red zone doctor FD</title>
<polygon fill="#1d2559" stroke="black" points="158.06,-392 5.06,-392 5.06,-356 158.06,-356 158.06,-392"/>
<text text-anchor="middle" x="81.56" y="-370.3" font-family="Sans Not-Rotated 14" font-size="14.00" fill="white">Red zone doctor FD</text>
</g>
<!-- Red zone operator&#45;&gt;Red zone doctor FD -->
<g id="edge4" class="edge">
<title>Red zone operator&#45;&gt;Red zone doctor FD</title>
<path fill="none" stroke="black" stroke-width="3.29" d="M74.21,-529.98C48.09,-519.73 20.83,-503.7 5.56,-479 -12.34,-450.04 17.94,-418.74 45.41,-398.13"/>
<polygon fill="black" stroke="black" stroke-width="3.29" points="47.73,-400.78 53.79,-392.09 43.64,-395.1 47.73,-400.78"/>
<text text-anchor="middle" x="42.06" y="-457.3" font-family="Sans Not-Rotated 14" font-size="14.00"> &#160;&#160;&#160;&#160;&#160;&#160;&#160;&#160;&#160;&#160;&#160;&#160;&#160;&#160;&#160;</text>
</g>
<!-- Red zone doctor -->
<g id="node4" class="node">
<title>Red zone doctor</title>
<polygon fill="#5661c6" stroke="black" points="302.06,-479 173.06,-479 173.06,-443 302.06,-443 302.06,-479"/>
<text text-anchor="middle" x="237.56" y="-457.3" font-family="Sans Not-Rotated 14" font-size="14.00" fill="white">Red zone doctor</text>
</g>
<!-- Red zone operator&#45;&gt;Red zone doctor -->
<g id="edge6" class="edge">
<title>Red zone operator&#45;&gt;Red zone doctor</title>
<path fill="none" stroke="black" stroke-width="5" d="M135.47,-529.77C132.94,-519.37 131.94,-506.37 138.56,-497 144.93,-488 153.81,-481.29 163.67,-476.31"/>
<polygon fill="black" stroke="black" stroke-width="5" points="165.58,-480.25 172.95,-472.19 162.04,-472.25 165.58,-480.25"/>
<text text-anchor="middle" x="175.06" y="-500.8" font-family="Sans Not-Rotated 14" font-size="14.00"> &#160;&#160;&#160;&#160;&#160;&#160;&#160;&#160;&#160;&#160;&#160;&#160;&#160;&#160;&#160;</text>
</g>
<!-- Red zone doctor FD&#45;&gt;Red zone operator -->
<g id="edge2" class="edge">
<title>Red zone doctor FD&#45;&gt;Red zone operator</title>
<path fill="none" stroke="black" stroke-width="3.39" d="M80.22,-392.21C79.2,-413.37 79.5,-450.05 90.56,-479 96.6,-494.79 107.44,-510.07 117.59,-522.13"/>
<polygon fill="black" stroke="black" stroke-width="3.39" points="115.21,-524.72 124.43,-529.93 120.47,-520.1 115.21,-524.72"/>
<text text-anchor="middle" x="127.06" y="-457.3" font-family="Sans Not-Rotated 14" font-size="14.00"> &#160;&#160;&#160;&#160;&#160;&#160;&#160;&#160;&#160;&#160;&#160;&#160;&#160;&#160;&#160;</text>
</g>
<!-- Red zone doctor FD&#45;&gt;Red zone doctor FD -->
<g id="edge15" class="edge">
<title>Red zone doctor FD&#45;&gt;Red zone doctor FD</title>
<path fill="none" stroke="black" stroke-width="2.47" d="M158.32,-381.03C168.95,-379.87 176.06,-377.53 176.06,-374 176.06,-371.74 173.15,-369.97 168.25,-368.68"/>
<polygon fill="black" stroke="black" stroke-width="2.47" points="168.77,-365.22 158.32,-366.97 167.58,-372.12 168.77,-365.22"/>
<text text-anchor="middle" x="212.56" y="-370.3" font-family="Sans Not-Rotated 14" font-size="14.00"> &#160;&#160;&#160;&#160;&#160;&#160;&#160;&#160;&#160;&#160;&#160;&#160;&#160;&#160;&#160;</text>
</g>
<!-- Notification operator -->
<g id="node5" class="node">
<title>Notification operator</title>
<polygon fill="#a09dde" stroke="black" points="179.06,-131 20.06,-131 20.06,-95 179.06,-95 179.06,-131"/>
<text text-anchor="middle" x="99.56" y="-109.3" font-family="Sans Not-Rotated 14" font-size="14.00">Notification operator</text>
</g>
<!-- Red zone doctor FD&#45;&gt;Notification operator -->
<g id="edge8" class="edge">
<title>Red zone doctor FD&#45;&gt;Notification operator</title>
<path fill="none" stroke="black" stroke-width="1.46" d="M75.4,-355.95C70.83,-342.35 64.99,-322.73 62.56,-305 54.45,-245.81 75.21,-177.24 88.82,-140.5"/>
<polygon fill="black" stroke="black" stroke-width="1.46" points="92.14,-141.61 92.44,-131.02 85.6,-139.11 92.14,-141.61"/>
<text text-anchor="middle" x="84.06" y="-239.8" font-family="Sans Not-Rotated 14" font-size="14.00"> &#160;&#160;&#160;&#160;&#160;&#160;&#160;&#160;</text>
</g>
<!-- Yellow zone doctor -->
<g id="node6" class="node">
<title>Yellow zone doctor</title>
<polygon fill="#ffffff" stroke="black" points="221.06,-305 72.06,-305 72.06,-269 221.06,-269 221.06,-305"/>
<text text-anchor="middle" x="146.56" y="-283.3" font-family="Sans Not-Rotated 14" font-size="14.00">Yellow zone doctor</text>
</g>
<!-- Red zone doctor FD&#45;&gt;Yellow zone doctor -->
<g id="edge9" class="edge">
<title>Red zone doctor FD&#45;&gt;Yellow zone doctor</title>
<path fill="none" stroke="black" stroke-width="1.95" d="M94.72,-355.8C104.06,-343.59 116.75,-326.99 127.23,-313.28"/>
<polygon fill="black" stroke="black" stroke-width="1.95" points="130.14,-315.25 133.43,-305.18 124.58,-310.99 130.14,-315.25"/>
<text text-anchor="middle" x="139.06" y="-326.8" font-family="Sans Not-Rotated 14" font-size="14.00"> &#160;&#160;&#160;&#160;&#160;&#160;&#160;&#160;</text>
</g>
<!-- Yellow zone doctor FD -->
<g id="node3" class="node">
<title>Yellow zone doctor FD</title>
<polygon fill="#ffffff" stroke="black" points="332.06,-218 159.06,-218 159.06,-182 332.06,-182 332.06,-218"/>
<text text-anchor="middle" x="245.56" y="-196.3" font-family="Sans Not-Rotated 14" font-size="14.00">Yellow zone doctor FD</text>
</g>
<!-- Yellow zone doctor FD&#45;&gt;Red zone operator -->
<g id="edge12" class="edge">
<title>Yellow zone doctor FD&#45;&gt;Red zone operator</title>
<path fill="none" stroke="black" stroke-width="1.58" d="M286.76,-218.17C295.07,-223.02 303.2,-228.95 309.56,-236 325.71,-253.9 330.56,-261.9 330.56,-286 330.56,-462 330.56,-462 330.56,-462 330.56,-511.92 275.04,-532.7 224.19,-541.26"/>
<polygon fill="black" stroke="black" stroke-width="1.58" points="223.45,-537.83 214.1,-542.81 224.51,-544.75 223.45,-537.83"/>
<text text-anchor="middle" x="351.06" y="-370.3" font-family="Sans Not-Rotated 14" font-size="14.00"> &#160;&#160;&#160;&#160;&#160;&#160;&#160;&#160;</text>
</g>
<!-- Yellow zone doctor FD&#45;&gt;Notification operator -->
<g id="edge7" class="edge">
<title>Yellow zone doctor FD&#45;&gt;Notification operator</title>
<path fill="none" stroke="black" stroke-width="1.84" d="M216.02,-181.8C193.46,-168.66 162.19,-150.46 137.74,-136.22"/>
<polygon fill="black" stroke="black" stroke-width="1.84" points="139.47,-133.18 129.07,-131.18 135.95,-139.23 139.47,-133.18"/>
<text text-anchor="middle" x="202.06" y="-152.8" font-family="Sans Not-Rotated 14" font-size="14.00"> &#160;&#160;&#160;&#160;&#160;&#160;&#160;&#160;</text>
</g>
<!-- Yellow zone doctor FD&#45;&gt;Yellow zone doctor -->
<g id="edge10" class="edge">
<title>Yellow zone doctor FD&#45;&gt;Yellow zone doctor</title>
<path fill="none" stroke="black" stroke-width="2.06" d="M163.8,-218C155.92,-222.64 148.9,-228.53 143.56,-236 138.93,-242.5 138,-250.76 138.72,-258.69"/>
<polygon fill="black" stroke="black" stroke-width="2.06" points="135.3,-259.48 140.44,-268.75 142.2,-258.3 135.3,-259.48"/>
<text text-anchor="middle" x="180.06" y="-239.8" font-family="Sans Not-Rotated 14" font-size="14.00"> &#160;&#160;&#160;&#160;&#160;&#160;&#160;&#160;&#160;&#160;&#160;&#160;&#160;&#160;&#160;</text>
</g>
<!-- Red zone doctor&#45;&gt;Red zone operator -->
<g id="edge1" class="edge">
<title>Red zone doctor&#45;&gt;Red zone operator</title>
<path fill="none" stroke="black" stroke-width="3.42" d="M233.38,-479.04C230.04,-489.62 224.43,-502.89 215.56,-512 210.84,-516.86 205.3,-521.12 199.42,-524.84"/>
<polygon fill="black" stroke="black" stroke-width="3.42" points="197.54,-521.89 190.62,-529.91 201.03,-527.95 197.54,-521.89"/>
<text text-anchor="middle" x="263.06" y="-500.8" font-family="Sans Not-Rotated 14" font-size="14.00"> &#160;&#160;&#160;&#160;&#160;&#160;&#160;&#160;&#160;&#160;&#160;&#160;&#160;&#160;&#160;</text>
</g>
<!-- Red zone doctor&#45;&gt;Red zone doctor FD -->
<g id="edge3" class="edge">
<title>Red zone doctor&#45;&gt;Red zone doctor FD</title>
<path fill="none" stroke="black" stroke-width="3.46" d="M206,-442.8C181.7,-429.56 147.97,-411.18 121.75,-396.9"/>
<polygon fill="black" stroke="black" stroke-width="3.46" points="123.28,-393.74 112.82,-392.03 119.93,-399.89 123.28,-393.74"/>
<text text-anchor="middle" x="206.06" y="-413.8" font-family="Sans Not-Rotated 14" font-size="14.00"> &#160;&#160;&#160;&#160;&#160;&#160;&#160;&#160;&#160;&#160;&#160;&#160;&#160;&#160;&#160;</text>
</g>
<!-- Notification operator&#45;&gt;Yellow zone doctor -->
<g id="edge13" class="edge">
<title>Notification operator&#45;&gt;Yellow zone doctor</title>
<path fill="none" stroke="black" stroke-width="1.57" d="M98.87,-131.35C98.52,-152.35 99.52,-188.55 108.56,-218 113.09,-232.73 121.11,-247.82 128.63,-260.03"/>
<polygon fill="black" stroke="black" stroke-width="1.57" points="125.87,-262.22 134.21,-268.76 131.77,-258.45 125.87,-262.22"/>
<text text-anchor="middle" x="129.06" y="-196.3" font-family="Sans Not-Rotated 14" font-size="14.00"> &#160;&#160;&#160;&#160;&#160;&#160;&#160;&#160;</text>
</g>
<!-- end -->
<g id="node8" class="node">
<title>end</title>
<ellipse fill="#ea4126" stroke="black" cx="99.56" cy="-22" rx="18" ry="18"/>
<ellipse fill="none" stroke="black" cx="99.56" cy="-22" rx="22" ry="22"/>
</g>
<!-- Notification operator&#45;&gt;end -->
<g id="edge11" class="edge">
<title>Notification operator&#45;&gt;end</title>
<path fill="none" stroke="black" stroke-dasharray="5,2" d="M99.56,-94.84C99.56,-83.44 99.56,-68.13 99.56,-54.58"/>
<polygon fill="black" stroke="black" points="103.06,-54.19 99.56,-44.19 96.06,-54.19 103.06,-54.19"/>
<text text-anchor="middle" x="120.06" y="-65.8" font-family="Sans Not-Rotated 14" font-size="14.00"> &#160;&#160;&#160;&#160;&#160;&#160;&#160;&#160;</text>
</g>
<!-- Yellow zone doctor&#45;&gt;Yellow zone doctor FD -->
<g id="edge5" class="edge">
<title>Yellow zone doctor&#45;&gt;Yellow zone doctor FD</title>
<path fill="none" stroke="black" stroke-width="3.58" d="M194.96,-268.84C204.2,-264.06 213.25,-258.16 220.56,-251 227.25,-244.46 232.44,-235.77 236.32,-227.46"/>
<polygon fill="black" stroke="black" stroke-width="3.58" points="239.63,-228.62 240.28,-218.05 233.17,-225.91 239.63,-228.62"/>
<text text-anchor="middle" x="269.06" y="-239.8" font-family="Sans Not-Rotated 14" font-size="14.00"> &#160;&#160;&#160;&#160;&#160;&#160;&#160;&#160;&#160;&#160;&#160;&#160;&#160;&#160;&#160;</text>
</g>
<!-- start -->
<g id="node7" class="node">
<title>start</title>
<ellipse fill="#95d600" stroke="black" cx="141.56" cy="-644.3" rx="27.1" ry="27.1"/>
<text text-anchor="middle" x="141.56" y="-640.6" font-family="Sans Not-Rotated 14" font-size="14.00">start</text>
</g>
<!-- start&#45;&gt;Red zone operator -->
<g id="edge14" class="edge">
<title>start&#45;&gt;Red zone operator</title>
<path fill="none" stroke="black" stroke-dasharray="5,2" d="M141.56,-616.78C141.56,-604.1 141.56,-588.93 141.56,-576.17"/>
<polygon fill="black" stroke="black" points="145.06,-576.12 141.56,-566.12 138.06,-576.12 145.06,-576.12"/>
<text text-anchor="middle" x="162.06" y="-587.8" font-family="Sans Not-Rotated 14" font-size="14.00"> &#160;&#160;&#160;&#160;&#160;&#160;&#160;&#160;</text>
</g>
</g>
</svg>
