<?xml version="1.0" encoding="UTF-8" standalone="no"?>
<!DOCTYPE svg PUBLIC "-//W3C//DTD SVG 1.1//EN"
 "http://www.w3.org/Graphics/SVG/1.1/DTD/svg11.dtd">
<!-- Generated by graphviz version 3.0.0 (20220226.1711)
 -->
<!-- Pages: 1 -->
<svg width="546pt" height="680pt"
 viewBox="0.00 0.00 545.83 679.60" xmlns="http://www.w3.org/2000/svg" xmlns:xlink="http://www.w3.org/1999/xlink">
<g id="graph0" class="graph" transform="scale(1 1) rotate(0) translate(4 675.6)">
<polygon fill="white" stroke="transparent" points="-4,4 -4,-675.6 541.83,-675.6 541.83,4 -4,4"/>
<!-- Red zone operator -->
<g id="node1" class="node">
<title>Red zone operator</title>
<polygon fill="#1d2559" stroke="black" points="228.33,-566 83.33,-566 83.33,-530 228.33,-530 228.33,-566"/>
<text text-anchor="middle" x="155.83" y="-544.3" font-family="Sans Not-Rotated 14" font-size="14.00" fill="white">Red zone operator</text>
</g>
<!-- Red zone operator&#45;&gt;Red zone operator -->
<g id="edge23" class="edge">
<title>Red zone operator&#45;&gt;Red zone operator</title>
<path fill="none" stroke="black" stroke-width="1.41" d="M228.62,-555.11C239.2,-553.98 246.33,-551.61 246.33,-548 246.33,-545.69 243.41,-543.88 238.52,-542.59"/>
<polygon fill="black" stroke="black" stroke-width="1.41" points="239.07,-539.13 228.62,-540.89 237.88,-546.03 239.07,-539.13"/>
<text text-anchor="middle" x="266.83" y="-544.3" font-family="Sans Not-Rotated 14" font-size="14.00"> &#160;&#160;&#160;&#160;&#160;&#160;&#160;&#160;</text>
</g>
<!-- Red zone doctor FD -->
<g id="node2" class="node">
<title>Red zone doctor FD</title>
<polygon fill="#1d2559" stroke="black" points="328.33,-479 175.33,-479 175.33,-443 328.33,-443 328.33,-479"/>
<text text-anchor="middle" x="251.83" y="-457.3" font-family="Sans Not-Rotated 14" font-size="14.00" fill="white">Red zone doctor FD</text>
</g>
<!-- Red zone operator&#45;&gt;Red zone doctor FD -->
<g id="edge6" class="edge">
<title>Red zone operator&#45;&gt;Red zone doctor FD</title>
<path fill="none" stroke="black" stroke-width="3.29" d="M204.89,-529.91C213.97,-525.14 222.79,-519.23 229.83,-512 236.2,-505.45 240.89,-496.76 244.27,-488.45"/>
<polygon fill="black" stroke="black" stroke-width="3.29" points="247.56,-489.63 247.64,-479.04 240.97,-487.27 247.56,-489.63"/>
<text text-anchor="middle" x="276.33" y="-500.8" font-family="Sans Not-Rotated 14" font-size="14.00"> &#160;&#160;&#160;&#160;&#160;&#160;&#160;&#160;&#160;&#160;&#160;&#160;&#160;&#160;&#160;</text>
</g>
<!-- Red zone doctor -->
<g id="node4" class="node">
<title>Red zone doctor</title>
<polygon fill="#1f3b98" stroke="black" points="147.33,-392 18.33,-392 18.33,-356 147.33,-356 147.33,-392"/>
<text text-anchor="middle" x="82.83" y="-370.3" font-family="Sans Not-Rotated 14" font-size="14.00" fill="white">Red zone doctor</text>
</g>
<!-- Red zone operator&#45;&gt;Red zone doctor -->
<g id="edge9" class="edge">
<title>Red zone operator&#45;&gt;Red zone doctor</title>
<path fill="none" stroke="black" stroke-width="5" d="M83.31,-532.21C54.06,-522.3 23.18,-505.92 5.83,-479 -12.78,-450.13 18.31,-418.64 46.37,-397.97"/>
<polygon fill="black" stroke="black" stroke-width="5" points="48.92,-401.53 54.54,-392.17 43.85,-394.39 48.92,-401.53"/>
<text text-anchor="middle" x="42.33" y="-457.3" font-family="Sans Not-Rotated 14" font-size="14.00"> &#160;&#160;&#160;&#160;&#160;&#160;&#160;&#160;&#160;&#160;&#160;&#160;&#160;&#160;&#160;</text>
</g>
<!-- Red zone doctor FD&#45;&gt;Red zone operator -->
<g id="edge3" class="edge">
<title>Red zone doctor FD&#45;&gt;Red zone operator</title>
<path fill="none" stroke="black" stroke-width="3.39" d="M177.1,-479.07C169.2,-483.69 162.13,-489.56 156.83,-497 152.21,-503.49 150.77,-511.75 150.83,-519.68"/>
<polygon fill="black" stroke="black" stroke-width="3.39" points="147.35,-520.05 151.63,-529.74 154.33,-519.5 147.35,-520.05"/>
<text text-anchor="middle" x="193.33" y="-500.8" font-family="Sans Not-Rotated 14" font-size="14.00"> &#160;&#160;&#160;&#160;&#160;&#160;&#160;&#160;&#160;&#160;&#160;&#160;&#160;&#160;&#160;</text>
</g>
<!-- Red zone doctor FD&#45;&gt;Red zone doctor FD -->
<g id="edge24" class="edge">
<title>Red zone doctor FD&#45;&gt;Red zone doctor FD</title>
<path fill="none" stroke="black" stroke-width="2.47" d="M328.58,-468.03C339.22,-466.87 346.33,-464.53 346.33,-461 346.33,-458.74 343.41,-456.97 338.52,-455.68"/>
<polygon fill="black" stroke="black" stroke-width="2.47" points="339.03,-452.22 328.58,-453.97 337.85,-459.12 339.03,-452.22"/>
<text text-anchor="middle" x="382.83" y="-457.3" font-family="Sans Not-Rotated 14" font-size="14.00"> &#160;&#160;&#160;&#160;&#160;&#160;&#160;&#160;&#160;&#160;&#160;&#160;&#160;&#160;&#160;</text>
</g>
<!-- Yellow zone doctor FD -->
<g id="node3" class="node">
<title>Yellow zone doctor FD</title>
<polygon fill="#a09dde" stroke="black" points="457.33,-305 284.33,-305 284.33,-269 457.33,-269 457.33,-305"/>
<text text-anchor="middle" x="370.83" y="-283.3" font-family="Sans Not-Rotated 14" font-size="14.00">Yellow zone doctor FD</text>
</g>
<!-- Red zone doctor FD&#45;&gt;Yellow zone doctor FD -->
<g id="edge8" class="edge">
<title>Red zone doctor FD&#45;&gt;Yellow zone doctor FD</title>
<path fill="none" stroke="black" stroke-width="1.38" d="M248.01,-442.54C245.61,-432.78 242.15,-420.51 237.83,-410 234.35,-401.54 230.13,-400.86 227.83,-392 223.82,-376.51 220.68,-370.31 227.83,-356 238.8,-334.07 259.49,-319.16 281.79,-309.05"/>
<polygon fill="black" stroke="black" stroke-width="1.38" points="283.22,-312.24 291.08,-305.14 280.51,-305.79 283.22,-312.24"/>
<text text-anchor="middle" x="248.33" y="-370.3" font-family="Sans Not-Rotated 14" font-size="14.00"> &#160;&#160;&#160;&#160;&#160;&#160;&#160;&#160;</text>
</g>
<!-- Red zone doctor FD&#45;&gt;Red zone doctor -->
<g id="edge20" class="edge">
<title>Red zone doctor FD&#45;&gt;Red zone doctor</title>
<path fill="none" stroke="black" stroke-width="1.61" d="M175.21,-446.29C139.3,-439.22 103.01,-430.87 96.83,-425 90.51,-419 86.97,-410.39 85.01,-402.01"/>
<polygon fill="black" stroke="black" stroke-width="1.61" points="88.45,-401.36 83.32,-392.09 81.55,-402.54 88.45,-401.36"/>
<text text-anchor="middle" x="117.33" y="-413.8" font-family="Sans Not-Rotated 14" font-size="14.00"> &#160;&#160;&#160;&#160;&#160;&#160;&#160;&#160;</text>
</g>
<!-- Notification operator -->
<g id="node6" class="node">
<title>Notification operator</title>
<polygon fill="#5661c6" stroke="black" points="347.33,-218 188.33,-218 188.33,-182 347.33,-182 347.33,-218"/>
<text text-anchor="middle" x="267.83" y="-196.3" font-family="Sans Not-Rotated 14" font-size="14.00" fill="white">Notification operator</text>
</g>
<!-- Red zone doctor FD&#45;&gt;Notification operator -->
<g id="edge12" class="edge">
<title>Red zone doctor FD&#45;&gt;Notification operator</title>
<path fill="none" stroke="black" stroke-width="1.46" d="M328.46,-449.69C392.65,-439.17 476.64,-420.34 494.83,-392 515.74,-359.42 477.67,-280.04 466.83,-269 437.94,-239.59 395.83,-222.9 357.77,-213.42"/>
<polygon fill="black" stroke="black" stroke-width="1.46" points="358.21,-209.93 347.68,-211.05 356.61,-216.74 358.21,-209.93"/>
<text text-anchor="middle" x="517.33" y="-326.8" font-family="Sans Not-Rotated 14" font-size="14.00"> &#160;&#160;&#160;&#160;&#160;&#160;&#160;&#160;</text>
</g>
<!-- Yellow zone doctor -->
<g id="node8" class="node">
<title>Yellow zone doctor</title>
<polygon fill="#a09dde" stroke="black" points="426.33,-392 277.33,-392 277.33,-356 426.33,-356 426.33,-392"/>
<text text-anchor="middle" x="351.83" y="-370.3" font-family="Sans Not-Rotated 14" font-size="14.00">Yellow zone doctor</text>
</g>
<!-- Red zone doctor FD&#45;&gt;Yellow zone doctor -->
<g id="edge16" class="edge">
<title>Red zone doctor FD&#45;&gt;Yellow zone doctor</title>
<path fill="none" stroke="black" stroke-width="1.95" d="M272.07,-442.8C286.98,-430.13 307.44,-412.73 323.9,-398.74"/>
<polygon fill="black" stroke="black" stroke-width="1.95" points="326.27,-401.32 331.63,-392.18 321.74,-395.99 326.27,-401.32"/>
<text text-anchor="middle" x="327.33" y="-413.8" font-family="Sans Not-Rotated 14" font-size="14.00"> &#160;&#160;&#160;&#160;&#160;&#160;&#160;&#160;</text>
</g>
<!-- Yellow zone doctor FD&#45;&gt;Red zone operator -->
<g id="edge21" class="edge">
<title>Yellow zone doctor FD&#45;&gt;Red zone operator</title>
<path fill="none" stroke="black" stroke-width="1.58" d="M419.76,-305.1C431.91,-310.16 444.65,-316.2 455.83,-323 475.23,-334.8 485.28,-335.4 494.83,-356 501.56,-370.51 499.93,-376.84 494.83,-392 479.36,-438 468.77,-451.43 428.83,-479 372.61,-517.81 296.34,-534.51 238.71,-541.67"/>
<polygon fill="black" stroke="black" stroke-width="1.58" points="238.06,-538.22 228.54,-542.86 238.88,-545.18 238.06,-538.22"/>
<text text-anchor="middle" x="508.33" y="-413.8" font-family="Sans Not-Rotated 14" font-size="14.00"> &#160;&#160;&#160;&#160;&#160;&#160;&#160;&#160;</text>
</g>
<!-- Yellow zone doctor FD&#45;&gt;Red zone doctor FD -->
<g id="edge22" class="edge">
<title>Yellow zone doctor FD&#45;&gt;Red zone doctor FD</title>
<path fill="none" stroke="black" stroke-width="1.2" d="M420.4,-305.07C427.74,-309.75 434.34,-315.63 438.83,-323 454.82,-349.21 453.82,-367.12 435.83,-392 413.22,-423.28 374.56,-440.19 338.5,-449.33"/>
<polygon fill="black" stroke="black" stroke-width="1.2" points="337.34,-446 328.41,-451.7 338.94,-452.82 337.34,-446"/>
<text text-anchor="middle" x="470.33" y="-370.3" font-family="Sans Not-Rotated 14" font-size="14.00"> &#160;&#160;&#160;&#160;&#160;&#160;&#160;&#160;</text>
</g>
<!-- Yellow zone doctor FD&#45;&gt;Notification operator -->
<g id="edge11" class="edge">
<title>Yellow zone doctor FD&#45;&gt;Notification operator</title>
<path fill="none" stroke="black" stroke-width="1.84" d="M349.99,-268.8C334.63,-256.13 313.56,-238.73 296.6,-224.74"/>
<polygon fill="black" stroke="black" stroke-width="1.84" points="298.58,-221.84 288.64,-218.18 294.13,-227.24 298.58,-221.84"/>
<text text-anchor="middle" x="345.33" y="-239.8" font-family="Sans Not-Rotated 14" font-size="14.00"> &#160;&#160;&#160;&#160;&#160;&#160;&#160;&#160;</text>
</g>
<!-- Yellow zone doctor FD&#45;&gt;Yellow zone doctor -->
<g id="edge17" class="edge">
<title>Yellow zone doctor FD&#45;&gt;Yellow zone doctor</title>
<path fill="none" stroke="black" stroke-width="2.06" d="M366.99,-305.18C364.39,-316.81 360.9,-332.42 357.93,-345.73"/>
<polygon fill="black" stroke="black" stroke-width="2.06" points="354.44,-345.28 355.68,-355.8 361.27,-346.8 354.44,-345.28"/>
<text text-anchor="middle" x="398.33" y="-326.8" font-family="Sans Not-Rotated 14" font-size="14.00"> &#160;&#160;&#160;&#160;&#160;&#160;&#160;&#160;&#160;&#160;&#160;&#160;&#160;&#160;&#160;</text>
</g>
<!-- Red zone doctor&#45;&gt;Red zone operator -->
<g id="edge2" class="edge">
<title>Red zone doctor&#45;&gt;Red zone operator</title>
<path fill="none" stroke="black" stroke-width="3.42" d="M81,-392.16C79.46,-413.59 79.34,-450.87 92.83,-479 100.78,-495.58 114.19,-510.91 126.6,-522.8"/>
<polygon fill="black" stroke="black" stroke-width="3.42" points="124.41,-525.54 134.14,-529.74 129.15,-520.39 124.41,-525.54"/>
<text text-anchor="middle" x="129.33" y="-457.3" font-family="Sans Not-Rotated 14" font-size="14.00"> &#160;&#160;&#160;&#160;&#160;&#160;&#160;&#160;&#160;&#160;&#160;&#160;&#160;&#160;&#160;</text>
</g>
<!-- Red zone doctor&#45;&gt;Red zone doctor FD -->
<g id="edge5" class="edge">
<title>Red zone doctor&#45;&gt;Red zone doctor FD</title>
<path fill="none" stroke="black" stroke-width="3.46" d="M112.09,-392.02C121.62,-397.66 132.23,-404.02 141.83,-410 152.19,-416.45 154.01,-419.36 164.83,-425 174.45,-430.01 184.95,-434.78 195.23,-439.1"/>
<polygon fill="black" stroke="black" stroke-width="3.46" points="193.99,-442.38 204.57,-442.93 196.65,-435.9 193.99,-442.38"/>
<text text-anchor="middle" x="201.33" y="-413.8" font-family="Sans Not-Rotated 14" font-size="14.00"> &#160;&#160;&#160;&#160;&#160;&#160;&#160;&#160;&#160;&#160;&#160;&#160;&#160;&#160;&#160;</text>
</g>
<!-- Meas missing operator -->
<g id="node5" class="node">
<title>Meas missing operator</title>
<polygon fill="#e0ddf4" stroke="black" points="259.33,-127 88.33,-127 88.33,-91 259.33,-91 259.33,-127"/>
<text text-anchor="middle" x="173.83" y="-105.3" font-family="Sans Not-Rotated 14" font-size="14.00">Meas missing operator</text>
</g>
<!-- Meas missing operator&#45;&gt;Notification operator -->
<g id="edge15" class="edge">
<title>Meas missing operator&#45;&gt;Notification operator</title>
<path fill="none" stroke="black" stroke-width="1.35" d="M191.9,-127.11C206.19,-140.64 226.32,-159.69 242.26,-174.79"/>
<polygon fill="black" stroke="black" stroke-width="1.35" points="240.04,-177.51 249.71,-181.84 244.85,-172.42 240.04,-177.51"/>
<text text-anchor="middle" x="249.33" y="-152.8" font-family="Sans Not-Rotated 14" font-size="14.00"> &#160;&#160;&#160;&#160;&#160;&#160;&#160;&#160;</text>
</g>
<!-- Meas missing doctor -->
<g id="node7" class="node">
<title>Meas missing doctor</title>
<polygon fill="#ffffff" stroke="black" points="343.33,-36 188.33,-36 188.33,0 343.33,0 343.33,-36"/>
<text text-anchor="middle" x="265.83" y="-14.3" font-family="Sans Not-Rotated 14" font-size="14.00">Meas missing doctor</text>
</g>
<!-- Meas missing operator&#45;&gt;Meas missing doctor -->
<g id="edge1" class="edge">
<title>Meas missing operator&#45;&gt;Meas missing doctor</title>
<path fill="none" stroke="black" stroke-width="2.51" d="M191.57,-90.84C205.57,-77.3 225.27,-58.24 240.87,-43.15"/>
<polygon fill="black" stroke="black" stroke-width="2.51" points="243.39,-45.58 248.15,-36.11 238.53,-40.54 243.39,-45.58"/>
<text text-anchor="middle" x="264.33" y="-57.8" font-family="Sans Not-Rotated 14" font-size="14.00"> &#160;&#160;&#160;&#160;&#160;&#160;&#160;&#160;&#160;&#160;&#160;&#160;&#160;&#160;&#160;</text>
</g>
<!-- Notification operator&#45;&gt;Meas missing operator -->
<g id="edge10" class="edge">
<title>Notification operator&#45;&gt;Meas missing operator</title>
<path fill="none" stroke="black" stroke-width="2.7" d="M188.13,-185.14C166.6,-179.69 147.41,-172.64 140.83,-164 133.86,-154.85 138.11,-144.15 145.57,-134.7"/>
<polygon fill="black" stroke="black" stroke-width="2.7" points="148.31,-136.89 152.41,-127.12 143.11,-132.2 148.31,-136.89"/>
<text text-anchor="middle" x="177.33" y="-152.8" font-family="Sans Not-Rotated 14" font-size="14.00"> &#160;&#160;&#160;&#160;&#160;&#160;&#160;&#160;&#160;&#160;&#160;&#160;&#160;&#160;&#160;</text>
</g>
<!-- Notification operator&#45;&gt;Notification operator -->
<g id="edge25" class="edge">
<title>Notification operator&#45;&gt;Notification operator</title>
<path fill="none" stroke="black" stroke-width="1.96" d="M347.4,-206.99C358.17,-205.82 365.33,-203.49 365.33,-200 365.33,-197.77 362.39,-196.01 357.45,-194.72"/>
<polygon fill="black" stroke="black" stroke-width="1.96" points="357.85,-191.24 347.4,-193.01 356.67,-198.14 357.85,-191.24"/>
<text text-anchor="middle" x="385.83" y="-196.3" font-family="Sans Not-Rotated 14" font-size="14.00"> &#160;&#160;&#160;&#160;&#160;&#160;&#160;&#160;</text>
</g>
<!-- Notification operator&#45;&gt;Yellow zone doctor -->
<g id="edge18" class="edge">
<title>Notification operator&#45;&gt;Yellow zone doctor</title>
<path fill="none" stroke="black" stroke-width="1.57" d="M237.45,-218.03C206.51,-237.71 165.62,-271.68 184.83,-305 195.05,-322.73 238.38,-340.08 278.34,-352.82"/>
<polygon fill="black" stroke="black" stroke-width="1.57" points="277.54,-356.24 288.13,-355.87 279.63,-349.56 277.54,-356.24"/>
<text text-anchor="middle" x="205.33" y="-283.3" font-family="Sans Not-Rotated 14" font-size="14.00"> &#160;&#160;&#160;&#160;&#160;&#160;&#160;&#160;</text>
</g>
<!-- end -->
<g id="node10" class="node">
<title>end</title>
<ellipse fill="#ea4126" stroke="black" cx="299.83" cy="-109" rx="18" ry="18"/>
<ellipse fill="none" stroke="black" cx="299.83" cy="-109" rx="22" ry="22"/>
</g>
<!-- Notification operator&#45;&gt;end -->
<g id="edge19" class="edge">
<title>Notification operator&#45;&gt;end</title>
<path fill="none" stroke="black" stroke-dasharray="5,2" d="M274,-181.84C278.3,-169.89 284.14,-153.64 289.18,-139.63"/>
<polygon fill="black" stroke="black" points="292.59,-140.5 292.67,-129.9 286,-138.13 292.59,-140.5"/>
<text text-anchor="middle" x="305.33" y="-152.8" font-family="Sans Not-Rotated 14" font-size="14.00"> &#160;&#160;&#160;&#160;&#160;&#160;&#160;&#160;</text>
</g>
<!-- Meas missing doctor&#45;&gt;Notification operator -->
<g id="edge13" class="edge">
<title>Meas missing doctor&#45;&gt;Notification operator</title>
<path fill="none" stroke="black" stroke-width="2.05" d="M290.83,-36.25C305.93,-48.4 323.61,-66.17 330.83,-87 332.4,-91.51 332.93,-158.87 329.83,-164 327.14,-168.45 323.67,-172.38 319.73,-175.84"/>
<polygon fill="black" stroke="black" stroke-width="2.05" points="317.54,-173.11 311.69,-181.94 321.77,-178.69 317.54,-173.11"/>
<text text-anchor="middle" x="368.33" y="-105.3" font-family="Sans Not-Rotated 14" font-size="14.00"> &#160;&#160;&#160;&#160;&#160;&#160;&#160;&#160;&#160;&#160;&#160;&#160;&#160;&#160;&#160;</text>
</g>
<!-- Yellow zone doctor&#45;&gt;Yellow zone doctor FD -->
<g id="edge7" class="edge">
<title>Yellow zone doctor&#45;&gt;Yellow zone doctor FD</title>
<path fill="none" stroke="black" stroke-width="3.58" d="M298.13,-355.77C281.89,-347.56 270.53,-336.55 279.83,-323 283.01,-318.38 286.88,-314.37 291.23,-310.88"/>
<polygon fill="black" stroke="black" stroke-width="3.58" points="293.26,-313.73 299.5,-305.17 289.28,-307.97 293.26,-313.73"/>
<text text-anchor="middle" x="316.33" y="-326.8" font-family="Sans Not-Rotated 14" font-size="14.00"> &#160;&#160;&#160;&#160;&#160;&#160;&#160;&#160;&#160;&#160;&#160;&#160;&#160;&#160;&#160;</text>
</g>
<!-- Yellow zone doctor&#45;&gt;Notification operator -->
<g id="edge14" class="edge">
<title>Yellow zone doctor&#45;&gt;Notification operator</title>
<path fill="none" stroke="black" stroke-width="1.24" d="M293.57,-355.87C269.97,-345.46 245.73,-329.33 234.83,-305 223.24,-279.13 236.47,-247.98 249.47,-226.55"/>
<polygon fill="black" stroke="black" stroke-width="1.24" points="252.5,-228.31 254.95,-218.01 246.61,-224.53 252.5,-228.31"/>
<text text-anchor="middle" x="255.33" y="-283.3" font-family="Sans Not-Rotated 14" font-size="14.00"> &#160;&#160;&#160;&#160;&#160;&#160;&#160;&#160;</text>
</g>
<!-- start -->
<g id="node9" class="node">
<title>start</title>
<ellipse fill="#95d600" stroke="black" cx="155.83" cy="-644.3" rx="27.1" ry="27.1"/>
<text text-anchor="middle" x="155.83" y="-640.6" font-family="Sans Not-Rotated 14" font-size="14.00">start</text>
</g>
<!-- start&#45;&gt;Red zone operator -->
<g id="edge4" class="edge">
<title>start&#45;&gt;Red zone operator</title>
<path fill="none" stroke="black" stroke-dasharray="5,2" d="M155.83,-616.78C155.83,-604.1 155.83,-588.93 155.83,-576.17"/>
<polygon fill="black" stroke="black" points="159.33,-576.12 155.83,-566.12 152.33,-576.12 159.33,-576.12"/>
<text text-anchor="middle" x="176.33" y="-587.8" font-family="Sans Not-Rotated 14" font-size="14.00"> &#160;&#160;&#160;&#160;&#160;&#160;&#160;&#160;</text>
</g>
</g>
</svg>
