<?xml version="1.0" encoding="UTF-8" standalone="no"?>
<!DOCTYPE svg PUBLIC "-//W3C//DTD SVG 1.1//EN"
 "http://www.w3.org/Graphics/SVG/1.1/DTD/svg11.dtd">
<!-- Generated by graphviz version 3.0.0 (20220226.1711)
 -->
<!-- Pages: 1 -->
<svg width="827pt" height="680pt"
 viewBox="0.00 0.00 826.65 679.60" xmlns="http://www.w3.org/2000/svg" xmlns:xlink="http://www.w3.org/1999/xlink">
<g id="graph0" class="graph" transform="scale(1 1) rotate(0) translate(4 675.6)">
<polygon fill="white" stroke="transparent" points="-4,4 -4,-675.6 822.65,-675.6 822.65,4 -4,4"/>
<!-- Red zone operator -->
<g id="node1" class="node">
<title>Red zone operator</title>
<polygon fill="#1d2559" stroke="black" points="513.15,-566 368.15,-566 368.15,-530 513.15,-530 513.15,-566"/>
<text text-anchor="middle" x="440.65" y="-544.3" font-family="Sans Not-Rotated 14" font-size="14.00" fill="white">Red zone operator</text>
</g>
<!-- Red zone operator&#45;&gt;Red zone operator -->
<g id="edge25" class="edge">
<title>Red zone operator&#45;&gt;Red zone operator</title>
<path fill="none" stroke="black" stroke-width="1.41" d="M513.44,-555.11C524.02,-553.98 531.15,-551.61 531.15,-548 531.15,-545.69 528.22,-543.88 523.34,-542.59"/>
<polygon fill="black" stroke="black" stroke-width="1.41" points="523.89,-539.13 513.44,-540.89 522.7,-546.03 523.89,-539.13"/>
<text text-anchor="middle" x="551.65" y="-544.3" font-family="Sans Not-Rotated 14" font-size="14.00"> &#160;&#160;&#160;&#160;&#160;&#160;&#160;&#160;</text>
</g>
<!-- Red zone doctor FD -->
<g id="node2" class="node">
<title>Red zone doctor FD</title>
<polygon fill="#1d2559" stroke="black" points="421.15,-479 268.15,-479 268.15,-443 421.15,-443 421.15,-479"/>
<text text-anchor="middle" x="344.65" y="-457.3" font-family="Sans Not-Rotated 14" font-size="14.00" fill="white">Red zone doctor FD</text>
</g>
<!-- Red zone operator&#45;&gt;Red zone doctor FD -->
<g id="edge7" class="edge">
<title>Red zone operator&#45;&gt;Red zone doctor FD</title>
<path fill="none" stroke="black" stroke-width="3.29" d="M367.99,-533.31C357.64,-528.26 348.28,-521.38 341.65,-512 337.04,-505.48 336.12,-497.21 336.84,-489.28"/>
<polygon fill="black" stroke="black" stroke-width="3.29" points="340.33,-489.68 338.56,-479.23 333.42,-488.5 340.33,-489.68"/>
<text text-anchor="middle" x="378.15" y="-500.8" font-family="Sans Not-Rotated 14" font-size="14.00"> &#160;&#160;&#160;&#160;&#160;&#160;&#160;&#160;&#160;&#160;&#160;&#160;&#160;&#160;&#160;</text>
</g>
<!-- Red zone doctor -->
<g id="node4" class="node">
<title>Red zone doctor</title>
<polygon fill="#1f3b98" stroke="black" points="594.15,-218 465.15,-218 465.15,-182 594.15,-182 594.15,-218"/>
<text text-anchor="middle" x="529.65" y="-196.3" font-family="Sans Not-Rotated 14" font-size="14.00" fill="white">Red zone doctor</text>
</g>
<!-- Red zone operator&#45;&gt;Red zone doctor -->
<g id="edge10" class="edge">
<title>Red zone operator&#45;&gt;Red zone doctor</title>
<path fill="none" stroke="black" stroke-width="5" d="M513.32,-541.26C603.53,-532.09 745.65,-510.03 745.65,-462 745.65,-462 745.65,-462 745.65,-286 745.65,-254.78 666.51,-230.21 604.03,-215.68"/>
<polygon fill="black" stroke="black" stroke-width="5" points="604.89,-211.39 594.16,-213.43 602.95,-219.92 604.89,-211.39"/>
<text text-anchor="middle" x="782.15" y="-370.3" font-family="Sans Not-Rotated 14" font-size="14.00"> &#160;&#160;&#160;&#160;&#160;&#160;&#160;&#160;&#160;&#160;&#160;&#160;&#160;&#160;&#160;</text>
</g>
<!-- Red zone doctor FD&#45;&gt;Red zone operator -->
<g id="edge3" class="edge">
<title>Red zone doctor FD&#45;&gt;Red zone operator</title>
<path fill="none" stroke="black" stroke-width="3.39" d="M393.71,-479.09C402.79,-483.86 411.61,-489.77 418.65,-497 425.02,-503.55 429.71,-512.24 433.08,-520.55"/>
<polygon fill="black" stroke="black" stroke-width="3.39" points="429.79,-521.73 436.46,-529.96 436.38,-519.37 429.79,-521.73"/>
<text text-anchor="middle" x="466.15" y="-500.8" font-family="Sans Not-Rotated 14" font-size="14.00"> &#160;&#160;&#160;&#160;&#160;&#160;&#160;&#160;&#160;&#160;&#160;&#160;&#160;&#160;&#160;</text>
</g>
<!-- Red zone doctor FD&#45;&gt;Red zone doctor FD -->
<g id="edge26" class="edge">
<title>Red zone doctor FD&#45;&gt;Red zone doctor FD</title>
<path fill="none" stroke="black" stroke-width="2.47" d="M421.4,-468.03C432.04,-466.87 439.15,-464.53 439.15,-461 439.15,-458.74 436.23,-456.97 431.34,-455.68"/>
<polygon fill="black" stroke="black" stroke-width="2.47" points="431.85,-452.22 421.4,-453.97 430.67,-459.12 431.85,-452.22"/>
<text text-anchor="middle" x="475.65" y="-457.3" font-family="Sans Not-Rotated 14" font-size="14.00"> &#160;&#160;&#160;&#160;&#160;&#160;&#160;&#160;&#160;&#160;&#160;&#160;&#160;&#160;&#160;</text>
</g>
<!-- Yellow zone doctor FD -->
<g id="node3" class="node">
<title>Yellow zone doctor FD</title>
<polygon fill="#a09dde" stroke="black" points="247.15,-305 74.15,-305 74.15,-269 247.15,-269 247.15,-305"/>
<text text-anchor="middle" x="160.65" y="-283.3" font-family="Sans Not-Rotated 14" font-size="14.00">Yellow zone doctor FD</text>
</g>
<!-- Red zone doctor FD&#45;&gt;Yellow zone doctor FD -->
<g id="edge9" class="edge">
<title>Red zone doctor FD&#45;&gt;Yellow zone doctor FD</title>
<path fill="none" stroke="black" stroke-width="1.38" d="M288.41,-442.99C241.39,-425.31 177.94,-392.44 151.65,-338 148.24,-330.93 148.29,-322.73 149.8,-315.05"/>
<polygon fill="black" stroke="black" stroke-width="1.38" points="153.18,-315.95 152.47,-305.38 146.43,-314.08 153.18,-315.95"/>
<text text-anchor="middle" x="215.15" y="-370.3" font-family="Sans Not-Rotated 14" font-size="14.00"> &#160;&#160;&#160;&#160;&#160;&#160;&#160;&#160;</text>
</g>
<!-- Red zone doctor FD&#45;&gt;Red zone doctor -->
<g id="edge11" class="edge">
<title>Red zone doctor FD&#45;&gt;Red zone doctor</title>
<path fill="none" stroke="black" stroke-width="1.61" d="M368.46,-442.96C402.59,-417.19 464.79,-364.89 496.65,-305 509.72,-280.42 518.66,-249.79 523.9,-228.16"/>
<polygon fill="black" stroke="black" stroke-width="1.61" points="527.34,-228.86 526.18,-218.32 520.52,-227.28 527.34,-228.86"/>
<text text-anchor="middle" x="506.15" y="-326.8" font-family="Sans Not-Rotated 14" font-size="14.00"> &#160;&#160;&#160;&#160;&#160;&#160;&#160;&#160;</text>
</g>
<!-- Notification operator -->
<g id="node6" class="node">
<title>Notification operator</title>
<polygon fill="#5661c6" stroke="black" points="304.15,-218 145.15,-218 145.15,-182 304.15,-182 304.15,-218"/>
<text text-anchor="middle" x="224.65" y="-196.3" font-family="Sans Not-Rotated 14" font-size="14.00" fill="white">Notification operator</text>
</g>
<!-- Red zone doctor FD&#45;&gt;Notification operator -->
<g id="edge14" class="edge">
<title>Red zone doctor FD&#45;&gt;Notification operator</title>
<path fill="none" stroke="black" stroke-width="1.46" d="M268,-460.26C188.16,-459 69.89,-452.37 34.65,-425 1.99,-399.63 9.11,-378.68 1.65,-338 -10.63,-271.01 67.91,-235.5 135.13,-217.58"/>
<polygon fill="black" stroke="black" stroke-width="1.46" points="136.14,-220.93 144.95,-215.06 134.4,-214.15 136.14,-220.93"/>
<text text-anchor="middle" x="22.15" y="-326.8" font-family="Sans Not-Rotated 14" font-size="14.00"> &#160;&#160;&#160;&#160;&#160;&#160;&#160;&#160;</text>
</g>
<!-- Yellow zone doctor -->
<g id="node8" class="node">
<title>Yellow zone doctor</title>
<polygon fill="#a09dde" stroke="black" points="419.15,-392 270.15,-392 270.15,-356 419.15,-356 419.15,-392"/>
<text text-anchor="middle" x="344.65" y="-370.3" font-family="Sans Not-Rotated 14" font-size="14.00">Yellow zone doctor</text>
</g>
<!-- Red zone doctor FD&#45;&gt;Yellow zone doctor -->
<g id="edge18" class="edge">
<title>Red zone doctor FD&#45;&gt;Yellow zone doctor</title>
<path fill="none" stroke="black" stroke-width="1.95" d="M344.65,-442.8C344.65,-431.16 344.65,-415.55 344.65,-402.24"/>
<polygon fill="black" stroke="black" stroke-width="1.95" points="348.15,-402.18 344.65,-392.18 341.15,-402.18 348.15,-402.18"/>
<text text-anchor="middle" x="365.15" y="-413.8" font-family="Sans Not-Rotated 14" font-size="14.00"> &#160;&#160;&#160;&#160;&#160;&#160;&#160;&#160;</text>
</g>
<!-- Yellow zone doctor FD&#45;&gt;Red zone operator -->
<g id="edge5" class="edge">
<title>Yellow zone doctor FD&#45;&gt;Red zone operator</title>
<path fill="none" stroke="black" stroke-width="1.58" d="M134.03,-305.36C127.91,-310.42 121.96,-316.38 117.65,-323 92.54,-361.58 73.38,-387.2 99.65,-425 157.3,-507.93 276.85,-534.82 357.93,-543.35"/>
<polygon fill="black" stroke="black" stroke-width="1.58" points="357.83,-546.86 368.12,-544.35 358.51,-539.89 357.83,-546.86"/>
<text text-anchor="middle" x="120.15" y="-413.8" font-family="Sans Not-Rotated 14" font-size="14.00"> &#160;&#160;&#160;&#160;&#160;&#160;&#160;&#160;</text>
</g>
<!-- Yellow zone doctor FD&#45;&gt;Red zone doctor FD -->
<g id="edge23" class="edge">
<title>Yellow zone doctor FD&#45;&gt;Red zone doctor FD</title>
<path fill="none" stroke="black" stroke-width="1.2" d="M144.34,-305.11C125.67,-326.82 100.06,-364.73 119.65,-392 136.3,-415.17 201.91,-433.32 258.01,-445.02"/>
<polygon fill="black" stroke="black" stroke-width="1.2" points="257.51,-448.49 268,-447.06 258.91,-441.63 257.51,-448.49"/>
<text text-anchor="middle" x="140.15" y="-370.3" font-family="Sans Not-Rotated 14" font-size="14.00"> &#160;&#160;&#160;&#160;&#160;&#160;&#160;&#160;</text>
</g>
<!-- Yellow zone doctor FD&#45;&gt;Red zone doctor -->
<g id="edge24" class="edge">
<title>Yellow zone doctor FD&#45;&gt;Red zone doctor</title>
<path fill="none" stroke="black" stroke-width="1.16" d="M234.88,-268.9C298.91,-254.15 390.92,-232.96 455.05,-218.18"/>
<polygon fill="black" stroke="black" stroke-width="1.16" points="456.14,-221.53 465.1,-215.87 454.57,-214.7 456.14,-221.53"/>
<text text-anchor="middle" x="388.15" y="-239.8" font-family="Sans Not-Rotated 14" font-size="14.00"> &#160;&#160;&#160;&#160;&#160;&#160;&#160;&#160;</text>
</g>
<!-- Yellow zone doctor FD&#45;&gt;Notification operator -->
<g id="edge13" class="edge">
<title>Yellow zone doctor FD&#45;&gt;Notification operator</title>
<path fill="none" stroke="black" stroke-width="1.84" d="M173.6,-268.8C182.8,-256.59 195.29,-239.99 205.62,-226.28"/>
<polygon fill="black" stroke="black" stroke-width="1.84" points="208.5,-228.27 211.72,-218.18 202.91,-224.06 208.5,-228.27"/>
<text text-anchor="middle" x="217.15" y="-239.8" font-family="Sans Not-Rotated 14" font-size="14.00"> &#160;&#160;&#160;&#160;&#160;&#160;&#160;&#160;</text>
</g>
<!-- Yellow zone doctor FD&#45;&gt;Yellow zone doctor -->
<g id="edge19" class="edge">
<title>Yellow zone doctor FD&#45;&gt;Yellow zone doctor</title>
<path fill="none" stroke="black" stroke-width="2.06" d="M199.18,-305.01C210.75,-310.44 223.36,-316.69 234.65,-323 245.3,-328.96 246.83,-332.36 257.65,-338 267.27,-343.01 277.77,-347.78 288.05,-352.1"/>
<polygon fill="black" stroke="black" stroke-width="2.06" points="286.81,-355.38 297.39,-355.93 289.47,-348.9 286.81,-355.38"/>
<text text-anchor="middle" x="294.15" y="-326.8" font-family="Sans Not-Rotated 14" font-size="14.00"> &#160;&#160;&#160;&#160;&#160;&#160;&#160;&#160;&#160;&#160;&#160;&#160;&#160;&#160;&#160;</text>
</g>
<!-- Red zone doctor&#45;&gt;Red zone operator -->
<g id="edge2" class="edge">
<title>Red zone doctor&#45;&gt;Red zone operator</title>
<path fill="none" stroke="black" stroke-width="3.42" d="M577.83,-218.1C606.23,-231.6 636.65,-253.62 636.65,-286 636.65,-462 636.65,-462 636.65,-462 636.65,-514.35 577.06,-534.82 523.6,-542.64"/>
<polygon fill="black" stroke="black" stroke-width="3.42" points="522.81,-539.21 513.36,-544 523.73,-546.15 522.81,-539.21"/>
<text text-anchor="middle" x="673.15" y="-370.3" font-family="Sans Not-Rotated 14" font-size="14.00"> &#160;&#160;&#160;&#160;&#160;&#160;&#160;&#160;&#160;&#160;&#160;&#160;&#160;&#160;&#160;</text>
</g>
<!-- Red zone doctor&#45;&gt;Red zone doctor FD -->
<g id="edge6" class="edge">
<title>Red zone doctor&#45;&gt;Red zone doctor FD</title>
<path fill="none" stroke="black" stroke-width="3.46" d="M533.64,-218.28C542.33,-260.78 557.72,-370.91 498.65,-425 488.07,-434.69 460.4,-442.31 431.38,-447.93"/>
<polygon fill="black" stroke="black" stroke-width="3.46" points="430.7,-444.49 421.51,-449.76 431.98,-451.38 430.7,-444.49"/>
<text text-anchor="middle" x="578.15" y="-326.8" font-family="Sans Not-Rotated 14" font-size="14.00"> &#160;&#160;&#160;&#160;&#160;&#160;&#160;&#160;&#160;&#160;&#160;&#160;&#160;&#160;&#160;</text>
</g>
<!-- Red zone doctor&#45;&gt;Yellow zone doctor -->
<g id="edge21" class="edge">
<title>Red zone doctor&#45;&gt;Yellow zone doctor</title>
<path fill="none" stroke="black" stroke-width="1.14" d="M510.75,-218.28C495.77,-231.99 474.32,-251.67 455.65,-269 426.39,-296.15 392.98,-327.51 370.52,-348.63"/>
<polygon fill="black" stroke="black" stroke-width="1.14" points="367.95,-346.25 363.06,-355.65 372.74,-351.34 367.95,-346.25"/>
<text text-anchor="middle" x="476.15" y="-283.3" font-family="Sans Not-Rotated 14" font-size="14.00"> &#160;&#160;&#160;&#160;&#160;&#160;&#160;&#160;</text>
</g>
<!-- Meas missing operator -->
<g id="node5" class="node">
<title>Meas missing operator</title>
<polygon fill="#e0ddf4" stroke="black" points="216.15,-127 45.15,-127 45.15,-91 216.15,-91 216.15,-127"/>
<text text-anchor="middle" x="130.65" y="-105.3" font-family="Sans Not-Rotated 14" font-size="14.00">Meas missing operator</text>
</g>
<!-- Meas missing operator&#45;&gt;Notification operator -->
<g id="edge17" class="edge">
<title>Meas missing operator&#45;&gt;Notification operator</title>
<path fill="none" stroke="black" stroke-width="1.35" d="M150.59,-127.22C158.21,-133.92 166.92,-141.72 174.65,-149 183.27,-157.12 192.5,-166.22 200.64,-174.41"/>
<polygon fill="black" stroke="black" stroke-width="1.35" points="198.26,-176.97 207.78,-181.62 203.23,-172.05 198.26,-176.97"/>
<text text-anchor="middle" x="211.15" y="-152.8" font-family="Sans Not-Rotated 14" font-size="14.00"> &#160;&#160;&#160;&#160;&#160;&#160;&#160;&#160;</text>
</g>
<!-- Meas missing doctor -->
<g id="node7" class="node">
<title>Meas missing doctor</title>
<polygon fill="#ffffff" stroke="black" points="269.15,-36 114.15,-36 114.15,0 269.15,0 269.15,-36"/>
<text text-anchor="middle" x="191.65" y="-14.3" font-family="Sans Not-Rotated 14" font-size="14.00">Meas missing doctor</text>
</g>
<!-- Meas missing operator&#45;&gt;Meas missing doctor -->
<g id="edge1" class="edge">
<title>Meas missing operator&#45;&gt;Meas missing doctor</title>
<path fill="none" stroke="black" stroke-width="2.51" d="M141.41,-90.79C148.2,-80.09 157.24,-66.11 165.65,-54 167.81,-50.9 170.11,-47.67 172.42,-44.49"/>
<polygon fill="black" stroke="black" stroke-width="2.51" points="175.35,-46.41 178.47,-36.29 169.72,-42.26 175.35,-46.41"/>
<text text-anchor="middle" x="202.15" y="-57.8" font-family="Sans Not-Rotated 14" font-size="14.00"> &#160;&#160;&#160;&#160;&#160;&#160;&#160;&#160;&#160;&#160;&#160;&#160;&#160;&#160;&#160;</text>
</g>
<!-- Notification operator&#45;&gt;Meas missing operator -->
<g id="edge12" class="edge">
<title>Notification operator&#45;&gt;Meas missing operator</title>
<path fill="none" stroke="black" stroke-width="2.7" d="M145.14,-184.26C125.23,-178.89 107.77,-172.11 101.65,-164 95,-155.2 98.49,-144.67 105,-135.26"/>
<polygon fill="black" stroke="black" stroke-width="2.7" points="107.81,-137.35 111.31,-127.35 102.34,-132.98 107.81,-137.35"/>
<text text-anchor="middle" x="138.15" y="-152.8" font-family="Sans Not-Rotated 14" font-size="14.00"> &#160;&#160;&#160;&#160;&#160;&#160;&#160;&#160;&#160;&#160;&#160;&#160;&#160;&#160;&#160;</text>
</g>
<!-- Notification operator&#45;&gt;Notification operator -->
<g id="edge27" class="edge">
<title>Notification operator&#45;&gt;Notification operator</title>
<path fill="none" stroke="black" stroke-width="1.96" d="M304.22,-206.99C314.98,-205.82 322.15,-203.49 322.15,-200 322.15,-197.77 319.21,-196.01 314.27,-194.72"/>
<polygon fill="black" stroke="black" stroke-width="1.96" points="314.67,-191.24 304.22,-193.01 313.49,-198.14 314.67,-191.24"/>
<text text-anchor="middle" x="342.65" y="-196.3" font-family="Sans Not-Rotated 14" font-size="14.00"> &#160;&#160;&#160;&#160;&#160;&#160;&#160;&#160;</text>
</g>
<!-- Notification operator&#45;&gt;Yellow zone doctor -->
<g id="edge20" class="edge">
<title>Notification operator&#45;&gt;Yellow zone doctor</title>
<path fill="none" stroke="black" stroke-width="1.57" d="M276.02,-218.08C300.22,-228.83 327.12,-245.26 342.65,-269 357.5,-291.7 355.61,-323.57 351.52,-346.03"/>
<polygon fill="black" stroke="black" stroke-width="1.57" points="348.07,-345.42 349.46,-355.92 354.92,-346.84 348.07,-345.42"/>
<text text-anchor="middle" x="375.15" y="-283.3" font-family="Sans Not-Rotated 14" font-size="14.00"> &#160;&#160;&#160;&#160;&#160;&#160;&#160;&#160;</text>
</g>
<!-- end -->
<g id="node10" class="node">
<title>end</title>
<ellipse fill="#ea4126" stroke="black" cx="365.65" cy="-109" rx="18" ry="18"/>
<ellipse fill="none" stroke="black" cx="365.65" cy="-109" rx="22" ry="22"/>
</g>
<!-- Notification operator&#45;&gt;end -->
<g id="edge22" class="edge">
<title>Notification operator&#45;&gt;end</title>
<path fill="none" stroke="black" stroke-dasharray="5,2" d="M251.84,-181.84C276.92,-166 313.96,-142.63 338.91,-126.88"/>
<polygon fill="black" stroke="black" points="340.92,-129.75 347.51,-121.45 337.18,-123.83 340.92,-129.75"/>
<text text-anchor="middle" x="324.15" y="-152.8" font-family="Sans Not-Rotated 14" font-size="14.00"> &#160;&#160;&#160;&#160;&#160;&#160;&#160;&#160;</text>
</g>
<!-- Meas missing doctor&#45;&gt;Notification operator -->
<g id="edge15" class="edge">
<title>Meas missing doctor&#45;&gt;Notification operator</title>
<path fill="none" stroke="black" stroke-width="2.05" d="M223.54,-36.33C229.63,-41.2 235.18,-47.09 238.65,-54 257.62,-91.77 245.86,-142.01 235.4,-172.35"/>
<polygon fill="black" stroke="black" stroke-width="2.05" points="232.08,-171.24 231.95,-181.83 238.66,-173.63 232.08,-171.24"/>
<text text-anchor="middle" x="286.15" y="-105.3" font-family="Sans Not-Rotated 14" font-size="14.00"> &#160;&#160;&#160;&#160;&#160;&#160;&#160;&#160;&#160;&#160;&#160;&#160;&#160;&#160;&#160;</text>
</g>
<!-- Yellow zone doctor&#45;&gt;Yellow zone doctor FD -->
<g id="edge8" class="edge">
<title>Yellow zone doctor&#45;&gt;Yellow zone doctor FD</title>
<path fill="none" stroke="black" stroke-width="3.58" d="M269.97,-363.21C222.61,-356.24 168.93,-346.62 161.65,-338 156.37,-331.75 154.85,-323.33 155.02,-315.18"/>
<polygon fill="black" stroke="black" stroke-width="3.58" points="158.51,-315.48 156,-305.19 151.54,-314.8 158.51,-315.48"/>
<text text-anchor="middle" x="198.15" y="-326.8" font-family="Sans Not-Rotated 14" font-size="14.00"> &#160;&#160;&#160;&#160;&#160;&#160;&#160;&#160;&#160;&#160;&#160;&#160;&#160;&#160;&#160;</text>
</g>
<!-- Yellow zone doctor&#45;&gt;Notification operator -->
<g id="edge16" class="edge">
<title>Yellow zone doctor&#45;&gt;Notification operator</title>
<path fill="none" stroke="black" stroke-width="1.24" d="M343.01,-355.87C341.29,-345.51 337.8,-332.51 330.65,-323 321.54,-310.87 312.81,-315.28 301.65,-305 276.38,-281.72 253.83,-249.14 239.76,-226.68"/>
<polygon fill="black" stroke="black" stroke-width="1.24" points="242.66,-224.71 234.44,-218.02 236.69,-228.38 242.66,-224.71"/>
<text text-anchor="middle" x="322.15" y="-283.3" font-family="Sans Not-Rotated 14" font-size="14.00"> &#160;&#160;&#160;&#160;&#160;&#160;&#160;&#160;</text>
</g>
<!-- start -->
<g id="node9" class="node">
<title>start</title>
<ellipse fill="#95d600" stroke="black" cx="440.65" cy="-644.3" rx="27.1" ry="27.1"/>
<text text-anchor="middle" x="440.65" y="-640.6" font-family="Sans Not-Rotated 14" font-size="14.00">start</text>
</g>
<!-- start&#45;&gt;Red zone operator -->
<g id="edge4" class="edge">
<title>start&#45;&gt;Red zone operator</title>
<path fill="none" stroke="black" stroke-dasharray="5,2" d="M440.65,-616.78C440.65,-604.1 440.65,-588.93 440.65,-576.17"/>
<polygon fill="black" stroke="black" points="444.15,-576.12 440.65,-566.12 437.15,-576.12 444.15,-576.12"/>
<text text-anchor="middle" x="461.15" y="-587.8" font-family="Sans Not-Rotated 14" font-size="14.00"> &#160;&#160;&#160;&#160;&#160;&#160;&#160;&#160;</text>
</g>
</g>
</svg>
