<?xml version="1.0" encoding="UTF-8" standalone="no"?>
<!DOCTYPE svg PUBLIC "-//W3C//DTD SVG 1.1//EN"
 "http://www.w3.org/Graphics/SVG/1.1/DTD/svg11.dtd">
<!-- Generated by graphviz version 3.0.0 (20220226.1711)
 -->
<!-- Pages: 1 -->
<svg width="153pt" height="245pt"
 viewBox="0.00 0.00 153.30 244.60" xmlns="http://www.w3.org/2000/svg" xmlns:xlink="http://www.w3.org/1999/xlink">
<g id="graph0" class="graph" transform="scale(1 1) rotate(0) translate(4 240.6)">
<polygon fill="white" stroke="transparent" points="-4,4 -4,-240.6 149.3,-240.6 149.3,4 -4,4"/>
<!-- NEW -->
<g id="node1" class="node">
<title>NEW</title>
<polygon fill="#1d2559" stroke="black" points="54.3,-131 0.3,-131 0.3,-95 54.3,-95 54.3,-131"/>
<text text-anchor="middle" x="27.3" y="-109.3" font-family="Sans Not-Rotated 14" font-size="14.00" fill="white">NEW</text>
</g>
<!-- NEW&#45;&gt;NEW -->
<g id="edge1" class="edge">
<title>NEW&#45;&gt;NEW</title>
<path fill="none" stroke="black" d="M54.54,-120.87C64.32,-121.04 72.3,-118.41 72.3,-113 72.3,-109.7 69.34,-107.44 64.81,-106.21"/>
<polygon fill="black" stroke="black" points="64.85,-102.7 54.54,-105.13 64.12,-109.66 64.85,-102.7"/>
<text text-anchor="middle" x="108.8" y="-109.3" font-family="Sans Not-Rotated 14" font-size="14.00"> &#160;&#160;&#160;&#160;&#160;&#160;&#160;&#160;&#160;&#160;&#160;&#160;&#160;&#160;&#160;</text>
</g>
<!-- end -->
<g id="node3" class="node">
<title>end</title>
<ellipse fill="#ea4126" stroke="black" cx="27.3" cy="-22" rx="18" ry="18"/>
<ellipse fill="none" stroke="black" cx="27.3" cy="-22" rx="22" ry="22"/>
</g>
<!-- NEW&#45;&gt;end -->
<g id="edge2" class="edge">
<title>NEW&#45;&gt;end</title>
<path fill="none" stroke="black" stroke-dasharray="5,2" d="M27.3,-94.84C27.3,-83.44 27.3,-68.13 27.3,-54.58"/>
<polygon fill="black" stroke="black" points="30.8,-54.19 27.3,-44.19 23.8,-54.19 30.8,-54.19"/>
<text text-anchor="middle" x="63.8" y="-65.8" font-family="Sans Not-Rotated 14" font-size="14.00"> &#160;&#160;&#160;&#160;&#160;&#160;&#160;&#160;&#160;&#160;&#160;&#160;&#160;&#160;&#160;</text>
</g>
<!-- start -->
<g id="node2" class="node">
<title>start</title>
<ellipse fill="#95d600" stroke="black" cx="27.3" cy="-209.3" rx="27.1" ry="27.1"/>
<text text-anchor="middle" x="27.3" y="-205.6" font-family="Sans Not-Rotated 14" font-size="14.00">start</text>
</g>
<!-- start&#45;&gt;NEW -->
<g id="edge3" class="edge">
<title>start&#45;&gt;NEW</title>
<path fill="none" stroke="black" stroke-dasharray="5,2" d="M27.3,-181.78C27.3,-169.1 27.3,-153.93 27.3,-141.17"/>
<polygon fill="black" stroke="black" points="30.8,-141.12 27.3,-131.12 23.8,-141.12 30.8,-141.12"/>
<text text-anchor="middle" x="83.8" y="-152.8" font-family="Sans Not-Rotated 14" font-size="14.00"> &#160;&#160;&#160;&#160;&#160;&#160;&#160;&#160;&#160;&#160;&#160;&#160;&#160;&#160;&#160;&#160;&#160;&#160;&#160;&#160;&#160;&#160;&#160;&#160;</text>
</g>
</g>
</svg>
