<?xml version="1.0" encoding="UTF-8" standalone="no"?>
<!DOCTYPE svg PUBLIC "-//W3C//DTD SVG 1.1//EN"
 "http://www.w3.org/Graphics/SVG/1.1/DTD/svg11.dtd">
<!-- Generated by graphviz version 3.0.0 (20220226.1711)
 -->
<!-- Pages: 1 -->
<svg width="479pt" height="332pt"
 viewBox="0.00 0.00 478.50 331.60" xmlns="http://www.w3.org/2000/svg" xmlns:xlink="http://www.w3.org/1999/xlink">
<g id="graph0" class="graph" transform="scale(1 1) rotate(0) translate(4 327.6)">
<polygon fill="white" stroke="transparent" points="-4,4 -4,-327.6 474.5,-327.6 474.5,4 -4,4"/>
<!-- Red zone operator -->
<g id="node1" class="node">
<title>Red zone operator</title>
<polygon fill="#1d2559" stroke="black" points="353,-218 208,-218 208,-182 353,-182 353,-218"/>
<text text-anchor="middle" x="280.5" y="-196.3" font-family="Sans Not-Rotated 14" font-size="14.00" fill="white">Red zone operator</text>
</g>
<!-- Red zone operator&#45;&gt;Red zone operator -->
<g id="edge10" class="edge">
<title>Red zone operator&#45;&gt;Red zone operator</title>
<path fill="none" stroke="black" stroke-width="1.51" d="M353.29,-207.11C363.87,-205.98 371,-203.61 371,-200 371,-197.69 368.07,-195.88 363.19,-194.59"/>
<polygon fill="black" stroke="black" stroke-width="1.51" points="363.74,-191.13 353.29,-192.89 362.55,-198.03 363.74,-191.13"/>
<text text-anchor="middle" x="391.5" y="-196.3" font-family="Sans Not-Rotated 14" font-size="14.00"> &#160;&#160;&#160;&#160;&#160;&#160;&#160;&#160;</text>
</g>
<!-- Red zone doctor FD -->
<g id="node2" class="node">
<title>Red zone doctor FD</title>
<polygon fill="#1d2559" stroke="black" points="153,-131 0,-131 0,-95 153,-95 153,-131"/>
<text text-anchor="middle" x="76.5" y="-109.3" font-family="Sans Not-Rotated 14" font-size="14.00" fill="white">Red zone doctor FD</text>
</g>
<!-- Red zone operator&#45;&gt;Red zone doctor FD -->
<g id="edge5" class="edge">
<title>Red zone operator&#45;&gt;Red zone doctor FD</title>
<path fill="none" stroke="black" stroke-width="3.34" d="M207.86,-195.26C158.24,-191.09 98.5,-182.32 81.5,-164 75.91,-157.98 73.76,-149.61 73.27,-141.45"/>
<polygon fill="black" stroke="black" stroke-width="3.34" points="76.77,-141.45 73.41,-131.41 69.77,-141.36 76.77,-141.45"/>
<text text-anchor="middle" x="118" y="-152.8" font-family="Sans Not-Rotated 14" font-size="14.00"> &#160;&#160;&#160;&#160;&#160;&#160;&#160;&#160;&#160;&#160;&#160;&#160;&#160;&#160;&#160;</text>
</g>
<!-- Red zone doctor -->
<g id="node3" class="node">
<title>Red zone doctor</title>
<polygon fill="#ffffff" stroke="black" points="345,-40 216,-40 216,-4 345,-4 345,-40"/>
<text text-anchor="middle" x="280.5" y="-18.3" font-family="Sans Not-Rotated 14" font-size="14.00">Red zone doctor</text>
</g>
<!-- Red zone operator&#45;&gt;Red zone doctor -->
<g id="edge6" class="edge">
<title>Red zone operator&#45;&gt;Red zone doctor</title>
<path fill="none" stroke="black" stroke-width="5" d="M280.5,-181.8C280.5,-151.23 280.5,-87.19 280.5,-50.46"/>
<polygon fill="black" stroke="black" stroke-width="5" points="284.88,-50.01 280.5,-40.01 276.13,-50.01 284.88,-50.01"/>
<text text-anchor="middle" x="317" y="-109.3" font-family="Sans Not-Rotated 14" font-size="14.00"> &#160;&#160;&#160;&#160;&#160;&#160;&#160;&#160;&#160;&#160;&#160;&#160;&#160;&#160;&#160;</text>
</g>
<!-- Red zone doctor FD&#45;&gt;Red zone operator -->
<g id="edge3" class="edge">
<title>Red zone doctor FD&#45;&gt;Red zone operator</title>
<path fill="none" stroke="black" stroke-width="3.43" d="M116.54,-131.08C129.89,-136.77 144.84,-143.16 158.5,-149 174.06,-155.66 177.87,-157.51 193.5,-164 204.66,-168.64 216.66,-173.52 228.08,-178.13"/>
<polygon fill="black" stroke="black" stroke-width="3.43" points="226.91,-181.44 237.5,-181.92 229.53,-174.94 226.91,-181.44"/>
<text text-anchor="middle" x="230" y="-152.8" font-family="Sans Not-Rotated 14" font-size="14.00"> &#160;&#160;&#160;&#160;&#160;&#160;&#160;&#160;&#160;&#160;&#160;&#160;&#160;&#160;&#160;</text>
</g>
<!-- Red zone doctor FD&#45;&gt;Red zone doctor FD -->
<g id="edge11" class="edge">
<title>Red zone doctor FD&#45;&gt;Red zone doctor FD</title>
<path fill="none" stroke="black" stroke-width="2.54" d="M153.25,-120.03C163.89,-118.87 171,-116.53 171,-113 171,-110.74 168.08,-108.97 163.19,-107.68"/>
<polygon fill="black" stroke="black" stroke-width="2.54" points="163.7,-104.22 153.25,-105.97 162.52,-111.12 163.7,-104.22"/>
<text text-anchor="middle" x="207.5" y="-109.3" font-family="Sans Not-Rotated 14" font-size="14.00"> &#160;&#160;&#160;&#160;&#160;&#160;&#160;&#160;&#160;&#160;&#160;&#160;&#160;&#160;&#160;</text>
</g>
<!-- Red zone doctor FD&#45;&gt;Red zone doctor -->
<g id="edge4" class="edge">
<title>Red zone doctor FD&#45;&gt;Red zone doctor</title>
<path fill="none" stroke="black" stroke-width="1.71" d="M87.91,-94.72C96.02,-83.76 107.87,-70.16 121.5,-62 146.81,-46.86 177.72,-37.58 205.53,-31.91"/>
<polygon fill="black" stroke="black" stroke-width="1.71" points="206.46,-35.29 215.63,-29.97 205.15,-28.42 206.46,-35.29"/>
<text text-anchor="middle" x="142" y="-65.8" font-family="Sans Not-Rotated 14" font-size="14.00"> &#160;&#160;&#160;&#160;&#160;&#160;&#160;&#160;</text>
</g>
<!-- end -->
<g id="node5" class="node">
<title>end</title>
<ellipse fill="#ea4126" stroke="black" cx="76.5" cy="-22" rx="18" ry="18"/>
<ellipse fill="none" stroke="black" cx="76.5" cy="-22" rx="22" ry="22"/>
</g>
<!-- Red zone doctor FD&#45;&gt;end -->
<g id="edge7" class="edge">
<title>Red zone doctor FD&#45;&gt;end</title>
<path fill="none" stroke="black" stroke-dasharray="5,2" d="M76.5,-94.84C76.5,-83.44 76.5,-68.13 76.5,-54.58"/>
<polygon fill="black" stroke="black" points="80,-54.19 76.5,-44.19 73,-54.19 80,-54.19"/>
<text text-anchor="middle" x="86" y="-65.8" font-family="Sans Not-Rotated 14" font-size="14.00"> &#160;&#160;&#160;</text>
</g>
<!-- Red zone doctor&#45;&gt;Red zone operator -->
<g id="edge1" class="edge">
<title>Red zone doctor&#45;&gt;Red zone operator</title>
<path fill="none" stroke="black" stroke-width="3.46" d="M308.09,-40.02C325.86,-52.72 347.44,-71.83 357.5,-95 363.87,-109.68 364.08,-116.41 357.5,-131 349.27,-149.24 333.46,-164.56 318.3,-176.01"/>
<polygon fill="black" stroke="black" stroke-width="3.46" points="316.08,-173.29 309.99,-181.97 320.16,-178.98 316.08,-173.29"/>
<text text-anchor="middle" x="398" y="-109.3" font-family="Sans Not-Rotated 14" font-size="14.00"> &#160;&#160;&#160;&#160;&#160;&#160;&#160;&#160;&#160;&#160;&#160;&#160;&#160;&#160;&#160;</text>
</g>
<!-- Red zone doctor&#45;&gt;Red zone doctor FD -->
<g id="edge2" class="edge">
<title>Red zone doctor&#45;&gt;Red zone doctor FD</title>
<path fill="none" stroke="black" stroke-width="3.5" d="M240.32,-40.15C225.47,-46.71 208.6,-54.44 193.5,-62 181.23,-68.15 178.93,-71.17 166.5,-77 156.05,-81.9 144.72,-86.7 133.73,-91.1"/>
<polygon fill="black" stroke="black" stroke-width="3.5" points="132.21,-87.93 124.19,-94.85 134.77,-94.45 132.21,-87.93"/>
<text text-anchor="middle" x="230" y="-65.8" font-family="Sans Not-Rotated 14" font-size="14.00"> &#160;&#160;&#160;&#160;&#160;&#160;&#160;&#160;&#160;&#160;&#160;&#160;&#160;&#160;&#160;</text>
</g>
<!-- start -->
<g id="node4" class="node">
<title>start</title>
<ellipse fill="#95d600" stroke="black" cx="385.5" cy="-296.3" rx="27.1" ry="27.1"/>
<text text-anchor="middle" x="385.5" y="-292.6" font-family="Sans Not-Rotated 14" font-size="14.00">start</text>
</g>
<!-- start&#45;&gt;Red zone operator -->
<g id="edge8" class="edge">
<title>start&#45;&gt;Red zone operator</title>
<path fill="none" stroke="black" stroke-dasharray="5,2" d="M365.25,-277.12C348.82,-262.36 325.5,-241.42 307.48,-225.23"/>
<polygon fill="black" stroke="black" points="309.4,-222.25 299.62,-218.17 304.72,-227.46 309.4,-222.25"/>
<text text-anchor="middle" x="356" y="-239.8" font-family="Sans Not-Rotated 14" font-size="14.00"> &#160;&#160;&#160;&#160;&#160;&#160;&#160;&#160;</text>
</g>
<!-- start&#45;&gt;Red zone doctor -->
<g id="edge9" class="edge">
<title>start&#45;&gt;Red zone doctor</title>
<path fill="none" stroke="black" stroke-dasharray="5,2" d="M401.41,-273.99C428.12,-235.4 475.57,-152.63 438.5,-95 419.8,-65.94 386.17,-48.46 354.72,-38.03"/>
<polygon fill="black" stroke="black" points="355.64,-34.65 345.05,-35.01 353.56,-41.33 355.64,-34.65"/>
<text text-anchor="middle" x="461" y="-152.8" font-family="Sans Not-Rotated 14" font-size="14.00"> &#160;&#160;&#160;</text>
</g>
</g>
</svg>
