<?xml version="1.0" encoding="UTF-8" standalone="no"?>
<!DOCTYPE svg PUBLIC "-//W3C//DTD SVG 1.1//EN"
 "http://www.w3.org/Graphics/SVG/1.1/DTD/svg11.dtd">
<!-- Generated by graphviz version 3.0.0 (20220226.1711)
 -->
<!-- Pages: 1 -->
<svg width="444pt" height="332pt"
 viewBox="0.00 0.00 443.50 331.60" xmlns="http://www.w3.org/2000/svg" xmlns:xlink="http://www.w3.org/1999/xlink">
<g id="graph0" class="graph" transform="scale(1 1) rotate(0) translate(4 327.6)">
<polygon fill="white" stroke="transparent" points="-4,4 -4,-327.6 439.5,-327.6 439.5,4 -4,4"/>
<!-- Red zone operator -->
<g id="node1" class="node">
<title>Red zone operator</title>
<polygon fill="#1d2559" stroke="black" points="306,-218 161,-218 161,-182 306,-182 306,-218"/>
<text text-anchor="middle" x="233.5" y="-196.3" font-family="Sans Not-Rotated 14" font-size="14.00" fill="white">Red zone operator</text>
</g>
<!-- Red zone doctor FD -->
<g id="node2" class="node">
<title>Red zone doctor FD</title>
<polygon fill="#1d2559" stroke="black" points="153,-131 0,-131 0,-95 153,-95 153,-131"/>
<text text-anchor="middle" x="76.5" y="-109.3" font-family="Sans Not-Rotated 14" font-size="14.00" fill="white">Red zone doctor FD</text>
</g>
<!-- Red zone operator&#45;&gt;Red zone doctor FD -->
<g id="edge5" class="edge">
<title>Red zone operator&#45;&gt;Red zone doctor FD</title>
<path fill="none" stroke="black" stroke-width="3.34" d="M160.72,-190.39C127.16,-184.86 92.37,-176.35 81.5,-164 76.07,-157.83 73.96,-149.43 73.46,-141.28"/>
<polygon fill="black" stroke="black" stroke-width="3.34" points="76.96,-141.3 73.56,-131.27 69.96,-141.23 76.96,-141.3"/>
<text text-anchor="middle" x="118" y="-152.8" font-family="Sans Not-Rotated 14" font-size="14.00"> &#160;&#160;&#160;&#160;&#160;&#160;&#160;&#160;&#160;&#160;&#160;&#160;&#160;&#160;&#160;</text>
</g>
<!-- Red zone doctor -->
<g id="node3" class="node">
<title>Red zone doctor</title>
<polygon fill="#ffffff" stroke="black" points="299,-40 170,-40 170,-4 299,-4 299,-40"/>
<text text-anchor="middle" x="234.5" y="-18.3" font-family="Sans Not-Rotated 14" font-size="14.00">Red zone doctor</text>
</g>
<!-- Red zone operator&#45;&gt;Red zone doctor -->
<g id="edge6" class="edge">
<title>Red zone operator&#45;&gt;Red zone doctor</title>
<path fill="none" stroke="black" stroke-width="5" d="M249.09,-181.98C253.18,-176.6 257.1,-170.38 259.5,-164 275.49,-121.47 281.81,-104.78 266.5,-62 264.82,-57.3 262.3,-52.76 259.4,-48.54"/>
<polygon fill="black" stroke="black" stroke-width="5" points="262.65,-45.59 253.06,-40.38 255.74,-50.96 262.65,-45.59"/>
<text text-anchor="middle" x="312" y="-109.3" font-family="Sans Not-Rotated 14" font-size="14.00"> &#160;&#160;&#160;&#160;&#160;&#160;&#160;&#160;&#160;&#160;&#160;&#160;&#160;&#160;&#160;</text>
</g>
<!-- Red zone doctor FD&#45;&gt;Red zone operator -->
<g id="edge3" class="edge">
<title>Red zone doctor FD&#45;&gt;Red zone operator</title>
<path fill="none" stroke="black" stroke-width="3.43" d="M120.61,-131.07C133.08,-136.36 146.52,-142.52 158.5,-149 173.29,-157 188.88,-167.09 201.99,-176.11"/>
<polygon fill="black" stroke="black" stroke-width="3.43" points="200.01,-179 210.22,-181.85 204.02,-173.26 200.01,-179"/>
<text text-anchor="middle" x="219" y="-152.8" font-family="Sans Not-Rotated 14" font-size="14.00"> &#160;&#160;&#160;&#160;&#160;&#160;&#160;&#160;&#160;&#160;&#160;&#160;&#160;&#160;&#160;</text>
</g>
<!-- Red zone doctor FD&#45;&gt;Red zone doctor FD -->
<g id="edge9" class="edge">
<title>Red zone doctor FD&#45;&gt;Red zone doctor FD</title>
<path fill="none" stroke="black" stroke-width="2.54" d="M153.25,-120.03C163.89,-118.87 171,-116.53 171,-113 171,-110.74 168.08,-108.97 163.19,-107.68"/>
<polygon fill="black" stroke="black" stroke-width="2.54" points="163.7,-104.22 153.25,-105.97 162.52,-111.12 163.7,-104.22"/>
<text text-anchor="middle" x="207.5" y="-109.3" font-family="Sans Not-Rotated 14" font-size="14.00"> &#160;&#160;&#160;&#160;&#160;&#160;&#160;&#160;&#160;&#160;&#160;&#160;&#160;&#160;&#160;</text>
</g>
<!-- Red zone doctor FD&#45;&gt;Red zone doctor -->
<g id="edge4" class="edge">
<title>Red zone doctor FD&#45;&gt;Red zone doctor</title>
<path fill="none" stroke="black" stroke-width="1.71" d="M88.88,-94.67C97.3,-83.97 109.29,-70.68 122.5,-62 133.99,-54.45 147.11,-48.19 160.23,-43.05"/>
<polygon fill="black" stroke="black" stroke-width="1.71" points="161.6,-46.27 169.76,-39.51 159.16,-39.71 161.6,-46.27"/>
<text text-anchor="middle" x="143" y="-65.8" font-family="Sans Not-Rotated 14" font-size="14.00"> &#160;&#160;&#160;&#160;&#160;&#160;&#160;&#160;</text>
</g>
<!-- end -->
<g id="node5" class="node">
<title>end</title>
<ellipse fill="#ea4126" stroke="black" cx="76.5" cy="-22" rx="18" ry="18"/>
<ellipse fill="none" stroke="black" cx="76.5" cy="-22" rx="22" ry="22"/>
</g>
<!-- Red zone doctor FD&#45;&gt;end -->
<g id="edge7" class="edge">
<title>Red zone doctor FD&#45;&gt;end</title>
<path fill="none" stroke="black" stroke-dasharray="5,2" d="M76.5,-94.84C76.5,-83.44 76.5,-68.13 76.5,-54.58"/>
<polygon fill="black" stroke="black" points="80,-54.19 76.5,-44.19 73,-54.19 80,-54.19"/>
<text text-anchor="middle" x="86" y="-65.8" font-family="Sans Not-Rotated 14" font-size="14.00"> &#160;&#160;&#160;</text>
</g>
<!-- Red zone doctor&#45;&gt;Red zone operator -->
<g id="edge1" class="edge">
<title>Red zone doctor&#45;&gt;Red zone operator</title>
<path fill="none" stroke="black" stroke-width="3.46" d="M281.97,-40.14C325.81,-58.86 380.88,-91.51 357.5,-131 344.91,-152.26 323.06,-167.31 301.18,-177.75"/>
<polygon fill="black" stroke="black" stroke-width="3.46" points="299.51,-174.66 291.82,-181.95 302.38,-181.05 299.51,-174.66"/>
<text text-anchor="middle" x="399" y="-109.3" font-family="Sans Not-Rotated 14" font-size="14.00"> &#160;&#160;&#160;&#160;&#160;&#160;&#160;&#160;&#160;&#160;&#160;&#160;&#160;&#160;&#160;</text>
</g>
<!-- Red zone doctor&#45;&gt;Red zone doctor FD -->
<g id="edge2" class="edge">
<title>Red zone doctor&#45;&gt;Red zone doctor FD</title>
<path fill="none" stroke="black" stroke-width="3.5" d="M216.58,-40.03C203.7,-51.6 185.49,-66.63 167.5,-77 158.5,-82.19 148.58,-86.9 138.7,-91.07"/>
<polygon fill="black" stroke="black" stroke-width="3.5" points="137.23,-87.89 129.28,-94.89 139.86,-94.37 137.23,-87.89"/>
<text text-anchor="middle" x="226" y="-65.8" font-family="Sans Not-Rotated 14" font-size="14.00"> &#160;&#160;&#160;&#160;&#160;&#160;&#160;&#160;&#160;&#160;&#160;&#160;&#160;&#160;&#160;</text>
</g>
<!-- start -->
<g id="node4" class="node">
<title>start</title>
<ellipse fill="#95d600" stroke="black" cx="233.5" cy="-296.3" rx="27.1" ry="27.1"/>
<text text-anchor="middle" x="233.5" y="-292.6" font-family="Sans Not-Rotated 14" font-size="14.00">start</text>
</g>
<!-- start&#45;&gt;Red zone operator -->
<g id="edge8" class="edge">
<title>start&#45;&gt;Red zone operator</title>
<path fill="none" stroke="black" stroke-dasharray="5,2" d="M233.5,-268.78C233.5,-256.1 233.5,-240.93 233.5,-228.17"/>
<polygon fill="black" stroke="black" points="237,-228.12 233.5,-218.12 230,-228.12 237,-228.12"/>
<text text-anchor="middle" x="254" y="-239.8" font-family="Sans Not-Rotated 14" font-size="14.00"> &#160;&#160;&#160;&#160;&#160;&#160;&#160;&#160;</text>
</g>
</g>
</svg>
