<?xml version="1.0" encoding="UTF-8" standalone="no"?>
<!DOCTYPE svg PUBLIC "-//W3C//DTD SVG 1.1//EN"
 "http://www.w3.org/Graphics/SVG/1.1/DTD/svg11.dtd">
<!-- Generated by graphviz version 3.0.0 (20220226.1711)
 -->
<!-- Pages: 1 -->
<svg width="491pt" height="419pt"
 viewBox="0.00 0.00 490.50 418.60" xmlns="http://www.w3.org/2000/svg" xmlns:xlink="http://www.w3.org/1999/xlink">
<g id="graph0" class="graph" transform="scale(1 1) rotate(0) translate(4 414.6)">
<polygon fill="white" stroke="transparent" points="-4,4 -4,-414.6 486.5,-414.6 486.5,4 -4,4"/>
<!-- Red zone operator -->
<g id="node1" class="node">
<title>Red zone operator</title>
<polygon fill="#1d2559" stroke="black" points="353,-305 208,-305 208,-269 353,-269 353,-305"/>
<text text-anchor="middle" x="280.5" y="-283.3" font-family="Sans Not-Rotated 14" font-size="14.00" fill="white">Red zone operator</text>
</g>
<!-- Red zone operator&#45;&gt;Red zone operator -->
<g id="edge3" class="edge">
<title>Red zone operator&#45;&gt;Red zone operator</title>
<path fill="none" stroke="black" stroke-width="1.53" d="M353.29,-294.11C363.87,-292.98 371,-290.61 371,-287 371,-284.69 368.07,-282.88 363.19,-281.59"/>
<polygon fill="black" stroke="black" stroke-width="1.53" points="363.74,-278.13 353.29,-279.89 362.55,-285.03 363.74,-278.13"/>
<text text-anchor="middle" x="391.5" y="-283.3" font-family="Sans Not-Rotated 14" font-size="14.00"> &#160;&#160;&#160;&#160;&#160;&#160;&#160;&#160;</text>
</g>
<!-- Red zone doctor FD -->
<g id="node2" class="node">
<title>Red zone doctor FD</title>
<polygon fill="#1d2559" stroke="black" points="153,-218 0,-218 0,-182 153,-182 153,-218"/>
<text text-anchor="middle" x="76.5" y="-196.3" font-family="Sans Not-Rotated 14" font-size="14.00" fill="white">Red zone doctor FD</text>
</g>
<!-- Red zone operator&#45;&gt;Red zone doctor FD -->
<g id="edge1" class="edge">
<title>Red zone operator&#45;&gt;Red zone doctor FD</title>
<path fill="none" stroke="black" stroke-width="3.35" d="M207.87,-279.15C164.43,-273.73 114.46,-264.75 97.5,-251 90.35,-245.21 85.6,-236.55 82.46,-228.05"/>
<polygon fill="black" stroke="black" stroke-width="3.35" points="85.75,-226.87 79.46,-218.34 79.06,-228.93 85.75,-226.87"/>
<text text-anchor="middle" x="134" y="-239.8" font-family="Sans Not-Rotated 14" font-size="14.00"> &#160;&#160;&#160;&#160;&#160;&#160;&#160;&#160;&#160;&#160;&#160;&#160;&#160;&#160;&#160;</text>
</g>
<!-- Red zone doctor -->
<g id="node3" class="node">
<title>Red zone doctor</title>
<polygon fill="#ffffff" stroke="black" points="345,-131 216,-131 216,-95 345,-95 345,-131"/>
<text text-anchor="middle" x="280.5" y="-109.3" font-family="Sans Not-Rotated 14" font-size="14.00">Red zone doctor</text>
</g>
<!-- Red zone operator&#45;&gt;Red zone doctor -->
<g id="edge2" class="edge">
<title>Red zone operator&#45;&gt;Red zone doctor</title>
<path fill="none" stroke="black" stroke-width="5" d="M280.5,-268.88C280.5,-239 280.5,-177.11 280.5,-141.27"/>
<polygon fill="black" stroke="black" stroke-width="5" points="284.88,-141.05 280.5,-131.05 276.13,-141.05 284.88,-141.05"/>
<text text-anchor="middle" x="317" y="-196.3" font-family="Sans Not-Rotated 14" font-size="14.00"> &#160;&#160;&#160;&#160;&#160;&#160;&#160;&#160;&#160;&#160;&#160;&#160;&#160;&#160;&#160;</text>
</g>
<!-- end -->
<g id="node5" class="node">
<title>end</title>
<ellipse fill="#ea4126" stroke="black" cx="280.5" cy="-22" rx="18" ry="18"/>
<ellipse fill="none" stroke="black" cx="280.5" cy="-22" rx="22" ry="22"/>
</g>
<!-- Red zone operator&#45;&gt;end -->
<g id="edge4" class="edge">
<title>Red zone operator&#45;&gt;end</title>
<path fill="none" stroke="black" stroke-dasharray="5,2" d="M353.08,-273.32C384.93,-263.75 419.37,-247.06 438.5,-218 458.28,-187.95 425.49,-109.91 413.5,-95 387.19,-62.28 341.85,-42.34 311.52,-31.98"/>
<polygon fill="black" stroke="black" points="312.45,-28.61 301.86,-28.84 310.28,-35.26 312.45,-28.61"/>
<text text-anchor="middle" x="443" y="-152.8" font-family="Sans Not-Rotated 14" font-size="14.00"> </text>
</g>
<!-- Red zone doctor FD&#45;&gt;Red zone operator -->
<g id="edge5" class="edge">
<title>Red zone doctor FD&#45;&gt;Red zone operator</title>
<path fill="none" stroke="black" stroke-width="3.45" d="M128.6,-218.06C142.48,-223.24 157.28,-229.33 170.5,-236 181.4,-241.5 182.68,-245.36 193.5,-251 203.12,-256.01 213.62,-260.78 223.9,-265.1"/>
<polygon fill="black" stroke="black" stroke-width="3.45" points="222.66,-268.38 233.24,-268.93 225.32,-261.9 222.66,-268.38"/>
<text text-anchor="middle" x="230" y="-239.8" font-family="Sans Not-Rotated 14" font-size="14.00"> &#160;&#160;&#160;&#160;&#160;&#160;&#160;&#160;&#160;&#160;&#160;&#160;&#160;&#160;&#160;</text>
</g>
<!-- Red zone doctor FD&#45;&gt;Red zone doctor FD -->
<g id="edge6" class="edge">
<title>Red zone doctor FD&#45;&gt;Red zone doctor FD</title>
<path fill="none" stroke="black" stroke-width="2.56" d="M153.25,-207.03C163.89,-205.87 171,-203.53 171,-200 171,-197.74 168.08,-195.97 163.19,-194.68"/>
<polygon fill="black" stroke="black" stroke-width="2.56" points="163.7,-191.22 153.25,-192.97 162.52,-198.12 163.7,-191.22"/>
<text text-anchor="middle" x="207.5" y="-196.3" font-family="Sans Not-Rotated 14" font-size="14.00"> &#160;&#160;&#160;&#160;&#160;&#160;&#160;&#160;&#160;&#160;&#160;&#160;&#160;&#160;&#160;</text>
</g>
<!-- Red zone doctor FD&#45;&gt;Red zone doctor -->
<g id="edge7" class="edge">
<title>Red zone doctor FD&#45;&gt;Red zone doctor</title>
<path fill="none" stroke="black" stroke-width="1.73" d="M89.86,-181.67C99.23,-170.69 112.7,-157.09 127.5,-149 151.35,-135.96 179.85,-127.77 205.75,-122.63"/>
<polygon fill="black" stroke="black" stroke-width="1.73" points="206.72,-126.01 215.91,-120.74 205.43,-119.13 206.72,-126.01"/>
<text text-anchor="middle" x="148" y="-152.8" font-family="Sans Not-Rotated 14" font-size="14.00"> &#160;&#160;&#160;&#160;&#160;&#160;&#160;&#160;</text>
</g>
<!-- Red zone doctor FD&#45;&gt;end -->
<g id="edge8" class="edge">
<title>Red zone doctor FD&#45;&gt;end</title>
<path fill="none" stroke="black" stroke-dasharray="5,2" d="M83.51,-181.57C88.18,-171.35 95.01,-158.61 103.5,-149 147.48,-99.23 214.69,-58.31 252.38,-37.62"/>
<polygon fill="black" stroke="black" points="254.16,-40.64 261.29,-32.8 250.83,-34.48 254.16,-40.64"/>
<text text-anchor="middle" x="171" y="-109.3" font-family="Sans Not-Rotated 14" font-size="14.00"> &#160;&#160;&#160;</text>
</g>
<!-- Red zone doctor&#45;&gt;Red zone operator -->
<g id="edge10" class="edge">
<title>Red zone doctor&#45;&gt;Red zone operator</title>
<path fill="none" stroke="black" stroke-width="3.47" d="M309.99,-131.03C327.35,-142.87 347.75,-160.38 357.5,-182 364.08,-196.59 364.08,-203.41 357.5,-218 349.27,-236.24 333.46,-251.56 318.3,-263.01"/>
<polygon fill="black" stroke="black" stroke-width="3.47" points="316.08,-260.29 309.99,-268.97 320.16,-265.98 316.08,-260.29"/>
<text text-anchor="middle" x="398" y="-196.3" font-family="Sans Not-Rotated 14" font-size="14.00"> &#160;&#160;&#160;&#160;&#160;&#160;&#160;&#160;&#160;&#160;&#160;&#160;&#160;&#160;&#160;</text>
</g>
<!-- Red zone doctor&#45;&gt;Red zone doctor FD -->
<g id="edge9" class="edge">
<title>Red zone doctor&#45;&gt;Red zone doctor FD</title>
<path fill="none" stroke="black" stroke-width="3.51" d="M234.3,-131.01C220.94,-136.35 206.47,-142.55 193.5,-149 181.9,-154.77 180.16,-158.34 168.5,-164 158.16,-169.02 146.89,-173.82 135.91,-178.17"/>
<polygon fill="black" stroke="black" stroke-width="3.51" points="134.42,-174.99 126.36,-181.87 136.95,-181.52 134.42,-174.99"/>
<text text-anchor="middle" x="230" y="-152.8" font-family="Sans Not-Rotated 14" font-size="14.00"> &#160;&#160;&#160;&#160;&#160;&#160;&#160;&#160;&#160;&#160;&#160;&#160;&#160;&#160;&#160;</text>
</g>
<!-- Red zone doctor&#45;&gt;Red zone doctor -->
<g id="edge11" class="edge">
<title>Red zone doctor&#45;&gt;Red zone doctor</title>
<path fill="none" stroke="black" stroke-width="1.26" d="M345.18,-120.29C355.74,-119.24 363,-116.81 363,-113 363,-110.56 360.02,-108.68 355.1,-107.38"/>
<polygon fill="black" stroke="black" stroke-width="1.26" points="355.62,-103.91 345.18,-105.71 354.46,-110.82 355.62,-103.91"/>
<text text-anchor="middle" x="383.5" y="-109.3" font-family="Sans Not-Rotated 14" font-size="14.00"> &#160;&#160;&#160;&#160;&#160;&#160;&#160;&#160;</text>
</g>
<!-- Red zone doctor&#45;&gt;end -->
<g id="edge12" class="edge">
<title>Red zone doctor&#45;&gt;end</title>
<path fill="none" stroke="black" stroke-dasharray="5,2" d="M280.5,-94.84C280.5,-83.44 280.5,-68.13 280.5,-54.58"/>
<polygon fill="black" stroke="black" points="284,-54.19 280.5,-44.19 277,-54.19 284,-54.19"/>
<text text-anchor="middle" x="283" y="-65.8" font-family="Sans Not-Rotated 14" font-size="14.00"> </text>
</g>
<!-- start -->
<g id="node4" class="node">
<title>start</title>
<ellipse fill="#95d600" stroke="black" cx="280.5" cy="-383.3" rx="27.1" ry="27.1"/>
<text text-anchor="middle" x="280.5" y="-379.6" font-family="Sans Not-Rotated 14" font-size="14.00">start</text>
</g>
<!-- start&#45;&gt;Red zone operator -->
<g id="edge13" class="edge">
<title>start&#45;&gt;Red zone operator</title>
<path fill="none" stroke="black" stroke-dasharray="5,2" d="M280.5,-355.78C280.5,-343.1 280.5,-327.93 280.5,-315.17"/>
<polygon fill="black" stroke="black" points="284,-315.12 280.5,-305.12 277,-315.12 284,-315.12"/>
<text text-anchor="middle" x="301" y="-326.8" font-family="Sans Not-Rotated 14" font-size="14.00"> &#160;&#160;&#160;&#160;&#160;&#160;&#160;&#160;</text>
</g>
<!-- start&#45;&gt;Red zone doctor FD -->
<g id="edge15" class="edge">
<title>start&#45;&gt;Red zone doctor FD</title>
<path fill="none" stroke="black" stroke-dasharray="5,2" d="M254.97,-373.53C211.36,-357.09 123.29,-317.19 82.5,-251 78.4,-244.35 76.43,-236.25 75.61,-228.52"/>
<polygon fill="black" stroke="black" points="79.09,-228.19 75.1,-218.38 72.1,-228.55 79.09,-228.19"/>
<text text-anchor="middle" x="132" y="-283.3" font-family="Sans Not-Rotated 14" font-size="14.00"> </text>
</g>
<!-- start&#45;&gt;Red zone doctor -->
<g id="edge14" class="edge">
<title>start&#45;&gt;Red zone doctor</title>
<path fill="none" stroke="black" stroke-dasharray="5,2" d="M306.63,-375.39C338.9,-365.43 393.03,-343.83 421.5,-305 463.15,-248.19 493.97,-203.63 449.5,-149 437.36,-134.09 394.93,-125.33 355.62,-120.31"/>
<polygon fill="black" stroke="black" points="355.79,-116.8 345.45,-119.08 354.95,-123.75 355.79,-116.8"/>
<text text-anchor="middle" x="473" y="-239.8" font-family="Sans Not-Rotated 14" font-size="14.00"> &#160;&#160;&#160;</text>
</g>
</g>
</svg>
