<?xml version="1.0" encoding="UTF-8" standalone="no"?>
<!DOCTYPE svg PUBLIC "-//W3C//DTD SVG 1.1//EN"
 "http://www.w3.org/Graphics/SVG/1.1/DTD/svg11.dtd">
<!-- Generated by graphviz version 3.0.0 (20220226.1711)
 -->
<!-- Pages: 1 -->
<svg width="708pt" height="1289pt"
 viewBox="0.00 0.00 707.50 1288.60" xmlns="http://www.w3.org/2000/svg" xmlns:xlink="http://www.w3.org/1999/xlink">
<g id="graph0" class="graph" transform="scale(1 1) rotate(0) translate(4 1284.6)">
<polygon fill="white" stroke="transparent" points="-4,4 -4,-1284.6 703.5,-1284.6 703.5,4 -4,4"/>
<!-- Program change operator -->
<g id="node1" class="node">
<title>Program change operator</title>
<polygon fill="#ffffff" stroke="black" points="368,-1280.6 175,-1280.6 175,-1244.6 368,-1244.6 368,-1280.6"/>
<text text-anchor="middle" x="271.5" y="-1258.9" font-family="Sans Not-Rotated 14" font-size="14.00">Program change operator</text>
</g>
<!-- Yellow zone Therapy control operator -->
<g id="node12" class="node">
<title>Yellow zone Therapy control operator</title>
<polygon fill="#e0ddf4" stroke="black" points="699.5,-1184.3 421.5,-1184.3 421.5,-1148.3 699.5,-1148.3 699.5,-1184.3"/>
<text text-anchor="middle" x="560.5" y="-1162.6" font-family="Sans Not-Rotated 14" font-size="14.00">Yellow zone Therapy control operator</text>
</g>
<!-- Program change operator&#45;&gt;Yellow zone Therapy control operator -->
<g id="edge1" class="edge">
<title>Program change operator&#45;&gt;Yellow zone Therapy control operator</title>
<path fill="none" stroke="black" stroke-width="1.04" d="M323.84,-1244.52C372.89,-1228.51 446.26,-1204.57 498.29,-1187.6"/>
<polygon fill="black" stroke="black" stroke-width="1.04" points="499.65,-1190.84 508.07,-1184.41 497.47,-1184.18 499.65,-1190.84"/>
<text text-anchor="middle" x="434" y="-1215.4" font-family="Sans Not-Rotated 14" font-size="14.00"> &#160;&#160;&#160;</text>
</g>
<!-- Kit return nurse -->
<g id="node2" class="node">
<title>Kit return nurse</title>
<polygon fill="#ffffff" stroke="black" points="494.5,-131 366.5,-131 366.5,-95 494.5,-95 494.5,-131"/>
<text text-anchor="middle" x="430.5" y="-109.3" font-family="Sans Not-Rotated 14" font-size="14.00">Kit return nurse</text>
</g>
<!-- end -->
<g id="node19" class="node">
<title>end</title>
<ellipse fill="#ea4126" stroke="black" cx="333.5" cy="-22" rx="18" ry="18"/>
<ellipse fill="none" stroke="black" cx="333.5" cy="-22" rx="22" ry="22"/>
</g>
<!-- Kit return nurse&#45;&gt;end -->
<g id="edge20" class="edge">
<title>Kit return nurse&#45;&gt;end</title>
<path fill="none" stroke="black" stroke-dasharray="5,2" d="M411.8,-94.84C396.18,-80.51 373.85,-60.02 357.02,-44.58"/>
<polygon fill="black" stroke="black" points="358.99,-41.64 349.26,-37.46 354.26,-46.8 358.99,-41.64"/>
<text text-anchor="middle" x="400" y="-65.8" font-family="Sans Not-Rotated 14" font-size="14.00"> &#160;&#160;&#160;</text>
</g>
<!-- Red zone operator -->
<g id="node3" class="node">
<title>Red zone operator</title>
<polygon fill="#1d2559" stroke="black" points="475,-1088 330,-1088 330,-1052 475,-1052 475,-1088"/>
<text text-anchor="middle" x="402.5" y="-1066.3" font-family="Sans Not-Rotated 14" font-size="14.00" fill="white">Red zone operator</text>
</g>
<!-- Red zone doctor -->
<g id="node8" class="node">
<title>Red zone doctor</title>
<polygon fill="#1f3b98" stroke="black" points="566,-1001 437,-1001 437,-965 566,-965 566,-1001"/>
<text text-anchor="middle" x="501.5" y="-979.3" font-family="Sans Not-Rotated 14" font-size="14.00" fill="white">Red zone doctor</text>
</g>
<!-- Red zone operator&#45;&gt;Red zone doctor -->
<g id="edge11" class="edge">
<title>Red zone operator&#45;&gt;Red zone doctor</title>
<path fill="none" stroke="black" stroke-width="5" d="M396.37,-1051.75C393.84,-1041.34 392.83,-1028.34 399.5,-1019 403.61,-1013.24 414.2,-1007.82 427.08,-1003.06"/>
<polygon fill="black" stroke="black" stroke-width="5" points="428.77,-1007.1 436.8,-999.71 425.92,-998.83 428.77,-1007.1"/>
<text text-anchor="middle" x="436" y="-1022.8" font-family="Sans Not-Rotated 14" font-size="14.00"> &#160;&#160;&#160;&#160;&#160;&#160;&#160;&#160;&#160;&#160;&#160;&#160;&#160;&#160;&#160;</text>
</g>
<!-- Red zone doctor FD -->
<g id="node4" class="node">
<title>Red zone doctor FD</title>
<polygon fill="#1d2559" stroke="black" points="598,-914 445,-914 445,-878 598,-878 598,-914"/>
<text text-anchor="middle" x="521.5" y="-892.3" font-family="Sans Not-Rotated 14" font-size="14.00" fill="white">Red zone doctor FD</text>
</g>
<!-- Red zone doctor FD&#45;&gt;Red zone operator -->
<g id="edge21" class="edge">
<title>Red zone doctor FD&#45;&gt;Red zone operator</title>
<path fill="none" stroke="black" stroke-width="3.44" d="M444.92,-908.85C411.6,-918.23 375.63,-935 355.5,-965 338.59,-990.2 358.75,-1022.48 377.66,-1044.35"/>
<polygon fill="black" stroke="black" stroke-width="3.44" points="375.2,-1046.84 384.51,-1051.9 380.38,-1042.14 375.2,-1046.84"/>
<text text-anchor="middle" x="392" y="-979.3" font-family="Sans Not-Rotated 14" font-size="14.00"> &#160;&#160;&#160;&#160;&#160;&#160;&#160;&#160;&#160;&#160;&#160;&#160;&#160;&#160;&#160;</text>
</g>
<!-- Red zone doctor FD&#45;&gt;Red zone doctor FD -->
<g id="edge29" class="edge">
<title>Red zone doctor FD&#45;&gt;Red zone doctor FD</title>
<path fill="none" stroke="black" stroke-width="2.55" d="M598.25,-903.03C608.89,-901.87 616,-899.53 616,-896 616,-893.74 613.08,-891.97 608.19,-890.68"/>
<polygon fill="black" stroke="black" stroke-width="2.55" points="608.7,-887.22 598.25,-888.97 607.52,-894.12 608.7,-887.22"/>
<text text-anchor="middle" x="652.5" y="-892.3" font-family="Sans Not-Rotated 14" font-size="14.00"> &#160;&#160;&#160;&#160;&#160;&#160;&#160;&#160;&#160;&#160;&#160;&#160;&#160;&#160;&#160;</text>
</g>
<!-- Red zone measmissing operator -->
<g id="node5" class="node">
<title>Red zone measmissing operator</title>
<polygon fill="#ffffff" stroke="black" points="687.5,-827 451.5,-827 451.5,-791 687.5,-791 687.5,-827"/>
<text text-anchor="middle" x="569.5" y="-805.3" font-family="Sans Not-Rotated 14" font-size="14.00">Red zone measmissing operator</text>
</g>
<!-- Red zone doctor FD&#45;&gt;Red zone measmissing operator -->
<g id="edge8" class="edge">
<title>Red zone doctor FD&#45;&gt;Red zone measmissing operator</title>
<path fill="none" stroke="black" stroke-width="1" d="M531.21,-877.8C537.98,-865.82 547.13,-849.62 554.79,-836.06"/>
<polygon fill="black" stroke="black" stroke-width="1" points="557.93,-837.6 559.8,-827.18 551.84,-834.16 557.93,-837.6"/>
<text text-anchor="middle" x="550" y="-848.8" font-family="Sans Not-Rotated 14" font-size="14.00"> </text>
</g>
<!-- Red zone doctor FD&#45;&gt;Yellow zone Therapy control operator -->
<g id="edge14" class="edge">
<title>Red zone doctor FD&#45;&gt;Yellow zone Therapy control operator</title>
<path fill="none" stroke="black" stroke-width="1.22" d="M563.14,-914.11C570.09,-918.86 576.37,-924.76 580.5,-932 618.28,-998.34 589.87,-1092.9 572.05,-1138.57"/>
<polygon fill="black" stroke="black" stroke-width="1.22" points="568.71,-1137.48 568.22,-1148.06 575.21,-1140.1 568.71,-1137.48"/>
<text text-anchor="middle" x="619" y="-1022.8" font-family="Sans Not-Rotated 14" font-size="14.00"> &#160;&#160;&#160;&#160;&#160;&#160;&#160;&#160;</text>
</g>
<!-- Yellow zone doctor -->
<g id="node17" class="node">
<title>Yellow zone doctor</title>
<polygon fill="#7d7fd2" stroke="black" points="433,-827 284,-827 284,-791 433,-791 433,-827"/>
<text text-anchor="middle" x="358.5" y="-805.3" font-family="Sans Not-Rotated 14" font-size="14.00">Yellow zone doctor</text>
</g>
<!-- Red zone doctor FD&#45;&gt;Yellow zone doctor -->
<g id="edge18" class="edge">
<title>Red zone doctor FD&#45;&gt;Yellow zone doctor</title>
<path fill="none" stroke="black" stroke-width="2.06" d="M488.51,-877.8C463.02,-864.51 427.58,-846.02 400.13,-831.71"/>
<polygon fill="black" stroke="black" stroke-width="2.06" points="401.64,-828.55 391.16,-827.03 398.41,-834.76 401.64,-828.55"/>
<text text-anchor="middle" x="470" y="-848.8" font-family="Sans Not-Rotated 14" font-size="14.00"> &#160;&#160;&#160;&#160;&#160;&#160;&#160;&#160;</text>
</g>
<!-- Red zone measmissing operator&#45;&gt;Red zone doctor FD -->
<g id="edge22" class="edge">
<title>Red zone measmissing operator&#45;&gt;Red zone doctor FD</title>
<path fill="none" stroke="black" stroke-width="1" d="M547.86,-827.19C542.49,-832.4 537.21,-838.49 533.5,-845 529.55,-851.93 526.9,-860.12 525.12,-867.84"/>
<polygon fill="black" stroke="black" stroke-width="1" points="521.63,-867.44 523.19,-877.92 528.51,-868.75 521.63,-867.44"/>
<text text-anchor="middle" x="536" y="-848.8" font-family="Sans Not-Rotated 14" font-size="14.00"> </text>
</g>
<!-- Yellow zone doctor FD -->
<g id="node6" class="node">
<title>Yellow zone doctor FD</title>
<polygon fill="#5661c6" stroke="black" points="375,-740 202,-740 202,-704 375,-704 375,-740"/>
<text text-anchor="middle" x="288.5" y="-718.3" font-family="Sans Not-Rotated 14" font-size="14.00" fill="white">Yellow zone doctor FD</text>
</g>
<!-- Yellow zone doctor FD&#45;&gt;Program change operator -->
<g id="edge4" class="edge">
<title>Yellow zone doctor FD&#45;&gt;Program change operator</title>
<path fill="none" stroke="black" stroke-width="1.03" d="M277.51,-740.15C267.91,-756.81 255.5,-783.15 255.5,-808 255.5,-1167.3 255.5,-1167.3 255.5,-1167.3 255.5,-1190.17 260.13,-1215.73 264.41,-1234.46"/>
<polygon fill="black" stroke="black" stroke-width="1.03" points="261.05,-1235.46 266.79,-1244.36 267.86,-1233.82 261.05,-1235.46"/>
<text text-anchor="middle" x="265" y="-979.3" font-family="Sans Not-Rotated 14" font-size="14.00"> &#160;&#160;&#160;</text>
</g>
<!-- Notification operator -->
<g id="node14" class="node">
<title>Notification operator</title>
<polygon fill="#1946ba" stroke="black" points="368,-653 209,-653 209,-617 368,-617 368,-653"/>
<text text-anchor="middle" x="288.5" y="-631.3" font-family="Sans Not-Rotated 14" font-size="14.00" fill="white">Notification operator</text>
</g>
<!-- Yellow zone doctor FD&#45;&gt;Notification operator -->
<g id="edge16" class="edge">
<title>Yellow zone doctor FD&#45;&gt;Notification operator</title>
<path fill="none" stroke="black" stroke-width="1.95" d="M288.5,-703.8C288.5,-692.16 288.5,-676.55 288.5,-663.24"/>
<polygon fill="black" stroke="black" stroke-width="1.95" points="292,-663.18 288.5,-653.18 285,-663.18 292,-663.18"/>
<text text-anchor="middle" x="309" y="-674.8" font-family="Sans Not-Rotated 14" font-size="14.00"> &#160;&#160;&#160;&#160;&#160;&#160;&#160;&#160;</text>
</g>
<!-- Yellow zone doctor FD&#45;&gt;Yellow zone doctor -->
<g id="edge23" class="edge">
<title>Yellow zone doctor FD&#45;&gt;Yellow zone doctor</title>
<path fill="none" stroke="black" stroke-width="2.16" d="M282.66,-740.46C280.34,-750.69 279.48,-763.43 285.5,-773 288.33,-777.49 291.91,-781.42 295.97,-784.86"/>
<polygon fill="black" stroke="black" stroke-width="2.16" points="294.12,-787.84 304.27,-790.87 298.22,-782.17 294.12,-787.84"/>
<text text-anchor="middle" x="322" y="-761.8" font-family="Sans Not-Rotated 14" font-size="14.00"> &#160;&#160;&#160;&#160;&#160;&#160;&#160;&#160;&#160;&#160;&#160;&#160;&#160;&#160;&#160;</text>
</g>
<!-- Monitoring completed doctor -->
<g id="node7" class="node">
<title>Monitoring completed doctor</title>
<polygon fill="#ffffff" stroke="black" points="542.5,-392 328.5,-392 328.5,-356 542.5,-356 542.5,-392"/>
<text text-anchor="middle" x="435.5" y="-370.3" font-family="Sans Not-Rotated 14" font-size="14.00">Monitoring completed doctor</text>
</g>
<!-- Monitoring completed doctor FD -->
<g id="node15" class="node">
<title>Monitoring completed doctor FD</title>
<polygon fill="#ffffff" stroke="black" points="554.5,-305 316.5,-305 316.5,-269 554.5,-269 554.5,-305"/>
<text text-anchor="middle" x="435.5" y="-283.3" font-family="Sans Not-Rotated 14" font-size="14.00">Monitoring completed doctor FD</text>
</g>
<!-- Monitoring completed doctor&#45;&gt;Monitoring completed doctor FD -->
<g id="edge17" class="edge">
<title>Monitoring completed doctor&#45;&gt;Monitoring completed doctor FD</title>
<path fill="none" stroke="black" stroke-width="1.02" d="M435.5,-355.8C435.5,-344.16 435.5,-328.55 435.5,-315.24"/>
<polygon fill="black" stroke="black" stroke-width="1.02" points="439,-315.18 435.5,-305.18 432,-315.18 439,-315.18"/>
<text text-anchor="middle" x="445" y="-326.8" font-family="Sans Not-Rotated 14" font-size="14.00"> &#160;&#160;&#160;</text>
</g>
<!-- Red zone doctor&#45;&gt;Red zone operator -->
<g id="edge6" class="edge">
<title>Red zone doctor&#45;&gt;Red zone operator</title>
<path fill="none" stroke="black" stroke-width="3.47" d="M496.21,-1001.05C492.21,-1011.63 485.8,-1024.91 476.5,-1034 471.59,-1038.81 465.89,-1043.05 459.87,-1046.76"/>
<polygon fill="black" stroke="black" stroke-width="3.47" points="457.88,-1043.87 450.9,-1051.84 461.32,-1049.97 457.88,-1043.87"/>
<text text-anchor="middle" x="524" y="-1022.8" font-family="Sans Not-Rotated 14" font-size="14.00"> &#160;&#160;&#160;&#160;&#160;&#160;&#160;&#160;&#160;&#160;&#160;&#160;&#160;&#160;&#160;</text>
</g>
<!-- Red zone doctor&#45;&gt;Red zone doctor FD -->
<g id="edge7" class="edge">
<title>Red zone doctor&#45;&gt;Red zone doctor FD</title>
<path fill="none" stroke="black" stroke-width="3.51" d="M502.46,-964.67C503.28,-954.95 504.77,-942.67 507.5,-932 508.19,-929.3 509.04,-926.53 509.97,-923.78"/>
<polygon fill="black" stroke="black" stroke-width="3.51" points="513.35,-924.74 513.6,-914.15 506.8,-922.27 513.35,-924.74"/>
<text text-anchor="middle" x="544" y="-935.8" font-family="Sans Not-Rotated 14" font-size="14.00"> &#160;&#160;&#160;&#160;&#160;&#160;&#160;&#160;&#160;&#160;&#160;&#160;&#160;&#160;&#160;</text>
</g>
<!-- Target levels achieved doctor -->
<g id="node9" class="node">
<title>Target levels achieved doctor</title>
<polygon fill="#ffffff" stroke="black" points="219,-566 0,-566 0,-530 219,-530 219,-566"/>
<text text-anchor="middle" x="109.5" y="-544.3" font-family="Sans Not-Rotated 14" font-size="14.00">Target levels achieved doctor</text>
</g>
<!-- Target levels achieved doctor FD -->
<g id="node10" class="node">
<title>Target levels achieved doctor FD</title>
<polygon fill="#ffffff" stroke="black" points="253,-479 10,-479 10,-443 253,-443 253,-479"/>
<text text-anchor="middle" x="131.5" y="-457.3" font-family="Sans Not-Rotated 14" font-size="14.00">Target levels achieved doctor FD</text>
</g>
<!-- Target levels achieved doctor&#45;&gt;Target levels achieved doctor FD -->
<g id="edge13" class="edge">
<title>Target levels achieved doctor&#45;&gt;Target levels achieved doctor FD</title>
<path fill="none" stroke="black" stroke-width="1" d="M113.95,-529.8C116.96,-518.16 121.01,-502.55 124.45,-489.24"/>
<polygon fill="black" stroke="black" stroke-width="1" points="127.94,-489.73 127.05,-479.18 121.16,-487.98 127.94,-489.73"/>
<text text-anchor="middle" x="125" y="-500.8" font-family="Sans Not-Rotated 14" font-size="14.00"> </text>
</g>
<!-- Target levels achieved doctor FD&#45;&gt;Notification operator -->
<g id="edge24" class="edge">
<title>Target levels achieved doctor FD&#45;&gt;Notification operator</title>
<path fill="none" stroke="black" stroke-width="1" d="M162.18,-479.06C182.42,-491.36 208.58,-509.38 227.5,-530 248.83,-553.24 266.18,-585.16 276.85,-607.48"/>
<polygon fill="black" stroke="black" stroke-width="1" points="273.75,-609.11 281.14,-616.71 280.1,-606.16 273.75,-609.11"/>
<text text-anchor="middle" x="257" y="-544.3" font-family="Sans Not-Rotated 14" font-size="14.00"> </text>
</g>
<!-- Kit return operator -->
<g id="node11" class="node">
<title>Kit return operator</title>
<polygon fill="#ffffff" stroke="black" points="509.5,-218 361.5,-218 361.5,-182 509.5,-182 509.5,-218"/>
<text text-anchor="middle" x="435.5" y="-196.3" font-family="Sans Not-Rotated 14" font-size="14.00">Kit return operator</text>
</g>
<!-- Kit return operator&#45;&gt;Kit return nurse -->
<g id="edge5" class="edge">
<title>Kit return operator&#45;&gt;Kit return nurse</title>
<path fill="none" stroke="black" stroke-width="1" d="M434.49,-181.8C433.8,-170.16 432.89,-154.55 432.1,-141.24"/>
<polygon fill="black" stroke="black" stroke-width="1" points="435.59,-140.95 431.51,-131.18 428.6,-141.36 435.59,-140.95"/>
<text text-anchor="middle" x="435" y="-152.8" font-family="Sans Not-Rotated 14" font-size="14.00"> </text>
</g>
<!-- Yellow zone Therapy control operator&#45;&gt;Red zone operator -->
<g id="edge25" class="edge">
<title>Yellow zone Therapy control operator&#45;&gt;Red zone operator</title>
<path fill="none" stroke="black" stroke-width="1.17" d="M531.89,-1148.22C506.13,-1132.85 468.11,-1110.15 439.94,-1093.34"/>
<polygon fill="black" stroke="black" stroke-width="1.17" points="441.55,-1090.23 431.17,-1088.11 437.96,-1096.24 441.55,-1090.23"/>
<text text-anchor="middle" x="506" y="-1109.8" font-family="Sans Not-Rotated 14" font-size="14.00"> &#160;&#160;&#160;&#160;&#160;&#160;&#160;&#160;</text>
</g>
<!-- Meas missing operator -->
<g id="node13" class="node">
<title>Meas missing operator</title>
<polygon fill="#a09dde" stroke="black" points="597,-566 426,-566 426,-530 597,-530 597,-566"/>
<text text-anchor="middle" x="511.5" y="-544.3" font-family="Sans Not-Rotated 14" font-size="14.00">Meas missing operator</text>
</g>
<!-- Meas missing doctor -->
<g id="node16" class="node">
<title>Meas missing doctor</title>
<polygon fill="#c0bde9" stroke="black" points="513,-479 358,-479 358,-443 513,-443 513,-479"/>
<text text-anchor="middle" x="435.5" y="-457.3" font-family="Sans Not-Rotated 14" font-size="14.00">Meas missing doctor</text>
</g>
<!-- Meas missing operator&#45;&gt;Meas missing doctor -->
<g id="edge2" class="edge">
<title>Meas missing operator&#45;&gt;Meas missing doctor</title>
<path fill="none" stroke="black" stroke-width="2.59" d="M496.12,-529.8C485.1,-517.47 470.08,-500.68 457.75,-486.89"/>
<polygon fill="black" stroke="black" stroke-width="2.59" points="460.13,-484.3 450.86,-479.18 454.91,-488.96 460.13,-484.3"/>
<text text-anchor="middle" x="514" y="-500.8" font-family="Sans Not-Rotated 14" font-size="14.00"> &#160;&#160;&#160;&#160;&#160;&#160;&#160;&#160;&#160;&#160;&#160;&#160;&#160;&#160;&#160;</text>
</g>
<!-- Notification operator&#45;&gt;Target levels achieved doctor -->
<g id="edge12" class="edge">
<title>Notification operator&#45;&gt;Target levels achieved doctor</title>
<path fill="none" stroke="black" d="M252.28,-616.8C224.04,-603.39 184.68,-584.7 154.43,-570.34"/>
<polygon fill="black" stroke="black" points="155.9,-567.16 145.36,-566.03 152.9,-573.48 155.9,-567.16"/>
<text text-anchor="middle" x="213" y="-587.8" font-family="Sans Not-Rotated 14" font-size="14.00"> </text>
</g>
<!-- Notification operator&#45;&gt;Meas missing operator -->
<g id="edge15" class="edge">
<title>Notification operator&#45;&gt;Meas missing operator</title>
<path fill="none" stroke="black" stroke-width="2.77" d="M333.36,-616.9C369.12,-603.27 419.33,-584.13 457.33,-569.65"/>
<polygon fill="black" stroke="black" stroke-width="2.77" points="458.61,-572.9 466.71,-566.07 456.12,-566.36 458.61,-572.9"/>
<text text-anchor="middle" x="449" y="-587.8" font-family="Sans Not-Rotated 14" font-size="14.00"> &#160;&#160;&#160;&#160;&#160;&#160;&#160;&#160;&#160;&#160;&#160;&#160;&#160;&#160;&#160;</text>
</g>
<!-- Notification operator&#45;&gt;end -->
<g id="edge19" class="edge">
<title>Notification operator&#45;&gt;end</title>
<path fill="none" stroke="black" stroke-dasharray="5,2" d="M288.5,-616.74C288.5,-599.57 288.5,-572.46 288.5,-549 288.5,-549 288.5,-549 288.5,-112 288.5,-88.26 301.41,-64.42 313.4,-47.4"/>
<polygon fill="black" stroke="black" points="316.36,-49.27 319.51,-39.16 310.74,-45.1 316.36,-49.27"/>
<text text-anchor="middle" x="309" y="-326.8" font-family="Sans Not-Rotated 14" font-size="14.00"> &#160;&#160;&#160;&#160;&#160;&#160;&#160;&#160;</text>
</g>
<!-- Monitoring completed doctor FD&#45;&gt;Kit return operator -->
<g id="edge3" class="edge">
<title>Monitoring completed doctor FD&#45;&gt;Kit return operator</title>
<path fill="none" stroke="black" stroke-width="1" d="M435.5,-268.8C435.5,-257.16 435.5,-241.55 435.5,-228.24"/>
<polygon fill="black" stroke="black" stroke-width="1" points="439,-228.18 435.5,-218.18 432,-228.18 439,-228.18"/>
<text text-anchor="middle" x="438" y="-239.8" font-family="Sans Not-Rotated 14" font-size="14.00"> </text>
</g>
<!-- Monitoring completed doctor FD&#45;&gt;end -->
<g id="edge26" class="edge">
<title>Monitoring completed doctor FD&#45;&gt;end</title>
<path fill="none" stroke="black" stroke-dasharray="5,2" d="M404.1,-268.86C385.79,-257.09 364.09,-239.69 352.5,-218 324.54,-165.68 325.86,-94.13 329.54,-53.85"/>
<polygon fill="black" stroke="black" points="333.03,-54.14 330.56,-43.83 326.06,-53.43 333.03,-54.14"/>
<text text-anchor="middle" x="344" y="-152.8" font-family="Sans Not-Rotated 14" font-size="14.00"> &#160;&#160;&#160;</text>
</g>
<!-- Meas missing doctor&#45;&gt;Monitoring completed doctor -->
<g id="edge10" class="edge">
<title>Meas missing doctor&#45;&gt;Monitoring completed doctor</title>
<path fill="none" stroke="black" stroke-width="1.01" d="M435.5,-442.8C435.5,-431.16 435.5,-415.55 435.5,-402.24"/>
<polygon fill="black" stroke="black" stroke-width="1.01" points="439,-402.18 435.5,-392.18 432,-402.18 439,-402.18"/>
<text text-anchor="middle" x="445" y="-413.8" font-family="Sans Not-Rotated 14" font-size="14.00"> &#160;&#160;&#160;</text>
</g>
<!-- Meas missing doctor&#45;&gt;Notification operator -->
<g id="edge27" class="edge">
<title>Meas missing doctor&#45;&gt;Notification operator</title>
<path fill="none" stroke="black" stroke-width="2.15" d="M406.23,-479.15C386.96,-491.5 362.14,-509.54 344.5,-530 324.41,-553.3 308.64,-585.01 299.02,-607.27"/>
<polygon fill="black" stroke="black" stroke-width="2.15" points="295.67,-606.19 295.04,-616.77 302.13,-608.89 295.67,-606.19"/>
<text text-anchor="middle" x="381" y="-544.3" font-family="Sans Not-Rotated 14" font-size="14.00"> &#160;&#160;&#160;&#160;&#160;&#160;&#160;&#160;&#160;&#160;&#160;&#160;&#160;&#160;&#160;</text>
</g>
<!-- Yellow zone doctor&#45;&gt;Yellow zone doctor FD -->
<g id="edge9" class="edge">
<title>Yellow zone doctor&#45;&gt;Yellow zone doctor FD</title>
<path fill="none" stroke="black" stroke-width="3.63" d="M364.85,-790.54C367.43,-780.31 368.56,-767.56 362.5,-758 359.63,-753.46 355.99,-749.5 351.88,-746.05"/>
<polygon fill="black" stroke="black" stroke-width="3.63" points="353.63,-743 343.46,-740.01 349.55,-748.68 353.63,-743"/>
<text text-anchor="middle" x="404" y="-761.8" font-family="Sans Not-Rotated 14" font-size="14.00"> &#160;&#160;&#160;&#160;&#160;&#160;&#160;&#160;&#160;&#160;&#160;&#160;&#160;&#160;&#160;</text>
</g>
<!-- start -->
<g id="node18" class="node">
<title>start</title>
<ellipse fill="#95d600" stroke="black" cx="376.5" cy="-1166.3" rx="27.1" ry="27.1"/>
<text text-anchor="middle" x="376.5" y="-1162.6" font-family="Sans Not-Rotated 14" font-size="14.00">start</text>
</g>
<!-- start&#45;&gt;Red zone operator -->
<g id="edge28" class="edge">
<title>start&#45;&gt;Red zone operator</title>
<path fill="none" stroke="black" stroke-dasharray="5,2" d="M383.6,-1139.53C387.16,-1126.62 391.47,-1111 395.07,-1097.93"/>
<polygon fill="black" stroke="black" points="398.5,-1098.67 397.78,-1088.1 391.75,-1096.81 398.5,-1098.67"/>
<text text-anchor="middle" x="413" y="-1109.8" font-family="Sans Not-Rotated 14" font-size="14.00"> &#160;&#160;&#160;&#160;&#160;&#160;&#160;&#160;</text>
</g>
</g>
</svg>
