<?xml version="1.0" encoding="UTF-8" standalone="no"?>
<!DOCTYPE svg PUBLIC "-//W3C//DTD SVG 1.1//EN"
 "http://www.w3.org/Graphics/SVG/1.1/DTD/svg11.dtd">
<!-- Generated by graphviz version 3.0.0 (20220226.1711)
 -->
<!-- Pages: 1 -->
<svg width="860pt" height="1289pt"
 viewBox="0.00 0.00 859.50 1288.60" xmlns="http://www.w3.org/2000/svg" xmlns:xlink="http://www.w3.org/1999/xlink">
<g id="graph0" class="graph" transform="scale(1 1) rotate(0) translate(4 1284.6)">
<polygon fill="white" stroke="transparent" points="-4,4 -4,-1284.6 855.5,-1284.6 855.5,4 -4,4"/>
<!-- Program change operator -->
<g id="node1" class="node">
<title>Program change operator</title>
<polygon fill="#ffffff" stroke="black" points="193,-1280.6 0,-1280.6 0,-1244.6 193,-1244.6 193,-1280.6"/>
<text text-anchor="middle" x="96.5" y="-1258.9" font-family="Sans Not-Rotated 14" font-size="14.00">Program change operator</text>
</g>
<!-- Yellow zone Therapy control operator -->
<g id="node12" class="node">
<title>Yellow zone Therapy control operator</title>
<polygon fill="#e0ddf4" stroke="black" points="688.5,-1184.3 410.5,-1184.3 410.5,-1148.3 688.5,-1148.3 688.5,-1184.3"/>
<text text-anchor="middle" x="549.5" y="-1162.6" font-family="Sans Not-Rotated 14" font-size="14.00">Yellow zone Therapy control operator</text>
</g>
<!-- Program change operator&#45;&gt;Yellow zone Therapy control operator -->
<g id="edge1" class="edge">
<title>Program change operator&#45;&gt;Yellow zone Therapy control operator</title>
<path fill="none" stroke="black" stroke-width="1.04" d="M178.27,-1244.57C257.01,-1228.18 375.88,-1203.44 457.8,-1186.39"/>
<polygon fill="black" stroke="black" stroke-width="1.04" points="458.52,-1189.81 467.6,-1184.35 457.09,-1182.96 458.52,-1189.81"/>
<text text-anchor="middle" x="347" y="-1215.4" font-family="Sans Not-Rotated 14" font-size="14.00"> &#160;&#160;&#160;</text>
</g>
<!-- Kit return nurse -->
<g id="node2" class="node">
<title>Kit return nurse</title>
<polygon fill="#ffffff" stroke="black" points="724.5,-131 596.5,-131 596.5,-95 724.5,-95 724.5,-131"/>
<text text-anchor="middle" x="660.5" y="-109.3" font-family="Sans Not-Rotated 14" font-size="14.00">Kit return nurse</text>
</g>
<!-- end -->
<g id="node19" class="node">
<title>end</title>
<ellipse fill="#ea4126" stroke="black" cx="660.5" cy="-22" rx="18" ry="18"/>
<ellipse fill="none" stroke="black" cx="660.5" cy="-22" rx="22" ry="22"/>
</g>
<!-- Kit return nurse&#45;&gt;end -->
<g id="edge26" class="edge">
<title>Kit return nurse&#45;&gt;end</title>
<path fill="none" stroke="black" stroke-dasharray="5,2" d="M660.5,-94.84C660.5,-83.44 660.5,-68.13 660.5,-54.58"/>
<polygon fill="black" stroke="black" points="664,-54.19 660.5,-44.19 657,-54.19 664,-54.19"/>
<text text-anchor="middle" x="670" y="-65.8" font-family="Sans Not-Rotated 14" font-size="14.00"> &#160;&#160;&#160;</text>
</g>
<!-- Red zone operator -->
<g id="node3" class="node">
<title>Red zone operator</title>
<polygon fill="#1d2559" stroke="black" points="373,-1088 228,-1088 228,-1052 373,-1052 373,-1088"/>
<text text-anchor="middle" x="300.5" y="-1066.3" font-family="Sans Not-Rotated 14" font-size="14.00" fill="white">Red zone operator</text>
</g>
<!-- Red zone doctor FD -->
<g id="node4" class="node">
<title>Red zone doctor FD</title>
<polygon fill="#1d2559" stroke="black" points="520,-914 367,-914 367,-878 520,-878 520,-914"/>
<text text-anchor="middle" x="443.5" y="-892.3" font-family="Sans Not-Rotated 14" font-size="14.00" fill="white">Red zone doctor FD</text>
</g>
<!-- Red zone operator&#45;&gt;Red zone doctor FD -->
<g id="edge10" class="edge">
<title>Red zone operator&#45;&gt;Red zone doctor FD</title>
<path fill="none" stroke="black" stroke-width="3.35" d="M355.71,-1051.99C381.14,-1041.34 409.41,-1024.99 426.5,-1001 442.37,-978.72 445.5,-946.98 445.36,-924.44"/>
<polygon fill="black" stroke="black" stroke-width="3.35" points="448.85,-924.09 445.07,-914.19 441.86,-924.29 448.85,-924.09"/>
<text text-anchor="middle" x="478" y="-979.3" font-family="Sans Not-Rotated 14" font-size="14.00"> &#160;&#160;&#160;&#160;&#160;&#160;&#160;&#160;&#160;&#160;&#160;&#160;&#160;&#160;&#160;</text>
</g>
<!-- Red zone doctor -->
<g id="node8" class="node">
<title>Red zone doctor</title>
<polygon fill="#1f3b98" stroke="black" points="303,-1001 174,-1001 174,-965 303,-965 303,-1001"/>
<text text-anchor="middle" x="238.5" y="-979.3" font-family="Sans Not-Rotated 14" font-size="14.00" fill="white">Red zone doctor</text>
</g>
<!-- Red zone operator&#45;&gt;Red zone doctor -->
<g id="edge14" class="edge">
<title>Red zone operator&#45;&gt;Red zone doctor</title>
<path fill="none" stroke="black" stroke-width="5" d="M227.66,-1056.8C203.45,-1051.16 180.78,-1043.55 173.5,-1034 165.59,-1023.61 171.69,-1014.25 182.78,-1006.51"/>
<polygon fill="black" stroke="black" stroke-width="5" points="185.32,-1010.09 191.61,-1001.17 180.79,-1002.6 185.32,-1010.09"/>
<text text-anchor="middle" x="210" y="-1022.8" font-family="Sans Not-Rotated 14" font-size="14.00"> &#160;&#160;&#160;&#160;&#160;&#160;&#160;&#160;&#160;&#160;&#160;&#160;&#160;&#160;&#160;</text>
</g>
<!-- Red zone doctor FD&#45;&gt;Red zone operator -->
<g id="edge7" class="edge">
<title>Red zone doctor FD&#45;&gt;Red zone operator</title>
<path fill="none" stroke="black" stroke-width="3.44" d="M412.09,-914.09C392.75,-926.05 368.81,-943.68 353.5,-965 334.65,-991.26 346.43,-1005.87 330.5,-1034 328.61,-1037.33 326.39,-1040.64 324.01,-1043.81"/>
<polygon fill="black" stroke="black" stroke-width="3.44" points="321.08,-1041.87 317.51,-1051.84 326.52,-1046.27 321.08,-1041.87"/>
<text text-anchor="middle" x="390" y="-979.3" font-family="Sans Not-Rotated 14" font-size="14.00"> &#160;&#160;&#160;&#160;&#160;&#160;&#160;&#160;&#160;&#160;&#160;&#160;&#160;&#160;&#160;</text>
</g>
<!-- Red zone doctor FD&#45;&gt;Red zone doctor FD -->
<g id="edge35" class="edge">
<title>Red zone doctor FD&#45;&gt;Red zone doctor FD</title>
<path fill="none" stroke="black" stroke-width="2.55" d="M520.25,-903.03C530.89,-901.87 538,-899.53 538,-896 538,-893.74 535.08,-891.97 530.19,-890.68"/>
<polygon fill="black" stroke="black" stroke-width="2.55" points="530.7,-887.22 520.25,-888.97 529.52,-894.12 530.7,-887.22"/>
<text text-anchor="middle" x="574.5" y="-892.3" font-family="Sans Not-Rotated 14" font-size="14.00"> &#160;&#160;&#160;&#160;&#160;&#160;&#160;&#160;&#160;&#160;&#160;&#160;&#160;&#160;&#160;</text>
</g>
<!-- Red zone measmissing operator -->
<g id="node5" class="node">
<title>Red zone measmissing operator</title>
<polygon fill="#ffffff" stroke="black" points="391.5,-827 155.5,-827 155.5,-791 391.5,-791 391.5,-827"/>
<text text-anchor="middle" x="273.5" y="-805.3" font-family="Sans Not-Rotated 14" font-size="14.00">Red zone measmissing operator</text>
</g>
<!-- Red zone doctor FD&#45;&gt;Red zone measmissing operator -->
<g id="edge11" class="edge">
<title>Red zone doctor FD&#45;&gt;Red zone measmissing operator</title>
<path fill="none" stroke="black" stroke-width="1" d="M409.1,-877.8C382.4,-864.45 345.22,-845.86 316.55,-831.52"/>
<polygon fill="black" stroke="black" stroke-width="1" points="318.07,-828.37 307.56,-827.03 314.94,-834.63 318.07,-828.37"/>
<text text-anchor="middle" x="372" y="-848.8" font-family="Sans Not-Rotated 14" font-size="14.00"> </text>
</g>
<!-- Red zone doctor FD&#45;&gt;Yellow zone Therapy control operator -->
<g id="edge17" class="edge">
<title>Red zone doctor FD&#45;&gt;Yellow zone Therapy control operator</title>
<path fill="none" stroke="black" stroke-width="1.22" d="M520.23,-904.71C536.81,-909.99 552.61,-918.48 563.5,-932 611.85,-992.04 580.72,-1091.46 561.46,-1138.74"/>
<polygon fill="black" stroke="black" stroke-width="1.22" points="558.21,-1137.43 557.56,-1148 564.66,-1140.14 558.21,-1137.43"/>
<text text-anchor="middle" x="610" y="-1022.8" font-family="Sans Not-Rotated 14" font-size="14.00"> &#160;&#160;&#160;&#160;&#160;&#160;&#160;&#160;</text>
</g>
<!-- Notification operator -->
<g id="node14" class="node">
<title>Notification operator</title>
<polygon fill="#1946ba" stroke="black" points="638,-653 479,-653 479,-617 638,-617 638,-653"/>
<text text-anchor="middle" x="558.5" y="-631.3" font-family="Sans Not-Rotated 14" font-size="14.00" fill="white">Notification operator</text>
</g>
<!-- Red zone doctor FD&#45;&gt;Notification operator -->
<g id="edge20" class="edge">
<title>Red zone doctor FD&#45;&gt;Notification operator</title>
<path fill="none" stroke="black" stroke-width="1.58" d="M502.81,-877.88C527.5,-867.44 553.61,-851.3 567.5,-827 597.13,-775.14 580.67,-701.83 568.26,-662.84"/>
<polygon fill="black" stroke="black" stroke-width="1.58" points="571.55,-661.63 565.07,-653.25 564.91,-663.84 571.55,-661.63"/>
<text text-anchor="middle" x="605" y="-761.8" font-family="Sans Not-Rotated 14" font-size="14.00"> &#160;&#160;&#160;&#160;&#160;&#160;&#160;&#160;</text>
</g>
<!-- Yellow zone doctor -->
<g id="node17" class="node">
<title>Yellow zone doctor</title>
<polygon fill="#7d7fd2" stroke="black" points="559,-827 410,-827 410,-791 559,-791 559,-827"/>
<text text-anchor="middle" x="484.5" y="-805.3" font-family="Sans Not-Rotated 14" font-size="14.00">Yellow zone doctor</text>
</g>
<!-- Red zone doctor FD&#45;&gt;Yellow zone doctor -->
<g id="edge23" class="edge">
<title>Red zone doctor FD&#45;&gt;Yellow zone doctor</title>
<path fill="none" stroke="black" stroke-width="2.06" d="M451.8,-877.8C457.52,-865.93 465.24,-849.93 471.74,-836.45"/>
<polygon fill="black" stroke="black" stroke-width="2.06" points="475.02,-837.7 476.22,-827.18 468.72,-834.66 475.02,-837.7"/>
<text text-anchor="middle" x="487" y="-848.8" font-family="Sans Not-Rotated 14" font-size="14.00"> &#160;&#160;&#160;&#160;&#160;&#160;&#160;&#160;</text>
</g>
<!-- Red zone measmissing operator&#45;&gt;Red zone doctor FD -->
<g id="edge27" class="edge">
<title>Red zone measmissing operator&#45;&gt;Red zone doctor FD</title>
<path fill="none" stroke="black" stroke-width="1" d="M292.58,-827.11C305.19,-837.72 322.47,-850.99 339.5,-860 349.83,-865.46 361.18,-870.32 372.46,-874.54"/>
<polygon fill="black" stroke="black" stroke-width="1" points="371.31,-877.84 381.91,-877.94 373.68,-871.26 371.31,-877.84"/>
<text text-anchor="middle" x="342" y="-848.8" font-family="Sans Not-Rotated 14" font-size="14.00"> </text>
</g>
<!-- Yellow zone doctor FD -->
<g id="node6" class="node">
<title>Yellow zone doctor FD</title>
<polygon fill="#5661c6" stroke="black" points="559,-740 386,-740 386,-704 559,-704 559,-740"/>
<text text-anchor="middle" x="472.5" y="-718.3" font-family="Sans Not-Rotated 14" font-size="14.00" fill="white">Yellow zone doctor FD</text>
</g>
<!-- Yellow zone doctor FD&#45;&gt;Program change operator -->
<g id="edge4" class="edge">
<title>Yellow zone doctor FD&#45;&gt;Program change operator</title>
<path fill="none" stroke="black" stroke-width="1.03" d="M385.85,-739.19C384.05,-739.47 382.27,-739.74 380.5,-740 377.68,-740.42 80.5,-744.33 80.5,-808 80.5,-1167.3 80.5,-1167.3 80.5,-1167.3 80.5,-1190.17 85.13,-1215.73 89.41,-1234.46"/>
<polygon fill="black" stroke="black" stroke-width="1.03" points="86.05,-1235.46 91.79,-1244.36 92.86,-1233.82 86.05,-1235.46"/>
<text text-anchor="middle" x="90" y="-979.3" font-family="Sans Not-Rotated 14" font-size="14.00"> &#160;&#160;&#160;</text>
</g>
<!-- Yellow zone doctor FD&#45;&gt;Red zone operator -->
<g id="edge28" class="edge">
<title>Yellow zone doctor FD&#45;&gt;Red zone operator</title>
<path fill="none" stroke="black" stroke-width="1.69" d="M385.6,-739.97C292.72,-758.28 157.27,-785.56 146.5,-791 136.39,-796.11 127.5,-796.67 127.5,-808 127.5,-984 127.5,-984 127.5,-984 127.5,-1028.1 173.34,-1049.32 217.83,-1059.53"/>
<polygon fill="black" stroke="black" stroke-width="1.69" points="217.38,-1063.01 227.88,-1061.67 218.83,-1056.17 217.38,-1063.01"/>
<text text-anchor="middle" x="148" y="-892.3" font-family="Sans Not-Rotated 14" font-size="14.00"> &#160;&#160;&#160;&#160;&#160;&#160;&#160;&#160;</text>
</g>
<!-- Yellow zone doctor FD&#45;&gt;Notification operator -->
<g id="edge19" class="edge">
<title>Yellow zone doctor FD&#45;&gt;Notification operator</title>
<path fill="none" stroke="black" stroke-width="1.95" d="M489.9,-703.8C502.49,-691.36 519.68,-674.36 533.71,-660.5"/>
<polygon fill="black" stroke="black" stroke-width="1.95" points="536.47,-662.69 541.12,-653.18 531.55,-657.72 536.47,-662.69"/>
<text text-anchor="middle" x="542" y="-674.8" font-family="Sans Not-Rotated 14" font-size="14.00"> &#160;&#160;&#160;&#160;&#160;&#160;&#160;&#160;</text>
</g>
<!-- Yellow zone doctor FD&#45;&gt;Yellow zone doctor -->
<g id="edge24" class="edge">
<title>Yellow zone doctor FD&#45;&gt;Yellow zone doctor</title>
<path fill="none" stroke="black" stroke-width="2.16" d="M474.92,-740.18C476.57,-751.81 478.77,-767.42 480.65,-780.73"/>
<polygon fill="black" stroke="black" stroke-width="2.16" points="477.21,-781.39 482.07,-790.8 484.14,-780.41 477.21,-781.39"/>
<text text-anchor="middle" x="516" y="-761.8" font-family="Sans Not-Rotated 14" font-size="14.00"> &#160;&#160;&#160;&#160;&#160;&#160;&#160;&#160;&#160;&#160;&#160;&#160;&#160;&#160;&#160;</text>
</g>
<!-- Monitoring completed doctor -->
<g id="node7" class="node">
<title>Monitoring completed doctor</title>
<polygon fill="#ffffff" stroke="black" points="812.5,-392 598.5,-392 598.5,-356 812.5,-356 812.5,-392"/>
<text text-anchor="middle" x="705.5" y="-370.3" font-family="Sans Not-Rotated 14" font-size="14.00">Monitoring completed doctor</text>
</g>
<!-- Monitoring completed doctor FD -->
<g id="node15" class="node">
<title>Monitoring completed doctor FD</title>
<polygon fill="#ffffff" stroke="black" points="824.5,-305 586.5,-305 586.5,-269 824.5,-269 824.5,-305"/>
<text text-anchor="middle" x="705.5" y="-283.3" font-family="Sans Not-Rotated 14" font-size="14.00">Monitoring completed doctor FD</text>
</g>
<!-- Monitoring completed doctor&#45;&gt;Monitoring completed doctor FD -->
<g id="edge22" class="edge">
<title>Monitoring completed doctor&#45;&gt;Monitoring completed doctor FD</title>
<path fill="none" stroke="black" stroke-width="1.02" d="M705.5,-355.8C705.5,-344.16 705.5,-328.55 705.5,-315.24"/>
<polygon fill="black" stroke="black" stroke-width="1.02" points="709,-315.18 705.5,-305.18 702,-315.18 709,-315.18"/>
<text text-anchor="middle" x="715" y="-326.8" font-family="Sans Not-Rotated 14" font-size="14.00"> &#160;&#160;&#160;</text>
</g>
<!-- Red zone doctor&#45;&gt;Red zone operator -->
<g id="edge6" class="edge">
<title>Red zone doctor&#45;&gt;Red zone operator</title>
<path fill="none" stroke="black" stroke-width="3.47" d="M242.64,-1001.3C245.64,-1011.47 250.43,-1024.21 257.5,-1034 260.31,-1037.89 263.66,-1041.6 267.23,-1045.04"/>
<polygon fill="black" stroke="black" stroke-width="3.47" points="264.95,-1047.7 274.76,-1051.71 269.59,-1042.46 264.95,-1047.7"/>
<text text-anchor="middle" x="294" y="-1022.8" font-family="Sans Not-Rotated 14" font-size="14.00"> &#160;&#160;&#160;&#160;&#160;&#160;&#160;&#160;&#160;&#160;&#160;&#160;&#160;&#160;&#160;</text>
</g>
<!-- Red zone doctor&#45;&gt;Red zone doctor FD -->
<g id="edge9" class="edge">
<title>Red zone doctor&#45;&gt;Red zone doctor FD</title>
<path fill="none" stroke="black" stroke-width="3.51" d="M238.87,-964.79C240.06,-953.86 243.44,-940.26 252.5,-932 268.07,-917.8 313.98,-909.12 356.88,-903.96"/>
<polygon fill="black" stroke="black" stroke-width="3.51" points="357.3,-907.43 366.84,-902.82 356.51,-900.48 357.3,-907.43"/>
<text text-anchor="middle" x="289" y="-935.8" font-family="Sans Not-Rotated 14" font-size="14.00"> &#160;&#160;&#160;&#160;&#160;&#160;&#160;&#160;&#160;&#160;&#160;&#160;&#160;&#160;&#160;</text>
</g>
<!-- Target levels achieved doctor -->
<g id="node9" class="node">
<title>Target levels achieved doctor</title>
<polygon fill="#ffffff" stroke="black" points="530,-566 311,-566 311,-530 530,-530 530,-566"/>
<text text-anchor="middle" x="420.5" y="-544.3" font-family="Sans Not-Rotated 14" font-size="14.00">Target levels achieved doctor</text>
</g>
<!-- Target levels achieved doctor FD -->
<g id="node10" class="node">
<title>Target levels achieved doctor FD</title>
<polygon fill="#ffffff" stroke="black" points="476,-479 233,-479 233,-443 476,-443 476,-479"/>
<text text-anchor="middle" x="354.5" y="-457.3" font-family="Sans Not-Rotated 14" font-size="14.00">Target levels achieved doctor FD</text>
</g>
<!-- Target levels achieved doctor&#45;&gt;Target levels achieved doctor FD -->
<g id="edge16" class="edge">
<title>Target levels achieved doctor&#45;&gt;Target levels achieved doctor FD</title>
<path fill="none" stroke="black" stroke-width="1" d="M407.14,-529.8C397.66,-517.59 384.78,-500.99 374.13,-487.28"/>
<polygon fill="black" stroke="black" stroke-width="1" points="376.73,-484.93 367.84,-479.18 371.2,-489.22 376.73,-484.93"/>
<text text-anchor="middle" x="394" y="-500.8" font-family="Sans Not-Rotated 14" font-size="14.00"> </text>
</g>
<!-- Target levels achieved doctor FD&#45;&gt;Notification operator -->
<g id="edge29" class="edge">
<title>Target levels achieved doctor FD&#45;&gt;Notification operator</title>
<path fill="none" stroke="black" stroke-width="1" d="M332.84,-479.16C308.4,-500.6 274.74,-537.87 296.5,-566 317.7,-593.4 401.38,-611.79 468.54,-622.47"/>
<polygon fill="black" stroke="black" stroke-width="1" points="468.32,-625.98 478.74,-624.05 469.4,-619.06 468.32,-625.98"/>
<text text-anchor="middle" x="299" y="-544.3" font-family="Sans Not-Rotated 14" font-size="14.00"> </text>
</g>
<!-- Kit return operator -->
<g id="node11" class="node">
<title>Kit return operator</title>
<polygon fill="#ffffff" stroke="black" points="734.5,-218 586.5,-218 586.5,-182 734.5,-182 734.5,-218"/>
<text text-anchor="middle" x="660.5" y="-196.3" font-family="Sans Not-Rotated 14" font-size="14.00">Kit return operator</text>
</g>
<!-- Kit return operator&#45;&gt;Kit return nurse -->
<g id="edge5" class="edge">
<title>Kit return operator&#45;&gt;Kit return nurse</title>
<path fill="none" stroke="black" stroke-width="1" d="M660.5,-181.8C660.5,-170.16 660.5,-154.55 660.5,-141.24"/>
<polygon fill="black" stroke="black" stroke-width="1" points="664,-141.18 660.5,-131.18 657,-141.18 664,-141.18"/>
<text text-anchor="middle" x="663" y="-152.8" font-family="Sans Not-Rotated 14" font-size="14.00"> </text>
</g>
<!-- Yellow zone Therapy control operator&#45;&gt;Red zone operator -->
<g id="edge30" class="edge">
<title>Yellow zone Therapy control operator&#45;&gt;Red zone operator</title>
<path fill="none" stroke="black" stroke-width="1.17" d="M504.41,-1148.22C462.5,-1132.35 399.98,-1108.67 355.23,-1091.72"/>
<polygon fill="black" stroke="black" stroke-width="1.17" points="356.27,-1088.38 345.68,-1088.11 353.79,-1094.92 356.27,-1088.38"/>
<text text-anchor="middle" x="453" y="-1109.8" font-family="Sans Not-Rotated 14" font-size="14.00"> &#160;&#160;&#160;&#160;&#160;&#160;&#160;&#160;</text>
</g>
<!-- Yellow zone Therapy control operator&#45;&gt;Red zone doctor FD -->
<g id="edge32" class="edge">
<title>Yellow zone Therapy control operator&#45;&gt;Red zone doctor FD</title>
<path fill="none" stroke="black" stroke-width="1.09" d="M550.54,-1148.29C552.01,-1112.18 551.45,-1026.19 518.5,-965 509.01,-947.37 493.12,-931.97 478.4,-920.3"/>
<polygon fill="black" stroke="black" stroke-width="1.09" points="480.47,-917.48 470.39,-914.21 476.23,-923.05 480.47,-917.48"/>
<text text-anchor="middle" x="552" y="-1022.8" font-family="Sans Not-Rotated 14" font-size="14.00"> &#160;&#160;&#160;</text>
</g>
<!-- Yellow zone Therapy control operator&#45;&gt;Notification operator -->
<g id="edge31" class="edge">
<title>Yellow zone Therapy control operator&#45;&gt;Notification operator</title>
<path fill="none" stroke="black" stroke-width="1.12" d="M586.27,-1148.24C614.08,-1132.53 647.5,-1106.3 647.5,-1071 647.5,-1071 647.5,-1071 647.5,-721 647.5,-693.93 625.71,-672.84 603.69,-658.44"/>
<polygon fill="black" stroke="black" stroke-width="1.12" points="605.31,-655.32 594.96,-653.05 601.63,-661.28 605.31,-655.32"/>
<text text-anchor="middle" x="668" y="-892.3" font-family="Sans Not-Rotated 14" font-size="14.00"> &#160;&#160;&#160;&#160;&#160;&#160;&#160;&#160;</text>
</g>
<!-- Meas missing operator -->
<g id="node13" class="node">
<title>Meas missing operator</title>
<polygon fill="#a09dde" stroke="black" points="758,-566 587,-566 587,-530 758,-530 758,-566"/>
<text text-anchor="middle" x="672.5" y="-544.3" font-family="Sans Not-Rotated 14" font-size="14.00">Meas missing operator</text>
</g>
<!-- Meas missing doctor -->
<g id="node16" class="node">
<title>Meas missing doctor</title>
<polygon fill="#c0bde9" stroke="black" points="783,-479 628,-479 628,-443 783,-443 783,-479"/>
<text text-anchor="middle" x="705.5" y="-457.3" font-family="Sans Not-Rotated 14" font-size="14.00">Meas missing doctor</text>
</g>
<!-- Meas missing operator&#45;&gt;Meas missing doctor -->
<g id="edge2" class="edge">
<title>Meas missing operator&#45;&gt;Meas missing doctor</title>
<path fill="none" stroke="black" stroke-width="2.59" d="M679.18,-529.8C683.74,-518.05 689.88,-502.24 695.08,-488.84"/>
<polygon fill="black" stroke="black" stroke-width="2.59" points="698.48,-489.76 698.83,-479.18 691.95,-487.23 698.48,-489.76"/>
<text text-anchor="middle" x="727" y="-500.8" font-family="Sans Not-Rotated 14" font-size="14.00"> &#160;&#160;&#160;&#160;&#160;&#160;&#160;&#160;&#160;&#160;&#160;&#160;&#160;&#160;&#160;</text>
</g>
<!-- Notification operator&#45;&gt;Target levels achieved doctor -->
<g id="edge15" class="edge">
<title>Notification operator&#45;&gt;Target levels achieved doctor</title>
<path fill="none" stroke="black" d="M530.57,-616.8C509.44,-603.78 480.22,-585.78 457.19,-571.6"/>
<polygon fill="black" stroke="black" points="458.73,-568.44 448.38,-566.18 455.06,-574.4 458.73,-568.44"/>
<text text-anchor="middle" x="501" y="-587.8" font-family="Sans Not-Rotated 14" font-size="14.00"> </text>
</g>
<!-- Notification operator&#45;&gt;Meas missing operator -->
<g id="edge18" class="edge">
<title>Notification operator&#45;&gt;Meas missing operator</title>
<path fill="none" stroke="black" stroke-width="2.77" d="M581.57,-616.8C598.8,-603.95 622.53,-586.26 641.43,-572.17"/>
<polygon fill="black" stroke="black" stroke-width="2.77" points="643.54,-574.96 649.46,-566.18 639.36,-569.35 643.54,-574.96"/>
<text text-anchor="middle" x="659" y="-587.8" font-family="Sans Not-Rotated 14" font-size="14.00"> &#160;&#160;&#160;&#160;&#160;&#160;&#160;&#160;&#160;&#160;&#160;&#160;&#160;&#160;&#160;</text>
</g>
<!-- Notification operator&#45;&gt;Yellow zone doctor -->
<g id="edge33" class="edge">
<title>Notification operator&#45;&gt;Yellow zone doctor</title>
<path fill="none" stroke="black" stroke-width="1.69" d="M478.93,-649.97C422.19,-661.73 352.96,-680.42 335.5,-704 307.94,-741.21 360.98,-769.94 411.24,-787.69"/>
<polygon fill="black" stroke="black" stroke-width="1.69" points="410.31,-791.06 420.9,-790.98 412.57,-784.44 410.31,-791.06"/>
<text text-anchor="middle" x="356" y="-718.3" font-family="Sans Not-Rotated 14" font-size="14.00"> &#160;&#160;&#160;&#160;&#160;&#160;&#160;&#160;</text>
</g>
<!-- Notification operator&#45;&gt;end -->
<g id="edge25" class="edge">
<title>Notification operator&#45;&gt;end</title>
<path fill="none" stroke="black" stroke-dasharray="5,2" d="M558.5,-616.74C558.5,-599.57 558.5,-572.46 558.5,-549 558.5,-549 558.5,-549 558.5,-112 558.5,-73.4 600.48,-47.7 630.57,-34.23"/>
<polygon fill="black" stroke="black" points="632.02,-37.42 639.86,-30.29 629.29,-30.98 632.02,-37.42"/>
<text text-anchor="middle" x="579" y="-326.8" font-family="Sans Not-Rotated 14" font-size="14.00"> &#160;&#160;&#160;&#160;&#160;&#160;&#160;&#160;</text>
</g>
<!-- Monitoring completed doctor FD&#45;&gt;Kit return operator -->
<g id="edge3" class="edge">
<title>Monitoring completed doctor FD&#45;&gt;Kit return operator</title>
<path fill="none" stroke="black" stroke-width="1" d="M696.39,-268.8C690.05,-256.82 681.47,-240.62 674.29,-227.06"/>
<polygon fill="black" stroke="black" stroke-width="1" points="677.37,-225.38 669.59,-218.18 671.18,-228.65 677.37,-225.38"/>
<text text-anchor="middle" x="688" y="-239.8" font-family="Sans Not-Rotated 14" font-size="14.00"> </text>
</g>
<!-- Monitoring completed doctor FD&#45;&gt;end -->
<g id="edge34" class="edge">
<title>Monitoring completed doctor FD&#45;&gt;end</title>
<path fill="none" stroke="black" stroke-dasharray="5,2" d="M718.33,-268.89C727.34,-255.74 738.63,-236.71 743.5,-218 751.22,-188.36 737.12,-102.43 733.5,-95 722.88,-73.2 702.88,-54.21 686.5,-41.21"/>
<polygon fill="black" stroke="black" points="688.41,-38.26 678.33,-34.98 684.16,-43.83 688.41,-38.26"/>
<text text-anchor="middle" x="753" y="-152.8" font-family="Sans Not-Rotated 14" font-size="14.00"> &#160;&#160;&#160;</text>
</g>
<!-- Meas missing doctor&#45;&gt;Monitoring completed doctor -->
<g id="edge13" class="edge">
<title>Meas missing doctor&#45;&gt;Monitoring completed doctor</title>
<path fill="none" stroke="black" stroke-width="1.01" d="M705.5,-442.8C705.5,-431.16 705.5,-415.55 705.5,-402.24"/>
<polygon fill="black" stroke="black" stroke-width="1.01" points="709,-402.18 705.5,-392.18 702,-402.18 709,-402.18"/>
<text text-anchor="middle" x="715" y="-413.8" font-family="Sans Not-Rotated 14" font-size="14.00"> &#160;&#160;&#160;</text>
</g>
<!-- Meas missing doctor&#45;&gt;Notification operator -->
<g id="edge21" class="edge">
<title>Meas missing doctor&#45;&gt;Notification operator</title>
<path fill="none" stroke="black" stroke-width="2.15" d="M749.84,-479.16C756.9,-483.87 763.26,-489.74 767.5,-497 782.96,-523.48 783.78,-540.01 767.5,-566 754.09,-587.41 698.63,-604.87 648.21,-616.73"/>
<polygon fill="black" stroke="black" stroke-width="2.15" points="647.17,-613.38 638.21,-619.03 648.74,-620.2 647.17,-613.38"/>
<text text-anchor="middle" x="815" y="-544.3" font-family="Sans Not-Rotated 14" font-size="14.00"> &#160;&#160;&#160;&#160;&#160;&#160;&#160;&#160;&#160;&#160;&#160;&#160;&#160;&#160;&#160;</text>
</g>
<!-- Yellow zone doctor&#45;&gt;Yellow zone doctor FD -->
<g id="edge12" class="edge">
<title>Yellow zone doctor&#45;&gt;Yellow zone doctor FD</title>
<path fill="none" stroke="black" stroke-width="3.63" d="M413.17,-790.83C405.46,-786.23 398.58,-780.4 393.5,-773 385.66,-761.59 391.82,-752.23 403.52,-744.82"/>
<polygon fill="black" stroke="black" stroke-width="3.63" points="405.28,-747.85 412.4,-740 401.94,-741.69 405.28,-747.85"/>
<text text-anchor="middle" x="430" y="-761.8" font-family="Sans Not-Rotated 14" font-size="14.00"> &#160;&#160;&#160;&#160;&#160;&#160;&#160;&#160;&#160;&#160;&#160;&#160;&#160;&#160;&#160;</text>
</g>
<!-- start -->
<g id="node18" class="node">
<title>start</title>
<ellipse fill="#95d600" stroke="black" cx="300.5" cy="-1166.3" rx="27.1" ry="27.1"/>
<text text-anchor="middle" x="300.5" y="-1162.6" font-family="Sans Not-Rotated 14" font-size="14.00">start</text>
</g>
<!-- start&#45;&gt;Red zone operator -->
<g id="edge8" class="edge">
<title>start&#45;&gt;Red zone operator</title>
<path fill="none" stroke="black" stroke-dasharray="5,2" d="M300.5,-1138.78C300.5,-1126.1 300.5,-1110.93 300.5,-1098.17"/>
<polygon fill="black" stroke="black" points="304,-1098.12 300.5,-1088.12 297,-1098.12 304,-1098.12"/>
<text text-anchor="middle" x="321" y="-1109.8" font-family="Sans Not-Rotated 14" font-size="14.00"> &#160;&#160;&#160;&#160;&#160;&#160;&#160;&#160;</text>
</g>
</g>
</svg>
