<?xml version="1.0" encoding="UTF-8" standalone="no"?>
<!DOCTYPE svg PUBLIC "-//W3C//DTD SVG 1.1//EN"
 "http://www.w3.org/Graphics/SVG/1.1/DTD/svg11.dtd">
<!-- Generated by graphviz version 3.0.0 (20220226.1711)
 -->
<!-- Pages: 1 -->
<svg width="1538pt" height="1289pt"
 viewBox="0.00 0.00 1538.00 1288.60" xmlns="http://www.w3.org/2000/svg" xmlns:xlink="http://www.w3.org/1999/xlink">
<g id="graph0" class="graph" transform="scale(1 1) rotate(0) translate(4 1284.6)">
<polygon fill="white" stroke="transparent" points="-4,4 -4,-1284.6 1534,-1284.6 1534,4 -4,4"/>
<!-- Program change operator -->
<g id="node1" class="node">
<title>Program change operator</title>
<polygon fill="#ffffff" stroke="black" points="1452.5,-1280.6 1259.5,-1280.6 1259.5,-1244.6 1452.5,-1244.6 1452.5,-1280.6"/>
<text text-anchor="middle" x="1356" y="-1258.9" font-family="Sans Not-Rotated 14" font-size="14.00">Program change operator</text>
</g>
<!-- Yellow zone Therapy control operator -->
<g id="node12" class="node">
<title>Yellow zone Therapy control operator</title>
<polygon fill="#e0ddf4" stroke="black" points="1022,-1184.3 744,-1184.3 744,-1148.3 1022,-1148.3 1022,-1184.3"/>
<text text-anchor="middle" x="883" y="-1162.6" font-family="Sans Not-Rotated 14" font-size="14.00">Yellow zone Therapy control operator</text>
</g>
<!-- Program change operator&#45;&gt;Yellow zone Therapy control operator -->
<g id="edge1" class="edge">
<title>Program change operator&#45;&gt;Yellow zone Therapy control operator</title>
<path fill="none" stroke="black" stroke-width="1.04" d="M1270.62,-1244.57C1188.32,-1228.17 1064.03,-1203.39 978.49,-1186.34"/>
<polygon fill="black" stroke="black" stroke-width="1.04" points="979.01,-1182.87 968.52,-1184.35 977.64,-1189.73 979.01,-1182.87"/>
<text text-anchor="middle" x="1185.5" y="-1215.4" font-family="Sans Not-Rotated 14" font-size="14.00"> &#160;&#160;&#160;</text>
</g>
<!-- Kit return nurse -->
<g id="node2" class="node">
<title>Kit return nurse</title>
<polygon fill="#ffffff" stroke="black" points="197,-131 69,-131 69,-95 197,-95 197,-131"/>
<text text-anchor="middle" x="133" y="-109.3" font-family="Sans Not-Rotated 14" font-size="14.00">Kit return nurse</text>
</g>
<!-- end -->
<g id="node19" class="node">
<title>end</title>
<ellipse fill="#ea4126" stroke="black" cx="70" cy="-22" rx="18" ry="18"/>
<ellipse fill="none" stroke="black" cx="70" cy="-22" rx="22" ry="22"/>
</g>
<!-- Kit return nurse&#45;&gt;end -->
<g id="edge48" class="edge">
<title>Kit return nurse&#45;&gt;end</title>
<path fill="none" stroke="black" stroke-dasharray="5,2" d="M120.85,-94.84C111.59,-81.75 98.67,-63.51 88.18,-48.68"/>
<polygon fill="black" stroke="black" points="90.96,-46.55 82.32,-40.41 85.25,-50.6 90.96,-46.55"/>
<text text-anchor="middle" x="117.5" y="-65.8" font-family="Sans Not-Rotated 14" font-size="14.00"> &#160;&#160;&#160;</text>
</g>
<!-- Red zone operator -->
<g id="node3" class="node">
<title>Red zone operator</title>
<polygon fill="#1d2559" stroke="black" points="1087.5,-1088 942.5,-1088 942.5,-1052 1087.5,-1052 1087.5,-1088"/>
<text text-anchor="middle" x="1015" y="-1066.3" font-family="Sans Not-Rotated 14" font-size="14.00" fill="white">Red zone operator</text>
</g>
<!-- Red zone operator&#45;&gt;Red zone operator -->
<g id="edge65" class="edge">
<title>Red zone operator&#45;&gt;Red zone operator</title>
<path fill="none" stroke="black" stroke-width="1.53" d="M1087.79,-1077.11C1098.37,-1075.98 1105.5,-1073.61 1105.5,-1070 1105.5,-1067.69 1102.57,-1065.88 1097.69,-1064.59"/>
<polygon fill="black" stroke="black" stroke-width="1.53" points="1098.24,-1061.13 1087.79,-1062.89 1097.05,-1068.03 1098.24,-1061.13"/>
<text text-anchor="middle" x="1126" y="-1066.3" font-family="Sans Not-Rotated 14" font-size="14.00"> &#160;&#160;&#160;&#160;&#160;&#160;&#160;&#160;</text>
</g>
<!-- Red zone doctor FD -->
<g id="node4" class="node">
<title>Red zone doctor FD</title>
<polygon fill="#1d2559" stroke="black" points="980.5,-1001 827.5,-1001 827.5,-965 980.5,-965 980.5,-1001"/>
<text text-anchor="middle" x="904" y="-979.3" font-family="Sans Not-Rotated 14" font-size="14.00" fill="white">Red zone doctor FD</text>
</g>
<!-- Red zone operator&#45;&gt;Red zone doctor FD -->
<g id="edge14" class="edge">
<title>Red zone operator&#45;&gt;Red zone doctor FD</title>
<path fill="none" stroke="black" stroke-width="3.35" d="M942.36,-1054.93C931.24,-1049.93 920.86,-1043.16 913,-1034 907.59,-1027.69 904.94,-1019.26 903.76,-1011.11"/>
<polygon fill="black" stroke="black" stroke-width="3.35" points="907.24,-1010.81 902.94,-1001.13 900.27,-1011.38 907.24,-1010.81"/>
<text text-anchor="middle" x="949.5" y="-1022.8" font-family="Sans Not-Rotated 14" font-size="14.00"> &#160;&#160;&#160;&#160;&#160;&#160;&#160;&#160;&#160;&#160;&#160;&#160;&#160;&#160;&#160;</text>
</g>
<!-- Red zone measmissing operator -->
<g id="node5" class="node">
<title>Red zone measmissing operator</title>
<polygon fill="#ffffff" stroke="black" points="1304,-566 1068,-566 1068,-530 1304,-530 1304,-566"/>
<text text-anchor="middle" x="1186" y="-544.3" font-family="Sans Not-Rotated 14" font-size="14.00">Red zone measmissing operator</text>
</g>
<!-- Red zone operator&#45;&gt;Red zone measmissing operator -->
<g id="edge18" class="edge">
<title>Red zone operator&#45;&gt;Red zone measmissing operator</title>
<path fill="none" stroke="black" stroke-width="1" d="M1056.58,-1052C1069.61,-1046.47 1083.99,-1040.16 1097,-1034 1156.82,-1005.65 1166.91,-987.96 1229,-965 1323.55,-930.03 1374.18,-980.42 1450,-914 1487.13,-881.47 1489,-859.37 1489,-810 1489,-810 1489,-810 1489,-634 1489,-595.41 1396.75,-573.53 1314.05,-561.66"/>
<polygon fill="black" stroke="black" stroke-width="1" points="1314.4,-558.18 1304.02,-560.27 1313.44,-565.11 1314.4,-558.18"/>
<text text-anchor="middle" x="1491.5" y="-805.3" font-family="Sans Not-Rotated 14" font-size="14.00"> </text>
</g>
<!-- Red zone doctor -->
<g id="node8" class="node">
<title>Red zone doctor</title>
<polygon fill="#1f3b98" stroke="black" points="1278.5,-653 1149.5,-653 1149.5,-617 1278.5,-617 1278.5,-653"/>
<text text-anchor="middle" x="1214" y="-631.3" font-family="Sans Not-Rotated 14" font-size="14.00" fill="white">Red zone doctor</text>
</g>
<!-- Red zone operator&#45;&gt;Red zone doctor -->
<g id="edge26" class="edge">
<title>Red zone operator&#45;&gt;Red zone doctor</title>
<path fill="none" stroke="black" stroke-width="5" d="M1087.67,-1063.89C1137.82,-1059.02 1198.93,-1049.98 1219,-1034 1290.23,-977.29 1248.38,-921.33 1298,-845 1304,-835.77 1310.93,-837.23 1315,-827 1342.5,-757.82 1301.23,-728.55 1254,-671 1250.94,-667.27 1247.47,-663.61 1243.87,-660.14"/>
<polygon fill="black" stroke="black" stroke-width="5" points="1246.75,-656.84 1236.41,-653.33 1240.85,-663.3 1246.75,-656.84"/>
<text text-anchor="middle" x="1334.5" y="-848.8" font-family="Sans Not-Rotated 14" font-size="14.00"> &#160;&#160;&#160;&#160;&#160;&#160;&#160;&#160;&#160;&#160;&#160;&#160;&#160;&#160;&#160;</text>
</g>
<!-- Red zone operator&#45;&gt;Yellow zone Therapy control operator -->
<g id="edge32" class="edge">
<title>Red zone operator&#45;&gt;Yellow zone Therapy control operator</title>
<path fill="none" stroke="black" stroke-width="1.06" d="M986.43,-1088.06C977.52,-1093.6 967.74,-1099.89 959,-1106 942.95,-1117.23 925.69,-1130.58 911.69,-1141.77"/>
<polygon fill="black" stroke="black" stroke-width="1.06" points="909.45,-1139.09 903.85,-1148.08 913.83,-1144.54 909.45,-1139.09"/>
<text text-anchor="middle" x="968.5" y="-1109.8" font-family="Sans Not-Rotated 14" font-size="14.00"> &#160;&#160;&#160;</text>
</g>
<!-- Yellow zone doctor -->
<g id="node17" class="node">
<title>Yellow zone doctor</title>
<polygon fill="#7d7fd2" stroke="black" points="766.5,-914 617.5,-914 617.5,-878 766.5,-878 766.5,-914"/>
<text text-anchor="middle" x="692" y="-892.3" font-family="Sans Not-Rotated 14" font-size="14.00">Yellow zone doctor</text>
</g>
<!-- Red zone operator&#45;&gt;Yellow zone doctor -->
<g id="edge46" class="edge">
<title>Red zone operator&#45;&gt;Yellow zone doctor</title>
<path fill="none" stroke="black" stroke-width="1.22" d="M947.58,-1051.94C882.42,-1035.1 791.49,-1010.54 777,-1001 746.56,-980.97 721.61,-946.65 706.79,-922.94"/>
<polygon fill="black" stroke="black" stroke-width="1.22" points="709.62,-920.85 701.44,-914.12 703.63,-924.48 709.62,-920.85"/>
<text text-anchor="middle" x="797.5" y="-979.3" font-family="Sans Not-Rotated 14" font-size="14.00"> &#160;&#160;&#160;&#160;&#160;&#160;&#160;&#160;</text>
</g>
<!-- Red zone doctor FD&#45;&gt;Program change operator -->
<g id="edge5" class="edge">
<title>Red zone doctor FD&#45;&gt;Program change operator</title>
<path fill="none" stroke="black" stroke-width="1.01" d="M980.75,-988.48C1078.23,-998.63 1243.88,-1031.66 1328,-1139 1349.42,-1166.34 1355.03,-1207.04 1356.21,-1233.94"/>
<polygon fill="black" stroke="black" stroke-width="1.01" points="1352.72,-1234.3 1356.47,-1244.2 1359.72,-1234.12 1352.72,-1234.3"/>
<text text-anchor="middle" x="1319.5" y="-1109.8" font-family="Sans Not-Rotated 14" font-size="14.00"> &#160;&#160;&#160;</text>
</g>
<!-- Red zone doctor FD&#45;&gt;Red zone operator -->
<g id="edge8" class="edge">
<title>Red zone doctor FD&#45;&gt;Red zone operator</title>
<path fill="none" stroke="black" stroke-width="3.44" d="M962.45,-1001.07C972.41,-1005.77 982.07,-1011.66 990,-1019 996.86,-1025.35 1002.1,-1034 1005.96,-1042.32"/>
<polygon fill="black" stroke="black" stroke-width="3.44" points="1002.82,-1043.88 1009.88,-1051.78 1009.28,-1041.2 1002.82,-1043.88"/>
<text text-anchor="middle" x="1038.5" y="-1022.8" font-family="Sans Not-Rotated 14" font-size="14.00"> &#160;&#160;&#160;&#160;&#160;&#160;&#160;&#160;&#160;&#160;&#160;&#160;&#160;&#160;&#160;</text>
</g>
<!-- Red zone doctor FD&#45;&gt;Red zone doctor FD -->
<g id="edge66" class="edge">
<title>Red zone doctor FD&#45;&gt;Red zone doctor FD</title>
<path fill="none" stroke="black" stroke-width="2.56" d="M980.75,-990.03C991.39,-988.87 998.5,-986.53 998.5,-983 998.5,-980.74 995.58,-978.97 990.69,-977.68"/>
<polygon fill="black" stroke="black" stroke-width="2.56" points="991.2,-974.22 980.75,-975.97 990.02,-981.12 991.2,-974.22"/>
<text text-anchor="middle" x="1035" y="-979.3" font-family="Sans Not-Rotated 14" font-size="14.00"> &#160;&#160;&#160;&#160;&#160;&#160;&#160;&#160;&#160;&#160;&#160;&#160;&#160;&#160;&#160;</text>
</g>
<!-- Red zone doctor FD&#45;&gt;Red zone measmissing operator -->
<g id="edge17" class="edge">
<title>Red zone doctor FD&#45;&gt;Red zone measmissing operator</title>
<path fill="none" stroke="black" stroke-width="1" d="M980.8,-973.32C1018.18,-967.68 1058.04,-959.09 1072,-947 1105.09,-918.35 1100,-881 1100,-766.5 1100,-766.5 1100,-766.5 1100,-634 1100,-607.31 1121.21,-586.17 1142.56,-571.65"/>
<polygon fill="black" stroke="black" stroke-width="1" points="1144.5,-574.56 1151.02,-566.21 1140.71,-568.67 1144.5,-574.56"/>
<text text-anchor="middle" x="1103.5" y="-761.8" font-family="Sans Not-Rotated 14" font-size="14.00"> </text>
</g>
<!-- Yellow zone doctor FD -->
<g id="node6" class="node">
<title>Yellow zone doctor FD</title>
<polygon fill="#5661c6" stroke="black" points="1030.5,-740 857.5,-740 857.5,-704 1030.5,-704 1030.5,-740"/>
<text text-anchor="middle" x="944" y="-718.3" font-family="Sans Not-Rotated 14" font-size="14.00" fill="white">Yellow zone doctor FD</text>
</g>
<!-- Red zone doctor FD&#45;&gt;Yellow zone doctor FD -->
<g id="edge21" class="edge">
<title>Red zone doctor FD&#45;&gt;Yellow zone doctor FD</title>
<path fill="none" stroke="black" stroke-width="1.5" d="M911.42,-964.82C926.03,-929.63 957.58,-846.51 963,-773 963.49,-766.35 964.64,-764.46 963,-758 962.24,-755.01 961.17,-752.01 959.92,-749.08"/>
<polygon fill="black" stroke="black" stroke-width="1.5" points="963.05,-747.51 955.47,-740.1 956.78,-750.61 963.05,-747.51"/>
<text text-anchor="middle" x="972.5" y="-848.8" font-family="Sans Not-Rotated 14" font-size="14.00"> &#160;&#160;&#160;&#160;&#160;&#160;&#160;&#160;</text>
</g>
<!-- Red zone doctor FD&#45;&gt;Red zone doctor -->
<g id="edge27" class="edge">
<title>Red zone doctor FD&#45;&gt;Red zone doctor</title>
<path fill="none" stroke="black" stroke-width="1.73" d="M980.63,-976.06C1039.49,-970.53 1115.25,-961.01 1143,-947 1210.05,-913.15 1233.4,-896.45 1262,-827 1285.34,-770.31 1252.44,-699.33 1230.63,-661.89"/>
<polygon fill="black" stroke="black" stroke-width="1.73" points="1233.51,-659.9 1225.36,-653.13 1227.51,-663.5 1233.51,-659.9"/>
<text text-anchor="middle" x="1290.5" y="-805.3" font-family="Sans Not-Rotated 14" font-size="14.00"> &#160;&#160;&#160;&#160;&#160;&#160;&#160;&#160;</text>
</g>
<!-- Red zone doctor FD&#45;&gt;Yellow zone Therapy control operator -->
<g id="edge31" class="edge">
<title>Red zone doctor FD&#45;&gt;Yellow zone Therapy control operator</title>
<path fill="none" stroke="black" stroke-width="1.22" d="M900.48,-1001.26C897.81,-1014.96 894.22,-1034.64 892,-1052 888.27,-1081.23 885.83,-1114.92 884.44,-1137.91"/>
<polygon fill="black" stroke="black" stroke-width="1.22" points="880.94,-1137.78 883.86,-1147.97 887.93,-1138.19 880.94,-1137.78"/>
<text text-anchor="middle" x="912.5" y="-1066.3" font-family="Sans Not-Rotated 14" font-size="14.00"> &#160;&#160;&#160;&#160;&#160;&#160;&#160;&#160;</text>
</g>
<!-- Notification operator -->
<g id="node14" class="node">
<title>Notification operator</title>
<polygon fill="#1946ba" stroke="black" points="520.5,-827 361.5,-827 361.5,-791 520.5,-791 520.5,-827"/>
<text text-anchor="middle" x="441" y="-805.3" font-family="Sans Not-Rotated 14" font-size="14.00" fill="white">Notification operator</text>
</g>
<!-- Red zone doctor FD&#45;&gt;Notification operator -->
<g id="edge37" class="edge">
<title>Red zone doctor FD&#45;&gt;Notification operator</title>
<path fill="none" stroke="black" stroke-width="1.58" d="M827.18,-966.06C825.44,-965.7 823.71,-965.35 822,-965 708.75,-941.94 672.02,-962.26 567,-914 525.6,-894.98 486.55,-858.89 463.2,-834.63"/>
<polygon fill="black" stroke="black" stroke-width="1.58" points="465.6,-832.07 456.19,-827.21 460.51,-836.88 465.6,-832.07"/>
<text text-anchor="middle" x="587.5" y="-892.3" font-family="Sans Not-Rotated 14" font-size="14.00"> &#160;&#160;&#160;&#160;&#160;&#160;&#160;&#160;</text>
</g>
<!-- Red zone doctor FD&#45;&gt;Yellow zone doctor -->
<g id="edge42" class="edge">
<title>Red zone doctor FD&#45;&gt;Yellow zone doctor</title>
<path fill="none" stroke="black" stroke-width="2.06" d="M827.19,-968.95C805.22,-963.7 781.64,-956.56 761,-947 746.17,-940.13 731.28,-929.88 719.15,-920.44"/>
<polygon fill="black" stroke="black" stroke-width="2.06" points="721.23,-917.61 711.23,-914.09 716.85,-923.07 721.23,-917.61"/>
<text text-anchor="middle" x="781.5" y="-935.8" font-family="Sans Not-Rotated 14" font-size="14.00"> &#160;&#160;&#160;&#160;&#160;&#160;&#160;&#160;</text>
</g>
<!-- Red zone measmissing operator&#45;&gt;Red zone operator -->
<g id="edge50" class="edge">
<title>Red zone measmissing operator&#45;&gt;Red zone operator</title>
<path fill="none" stroke="black" stroke-width="1" d="M1304.39,-555.99C1403.89,-565.22 1530,-586.32 1530,-634 1530,-766.5 1530,-766.5 1530,-766.5 1530,-772.93 1495.35,-894.08 1478,-914 1458.78,-936.08 1448.6,-937.24 1421,-947 1372.23,-964.25 1355.99,-951.67 1306,-965 1264.61,-976.04 1166.45,-1019.89 1126,-1034 1111.52,-1039.05 1095.88,-1044.18 1081.03,-1048.9"/>
<polygon fill="black" stroke="black" stroke-width="1" points="1079.88,-1045.59 1071.4,-1051.94 1081.99,-1052.27 1079.88,-1045.59"/>
<text text-anchor="middle" x="1525.5" y="-805.3" font-family="Sans Not-Rotated 14" font-size="14.00"> </text>
</g>
<!-- Red zone measmissing operator&#45;&gt;Red zone doctor FD -->
<g id="edge49" class="edge">
<title>Red zone measmissing operator&#45;&gt;Red zone doctor FD</title>
<path fill="none" stroke="black" stroke-width="1.01" d="M1124.73,-566.14C1093.49,-579.01 1062,-600.33 1062,-634 1062,-766.5 1062,-766.5 1062,-766.5 1062,-832.11 1092.8,-859.68 1056,-914 1040.48,-936.92 1015.3,-952.2 989.87,-962.36"/>
<polygon fill="black" stroke="black" stroke-width="1.01" points="988.64,-959.08 980.51,-965.88 991.1,-965.64 988.64,-959.08"/>
<text text-anchor="middle" x="1065.5" y="-761.8" font-family="Sans Not-Rotated 14" font-size="14.00"> </text>
</g>
<!-- Red zone measmissing operator&#45;&gt;Red zone doctor -->
<g id="edge51" class="edge">
<title>Red zone measmissing operator&#45;&gt;Red zone doctor</title>
<path fill="none" stroke="black" stroke-width="1" d="M1191.66,-566.18C1195.53,-577.92 1200.73,-593.73 1205.15,-607.13"/>
<polygon fill="black" stroke="black" stroke-width="1" points="1201.88,-608.4 1208.33,-616.8 1208.53,-606.21 1201.88,-608.4"/>
<text text-anchor="middle" x="1204.5" y="-587.8" font-family="Sans Not-Rotated 14" font-size="14.00"> </text>
</g>
<!-- Red zone measmissing operator&#45;&gt;Notification operator -->
<g id="edge52" class="edge">
<title>Red zone measmissing operator&#45;&gt;Notification operator</title>
<path fill="none" stroke="black" stroke-width="1" d="M1067.62,-559.08C976.13,-568.74 846.97,-586.49 737,-617 676.32,-633.84 654.89,-631.31 606,-671 577.19,-694.39 587.74,-716.54 559,-740 542.95,-753.1 534.26,-748.21 516,-758 501.18,-765.95 485.59,-776.03 472.48,-785.06"/>
<polygon fill="black" stroke="black" stroke-width="1" points="470.45,-782.21 464.26,-790.81 474.46,-787.95 470.45,-782.21"/>
<text text-anchor="middle" x="608.5" y="-674.8" font-family="Sans Not-Rotated 14" font-size="14.00"> </text>
</g>
<!-- Yellow zone doctor FD&#45;&gt;Program change operator -->
<g id="edge4" class="edge">
<title>Yellow zone doctor FD&#45;&gt;Program change operator</title>
<path fill="none" stroke="black" stroke-width="1.03" d="M1030.52,-733.8C1104.62,-744.73 1203.84,-763.88 1233,-791 1292.95,-846.76 1331.71,-1060.22 1354,-1139 1358.74,-1155.73 1375.55,-1197.78 1370,-1226.6 1369.47,-1229.33 1368.73,-1232.13 1367.87,-1234.89"/>
<polygon fill="black" stroke="black" stroke-width="1.03" points="1364.48,-1233.95 1364.33,-1244.54 1371.05,-1236.36 1364.48,-1233.95"/>
<text text-anchor="middle" x="1329.5" y="-979.3" font-family="Sans Not-Rotated 14" font-size="14.00"> &#160;&#160;&#160;</text>
</g>
<!-- Yellow zone doctor FD&#45;&gt;Red zone operator -->
<g id="edge10" class="edge">
<title>Yellow zone doctor FD&#45;&gt;Red zone operator</title>
<path fill="none" stroke="black" stroke-width="1.7" d="M962.8,-740.21C968.1,-745.59 973.61,-751.77 978,-758 1037.12,-841.81 1056.73,-865.11 1080,-965 1086.96,-994.87 1095.04,-1007.86 1079,-1034 1076.26,-1038.47 1072.72,-1042.41 1068.73,-1045.88"/>
<polygon fill="black" stroke="black" stroke-width="1.7" points="1066.49,-1043.19 1060.57,-1051.97 1070.67,-1048.8 1066.49,-1043.19"/>
<text text-anchor="middle" x="1087.5" y="-892.3" font-family="Sans Not-Rotated 14" font-size="14.00"> &#160;&#160;&#160;&#160;&#160;&#160;&#160;&#160;</text>
</g>
<!-- Yellow zone doctor FD&#45;&gt;Red zone doctor FD -->
<g id="edge15" class="edge">
<title>Yellow zone doctor FD&#45;&gt;Red zone doctor FD</title>
<path fill="none" stroke="black" stroke-width="1.34" d="M946.75,-740.3C949.3,-762.22 950.55,-800.34 934,-827 926,-839.89 912.42,-831.77 905,-845 885.93,-878.99 890.86,-925.61 896.89,-954.75"/>
<polygon fill="black" stroke="black" stroke-width="1.34" points="893.5,-955.65 899.11,-964.64 900.33,-954.12 893.5,-955.65"/>
<text text-anchor="middle" x="925.5" y="-848.8" font-family="Sans Not-Rotated 14" font-size="14.00"> &#160;&#160;&#160;&#160;&#160;&#160;&#160;&#160;</text>
</g>
<!-- Yellow zone doctor FD&#45;&gt;Red zone doctor -->
<g id="edge28" class="edge">
<title>Yellow zone doctor FD&#45;&gt;Red zone doctor</title>
<path fill="none" stroke="black" stroke-width="1.29" d="M1030.62,-712.65C1064.35,-707.5 1102.79,-699.23 1136,-686 1147.34,-681.48 1148.74,-677.61 1159,-671 1165.28,-666.95 1171.98,-662.67 1178.46,-658.54"/>
<polygon fill="black" stroke="black" stroke-width="1.29" points="1180.55,-661.35 1187.11,-653.03 1176.79,-655.45 1180.55,-661.35"/>
<text text-anchor="middle" x="1179.5" y="-674.8" font-family="Sans Not-Rotated 14" font-size="14.00"> &#160;&#160;&#160;&#160;&#160;&#160;&#160;&#160;</text>
</g>
<!-- Meas missing operator -->
<g id="node13" class="node">
<title>Meas missing operator</title>
<polygon fill="#a09dde" stroke="black" points="382.5,-566 211.5,-566 211.5,-530 382.5,-530 382.5,-566"/>
<text text-anchor="middle" x="297" y="-544.3" font-family="Sans Not-Rotated 14" font-size="14.00">Meas missing operator</text>
</g>
<!-- Yellow zone doctor FD&#45;&gt;Meas missing operator -->
<g id="edge35" class="edge">
<title>Yellow zone doctor FD&#45;&gt;Meas missing operator</title>
<path fill="none" stroke="black" stroke-width="1.16" d="M914.46,-703.84C861.32,-673.88 745.24,-612.5 639,-584 557.68,-562.19 462.14,-553.79 392.74,-550.64"/>
<polygon fill="black" stroke="black" stroke-width="1.16" points="392.83,-547.14 382.69,-550.21 392.54,-554.13 392.83,-547.14"/>
<text text-anchor="middle" x="837.5" y="-631.3" font-family="Sans Not-Rotated 14" font-size="14.00"> &#160;&#160;&#160;&#160;&#160;&#160;&#160;&#160;</text>
</g>
<!-- Yellow zone doctor FD&#45;&gt;Notification operator -->
<g id="edge36" class="edge">
<title>Yellow zone doctor FD&#45;&gt;Notification operator</title>
<path fill="none" stroke="black" stroke-width="1.95" d="M857.19,-733.53C837.11,-735.81 815.82,-738.11 796,-740 743.64,-745 609.63,-740.6 560,-758 548.83,-761.92 548.54,-767.62 538,-773 527.77,-778.23 516.56,-783.04 505.52,-787.3"/>
<polygon fill="black" stroke="black" stroke-width="1.95" points="504.03,-784.13 495.89,-790.91 506.49,-790.68 504.03,-784.13"/>
<text text-anchor="middle" x="580.5" y="-761.8" font-family="Sans Not-Rotated 14" font-size="14.00"> &#160;&#160;&#160;&#160;&#160;&#160;&#160;&#160;</text>
</g>
<!-- Yellow zone doctor FD&#45;&gt;Yellow zone doctor -->
<g id="edge43" class="edge">
<title>Yellow zone doctor FD&#45;&gt;Yellow zone doctor</title>
<path fill="none" stroke="black" stroke-width="2.17" d="M922.01,-740.04C904.99,-753.46 881.02,-772.87 861,-791 844.23,-806.19 843.3,-813.69 825,-827 799.51,-845.55 768.23,-861.82 742.42,-873.78"/>
<polygon fill="black" stroke="black" stroke-width="2.17" points="740.82,-870.66 733.17,-878 743.73,-877.03 740.82,-870.66"/>
<text text-anchor="middle" x="897.5" y="-805.3" font-family="Sans Not-Rotated 14" font-size="14.00"> &#160;&#160;&#160;&#160;&#160;&#160;&#160;&#160;&#160;&#160;&#160;&#160;&#160;&#160;&#160;</text>
</g>
<!-- Monitoring completed doctor -->
<g id="node7" class="node">
<title>Monitoring completed doctor</title>
<polygon fill="#ffffff" stroke="black" points="283,-392 69,-392 69,-356 283,-356 283,-392"/>
<text text-anchor="middle" x="176" y="-370.3" font-family="Sans Not-Rotated 14" font-size="14.00">Monitoring completed doctor</text>
</g>
<!-- Monitoring completed doctor FD -->
<g id="node15" class="node">
<title>Monitoring completed doctor FD</title>
<polygon fill="#ffffff" stroke="black" points="304,-305 66,-305 66,-269 304,-269 304,-305"/>
<text text-anchor="middle" x="185" y="-283.3" font-family="Sans Not-Rotated 14" font-size="14.00">Monitoring completed doctor FD</text>
</g>
<!-- Monitoring completed doctor&#45;&gt;Monitoring completed doctor FD -->
<g id="edge41" class="edge">
<title>Monitoring completed doctor&#45;&gt;Monitoring completed doctor FD</title>
<path fill="none" stroke="black" stroke-width="1.03" d="M177.82,-355.8C179.05,-344.16 180.71,-328.55 182.12,-315.24"/>
<polygon fill="black" stroke="black" stroke-width="1.03" points="185.61,-315.49 183.18,-305.18 178.65,-314.75 185.61,-315.49"/>
<text text-anchor="middle" x="191.5" y="-326.8" font-family="Sans Not-Rotated 14" font-size="14.00"> &#160;&#160;&#160;</text>
</g>
<!-- Red zone doctor&#45;&gt;Red zone operator -->
<g id="edge7" class="edge">
<title>Red zone doctor&#45;&gt;Red zone operator</title>
<path fill="none" stroke="black" stroke-width="3.47" d="M1278.88,-641.77C1318.43,-646.78 1363.67,-655.72 1376,-671 1419.54,-724.95 1380.94,-757.84 1376,-827 1370.43,-904.93 1395.23,-936.6 1351,-1001 1349.94,-1002.55 1293.78,-1033.41 1292,-1034 1228.82,-1054.78 1153.79,-1063.34 1097.77,-1066.81"/>
<polygon fill="black" stroke="black" stroke-width="3.47" points="1097.32,-1063.33 1087.53,-1067.4 1097.72,-1070.32 1097.32,-1063.33"/>
<text text-anchor="middle" x="1411.5" y="-848.8" font-family="Sans Not-Rotated 14" font-size="14.00"> &#160;&#160;&#160;&#160;&#160;&#160;&#160;&#160;&#160;&#160;&#160;&#160;&#160;&#160;&#160;</text>
</g>
<!-- Red zone doctor&#45;&gt;Red zone doctor FD -->
<g id="edge13" class="edge">
<title>Red zone doctor&#45;&gt;Red zone doctor FD</title>
<path fill="none" stroke="black" stroke-width="3.51" d="M1211.38,-653.06C1201.94,-712.17 1167.83,-906.82 1122,-947 1102.54,-964.06 1042.98,-972.86 991.03,-977.37"/>
<polygon fill="black" stroke="black" stroke-width="3.51" points="990.43,-973.9 980.75,-978.21 991.01,-980.88 990.43,-973.9"/>
<text text-anchor="middle" x="1221.5" y="-805.3" font-family="Sans Not-Rotated 14" font-size="14.00"> &#160;&#160;&#160;&#160;&#160;&#160;&#160;&#160;&#160;&#160;&#160;&#160;&#160;&#160;&#160;</text>
</g>
<!-- Red zone doctor&#45;&gt;Red zone measmissing operator -->
<g id="edge19" class="edge">
<title>Red zone doctor&#45;&gt;Red zone measmissing operator</title>
<path fill="none" stroke="black" stroke-width="1" d="M1200.29,-616.72C1196.68,-611.33 1193.19,-605.17 1191,-599 1188.47,-591.85 1187.08,-583.78 1186.35,-576.25"/>
<polygon fill="black" stroke="black" stroke-width="1" points="1189.83,-575.86 1185.7,-566.11 1182.84,-576.31 1189.83,-575.86"/>
<text text-anchor="middle" x="1193.5" y="-587.8" font-family="Sans Not-Rotated 14" font-size="14.00"> </text>
</g>
<!-- Red zone doctor&#45;&gt;Red zone doctor -->
<g id="edge67" class="edge">
<title>Red zone doctor&#45;&gt;Red zone doctor</title>
<path fill="none" stroke="black" stroke-width="1.26" d="M1278.68,-642.29C1289.24,-641.24 1296.5,-638.81 1296.5,-635 1296.5,-632.56 1293.52,-630.68 1288.6,-629.38"/>
<polygon fill="black" stroke="black" stroke-width="1.26" points="1289.12,-625.91 1278.68,-627.71 1287.96,-632.82 1289.12,-625.91"/>
<text text-anchor="middle" x="1317" y="-631.3" font-family="Sans Not-Rotated 14" font-size="14.00"> &#160;&#160;&#160;&#160;&#160;&#160;&#160;&#160;</text>
</g>
<!-- Red zone doctor&#45;&gt;Yellow zone doctor -->
<g id="edge45" class="edge">
<title>Red zone doctor&#45;&gt;Yellow zone doctor</title>
<path fill="none" stroke="black" stroke-width="1.27" d="M1149.38,-643.63C1058.93,-655.04 899.86,-678.01 848,-704 826.91,-714.57 829.68,-728.65 809,-740 781.6,-755.05 765.37,-738.42 741,-758 707.71,-784.75 697.02,-835.92 693.6,-867.59"/>
<polygon fill="black" stroke="black" stroke-width="1.27" points="690.08,-867.63 692.66,-877.91 697.05,-868.26 690.08,-867.63"/>
<text text-anchor="middle" x="761.5" y="-761.8" font-family="Sans Not-Rotated 14" font-size="14.00"> &#160;&#160;&#160;&#160;&#160;&#160;&#160;&#160;</text>
</g>
<!-- Target levels achieved doctor -->
<g id="node9" class="node">
<title>Target levels achieved doctor</title>
<polygon fill="#ffffff" stroke="black" points="550.5,-740 331.5,-740 331.5,-704 550.5,-704 550.5,-740"/>
<text text-anchor="middle" x="441" y="-718.3" font-family="Sans Not-Rotated 14" font-size="14.00">Target levels achieved doctor</text>
</g>
<!-- Target levels achieved doctor FD -->
<g id="node10" class="node">
<title>Target levels achieved doctor FD</title>
<polygon fill="#ffffff" stroke="black" points="550.5,-653 307.5,-653 307.5,-617 550.5,-617 550.5,-653"/>
<text text-anchor="middle" x="429" y="-631.3" font-family="Sans Not-Rotated 14" font-size="14.00">Target levels achieved doctor FD</text>
</g>
<!-- Target levels achieved doctor&#45;&gt;Target levels achieved doctor FD -->
<g id="edge30" class="edge">
<title>Target levels achieved doctor&#45;&gt;Target levels achieved doctor FD</title>
<path fill="none" stroke="black" stroke-width="1.01" d="M438.57,-703.8C436.93,-692.16 434.72,-676.55 432.85,-663.24"/>
<polygon fill="black" stroke="black" stroke-width="1.01" points="436.29,-662.59 431.42,-653.18 429.36,-663.57 436.29,-662.59"/>
<text text-anchor="middle" x="438.5" y="-674.8" font-family="Sans Not-Rotated 14" font-size="14.00"> </text>
</g>
<!-- Target levels achieved doctor FD&#45;&gt;Meas missing operator -->
<g id="edge54" class="edge">
<title>Target levels achieved doctor FD&#45;&gt;Meas missing operator</title>
<path fill="none" stroke="black" d="M402.29,-616.8C382.07,-603.78 354.12,-585.78 332.1,-571.6"/>
<polygon fill="black" stroke="black" points="333.98,-568.65 323.67,-566.18 330.19,-574.53 333.98,-568.65"/>
<text text-anchor="middle" x="373.5" y="-587.8" font-family="Sans Not-Rotated 14" font-size="14.00"> </text>
</g>
<!-- Target levels achieved doctor FD&#45;&gt;Notification operator -->
<g id="edge53" class="edge">
<title>Target levels achieved doctor FD&#45;&gt;Notification operator</title>
<path fill="none" stroke="black" stroke-width="1" d="M404.48,-653.2C389.81,-663.21 370.65,-675.83 353,-686 337.5,-694.93 326.4,-688.78 317,-704 308.59,-717.61 308.85,-726.23 317,-740 329.59,-761.26 351.44,-776.31 373.32,-786.75"/>
<polygon fill="black" stroke="black" stroke-width="1" points="372.12,-790.05 382.68,-790.95 374.99,-783.66 372.12,-790.05"/>
<text text-anchor="middle" x="319.5" y="-718.3" font-family="Sans Not-Rotated 14" font-size="14.00"> </text>
</g>
<!-- Kit return operator -->
<g id="node11" class="node">
<title>Kit return operator</title>
<polygon fill="#ffffff" stroke="black" points="214,-218 66,-218 66,-182 214,-182 214,-218"/>
<text text-anchor="middle" x="140" y="-196.3" font-family="Sans Not-Rotated 14" font-size="14.00">Kit return operator</text>
</g>
<!-- Kit return operator&#45;&gt;Kit return nurse -->
<g id="edge6" class="edge">
<title>Kit return operator&#45;&gt;Kit return nurse</title>
<path fill="none" stroke="black" stroke-width="1.01" d="M138.58,-181.8C137.63,-170.16 136.34,-154.55 135.24,-141.24"/>
<polygon fill="black" stroke="black" stroke-width="1.01" points="138.72,-140.85 134.41,-131.18 131.75,-141.43 138.72,-140.85"/>
<text text-anchor="middle" x="139.5" y="-152.8" font-family="Sans Not-Rotated 14" font-size="14.00"> </text>
</g>
<!-- Yellow zone Therapy control operator&#45;&gt;Red zone operator -->
<g id="edge55" class="edge">
<title>Yellow zone Therapy control operator&#45;&gt;Red zone operator</title>
<path fill="none" stroke="black" stroke-width="1.17" d="M931.6,-1148.18C947.38,-1141.23 964.33,-1132.17 978,-1121 986.32,-1114.21 993.76,-1105.14 999.74,-1096.6"/>
<polygon fill="black" stroke="black" stroke-width="1.17" points="1002.83,-1098.28 1005.43,-1088.01 997,-1094.41 1002.83,-1098.28"/>
<text text-anchor="middle" x="1013.5" y="-1109.8" font-family="Sans Not-Rotated 14" font-size="14.00"> &#160;&#160;&#160;&#160;&#160;&#160;&#160;&#160;</text>
</g>
<!-- Yellow zone Therapy control operator&#45;&gt;Red zone doctor FD -->
<g id="edge57" class="edge">
<title>Yellow zone Therapy control operator&#45;&gt;Red zone doctor FD</title>
<path fill="none" stroke="black" stroke-width="1.09" d="M876.2,-1148.18C868.27,-1125.8 857.28,-1085.49 866,-1052 869.88,-1037.09 877.84,-1021.98 885.47,-1009.8"/>
<polygon fill="black" stroke="black" stroke-width="1.09" points="888.61,-1011.39 891.17,-1001.11 882.76,-1007.55 888.61,-1011.39"/>
<text text-anchor="middle" x="875.5" y="-1066.3" font-family="Sans Not-Rotated 14" font-size="14.00"> &#160;&#160;&#160;</text>
</g>
<!-- Yellow zone Therapy control operator&#45;&gt;Red zone doctor -->
<g id="edge58" class="edge">
<title>Yellow zone Therapy control operator&#45;&gt;Red zone doctor</title>
<path fill="none" stroke="black" stroke-width="1.06" d="M1022.21,-1153.28C1132.18,-1136.55 1282.11,-1096.57 1375,-1001 1477.41,-895.63 1509.23,-763.43 1395,-671 1378.59,-657.72 1331.02,-648.83 1288.77,-643.34"/>
<polygon fill="black" stroke="black" stroke-width="1.06" points="1289.09,-639.85 1278.73,-642.08 1288.22,-646.8 1289.09,-639.85"/>
<text text-anchor="middle" x="1464.5" y="-892.3" font-family="Sans Not-Rotated 14" font-size="14.00"> &#160;&#160;&#160;</text>
</g>
<!-- Yellow zone Therapy control operator&#45;&gt;Notification operator -->
<g id="edge56" class="edge">
<title>Yellow zone Therapy control operator&#45;&gt;Notification operator</title>
<path fill="none" stroke="black" stroke-width="1.13" d="M743.66,-1164.09C657.28,-1160.17 544.89,-1149.28 449,-1121 402.1,-1107.17 351,-1119.9 351,-1071 351,-1071 351,-1071 351,-895 351,-867.87 372.89,-846.83 395.07,-832.46"/>
<polygon fill="black" stroke="black" stroke-width="1.13" points="397.16,-835.29 403.87,-827.1 393.51,-829.32 397.16,-835.29"/>
<text text-anchor="middle" x="371.5" y="-979.3" font-family="Sans Not-Rotated 14" font-size="14.00"> &#160;&#160;&#160;&#160;&#160;&#160;&#160;&#160;</text>
</g>
<!-- Yellow zone Therapy control operator&#45;&gt;end -->
<g id="edge59" class="edge">
<title>Yellow zone Therapy control operator&#45;&gt;end</title>
<path fill="none" stroke="black" stroke-dasharray="5,2" d="M743.57,-1164.42C494.75,-1160.98 0,-1144.86 0,-1071 0,-1071 0,-1071 0,-112 0,-82.59 23.91,-57.15 43.79,-41.09"/>
<polygon fill="black" stroke="black" points="46.18,-43.67 51.97,-34.8 41.91,-38.12 46.18,-43.67"/>
<text text-anchor="middle" x="9.5" y="-587.8" font-family="Sans Not-Rotated 14" font-size="14.00"> &#160;&#160;&#160;</text>
</g>
<!-- Meas missing operator&#45;&gt;Monitoring completed doctor -->
<g id="edge24" class="edge">
<title>Meas missing operator&#45;&gt;Monitoring completed doctor</title>
<path fill="none" stroke="black" stroke-width="1.01" d="M219.61,-529.88C192.54,-519.77 164.95,-503.88 149,-479 133.76,-455.23 145.98,-423.21 158.52,-401"/>
<polygon fill="black" stroke="black" stroke-width="1.01" points="161.69,-402.52 163.83,-392.14 155.69,-398.92 161.69,-402.52"/>
<text text-anchor="middle" x="158.5" y="-457.3" font-family="Sans Not-Rotated 14" font-size="14.00"> &#160;&#160;&#160;</text>
</g>
<!-- Meas missing operator&#45;&gt;Notification operator -->
<g id="edge40" class="edge">
<title>Meas missing operator&#45;&gt;Notification operator</title>
<path fill="none" stroke="black" stroke-width="1.48" d="M277.85,-566.33C252.01,-591.95 211.13,-641.67 229,-686 234.25,-699.02 301.56,-766.24 313,-773 324.89,-780.03 338.23,-785.68 351.69,-790.22"/>
<polygon fill="black" stroke="black" stroke-width="1.48" points="350.9,-793.65 361.49,-793.34 353.02,-786.97 350.9,-793.65"/>
<text text-anchor="middle" x="249.5" y="-674.8" font-family="Sans Not-Rotated 14" font-size="14.00"> &#160;&#160;&#160;&#160;&#160;&#160;&#160;&#160;</text>
</g>
<!-- Meas missing doctor -->
<g id="node16" class="node">
<title>Meas missing doctor</title>
<polygon fill="#c0bde9" stroke="black" points="332.5,-479 177.5,-479 177.5,-443 332.5,-443 332.5,-479"/>
<text text-anchor="middle" x="255" y="-457.3" font-family="Sans Not-Rotated 14" font-size="14.00">Meas missing doctor</text>
</g>
<!-- Meas missing operator&#45;&gt;Meas missing doctor -->
<g id="edge2" class="edge">
<title>Meas missing operator&#45;&gt;Meas missing doctor</title>
<path fill="none" stroke="black" stroke-width="2.6" d="M299.56,-529.99C300.31,-519.92 299.87,-507.19 295,-497 293.16,-493.16 290.69,-489.57 287.87,-486.26"/>
<polygon fill="black" stroke="black" stroke-width="2.6" points="290.3,-483.74 280.79,-479.07 285.31,-488.65 290.3,-483.74"/>
<text text-anchor="middle" x="336.5" y="-500.8" font-family="Sans Not-Rotated 14" font-size="14.00"> &#160;&#160;&#160;&#160;&#160;&#160;&#160;&#160;&#160;&#160;&#160;&#160;&#160;&#160;&#160;</text>
</g>
<!-- Meas missing operator&#45;&gt;Yellow zone doctor -->
<g id="edge60" class="edge">
<title>Meas missing operator&#45;&gt;Yellow zone doctor</title>
<path fill="none" stroke="black" stroke-width="1.12" d="M382.66,-559.11C436.18,-568.27 504.94,-585.39 559,-617 587.76,-633.82 595.76,-641.37 611,-671 611.25,-671.49 639.86,-826.47 640,-827 643.87,-841.97 642.36,-847.18 651,-860 653.54,-863.77 656.59,-867.37 659.87,-870.72"/>
<polygon fill="black" stroke="black" stroke-width="1.12" points="657.6,-873.39 667.3,-877.66 662.38,-868.28 657.6,-873.39"/>
<text text-anchor="middle" x="644.5" y="-718.3" font-family="Sans Not-Rotated 14" font-size="14.00"> &#160;&#160;&#160;&#160;&#160;&#160;&#160;&#160;</text>
</g>
<!-- Notification operator&#45;&gt;Red zone operator -->
<g id="edge11" class="edge">
<title>Notification operator&#45;&gt;Red zone operator</title>
<path fill="none" stroke="black" stroke-width="1.38" d="M449.79,-827.29C473.86,-872.39 545.9,-992.99 647,-1034 704.03,-1057.13 857.7,-1044.43 932.04,-1051.59"/>
<polygon fill="black" stroke="black" stroke-width="1.38" points="932.07,-1055.12 942.41,-1052.8 932.88,-1048.17 932.07,-1055.12"/>
<text text-anchor="middle" x="551.5" y="-935.8" font-family="Sans Not-Rotated 14" font-size="14.00"> &#160;&#160;&#160;&#160;&#160;&#160;&#160;&#160;</text>
</g>
<!-- Notification operator&#45;&gt;Yellow zone doctor FD -->
<g id="edge22" class="edge">
<title>Notification operator&#45;&gt;Yellow zone doctor FD</title>
<path fill="none" stroke="black" stroke-width="1.32" d="M520.66,-791.01C547.46,-785.29 577.53,-778.88 605,-773 636.11,-766.35 643.64,-763.39 675,-758 731.89,-748.22 795.98,-739.78 847.32,-733.64"/>
<polygon fill="black" stroke="black" stroke-width="1.32" points="847.9,-737.1 857.41,-732.44 847.07,-730.15 847.9,-737.1"/>
<text text-anchor="middle" x="695.5" y="-761.8" font-family="Sans Not-Rotated 14" font-size="14.00"> &#160;&#160;&#160;&#160;&#160;&#160;&#160;&#160;</text>
</g>
<!-- Notification operator&#45;&gt;Monitoring completed doctor -->
<g id="edge25" class="edge">
<title>Notification operator&#45;&gt;Monitoring completed doctor</title>
<path fill="none" stroke="black" stroke-width="1.01" d="M361.39,-804.34C258.94,-797.4 94,-777.74 94,-723 94,-723 94,-723 94,-460 94,-433.69 114.6,-412.4 135.15,-397.71"/>
<polygon fill="black" stroke="black" stroke-width="1.01" points="137.26,-400.51 143.59,-392.01 133.34,-394.7 137.26,-400.51"/>
<text text-anchor="middle" x="103.5" y="-587.8" font-family="Sans Not-Rotated 14" font-size="14.00"> &#160;&#160;&#160;</text>
</g>
<!-- Notification operator&#45;&gt;Red zone doctor -->
<g id="edge61" class="edge">
<title>Notification operator&#45;&gt;Red zone doctor</title>
<path fill="none" stroke="black" stroke-width="1.16" d="M477.03,-790.83C488.57,-785.24 501.36,-778.94 513,-773 525.57,-766.58 527.58,-762.38 541,-758 596.04,-740.05 613.84,-754.06 670,-740 715.01,-728.73 723.06,-715.56 768,-704 896.37,-670.99 1049.92,-651.91 1139.26,-642.76"/>
<polygon fill="black" stroke="black" stroke-width="1.16" points="1139.7,-646.24 1149.3,-641.75 1139,-639.27 1139.7,-646.24"/>
<text text-anchor="middle" x="788.5" y="-718.3" font-family="Sans Not-Rotated 14" font-size="14.00"> &#160;&#160;&#160;&#160;&#160;&#160;&#160;&#160;</text>
</g>
<!-- Notification operator&#45;&gt;Target levels achieved doctor -->
<g id="edge29" class="edge">
<title>Notification operator&#45;&gt;Target levels achieved doctor</title>
<path fill="none" stroke="black" stroke-width="1" d="M441,-790.8C441,-779.16 441,-763.55 441,-750.24"/>
<polygon fill="black" stroke="black" stroke-width="1" points="444.5,-750.18 441,-740.18 437.5,-750.18 444.5,-750.18"/>
<text text-anchor="middle" x="443.5" y="-761.8" font-family="Sans Not-Rotated 14" font-size="14.00"> </text>
</g>
<!-- Notification operator&#45;&gt;Yellow zone Therapy control operator -->
<g id="edge33" class="edge">
<title>Notification operator&#45;&gt;Yellow zone Therapy control operator</title>
<path fill="none" stroke="black" stroke-width="1.07" d="M436.82,-827.14C433.01,-844.22 428,-871.26 428,-895 428,-1071 428,-1071 428,-1071 428,-1134.64 600.8,-1155.65 733.42,-1162.41"/>
<polygon fill="black" stroke="black" stroke-width="1.07" points="733.54,-1165.92 743.7,-1162.91 733.88,-1158.93 733.54,-1165.92"/>
<text text-anchor="middle" x="437.5" y="-979.3" font-family="Sans Not-Rotated 14" font-size="14.00"> &#160;&#160;&#160;</text>
</g>
<!-- Notification operator&#45;&gt;Meas missing operator -->
<g id="edge34" class="edge">
<title>Notification operator&#45;&gt;Meas missing operator</title>
<path fill="none" stroke="black" stroke-width="2.78" d="M361.23,-791.13C349.39,-786.47 337.87,-780.54 328,-773 317.85,-765.25 278.08,-693.79 276,-686 265.95,-648.31 277.05,-603.43 286.54,-575.57"/>
<polygon fill="black" stroke="black" stroke-width="2.78" points="289.85,-576.71 289.92,-566.12 283.26,-574.35 289.85,-576.71"/>
<text text-anchor="middle" x="312.5" y="-674.8" font-family="Sans Not-Rotated 14" font-size="14.00"> &#160;&#160;&#160;&#160;&#160;&#160;&#160;&#160;&#160;&#160;&#160;&#160;&#160;&#160;&#160;</text>
</g>
<!-- Notification operator&#45;&gt;Notification operator -->
<g id="edge68" class="edge">
<title>Notification operator&#45;&gt;Notification operator</title>
<path fill="none" stroke="black" stroke-width="2.07" d="M520.57,-815.99C531.33,-814.82 538.5,-812.49 538.5,-809 538.5,-806.77 535.56,-805.01 530.62,-803.72"/>
<polygon fill="black" stroke="black" stroke-width="2.07" points="531.02,-800.24 520.57,-802.01 529.84,-807.14 531.02,-800.24"/>
<text text-anchor="middle" x="559" y="-805.3" font-family="Sans Not-Rotated 14" font-size="14.00"> &#160;&#160;&#160;&#160;&#160;&#160;&#160;&#160;</text>
</g>
<!-- Notification operator&#45;&gt;Yellow zone doctor -->
<g id="edge44" class="edge">
<title>Notification operator&#45;&gt;Yellow zone doctor</title>
<path fill="none" stroke="black" stroke-width="1.69" d="M510.87,-827.09C527.01,-832.02 543.87,-838 559,-845 570.08,-850.12 570.97,-854.77 582,-860 593.61,-865.51 606.32,-870.46 618.83,-874.78"/>
<polygon fill="black" stroke="black" stroke-width="1.69" points="617.75,-878.1 628.34,-877.96 619.97,-871.47 617.75,-878.1"/>
<text text-anchor="middle" x="602.5" y="-848.8" font-family="Sans Not-Rotated 14" font-size="14.00"> &#160;&#160;&#160;&#160;&#160;&#160;&#160;&#160;</text>
</g>
<!-- Notification operator&#45;&gt;end -->
<g id="edge47" class="edge">
<title>Notification operator&#45;&gt;end</title>
<path fill="none" stroke="black" stroke-dasharray="5,2" d="M361.38,-807.17C243.93,-803.75 38,-788.43 38,-723 38,-723 38,-723 38,-112 38,-90.59 46.3,-67.9 54.45,-50.78"/>
<polygon fill="black" stroke="black" points="57.8,-51.91 59.17,-41.41 51.55,-48.77 57.8,-51.91"/>
<text text-anchor="middle" x="58.5" y="-413.8" font-family="Sans Not-Rotated 14" font-size="14.00"> &#160;&#160;&#160;&#160;&#160;&#160;&#160;&#160;</text>
</g>
<!-- Monitoring completed doctor FD&#45;&gt;Kit return operator -->
<g id="edge3" class="edge">
<title>Monitoring completed doctor FD&#45;&gt;Kit return operator</title>
<path fill="none" stroke="black" stroke-width="1.01" d="M175.89,-268.8C169.55,-256.82 160.97,-240.62 153.79,-227.06"/>
<polygon fill="black" stroke="black" stroke-width="1.01" points="156.87,-225.38 149.09,-218.18 150.68,-228.65 156.87,-225.38"/>
<text text-anchor="middle" x="168.5" y="-239.8" font-family="Sans Not-Rotated 14" font-size="14.00"> </text>
</g>
<!-- Monitoring completed doctor FD&#45;&gt;end -->
<g id="edge62" class="edge">
<title>Monitoring completed doctor FD&#45;&gt;end</title>
<path fill="none" stroke="black" stroke-dasharray="5,2" d="M197.83,-268.89C206.84,-255.74 218.13,-236.71 223,-218 236.91,-164.6 238.89,-139.32 206,-95 180.14,-60.15 132.35,-40.54 100.87,-30.86"/>
<polygon fill="black" stroke="black" points="101.84,-27.5 91.26,-28.06 99.88,-34.22 101.84,-27.5"/>
<text text-anchor="middle" x="242.5" y="-152.8" font-family="Sans Not-Rotated 14" font-size="14.00"> &#160;&#160;&#160;</text>
</g>
<!-- Meas missing doctor&#45;&gt;Monitoring completed doctor -->
<g id="edge23" class="edge">
<title>Meas missing doctor&#45;&gt;Monitoring completed doctor</title>
<path fill="none" stroke="black" stroke-width="1.01" d="M239.01,-442.8C227.45,-430.36 211.66,-413.36 198.77,-399.5"/>
<polygon fill="black" stroke="black" stroke-width="1.01" points="201.33,-397.12 191.96,-392.18 196.21,-401.88 201.33,-397.12"/>
<text text-anchor="middle" x="230.5" y="-413.8" font-family="Sans Not-Rotated 14" font-size="14.00"> &#160;&#160;&#160;</text>
</g>
<!-- Meas missing doctor&#45;&gt;Meas missing operator -->
<g id="edge63" class="edge">
<title>Meas missing doctor&#45;&gt;Meas missing operator</title>
<path fill="none" stroke="black" stroke-width="1.37" d="M248.86,-479.05C246.28,-489.13 244.91,-501.86 250,-512 251.95,-515.89 254.56,-519.45 257.56,-522.69"/>
<polygon fill="black" stroke="black" stroke-width="1.37" points="255.39,-525.46 265.11,-529.67 260.14,-520.32 255.39,-525.46"/>
<text text-anchor="middle" x="270.5" y="-500.8" font-family="Sans Not-Rotated 14" font-size="14.00"> &#160;&#160;&#160;&#160;&#160;&#160;&#160;&#160;</text>
</g>
<!-- Meas missing doctor&#45;&gt;Notification operator -->
<g id="edge38" class="edge">
<title>Meas missing doctor&#45;&gt;Notification operator</title>
<path fill="none" stroke="black" stroke-width="2.15" d="M233.37,-479.03C194.7,-511.7 120.31,-585.87 149,-653 181.61,-729.29 215.52,-740.84 292,-773 310.73,-780.88 331.57,-787.17 351.59,-792.13"/>
<polygon fill="black" stroke="black" stroke-width="2.15" points="350.8,-795.54 361.34,-794.45 352.42,-788.73 350.8,-795.54"/>
<text text-anchor="middle" x="185.5" y="-631.3" font-family="Sans Not-Rotated 14" font-size="14.00"> &#160;&#160;&#160;&#160;&#160;&#160;&#160;&#160;&#160;&#160;&#160;&#160;&#160;&#160;&#160;</text>
</g>
<!-- Meas missing doctor&#45;&gt;Yellow zone doctor -->
<g id="edge64" class="edge">
<title>Meas missing doctor&#45;&gt;Yellow zone doctor</title>
<path fill="none" stroke="black" stroke-width="1.08" d="M332.92,-476.2C454.37,-500.1 679.75,-552.18 726,-617 735.29,-630.02 727.6,-637.08 726,-653 717.33,-739.31 696.59,-758.44 691,-845 690.53,-852.33 690.48,-860.29 690.62,-867.64"/>
<polygon fill="black" stroke="black" stroke-width="1.08" points="687.13,-867.98 690.94,-877.86 694.12,-867.75 687.13,-867.98"/>
<text text-anchor="middle" x="733.5" y="-674.8" font-family="Sans Not-Rotated 14" font-size="14.00"> &#160;&#160;&#160;</text>
</g>
<!-- Yellow zone doctor&#45;&gt;Red zone operator -->
<g id="edge12" class="edge">
<title>Yellow zone doctor&#45;&gt;Red zone operator</title>
<path fill="none" stroke="black" stroke-width="1.21" d="M672.1,-914.09C659.07,-926.66 643.18,-944.99 636,-965 630.6,-980.06 628.48,-986.88 636,-1001 648.33,-1024.18 660.18,-1025.44 685,-1034 788.04,-1069.53 823.77,-1037.97 932.37,-1051.47"/>
<polygon fill="black" stroke="black" stroke-width="1.21" points="932.03,-1054.96 942.4,-1052.82 932.96,-1048.02 932.03,-1054.96"/>
<text text-anchor="middle" x="656.5" y="-979.3" font-family="Sans Not-Rotated 14" font-size="14.00"> &#160;&#160;&#160;&#160;&#160;&#160;&#160;&#160;</text>
</g>
<!-- Yellow zone doctor&#45;&gt;Red zone doctor FD -->
<g id="edge16" class="edge">
<title>Yellow zone doctor&#45;&gt;Red zone doctor FD</title>
<path fill="none" stroke="black" stroke-width="1.29" d="M754.51,-914.05C771.43,-919.24 789.59,-925.35 806,-932 825.9,-940.06 847.22,-950.68 864.87,-960.06"/>
<polygon fill="black" stroke="black" stroke-width="1.29" points="863.28,-963.18 873.74,-964.83 866.6,-957.01 863.28,-963.18"/>
<text text-anchor="middle" x="860.5" y="-935.8" font-family="Sans Not-Rotated 14" font-size="14.00"> &#160;&#160;&#160;&#160;&#160;&#160;&#160;&#160;</text>
</g>
<!-- Yellow zone doctor&#45;&gt;Yellow zone doctor FD -->
<g id="edge20" class="edge">
<title>Yellow zone doctor&#45;&gt;Yellow zone doctor FD</title>
<path fill="none" stroke="black" stroke-width="3.63" d="M700.14,-877.94C712.87,-851.82 737.55,-803.6 752,-791 770.35,-775 824.51,-756.53 870.65,-742.89"/>
<polygon fill="black" stroke="black" stroke-width="3.63" points="871.74,-746.22 880.36,-740.05 869.78,-739.5 871.74,-746.22"/>
<text text-anchor="middle" x="788.5" y="-805.3" font-family="Sans Not-Rotated 14" font-size="14.00"> &#160;&#160;&#160;&#160;&#160;&#160;&#160;&#160;&#160;&#160;&#160;&#160;&#160;&#160;&#160;</text>
</g>
<!-- Yellow zone doctor&#45;&gt;Notification operator -->
<g id="edge39" class="edge">
<title>Yellow zone doctor&#45;&gt;Notification operator</title>
<path fill="none" stroke="black" stroke-width="1.37" d="M617.32,-882.86C578.74,-876.01 536.04,-867.38 518,-860 506.7,-855.38 505.23,-851.65 495,-845 488.82,-840.98 482.23,-836.71 475.87,-832.58"/>
<polygon fill="black" stroke="black" stroke-width="1.37" points="477.67,-829.58 467.38,-827.07 473.86,-835.45 477.67,-829.58"/>
<text text-anchor="middle" x="538.5" y="-848.8" font-family="Sans Not-Rotated 14" font-size="14.00"> &#160;&#160;&#160;&#160;&#160;&#160;&#160;&#160;</text>
</g>
<!-- start -->
<g id="node18" class="node">
<title>start</title>
<ellipse fill="#95d600" stroke="black" cx="1292" cy="-1166.3" rx="27.1" ry="27.1"/>
<text text-anchor="middle" x="1292" y="-1162.6" font-family="Sans Not-Rotated 14" font-size="14.00">start</text>
</g>
<!-- start&#45;&gt;Red zone operator -->
<g id="edge9" class="edge">
<title>start&#45;&gt;Red zone operator</title>
<path fill="none" stroke="black" stroke-dasharray="5,2" d="M1266.44,-1156.6C1223.17,-1141.87 1134.42,-1111.65 1074.8,-1091.36"/>
<polygon fill="black" stroke="black" points="1075.72,-1087.97 1065.12,-1088.06 1073.46,-1094.6 1075.72,-1087.97"/>
<text text-anchor="middle" x="1182.5" y="-1109.8" font-family="Sans Not-Rotated 14" font-size="14.00"> &#160;&#160;&#160;&#160;&#160;&#160;&#160;&#160;</text>
</g>
</g>
</svg>
