<?xml version="1.0" encoding="UTF-8" standalone="no"?>
<!DOCTYPE svg PUBLIC "-//W3C//DTD SVG 1.1//EN"
 "http://www.w3.org/Graphics/SVG/1.1/DTD/svg11.dtd">
<!-- Generated by graphviz version 3.0.0 (20220226.1711)
 -->
<!-- Pages: 1 -->
<svg width="1265pt" height="1202pt"
 viewBox="0.00 0.00 1264.80 1201.60" xmlns="http://www.w3.org/2000/svg" xmlns:xlink="http://www.w3.org/1999/xlink">
<g id="graph0" class="graph" transform="scale(1 1) rotate(0) translate(4 1197.6)">
<polygon fill="white" stroke="transparent" points="-4,4 -4,-1197.6 1260.8,-1197.6 1260.8,4 -4,4"/>
<!-- Program change operator -->
<g id="node1" class="node">
<title>Program change operator</title>
<polygon fill="#ffffff" stroke="black" points="1079.8,-1193.6 886.8,-1193.6 886.8,-1157.6 1079.8,-1157.6 1079.8,-1193.6"/>
<text text-anchor="middle" x="983.3" y="-1171.9" font-family="Sans Not-Rotated 14" font-size="14.00">Program change operator</text>
</g>
<!-- Yellow zone Therapy control operator -->
<g id="node12" class="node">
<title>Yellow zone Therapy control operator</title>
<polygon fill="#e0ddf4" stroke="black" points="1035.3,-1097.3 757.3,-1097.3 757.3,-1061.3 1035.3,-1061.3 1035.3,-1097.3"/>
<text text-anchor="middle" x="896.3" y="-1075.6" font-family="Sans Not-Rotated 14" font-size="14.00">Yellow zone Therapy control operator</text>
</g>
<!-- Program change operator&#45;&gt;Yellow zone Therapy control operator -->
<g id="edge1" class="edge">
<title>Program change operator&#45;&gt;Yellow zone Therapy control operator</title>
<path fill="none" stroke="black" stroke-width="1.04" d="M967.34,-1157.3C953.85,-1142.68 934.36,-1121.55 919.2,-1105.12"/>
<polygon fill="black" stroke="black" stroke-width="1.04" points="921.51,-1102.46 912.15,-1097.48 916.36,-1107.21 921.51,-1102.46"/>
<text text-anchor="middle" x="959.8" y="-1128.4" font-family="Sans Not-Rotated 14" font-size="14.00"> &#160;&#160;&#160;</text>
</g>
<!-- Kit return nurse -->
<g id="node2" class="node">
<title>Kit return nurse</title>
<polygon fill="#ffffff" stroke="black" points="952.3,-131 824.3,-131 824.3,-95 952.3,-95 952.3,-131"/>
<text text-anchor="middle" x="888.3" y="-109.3" font-family="Sans Not-Rotated 14" font-size="14.00">Kit return nurse</text>
</g>
<!-- end -->
<g id="node19" class="node">
<title>end</title>
<ellipse fill="#ea4126" stroke="black" cx="791.3" cy="-22" rx="18" ry="18"/>
<ellipse fill="none" stroke="black" cx="791.3" cy="-22" rx="22" ry="22"/>
</g>
<!-- Kit return nurse&#45;&gt;end -->
<g id="edge35" class="edge">
<title>Kit return nurse&#45;&gt;end</title>
<path fill="none" stroke="black" stroke-dasharray="5,2" d="M869.6,-94.84C853.98,-80.51 831.64,-60.02 814.82,-44.58"/>
<polygon fill="black" stroke="black" points="816.79,-41.64 807.06,-37.46 812.06,-46.8 816.79,-41.64"/>
<text text-anchor="middle" x="858.8" y="-65.8" font-family="Sans Not-Rotated 14" font-size="14.00"> &#160;&#160;&#160;</text>
</g>
<!-- Red zone operator -->
<g id="node3" class="node">
<title>Red zone operator</title>
<polygon fill="#1d2559" stroke="black" points="500.8,-1001 355.8,-1001 355.8,-965 500.8,-965 500.8,-1001"/>
<text text-anchor="middle" x="428.3" y="-979.3" font-family="Sans Not-Rotated 14" font-size="14.00" fill="white">Red zone operator</text>
</g>
<!-- Red zone operator&#45;&gt;Red zone operator -->
<g id="edge50" class="edge">
<title>Red zone operator&#45;&gt;Red zone operator</title>
<path fill="none" stroke="black" stroke-width="1.53" d="M501.09,-990.11C511.67,-988.98 518.8,-986.61 518.8,-983 518.8,-980.69 515.87,-978.88 510.99,-977.59"/>
<polygon fill="black" stroke="black" stroke-width="1.53" points="511.53,-974.13 501.09,-975.89 510.35,-981.03 511.53,-974.13"/>
<text text-anchor="middle" x="539.3" y="-979.3" font-family="Sans Not-Rotated 14" font-size="14.00"> &#160;&#160;&#160;&#160;&#160;&#160;&#160;&#160;</text>
</g>
<!-- Red zone doctor FD -->
<g id="node4" class="node">
<title>Red zone doctor FD</title>
<polygon fill="#1d2559" stroke="black" points="628.8,-914 475.8,-914 475.8,-878 628.8,-878 628.8,-914"/>
<text text-anchor="middle" x="552.3" y="-892.3" font-family="Sans Not-Rotated 14" font-size="14.00" fill="white">Red zone doctor FD</text>
</g>
<!-- Red zone operator&#45;&gt;Red zone doctor FD -->
<g id="edge11" class="edge">
<title>Red zone operator&#45;&gt;Red zone doctor FD</title>
<path fill="none" stroke="black" stroke-width="3.35" d="M426.34,-964.83C426.09,-954.19 427.65,-940.91 435.3,-932 443.58,-922.35 454.4,-915.31 466.12,-910.17"/>
<polygon fill="black" stroke="black" stroke-width="3.35" points="467.63,-913.34 475.68,-906.45 465.09,-906.82 467.63,-913.34"/>
<text text-anchor="middle" x="471.8" y="-935.8" font-family="Sans Not-Rotated 14" font-size="14.00"> &#160;&#160;&#160;&#160;&#160;&#160;&#160;&#160;&#160;&#160;&#160;&#160;&#160;&#160;&#160;</text>
</g>
<!-- Red zone measmissing operator -->
<g id="node5" class="node">
<title>Red zone measmissing operator</title>
<polygon fill="#ffffff" stroke="black" points="516.3,-566 280.3,-566 280.3,-530 516.3,-530 516.3,-566"/>
<text text-anchor="middle" x="398.3" y="-544.3" font-family="Sans Not-Rotated 14" font-size="14.00">Red zone measmissing operator</text>
</g>
<!-- Red zone operator&#45;&gt;Red zone measmissing operator -->
<g id="edge13" class="edge">
<title>Red zone operator&#45;&gt;Red zone measmissing operator</title>
<path fill="none" stroke="black" stroke-width="1" d="M422.73,-964.97C411.41,-931.06 384.14,-853.05 353.3,-791 349.12,-782.6 344.84,-782.03 342.3,-773 331.05,-733.02 364.25,-741.36 387.3,-653 393.93,-627.57 396.58,-597.64 397.63,-576.44"/>
<polygon fill="black" stroke="black" stroke-width="1" points="401.14,-576.35 398.04,-566.21 394.14,-576.06 401.14,-576.35"/>
<text text-anchor="middle" x="344.8" y="-761.8" font-family="Sans Not-Rotated 14" font-size="14.00"> </text>
</g>
<!-- Red zone doctor -->
<g id="node8" class="node">
<title>Red zone doctor</title>
<polygon fill="#1f3b98" stroke="black" points="378.8,-653 249.8,-653 249.8,-617 378.8,-617 378.8,-653"/>
<text text-anchor="middle" x="314.3" y="-631.3" font-family="Sans Not-Rotated 14" font-size="14.00" fill="white">Red zone doctor</text>
</g>
<!-- Red zone operator&#45;&gt;Red zone doctor -->
<g id="edge20" class="edge">
<title>Red zone operator&#45;&gt;Red zone doctor</title>
<path fill="none" stroke="black" stroke-width="5" d="M355.41,-969.45C316.4,-958.1 276.3,-936.76 276.3,-897 276.3,-897 276.3,-897 276.3,-721 276.3,-699.92 286.16,-678.26 295.83,-662.08"/>
<polygon fill="black" stroke="black" stroke-width="5" points="299.78,-664.02 301.43,-653.23 292.39,-659.34 299.78,-664.02"/>
<text text-anchor="middle" x="312.8" y="-805.3" font-family="Sans Not-Rotated 14" font-size="14.00"> &#160;&#160;&#160;&#160;&#160;&#160;&#160;&#160;&#160;&#160;&#160;&#160;&#160;&#160;&#160;</text>
</g>
<!-- Red zone doctor FD&#45;&gt;Red zone operator -->
<g id="edge7" class="edge">
<title>Red zone doctor FD&#45;&gt;Red zone operator</title>
<path fill="none" stroke="black" stroke-width="3.44" d="M541.81,-914.14C534.6,-924.76 524.2,-938.04 512.3,-947 505.49,-952.12 497.83,-956.64 489.97,-960.58"/>
<polygon fill="black" stroke="black" stroke-width="3.44" points="488.26,-957.52 480.7,-964.94 491.24,-963.85 488.26,-957.52"/>
<text text-anchor="middle" x="564.8" y="-935.8" font-family="Sans Not-Rotated 14" font-size="14.00"> &#160;&#160;&#160;&#160;&#160;&#160;&#160;&#160;&#160;&#160;&#160;&#160;&#160;&#160;&#160;</text>
</g>
<!-- Red zone doctor FD&#45;&gt;Red zone doctor FD -->
<g id="edge51" class="edge">
<title>Red zone doctor FD&#45;&gt;Red zone doctor FD</title>
<path fill="none" stroke="black" stroke-width="2.55" d="M629.05,-903.03C639.69,-901.87 646.8,-899.53 646.8,-896 646.8,-893.74 643.88,-891.97 638.99,-890.68"/>
<polygon fill="black" stroke="black" stroke-width="2.55" points="639.5,-887.22 629.05,-888.97 638.31,-894.12 639.5,-887.22"/>
<text text-anchor="middle" x="683.3" y="-892.3" font-family="Sans Not-Rotated 14" font-size="14.00"> &#160;&#160;&#160;&#160;&#160;&#160;&#160;&#160;&#160;&#160;&#160;&#160;&#160;&#160;&#160;</text>
</g>
<!-- Red zone doctor FD&#45;&gt;Red zone measmissing operator -->
<g id="edge12" class="edge">
<title>Red zone doctor FD&#45;&gt;Red zone measmissing operator</title>
<path fill="none" stroke="black" stroke-width="1" d="M529.39,-877.69C524,-872.56 518.81,-866.54 515.3,-860 474.94,-784.88 514.55,-749.93 482.3,-671 467.24,-634.16 439.69,-597.28 420.26,-573.87"/>
<polygon fill="black" stroke="black" stroke-width="1" points="422.88,-571.55 413.75,-566.17 417.53,-576.07 422.88,-571.55"/>
<text text-anchor="middle" x="498.8" y="-718.3" font-family="Sans Not-Rotated 14" font-size="14.00"> </text>
</g>
<!-- Yellow zone doctor FD -->
<g id="node6" class="node">
<title>Yellow zone doctor FD</title>
<polygon fill="#5661c6" stroke="black" points="784.8,-740 611.8,-740 611.8,-704 784.8,-704 784.8,-740"/>
<text text-anchor="middle" x="698.3" y="-718.3" font-family="Sans Not-Rotated 14" font-size="14.00" fill="white">Yellow zone doctor FD</text>
</g>
<!-- Red zone doctor FD&#45;&gt;Yellow zone doctor FD -->
<g id="edge16" class="edge">
<title>Red zone doctor FD&#45;&gt;Yellow zone doctor FD</title>
<path fill="none" stroke="black" stroke-width="1.5" d="M570.95,-877.76C576.88,-872.17 583.43,-865.89 589.3,-860 603.5,-845.75 607.35,-842.41 620.3,-827 642.12,-801.03 665.2,-769.71 680.55,-748.27"/>
<polygon fill="black" stroke="black" stroke-width="1.5" points="683.48,-750.19 686.42,-740.01 677.77,-746.13 683.48,-750.19"/>
<text text-anchor="middle" x="669.8" y="-805.3" font-family="Sans Not-Rotated 14" font-size="14.00"> &#160;&#160;&#160;&#160;&#160;&#160;&#160;&#160;</text>
</g>
<!-- Red zone doctor FD&#45;&gt;Red zone doctor -->
<g id="edge36" class="edge">
<title>Red zone doctor FD&#45;&gt;Red zone doctor</title>
<path fill="none" stroke="black" stroke-width="1.73" d="M502.63,-877.96C493.43,-873.19 484.46,-867.26 477.3,-860 442.36,-824.61 459.13,-799.21 431.3,-758 405.69,-720.09 367.89,-683.12 342.24,-659.99"/>
<polygon fill="black" stroke="black" stroke-width="1.73" points="344.49,-657.31 334.7,-653.28 339.84,-662.54 344.49,-657.31"/>
<text text-anchor="middle" x="460.8" y="-761.8" font-family="Sans Not-Rotated 14" font-size="14.00"> &#160;&#160;&#160;&#160;&#160;&#160;&#160;&#160;</text>
</g>
<!-- Red zone doctor FD&#45;&gt;Yellow zone Therapy control operator -->
<g id="edge23" class="edge">
<title>Red zone doctor FD&#45;&gt;Yellow zone Therapy control operator</title>
<path fill="none" stroke="black" stroke-width="1.22" d="M628.92,-902.84C684.53,-908.18 754.23,-917.5 779.3,-932 828.44,-960.44 864.97,-1018.13 883.24,-1051.95"/>
<polygon fill="black" stroke="black" stroke-width="1.22" points="880.14,-1053.59 887.9,-1060.81 886.34,-1050.33 880.14,-1053.59"/>
<text text-anchor="middle" x="870.8" y="-979.3" font-family="Sans Not-Rotated 14" font-size="14.00"> &#160;&#160;&#160;&#160;&#160;&#160;&#160;&#160;</text>
</g>
<!-- Notification operator -->
<g id="node14" class="node">
<title>Notification operator</title>
<polygon fill="#1946ba" stroke="black" points="977.8,-653 818.8,-653 818.8,-617 977.8,-617 977.8,-653"/>
<text text-anchor="middle" x="898.3" y="-631.3" font-family="Sans Not-Rotated 14" font-size="14.00" fill="white">Notification operator</text>
</g>
<!-- Red zone doctor FD&#45;&gt;Notification operator -->
<g id="edge26" class="edge">
<title>Red zone doctor FD&#45;&gt;Notification operator</title>
<path fill="none" stroke="black" stroke-width="1.58" d="M628.83,-892.49C696.44,-887.19 795.48,-871.62 869.3,-827 914.51,-799.67 930.95,-789.16 950.3,-740 961.31,-712.02 941.9,-681.38 923.74,-660.66"/>
<polygon fill="black" stroke="black" stroke-width="1.58" points="926.25,-658.22 916.91,-653.23 921.1,-662.96 926.25,-658.22"/>
<text text-anchor="middle" x="963.8" y="-761.8" font-family="Sans Not-Rotated 14" font-size="14.00"> &#160;&#160;&#160;&#160;&#160;&#160;&#160;&#160;</text>
</g>
<!-- Yellow zone doctor -->
<g id="node17" class="node">
<title>Yellow zone doctor</title>
<polygon fill="#7d7fd2" stroke="black" points="860.8,-827 711.8,-827 711.8,-791 860.8,-791 860.8,-827"/>
<text text-anchor="middle" x="786.3" y="-805.3" font-family="Sans Not-Rotated 14" font-size="14.00">Yellow zone doctor</text>
</g>
<!-- Red zone doctor FD&#45;&gt;Yellow zone doctor -->
<g id="edge31" class="edge">
<title>Red zone doctor FD&#45;&gt;Yellow zone doctor</title>
<path fill="none" stroke="black" stroke-width="2.06" d="M611.83,-877.91C629.48,-872.53 648.77,-866.33 666.3,-860 690.43,-851.29 716.79,-840.46 738.65,-831.1"/>
<polygon fill="black" stroke="black" stroke-width="2.06" points="740.23,-834.23 748.03,-827.06 737.46,-827.8 740.23,-834.23"/>
<text text-anchor="middle" x="723.8" y="-848.8" font-family="Sans Not-Rotated 14" font-size="14.00"> &#160;&#160;&#160;&#160;&#160;&#160;&#160;&#160;</text>
</g>
<!-- Red zone measmissing operator&#45;&gt;Red zone operator -->
<g id="edge38" class="edge">
<title>Red zone measmissing operator&#45;&gt;Red zone operator</title>
<path fill="none" stroke="black" stroke-width="1" d="M347.87,-566C315.79,-577.93 274.08,-595.56 240.3,-617 194.13,-646.3 173.57,-653.21 153.3,-704 132.99,-754.88 139.72,-772.5 145.3,-827 151.2,-884.65 144.57,-920.88 196.3,-947 221.93,-959.94 289.68,-969.24 345.4,-974.99"/>
<polygon fill="black" stroke="black" stroke-width="1" points="345.35,-978.5 355.65,-976.02 346.05,-971.54 345.35,-978.5"/>
<text text-anchor="middle" x="142.8" y="-761.8" font-family="Sans Not-Rotated 14" font-size="14.00"> </text>
</g>
<!-- Red zone measmissing operator&#45;&gt;Red zone doctor FD -->
<g id="edge37" class="edge">
<title>Red zone measmissing operator&#45;&gt;Red zone doctor FD</title>
<path fill="none" stroke="black" stroke-width="1" d="M426.34,-566.19C443.81,-578.31 465.34,-596.08 478.3,-617 504.71,-659.66 535.25,-806.62 547.17,-867.87"/>
<polygon fill="black" stroke="black" stroke-width="1" points="543.78,-868.78 549.11,-877.93 550.65,-867.45 543.78,-868.78"/>
<text text-anchor="middle" x="521.8" y="-718.3" font-family="Sans Not-Rotated 14" font-size="14.00"> </text>
</g>
<!-- Red zone measmissing operator&#45;&gt;Red zone doctor -->
<g id="edge39" class="edge">
<title>Red zone measmissing operator&#45;&gt;Red zone doctor</title>
<path fill="none" stroke="black" d="M381.32,-566.18C369.03,-578.61 352.24,-595.6 338.54,-609.47"/>
<polygon fill="black" stroke="black" points="335.84,-607.23 331.3,-616.8 340.81,-612.15 335.84,-607.23"/>
<text text-anchor="middle" x="364.8" y="-587.8" font-family="Sans Not-Rotated 14" font-size="14.00"> </text>
</g>
<!-- Yellow zone doctor FD&#45;&gt;Program change operator -->
<g id="edge4" class="edge">
<title>Yellow zone doctor FD&#45;&gt;Program change operator</title>
<path fill="none" stroke="black" stroke-width="1.03" d="M784.96,-732.9C868.68,-742.54 983.55,-756.03 988.3,-758 1053.64,-785.09 1069.3,-824.26 1069.3,-895 1069.3,-1080.3 1069.3,-1080.3 1069.3,-1080.3 1069.3,-1110.49 1044.93,-1135.26 1022.14,-1151.82"/>
<polygon fill="black" stroke="black" stroke-width="1.03" points="1020.09,-1148.98 1013.86,-1157.55 1024.08,-1154.74 1020.09,-1148.98"/>
<text text-anchor="middle" x="1078.8" y="-935.8" font-family="Sans Not-Rotated 14" font-size="14.00"> &#160;&#160;&#160;</text>
</g>
<!-- Yellow zone doctor FD&#45;&gt;Red zone operator -->
<g id="edge9" class="edge">
<title>Yellow zone doctor FD&#45;&gt;Red zone operator</title>
<path fill="none" stroke="black" stroke-width="1.7" d="M784.85,-731.39C806.99,-736.58 829.75,-744.86 848.3,-758 874.45,-776.54 884.92,-799.01 869.3,-827 806.49,-939.55 730.83,-917.78 605.3,-947 574.6,-954.15 540.69,-961.08 510.83,-966.87"/>
<polygon fill="black" stroke="black" stroke-width="1.7" points="510.03,-963.46 500.87,-968.78 511.35,-970.33 510.03,-963.46"/>
<text text-anchor="middle" x="878.8" y="-848.8" font-family="Sans Not-Rotated 14" font-size="14.00"> &#160;&#160;&#160;&#160;&#160;&#160;&#160;&#160;</text>
</g>
<!-- Yellow zone doctor FD&#45;&gt;Red zone doctor FD -->
<g id="edge40" class="edge">
<title>Yellow zone doctor FD&#45;&gt;Red zone doctor FD</title>
<path fill="none" stroke="black" stroke-width="1.33" d="M646.5,-740.05C621.41,-750.86 592.97,-767.35 575.3,-791 558.75,-813.15 553.68,-844.91 552.33,-867.49"/>
<polygon fill="black" stroke="black" stroke-width="1.33" points="548.83,-867.63 551.94,-877.76 555.82,-867.9 548.83,-867.63"/>
<text text-anchor="middle" x="595.8" y="-805.3" font-family="Sans Not-Rotated 14" font-size="14.00"> &#160;&#160;&#160;&#160;&#160;&#160;&#160;&#160;</text>
</g>
<!-- Yellow zone doctor FD&#45;&gt;Red zone doctor -->
<g id="edge41" class="edge">
<title>Yellow zone doctor FD&#45;&gt;Red zone doctor</title>
<path fill="none" stroke="black" stroke-width="1.29" d="M621.05,-703.9C553.45,-688.94 455.88,-667.34 389.03,-652.54"/>
<polygon fill="black" stroke="black" stroke-width="1.29" points="389.51,-649.06 378.99,-650.32 388,-655.9 389.51,-649.06"/>
<text text-anchor="middle" x="549.8" y="-674.8" font-family="Sans Not-Rotated 14" font-size="14.00"> &#160;&#160;&#160;&#160;&#160;&#160;&#160;&#160;</text>
</g>
<!-- Yellow zone doctor FD&#45;&gt;Notification operator -->
<g id="edge25" class="edge">
<title>Yellow zone doctor FD&#45;&gt;Notification operator</title>
<path fill="none" stroke="black" stroke-width="1.95" d="M694.41,-703.69C693.09,-692.99 693.55,-679.7 701.3,-671 715.82,-654.69 763.6,-645.96 808.47,-641.29"/>
<polygon fill="black" stroke="black" stroke-width="1.95" points="808.97,-644.76 818.58,-640.3 808.29,-637.8 808.97,-644.76"/>
<text text-anchor="middle" x="721.8" y="-674.8" font-family="Sans Not-Rotated 14" font-size="14.00"> &#160;&#160;&#160;&#160;&#160;&#160;&#160;&#160;</text>
</g>
<!-- Yellow zone doctor FD&#45;&gt;Yellow zone doctor -->
<g id="edge32" class="edge">
<title>Yellow zone doctor FD&#45;&gt;Yellow zone doctor</title>
<path fill="none" stroke="black" stroke-width="2.17" d="M735.8,-740.15C744.18,-745.11 752.57,-751.09 759.3,-758 765.83,-764.7 771.23,-773.31 775.44,-781.48"/>
<polygon fill="black" stroke="black" stroke-width="2.17" points="772.38,-783.2 779.83,-790.74 778.71,-780.2 772.38,-783.2"/>
<text text-anchor="middle" x="807.8" y="-761.8" font-family="Sans Not-Rotated 14" font-size="14.00"> &#160;&#160;&#160;&#160;&#160;&#160;&#160;&#160;&#160;&#160;&#160;&#160;&#160;&#160;&#160;</text>
</g>
<!-- Monitoring completed doctor -->
<g id="node7" class="node">
<title>Monitoring completed doctor</title>
<polygon fill="#ffffff" stroke="black" points="1139.3,-392 925.3,-392 925.3,-356 1139.3,-356 1139.3,-392"/>
<text text-anchor="middle" x="1032.3" y="-370.3" font-family="Sans Not-Rotated 14" font-size="14.00">Monitoring completed doctor</text>
</g>
<!-- Monitoring completed doctor FD -->
<g id="node15" class="node">
<title>Monitoring completed doctor FD</title>
<polygon fill="#ffffff" stroke="black" points="1012.3,-305 774.3,-305 774.3,-269 1012.3,-269 1012.3,-305"/>
<text text-anchor="middle" x="893.3" y="-283.3" font-family="Sans Not-Rotated 14" font-size="14.00">Monitoring completed doctor FD</text>
</g>
<!-- Monitoring completed doctor&#45;&gt;Monitoring completed doctor FD -->
<g id="edge30" class="edge">
<title>Monitoring completed doctor&#45;&gt;Monitoring completed doctor FD</title>
<path fill="none" stroke="black" stroke-width="1.03" d="M1004.17,-355.8C982.78,-342.72 953.19,-324.62 929.95,-310.41"/>
<polygon fill="black" stroke="black" stroke-width="1.03" points="931.74,-307.41 921.38,-305.18 928.09,-313.38 931.74,-307.41"/>
<text text-anchor="middle" x="980.8" y="-326.8" font-family="Sans Not-Rotated 14" font-size="14.00"> &#160;&#160;&#160;</text>
</g>
<!-- Red zone doctor&#45;&gt;Red zone operator -->
<g id="edge6" class="edge">
<title>Red zone doctor&#45;&gt;Red zone operator</title>
<path fill="none" stroke="black" stroke-width="3.47" d="M249.39,-647.6C210.01,-658.8 167.3,-680.32 167.3,-721 167.3,-897 167.3,-897 167.3,-897 167.3,-935.08 269.03,-958.74 345.46,-971.15"/>
<polygon fill="black" stroke="black" stroke-width="3.47" points="345.17,-974.65 355.59,-972.75 346.26,-967.73 345.17,-974.65"/>
<text text-anchor="middle" x="203.8" y="-805.3" font-family="Sans Not-Rotated 14" font-size="14.00"> &#160;&#160;&#160;&#160;&#160;&#160;&#160;&#160;&#160;&#160;&#160;&#160;&#160;&#160;&#160;</text>
</g>
<!-- Red zone doctor&#45;&gt;Red zone doctor FD -->
<g id="edge10" class="edge">
<title>Red zone doctor&#45;&gt;Red zone doctor FD</title>
<path fill="none" stroke="black" stroke-width="3.51" d="M317.26,-653C322.49,-679.92 335.05,-733.35 358.3,-773 385.02,-818.58 394.56,-831.9 439.3,-860 448.13,-865.55 457.9,-870.27 467.9,-874.28"/>
<polygon fill="black" stroke="black" stroke-width="3.51" points="466.93,-877.65 477.52,-877.9 469.4,-871.1 466.93,-877.65"/>
<text text-anchor="middle" x="394.8" y="-761.8" font-family="Sans Not-Rotated 14" font-size="14.00"> &#160;&#160;&#160;&#160;&#160;&#160;&#160;&#160;&#160;&#160;&#160;&#160;&#160;&#160;&#160;</text>
</g>
<!-- Red zone doctor&#45;&gt;Red zone measmissing operator -->
<g id="edge14" class="edge">
<title>Red zone doctor&#45;&gt;Red zone measmissing operator</title>
<path fill="none" stroke="black" stroke-width="1" d="M320.07,-616.77C324.2,-606.38 330.57,-593.38 339.3,-584 343.4,-579.59 348.19,-575.55 353.23,-571.92"/>
<polygon fill="black" stroke="black" stroke-width="1" points="355.48,-574.63 361.88,-566.18 351.61,-568.79 355.48,-574.63"/>
<text text-anchor="middle" x="341.8" y="-587.8" font-family="Sans Not-Rotated 14" font-size="14.00"> </text>
</g>
<!-- Target levels achieved doctor -->
<g id="node9" class="node">
<title>Target levels achieved doctor</title>
<polygon fill="#ffffff" stroke="black" points="828.8,-566 609.8,-566 609.8,-530 828.8,-530 828.8,-566"/>
<text text-anchor="middle" x="719.3" y="-544.3" font-family="Sans Not-Rotated 14" font-size="14.00">Target levels achieved doctor</text>
</g>
<!-- Target levels achieved doctor FD -->
<g id="node10" class="node">
<title>Target levels achieved doctor FD</title>
<polygon fill="#ffffff" stroke="black" points="887.8,-479 644.8,-479 644.8,-443 887.8,-443 887.8,-479"/>
<text text-anchor="middle" x="766.3" y="-457.3" font-family="Sans Not-Rotated 14" font-size="14.00">Target levels achieved doctor FD</text>
</g>
<!-- Target levels achieved doctor&#45;&gt;Target levels achieved doctor FD -->
<g id="edge22" class="edge">
<title>Target levels achieved doctor&#45;&gt;Target levels achieved doctor FD</title>
<path fill="none" stroke="black" stroke-width="1" d="M728.81,-529.8C735.43,-517.82 744.39,-501.62 751.89,-488.06"/>
<polygon fill="black" stroke="black" stroke-width="1" points="755.02,-489.62 756.8,-479.18 748.9,-486.23 755.02,-489.62"/>
<text text-anchor="middle" x="748.8" y="-500.8" font-family="Sans Not-Rotated 14" font-size="14.00"> </text>
</g>
<!-- Target levels achieved doctor FD&#45;&gt;Notification operator -->
<g id="edge42" class="edge">
<title>Target levels achieved doctor FD&#45;&gt;Notification operator</title>
<path fill="none" stroke="black" stroke-width="1" d="M787.06,-479.13C802.07,-492.14 822.27,-510.98 837.3,-530 856.74,-554.61 874.32,-586.03 885.56,-607.87"/>
<polygon fill="black" stroke="black" stroke-width="1" points="882.48,-609.54 890.11,-616.88 888.72,-606.38 882.48,-609.54"/>
<text text-anchor="middle" x="864.8" y="-544.3" font-family="Sans Not-Rotated 14" font-size="14.00"> </text>
</g>
<!-- Kit return operator -->
<g id="node11" class="node">
<title>Kit return operator</title>
<polygon fill="#ffffff" stroke="black" points="967.3,-218 819.3,-218 819.3,-182 967.3,-182 967.3,-218"/>
<text text-anchor="middle" x="893.3" y="-196.3" font-family="Sans Not-Rotated 14" font-size="14.00">Kit return operator</text>
</g>
<!-- Kit return operator&#45;&gt;Kit return nurse -->
<g id="edge5" class="edge">
<title>Kit return operator&#45;&gt;Kit return nurse</title>
<path fill="none" stroke="black" stroke-width="1.01" d="M892.29,-181.8C891.6,-170.16 890.68,-154.55 889.9,-141.24"/>
<polygon fill="black" stroke="black" stroke-width="1.01" points="893.39,-140.95 889.31,-131.18 886.4,-141.36 893.39,-140.95"/>
<text text-anchor="middle" x="893.8" y="-152.8" font-family="Sans Not-Rotated 14" font-size="14.00"> </text>
</g>
<!-- Yellow zone Therapy control operator&#45;&gt;Red zone operator -->
<g id="edge43" class="edge">
<title>Yellow zone Therapy control operator&#45;&gt;Red zone operator</title>
<path fill="none" stroke="black" stroke-width="1.17" d="M811.82,-1061.28C726.47,-1044.08 595.46,-1017.68 510.82,-1000.63"/>
<polygon fill="black" stroke="black" stroke-width="1.17" points="511.48,-997.19 500.99,-998.65 510.1,-1004.05 511.48,-997.19"/>
<text text-anchor="middle" x="697.8" y="-1022.8" font-family="Sans Not-Rotated 14" font-size="14.00"> &#160;&#160;&#160;&#160;&#160;&#160;&#160;&#160;</text>
</g>
<!-- Yellow zone Therapy control operator&#45;&gt;Red zone doctor FD -->
<g id="edge45" class="edge">
<title>Yellow zone Therapy control operator&#45;&gt;Red zone doctor FD</title>
<path fill="none" stroke="black" stroke-width="1.09" d="M863.93,-1061.24C801.19,-1028.17 663.08,-955.39 593.74,-918.84"/>
<polygon fill="black" stroke="black" stroke-width="1.09" points="595.3,-915.71 584.82,-914.14 592.04,-921.9 595.3,-915.71"/>
<text text-anchor="middle" x="756.8" y="-979.3" font-family="Sans Not-Rotated 14" font-size="14.00"> &#160;&#160;&#160;</text>
</g>
<!-- Yellow zone Therapy control operator&#45;&gt;Red zone doctor -->
<g id="edge46" class="edge">
<title>Yellow zone Therapy control operator&#45;&gt;Red zone doctor</title>
<path fill="none" stroke="black" stroke-width="1.06" d="M757,-1076.06C524.67,-1070.46 83.3,-1051.01 83.3,-984 83.3,-984 83.3,-984 83.3,-851.5 83.3,-760.64 103.22,-720.69 179.3,-671 189.9,-664.07 214.38,-656.96 239.63,-650.98"/>
<polygon fill="black" stroke="black" stroke-width="1.06" points="240.73,-654.31 249.69,-648.66 239.16,-647.49 240.73,-654.31"/>
<text text-anchor="middle" x="92.8" y="-848.8" font-family="Sans Not-Rotated 14" font-size="14.00"> &#160;&#160;&#160;</text>
</g>
<!-- Yellow zone Therapy control operator&#45;&gt;Notification operator -->
<g id="edge44" class="edge">
<title>Yellow zone Therapy control operator&#45;&gt;Notification operator</title>
<path fill="none" stroke="black" stroke-width="1.12" d="M909.48,-1061.29C938.63,-1022.46 1007.94,-923.18 1032.3,-827 1050.53,-754.99 1028.52,-719.55 972.3,-671 966.68,-666.15 960.27,-661.82 953.63,-658"/>
<polygon fill="black" stroke="black" stroke-width="1.12" points="954.95,-654.74 944.48,-653.11 951.65,-660.91 954.95,-654.74"/>
<text text-anchor="middle" x="1047.8" y="-848.8" font-family="Sans Not-Rotated 14" font-size="14.00"> &#160;&#160;&#160;&#160;&#160;&#160;&#160;&#160;</text>
</g>
<!-- Meas missing operator -->
<g id="node13" class="node">
<title>Meas missing operator</title>
<polygon fill="#a09dde" stroke="black" points="1059.8,-566 888.8,-566 888.8,-530 1059.8,-530 1059.8,-566"/>
<text text-anchor="middle" x="974.3" y="-544.3" font-family="Sans Not-Rotated 14" font-size="14.00">Meas missing operator</text>
</g>
<!-- Meas missing operator&#45;&gt;Monitoring completed doctor -->
<g id="edge18" class="edge">
<title>Meas missing operator&#45;&gt;Monitoring completed doctor</title>
<path fill="none" stroke="black" stroke-width="1.01" d="M974.71,-529.64C975.27,-519.92 976.53,-507.64 979.3,-497 988.29,-462.47 1005.73,-425.19 1018.15,-401.05"/>
<polygon fill="black" stroke="black" stroke-width="1.01" points="1021.26,-402.65 1022.8,-392.17 1015.06,-399.4 1021.26,-402.65"/>
<text text-anchor="middle" x="1007.8" y="-457.3" font-family="Sans Not-Rotated 14" font-size="14.00"> &#160;&#160;&#160;</text>
</g>
<!-- Meas missing operator&#45;&gt;Notification operator -->
<g id="edge29" class="edge">
<title>Meas missing operator&#45;&gt;Notification operator</title>
<path fill="none" stroke="black" stroke-width="1.47" d="M977.8,-566.1C978.96,-576.44 978.63,-589.44 972.3,-599 969.33,-603.48 965.63,-607.4 961.48,-610.82"/>
<polygon fill="black" stroke="black" stroke-width="1.47" points="959.14,-608.19 953,-616.82 963.19,-613.9 959.14,-608.19"/>
<text text-anchor="middle" x="998.8" y="-587.8" font-family="Sans Not-Rotated 14" font-size="14.00"> &#160;&#160;&#160;&#160;&#160;&#160;&#160;&#160;</text>
</g>
<!-- Meas missing doctor -->
<g id="node16" class="node">
<title>Meas missing doctor</title>
<polygon fill="#c0bde9" stroke="black" points="1256.8,-479 1101.8,-479 1101.8,-443 1256.8,-443 1256.8,-479"/>
<text text-anchor="middle" x="1179.3" y="-457.3" font-family="Sans Not-Rotated 14" font-size="14.00">Meas missing doctor</text>
</g>
<!-- Meas missing operator&#45;&gt;Meas missing doctor -->
<g id="edge2" class="edge">
<title>Meas missing operator&#45;&gt;Meas missing doctor</title>
<path fill="none" stroke="black" stroke-width="2.59" d="M976.52,-529.68C978.86,-518.71 983.61,-505.11 993.3,-497 1008.55,-484.24 1050.94,-475.72 1091.42,-470.29"/>
<polygon fill="black" stroke="black" stroke-width="2.59" points="1091.9,-473.75 1101.37,-469.01 1091.01,-466.81 1091.9,-473.75"/>
<text text-anchor="middle" x="1029.8" y="-500.8" font-family="Sans Not-Rotated 14" font-size="14.00"> &#160;&#160;&#160;&#160;&#160;&#160;&#160;&#160;&#160;&#160;&#160;&#160;&#160;&#160;&#160;</text>
</g>
<!-- Notification operator&#45;&gt;Red zone operator -->
<g id="edge48" class="edge">
<title>Notification operator&#45;&gt;Red zone operator</title>
<path fill="none" stroke="black" stroke-width="1.37" d="M931.62,-653.18C939.12,-658.17 946.55,-664.16 952.3,-671 979.21,-703.05 980.25,-716.93 988.3,-758 999.64,-815.91 949.23,-822.95 903.3,-860 868.17,-888.34 859.14,-897.09 817.3,-914 716.71,-954.63 591.86,-971.02 511.16,-977.6"/>
<polygon fill="black" stroke="black" stroke-width="1.37" points="510.75,-974.12 501.05,-978.39 511.3,-981.1 510.75,-974.12"/>
<text text-anchor="middle" x="1007.8" y="-805.3" font-family="Sans Not-Rotated 14" font-size="14.00"> &#160;&#160;&#160;&#160;&#160;&#160;&#160;&#160;</text>
</g>
<!-- Notification operator&#45;&gt;Yellow zone doctor FD -->
<g id="edge47" class="edge">
<title>Notification operator&#45;&gt;Yellow zone doctor FD</title>
<path fill="none" stroke="black" stroke-width="1.32" d="M818.74,-651.94C801.02,-656.89 782.66,-663.17 766.3,-671 758.23,-674.86 742.4,-686.41 728.04,-697.43"/>
<polygon fill="black" stroke="black" stroke-width="1.32" points="725.59,-694.9 719.83,-703.8 729.88,-700.44 725.59,-694.9"/>
<text text-anchor="middle" x="786.8" y="-674.8" font-family="Sans Not-Rotated 14" font-size="14.00"> &#160;&#160;&#160;&#160;&#160;&#160;&#160;&#160;</text>
</g>
<!-- Notification operator&#45;&gt;Monitoring completed doctor -->
<g id="edge19" class="edge">
<title>Notification operator&#45;&gt;Monitoring completed doctor</title>
<path fill="none" stroke="black" stroke-width="1.01" d="M978.01,-625.3C1013.58,-616.66 1051.27,-599.6 1068.3,-566 1095.79,-511.75 1066.73,-439.22 1047.12,-401.04"/>
<polygon fill="black" stroke="black" stroke-width="1.01" points="1050.15,-399.29 1042.38,-392.1 1043.97,-402.57 1050.15,-399.29"/>
<text text-anchor="middle" x="1089.8" y="-500.8" font-family="Sans Not-Rotated 14" font-size="14.00"> &#160;&#160;&#160;</text>
</g>
<!-- Notification operator&#45;&gt;Target levels achieved doctor -->
<g id="edge21" class="edge">
<title>Notification operator&#45;&gt;Target levels achieved doctor</title>
<path fill="none" stroke="black" stroke-width="1" d="M862.07,-616.8C833.84,-603.39 794.48,-584.7 764.23,-570.34"/>
<polygon fill="black" stroke="black" stroke-width="1" points="765.7,-567.16 755.16,-566.03 762.69,-573.48 765.7,-567.16"/>
<text text-anchor="middle" x="822.8" y="-587.8" font-family="Sans Not-Rotated 14" font-size="14.00"> </text>
</g>
<!-- Notification operator&#45;&gt;Meas missing operator -->
<g id="edge24" class="edge">
<title>Notification operator&#45;&gt;Meas missing operator</title>
<path fill="none" stroke="black" stroke-width="2.78" d="M894.37,-616.93C892.97,-606.6 893.04,-593.6 899.3,-584 902.21,-579.52 905.86,-575.61 909.97,-572.19"/>
<polygon fill="black" stroke="black" stroke-width="2.78" points="912.26,-574.86 918.37,-566.2 908.19,-569.16 912.26,-574.86"/>
<text text-anchor="middle" x="935.8" y="-587.8" font-family="Sans Not-Rotated 14" font-size="14.00"> &#160;&#160;&#160;&#160;&#160;&#160;&#160;&#160;&#160;&#160;&#160;&#160;&#160;&#160;&#160;</text>
</g>
<!-- Notification operator&#45;&gt;Notification operator -->
<g id="edge52" class="edge">
<title>Notification operator&#45;&gt;Notification operator</title>
<path fill="none" stroke="black" stroke-width="2.07" d="M977.87,-641.99C988.63,-640.82 995.8,-638.49 995.8,-635 995.8,-632.77 992.86,-631.01 987.91,-629.72"/>
<polygon fill="black" stroke="black" stroke-width="2.07" points="988.31,-626.24 977.87,-628.01 987.14,-633.14 988.31,-626.24"/>
<text text-anchor="middle" x="1016.3" y="-631.3" font-family="Sans Not-Rotated 14" font-size="14.00"> &#160;&#160;&#160;&#160;&#160;&#160;&#160;&#160;</text>
</g>
<!-- Notification operator&#45;&gt;Yellow zone doctor -->
<g id="edge33" class="edge">
<title>Notification operator&#45;&gt;Yellow zone doctor</title>
<path fill="none" stroke="black" stroke-width="1.69" d="M884.37,-653.01C874.47,-666.11 861.82,-685.12 855.3,-704 845.24,-733.14 865.16,-747.2 848.3,-773 845.41,-777.41 841.77,-781.33 837.7,-784.79"/>
<polygon fill="black" stroke="black" stroke-width="1.69" points="835.4,-782.13 829.43,-790.89 839.55,-787.77 835.4,-782.13"/>
<text text-anchor="middle" x="875.8" y="-718.3" font-family="Sans Not-Rotated 14" font-size="14.00"> &#160;&#160;&#160;&#160;&#160;&#160;&#160;&#160;</text>
</g>
<!-- Notification operator&#45;&gt;end -->
<g id="edge34" class="edge">
<title>Notification operator&#45;&gt;end</title>
<path fill="none" stroke="black" stroke-dasharray="5,2" d="M818.71,-628.42C724.81,-619.59 581.3,-598.07 581.3,-549 581.3,-549 581.3,-549 581.3,-112 581.3,-35.77 700.06,-23.86 758.96,-22.64"/>
<polygon fill="black" stroke="black" points="759.26,-26.14 769.22,-22.52 759.18,-19.14 759.26,-26.14"/>
<text text-anchor="middle" x="601.8" y="-326.8" font-family="Sans Not-Rotated 14" font-size="14.00"> &#160;&#160;&#160;&#160;&#160;&#160;&#160;&#160;</text>
</g>
<!-- Monitoring completed doctor FD&#45;&gt;Kit return operator -->
<g id="edge3" class="edge">
<title>Monitoring completed doctor FD&#45;&gt;Kit return operator</title>
<path fill="none" stroke="black" stroke-width="1" d="M893.3,-268.8C893.3,-257.16 893.3,-241.55 893.3,-228.24"/>
<polygon fill="black" stroke="black" stroke-width="1" points="896.8,-228.18 893.3,-218.18 889.8,-228.18 896.8,-228.18"/>
<text text-anchor="middle" x="895.8" y="-239.8" font-family="Sans Not-Rotated 14" font-size="14.00"> </text>
</g>
<!-- Monitoring completed doctor FD&#45;&gt;end -->
<g id="edge49" class="edge">
<title>Monitoring completed doctor FD&#45;&gt;end</title>
<path fill="none" stroke="black" stroke-dasharray="5,2" d="M861.9,-268.86C843.59,-257.09 821.89,-239.69 810.3,-218 782.34,-165.68 783.66,-94.13 787.34,-53.85"/>
<polygon fill="black" stroke="black" points="790.83,-54.14 788.36,-43.83 783.86,-53.43 790.83,-54.14"/>
<text text-anchor="middle" x="801.8" y="-152.8" font-family="Sans Not-Rotated 14" font-size="14.00"> &#160;&#160;&#160;</text>
</g>
<!-- Meas missing doctor&#45;&gt;Monitoring completed doctor -->
<g id="edge17" class="edge">
<title>Meas missing doctor&#45;&gt;Monitoring completed doctor</title>
<path fill="none" stroke="black" stroke-width="1.01" d="M1149.55,-442.8C1126.84,-429.66 1095.36,-411.46 1070.73,-397.22"/>
<polygon fill="black" stroke="black" stroke-width="1.01" points="1072.41,-394.15 1062,-392.18 1068.91,-400.21 1072.41,-394.15"/>
<text text-anchor="middle" x="1123.8" y="-413.8" font-family="Sans Not-Rotated 14" font-size="14.00"> &#160;&#160;&#160;</text>
</g>
<!-- Meas missing doctor&#45;&gt;Notification operator -->
<g id="edge27" class="edge">
<title>Meas missing doctor&#45;&gt;Notification operator</title>
<path fill="none" stroke="black" stroke-width="2.15" d="M1174.89,-479.13C1166.32,-508.77 1144.44,-569.28 1102.3,-599 1083.73,-612.1 1033.72,-620.8 987.86,-626.25"/>
<polygon fill="black" stroke="black" stroke-width="2.15" points="987.39,-622.78 977.85,-627.39 988.19,-629.73 987.39,-622.78"/>
<text text-anchor="middle" x="1190.8" y="-544.3" font-family="Sans Not-Rotated 14" font-size="14.00"> &#160;&#160;&#160;&#160;&#160;&#160;&#160;&#160;&#160;&#160;&#160;&#160;&#160;&#160;&#160;</text>
</g>
<!-- Yellow zone doctor&#45;&gt;Yellow zone doctor FD -->
<g id="edge15" class="edge">
<title>Yellow zone doctor&#45;&gt;Yellow zone doctor FD</title>
<path fill="none" stroke="black" stroke-width="3.63" d="M711.43,-793.7C701.57,-788.71 692.68,-782 686.3,-773 681.45,-766.17 681.77,-757.63 684.12,-749.55"/>
<polygon fill="black" stroke="black" stroke-width="3.63" points="687.44,-750.65 687.78,-740.06 680.91,-748.13 687.44,-750.65"/>
<text text-anchor="middle" x="722.8" y="-761.8" font-family="Sans Not-Rotated 14" font-size="14.00"> &#160;&#160;&#160;&#160;&#160;&#160;&#160;&#160;&#160;&#160;&#160;&#160;&#160;&#160;&#160;</text>
</g>
<!-- Yellow zone doctor&#45;&gt;Notification operator -->
<g id="edge28" class="edge">
<title>Yellow zone doctor&#45;&gt;Notification operator</title>
<path fill="none" stroke="black" stroke-width="1.37" d="M861,-791.21C869.55,-786.55 877.32,-780.6 883.3,-773 907.81,-741.85 906.88,-693.65 903.17,-663.51"/>
<polygon fill="black" stroke="black" stroke-width="1.37" points="906.59,-662.69 901.72,-653.28 899.66,-663.68 906.59,-662.69"/>
<text text-anchor="middle" x="925.8" y="-718.3" font-family="Sans Not-Rotated 14" font-size="14.00"> &#160;&#160;&#160;&#160;&#160;&#160;&#160;&#160;</text>
</g>
<!-- start -->
<g id="node18" class="node">
<title>start</title>
<ellipse fill="#95d600" stroke="black" cx="27.3" cy="-1079.3" rx="27.1" ry="27.1"/>
<text text-anchor="middle" x="27.3" y="-1075.6" font-family="Sans Not-Rotated 14" font-size="14.00">start</text>
</g>
<!-- start&#45;&gt;Red zone operator -->
<g id="edge8" class="edge">
<title>start&#45;&gt;Red zone operator</title>
<path fill="none" stroke="black" stroke-dasharray="5,2" d="M53.92,-1072.04C112.48,-1058.27 254.54,-1024.86 345.85,-1003.39"/>
<polygon fill="black" stroke="black" points="346.69,-1006.79 355.63,-1001.09 345.09,-999.97 346.69,-1006.79"/>
<text text-anchor="middle" x="296.8" y="-1022.8" font-family="Sans Not-Rotated 14" font-size="14.00"> &#160;&#160;&#160;&#160;&#160;&#160;&#160;&#160;</text>
</g>
</g>
</svg>
