<?xml version="1.0" encoding="UTF-8" standalone="no"?>
<!DOCTYPE svg PUBLIC "-//W3C//DTD SVG 1.1//EN"
 "http://www.w3.org/Graphics/SVG/1.1/DTD/svg11.dtd">
<!-- Generated by graphviz version 3.0.0 (20220226.1711)
 -->
<!-- Pages: 1 -->
<svg width="899pt" height="1289pt"
 viewBox="0.00 0.00 898.50 1288.60" xmlns="http://www.w3.org/2000/svg" xmlns:xlink="http://www.w3.org/1999/xlink">
<g id="graph0" class="graph" transform="scale(1 1) rotate(0) translate(4 1284.6)">
<polygon fill="white" stroke="transparent" points="-4,4 -4,-1284.6 894.5,-1284.6 894.5,4 -4,4"/>
<!-- Program change operator -->
<g id="node1" class="node">
<title>Program change operator</title>
<polygon fill="#ffffff" stroke="black" points="839,-1280.6 646,-1280.6 646,-1244.6 839,-1244.6 839,-1280.6"/>
<text text-anchor="middle" x="742.5" y="-1258.9" font-family="Sans Not-Rotated 14" font-size="14.00">Program change operator</text>
</g>
<!-- Yellow zone Therapy control operator -->
<g id="node12" class="node">
<title>Yellow zone Therapy control operator</title>
<polygon fill="#e0ddf4" stroke="black" points="614.5,-1184.3 336.5,-1184.3 336.5,-1148.3 614.5,-1148.3 614.5,-1184.3"/>
<text text-anchor="middle" x="475.5" y="-1162.6" font-family="Sans Not-Rotated 14" font-size="14.00">Yellow zone Therapy control operator</text>
</g>
<!-- Program change operator&#45;&gt;Yellow zone Therapy control operator -->
<g id="edge1" class="edge">
<title>Program change operator&#45;&gt;Yellow zone Therapy control operator</title>
<path fill="none" stroke="black" stroke-width="1.04" d="M694.15,-1244.52C649.02,-1228.58 581.61,-1204.77 533.58,-1187.81"/>
<polygon fill="black" stroke="black" stroke-width="1.04" points="534.54,-1184.44 523.94,-1184.41 532.21,-1191.04 534.54,-1184.44"/>
<text text-anchor="middle" x="650" y="-1215.4" font-family="Sans Not-Rotated 14" font-size="14.00"> &#160;&#160;&#160;</text>
</g>
<!-- Kit return nurse -->
<g id="node2" class="node">
<title>Kit return nurse</title>
<polygon fill="#ffffff" stroke="black" points="574.5,-131 446.5,-131 446.5,-95 574.5,-95 574.5,-131"/>
<text text-anchor="middle" x="510.5" y="-109.3" font-family="Sans Not-Rotated 14" font-size="14.00">Kit return nurse</text>
</g>
<!-- end -->
<g id="node19" class="node">
<title>end</title>
<ellipse fill="#ea4126" stroke="black" cx="604.5" cy="-22" rx="18" ry="18"/>
<ellipse fill="none" stroke="black" cx="604.5" cy="-22" rx="22" ry="22"/>
</g>
<!-- Kit return nurse&#45;&gt;end -->
<g id="edge23" class="edge">
<title>Kit return nurse&#45;&gt;end</title>
<path fill="none" stroke="black" stroke-dasharray="5,2" d="M528.62,-94.84C543.66,-80.6 565.14,-60.27 581.41,-44.86"/>
<polygon fill="black" stroke="black" points="584.07,-47.16 588.93,-37.75 579.26,-42.08 584.07,-47.16"/>
<text text-anchor="middle" x="573" y="-65.8" font-family="Sans Not-Rotated 14" font-size="14.00"> &#160;&#160;&#160;</text>
</g>
<!-- Red zone operator -->
<g id="node3" class="node">
<title>Red zone operator</title>
<polygon fill="#1d2559" stroke="black" points="686,-1088 541,-1088 541,-1052 686,-1052 686,-1088"/>
<text text-anchor="middle" x="613.5" y="-1066.3" font-family="Sans Not-Rotated 14" font-size="14.00" fill="white">Red zone operator</text>
</g>
<!-- Red zone doctor FD -->
<g id="node4" class="node">
<title>Red zone doctor FD</title>
<polygon fill="#1d2559" stroke="black" points="565,-914 412,-914 412,-878 565,-878 565,-914"/>
<text text-anchor="middle" x="488.5" y="-892.3" font-family="Sans Not-Rotated 14" font-size="14.00" fill="white">Red zone doctor FD</text>
</g>
<!-- Red zone operator&#45;&gt;Red zone doctor FD -->
<g id="edge9" class="edge">
<title>Red zone operator&#45;&gt;Red zone doctor FD</title>
<path fill="none" stroke="black" stroke-width="3.35" d="M540.83,-1054.71C510.97,-1044.87 479.27,-1028.41 461.5,-1001 446.07,-977.2 458.5,-944.98 471.13,-922.74"/>
<polygon fill="black" stroke="black" stroke-width="3.35" points="474.13,-924.54 476.29,-914.17 468.14,-920.93 474.13,-924.54"/>
<text text-anchor="middle" x="498" y="-979.3" font-family="Sans Not-Rotated 14" font-size="14.00"> &#160;&#160;&#160;&#160;&#160;&#160;&#160;&#160;&#160;&#160;&#160;&#160;&#160;&#160;&#160;</text>
</g>
<!-- Red zone doctor -->
<g id="node8" class="node">
<title>Red zone doctor</title>
<polygon fill="#1f3b98" stroke="black" points="774,-1001 645,-1001 645,-965 774,-965 774,-1001"/>
<text text-anchor="middle" x="709.5" y="-979.3" font-family="Sans Not-Rotated 14" font-size="14.00" fill="white">Red zone doctor</text>
</g>
<!-- Red zone operator&#45;&gt;Red zone doctor -->
<g id="edge13" class="edge">
<title>Red zone operator&#45;&gt;Red zone doctor</title>
<path fill="none" stroke="black" stroke-width="5" d="M662.56,-1051.91C671.64,-1047.14 680.46,-1041.23 687.5,-1034 693.87,-1027.45 698.56,-1018.76 701.93,-1010.45"/>
<polygon fill="black" stroke="black" stroke-width="5" points="706.05,-1011.93 705.31,-1001.04 697.82,-1008.97 706.05,-1011.93"/>
<text text-anchor="middle" x="734" y="-1022.8" font-family="Sans Not-Rotated 14" font-size="14.00"> &#160;&#160;&#160;&#160;&#160;&#160;&#160;&#160;&#160;&#160;&#160;&#160;&#160;&#160;&#160;</text>
</g>
<!-- Red zone doctor FD&#45;&gt;Red zone operator -->
<g id="edge7" class="edge">
<title>Red zone doctor FD&#45;&gt;Red zone operator</title>
<path fill="none" stroke="black" stroke-width="3.44" d="M500.93,-914.33C515.76,-935.01 541.35,-970.59 563.5,-1001 573.8,-1015.15 585.38,-1030.9 594.79,-1043.67"/>
<polygon fill="black" stroke="black" stroke-width="3.44" points="592.17,-1046.01 600.92,-1051.99 597.8,-1041.86 592.17,-1046.01"/>
<text text-anchor="middle" x="600" y="-979.3" font-family="Sans Not-Rotated 14" font-size="14.00"> &#160;&#160;&#160;&#160;&#160;&#160;&#160;&#160;&#160;&#160;&#160;&#160;&#160;&#160;&#160;</text>
</g>
<!-- Red zone doctor FD&#45;&gt;Red zone doctor FD -->
<g id="edge32" class="edge">
<title>Red zone doctor FD&#45;&gt;Red zone doctor FD</title>
<path fill="none" stroke="black" stroke-width="2.55" d="M565.25,-903.03C575.89,-901.87 583,-899.53 583,-896 583,-893.74 580.08,-891.97 575.19,-890.68"/>
<polygon fill="black" stroke="black" stroke-width="2.55" points="575.7,-887.22 565.25,-888.97 574.52,-894.12 575.7,-887.22"/>
<text text-anchor="middle" x="619.5" y="-892.3" font-family="Sans Not-Rotated 14" font-size="14.00"> &#160;&#160;&#160;&#160;&#160;&#160;&#160;&#160;&#160;&#160;&#160;&#160;&#160;&#160;&#160;</text>
</g>
<!-- Red zone measmissing operator -->
<g id="node5" class="node">
<title>Red zone measmissing operator</title>
<polygon fill="#ffffff" stroke="black" points="606.5,-827 370.5,-827 370.5,-791 606.5,-791 606.5,-827"/>
<text text-anchor="middle" x="488.5" y="-805.3" font-family="Sans Not-Rotated 14" font-size="14.00">Red zone measmissing operator</text>
</g>
<!-- Red zone doctor FD&#45;&gt;Red zone measmissing operator -->
<g id="edge10" class="edge">
<title>Red zone doctor FD&#45;&gt;Red zone measmissing operator</title>
<path fill="none" stroke="black" stroke-width="1" d="M482.82,-877.94C480.26,-868.31 478.11,-856.03 479.5,-845 479.82,-842.44 480.28,-839.8 480.81,-837.17"/>
<polygon fill="black" stroke="black" stroke-width="1" points="484.25,-837.82 483.14,-827.28 477.44,-836.21 484.25,-837.82"/>
<text text-anchor="middle" x="482" y="-848.8" font-family="Sans Not-Rotated 14" font-size="14.00"> </text>
</g>
<!-- Red zone doctor FD&#45;&gt;Yellow zone Therapy control operator -->
<g id="edge16" class="edge">
<title>Red zone doctor FD&#45;&gt;Yellow zone Therapy control operator</title>
<path fill="none" stroke="black" stroke-width="1.22" d="M469.77,-914.24C464.88,-919.54 460,-925.66 456.5,-932 437.1,-967.11 437.88,-979.25 432.5,-1019 426.66,-1062.13 446.06,-1110.21 460.68,-1139.08"/>
<polygon fill="black" stroke="black" stroke-width="1.22" points="457.67,-1140.88 465.42,-1148.11 463.87,-1137.62 457.67,-1140.88"/>
<text text-anchor="middle" x="453" y="-1022.8" font-family="Sans Not-Rotated 14" font-size="14.00"> &#160;&#160;&#160;&#160;&#160;&#160;&#160;&#160;</text>
</g>
<!-- Notification operator -->
<g id="node14" class="node">
<title>Notification operator</title>
<polygon fill="#1946ba" stroke="black" points="438,-653 279,-653 279,-617 438,-617 438,-653"/>
<text text-anchor="middle" x="358.5" y="-631.3" font-family="Sans Not-Rotated 14" font-size="14.00" fill="white">Notification operator</text>
</g>
<!-- Red zone doctor FD&#45;&gt;Notification operator -->
<g id="edge19" class="edge">
<title>Red zone doctor FD&#45;&gt;Notification operator</title>
<path fill="none" stroke="black" stroke-width="1.58" d="M428.32,-877.92C403.15,-867.49 376.34,-851.34 361.5,-827 330.43,-776.03 341.57,-702.31 350.92,-663.03"/>
<polygon fill="black" stroke="black" stroke-width="1.58" points="354.36,-663.69 353.41,-653.14 347.58,-661.98 354.36,-663.69"/>
<text text-anchor="middle" x="364" y="-761.8" font-family="Sans Not-Rotated 14" font-size="14.00"> &#160;&#160;&#160;&#160;&#160;&#160;&#160;&#160;</text>
</g>
<!-- Yellow zone doctor -->
<g id="node17" class="node">
<title>Yellow zone doctor</title>
<polygon fill="#7d7fd2" stroke="black" points="774,-827 625,-827 625,-791 774,-791 774,-827"/>
<text text-anchor="middle" x="699.5" y="-805.3" font-family="Sans Not-Rotated 14" font-size="14.00">Yellow zone doctor</text>
</g>
<!-- Red zone doctor FD&#45;&gt;Yellow zone doctor -->
<g id="edge21" class="edge">
<title>Red zone doctor FD&#45;&gt;Yellow zone doctor</title>
<path fill="none" stroke="black" stroke-width="2.06" d="M530.95,-877.9C564.64,-864.33 611.89,-845.29 647.79,-830.83"/>
<polygon fill="black" stroke="black" stroke-width="2.06" points="649.15,-834.05 657.12,-827.07 646.54,-827.56 649.15,-834.05"/>
<text text-anchor="middle" x="628" y="-848.8" font-family="Sans Not-Rotated 14" font-size="14.00"> &#160;&#160;&#160;&#160;&#160;&#160;&#160;&#160;</text>
</g>
<!-- Red zone measmissing operator&#45;&gt;Red zone doctor FD -->
<g id="edge24" class="edge">
<title>Red zone measmissing operator&#45;&gt;Red zone doctor FD</title>
<path fill="none" stroke="black" stroke-width="1" d="M488.5,-827.18C488.5,-838.81 488.5,-854.42 488.5,-867.73"/>
<polygon fill="black" stroke="black" stroke-width="1" points="485,-867.8 488.5,-877.8 492,-867.8 485,-867.8"/>
<text text-anchor="middle" x="491" y="-848.8" font-family="Sans Not-Rotated 14" font-size="14.00"> </text>
</g>
<!-- Yellow zone doctor FD -->
<g id="node6" class="node">
<title>Yellow zone doctor FD</title>
<polygon fill="#5661c6" stroke="black" points="801,-740 628,-740 628,-704 801,-704 801,-740"/>
<text text-anchor="middle" x="714.5" y="-718.3" font-family="Sans Not-Rotated 14" font-size="14.00" fill="white">Yellow zone doctor FD</text>
</g>
<!-- Yellow zone doctor FD&#45;&gt;Program change operator -->
<g id="edge4" class="edge">
<title>Yellow zone doctor FD&#45;&gt;Program change operator</title>
<path fill="none" stroke="black" stroke-width="1.03" d="M801.27,-738.28C837.58,-750.16 871.5,-771.12 871.5,-808 871.5,-1167.3 871.5,-1167.3 871.5,-1167.3 871.5,-1202.27 840.22,-1225.66 808.47,-1240.4"/>
<polygon fill="black" stroke="black" stroke-width="1.03" points="806.83,-1237.3 799.08,-1244.52 809.65,-1243.71 806.83,-1237.3"/>
<text text-anchor="middle" x="881" y="-979.3" font-family="Sans Not-Rotated 14" font-size="14.00"> &#160;&#160;&#160;</text>
</g>
<!-- Yellow zone doctor FD&#45;&gt;Red zone operator -->
<g id="edge26" class="edge">
<title>Yellow zone doctor FD&#45;&gt;Red zone operator</title>
<path fill="none" stroke="black" stroke-width="1.69" d="M761.3,-740.12C769.86,-744.88 778.09,-750.79 784.5,-758 800.19,-775.66 802.5,-784.38 802.5,-808 802.5,-984 802.5,-984 802.5,-984 802.5,-1033.92 746.98,-1054.7 696.12,-1063.26"/>
<polygon fill="black" stroke="black" stroke-width="1.69" points="695.38,-1059.83 686.03,-1064.81 696.45,-1066.75 695.38,-1059.83"/>
<text text-anchor="middle" x="823" y="-892.3" font-family="Sans Not-Rotated 14" font-size="14.00"> &#160;&#160;&#160;&#160;&#160;&#160;&#160;&#160;</text>
</g>
<!-- Yellow zone doctor FD&#45;&gt;Notification operator -->
<g id="edge18" class="edge">
<title>Yellow zone doctor FD&#45;&gt;Notification operator</title>
<path fill="none" stroke="black" stroke-width="1.95" d="M642.89,-703.9C584.22,-689.89 501.21,-670.07 440.01,-655.46"/>
<polygon fill="black" stroke="black" stroke-width="1.95" points="440.54,-651.99 430,-653.07 438.91,-658.8 440.54,-651.99"/>
<text text-anchor="middle" x="579" y="-674.8" font-family="Sans Not-Rotated 14" font-size="14.00"> &#160;&#160;&#160;&#160;&#160;&#160;&#160;&#160;</text>
</g>
<!-- Yellow zone doctor FD&#45;&gt;Yellow zone doctor -->
<g id="edge25" class="edge">
<title>Yellow zone doctor FD&#45;&gt;Yellow zone doctor</title>
<path fill="none" stroke="black" stroke-width="2.16" d="M711.47,-740.18C709.42,-751.81 706.66,-767.42 704.31,-780.73"/>
<polygon fill="black" stroke="black" stroke-width="2.16" points="700.83,-780.34 702.54,-790.8 707.72,-781.56 700.83,-780.34"/>
<text text-anchor="middle" x="744" y="-761.8" font-family="Sans Not-Rotated 14" font-size="14.00"> &#160;&#160;&#160;&#160;&#160;&#160;&#160;&#160;&#160;&#160;&#160;&#160;&#160;&#160;&#160;</text>
</g>
<!-- Monitoring completed doctor -->
<g id="node7" class="node">
<title>Monitoring completed doctor</title>
<polygon fill="#ffffff" stroke="black" points="609.5,-392 395.5,-392 395.5,-356 609.5,-356 609.5,-392"/>
<text text-anchor="middle" x="502.5" y="-370.3" font-family="Sans Not-Rotated 14" font-size="14.00">Monitoring completed doctor</text>
</g>
<!-- Monitoring completed doctor FD -->
<g id="node15" class="node">
<title>Monitoring completed doctor FD</title>
<polygon fill="#ffffff" stroke="black" points="621.5,-305 383.5,-305 383.5,-269 621.5,-269 621.5,-305"/>
<text text-anchor="middle" x="502.5" y="-283.3" font-family="Sans Not-Rotated 14" font-size="14.00">Monitoring completed doctor FD</text>
</g>
<!-- Monitoring completed doctor&#45;&gt;Monitoring completed doctor FD -->
<g id="edge20" class="edge">
<title>Monitoring completed doctor&#45;&gt;Monitoring completed doctor FD</title>
<path fill="none" stroke="black" stroke-width="1.02" d="M502.5,-355.8C502.5,-344.16 502.5,-328.55 502.5,-315.24"/>
<polygon fill="black" stroke="black" stroke-width="1.02" points="506,-315.18 502.5,-305.18 499,-315.18 506,-315.18"/>
<text text-anchor="middle" x="512" y="-326.8" font-family="Sans Not-Rotated 14" font-size="14.00"> &#160;&#160;&#160;</text>
</g>
<!-- Red zone doctor&#45;&gt;Red zone operator -->
<g id="edge6" class="edge">
<title>Red zone doctor&#45;&gt;Red zone operator</title>
<path fill="none" stroke="black" stroke-width="3.47" d="M644.68,-996.06C632.87,-1001.21 621.94,-1008.55 614.5,-1019 609.88,-1025.49 608.44,-1033.75 608.5,-1041.68"/>
<polygon fill="black" stroke="black" stroke-width="3.47" points="605.02,-1042.05 609.3,-1051.74 612,-1041.5 605.02,-1042.05"/>
<text text-anchor="middle" x="651" y="-1022.8" font-family="Sans Not-Rotated 14" font-size="14.00"> &#160;&#160;&#160;&#160;&#160;&#160;&#160;&#160;&#160;&#160;&#160;&#160;&#160;&#160;&#160;</text>
</g>
<!-- Red zone doctor&#45;&gt;Red zone doctor FD -->
<g id="edge8" class="edge">
<title>Red zone doctor&#45;&gt;Red zone doctor FD</title>
<path fill="none" stroke="black" stroke-width="3.51" d="M665.04,-964.9C629.75,-951.33 580.27,-932.29 542.66,-917.83"/>
<polygon fill="black" stroke="black" stroke-width="3.51" points="543.48,-914.39 532.89,-914.07 540.96,-920.93 543.48,-914.39"/>
<text text-anchor="middle" x="649" y="-935.8" font-family="Sans Not-Rotated 14" font-size="14.00"> &#160;&#160;&#160;&#160;&#160;&#160;&#160;&#160;&#160;&#160;&#160;&#160;&#160;&#160;&#160;</text>
</g>
<!-- Target levels achieved doctor -->
<g id="node9" class="node">
<title>Target levels achieved doctor</title>
<polygon fill="#ffffff" stroke="black" points="322,-566 103,-566 103,-530 322,-530 322,-566"/>
<text text-anchor="middle" x="212.5" y="-544.3" font-family="Sans Not-Rotated 14" font-size="14.00">Target levels achieved doctor</text>
</g>
<!-- Target levels achieved doctor FD -->
<g id="node10" class="node">
<title>Target levels achieved doctor FD</title>
<polygon fill="#ffffff" stroke="black" points="243,-479 0,-479 0,-443 243,-443 243,-479"/>
<text text-anchor="middle" x="121.5" y="-457.3" font-family="Sans Not-Rotated 14" font-size="14.00">Target levels achieved doctor FD</text>
</g>
<!-- Target levels achieved doctor&#45;&gt;Target levels achieved doctor FD -->
<g id="edge15" class="edge">
<title>Target levels achieved doctor&#45;&gt;Target levels achieved doctor FD</title>
<path fill="none" stroke="black" stroke-width="1" d="M194.08,-529.8C180.64,-517.24 162.24,-500.05 147.32,-486.12"/>
<polygon fill="black" stroke="black" stroke-width="1" points="149.58,-483.44 139.89,-479.18 144.81,-488.56 149.58,-483.44"/>
<text text-anchor="middle" x="175" y="-500.8" font-family="Sans Not-Rotated 14" font-size="14.00"> </text>
</g>
<!-- Target levels achieved doctor FD&#45;&gt;Notification operator -->
<g id="edge27" class="edge">
<title>Target levels achieved doctor FD&#45;&gt;Notification operator</title>
<path fill="none" stroke="black" stroke-width="1" d="M107.28,-479.17C90.77,-501.3 68.24,-540 88.5,-566 110.7,-594.48 198.95,-612.88 268.59,-623.26"/>
<polygon fill="black" stroke="black" stroke-width="1" points="268.32,-626.76 278.72,-624.74 269.33,-619.83 268.32,-626.76"/>
<text text-anchor="middle" x="91" y="-544.3" font-family="Sans Not-Rotated 14" font-size="14.00"> </text>
</g>
<!-- Kit return operator -->
<g id="node11" class="node">
<title>Kit return operator</title>
<polygon fill="#ffffff" stroke="black" points="576.5,-218 428.5,-218 428.5,-182 576.5,-182 576.5,-218"/>
<text text-anchor="middle" x="502.5" y="-196.3" font-family="Sans Not-Rotated 14" font-size="14.00">Kit return operator</text>
</g>
<!-- Kit return operator&#45;&gt;Kit return nurse -->
<g id="edge5" class="edge">
<title>Kit return operator&#45;&gt;Kit return nurse</title>
<path fill="none" stroke="black" stroke-width="1" d="M504.12,-181.8C505.21,-170.16 506.68,-154.55 507.94,-141.24"/>
<polygon fill="black" stroke="black" stroke-width="1" points="511.43,-141.46 508.88,-131.18 504.46,-140.8 511.43,-141.46"/>
<text text-anchor="middle" x="510" y="-152.8" font-family="Sans Not-Rotated 14" font-size="14.00"> </text>
</g>
<!-- Yellow zone Therapy control operator&#45;&gt;Red zone operator -->
<g id="edge28" class="edge">
<title>Yellow zone Therapy control operator&#45;&gt;Red zone operator</title>
<path fill="none" stroke="black" stroke-width="1.17" d="M500.49,-1148.22C522.72,-1133.03 555.42,-1110.69 579.93,-1093.94"/>
<polygon fill="black" stroke="black" stroke-width="1.17" points="581.95,-1096.8 588.23,-1088.27 578,-1091.02 581.95,-1096.8"/>
<text text-anchor="middle" x="582" y="-1109.8" font-family="Sans Not-Rotated 14" font-size="14.00"> &#160;&#160;&#160;&#160;&#160;&#160;&#160;&#160;</text>
</g>
<!-- Meas missing operator -->
<g id="node13" class="node">
<title>Meas missing operator</title>
<polygon fill="#a09dde" stroke="black" points="621,-566 450,-566 450,-530 621,-530 621,-566"/>
<text text-anchor="middle" x="535.5" y="-544.3" font-family="Sans Not-Rotated 14" font-size="14.00">Meas missing operator</text>
</g>
<!-- Meas missing doctor -->
<g id="node16" class="node">
<title>Meas missing doctor</title>
<polygon fill="#c0bde9" stroke="black" points="580,-479 425,-479 425,-443 580,-443 580,-479"/>
<text text-anchor="middle" x="502.5" y="-457.3" font-family="Sans Not-Rotated 14" font-size="14.00">Meas missing doctor</text>
</g>
<!-- Meas missing operator&#45;&gt;Meas missing doctor -->
<g id="edge2" class="edge">
<title>Meas missing operator&#45;&gt;Meas missing doctor</title>
<path fill="none" stroke="black" stroke-width="2.59" d="M528.82,-529.8C524.26,-518.05 518.12,-502.24 512.92,-488.84"/>
<polygon fill="black" stroke="black" stroke-width="2.59" points="516.05,-487.23 509.17,-479.18 509.52,-489.76 516.05,-487.23"/>
<text text-anchor="middle" x="558" y="-500.8" font-family="Sans Not-Rotated 14" font-size="14.00"> &#160;&#160;&#160;&#160;&#160;&#160;&#160;&#160;&#160;&#160;&#160;&#160;&#160;&#160;&#160;</text>
</g>
<!-- Notification operator&#45;&gt;Target levels achieved doctor -->
<g id="edge14" class="edge">
<title>Notification operator&#45;&gt;Target levels achieved doctor</title>
<path fill="none" stroke="black" d="M328.95,-616.8C306.39,-603.66 275.13,-585.46 250.67,-571.22"/>
<polygon fill="black" stroke="black" points="252.4,-568.18 242,-566.18 248.88,-574.23 252.4,-568.18"/>
<text text-anchor="middle" x="297" y="-587.8" font-family="Sans Not-Rotated 14" font-size="14.00"> </text>
</g>
<!-- Notification operator&#45;&gt;Meas missing operator -->
<g id="edge17" class="edge">
<title>Notification operator&#45;&gt;Meas missing operator</title>
<path fill="none" stroke="black" stroke-width="2.77" d="M394.32,-616.8C422.12,-603.45 460.83,-584.86 490.68,-570.52"/>
<polygon fill="black" stroke="black" stroke-width="2.77" points="492.54,-573.51 500.04,-566.03 489.51,-567.2 492.54,-573.51"/>
<text text-anchor="middle" x="495" y="-587.8" font-family="Sans Not-Rotated 14" font-size="14.00"> &#160;&#160;&#160;&#160;&#160;&#160;&#160;&#160;&#160;&#160;&#160;&#160;&#160;&#160;&#160;</text>
</g>
<!-- Notification operator&#45;&gt;end -->
<g id="edge22" class="edge">
<title>Notification operator&#45;&gt;end</title>
<path fill="none" stroke="black" stroke-dasharray="5,2" d="M438.02,-626.45C524.18,-616 649.5,-593.21 649.5,-549 649.5,-549 649.5,-549 649.5,-112 649.5,-88.26 636.59,-64.42 624.6,-47.4"/>
<polygon fill="black" stroke="black" points="627.26,-45.1 618.49,-39.16 621.64,-49.27 627.26,-45.1"/>
<text text-anchor="middle" x="670" y="-326.8" font-family="Sans Not-Rotated 14" font-size="14.00"> &#160;&#160;&#160;&#160;&#160;&#160;&#160;&#160;</text>
</g>
<!-- Monitoring completed doctor FD&#45;&gt;Kit return operator -->
<g id="edge3" class="edge">
<title>Monitoring completed doctor FD&#45;&gt;Kit return operator</title>
<path fill="none" stroke="black" stroke-width="1" d="M502.5,-268.8C502.5,-257.16 502.5,-241.55 502.5,-228.24"/>
<polygon fill="black" stroke="black" stroke-width="1" points="506,-228.18 502.5,-218.18 499,-228.18 506,-228.18"/>
<text text-anchor="middle" x="505" y="-239.8" font-family="Sans Not-Rotated 14" font-size="14.00"> </text>
</g>
<!-- Monitoring completed doctor FD&#45;&gt;end -->
<g id="edge29" class="edge">
<title>Monitoring completed doctor FD&#45;&gt;end</title>
<path fill="none" stroke="black" stroke-dasharray="5,2" d="M533.9,-268.86C552.21,-257.09 573.91,-239.69 585.5,-218 613.46,-165.68 612.14,-94.13 608.46,-53.85"/>
<polygon fill="black" stroke="black" points="611.94,-53.43 607.44,-43.83 604.97,-54.14 611.94,-53.43"/>
<text text-anchor="middle" x="617" y="-152.8" font-family="Sans Not-Rotated 14" font-size="14.00"> &#160;&#160;&#160;</text>
</g>
<!-- Meas missing doctor&#45;&gt;Monitoring completed doctor -->
<g id="edge12" class="edge">
<title>Meas missing doctor&#45;&gt;Monitoring completed doctor</title>
<path fill="none" stroke="black" stroke-width="1.01" d="M502.5,-442.8C502.5,-431.16 502.5,-415.55 502.5,-402.24"/>
<polygon fill="black" stroke="black" stroke-width="1.01" points="506,-402.18 502.5,-392.18 499,-402.18 506,-402.18"/>
<text text-anchor="middle" x="512" y="-413.8" font-family="Sans Not-Rotated 14" font-size="14.00"> &#160;&#160;&#160;</text>
</g>
<!-- Meas missing doctor&#45;&gt;Notification operator -->
<g id="edge30" class="edge">
<title>Meas missing doctor&#45;&gt;Notification operator</title>
<path fill="none" stroke="black" stroke-width="2.15" d="M438.4,-479.1C412.13,-489.46 384.05,-505.55 367.5,-530 352.3,-552.44 351.79,-584.15 353.99,-606.64"/>
<polygon fill="black" stroke="black" stroke-width="2.15" points="350.55,-607.36 355.24,-616.86 357.5,-606.51 350.55,-607.36"/>
<text text-anchor="middle" x="404" y="-544.3" font-family="Sans Not-Rotated 14" font-size="14.00"> &#160;&#160;&#160;&#160;&#160;&#160;&#160;&#160;&#160;&#160;&#160;&#160;&#160;&#160;&#160;</text>
</g>
<!-- Yellow zone doctor&#45;&gt;Yellow zone doctor FD -->
<g id="edge11" class="edge">
<title>Yellow zone doctor&#45;&gt;Yellow zone doctor FD</title>
<path fill="none" stroke="black" stroke-width="3.63" d="M638.08,-790.83C621.13,-782.84 609.76,-771.97 619.5,-758 622.7,-753.4 626.58,-749.41 630.92,-745.94"/>
<polygon fill="black" stroke="black" stroke-width="3.63" points="632.93,-748.8 639.17,-740.24 628.95,-743.04 632.93,-748.8"/>
<text text-anchor="middle" x="656" y="-761.8" font-family="Sans Not-Rotated 14" font-size="14.00"> &#160;&#160;&#160;&#160;&#160;&#160;&#160;&#160;&#160;&#160;&#160;&#160;&#160;&#160;&#160;</text>
</g>
<!-- start -->
<g id="node18" class="node">
<title>start</title>
<ellipse fill="#95d600" stroke="black" cx="659.5" cy="-1166.3" rx="27.1" ry="27.1"/>
<text text-anchor="middle" x="659.5" y="-1162.6" font-family="Sans Not-Rotated 14" font-size="14.00">start</text>
</g>
<!-- start&#45;&gt;Red zone operator -->
<g id="edge31" class="edge">
<title>start&#45;&gt;Red zone operator</title>
<path fill="none" stroke="black" stroke-dasharray="5,2" d="M647.89,-1141.5C641.32,-1128.03 633.08,-1111.14 626.32,-1097.28"/>
<polygon fill="black" stroke="black" points="629.44,-1095.69 621.91,-1088.24 623.15,-1098.76 629.44,-1095.69"/>
<text text-anchor="middle" x="658" y="-1109.8" font-family="Sans Not-Rotated 14" font-size="14.00"> &#160;&#160;&#160;&#160;&#160;&#160;&#160;&#160;</text>
</g>
</g>
</svg>
