<?xml version="1.0" encoding="UTF-8" standalone="no"?>
<!DOCTYPE svg PUBLIC "-//W3C//DTD SVG 1.1//EN"
 "http://www.w3.org/Graphics/SVG/1.1/DTD/svg11.dtd">
<!-- Generated by graphviz version 3.0.0 (20220226.1711)
 -->
<!-- Pages: 1 -->
<svg width="1015pt" height="1202pt"
 viewBox="0.00 0.00 1014.50 1201.60" xmlns="http://www.w3.org/2000/svg" xmlns:xlink="http://www.w3.org/1999/xlink">
<g id="graph0" class="graph" transform="scale(1 1) rotate(0) translate(4 1197.6)">
<polygon fill="white" stroke="transparent" points="-4,4 -4,-1197.6 1010.5,-1197.6 1010.5,4 -4,4"/>
<!-- Program change operator -->
<g id="node1" class="node">
<title>Program change operator</title>
<polygon fill="#ffffff" stroke="black" points="193,-1193.6 0,-1193.6 0,-1157.6 193,-1157.6 193,-1193.6"/>
<text text-anchor="middle" x="96.5" y="-1171.9" font-family="Sans Not-Rotated 14" font-size="14.00">Program change operator</text>
</g>
<!-- Yellow zone Therapy control operator -->
<g id="node12" class="node">
<title>Yellow zone Therapy control operator</title>
<polygon fill="#e0ddf4" stroke="black" points="957.5,-1097.3 679.5,-1097.3 679.5,-1061.3 957.5,-1061.3 957.5,-1097.3"/>
<text text-anchor="middle" x="818.5" y="-1075.6" font-family="Sans Not-Rotated 14" font-size="14.00">Yellow zone Therapy control operator</text>
</g>
<!-- Program change operator&#45;&gt;Yellow zone Therapy control operator -->
<g id="edge1" class="edge">
<title>Program change operator&#45;&gt;Yellow zone Therapy control operator</title>
<path fill="none" stroke="black" stroke-width="1.04" d="M193.12,-1161.98C317.71,-1145.7 535.28,-1117.29 678.11,-1098.63"/>
<polygon fill="black" stroke="black" stroke-width="1.04" points="678.8,-1102.07 688.27,-1097.31 677.9,-1095.13 678.8,-1102.07"/>
<text text-anchor="middle" x="489" y="-1128.4" font-family="Sans Not-Rotated 14" font-size="14.00"> &#160;&#160;&#160;</text>
</g>
<!-- Kit return nurse -->
<g id="node2" class="node">
<title>Kit return nurse</title>
<polygon fill="#ffffff" stroke="black" points="796.5,-131 668.5,-131 668.5,-95 796.5,-95 796.5,-131"/>
<text text-anchor="middle" x="732.5" y="-109.3" font-family="Sans Not-Rotated 14" font-size="14.00">Kit return nurse</text>
</g>
<!-- end -->
<g id="node19" class="node">
<title>end</title>
<ellipse fill="#ea4126" stroke="black" cx="826.5" cy="-22" rx="18" ry="18"/>
<ellipse fill="none" stroke="black" cx="826.5" cy="-22" rx="22" ry="22"/>
</g>
<!-- Kit return nurse&#45;&gt;end -->
<g id="edge28" class="edge">
<title>Kit return nurse&#45;&gt;end</title>
<path fill="none" stroke="black" stroke-dasharray="5,2" d="M750.62,-94.84C765.66,-80.6 787.14,-60.27 803.41,-44.86"/>
<polygon fill="black" stroke="black" points="806.07,-47.16 810.93,-37.75 801.26,-42.08 806.07,-47.16"/>
<text text-anchor="middle" x="795" y="-65.8" font-family="Sans Not-Rotated 14" font-size="14.00"> &#160;&#160;&#160;</text>
</g>
<!-- Red zone operator -->
<g id="node3" class="node">
<title>Red zone operator</title>
<polygon fill="#1d2559" stroke="black" points="582,-1001 437,-1001 437,-965 582,-965 582,-1001"/>
<text text-anchor="middle" x="509.5" y="-979.3" font-family="Sans Not-Rotated 14" font-size="14.00" fill="white">Red zone operator</text>
</g>
<!-- Red zone operator&#45;&gt;Red zone operator -->
<g id="edge41" class="edge">
<title>Red zone operator&#45;&gt;Red zone operator</title>
<path fill="none" stroke="black" stroke-width="1.53" d="M582.29,-990.11C592.87,-988.98 600,-986.61 600,-983 600,-980.69 597.07,-978.88 592.19,-977.59"/>
<polygon fill="black" stroke="black" stroke-width="1.53" points="592.74,-974.13 582.29,-975.89 591.55,-981.03 592.74,-974.13"/>
<text text-anchor="middle" x="620.5" y="-979.3" font-family="Sans Not-Rotated 14" font-size="14.00"> &#160;&#160;&#160;&#160;&#160;&#160;&#160;&#160;</text>
</g>
<!-- Red zone doctor FD -->
<g id="node4" class="node">
<title>Red zone doctor FD</title>
<polygon fill="#1d2559" stroke="black" points="808,-914 655,-914 655,-878 808,-878 808,-914"/>
<text text-anchor="middle" x="731.5" y="-892.3" font-family="Sans Not-Rotated 14" font-size="14.00" fill="white">Red zone doctor FD</text>
</g>
<!-- Red zone operator&#45;&gt;Red zone doctor FD -->
<g id="edge10" class="edge">
<title>Red zone operator&#45;&gt;Red zone doctor FD</title>
<path fill="none" stroke="black" stroke-width="3.35" d="M543.89,-964.92C553.96,-959.54 564.86,-953.33 574.5,-947 583.49,-941.09 583.85,-936.76 593.5,-932 609.58,-924.06 627.64,-917.82 645.25,-912.93"/>
<polygon fill="black" stroke="black" stroke-width="3.35" points="646.2,-916.3 654.98,-910.36 644.41,-909.54 646.2,-916.3"/>
<text text-anchor="middle" x="630" y="-935.8" font-family="Sans Not-Rotated 14" font-size="14.00"> &#160;&#160;&#160;&#160;&#160;&#160;&#160;&#160;&#160;&#160;&#160;&#160;&#160;&#160;&#160;</text>
</g>
<!-- Red zone measmissing operator -->
<g id="node5" class="node">
<title>Red zone measmissing operator</title>
<polygon fill="#ffffff" stroke="black" points="704.5,-740 468.5,-740 468.5,-704 704.5,-704 704.5,-740"/>
<text text-anchor="middle" x="586.5" y="-718.3" font-family="Sans Not-Rotated 14" font-size="14.00">Red zone measmissing operator</text>
</g>
<!-- Red zone operator&#45;&gt;Red zone measmissing operator -->
<g id="edge12" class="edge">
<title>Red zone operator&#45;&gt;Red zone measmissing operator</title>
<path fill="none" stroke="black" d="M483.94,-964.92C477.81,-959.78 471.81,-953.71 467.5,-947 442.76,-908.5 435.08,-886.89 453.5,-845 472.58,-801.61 515.55,-766.9 547.52,-745.76"/>
<polygon fill="black" stroke="black" points="549.7,-748.52 556.21,-740.16 545.91,-742.63 549.7,-748.52"/>
<text text-anchor="middle" x="456" y="-848.8" font-family="Sans Not-Rotated 14" font-size="14.00"> </text>
</g>
<!-- Red zone doctor -->
<g id="node8" class="node">
<title>Red zone doctor</title>
<polygon fill="#1f3b98" stroke="black" points="739,-827 610,-827 610,-791 739,-791 739,-827"/>
<text text-anchor="middle" x="674.5" y="-805.3" font-family="Sans Not-Rotated 14" font-size="14.00" fill="white">Red zone doctor</text>
</g>
<!-- Red zone operator&#45;&gt;Red zone doctor -->
<g id="edge16" class="edge">
<title>Red zone operator&#45;&gt;Red zone doctor</title>
<path fill="none" stroke="black" stroke-width="5" d="M516.93,-964.99C527.12,-943.04 547.1,-904.53 572.5,-878 589.86,-859.87 612.87,-844.01 632.65,-832.18"/>
<polygon fill="black" stroke="black" stroke-width="5" points="635.04,-835.85 641.47,-827.04 630.63,-828.29 635.04,-835.85"/>
<text text-anchor="middle" x="609" y="-892.3" font-family="Sans Not-Rotated 14" font-size="14.00"> &#160;&#160;&#160;&#160;&#160;&#160;&#160;&#160;&#160;&#160;&#160;&#160;&#160;&#160;&#160;</text>
</g>
<!-- Red zone doctor FD&#45;&gt;Red zone operator -->
<g id="edge7" class="edge">
<title>Red zone doctor FD&#45;&gt;Red zone operator</title>
<path fill="none" stroke="black" stroke-width="3.44" d="M712.67,-914.09C698.33,-926.78 679.56,-942.62 670.5,-947 646.18,-958.76 617.89,-966.6 591.88,-971.82"/>
<polygon fill="black" stroke="black" stroke-width="3.44" points="591.2,-968.39 582.03,-973.7 592.51,-975.27 591.2,-968.39"/>
<text text-anchor="middle" x="728" y="-935.8" font-family="Sans Not-Rotated 14" font-size="14.00"> &#160;&#160;&#160;&#160;&#160;&#160;&#160;&#160;&#160;&#160;&#160;&#160;&#160;&#160;&#160;</text>
</g>
<!-- Red zone doctor FD&#45;&gt;Red zone doctor FD -->
<g id="edge42" class="edge">
<title>Red zone doctor FD&#45;&gt;Red zone doctor FD</title>
<path fill="none" stroke="black" stroke-width="2.55" d="M808.25,-903.03C818.89,-901.87 826,-899.53 826,-896 826,-893.74 823.08,-891.97 818.19,-890.68"/>
<polygon fill="black" stroke="black" stroke-width="2.55" points="818.7,-887.22 808.25,-888.97 817.52,-894.12 818.7,-887.22"/>
<text text-anchor="middle" x="862.5" y="-892.3" font-family="Sans Not-Rotated 14" font-size="14.00"> &#160;&#160;&#160;&#160;&#160;&#160;&#160;&#160;&#160;&#160;&#160;&#160;&#160;&#160;&#160;</text>
</g>
<!-- Red zone doctor FD&#45;&gt;Red zone measmissing operator -->
<g id="edge11" class="edge">
<title>Red zone doctor FD&#45;&gt;Red zone measmissing operator</title>
<path fill="none" stroke="black" stroke-width="1" d="M750.46,-877.74C754.94,-872.52 759.11,-866.46 761.5,-860 769.28,-838.97 756.09,-800.94 747.5,-791 728.34,-768.82 700.71,-753.69 673.74,-743.46"/>
<polygon fill="black" stroke="black" stroke-width="1" points="674.83,-740.13 664.24,-740.04 672.46,-746.72 674.83,-740.13"/>
<text text-anchor="middle" x="765" y="-805.3" font-family="Sans Not-Rotated 14" font-size="14.00"> </text>
</g>
<!-- Red zone doctor FD&#45;&gt;Red zone doctor -->
<g id="edge29" class="edge">
<title>Red zone doctor FD&#45;&gt;Red zone doctor</title>
<path fill="none" stroke="black" stroke-width="1.73" d="M657.4,-877.91C649.61,-873.3 642.67,-867.44 637.5,-860 631.6,-851.51 635.29,-842.38 642.21,-834.28"/>
<polygon fill="black" stroke="black" stroke-width="1.73" points="644.72,-836.72 649.3,-827.17 639.76,-831.78 644.72,-836.72"/>
<text text-anchor="middle" x="658" y="-848.8" font-family="Sans Not-Rotated 14" font-size="14.00"> &#160;&#160;&#160;&#160;&#160;&#160;&#160;&#160;</text>
</g>
<!-- Red zone doctor FD&#45;&gt;Yellow zone Therapy control operator -->
<g id="edge19" class="edge">
<title>Red zone doctor FD&#45;&gt;Yellow zone Therapy control operator</title>
<path fill="none" stroke="black" stroke-width="1.22" d="M751.72,-914.18C757.06,-919.47 762.46,-925.61 766.5,-932 779.28,-952.22 799.33,-1014.72 810.43,-1051.16"/>
<polygon fill="black" stroke="black" stroke-width="1.22" points="807.2,-1052.56 813.44,-1061.12 813.9,-1050.54 807.2,-1052.56"/>
<text text-anchor="middle" x="815" y="-979.3" font-family="Sans Not-Rotated 14" font-size="14.00"> &#160;&#160;&#160;&#160;&#160;&#160;&#160;&#160;</text>
</g>
<!-- Notification operator -->
<g id="node14" class="node">
<title>Notification operator</title>
<polygon fill="#1946ba" stroke="black" points="660,-653 501,-653 501,-617 660,-617 660,-653"/>
<text text-anchor="middle" x="580.5" y="-631.3" font-family="Sans Not-Rotated 14" font-size="14.00" fill="white">Notification operator</text>
</g>
<!-- Red zone doctor FD&#45;&gt;Notification operator -->
<g id="edge22" class="edge">
<title>Red zone doctor FD&#45;&gt;Notification operator</title>
<path fill="none" stroke="black" stroke-width="1.58" d="M762.25,-877.94C768.4,-873 774.02,-867.01 777.5,-860 783.6,-847.69 784.87,-827.69 771.5,-791 755.59,-747.34 748.2,-734.91 713.5,-704 691.26,-684.19 662.22,-668.47 636.94,-657.16"/>
<polygon fill="black" stroke="black" stroke-width="1.58" points="638.03,-653.81 627.46,-653.04 635.24,-660.23 638.03,-653.81"/>
<text text-anchor="middle" x="786" y="-761.8" font-family="Sans Not-Rotated 14" font-size="14.00"> &#160;&#160;&#160;&#160;&#160;&#160;&#160;&#160;</text>
</g>
<!-- Yellow zone doctor -->
<g id="node17" class="node">
<title>Yellow zone doctor</title>
<polygon fill="#7d7fd2" stroke="black" points="373,-827 224,-827 224,-791 373,-791 373,-827"/>
<text text-anchor="middle" x="298.5" y="-805.3" font-family="Sans Not-Rotated 14" font-size="14.00">Yellow zone doctor</text>
</g>
<!-- Red zone doctor FD&#45;&gt;Yellow zone doctor -->
<g id="edge25" class="edge">
<title>Red zone doctor FD&#45;&gt;Yellow zone doctor</title>
<path fill="none" stroke="black" stroke-width="2.06" d="M654.56,-880.53C649.81,-879.66 645.09,-878.81 640.5,-878 593.02,-869.57 580.87,-869.02 533.5,-860 483.5,-850.48 427.78,-838.68 383.14,-828.93"/>
<polygon fill="black" stroke="black" stroke-width="2.06" points="383.73,-825.47 373.21,-826.75 382.23,-832.31 383.73,-825.47"/>
<text text-anchor="middle" x="554" y="-848.8" font-family="Sans Not-Rotated 14" font-size="14.00"> &#160;&#160;&#160;&#160;&#160;&#160;&#160;&#160;</text>
</g>
<!-- Red zone measmissing operator&#45;&gt;Red zone operator -->
<g id="edge31" class="edge">
<title>Red zone measmissing operator&#45;&gt;Red zone operator</title>
<path fill="none" stroke="black" d="M543.97,-740.11C531.96,-745.41 519.02,-751.56 507.5,-758 484.9,-770.63 475.41,-770.57 459.5,-791 443.78,-811.19 444.02,-819.81 439.5,-845 431.4,-890.17 425.12,-912.61 455.5,-947 459.39,-951.4 463.95,-955.47 468.75,-959.15"/>
<polygon fill="black" stroke="black" points="466.8,-962.06 476.98,-964.99 470.85,-956.35 466.8,-962.06"/>
<text text-anchor="middle" x="442" y="-848.8" font-family="Sans Not-Rotated 14" font-size="14.00"> </text>
</g>
<!-- Red zone measmissing operator&#45;&gt;Red zone doctor FD -->
<g id="edge30" class="edge">
<title>Red zone measmissing operator&#45;&gt;Red zone doctor FD</title>
<path fill="none" stroke="black" stroke-width="1" d="M584.32,-740.21C582.4,-761.7 581.73,-799.04 595.5,-827 606.21,-848.76 626.76,-863.66 648.69,-873.82"/>
<polygon fill="black" stroke="black" stroke-width="1" points="647.58,-877.15 658.15,-877.89 650.35,-870.72 647.58,-877.15"/>
<text text-anchor="middle" x="598" y="-805.3" font-family="Sans Not-Rotated 14" font-size="14.00"> </text>
</g>
<!-- Yellow zone doctor FD -->
<g id="node6" class="node">
<title>Yellow zone doctor FD</title>
<polygon fill="#5661c6" stroke="black" points="268,-740 95,-740 95,-704 268,-704 268,-740"/>
<text text-anchor="middle" x="181.5" y="-718.3" font-family="Sans Not-Rotated 14" font-size="14.00" fill="white">Yellow zone doctor FD</text>
</g>
<!-- Yellow zone doctor FD&#45;&gt;Program change operator -->
<g id="edge4" class="edge">
<title>Yellow zone doctor FD&#45;&gt;Program change operator</title>
<path fill="none" stroke="black" stroke-width="1.03" d="M137.49,-740.07C110.28,-753.82 80.5,-776.14 80.5,-808 80.5,-1080.3 80.5,-1080.3 80.5,-1080.3 80.5,-1103.17 85.13,-1128.73 89.41,-1147.46"/>
<polygon fill="black" stroke="black" stroke-width="1.03" points="86.05,-1148.46 91.79,-1157.36 92.86,-1146.82 86.05,-1148.46"/>
<text text-anchor="middle" x="90" y="-935.8" font-family="Sans Not-Rotated 14" font-size="14.00"> &#160;&#160;&#160;</text>
</g>
<!-- Yellow zone doctor FD&#45;&gt;Red zone operator -->
<g id="edge32" class="edge">
<title>Yellow zone doctor FD&#45;&gt;Red zone operator</title>
<path fill="none" stroke="black" stroke-width="1.69" d="M170.01,-740.33C153.13,-768.16 126.34,-823.41 152.5,-860 214.55,-946.78 342.16,-972.52 426.79,-979.76"/>
<polygon fill="black" stroke="black" stroke-width="1.69" points="426.64,-983.26 436.89,-980.56 427.19,-976.28 426.64,-983.26"/>
<text text-anchor="middle" x="173" y="-848.8" font-family="Sans Not-Rotated 14" font-size="14.00"> &#160;&#160;&#160;&#160;&#160;&#160;&#160;&#160;</text>
</g>
<!-- Yellow zone doctor FD&#45;&gt;Red zone doctor FD -->
<g id="edge33" class="edge">
<title>Yellow zone doctor FD&#45;&gt;Red zone doctor FD</title>
<path fill="none" stroke="black" stroke-width="1.33" d="M173.51,-740.33C164.4,-762.99 153.21,-802.65 173.5,-827 239.61,-906.33 526.53,-866.45 644.53,-877.59"/>
<polygon fill="black" stroke="black" stroke-width="1.33" points="644.41,-881.09 654.74,-878.74 645.19,-874.14 644.41,-881.09"/>
<text text-anchor="middle" x="194" y="-805.3" font-family="Sans Not-Rotated 14" font-size="14.00"> &#160;&#160;&#160;&#160;&#160;&#160;&#160;&#160;</text>
</g>
<!-- Yellow zone doctor FD&#45;&gt;Notification operator -->
<g id="edge21" class="edge">
<title>Yellow zone doctor FD&#45;&gt;Notification operator</title>
<path fill="none" stroke="black" stroke-width="1.95" d="M223.99,-703.89C252.56,-693 291.28,-679.41 326.5,-671 380.37,-658.13 441.88,-649.5 490.88,-644.03"/>
<polygon fill="black" stroke="black" stroke-width="1.95" points="491.26,-647.51 500.82,-642.95 490.5,-640.55 491.26,-647.51"/>
<text text-anchor="middle" x="347" y="-674.8" font-family="Sans Not-Rotated 14" font-size="14.00"> &#160;&#160;&#160;&#160;&#160;&#160;&#160;&#160;</text>
</g>
<!-- Yellow zone doctor FD&#45;&gt;Yellow zone doctor -->
<g id="edge26" class="edge">
<title>Yellow zone doctor FD&#45;&gt;Yellow zone doctor</title>
<path fill="none" stroke="black" stroke-width="2.16" d="M181.96,-740.25C183.13,-750.92 186.31,-764.21 194.5,-773 200.34,-779.26 207.32,-784.4 214.88,-788.62"/>
<polygon fill="black" stroke="black" stroke-width="2.16" points="213.47,-791.83 223.98,-793.17 216.6,-785.57 213.47,-791.83"/>
<text text-anchor="middle" x="231" y="-761.8" font-family="Sans Not-Rotated 14" font-size="14.00"> &#160;&#160;&#160;&#160;&#160;&#160;&#160;&#160;&#160;&#160;&#160;&#160;&#160;&#160;&#160;</text>
</g>
<!-- Monitoring completed doctor -->
<g id="node7" class="node">
<title>Monitoring completed doctor</title>
<polygon fill="#ffffff" stroke="black" points="831.5,-392 617.5,-392 617.5,-356 831.5,-356 831.5,-392"/>
<text text-anchor="middle" x="724.5" y="-370.3" font-family="Sans Not-Rotated 14" font-size="14.00">Monitoring completed doctor</text>
</g>
<!-- Monitoring completed doctor FD -->
<g id="node15" class="node">
<title>Monitoring completed doctor FD</title>
<polygon fill="#ffffff" stroke="black" points="843.5,-305 605.5,-305 605.5,-269 843.5,-269 843.5,-305"/>
<text text-anchor="middle" x="724.5" y="-283.3" font-family="Sans Not-Rotated 14" font-size="14.00">Monitoring completed doctor FD</text>
</g>
<!-- Monitoring completed doctor&#45;&gt;Monitoring completed doctor FD -->
<g id="edge24" class="edge">
<title>Monitoring completed doctor&#45;&gt;Monitoring completed doctor FD</title>
<path fill="none" stroke="black" stroke-width="1.02" d="M724.5,-355.8C724.5,-344.16 724.5,-328.55 724.5,-315.24"/>
<polygon fill="black" stroke="black" stroke-width="1.02" points="728,-315.18 724.5,-305.18 721,-315.18 728,-315.18"/>
<text text-anchor="middle" x="734" y="-326.8" font-family="Sans Not-Rotated 14" font-size="14.00"> &#160;&#160;&#160;</text>
</g>
<!-- Red zone doctor&#45;&gt;Red zone operator -->
<g id="edge6" class="edge">
<title>Red zone doctor&#45;&gt;Red zone operator</title>
<path fill="none" stroke="black" stroke-width="3.47" d="M609.88,-827.06C552.6,-842.86 476.76,-865.71 468.5,-878 451.98,-902.56 469.7,-934.77 486.72,-956.8"/>
<polygon fill="black" stroke="black" stroke-width="3.47" points="484.12,-959.15 493.14,-964.7 489.55,-954.73 484.12,-959.15"/>
<text text-anchor="middle" x="505" y="-892.3" font-family="Sans Not-Rotated 14" font-size="14.00"> &#160;&#160;&#160;&#160;&#160;&#160;&#160;&#160;&#160;&#160;&#160;&#160;&#160;&#160;&#160;</text>
</g>
<!-- Red zone doctor&#45;&gt;Red zone doctor FD -->
<g id="edge9" class="edge">
<title>Red zone doctor&#45;&gt;Red zone doctor FD</title>
<path fill="none" stroke="black" stroke-width="3.51" d="M676.67,-827.29C678.57,-837.46 682.07,-850.2 688.5,-860 691.13,-864.01 694.37,-867.79 697.88,-871.28"/>
<polygon fill="black" stroke="black" stroke-width="3.51" points="695.58,-873.91 705.35,-877.99 700.25,-868.7 695.58,-873.91"/>
<text text-anchor="middle" x="725" y="-848.8" font-family="Sans Not-Rotated 14" font-size="14.00"> &#160;&#160;&#160;&#160;&#160;&#160;&#160;&#160;&#160;&#160;&#160;&#160;&#160;&#160;&#160;</text>
</g>
<!-- Red zone doctor&#45;&gt;Red zone measmissing operator -->
<g id="edge13" class="edge">
<title>Red zone doctor&#45;&gt;Red zone measmissing operator</title>
<path fill="none" stroke="black" stroke-width="1" d="M656.69,-790.8C643.81,-778.36 626.22,-761.36 611.87,-747.5"/>
<polygon fill="black" stroke="black" stroke-width="1" points="613.91,-744.61 604.28,-740.18 609.04,-749.64 613.91,-744.61"/>
<text text-anchor="middle" x="639" y="-761.8" font-family="Sans Not-Rotated 14" font-size="14.00"> </text>
</g>
<!-- Target levels achieved doctor -->
<g id="node9" class="node">
<title>Target levels achieved doctor</title>
<polygon fill="#ffffff" stroke="black" points="544,-566 325,-566 325,-530 544,-530 544,-566"/>
<text text-anchor="middle" x="434.5" y="-544.3" font-family="Sans Not-Rotated 14" font-size="14.00">Target levels achieved doctor</text>
</g>
<!-- Target levels achieved doctor FD -->
<g id="node10" class="node">
<title>Target levels achieved doctor FD</title>
<polygon fill="#ffffff" stroke="black" points="457,-479 214,-479 214,-443 457,-443 457,-479"/>
<text text-anchor="middle" x="335.5" y="-457.3" font-family="Sans Not-Rotated 14" font-size="14.00">Target levels achieved doctor FD</text>
</g>
<!-- Target levels achieved doctor&#45;&gt;Target levels achieved doctor FD -->
<g id="edge18" class="edge">
<title>Target levels achieved doctor&#45;&gt;Target levels achieved doctor FD</title>
<path fill="none" stroke="black" stroke-width="1" d="M414.47,-529.8C399.71,-517.13 379.45,-499.73 363.15,-485.74"/>
<polygon fill="black" stroke="black" stroke-width="1" points="365.37,-483.03 355.5,-479.18 360.81,-488.35 365.37,-483.03"/>
<text text-anchor="middle" x="394" y="-500.8" font-family="Sans Not-Rotated 14" font-size="14.00"> </text>
</g>
<!-- Target levels achieved doctor FD&#45;&gt;Notification operator -->
<g id="edge34" class="edge">
<title>Target levels achieved doctor FD&#45;&gt;Notification operator</title>
<path fill="none" stroke="black" stroke-width="1" d="M323.33,-479.33C309.32,-501.63 290.64,-540.51 310.5,-566 332.7,-594.48 420.95,-612.88 490.59,-623.26"/>
<polygon fill="black" stroke="black" stroke-width="1" points="490.32,-626.76 500.72,-624.74 491.33,-619.83 490.32,-626.76"/>
<text text-anchor="middle" x="313" y="-544.3" font-family="Sans Not-Rotated 14" font-size="14.00"> </text>
</g>
<!-- Kit return operator -->
<g id="node11" class="node">
<title>Kit return operator</title>
<polygon fill="#ffffff" stroke="black" points="798.5,-218 650.5,-218 650.5,-182 798.5,-182 798.5,-218"/>
<text text-anchor="middle" x="724.5" y="-196.3" font-family="Sans Not-Rotated 14" font-size="14.00">Kit return operator</text>
</g>
<!-- Kit return operator&#45;&gt;Kit return nurse -->
<g id="edge5" class="edge">
<title>Kit return operator&#45;&gt;Kit return nurse</title>
<path fill="none" stroke="black" stroke-width="1" d="M726.12,-181.8C727.21,-170.16 728.68,-154.55 729.94,-141.24"/>
<polygon fill="black" stroke="black" stroke-width="1" points="733.43,-141.46 730.88,-131.18 726.46,-140.8 733.43,-141.46"/>
<text text-anchor="middle" x="732" y="-152.8" font-family="Sans Not-Rotated 14" font-size="14.00"> </text>
</g>
<!-- Yellow zone Therapy control operator&#45;&gt;Red zone operator -->
<g id="edge35" class="edge">
<title>Yellow zone Therapy control operator&#45;&gt;Red zone operator</title>
<path fill="none" stroke="black" stroke-width="1.17" d="M762.54,-1061.22C709.8,-1045.12 630.75,-1021 575.07,-1004.01"/>
<polygon fill="black" stroke="black" stroke-width="1.17" points="575.89,-1000.6 565.3,-1001.03 573.84,-1007.3 575.89,-1000.6"/>
<text text-anchor="middle" x="694" y="-1022.8" font-family="Sans Not-Rotated 14" font-size="14.00"> &#160;&#160;&#160;&#160;&#160;&#160;&#160;&#160;</text>
</g>
<!-- Yellow zone Therapy control operator&#45;&gt;Red zone doctor FD -->
<g id="edge37" class="edge">
<title>Yellow zone Therapy control operator&#45;&gt;Red zone doctor FD</title>
<path fill="none" stroke="black" stroke-width="1.09" d="M827.32,-1061.04C837.87,-1037.79 852.16,-995.79 835.5,-965 824.55,-944.76 804.67,-929.58 785.2,-918.76"/>
<polygon fill="black" stroke="black" stroke-width="1.09" points="786.8,-915.65 776.32,-914.09 783.55,-921.84 786.8,-915.65"/>
<text text-anchor="middle" x="853" y="-979.3" font-family="Sans Not-Rotated 14" font-size="14.00"> &#160;&#160;&#160;</text>
</g>
<!-- Yellow zone Therapy control operator&#45;&gt;Red zone doctor -->
<g id="edge38" class="edge">
<title>Yellow zone Therapy control operator&#45;&gt;Red zone doctor</title>
<path fill="none" stroke="black" stroke-width="1.06" d="M837.53,-1061.13C875.59,-1024.73 953.71,-938.21 908.5,-878 903.49,-871.33 815.91,-847.09 749.35,-829.44"/>
<polygon fill="black" stroke="black" stroke-width="1.06" points="749.84,-825.95 739.28,-826.78 748.05,-832.72 749.84,-825.95"/>
<text text-anchor="middle" x="930" y="-935.8" font-family="Sans Not-Rotated 14" font-size="14.00"> &#160;&#160;&#160;</text>
</g>
<!-- Yellow zone Therapy control operator&#45;&gt;Notification operator -->
<g id="edge36" class="edge">
<title>Yellow zone Therapy control operator&#45;&gt;Notification operator</title>
<path fill="none" stroke="black" stroke-width="1.12" d="M889.42,-1061.22C927.01,-1047.48 965.5,-1023.72 965.5,-984 965.5,-984 965.5,-984 965.5,-721 965.5,-660.87 784.15,-643.24 670.38,-638.09"/>
<polygon fill="black" stroke="black" stroke-width="1.12" points="670.41,-634.59 660.27,-637.66 670.11,-641.59 670.41,-634.59"/>
<text text-anchor="middle" x="986" y="-848.8" font-family="Sans Not-Rotated 14" font-size="14.00"> &#160;&#160;&#160;&#160;&#160;&#160;&#160;&#160;</text>
</g>
<!-- Meas missing operator -->
<g id="node13" class="node">
<title>Meas missing operator</title>
<polygon fill="#a09dde" stroke="black" points="843,-566 672,-566 672,-530 843,-530 843,-566"/>
<text text-anchor="middle" x="757.5" y="-544.3" font-family="Sans Not-Rotated 14" font-size="14.00">Meas missing operator</text>
</g>
<!-- Meas missing doctor -->
<g id="node16" class="node">
<title>Meas missing doctor</title>
<polygon fill="#c0bde9" stroke="black" points="802,-479 647,-479 647,-443 802,-443 802,-479"/>
<text text-anchor="middle" x="724.5" y="-457.3" font-family="Sans Not-Rotated 14" font-size="14.00">Meas missing doctor</text>
</g>
<!-- Meas missing operator&#45;&gt;Meas missing doctor -->
<g id="edge2" class="edge">
<title>Meas missing operator&#45;&gt;Meas missing doctor</title>
<path fill="none" stroke="black" stroke-width="2.59" d="M750.82,-529.8C746.26,-518.05 740.12,-502.24 734.92,-488.84"/>
<polygon fill="black" stroke="black" stroke-width="2.59" points="738.05,-487.23 731.17,-479.18 731.52,-489.76 738.05,-487.23"/>
<text text-anchor="middle" x="780" y="-500.8" font-family="Sans Not-Rotated 14" font-size="14.00"> &#160;&#160;&#160;&#160;&#160;&#160;&#160;&#160;&#160;&#160;&#160;&#160;&#160;&#160;&#160;</text>
</g>
<!-- Notification operator&#45;&gt;Target levels achieved doctor -->
<g id="edge17" class="edge">
<title>Notification operator&#45;&gt;Target levels achieved doctor</title>
<path fill="none" stroke="black" d="M550.95,-616.8C528.39,-603.66 497.13,-585.46 472.67,-571.22"/>
<polygon fill="black" stroke="black" points="474.4,-568.18 464,-566.18 470.88,-574.23 474.4,-568.18"/>
<text text-anchor="middle" x="519" y="-587.8" font-family="Sans Not-Rotated 14" font-size="14.00"> </text>
</g>
<!-- Notification operator&#45;&gt;Meas missing operator -->
<g id="edge20" class="edge">
<title>Notification operator&#45;&gt;Meas missing operator</title>
<path fill="none" stroke="black" stroke-width="2.77" d="M616.32,-616.8C644.12,-603.45 682.83,-584.86 712.68,-570.52"/>
<polygon fill="black" stroke="black" stroke-width="2.77" points="714.54,-573.51 722.04,-566.03 711.51,-567.2 714.54,-573.51"/>
<text text-anchor="middle" x="717" y="-587.8" font-family="Sans Not-Rotated 14" font-size="14.00"> &#160;&#160;&#160;&#160;&#160;&#160;&#160;&#160;&#160;&#160;&#160;&#160;&#160;&#160;&#160;</text>
</g>
<!-- Notification operator&#45;&gt;Notification operator -->
<g id="edge43" class="edge">
<title>Notification operator&#45;&gt;Notification operator</title>
<path fill="none" stroke="black" stroke-width="2.07" d="M660.07,-641.99C670.83,-640.82 678,-638.49 678,-635 678,-632.77 675.06,-631.01 670.12,-629.72"/>
<polygon fill="black" stroke="black" stroke-width="2.07" points="670.52,-626.24 660.07,-628.01 669.34,-633.14 670.52,-626.24"/>
<text text-anchor="middle" x="698.5" y="-631.3" font-family="Sans Not-Rotated 14" font-size="14.00"> &#160;&#160;&#160;&#160;&#160;&#160;&#160;&#160;</text>
</g>
<!-- Notification operator&#45;&gt;Yellow zone doctor -->
<g id="edge39" class="edge">
<title>Notification operator&#45;&gt;Yellow zone doctor</title>
<path fill="none" stroke="black" stroke-width="1.69" d="M521.93,-653.04C489.49,-664.25 449.57,-681.12 418.5,-704 386.24,-727.75 391.32,-747.41 360.5,-773 354.94,-777.61 348.69,-781.94 342.35,-785.88"/>
<polygon fill="black" stroke="black" stroke-width="1.69" points="340.54,-782.89 333.71,-791 344.1,-788.91 340.54,-782.89"/>
<text text-anchor="middle" x="439" y="-718.3" font-family="Sans Not-Rotated 14" font-size="14.00"> &#160;&#160;&#160;&#160;&#160;&#160;&#160;&#160;</text>
</g>
<!-- Notification operator&#45;&gt;end -->
<g id="edge27" class="edge">
<title>Notification operator&#45;&gt;end</title>
<path fill="none" stroke="black" stroke-dasharray="5,2" d="M660.02,-626.45C746.18,-616 871.5,-593.21 871.5,-549 871.5,-549 871.5,-549 871.5,-112 871.5,-88.26 858.59,-64.42 846.6,-47.4"/>
<polygon fill="black" stroke="black" points="849.26,-45.1 840.49,-39.16 843.64,-49.27 849.26,-45.1"/>
<text text-anchor="middle" x="892" y="-326.8" font-family="Sans Not-Rotated 14" font-size="14.00"> &#160;&#160;&#160;&#160;&#160;&#160;&#160;&#160;</text>
</g>
<!-- Monitoring completed doctor FD&#45;&gt;Kit return operator -->
<g id="edge3" class="edge">
<title>Monitoring completed doctor FD&#45;&gt;Kit return operator</title>
<path fill="none" stroke="black" stroke-width="1" d="M724.5,-268.8C724.5,-257.16 724.5,-241.55 724.5,-228.24"/>
<polygon fill="black" stroke="black" stroke-width="1" points="728,-228.18 724.5,-218.18 721,-228.18 728,-228.18"/>
<text text-anchor="middle" x="727" y="-239.8" font-family="Sans Not-Rotated 14" font-size="14.00"> </text>
</g>
<!-- Monitoring completed doctor FD&#45;&gt;end -->
<g id="edge40" class="edge">
<title>Monitoring completed doctor FD&#45;&gt;end</title>
<path fill="none" stroke="black" stroke-dasharray="5,2" d="M755.9,-268.86C774.21,-257.09 795.91,-239.69 807.5,-218 835.46,-165.68 834.14,-94.13 830.46,-53.85"/>
<polygon fill="black" stroke="black" points="833.94,-53.43 829.44,-43.83 826.97,-54.14 833.94,-53.43"/>
<text text-anchor="middle" x="839" y="-152.8" font-family="Sans Not-Rotated 14" font-size="14.00"> &#160;&#160;&#160;</text>
</g>
<!-- Meas missing doctor&#45;&gt;Monitoring completed doctor -->
<g id="edge15" class="edge">
<title>Meas missing doctor&#45;&gt;Monitoring completed doctor</title>
<path fill="none" stroke="black" stroke-width="1.01" d="M724.5,-442.8C724.5,-431.16 724.5,-415.55 724.5,-402.24"/>
<polygon fill="black" stroke="black" stroke-width="1.01" points="728,-402.18 724.5,-392.18 721,-402.18 728,-402.18"/>
<text text-anchor="middle" x="734" y="-413.8" font-family="Sans Not-Rotated 14" font-size="14.00"> &#160;&#160;&#160;</text>
</g>
<!-- Meas missing doctor&#45;&gt;Notification operator -->
<g id="edge23" class="edge">
<title>Meas missing doctor&#45;&gt;Notification operator</title>
<path fill="none" stroke="black" stroke-width="2.15" d="M660.4,-479.1C634.13,-489.46 606.05,-505.55 589.5,-530 574.3,-552.44 573.79,-584.15 575.99,-606.64"/>
<polygon fill="black" stroke="black" stroke-width="2.15" points="572.55,-607.36 577.24,-616.86 579.5,-606.51 572.55,-607.36"/>
<text text-anchor="middle" x="626" y="-544.3" font-family="Sans Not-Rotated 14" font-size="14.00"> &#160;&#160;&#160;&#160;&#160;&#160;&#160;&#160;&#160;&#160;&#160;&#160;&#160;&#160;&#160;</text>
</g>
<!-- Yellow zone doctor&#45;&gt;Yellow zone doctor FD -->
<g id="edge14" class="edge">
<title>Yellow zone doctor&#45;&gt;Yellow zone doctor FD</title>
<path fill="none" stroke="black" stroke-width="3.63" d="M292.7,-790.72C288.34,-780.04 281.41,-766.75 271.5,-758 265.67,-752.85 258.99,-748.42 251.97,-744.61"/>
<polygon fill="black" stroke="black" stroke-width="3.63" points="253.44,-741.44 242.93,-740.12 250.33,-747.7 253.44,-741.44"/>
<text text-anchor="middle" x="320" y="-761.8" font-family="Sans Not-Rotated 14" font-size="14.00"> &#160;&#160;&#160;&#160;&#160;&#160;&#160;&#160;&#160;&#160;&#160;&#160;&#160;&#160;&#160;</text>
</g>
<!-- start -->
<g id="node18" class="node">
<title>start</title>
<ellipse fill="#95d600" stroke="black" cx="509.5" cy="-1079.3" rx="27.1" ry="27.1"/>
<text text-anchor="middle" x="509.5" y="-1075.6" font-family="Sans Not-Rotated 14" font-size="14.00">start</text>
</g>
<!-- start&#45;&gt;Red zone operator -->
<g id="edge8" class="edge">
<title>start&#45;&gt;Red zone operator</title>
<path fill="none" stroke="black" stroke-dasharray="5,2" d="M509.5,-1051.78C509.5,-1039.1 509.5,-1023.93 509.5,-1011.17"/>
<polygon fill="black" stroke="black" points="513,-1011.12 509.5,-1001.12 506,-1011.12 513,-1011.12"/>
<text text-anchor="middle" x="530" y="-1022.8" font-family="Sans Not-Rotated 14" font-size="14.00"> &#160;&#160;&#160;&#160;&#160;&#160;&#160;&#160;</text>
</g>
</g>
</svg>
