<?xml version="1.0" encoding="UTF-8" standalone="no"?>
<!DOCTYPE svg PUBLIC "-//W3C//DTD SVG 1.1//EN"
 "http://www.w3.org/Graphics/SVG/1.1/DTD/svg11.dtd">
<!-- Generated by graphviz version 3.0.0 (20220226.1711)
 -->
<!-- Pages: 1 -->
<svg width="1187pt" height="1202pt"
 viewBox="0.00 0.00 1187.30 1201.60" xmlns="http://www.w3.org/2000/svg" xmlns:xlink="http://www.w3.org/1999/xlink">
<g id="graph0" class="graph" transform="scale(1 1) rotate(0) translate(4 1197.6)">
<polygon fill="white" stroke="transparent" points="-4,4 -4,-1197.6 1183.3,-1197.6 1183.3,4 -4,4"/>
<!-- Program change operator -->
<g id="node1" class="node">
<title>Program change operator</title>
<polygon fill="#ffffff" stroke="black" points="249.5,-1193.6 56.5,-1193.6 56.5,-1157.6 249.5,-1157.6 249.5,-1193.6"/>
<text text-anchor="middle" x="153" y="-1171.9" font-family="Sans Not-Rotated 14" font-size="14.00">Program change operator</text>
</g>
<!-- Yellow zone Therapy control operator -->
<g id="node12" class="node">
<title>Yellow zone Therapy control operator</title>
<polygon fill="#e0ddf4" stroke="black" points="717,-1097.3 439,-1097.3 439,-1061.3 717,-1061.3 717,-1097.3"/>
<text text-anchor="middle" x="578" y="-1075.6" font-family="Sans Not-Rotated 14" font-size="14.00">Yellow zone Therapy control operator</text>
</g>
<!-- Program change operator&#45;&gt;Yellow zone Therapy control operator -->
<g id="edge1" class="edge">
<title>Program change operator&#45;&gt;Yellow zone Therapy control operator</title>
<path fill="none" stroke="black" stroke-width="1.04" d="M229.96,-1157.52C303.56,-1141.19 414.39,-1116.6 491.13,-1099.57"/>
<polygon fill="black" stroke="black" stroke-width="1.04" points="492.25,-1102.91 501.25,-1097.33 490.73,-1096.08 492.25,-1102.91"/>
<text text-anchor="middle" x="388.5" y="-1128.4" font-family="Sans Not-Rotated 14" font-size="14.00"> &#160;&#160;&#160;</text>
</g>
<!-- Kit return nurse -->
<g id="node2" class="node">
<title>Kit return nurse</title>
<polygon fill="#ffffff" stroke="black" points="444,-131 316,-131 316,-95 444,-95 444,-131"/>
<text text-anchor="middle" x="380" y="-109.3" font-family="Sans Not-Rotated 14" font-size="14.00">Kit return nurse</text>
</g>
<!-- end -->
<g id="node19" class="node">
<title>end</title>
<ellipse fill="#ea4126" stroke="black" cx="453" cy="-22" rx="18" ry="18"/>
<ellipse fill="none" stroke="black" cx="453" cy="-22" rx="22" ry="22"/>
</g>
<!-- Kit return nurse&#45;&gt;end -->
<g id="edge39" class="edge">
<title>Kit return nurse&#45;&gt;end</title>
<path fill="none" stroke="black" stroke-dasharray="5,2" d="M394.08,-94.84C405.12,-81.37 420.64,-62.45 432.98,-47.41"/>
<polygon fill="black" stroke="black" points="435.83,-49.46 439.46,-39.51 430.41,-45.02 435.83,-49.46"/>
<text text-anchor="middle" x="430.5" y="-65.8" font-family="Sans Not-Rotated 14" font-size="14.00"> &#160;&#160;&#160;</text>
</g>
<!-- Red zone operator -->
<g id="node3" class="node">
<title>Red zone operator</title>
<polygon fill="#1d2559" stroke="black" points="779.5,-1001 634.5,-1001 634.5,-965 779.5,-965 779.5,-1001"/>
<text text-anchor="middle" x="707" y="-979.3" font-family="Sans Not-Rotated 14" font-size="14.00" fill="white">Red zone operator</text>
</g>
<!-- Red zone operator&#45;&gt;Red zone operator -->
<g id="edge54" class="edge">
<title>Red zone operator&#45;&gt;Red zone operator</title>
<path fill="none" stroke="black" stroke-width="1.53" d="M779.79,-990.11C790.37,-988.98 797.5,-986.61 797.5,-983 797.5,-980.69 794.57,-978.88 789.69,-977.59"/>
<polygon fill="black" stroke="black" stroke-width="1.53" points="790.24,-974.13 779.79,-975.89 789.05,-981.03 790.24,-974.13"/>
<text text-anchor="middle" x="818" y="-979.3" font-family="Sans Not-Rotated 14" font-size="14.00"> &#160;&#160;&#160;&#160;&#160;&#160;&#160;&#160;</text>
</g>
<!-- Red zone doctor FD -->
<g id="node4" class="node">
<title>Red zone doctor FD</title>
<polygon fill="#1d2559" stroke="black" points="665.5,-914 512.5,-914 512.5,-878 665.5,-878 665.5,-914"/>
<text text-anchor="middle" x="589" y="-892.3" font-family="Sans Not-Rotated 14" font-size="14.00" fill="white">Red zone doctor FD</text>
</g>
<!-- Red zone operator&#45;&gt;Red zone doctor FD -->
<g id="edge11" class="edge">
<title>Red zone operator&#45;&gt;Red zone doctor FD</title>
<path fill="none" stroke="black" stroke-width="3.35" d="M634.77,-964.95C624.94,-960.33 615.63,-954.45 608,-947 601.67,-940.82 597.42,-932.31 594.58,-924.07"/>
<polygon fill="black" stroke="black" stroke-width="3.35" points="597.9,-922.96 591.77,-914.32 591.18,-924.9 597.9,-922.96"/>
<text text-anchor="middle" x="644.5" y="-935.8" font-family="Sans Not-Rotated 14" font-size="14.00"> &#160;&#160;&#160;&#160;&#160;&#160;&#160;&#160;&#160;&#160;&#160;&#160;&#160;&#160;&#160;</text>
</g>
<!-- Red zone measmissing operator -->
<g id="node5" class="node">
<title>Red zone measmissing operator</title>
<polygon fill="#ffffff" stroke="black" points="952,-566 716,-566 716,-530 952,-530 952,-566"/>
<text text-anchor="middle" x="834" y="-544.3" font-family="Sans Not-Rotated 14" font-size="14.00">Red zone measmissing operator</text>
</g>
<!-- Red zone operator&#45;&gt;Red zone measmissing operator -->
<g id="edge13" class="edge">
<title>Red zone operator&#45;&gt;Red zone measmissing operator</title>
<path fill="none" stroke="black" stroke-width="1" d="M779.52,-975.79C867.73,-966.19 1005,-943.74 1005,-897 1005,-897 1005,-897 1005,-634 1005,-602.15 980.92,-582.24 950.84,-569.78"/>
<polygon fill="black" stroke="black" stroke-width="1" points="951.92,-566.45 941.33,-566.15 949.42,-572.99 951.92,-566.45"/>
<text text-anchor="middle" x="1007.5" y="-761.8" font-family="Sans Not-Rotated 14" font-size="14.00"> </text>
</g>
<!-- Red zone doctor -->
<g id="node8" class="node">
<title>Red zone doctor</title>
<polygon fill="#1f3b98" stroke="black" points="885.5,-653 756.5,-653 756.5,-617 885.5,-617 885.5,-653"/>
<text text-anchor="middle" x="821" y="-631.3" font-family="Sans Not-Rotated 14" font-size="14.00" fill="white">Red zone doctor</text>
</g>
<!-- Red zone operator&#45;&gt;Red zone doctor -->
<g id="edge20" class="edge">
<title>Red zone operator&#45;&gt;Red zone doctor</title>
<path fill="none" stroke="black" stroke-width="5" d="M752.14,-964.82C760.03,-960.08 767.47,-954.2 773,-947 816.35,-890.57 767.6,-848.87 809,-791 817.83,-778.66 830.63,-786.26 838,-773 857.18,-738.53 844.67,-691.75 833.29,-662.74"/>
<polygon fill="black" stroke="black" stroke-width="5" points="837.23,-660.83 829.37,-653.27 829.15,-664.18 837.23,-660.83"/>
<text text-anchor="middle" x="845.5" y="-805.3" font-family="Sans Not-Rotated 14" font-size="14.00"> &#160;&#160;&#160;&#160;&#160;&#160;&#160;&#160;&#160;&#160;&#160;&#160;&#160;&#160;&#160;</text>
</g>
<!-- Red zone operator&#45;&gt;Yellow zone Therapy control operator -->
<g id="edge25" class="edge">
<title>Red zone operator&#45;&gt;Yellow zone Therapy control operator</title>
<path fill="none" stroke="black" stroke-width="1.05" d="M694.86,-1001.24C686.93,-1011.64 675.86,-1024.64 664,-1034 653.18,-1042.54 640.46,-1050.16 628.16,-1056.57"/>
<polygon fill="black" stroke="black" stroke-width="1.05" points="626.25,-1053.61 618.89,-1061.23 629.39,-1059.86 626.25,-1053.61"/>
<text text-anchor="middle" x="689.5" y="-1022.8" font-family="Sans Not-Rotated 14" font-size="14.00"> &#160;&#160;&#160;</text>
</g>
<!-- Red zone doctor FD&#45;&gt;Red zone operator -->
<g id="edge7" class="edge">
<title>Red zone doctor FD&#45;&gt;Red zone operator</title>
<path fill="none" stroke="black" stroke-width="3.44" d="M657.5,-914.11C667.52,-918.74 677.1,-924.6 685,-932 691.66,-938.25 696.43,-946.87 699.78,-955.2"/>
<polygon fill="black" stroke="black" stroke-width="3.44" points="696.49,-956.39 703.09,-964.68 703.1,-954.08 696.49,-956.39"/>
<text text-anchor="middle" x="732.5" y="-935.8" font-family="Sans Not-Rotated 14" font-size="14.00"> &#160;&#160;&#160;&#160;&#160;&#160;&#160;&#160;&#160;&#160;&#160;&#160;&#160;&#160;&#160;</text>
</g>
<!-- Red zone doctor FD&#45;&gt;Red zone doctor FD -->
<g id="edge55" class="edge">
<title>Red zone doctor FD&#45;&gt;Red zone doctor FD</title>
<path fill="none" stroke="black" stroke-width="2.55" d="M665.75,-903.03C676.39,-901.87 683.5,-899.53 683.5,-896 683.5,-893.74 680.58,-891.97 675.69,-890.68"/>
<polygon fill="black" stroke="black" stroke-width="2.55" points="676.2,-887.22 665.75,-888.97 675.02,-894.12 676.2,-887.22"/>
<text text-anchor="middle" x="720" y="-892.3" font-family="Sans Not-Rotated 14" font-size="14.00"> &#160;&#160;&#160;&#160;&#160;&#160;&#160;&#160;&#160;&#160;&#160;&#160;&#160;&#160;&#160;</text>
</g>
<!-- Red zone doctor FD&#45;&gt;Red zone measmissing operator -->
<g id="edge12" class="edge">
<title>Red zone doctor FD&#45;&gt;Red zone measmissing operator</title>
<path fill="none" stroke="black" stroke-width="1" d="M600.39,-877.76C603.59,-872.27 606.8,-866.05 609,-860 614.1,-845.99 612.34,-841.67 615,-827 634.59,-719.01 582.1,-662.31 659,-584 666.95,-575.9 684.69,-569.57 705.96,-564.66"/>
<polygon fill="black" stroke="black" stroke-width="1" points="706.92,-568.03 715.96,-562.5 705.45,-561.19 706.92,-568.03"/>
<text text-anchor="middle" x="621.5" y="-718.3" font-family="Sans Not-Rotated 14" font-size="14.00"> </text>
</g>
<!-- Yellow zone doctor FD -->
<g id="node6" class="node">
<title>Yellow zone doctor FD</title>
<polygon fill="#5661c6" stroke="black" points="435.5,-740 262.5,-740 262.5,-704 435.5,-704 435.5,-740"/>
<text text-anchor="middle" x="349" y="-718.3" font-family="Sans Not-Rotated 14" font-size="14.00" fill="white">Yellow zone doctor FD</text>
</g>
<!-- Red zone doctor FD&#45;&gt;Yellow zone doctor FD -->
<g id="edge16" class="edge">
<title>Red zone doctor FD&#45;&gt;Yellow zone doctor FD</title>
<path fill="none" stroke="black" stroke-width="1.5" d="M512.42,-889.67C472.97,-885.02 424.72,-876.31 384,-860 359.63,-850.24 348.8,-849.34 335,-827 318.8,-800.78 319.77,-787.71 328,-758 328.82,-755.02 329.98,-752.04 331.32,-749.15"/>
<polygon fill="black" stroke="black" stroke-width="1.5" points="334.43,-750.77 336.11,-740.31 328.27,-747.44 334.43,-750.77"/>
<text text-anchor="middle" x="355.5" y="-805.3" font-family="Sans Not-Rotated 14" font-size="14.00"> &#160;&#160;&#160;&#160;&#160;&#160;&#160;&#160;</text>
</g>
<!-- Red zone doctor FD&#45;&gt;Red zone doctor -->
<g id="edge21" class="edge">
<title>Red zone doctor FD&#45;&gt;Red zone doctor</title>
<path fill="none" stroke="black" stroke-width="1.73" d="M665.58,-878.63C679.62,-873.84 693.71,-867.74 706,-860 728.1,-846.08 772.12,-795.72 785,-773 804.79,-738.1 813.98,-692.03 818.04,-663.22"/>
<polygon fill="black" stroke="black" stroke-width="1.73" points="821.54,-663.44 819.35,-653.07 814.6,-662.54 821.54,-663.44"/>
<text text-anchor="middle" x="813.5" y="-761.8" font-family="Sans Not-Rotated 14" font-size="14.00"> &#160;&#160;&#160;&#160;&#160;&#160;&#160;&#160;</text>
</g>
<!-- Red zone doctor FD&#45;&gt;Yellow zone Therapy control operator -->
<g id="edge24" class="edge">
<title>Red zone doctor FD&#45;&gt;Yellow zone Therapy control operator</title>
<path fill="none" stroke="black" stroke-width="1.22" d="M561,-914.03C544.24,-925.97 524.4,-943.59 515,-965 501.02,-996.84 526.87,-1031.53 549.56,-1054.02"/>
<polygon fill="black" stroke="black" stroke-width="1.22" points="547.41,-1056.8 557.07,-1061.16 552.24,-1051.73 547.41,-1056.8"/>
<text text-anchor="middle" x="535.5" y="-979.3" font-family="Sans Not-Rotated 14" font-size="14.00"> &#160;&#160;&#160;&#160;&#160;&#160;&#160;&#160;</text>
</g>
<!-- Notification operator -->
<g id="node14" class="node">
<title>Notification operator</title>
<polygon fill="#1946ba" stroke="black" points="364.5,-653 205.5,-653 205.5,-617 364.5,-617 364.5,-653"/>
<text text-anchor="middle" x="285" y="-631.3" font-family="Sans Not-Rotated 14" font-size="14.00" fill="white">Notification operator</text>
</g>
<!-- Red zone doctor FD&#45;&gt;Notification operator -->
<g id="edge29" class="edge">
<title>Red zone doctor FD&#45;&gt;Notification operator</title>
<path fill="none" stroke="black" stroke-width="1.58" d="M512.31,-889.82C452.37,-884.69 374.72,-875.34 347,-860 323.03,-846.74 266.32,-779.61 253,-740 244.08,-713.49 256.19,-682.85 267.98,-661.73"/>
<polygon fill="black" stroke="black" stroke-width="1.58" points="271.05,-663.41 273.13,-653.02 265.02,-659.85 271.05,-663.41"/>
<text text-anchor="middle" x="289.5" y="-761.8" font-family="Sans Not-Rotated 14" font-size="14.00"> &#160;&#160;&#160;&#160;&#160;&#160;&#160;&#160;</text>
</g>
<!-- Yellow zone doctor -->
<g id="node17" class="node">
<title>Yellow zone doctor</title>
<polygon fill="#7d7fd2" stroke="black" points="606.5,-827 457.5,-827 457.5,-791 606.5,-791 606.5,-827"/>
<text text-anchor="middle" x="532" y="-805.3" font-family="Sans Not-Rotated 14" font-size="14.00">Yellow zone doctor</text>
</g>
<!-- Red zone doctor FD&#45;&gt;Yellow zone doctor -->
<g id="edge34" class="edge">
<title>Red zone doctor FD&#45;&gt;Yellow zone doctor</title>
<path fill="none" stroke="black" stroke-width="2.06" d="M577.47,-877.8C569.35,-865.7 558.36,-849.3 549.21,-835.67"/>
<polygon fill="black" stroke="black" stroke-width="2.06" points="551.99,-833.53 543.52,-827.18 546.18,-837.43 551.99,-833.53"/>
<text text-anchor="middle" x="584.5" y="-848.8" font-family="Sans Not-Rotated 14" font-size="14.00"> &#160;&#160;&#160;&#160;&#160;&#160;&#160;&#160;</text>
</g>
<!-- Red zone measmissing operator&#45;&gt;Red zone operator -->
<g id="edge41" class="edge">
<title>Red zone measmissing operator&#45;&gt;Red zone operator</title>
<path fill="none" stroke="black" stroke-width="1" d="M952.2,-561.01C969.26,-566.3 985.82,-573.7 1000,-584 1118.83,-670.3 1085.8,-784.25 1017,-914 1005.38,-935.91 995.01,-937.75 972,-947 913.95,-970.32 843.55,-978.79 789.91,-981.58"/>
<polygon fill="black" stroke="black" stroke-width="1" points="789.58,-978.09 779.75,-982.05 789.9,-985.08 789.58,-978.09"/>
<text text-anchor="middle" x="1079.5" y="-761.8" font-family="Sans Not-Rotated 14" font-size="14.00"> </text>
</g>
<!-- Red zone measmissing operator&#45;&gt;Red zone doctor FD -->
<g id="edge40" class="edge">
<title>Red zone measmissing operator&#45;&gt;Red zone doctor FD</title>
<path fill="none" stroke="black" stroke-width="1" d="M737.56,-566.15C703.27,-578.28 673,-598.92 673,-634 673,-810 673,-810 673,-810 673,-836.44 652.18,-857.62 631.27,-872.23"/>
<polygon fill="black" stroke="black" stroke-width="1" points="629.11,-869.46 622.68,-877.88 632.96,-875.31 629.11,-869.46"/>
<text text-anchor="middle" x="675.5" y="-718.3" font-family="Sans Not-Rotated 14" font-size="14.00"> </text>
</g>
<!-- Red zone measmissing operator&#45;&gt;Red zone doctor -->
<g id="edge42" class="edge">
<title>Red zone measmissing operator&#45;&gt;Red zone doctor</title>
<path fill="none" stroke="black" d="M831.37,-566.18C829.59,-577.81 827.21,-593.42 825.17,-606.73"/>
<polygon fill="black" stroke="black" points="821.68,-606.38 823.63,-616.8 828.6,-607.44 821.68,-606.38"/>
<text text-anchor="middle" x="831.5" y="-587.8" font-family="Sans Not-Rotated 14" font-size="14.00"> </text>
</g>
<!-- Yellow zone doctor FD&#45;&gt;Program change operator -->
<g id="edge4" class="edge">
<title>Yellow zone doctor FD&#45;&gt;Program change operator</title>
<path fill="none" stroke="black" stroke-width="1.03" d="M288.88,-740.08C277.95,-744.81 267.13,-750.71 258,-758 220.26,-788.13 137,-890.21 137,-938.5 137,-1080.3 137,-1080.3 137,-1080.3 137,-1103.17 141.63,-1128.73 145.91,-1147.46"/>
<polygon fill="black" stroke="black" stroke-width="1.03" points="142.55,-1148.46 148.29,-1157.36 149.36,-1146.82 142.55,-1148.46"/>
<text text-anchor="middle" x="146.5" y="-935.8" font-family="Sans Not-Rotated 14" font-size="14.00"> &#160;&#160;&#160;</text>
</g>
<!-- Yellow zone doctor FD&#45;&gt;Red zone operator -->
<g id="edge9" class="edge">
<title>Yellow zone doctor FD&#45;&gt;Red zone operator</title>
<path fill="none" stroke="black" stroke-width="1.7" d="M347.71,-740.22C347.31,-749.91 347.34,-762.19 349,-773 355.68,-816.44 361.02,-833.4 396,-860 464.39,-912.01 557.78,-944.68 624.33,-962.98"/>
<polygon fill="black" stroke="black" stroke-width="1.7" points="623.79,-966.46 634.35,-965.68 625.61,-959.7 623.79,-966.46"/>
<text text-anchor="middle" x="416.5" y="-848.8" font-family="Sans Not-Rotated 14" font-size="14.00"> &#160;&#160;&#160;&#160;&#160;&#160;&#160;&#160;</text>
</g>
<!-- Yellow zone doctor FD&#45;&gt;Red zone doctor FD -->
<g id="edge43" class="edge">
<title>Yellow zone doctor FD&#45;&gt;Red zone doctor FD</title>
<path fill="none" stroke="black" stroke-width="1.33" d="M349.31,-740.41C350.08,-750.38 352.08,-762.88 357,-773 371.31,-802.41 379.83,-808.78 407,-827 438.62,-848.2 477.73,-863.93 511.58,-874.88"/>
<polygon fill="black" stroke="black" stroke-width="1.33" points="510.85,-878.32 521.44,-877.99 512.96,-871.64 510.85,-878.32"/>
<text text-anchor="middle" x="427.5" y="-805.3" font-family="Sans Not-Rotated 14" font-size="14.00"> &#160;&#160;&#160;&#160;&#160;&#160;&#160;&#160;</text>
</g>
<!-- Yellow zone doctor FD&#45;&gt;Red zone doctor -->
<g id="edge44" class="edge">
<title>Yellow zone doctor FD&#45;&gt;Red zone doctor</title>
<path fill="none" stroke="black" stroke-width="1.29" d="M435.57,-705.41C524.57,-689.38 661.73,-664.68 746.18,-649.47"/>
<polygon fill="black" stroke="black" stroke-width="1.29" points="746.98,-652.89 756.21,-647.67 745.74,-646 746.98,-652.89"/>
<text text-anchor="middle" x="634.5" y="-674.8" font-family="Sans Not-Rotated 14" font-size="14.00"> &#160;&#160;&#160;&#160;&#160;&#160;&#160;&#160;</text>
</g>
<!-- Yellow zone doctor FD&#45;&gt;Notification operator -->
<g id="edge28" class="edge">
<title>Yellow zone doctor FD&#45;&gt;Notification operator</title>
<path fill="none" stroke="black" stroke-width="1.95" d="M304.07,-703.89C296.89,-699.18 290.39,-693.29 286,-686 282,-679.35 280.67,-671.25 280.63,-663.52"/>
<polygon fill="black" stroke="black" stroke-width="1.95" points="284.14,-663.58 281.26,-653.39 277.15,-663.15 284.14,-663.58"/>
<text text-anchor="middle" x="306.5" y="-674.8" font-family="Sans Not-Rotated 14" font-size="14.00"> &#160;&#160;&#160;&#160;&#160;&#160;&#160;&#160;</text>
</g>
<!-- Yellow zone doctor FD&#45;&gt;Yellow zone doctor -->
<g id="edge35" class="edge">
<title>Yellow zone doctor FD&#45;&gt;Yellow zone doctor</title>
<path fill="none" stroke="black" stroke-width="2.17" d="M352.75,-740.29C356.02,-751.25 361.88,-764.85 372,-773 375.33,-775.68 410.84,-783.56 447.56,-791.17"/>
<polygon fill="black" stroke="black" stroke-width="2.17" points="446.91,-794.61 457.41,-793.2 448.32,-787.76 446.91,-794.61"/>
<text text-anchor="middle" x="408.5" y="-761.8" font-family="Sans Not-Rotated 14" font-size="14.00"> &#160;&#160;&#160;&#160;&#160;&#160;&#160;&#160;&#160;&#160;&#160;&#160;&#160;&#160;&#160;</text>
</g>
<!-- Monitoring completed doctor -->
<g id="node7" class="node">
<title>Monitoring completed doctor</title>
<polygon fill="#ffffff" stroke="black" points="531,-392 317,-392 317,-356 531,-356 531,-392"/>
<text text-anchor="middle" x="424" y="-370.3" font-family="Sans Not-Rotated 14" font-size="14.00">Monitoring completed doctor</text>
</g>
<!-- Monitoring completed doctor FD -->
<g id="node15" class="node">
<title>Monitoring completed doctor FD</title>
<polygon fill="#ffffff" stroke="black" points="543,-305 305,-305 305,-269 543,-269 543,-305"/>
<text text-anchor="middle" x="424" y="-283.3" font-family="Sans Not-Rotated 14" font-size="14.00">Monitoring completed doctor FD</text>
</g>
<!-- Monitoring completed doctor&#45;&gt;Monitoring completed doctor FD -->
<g id="edge33" class="edge">
<title>Monitoring completed doctor&#45;&gt;Monitoring completed doctor FD</title>
<path fill="none" stroke="black" stroke-width="1.03" d="M424,-355.8C424,-344.16 424,-328.55 424,-315.24"/>
<polygon fill="black" stroke="black" stroke-width="1.03" points="427.5,-315.18 424,-305.18 420.5,-315.18 427.5,-315.18"/>
<text text-anchor="middle" x="433.5" y="-326.8" font-family="Sans Not-Rotated 14" font-size="14.00"> &#160;&#160;&#160;</text>
</g>
<!-- Red zone doctor&#45;&gt;Red zone operator -->
<g id="edge6" class="edge">
<title>Red zone doctor&#45;&gt;Red zone operator</title>
<path fill="none" stroke="black" stroke-width="3.47" d="M854.28,-653.22C877.37,-667.8 904,-691.09 904,-721 904,-897 904,-897 904,-897 904,-949.86 843.46,-970.24 789.5,-977.9"/>
<polygon fill="black" stroke="black" stroke-width="3.47" points="788.99,-974.44 779.52,-979.19 789.88,-981.38 788.99,-974.44"/>
<text text-anchor="middle" x="940.5" y="-805.3" font-family="Sans Not-Rotated 14" font-size="14.00"> &#160;&#160;&#160;&#160;&#160;&#160;&#160;&#160;&#160;&#160;&#160;&#160;&#160;&#160;&#160;</text>
</g>
<!-- Red zone doctor&#45;&gt;Red zone doctor FD -->
<g id="edge10" class="edge">
<title>Red zone doctor&#45;&gt;Red zone doctor FD</title>
<path fill="none" stroke="black" stroke-width="3.51" d="M814.33,-653.19C803.81,-679.49 783.13,-727.94 769,-740 748.79,-757.25 730.16,-738.61 712,-758 680.09,-792.07 718.27,-825.35 687,-860 682.63,-864.84 677.55,-869.01 672.04,-872.61"/>
<polygon fill="black" stroke="black" stroke-width="3.51" points="669.97,-869.76 663.06,-877.8 673.47,-875.82 669.97,-869.76"/>
<text text-anchor="middle" x="748.5" y="-761.8" font-family="Sans Not-Rotated 14" font-size="14.00"> &#160;&#160;&#160;&#160;&#160;&#160;&#160;&#160;&#160;&#160;&#160;&#160;&#160;&#160;&#160;</text>
</g>
<!-- Red zone doctor&#45;&gt;Red zone measmissing operator -->
<g id="edge14" class="edge">
<title>Red zone doctor&#45;&gt;Red zone measmissing operator</title>
<path fill="none" stroke="black" stroke-width="1" d="M821.65,-616.79C822.19,-607.1 823.19,-594.82 825,-584 825.43,-581.46 825.95,-578.82 826.52,-576.2"/>
<polygon fill="black" stroke="black" stroke-width="1" points="829.96,-576.86 828.92,-566.32 823.16,-575.21 829.96,-576.86"/>
<text text-anchor="middle" x="827.5" y="-587.8" font-family="Sans Not-Rotated 14" font-size="14.00"> </text>
</g>
<!-- Red zone doctor&#45;&gt;Yellow zone doctor -->
<g id="edge37" class="edge">
<title>Red zone doctor&#45;&gt;Yellow zone doctor</title>
<path fill="none" stroke="black" stroke-width="1.27" d="M794.8,-653.05C786.46,-658.64 777.26,-664.96 769,-671 759.04,-678.28 692.53,-733.57 682,-740 651.85,-758.4 615.87,-774.88 586.71,-787"/>
<polygon fill="black" stroke="black" stroke-width="1.27" points="585.02,-783.91 577.1,-790.95 587.68,-790.39 585.02,-783.91"/>
<text text-anchor="middle" x="747.5" y="-718.3" font-family="Sans Not-Rotated 14" font-size="14.00"> &#160;&#160;&#160;&#160;&#160;&#160;&#160;&#160;</text>
</g>
<!-- Target levels achieved doctor -->
<g id="node9" class="node">
<title>Target levels achieved doctor</title>
<polygon fill="#ffffff" stroke="black" points="288.5,-566 69.5,-566 69.5,-530 288.5,-530 288.5,-566"/>
<text text-anchor="middle" x="179" y="-544.3" font-family="Sans Not-Rotated 14" font-size="14.00">Target levels achieved doctor</text>
</g>
<!-- Target levels achieved doctor FD -->
<g id="node10" class="node">
<title>Target levels achieved doctor FD</title>
<polygon fill="#ffffff" stroke="black" points="280.5,-479 37.5,-479 37.5,-443 280.5,-443 280.5,-479"/>
<text text-anchor="middle" x="159" y="-457.3" font-family="Sans Not-Rotated 14" font-size="14.00">Target levels achieved doctor FD</text>
</g>
<!-- Target levels achieved doctor&#45;&gt;Target levels achieved doctor FD -->
<g id="edge23" class="edge">
<title>Target levels achieved doctor&#45;&gt;Target levels achieved doctor FD</title>
<path fill="none" stroke="black" stroke-width="1" d="M174.95,-529.8C172.21,-518.16 168.54,-502.55 165.41,-489.24"/>
<polygon fill="black" stroke="black" stroke-width="1" points="168.74,-488.11 163.04,-479.18 161.92,-489.71 168.74,-488.11"/>
<text text-anchor="middle" x="173.5" y="-500.8" font-family="Sans Not-Rotated 14" font-size="14.00"> </text>
</g>
<!-- Target levels achieved doctor FD&#45;&gt;Notification operator -->
<g id="edge45" class="edge">
<title>Target levels achieved doctor FD&#45;&gt;Notification operator</title>
<path fill="none" stroke="black" stroke-width="1" d="M119.71,-479.11C80.58,-498.6 29.71,-532.15 55,-566 72.28,-589.13 138.33,-607.15 195.24,-618.82"/>
<polygon fill="black" stroke="black" stroke-width="1" points="194.89,-622.32 205.38,-620.85 196.26,-615.45 194.89,-622.32"/>
<text text-anchor="middle" x="57.5" y="-544.3" font-family="Sans Not-Rotated 14" font-size="14.00"> </text>
</g>
<!-- Kit return operator -->
<g id="node11" class="node">
<title>Kit return operator</title>
<polygon fill="#ffffff" stroke="black" points="447,-218 299,-218 299,-182 447,-182 447,-218"/>
<text text-anchor="middle" x="373" y="-196.3" font-family="Sans Not-Rotated 14" font-size="14.00">Kit return operator</text>
</g>
<!-- Kit return operator&#45;&gt;Kit return nurse -->
<g id="edge5" class="edge">
<title>Kit return operator&#45;&gt;Kit return nurse</title>
<path fill="none" stroke="black" stroke-width="1.01" d="M374.42,-181.8C375.37,-170.16 376.66,-154.55 377.76,-141.24"/>
<polygon fill="black" stroke="black" stroke-width="1.01" points="381.25,-141.43 378.59,-131.18 374.28,-140.85 381.25,-141.43"/>
<text text-anchor="middle" x="379.5" y="-152.8" font-family="Sans Not-Rotated 14" font-size="14.00"> </text>
</g>
<!-- Yellow zone Therapy control operator&#45;&gt;Red zone operator -->
<g id="edge46" class="edge">
<title>Yellow zone Therapy control operator&#45;&gt;Red zone operator</title>
<path fill="none" stroke="black" stroke-width="1.17" d="M586.28,-1061.16C593.38,-1048.07 604.7,-1030.38 619,-1019 625.57,-1013.78 633.01,-1009.24 640.72,-1005.33"/>
<polygon fill="black" stroke="black" stroke-width="1.17" points="642.31,-1008.46 649.86,-1001.03 639.32,-1002.12 642.31,-1008.46"/>
<text text-anchor="middle" x="639.5" y="-1022.8" font-family="Sans Not-Rotated 14" font-size="14.00"> &#160;&#160;&#160;&#160;&#160;&#160;&#160;&#160;</text>
</g>
<!-- Yellow zone Therapy control operator&#45;&gt;Red zone doctor FD -->
<g id="edge48" class="edge">
<title>Yellow zone Therapy control operator&#45;&gt;Red zone doctor FD</title>
<path fill="none" stroke="black" stroke-width="1.09" d="M579.03,-1061.24C580.94,-1029.79 585.03,-962.42 587.33,-924.46"/>
<polygon fill="black" stroke="black" stroke-width="1.09" points="590.85,-924.34 587.96,-914.14 583.86,-923.91 590.85,-924.34"/>
<text text-anchor="middle" x="594.5" y="-979.3" font-family="Sans Not-Rotated 14" font-size="14.00"> &#160;&#160;&#160;</text>
</g>
<!-- Yellow zone Therapy control operator&#45;&gt;Red zone doctor -->
<g id="edge49" class="edge">
<title>Yellow zone Therapy control operator&#45;&gt;Red zone doctor</title>
<path fill="none" stroke="black" stroke-width="1.06" d="M717.11,-1065.59C865.98,-1050.05 1081,-1021.18 1081,-984 1081,-984 1081,-984 1081,-851.5 1081,-749.45 960.81,-686.55 883.86,-656.74"/>
<polygon fill="black" stroke="black" stroke-width="1.06" points="884.83,-653.36 874.24,-653.09 882.35,-659.91 884.83,-653.36"/>
<text text-anchor="middle" x="1090.5" y="-848.8" font-family="Sans Not-Rotated 14" font-size="14.00"> &#160;&#160;&#160;</text>
</g>
<!-- Yellow zone Therapy control operator&#45;&gt;Notification operator -->
<g id="edge47" class="edge">
<title>Yellow zone Therapy control operator&#45;&gt;Notification operator</title>
<path fill="none" stroke="black" stroke-width="1.12" d="M438.87,-1067.6C277.99,-1053.32 35,-1024.96 35,-984 35,-984 35,-984 35,-721 35,-686.08 123.52,-662.62 195.22,-649.35"/>
<polygon fill="black" stroke="black" stroke-width="1.12" points="195.99,-652.77 205.21,-647.54 194.75,-645.88 195.99,-652.77"/>
<text text-anchor="middle" x="55.5" y="-848.8" font-family="Sans Not-Rotated 14" font-size="14.00"> &#160;&#160;&#160;&#160;&#160;&#160;&#160;&#160;</text>
</g>
<!-- Yellow zone Therapy control operator&#45;&gt;end -->
<g id="edge50" class="edge">
<title>Yellow zone Therapy control operator&#45;&gt;end</title>
<path fill="none" stroke="black" stroke-dasharray="5,2" d="M717.04,-1072.24C799.53,-1066.53 905.69,-1055.44 998,-1034 1054.68,-1020.83 1119,-1042.19 1119,-984 1119,-984 1119,-984 1119,-112 1119,-47.33 619.22,-27.91 485.55,-23.88"/>
<polygon fill="black" stroke="black" points="485.26,-20.37 475.16,-23.57 485.05,-27.37 485.26,-20.37"/>
<text text-anchor="middle" x="1128.5" y="-544.3" font-family="Sans Not-Rotated 14" font-size="14.00"> &#160;&#160;&#160;</text>
</g>
<!-- Meas missing operator -->
<g id="node13" class="node">
<title>Meas missing operator</title>
<polygon fill="#a09dde" stroke="black" points="625.5,-566 454.5,-566 454.5,-530 625.5,-530 625.5,-566"/>
<text text-anchor="middle" x="540" y="-544.3" font-family="Sans Not-Rotated 14" font-size="14.00">Meas missing operator</text>
</g>
<!-- Meas missing operator&#45;&gt;Monitoring completed doctor -->
<g id="edge18" class="edge">
<title>Meas missing operator&#45;&gt;Monitoring completed doctor</title>
<path fill="none" stroke="black" stroke-width="1.01" d="M538.3,-529.8C535.45,-508 528.12,-469.99 510,-443 497.89,-424.97 479.49,-409.5 462.81,-397.89"/>
<polygon fill="black" stroke="black" stroke-width="1.01" points="464.55,-394.84 454.29,-392.18 460.65,-400.66 464.55,-394.84"/>
<text text-anchor="middle" x="536.5" y="-457.3" font-family="Sans Not-Rotated 14" font-size="14.00"> &#160;&#160;&#160;</text>
</g>
<!-- Meas missing operator&#45;&gt;Notification operator -->
<g id="edge32" class="edge">
<title>Meas missing operator&#45;&gt;Notification operator</title>
<path fill="none" stroke="black" stroke-width="1.47" d="M488.79,-566.07C447.57,-579.81 389.53,-599.16 345.93,-613.69"/>
<polygon fill="black" stroke="black" stroke-width="1.47" points="344.68,-610.42 336.3,-616.9 346.89,-617.06 344.68,-610.42"/>
<text text-anchor="middle" x="448.5" y="-587.8" font-family="Sans Not-Rotated 14" font-size="14.00"> &#160;&#160;&#160;&#160;&#160;&#160;&#160;&#160;</text>
</g>
<!-- Meas missing doctor -->
<g id="node16" class="node">
<title>Meas missing doctor</title>
<polygon fill="#c0bde9" stroke="black" points="501.5,-479 346.5,-479 346.5,-443 501.5,-443 501.5,-479"/>
<text text-anchor="middle" x="424" y="-457.3" font-family="Sans Not-Rotated 14" font-size="14.00">Meas missing doctor</text>
</g>
<!-- Meas missing operator&#45;&gt;Meas missing doctor -->
<g id="edge2" class="edge">
<title>Meas missing operator&#45;&gt;Meas missing doctor</title>
<path fill="none" stroke="black" stroke-width="2.59" d="M480.48,-529.81C470.26,-525.12 460.29,-519.26 452,-512 444.71,-505.62 438.92,-496.86 434.54,-488.45"/>
<polygon fill="black" stroke="black" stroke-width="2.59" points="437.63,-486.8 430.18,-479.26 431.3,-489.79 437.63,-486.8"/>
<text text-anchor="middle" x="488.5" y="-500.8" font-family="Sans Not-Rotated 14" font-size="14.00"> &#160;&#160;&#160;&#160;&#160;&#160;&#160;&#160;&#160;&#160;&#160;&#160;&#160;&#160;&#160;</text>
</g>
<!-- Notification operator&#45;&gt;Red zone operator -->
<g id="edge52" class="edge">
<title>Notification operator&#45;&gt;Red zone operator</title>
<path fill="none" stroke="black" stroke-width="1.37" d="M266.02,-653.11C261.13,-658.41 256.31,-664.56 253,-671 221.13,-732.99 199.71,-768.12 237,-827 279.03,-893.37 500.82,-944.01 624.12,-967.52"/>
<polygon fill="black" stroke="black" stroke-width="1.37" points="623.8,-971.03 634.28,-969.44 625.1,-964.15 623.8,-971.03"/>
<text text-anchor="middle" x="257.5" y="-805.3" font-family="Sans Not-Rotated 14" font-size="14.00"> &#160;&#160;&#160;&#160;&#160;&#160;&#160;&#160;</text>
</g>
<!-- Notification operator&#45;&gt;Yellow zone doctor FD -->
<g id="edge51" class="edge">
<title>Notification operator&#45;&gt;Yellow zone doctor FD</title>
<path fill="none" stroke="black" stroke-width="1.32" d="M309.47,-653.18C315.74,-658.39 322.09,-664.48 327,-671 332.27,-678 336.6,-686.47 339.99,-694.42"/>
<polygon fill="black" stroke="black" stroke-width="1.32" points="336.74,-695.71 343.65,-703.74 343.25,-693.16 336.74,-695.71"/>
<text text-anchor="middle" x="356.5" y="-674.8" font-family="Sans Not-Rotated 14" font-size="14.00"> &#160;&#160;&#160;&#160;&#160;&#160;&#160;&#160;</text>
</g>
<!-- Notification operator&#45;&gt;Monitoring completed doctor -->
<g id="edge19" class="edge">
<title>Notification operator&#45;&gt;Monitoring completed doctor</title>
<path fill="none" stroke="black" stroke-width="1.01" d="M288.22,-616.87C296.2,-575.64 317.64,-472.12 337,-443 349.11,-424.78 367.71,-409.29 384.61,-397.72"/>
<polygon fill="black" stroke="black" stroke-width="1.01" points="386.82,-400.46 393.24,-392.03 382.97,-394.61 386.82,-400.46"/>
<text text-anchor="middle" x="325.5" y="-500.8" font-family="Sans Not-Rotated 14" font-size="14.00"> &#160;&#160;&#160;</text>
</g>
<!-- Notification operator&#45;&gt;Target levels achieved doctor -->
<g id="edge22" class="edge">
<title>Notification operator&#45;&gt;Target levels achieved doctor</title>
<path fill="none" stroke="black" stroke-width="1" d="M263.55,-616.8C247.74,-604.13 226.06,-586.73 208.6,-572.74"/>
<polygon fill="black" stroke="black" stroke-width="1" points="210.41,-569.7 200.42,-566.18 206.03,-575.16 210.41,-569.7"/>
<text text-anchor="middle" x="241.5" y="-587.8" font-family="Sans Not-Rotated 14" font-size="14.00"> </text>
</g>
<!-- Notification operator&#45;&gt;Yellow zone Therapy control operator -->
<g id="edge26" class="edge">
<title>Notification operator&#45;&gt;Yellow zone Therapy control operator</title>
<path fill="none" stroke="black" stroke-width="1.07" d="M262.07,-653.22C199.83,-702.04 37.45,-844.41 115,-947 155.49,-1000.57 327.65,-1038.63 450.18,-1059.54"/>
<polygon fill="black" stroke="black" stroke-width="1.07" points="449.95,-1063.05 460.4,-1061.26 451.12,-1056.14 449.95,-1063.05"/>
<text text-anchor="middle" x="111.5" y="-848.8" font-family="Sans Not-Rotated 14" font-size="14.00"> &#160;&#160;&#160;</text>
</g>
<!-- Notification operator&#45;&gt;Meas missing operator -->
<g id="edge27" class="edge">
<title>Notification operator&#45;&gt;Meas missing operator</title>
<path fill="none" stroke="black" stroke-width="2.78" d="M364.67,-629.31C401.45,-624.78 444.88,-616 481,-599 494.36,-592.71 507.13,-582.6 517.35,-573.11"/>
<polygon fill="black" stroke="black" stroke-width="2.78" points="519.89,-575.52 524.64,-566.05 515.02,-570.49 519.89,-575.52"/>
<text text-anchor="middle" x="541.5" y="-587.8" font-family="Sans Not-Rotated 14" font-size="14.00"> &#160;&#160;&#160;&#160;&#160;&#160;&#160;&#160;&#160;&#160;&#160;&#160;&#160;&#160;&#160;</text>
</g>
<!-- Notification operator&#45;&gt;Notification operator -->
<g id="edge56" class="edge">
<title>Notification operator&#45;&gt;Notification operator</title>
<path fill="none" stroke="black" stroke-width="2.07" d="M364.57,-641.99C375.33,-640.82 382.5,-638.49 382.5,-635 382.5,-632.77 379.56,-631.01 374.62,-629.72"/>
<polygon fill="black" stroke="black" stroke-width="2.07" points="375.02,-626.24 364.57,-628.01 373.84,-633.14 375.02,-626.24"/>
<text text-anchor="middle" x="403" y="-631.3" font-family="Sans Not-Rotated 14" font-size="14.00"> &#160;&#160;&#160;&#160;&#160;&#160;&#160;&#160;</text>
</g>
<!-- Notification operator&#45;&gt;Yellow zone doctor -->
<g id="edge36" class="edge">
<title>Notification operator&#45;&gt;Yellow zone doctor</title>
<path fill="none" stroke="black" stroke-width="1.69" d="M364.59,-642.3C401.87,-647.17 446.26,-655.78 484,-671 531.89,-690.32 548.77,-707.83 561,-758 562.58,-764.48 563.26,-766.73 561,-773 559.81,-776.29 558.17,-779.49 556.26,-782.54"/>
<polygon fill="black" stroke="black" stroke-width="1.69" points="553.41,-780.5 550.34,-790.64 559.06,-784.63 553.41,-780.5"/>
<text text-anchor="middle" x="576.5" y="-718.3" font-family="Sans Not-Rotated 14" font-size="14.00"> &#160;&#160;&#160;&#160;&#160;&#160;&#160;&#160;</text>
</g>
<!-- Notification operator&#45;&gt;end -->
<g id="edge38" class="edge">
<title>Notification operator&#45;&gt;end</title>
<path fill="none" stroke="black" stroke-dasharray="5,2" d="M205.23,-625.91C120.92,-615.08 0,-592.05 0,-549 0,-549 0,-549 0,-112 0,-26.17 317.06,-21.66 420.67,-22.48"/>
<polygon fill="black" stroke="black" points="420.81,-25.98 430.84,-22.58 420.88,-18.98 420.81,-25.98"/>
<text text-anchor="middle" x="20.5" y="-326.8" font-family="Sans Not-Rotated 14" font-size="14.00"> &#160;&#160;&#160;&#160;&#160;&#160;&#160;&#160;</text>
</g>
<!-- Monitoring completed doctor FD&#45;&gt;Kit return operator -->
<g id="edge3" class="edge">
<title>Monitoring completed doctor FD&#45;&gt;Kit return operator</title>
<path fill="none" stroke="black" stroke-width="1" d="M413.68,-268.8C406.49,-256.82 396.77,-240.62 388.63,-227.06"/>
<polygon fill="black" stroke="black" stroke-width="1" points="391.45,-224.95 383.31,-218.18 385.45,-228.55 391.45,-224.95"/>
<text text-anchor="middle" x="404.5" y="-239.8" font-family="Sans Not-Rotated 14" font-size="14.00"> </text>
</g>
<!-- Monitoring completed doctor FD&#45;&gt;end -->
<g id="edge53" class="edge">
<title>Monitoring completed doctor FD&#45;&gt;end</title>
<path fill="none" stroke="black" stroke-dasharray="5,2" d="M434.66,-268.87C442.29,-255.56 451.9,-236.34 456,-218 468.69,-161.22 462.99,-92.8 457.87,-53.96"/>
<polygon fill="black" stroke="black" points="461.31,-53.24 456.46,-43.82 454.38,-54.2 461.31,-53.24"/>
<text text-anchor="middle" x="473.5" y="-152.8" font-family="Sans Not-Rotated 14" font-size="14.00"> &#160;&#160;&#160;</text>
</g>
<!-- Meas missing doctor&#45;&gt;Monitoring completed doctor -->
<g id="edge17" class="edge">
<title>Meas missing doctor&#45;&gt;Monitoring completed doctor</title>
<path fill="none" stroke="black" stroke-width="1.01" d="M424,-442.8C424,-431.16 424,-415.55 424,-402.24"/>
<polygon fill="black" stroke="black" stroke-width="1.01" points="427.5,-402.18 424,-392.18 420.5,-402.18 427.5,-402.18"/>
<text text-anchor="middle" x="433.5" y="-413.8" font-family="Sans Not-Rotated 14" font-size="14.00"> &#160;&#160;&#160;</text>
</g>
<!-- Meas missing doctor&#45;&gt;Notification operator -->
<g id="edge30" class="edge">
<title>Meas missing doctor&#45;&gt;Notification operator</title>
<path fill="none" stroke="black" stroke-width="2.15" d="M409.96,-479.2C399.15,-492.7 384.07,-512.15 372,-530 352.02,-559.55 354.74,-572.38 331,-599 327.5,-602.92 323.5,-606.71 319.36,-610.25"/>
<polygon fill="black" stroke="black" stroke-width="2.15" points="316.92,-607.72 311.32,-616.72 321.3,-613.18 316.92,-607.72"/>
<text text-anchor="middle" x="408.5" y="-544.3" font-family="Sans Not-Rotated 14" font-size="14.00"> &#160;&#160;&#160;&#160;&#160;&#160;&#160;&#160;&#160;&#160;&#160;&#160;&#160;&#160;&#160;</text>
</g>
<!-- Yellow zone doctor&#45;&gt;Yellow zone doctor FD -->
<g id="edge15" class="edge">
<title>Yellow zone doctor&#45;&gt;Yellow zone doctor FD</title>
<path fill="none" stroke="black" stroke-width="3.63" d="M501.92,-790.84C492.3,-785.25 481.65,-778.95 472,-773 461.61,-766.59 459.95,-763.39 449,-758 438.23,-752.7 426.46,-747.83 414.89,-743.51"/>
<polygon fill="black" stroke="black" stroke-width="3.63" points="415.85,-740.14 405.25,-740.02 413.46,-746.72 415.85,-740.14"/>
<text text-anchor="middle" x="508.5" y="-761.8" font-family="Sans Not-Rotated 14" font-size="14.00"> &#160;&#160;&#160;&#160;&#160;&#160;&#160;&#160;&#160;&#160;&#160;&#160;&#160;&#160;&#160;</text>
</g>
<!-- Yellow zone doctor&#45;&gt;Notification operator -->
<g id="edge31" class="edge">
<title>Yellow zone doctor&#45;&gt;Notification operator</title>
<path fill="none" stroke="black" stroke-width="1.37" d="M543.05,-790.95C548.22,-780.62 551.9,-767.62 545,-758 530.51,-737.78 510.09,-757.07 492,-740 467.93,-717.29 489.54,-692.05 464,-671 449.87,-659.35 411.97,-651.09 374.66,-645.52"/>
<polygon fill="black" stroke="black" stroke-width="1.37" points="375.08,-642.05 364.69,-644.1 374.09,-648.98 375.08,-642.05"/>
<text text-anchor="middle" x="512.5" y="-718.3" font-family="Sans Not-Rotated 14" font-size="14.00"> &#160;&#160;&#160;&#160;&#160;&#160;&#160;&#160;</text>
</g>
<!-- start -->
<g id="node18" class="node">
<title>start</title>
<ellipse fill="#95d600" stroke="black" cx="1152" cy="-1079.3" rx="27.1" ry="27.1"/>
<text text-anchor="middle" x="1152" y="-1075.6" font-family="Sans Not-Rotated 14" font-size="14.00">start</text>
</g>
<!-- start&#45;&gt;Red zone operator -->
<g id="edge8" class="edge">
<title>start&#45;&gt;Red zone operator</title>
<path fill="none" stroke="black" stroke-dasharray="5,2" d="M1125.5,-1072.68C1060.67,-1058.94 891.95,-1023.19 789.62,-1001.51"/>
<polygon fill="black" stroke="black" points="790.14,-998.04 779.63,-999.39 788.68,-1004.89 790.14,-998.04"/>
<text text-anchor="middle" x="963.5" y="-1022.8" font-family="Sans Not-Rotated 14" font-size="14.00"> &#160;&#160;&#160;&#160;&#160;&#160;&#160;&#160;</text>
</g>
</g>
</svg>
