<?xml version="1.0" encoding="UTF-8" standalone="no"?>
<!DOCTYPE svg PUBLIC "-//W3C//DTD SVG 1.1//EN"
 "http://www.w3.org/Graphics/SVG/1.1/DTD/svg11.dtd">
<!-- Generated by graphviz version 3.0.0 (20220226.1711)
 -->
<!-- Pages: 1 -->
<svg width="353pt" height="680pt"
 viewBox="0.00 0.00 352.59 679.60" xmlns="http://www.w3.org/2000/svg" xmlns:xlink="http://www.w3.org/1999/xlink">
<g id="graph0" class="graph" transform="scale(1 1) rotate(0) translate(4 675.6)">
<polygon fill="white" stroke="transparent" points="-4,4 -4,-675.6 348.59,-675.6 348.59,4 -4,4"/>
<!-- Triage -->
<g id="node1" class="node">
<title>Triage</title>
<polygon fill="#ffffff" stroke="black" points="220.59,-566 160.59,-566 160.59,-530 220.59,-530 220.59,-566"/>
<text text-anchor="middle" x="190.59" y="-544.3" font-family="Sans Not-Rotated 14" font-size="14.00">Triage</text>
</g>
<!-- Register -->
<g id="node4" class="node">
<title>Register</title>
<polygon fill="#ffffff" stroke="black" points="227.59,-479 153.59,-479 153.59,-443 227.59,-443 227.59,-479"/>
<text text-anchor="middle" x="190.59" y="-457.3" font-family="Sans Not-Rotated 14" font-size="14.00">Register</text>
</g>
<!-- Triage&#45;&gt;Register -->
<g id="edge7" class="edge">
<title>Triage&#45;&gt;Register</title>
<path fill="none" stroke="black" stroke-width="5" d="M190.59,-529.8C190.59,-518.16 190.59,-502.55 190.59,-489.24"/>
<polygon fill="black" stroke="black" stroke-width="5" points="194.97,-489.18 190.59,-479.18 186.22,-489.18 194.97,-489.18"/>
<text text-anchor="middle" x="247.09" y="-500.8" font-family="Sans Not-Rotated 14" font-size="14.00"> &#160;&#160;&#160;&#160;&#160;&#160;&#160;&#160;&#160;&#160;&#160;&#160;&#160;&#160;&#160;&#160;&#160;&#160;&#160;&#160;&#160;&#160;&#160;&#160;</text>
</g>
<!-- Final Visit -->
<g id="node2" class="node">
<title>Final Visit</title>
<polygon fill="#ffffff" stroke="black" points="92.59,-218 8.59,-218 8.59,-182 92.59,-182 92.59,-218"/>
<text text-anchor="middle" x="50.59" y="-196.3" font-family="Sans Not-Rotated 14" font-size="14.00">Final Visit</text>
</g>
<!-- Prepare -->
<g id="node6" class="node">
<title>Prepare</title>
<polygon fill="#ffffff" stroke="black" points="86.09,-131 15.09,-131 15.09,-95 86.09,-95 86.09,-131"/>
<text text-anchor="middle" x="50.59" y="-109.3" font-family="Sans Not-Rotated 14" font-size="14.00">Prepare</text>
</g>
<!-- Final Visit&#45;&gt;Prepare -->
<g id="edge9" class="edge">
<title>Final Visit&#45;&gt;Prepare</title>
<path fill="none" stroke="black" stroke-width="2.55" d="M50.59,-181.8C50.59,-170.16 50.59,-154.55 50.59,-141.24"/>
<polygon fill="black" stroke="black" stroke-width="2.55" points="54.09,-141.18 50.59,-131.18 47.09,-141.18 54.09,-141.18"/>
<text text-anchor="middle" x="87.09" y="-152.8" font-family="Sans Not-Rotated 14" font-size="14.00"> &#160;&#160;&#160;&#160;&#160;&#160;&#160;&#160;&#160;&#160;&#160;&#160;&#160;&#160;&#160;</text>
</g>
<!-- Check -->
<g id="node7" class="node">
<title>Check</title>
<polygon fill="#1d2559" stroke="black" points="176.09,-305 117.09,-305 117.09,-269 176.09,-269 176.09,-305"/>
<text text-anchor="middle" x="146.59" y="-283.3" font-family="Sans Not-Rotated 14" font-size="14.00" fill="white">Check</text>
</g>
<!-- Final Visit&#45;&gt;Check -->
<g id="edge12" class="edge">
<title>Final Visit&#45;&gt;Check</title>
<path fill="none" stroke="black" d="M68.44,-218.46C78.58,-228.22 91.61,-240.49 103.59,-251 107.84,-254.73 112.41,-258.59 116.92,-262.32"/>
<polygon fill="black" stroke="black" points="114.95,-265.23 124.9,-268.86 119.38,-259.81 114.95,-265.23"/>
<text text-anchor="middle" x="140.09" y="-239.8" font-family="Sans Not-Rotated 14" font-size="14.00"> &#160;&#160;&#160;&#160;&#160;&#160;&#160;&#160;&#160;&#160;&#160;&#160;&#160;&#160;&#160;</text>
</g>
<!-- Visit -->
<g id="node3" class="node">
<title>Visit</title>
<polygon fill="#ffffff" stroke="black" points="269.59,-218 215.59,-218 215.59,-182 269.59,-182 269.59,-218"/>
<text text-anchor="middle" x="242.59" y="-196.3" font-family="Sans Not-Rotated 14" font-size="14.00">Visit</text>
</g>
<!-- Visit&#45;&gt;Check -->
<g id="edge2" class="edge">
<title>Visit&#45;&gt;Check</title>
<path fill="none" stroke="black" stroke-width="2.43" d="M260.85,-218.03C269.42,-228.11 276.25,-240.84 268.59,-251 249.78,-275.97 214.35,-284.01 186.5,-286.22"/>
<polygon fill="black" stroke="black" stroke-width="2.43" points="186.03,-282.74 176.24,-286.8 186.43,-289.73 186.03,-282.74"/>
<text text-anchor="middle" x="308.09" y="-239.8" font-family="Sans Not-Rotated 14" font-size="14.00"> &#160;&#160;&#160;&#160;&#160;&#160;&#160;&#160;&#160;&#160;&#160;&#160;&#160;&#160;&#160;</text>
</g>
<!-- X&#45;Ray -->
<g id="node5" class="node">
<title>X&#45;Ray</title>
<polygon fill="#ffffff" stroke="black" points="176.09,-392 117.09,-392 117.09,-356 176.09,-356 176.09,-392"/>
<text text-anchor="middle" x="146.59" y="-370.3" font-family="Sans Not-Rotated 14" font-size="14.00">X&#45;Ray</text>
</g>
<!-- Register&#45;&gt;X&#45;Ray -->
<g id="edge8" class="edge">
<title>Register&#45;&gt;X&#45;Ray</title>
<path fill="none" stroke="black" stroke-width="1.16" d="M162.35,-442.93C156.43,-437.93 150.97,-431.92 147.59,-425 144.19,-418.03 143.04,-409.83 142.99,-402.11"/>
<polygon fill="black" stroke="black" stroke-width="1.16" points="146.49,-402.2 143.48,-392.04 139.5,-401.86 146.49,-402.2"/>
<text text-anchor="middle" x="184.09" y="-413.8" font-family="Sans Not-Rotated 14" font-size="14.00"> &#160;&#160;&#160;&#160;&#160;&#160;&#160;&#160;&#160;&#160;&#160;&#160;&#160;&#160;&#160;</text>
</g>
<!-- Register&#45;&gt;Check -->
<g id="edge10" class="edge">
<title>Register&#45;&gt;Check</title>
<path fill="none" stroke="black" stroke-width="1.77" d="M209.55,-442.74C214.04,-437.52 218.2,-431.46 220.59,-425 236.32,-382.48 244.85,-361.3 220.59,-323 212.76,-310.63 199.25,-302.55 185.9,-297.31"/>
<polygon fill="black" stroke="black" stroke-width="1.77" points="186.89,-293.95 176.29,-293.97 184.59,-300.56 186.89,-293.95"/>
<text text-anchor="middle" x="273.09" y="-370.3" font-family="Sans Not-Rotated 14" font-size="14.00"> &#160;&#160;&#160;&#160;&#160;&#160;&#160;&#160;&#160;&#160;&#160;&#160;&#160;&#160;&#160;</text>
</g>
<!-- X&#45;Ray&#45;&gt;Check -->
<g id="edge3" class="edge">
<title>X&#45;Ray&#45;&gt;Check</title>
<path fill="none" stroke="black" stroke-width="3.11" d="M117,-368.93C82.73,-362.91 33.2,-349.37 51.59,-323 64.06,-305.12 86.75,-296.35 106.83,-292.06"/>
<polygon fill="black" stroke="black" stroke-width="3.11" points="107.52,-295.49 116.72,-290.24 106.25,-288.6 107.52,-295.49"/>
<text text-anchor="middle" x="88.09" y="-326.8" font-family="Sans Not-Rotated 14" font-size="14.00"> &#160;&#160;&#160;&#160;&#160;&#160;&#160;&#160;&#160;&#160;&#160;&#160;&#160;&#160;&#160;</text>
</g>
<!-- end -->
<g id="node9" class="node">
<title>end</title>
<ellipse fill="#ea4126" stroke="black" cx="50.59" cy="-22" rx="18" ry="18"/>
<ellipse fill="none" stroke="black" cx="50.59" cy="-22" rx="22" ry="22"/>
</g>
<!-- Prepare&#45;&gt;end -->
<g id="edge11" class="edge">
<title>Prepare&#45;&gt;end</title>
<path fill="none" stroke="black" stroke-dasharray="5,2" d="M50.59,-94.84C50.59,-83.44 50.59,-68.13 50.59,-54.58"/>
<polygon fill="black" stroke="black" points="54.09,-54.19 50.59,-44.19 47.09,-54.19 54.09,-54.19"/>
<text text-anchor="middle" x="87.09" y="-65.8" font-family="Sans Not-Rotated 14" font-size="14.00"> &#160;&#160;&#160;&#160;&#160;&#160;&#160;&#160;&#160;&#160;&#160;&#160;&#160;&#160;&#160;</text>
</g>
<!-- Check&#45;&gt;Final Visit -->
<g id="edge6" class="edge">
<title>Check&#45;&gt;Final Visit</title>
<path fill="none" stroke="black" stroke-width="2.22" d="M116.85,-282.99C79.15,-278.49 17.4,-268.59 3.59,-251 -3.55,-241.9 1.48,-232.52 10.48,-224.37"/>
<polygon fill="black" stroke="black" stroke-width="2.22" points="12.71,-227.07 18.39,-218.13 8.37,-221.58 12.71,-227.07"/>
<text text-anchor="middle" x="40.09" y="-239.8" font-family="Sans Not-Rotated 14" font-size="14.00"> &#160;&#160;&#160;&#160;&#160;&#160;&#160;&#160;&#160;&#160;&#160;&#160;&#160;&#160;&#160;</text>
</g>
<!-- Check&#45;&gt;Visit -->
<g id="edge1" class="edge">
<title>Check&#45;&gt;Visit</title>
<path fill="none" stroke="black" stroke-width="3" d="M162.3,-268.67C171.62,-258.73 183.87,-246.23 195.59,-236 200.11,-232.06 205.04,-228.07 209.95,-224.28"/>
<polygon fill="black" stroke="black" stroke-width="3" points="212.25,-226.93 218.12,-218.11 208.03,-221.34 212.25,-226.93"/>
<text text-anchor="middle" x="232.09" y="-239.8" font-family="Sans Not-Rotated 14" font-size="14.00"> &#160;&#160;&#160;&#160;&#160;&#160;&#160;&#160;&#160;&#160;&#160;&#160;&#160;&#160;&#160;</text>
</g>
<!-- Check&#45;&gt;X&#45;Ray -->
<g id="edge4" class="edge">
<title>Check&#45;&gt;X&#45;Ray</title>
<path fill="none" stroke="black" stroke-width="2.09" d="M146.59,-305.18C146.59,-316.81 146.59,-332.42 146.59,-345.73"/>
<polygon fill="black" stroke="black" stroke-width="2.09" points="143.09,-345.8 146.59,-355.8 150.09,-345.8 143.09,-345.8"/>
<text text-anchor="middle" x="183.09" y="-326.8" font-family="Sans Not-Rotated 14" font-size="14.00"> &#160;&#160;&#160;&#160;&#160;&#160;&#160;&#160;&#160;&#160;&#160;&#160;&#160;&#160;&#160;</text>
</g>
<!-- Check&#45;&gt;Check -->
<g id="edge13" class="edge">
<title>Check&#45;&gt;Check</title>
<path fill="none" stroke="black" stroke-width="2.26" d="M176.28,-294.88C186.18,-294.88 194.09,-292.25 194.09,-287 194.09,-283.72 191,-281.46 186.26,-280.23"/>
<polygon fill="black" stroke="black" stroke-width="2.26" points="186.6,-276.75 176.28,-279.12 185.83,-283.71 186.6,-276.75"/>
<text text-anchor="middle" x="230.59" y="-283.3" font-family="Sans Not-Rotated 14" font-size="14.00"> &#160;&#160;&#160;&#160;&#160;&#160;&#160;&#160;&#160;&#160;&#160;&#160;&#160;&#160;&#160;</text>
</g>
<!-- start -->
<g id="node8" class="node">
<title>start</title>
<ellipse fill="#95d600" stroke="black" cx="190.59" cy="-644.3" rx="27.1" ry="27.1"/>
<text text-anchor="middle" x="190.59" y="-640.6" font-family="Sans Not-Rotated 14" font-size="14.00">start</text>
</g>
<!-- start&#45;&gt;Triage -->
<g id="edge5" class="edge">
<title>start&#45;&gt;Triage</title>
<path fill="none" stroke="black" stroke-dasharray="5,2" d="M190.59,-616.78C190.59,-604.1 190.59,-588.93 190.59,-576.17"/>
<polygon fill="black" stroke="black" points="194.09,-576.12 190.59,-566.12 187.09,-576.12 194.09,-576.12"/>
<text text-anchor="middle" x="247.09" y="-587.8" font-family="Sans Not-Rotated 14" font-size="14.00"> &#160;&#160;&#160;&#160;&#160;&#160;&#160;&#160;&#160;&#160;&#160;&#160;&#160;&#160;&#160;&#160;&#160;&#160;&#160;&#160;&#160;&#160;&#160;&#160;</text>
</g>
</g>
</svg>
