<?xml version="1.0" encoding="UTF-8" standalone="no"?>
<!DOCTYPE svg PUBLIC "-//W3C//DTD SVG 1.1//EN"
 "http://www.w3.org/Graphics/SVG/1.1/DTD/svg11.dtd">
<!-- Generated by graphviz version 3.0.0 (20220226.1711)
 -->
<!-- Pages: 1 -->
<svg width="276pt" height="680pt"
 viewBox="0.00 0.00 276.21 679.60" xmlns="http://www.w3.org/2000/svg" xmlns:xlink="http://www.w3.org/1999/xlink">
<g id="graph0" class="graph" transform="scale(1 1) rotate(0) translate(4 675.6)">
<polygon fill="white" stroke="transparent" points="-4,4 -4,-675.6 272.21,-675.6 272.21,4 -4,4"/>
<!-- Triage -->
<g id="node1" class="node">
<title>Triage</title>
<polygon fill="#ffffff" stroke="black" points="173.21,-566 113.21,-566 113.21,-530 173.21,-530 173.21,-566"/>
<text text-anchor="middle" x="143.21" y="-544.3" font-family="Sans Not-Rotated 14" font-size="14.00">Triage</text>
</g>
<!-- Register -->
<g id="node4" class="node">
<title>Register</title>
<polygon fill="#ffffff" stroke="black" points="180.21,-479 106.21,-479 106.21,-443 180.21,-443 180.21,-479"/>
<text text-anchor="middle" x="143.21" y="-457.3" font-family="Sans Not-Rotated 14" font-size="14.00">Register</text>
</g>
<!-- Triage&#45;&gt;Register -->
<g id="edge7" class="edge">
<title>Triage&#45;&gt;Register</title>
<path fill="none" stroke="black" stroke-width="5" d="M143.21,-529.8C143.21,-518.16 143.21,-502.55 143.21,-489.24"/>
<polygon fill="black" stroke="black" stroke-width="5" points="147.59,-489.18 143.21,-479.18 138.84,-489.18 147.59,-489.18"/>
<text text-anchor="middle" x="199.71" y="-500.8" font-family="Sans Not-Rotated 14" font-size="14.00"> &#160;&#160;&#160;&#160;&#160;&#160;&#160;&#160;&#160;&#160;&#160;&#160;&#160;&#160;&#160;&#160;&#160;&#160;&#160;&#160;&#160;&#160;&#160;&#160;</text>
</g>
<!-- Final Visit -->
<g id="node2" class="node">
<title>Final Visit</title>
<polygon fill="#ffffff" stroke="black" points="237.21,-218 153.21,-218 153.21,-182 237.21,-182 237.21,-218"/>
<text text-anchor="middle" x="195.21" y="-196.3" font-family="Sans Not-Rotated 14" font-size="14.00">Final Visit</text>
</g>
<!-- Prepare -->
<g id="node6" class="node">
<title>Prepare</title>
<polygon fill="#ffffff" stroke="black" points="230.71,-131 159.71,-131 159.71,-95 230.71,-95 230.71,-131"/>
<text text-anchor="middle" x="195.21" y="-109.3" font-family="Sans Not-Rotated 14" font-size="14.00">Prepare</text>
</g>
<!-- Final Visit&#45;&gt;Prepare -->
<g id="edge9" class="edge">
<title>Final Visit&#45;&gt;Prepare</title>
<path fill="none" stroke="black" stroke-width="2.44" d="M195.21,-181.8C195.21,-170.16 195.21,-154.55 195.21,-141.24"/>
<polygon fill="black" stroke="black" stroke-width="2.44" points="198.71,-141.18 195.21,-131.18 191.71,-141.18 198.71,-141.18"/>
<text text-anchor="middle" x="231.71" y="-152.8" font-family="Sans Not-Rotated 14" font-size="14.00"> &#160;&#160;&#160;&#160;&#160;&#160;&#160;&#160;&#160;&#160;&#160;&#160;&#160;&#160;&#160;</text>
</g>
<!-- Visit -->
<g id="node3" class="node">
<title>Visit</title>
<polygon fill="#ffffff" stroke="black" points="78.21,-218 24.21,-218 24.21,-182 78.21,-182 78.21,-218"/>
<text text-anchor="middle" x="51.21" y="-196.3" font-family="Sans Not-Rotated 14" font-size="14.00">Visit</text>
</g>
<!-- Check -->
<g id="node7" class="node">
<title>Check</title>
<polygon fill="#1d2559" stroke="black" points="128.71,-305 69.71,-305 69.71,-269 128.71,-269 128.71,-305"/>
<text text-anchor="middle" x="99.21" y="-283.3" font-family="Sans Not-Rotated 14" font-size="14.00" fill="white">Check</text>
</g>
<!-- Visit&#45;&gt;Check -->
<g id="edge2" class="edge">
<title>Visit&#45;&gt;Check</title>
<path fill="none" stroke="black" stroke-width="2.33" d="M65.24,-218.28C69.37,-223.77 73.71,-229.98 77.21,-236 81.5,-243.38 85.5,-251.75 88.87,-259.5"/>
<polygon fill="black" stroke="black" stroke-width="2.33" points="85.7,-261 92.79,-268.87 92.16,-258.29 85.7,-261"/>
<text text-anchor="middle" x="121.71" y="-239.8" font-family="Sans Not-Rotated 14" font-size="14.00"> &#160;&#160;&#160;&#160;&#160;&#160;&#160;&#160;&#160;&#160;&#160;&#160;&#160;&#160;&#160;</text>
</g>
<!-- X&#45;Ray -->
<g id="node5" class="node">
<title>X&#45;Ray</title>
<polygon fill="#ffffff" stroke="black" points="128.71,-392 69.71,-392 69.71,-356 128.71,-356 128.71,-392"/>
<text text-anchor="middle" x="99.21" y="-370.3" font-family="Sans Not-Rotated 14" font-size="14.00">X&#45;Ray</text>
</g>
<!-- Register&#45;&gt;X&#45;Ray -->
<g id="edge8" class="edge">
<title>Register&#45;&gt;X&#45;Ray</title>
<path fill="none" stroke="black" d="M114.97,-442.93C109.05,-437.93 103.59,-431.92 100.21,-425 96.81,-418.03 95.66,-409.83 95.61,-402.11"/>
<polygon fill="black" stroke="black" points="99.11,-402.2 96.11,-392.04 92.12,-401.86 99.11,-402.2"/>
<text text-anchor="middle" x="136.71" y="-413.8" font-family="Sans Not-Rotated 14" font-size="14.00"> &#160;&#160;&#160;&#160;&#160;&#160;&#160;&#160;&#160;&#160;&#160;&#160;&#160;&#160;&#160;</text>
</g>
<!-- Register&#45;&gt;Check -->
<g id="edge11" class="edge">
<title>Register&#45;&gt;Check</title>
<path fill="none" stroke="black" stroke-width="1.63" d="M162.17,-442.74C166.66,-437.52 170.83,-431.46 173.21,-425 188.94,-382.48 197.47,-361.3 173.21,-323 165.38,-310.63 151.87,-302.55 138.52,-297.31"/>
<polygon fill="black" stroke="black" stroke-width="1.63" points="139.51,-293.95 128.91,-293.97 137.21,-300.56 139.51,-293.95"/>
<text text-anchor="middle" x="225.71" y="-370.3" font-family="Sans Not-Rotated 14" font-size="14.00"> &#160;&#160;&#160;&#160;&#160;&#160;&#160;&#160;&#160;&#160;&#160;&#160;&#160;&#160;&#160;</text>
</g>
<!-- X&#45;Ray&#45;&gt;Check -->
<g id="edge3" class="edge">
<title>X&#45;Ray&#45;&gt;Check</title>
<path fill="none" stroke="black" stroke-width="3.04" d="M69.62,-368.93C35.35,-362.91 -14.18,-349.37 4.21,-323 16.68,-305.12 39.37,-296.35 59.45,-292.06"/>
<polygon fill="black" stroke="black" stroke-width="3.04" points="60.14,-295.49 69.34,-290.24 58.88,-288.6 60.14,-295.49"/>
<text text-anchor="middle" x="40.71" y="-326.8" font-family="Sans Not-Rotated 14" font-size="14.00"> &#160;&#160;&#160;&#160;&#160;&#160;&#160;&#160;&#160;&#160;&#160;&#160;&#160;&#160;&#160;</text>
</g>
<!-- end -->
<g id="node9" class="node">
<title>end</title>
<ellipse fill="#ea4126" stroke="black" cx="195.21" cy="-22" rx="18" ry="18"/>
<ellipse fill="none" stroke="black" cx="195.21" cy="-22" rx="22" ry="22"/>
</g>
<!-- Prepare&#45;&gt;end -->
<g id="edge10" class="edge">
<title>Prepare&#45;&gt;end</title>
<path fill="none" stroke="black" stroke-dasharray="5,2" d="M195.21,-94.84C195.21,-83.44 195.21,-68.13 195.21,-54.58"/>
<polygon fill="black" stroke="black" points="198.71,-54.19 195.21,-44.19 191.71,-54.19 198.71,-54.19"/>
<text text-anchor="middle" x="231.71" y="-65.8" font-family="Sans Not-Rotated 14" font-size="14.00"> &#160;&#160;&#160;&#160;&#160;&#160;&#160;&#160;&#160;&#160;&#160;&#160;&#160;&#160;&#160;</text>
</g>
<!-- Check&#45;&gt;Final Visit -->
<g id="edge6" class="edge">
<title>Check&#45;&gt;Final Visit</title>
<path fill="none" stroke="black" stroke-width="2.11" d="M128.73,-273.32C140.01,-267.56 152.48,-260.01 162.21,-251 169.61,-244.15 176.14,-235.32 181.39,-226.99"/>
<polygon fill="black" stroke="black" stroke-width="2.11" points="184.48,-228.65 186.58,-218.26 178.46,-225.07 184.48,-228.65"/>
<text text-anchor="middle" x="211.71" y="-239.8" font-family="Sans Not-Rotated 14" font-size="14.00"> &#160;&#160;&#160;&#160;&#160;&#160;&#160;&#160;&#160;&#160;&#160;&#160;&#160;&#160;&#160;</text>
</g>
<!-- Check&#45;&gt;Visit -->
<g id="edge1" class="edge">
<title>Check&#45;&gt;Visit</title>
<path fill="none" stroke="black" stroke-width="2.91" d="M69.34,-283.76C47.33,-280.36 18.79,-271.91 4.21,-251 -3.37,-240.12 4.53,-229.25 15.88,-220.44"/>
<polygon fill="black" stroke="black" stroke-width="2.91" points="17.93,-223.27 24.14,-214.69 13.93,-217.53 17.93,-223.27"/>
<text text-anchor="middle" x="40.71" y="-239.8" font-family="Sans Not-Rotated 14" font-size="14.00"> &#160;&#160;&#160;&#160;&#160;&#160;&#160;&#160;&#160;&#160;&#160;&#160;&#160;&#160;&#160;</text>
</g>
<!-- Check&#45;&gt;X&#45;Ray -->
<g id="edge4" class="edge">
<title>Check&#45;&gt;X&#45;Ray</title>
<path fill="none" stroke="black" stroke-width="1.97" d="M99.21,-305.18C99.21,-316.81 99.21,-332.42 99.21,-345.73"/>
<polygon fill="black" stroke="black" stroke-width="1.97" points="95.71,-345.8 99.21,-355.8 102.71,-345.8 95.71,-345.8"/>
<text text-anchor="middle" x="135.71" y="-326.8" font-family="Sans Not-Rotated 14" font-size="14.00"> &#160;&#160;&#160;&#160;&#160;&#160;&#160;&#160;&#160;&#160;&#160;&#160;&#160;&#160;&#160;</text>
</g>
<!-- Check&#45;&gt;Check -->
<g id="edge12" class="edge">
<title>Check&#45;&gt;Check</title>
<path fill="none" stroke="black" stroke-width="2.15" d="M128.9,-294.88C138.8,-294.88 146.71,-292.25 146.71,-287 146.71,-283.72 143.62,-281.46 138.89,-280.23"/>
<polygon fill="black" stroke="black" stroke-width="2.15" points="139.23,-276.75 128.9,-279.12 138.45,-283.71 139.23,-276.75"/>
<text text-anchor="middle" x="183.21" y="-283.3" font-family="Sans Not-Rotated 14" font-size="14.00"> &#160;&#160;&#160;&#160;&#160;&#160;&#160;&#160;&#160;&#160;&#160;&#160;&#160;&#160;&#160;</text>
</g>
<!-- start -->
<g id="node8" class="node">
<title>start</title>
<ellipse fill="#95d600" stroke="black" cx="143.21" cy="-644.3" rx="27.1" ry="27.1"/>
<text text-anchor="middle" x="143.21" y="-640.6" font-family="Sans Not-Rotated 14" font-size="14.00">start</text>
</g>
<!-- start&#45;&gt;Triage -->
<g id="edge5" class="edge">
<title>start&#45;&gt;Triage</title>
<path fill="none" stroke="black" stroke-dasharray="5,2" d="M143.21,-616.78C143.21,-604.1 143.21,-588.93 143.21,-576.17"/>
<polygon fill="black" stroke="black" points="146.71,-576.12 143.21,-566.12 139.71,-576.12 146.71,-576.12"/>
<text text-anchor="middle" x="199.71" y="-587.8" font-family="Sans Not-Rotated 14" font-size="14.00"> &#160;&#160;&#160;&#160;&#160;&#160;&#160;&#160;&#160;&#160;&#160;&#160;&#160;&#160;&#160;&#160;&#160;&#160;&#160;&#160;&#160;&#160;&#160;&#160;</text>
</g>
</g>
</svg>
