<?xml version="1.0" encoding="UTF-8" standalone="no"?>
<!DOCTYPE svg PUBLIC "-//W3C//DTD SVG 1.1//EN"
 "http://www.w3.org/Graphics/SVG/1.1/DTD/svg11.dtd">
<!-- Generated by graphviz version 3.0.0 (20220226.1711)
 -->
<!-- Pages: 1 -->
<svg width="224pt" height="419pt"
 viewBox="0.00 0.00 224.00 418.60" xmlns="http://www.w3.org/2000/svg" xmlns:xlink="http://www.w3.org/1999/xlink">
<g id="graph0" class="graph" transform="scale(1 1) rotate(0) translate(4 414.6)">
<polygon fill="white" stroke="transparent" points="-4,4 -4,-414.6 220,-414.6 220,4 -4,4"/>
<!-- RELEASE -->
<g id="node1" class="node">
<title>RELEASE</title>
<polygon fill="#ffffff" stroke="black" points="80,-131 0,-131 0,-95 80,-95 80,-131"/>
<text text-anchor="middle" x="40" y="-109.3" font-family="Sans Not-Rotated 14" font-size="14.00">RELEASE</text>
</g>
<!-- end -->
<g id="node5" class="node">
<title>end</title>
<ellipse fill="#ea4126" stroke="black" cx="108" cy="-22" rx="18" ry="18"/>
<ellipse fill="none" stroke="black" cx="108" cy="-22" rx="22" ry="22"/>
</g>
<!-- RELEASE&#45;&gt;end -->
<g id="edge5" class="edge">
<title>RELEASE&#45;&gt;end</title>
<path fill="none" stroke="black" stroke-dasharray="5,2" d="M53.11,-94.84C63.18,-81.67 77.23,-63.27 88.6,-48.39"/>
<polygon fill="black" stroke="black" points="91.64,-50.18 94.93,-40.11 86.08,-45.93 91.64,-50.18"/>
<text text-anchor="middle" x="88.5" y="-65.8" font-family="Sans Not-Rotated 14" font-size="14.00"> &#160;&#160;&#160;</text>
</g>
<!-- NEW -->
<g id="node2" class="node">
<title>NEW</title>
<polygon fill="#1d2559" stroke="black" points="112,-305 58,-305 58,-269 112,-269 112,-305"/>
<text text-anchor="middle" x="85" y="-283.3" font-family="Sans Not-Rotated 14" font-size="14.00" fill="white">NEW</text>
</g>
<!-- NEW&#45;&gt;NEW -->
<g id="edge6" class="edge">
<title>NEW&#45;&gt;NEW</title>
<path fill="none" stroke="black" stroke-width="1.25" d="M112.24,-294.87C122.02,-295.04 130,-292.41 130,-287 130,-283.7 127.04,-281.44 122.51,-280.21"/>
<polygon fill="black" stroke="black" stroke-width="1.25" points="122.55,-276.7 112.24,-279.13 121.82,-283.66 122.55,-276.7"/>
<text text-anchor="middle" x="166.5" y="-283.3" font-family="Sans Not-Rotated 14" font-size="14.00"> &#160;&#160;&#160;&#160;&#160;&#160;&#160;&#160;&#160;&#160;&#160;&#160;&#160;&#160;&#160;</text>
</g>
<!-- FIN -->
<g id="node3" class="node">
<title>FIN</title>
<polygon fill="#ffffff" stroke="black" points="55,-218 1,-218 1,-182 55,-182 55,-218"/>
<text text-anchor="middle" x="28" y="-196.3" font-family="Sans Not-Rotated 14" font-size="14.00">FIN</text>
</g>
<!-- NEW&#45;&gt;FIN -->
<g id="edge3" class="edge">
<title>NEW&#45;&gt;FIN</title>
<path fill="none" stroke="black" stroke-width="2.19" d="M68.97,-268.78C64.22,-263.3 59.17,-257.07 55,-251 49.92,-243.6 45.04,-235.14 40.86,-227.32"/>
<polygon fill="black" stroke="black" stroke-width="2.19" points="43.84,-225.47 36.14,-218.19 37.62,-228.68 43.84,-225.47"/>
<text text-anchor="middle" x="91.5" y="-239.8" font-family="Sans Not-Rotated 14" font-size="14.00"> &#160;&#160;&#160;&#160;&#160;&#160;&#160;&#160;&#160;&#160;&#160;&#160;&#160;&#160;&#160;</text>
</g>
<!-- NEW&#45;&gt;end -->
<g id="edge4" class="edge">
<title>NEW&#45;&gt;end</title>
<path fill="none" stroke="black" stroke-dasharray="5,2" d="M112,-270.09C118.43,-264.88 124.45,-258.48 128,-251 159.25,-185.28 135.55,-96.9 119.53,-51.92"/>
<polygon fill="black" stroke="black" points="122.8,-50.66 116.05,-42.48 116.23,-53.08 122.8,-50.66"/>
<text text-anchor="middle" x="179.5" y="-152.8" font-family="Sans Not-Rotated 14" font-size="14.00"> &#160;&#160;&#160;&#160;&#160;&#160;&#160;&#160;&#160;&#160;&#160;&#160;&#160;&#160;&#160;</text>
</g>
<!-- FIN&#45;&gt;RELEASE -->
<g id="edge1" class="edge">
<title>FIN&#45;&gt;RELEASE</title>
<path fill="none" stroke="black" stroke-width="4.05" d="M13.87,-181.94C7.64,-172.31 2.62,-160.03 7,-149 8.38,-145.54 10.27,-142.22 12.47,-139.1"/>
<polygon fill="black" stroke="black" stroke-width="4.05" points="15.23,-141.32 18.83,-131.34 9.75,-136.83 15.23,-141.32"/>
<text text-anchor="middle" x="63.5" y="-152.8" font-family="Sans Not-Rotated 14" font-size="14.00"> &#160;&#160;&#160;&#160;&#160;&#160;&#160;&#160;&#160;&#160;&#160;&#160;&#160;&#160;&#160;&#160;&#160;&#160;&#160;&#160;&#160;&#160;&#160;&#160;</text>
</g>
<!-- FIN&#45;&gt;FIN -->
<g id="edge7" class="edge">
<title>FIN&#45;&gt;FIN</title>
<path fill="none" stroke="black" stroke-width="1.01" d="M55.24,-207.87C65.02,-208.04 73,-205.41 73,-200 73,-196.7 70.04,-194.44 65.51,-193.21"/>
<polygon fill="black" stroke="black" stroke-width="1.01" points="65.55,-189.7 55.24,-192.13 64.82,-196.66 65.55,-189.7"/>
<text text-anchor="middle" x="82.5" y="-196.3" font-family="Sans Not-Rotated 14" font-size="14.00"> &#160;&#160;&#160;</text>
</g>
<!-- start -->
<g id="node4" class="node">
<title>start</title>
<ellipse fill="#95d600" stroke="black" cx="85" cy="-383.3" rx="27.1" ry="27.1"/>
<text text-anchor="middle" x="85" y="-379.6" font-family="Sans Not-Rotated 14" font-size="14.00">start</text>
</g>
<!-- start&#45;&gt;NEW -->
<g id="edge2" class="edge">
<title>start&#45;&gt;NEW</title>
<path fill="none" stroke="black" stroke-dasharray="5,2" d="M85,-355.78C85,-343.1 85,-327.93 85,-315.17"/>
<polygon fill="black" stroke="black" points="88.5,-315.12 85,-305.12 81.5,-315.12 88.5,-315.12"/>
<text text-anchor="middle" x="141.5" y="-326.8" font-family="Sans Not-Rotated 14" font-size="14.00"> &#160;&#160;&#160;&#160;&#160;&#160;&#160;&#160;&#160;&#160;&#160;&#160;&#160;&#160;&#160;&#160;&#160;&#160;&#160;&#160;&#160;&#160;&#160;&#160;</text>
</g>
</g>
</svg>
