<?xml version="1.0" encoding="UTF-8" standalone="no"?>
<!DOCTYPE svg PUBLIC "-//W3C//DTD SVG 1.1//EN"
 "http://www.w3.org/Graphics/SVG/1.1/DTD/svg11.dtd">
<!-- Generated by graphviz version 3.0.0 (20220226.1711)
 -->
<!-- Pages: 1 -->
<svg width="339pt" height="419pt"
 viewBox="0.00 0.00 339.00 418.60" xmlns="http://www.w3.org/2000/svg" xmlns:xlink="http://www.w3.org/1999/xlink">
<g id="graph0" class="graph" transform="scale(1 1) rotate(0) translate(4 414.6)">
<polygon fill="white" stroke="transparent" points="-4,4 -4,-414.6 335,-414.6 335,4 -4,4"/>
<!-- RELEASE -->
<g id="node1" class="node">
<title>RELEASE</title>
<polygon fill="#ffffff" stroke="black" points="80,-218 0,-218 0,-182 80,-182 80,-218"/>
<text text-anchor="middle" x="40" y="-196.3" font-family="Sans Not-Rotated 14" font-size="14.00">RELEASE</text>
</g>
<!-- RELEASE&#45;&gt;RELEASE -->
<g id="edge9" class="edge">
<title>RELEASE&#45;&gt;RELEASE</title>
<path fill="none" stroke="black" stroke-width="1" d="M80.12,-207.78C90.33,-207.27 98,-204.68 98,-200 98,-197.08 95,-194.97 90.26,-193.67"/>
<polygon fill="black" stroke="black" stroke-width="1" points="90.51,-190.17 80.12,-192.22 89.52,-197.1 90.51,-190.17"/>
<text text-anchor="middle" x="107.5" y="-196.3" font-family="Sans Not-Rotated 14" font-size="14.00"> &#160;&#160;&#160;</text>
</g>
<!-- FIN -->
<g id="node3" class="node">
<title>FIN</title>
<polygon fill="#ffffff" stroke="black" points="88,-131 34,-131 34,-95 88,-95 88,-131"/>
<text text-anchor="middle" x="61" y="-109.3" font-family="Sans Not-Rotated 14" font-size="14.00">FIN</text>
</g>
<!-- RELEASE&#45;&gt;FIN -->
<g id="edge8" class="edge">
<title>RELEASE&#45;&gt;FIN</title>
<path fill="none" stroke="black" stroke-width="1" d="M29.69,-182C25.08,-172.16 21.58,-159.66 26,-149 27.47,-145.46 29.49,-142.09 31.82,-138.93"/>
<polygon fill="black" stroke="black" stroke-width="1" points="34.67,-140.99 38.57,-131.14 29.38,-136.41 34.67,-140.99"/>
<text text-anchor="middle" x="35.5" y="-152.8" font-family="Sans Not-Rotated 14" font-size="14.00"> &#160;&#160;&#160;</text>
</g>
<!-- end -->
<g id="node5" class="node">
<title>end</title>
<ellipse fill="#ea4126" stroke="black" cx="61" cy="-22" rx="18" ry="18"/>
<ellipse fill="none" stroke="black" cx="61" cy="-22" rx="22" ry="22"/>
</g>
<!-- RELEASE&#45;&gt;end -->
<g id="edge10" class="edge">
<title>RELEASE&#45;&gt;end</title>
<path fill="none" stroke="black" stroke-dasharray="5,2" d="M27.32,-181.67C13.83,-160.99 -4.29,-125.41 6,-95 12.39,-76.12 25.92,-58.29 37.97,-45.1"/>
<polygon fill="black" stroke="black" points="40.83,-47.17 45.2,-37.52 35.77,-42.34 40.83,-47.17"/>
<text text-anchor="middle" x="15.5" y="-109.3" font-family="Sans Not-Rotated 14" font-size="14.00"> &#160;&#160;&#160;</text>
</g>
<!-- NEW -->
<g id="node2" class="node">
<title>NEW</title>
<polygon fill="#1d2559" stroke="black" points="216,-305 162,-305 162,-269 216,-269 216,-305"/>
<text text-anchor="middle" x="189" y="-283.3" font-family="Sans Not-Rotated 14" font-size="14.00" fill="white">NEW</text>
</g>
<!-- NEW&#45;&gt;RELEASE -->
<g id="edge3" class="edge">
<title>NEW&#45;&gt;RELEASE</title>
<path fill="none" stroke="black" d="M161.67,-270.41C138.45,-257.16 104.84,-237.99 78.83,-223.15"/>
<polygon fill="black" stroke="black" points="80.39,-220.01 69.97,-218.1 76.92,-226.09 80.39,-220.01"/>
<text text-anchor="middle" x="125.5" y="-239.8" font-family="Sans Not-Rotated 14" font-size="14.00"> </text>
</g>
<!-- NEW&#45;&gt;NEW -->
<g id="edge2" class="edge">
<title>NEW&#45;&gt;NEW</title>
<path fill="none" stroke="black" stroke-width="1.25" d="M216.24,-294.87C226.02,-295.04 234,-292.41 234,-287 234,-283.7 231.04,-281.44 226.51,-280.21"/>
<polygon fill="black" stroke="black" stroke-width="1.25" points="226.55,-276.7 216.24,-279.13 225.82,-283.66 226.55,-276.7"/>
<text text-anchor="middle" x="270.5" y="-283.3" font-family="Sans Not-Rotated 14" font-size="14.00"> &#160;&#160;&#160;&#160;&#160;&#160;&#160;&#160;&#160;&#160;&#160;&#160;&#160;&#160;&#160;</text>
</g>
<!-- NEW&#45;&gt;FIN -->
<g id="edge1" class="edge">
<title>NEW&#45;&gt;FIN</title>
<path fill="none" stroke="black" stroke-width="2.19" d="M191.59,-268.99C194.89,-240.6 197.1,-183.32 168,-149 150.82,-128.74 121.73,-120.13 98.21,-116.51"/>
<polygon fill="black" stroke="black" stroke-width="2.19" points="98.57,-113.02 88.2,-115.2 97.66,-119.96 98.57,-113.02"/>
<text text-anchor="middle" x="228.5" y="-196.3" font-family="Sans Not-Rotated 14" font-size="14.00"> &#160;&#160;&#160;&#160;&#160;&#160;&#160;&#160;&#160;&#160;&#160;&#160;&#160;&#160;&#160;</text>
</g>
<!-- NEW&#45;&gt;end -->
<g id="edge4" class="edge">
<title>NEW&#45;&gt;end</title>
<path fill="none" stroke="black" stroke-dasharray="5,2" d="M216,-271.53C234.71,-259.85 258.14,-241.49 269,-218 275.72,-203.48 276.09,-196.34 269,-182 231.5,-106.14 138.54,-56.52 90.61,-35.1"/>
<polygon fill="black" stroke="black" points="91.95,-31.87 81.38,-31.08 89.15,-38.28 91.95,-31.87"/>
<text text-anchor="middle" x="294.5" y="-152.8" font-family="Sans Not-Rotated 14" font-size="14.00"> &#160;&#160;&#160;&#160;&#160;&#160;&#160;&#160;&#160;&#160;&#160;&#160;&#160;&#160;&#160;</text>
</g>
<!-- FIN&#45;&gt;RELEASE -->
<g id="edge5" class="edge">
<title>FIN&#45;&gt;RELEASE</title>
<path fill="none" stroke="black" stroke-width="4.05" d="M56.76,-131.18C53.88,-142.81 50.03,-158.42 46.74,-171.73"/>
<polygon fill="black" stroke="black" stroke-width="4.05" points="43.21,-171.24 44.25,-181.8 50.09,-172.94 43.21,-171.24"/>
<text text-anchor="middle" x="107.5" y="-152.8" font-family="Sans Not-Rotated 14" font-size="14.00"> &#160;&#160;&#160;&#160;&#160;&#160;&#160;&#160;&#160;&#160;&#160;&#160;&#160;&#160;&#160;&#160;&#160;&#160;&#160;&#160;&#160;&#160;&#160;&#160;</text>
</g>
<!-- FIN&#45;&gt;FIN -->
<g id="edge6" class="edge">
<title>FIN&#45;&gt;FIN</title>
<path fill="none" stroke="black" stroke-width="1.01" d="M88.24,-120.87C98.02,-121.04 106,-118.41 106,-113 106,-109.7 103.04,-107.44 98.51,-106.21"/>
<polygon fill="black" stroke="black" stroke-width="1.01" points="98.55,-102.7 88.24,-105.13 97.82,-109.66 98.55,-102.7"/>
<text text-anchor="middle" x="115.5" y="-109.3" font-family="Sans Not-Rotated 14" font-size="14.00"> &#160;&#160;&#160;</text>
</g>
<!-- FIN&#45;&gt;end -->
<g id="edge7" class="edge">
<title>FIN&#45;&gt;end</title>
<path fill="none" stroke="black" stroke-dasharray="5,2" d="M61,-94.84C61,-83.44 61,-68.13 61,-54.58"/>
<polygon fill="black" stroke="black" points="64.5,-54.19 61,-44.19 57.5,-54.19 64.5,-54.19"/>
<text text-anchor="middle" x="81.5" y="-65.8" font-family="Sans Not-Rotated 14" font-size="14.00"> &#160;&#160;&#160;&#160;&#160;&#160;&#160;&#160;</text>
</g>
<!-- start -->
<g id="node4" class="node">
<title>start</title>
<ellipse fill="#95d600" stroke="black" cx="189" cy="-383.3" rx="27.1" ry="27.1"/>
<text text-anchor="middle" x="189" y="-379.6" font-family="Sans Not-Rotated 14" font-size="14.00">start</text>
</g>
<!-- start&#45;&gt;NEW -->
<g id="edge11" class="edge">
<title>start&#45;&gt;NEW</title>
<path fill="none" stroke="black" stroke-dasharray="5,2" d="M189,-355.78C189,-343.1 189,-327.93 189,-315.17"/>
<polygon fill="black" stroke="black" points="192.5,-315.12 189,-305.12 185.5,-315.12 192.5,-315.12"/>
<text text-anchor="middle" x="245.5" y="-326.8" font-family="Sans Not-Rotated 14" font-size="14.00"> &#160;&#160;&#160;&#160;&#160;&#160;&#160;&#160;&#160;&#160;&#160;&#160;&#160;&#160;&#160;&#160;&#160;&#160;&#160;&#160;&#160;&#160;&#160;&#160;</text>
</g>
</g>
</svg>
