<?xml version="1.0" encoding="UTF-8" standalone="no"?>
<!DOCTYPE svg PUBLIC "-//W3C//DTD SVG 1.1//EN"
 "http://www.w3.org/Graphics/SVG/1.1/DTD/svg11.dtd">
<!-- Generated by graphviz version 3.0.0 (20220226.1711)
 -->
<!-- Pages: 1 -->
<svg width="223pt" height="419pt"
 viewBox="0.00 0.00 223.00 418.60" xmlns="http://www.w3.org/2000/svg" xmlns:xlink="http://www.w3.org/1999/xlink">
<g id="graph0" class="graph" transform="scale(1 1) rotate(0) translate(4 414.6)">
<polygon fill="white" stroke="transparent" points="-4,4 -4,-414.6 219,-414.6 219,4 -4,4"/>
<!-- RELEASE -->
<g id="node1" class="node">
<title>RELEASE</title>
<polygon fill="#ffffff" stroke="black" points="80,-131 0,-131 0,-95 80,-95 80,-131"/>
<text text-anchor="middle" x="40" y="-109.3" font-family="Sans Not-Rotated 14" font-size="14.00">RELEASE</text>
</g>
<!-- end -->
<g id="node5" class="node">
<title>end</title>
<ellipse fill="#ea4126" stroke="black" cx="108" cy="-22" rx="18" ry="18"/>
<ellipse fill="none" stroke="black" cx="108" cy="-22" rx="22" ry="22"/>
</g>
<!-- RELEASE&#45;&gt;end -->
<g id="edge5" class="edge">
<title>RELEASE&#45;&gt;end</title>
<path fill="none" stroke="black" stroke-dasharray="5,2" d="M53.11,-94.84C63.18,-81.67 77.23,-63.27 88.6,-48.39"/>
<polygon fill="black" stroke="black" points="91.64,-50.18 94.93,-40.11 86.08,-45.93 91.64,-50.18"/>
<text text-anchor="middle" x="88.5" y="-65.8" font-family="Sans Not-Rotated 14" font-size="14.00"> &#160;&#160;&#160;</text>
</g>
<!-- NEW -->
<g id="node2" class="node">
<title>NEW</title>
<polygon fill="#1d2559" stroke="black" points="113,-305 59,-305 59,-269 113,-269 113,-305"/>
<text text-anchor="middle" x="86" y="-283.3" font-family="Sans Not-Rotated 14" font-size="14.00" fill="white">NEW</text>
</g>
<!-- NEW&#45;&gt;NEW -->
<g id="edge6" class="edge">
<title>NEW&#45;&gt;NEW</title>
<path fill="none" stroke="black" stroke-width="1.25" d="M113.24,-294.87C123.02,-295.04 131,-292.41 131,-287 131,-283.7 128.04,-281.44 123.51,-280.21"/>
<polygon fill="black" stroke="black" stroke-width="1.25" points="123.55,-276.7 113.24,-279.13 122.82,-283.66 123.55,-276.7"/>
<text text-anchor="middle" x="167.5" y="-283.3" font-family="Sans Not-Rotated 14" font-size="14.00"> &#160;&#160;&#160;&#160;&#160;&#160;&#160;&#160;&#160;&#160;&#160;&#160;&#160;&#160;&#160;</text>
</g>
<!-- FIN -->
<g id="node3" class="node">
<title>FIN</title>
<polygon fill="#ffffff" stroke="black" points="57,-218 3,-218 3,-182 57,-182 57,-218"/>
<text text-anchor="middle" x="30" y="-196.3" font-family="Sans Not-Rotated 14" font-size="14.00">FIN</text>
</g>
<!-- NEW&#45;&gt;FIN -->
<g id="edge3" class="edge">
<title>NEW&#45;&gt;FIN</title>
<path fill="none" stroke="black" stroke-width="2.19" d="M69.28,-268.93C64.36,-263.45 59.18,-257.19 55,-251 50.06,-243.68 45.47,-235.25 41.61,-227.42"/>
<polygon fill="black" stroke="black" stroke-width="2.19" points="44.72,-225.82 37.28,-218.28 38.4,-228.82 44.72,-225.82"/>
<text text-anchor="middle" x="91.5" y="-239.8" font-family="Sans Not-Rotated 14" font-size="14.00"> &#160;&#160;&#160;&#160;&#160;&#160;&#160;&#160;&#160;&#160;&#160;&#160;&#160;&#160;&#160;</text>
</g>
<!-- NEW&#45;&gt;end -->
<g id="edge4" class="edge">
<title>NEW&#45;&gt;end</title>
<path fill="none" stroke="black" stroke-dasharray="5,2" d="M113.26,-269.24C119.2,-264.17 124.7,-258.05 128,-251 158.79,-185.26 135.45,-97.24 119.56,-52.22"/>
<polygon fill="black" stroke="black" points="122.82,-50.96 116.11,-42.77 116.25,-53.36 122.82,-50.96"/>
<text text-anchor="middle" x="178.5" y="-152.8" font-family="Sans Not-Rotated 14" font-size="14.00"> &#160;&#160;&#160;&#160;&#160;&#160;&#160;&#160;&#160;&#160;&#160;&#160;&#160;&#160;&#160;</text>
</g>
<!-- FIN&#45;&gt;RELEASE -->
<g id="edge1" class="edge">
<title>FIN&#45;&gt;RELEASE</title>
<path fill="none" stroke="black" stroke-width="4.05" d="M14.47,-181.61C7.89,-172.09 2.63,-160.01 7,-149 8.38,-145.54 10.27,-142.22 12.47,-139.1"/>
<polygon fill="black" stroke="black" stroke-width="4.05" points="15.23,-141.32 18.83,-131.34 9.75,-136.83 15.23,-141.32"/>
<text text-anchor="middle" x="63.5" y="-152.8" font-family="Sans Not-Rotated 14" font-size="14.00"> &#160;&#160;&#160;&#160;&#160;&#160;&#160;&#160;&#160;&#160;&#160;&#160;&#160;&#160;&#160;&#160;&#160;&#160;&#160;&#160;&#160;&#160;&#160;&#160;</text>
</g>
<!-- start -->
<g id="node4" class="node">
<title>start</title>
<ellipse fill="#95d600" stroke="black" cx="86" cy="-383.3" rx="27.1" ry="27.1"/>
<text text-anchor="middle" x="86" y="-379.6" font-family="Sans Not-Rotated 14" font-size="14.00">start</text>
</g>
<!-- start&#45;&gt;NEW -->
<g id="edge2" class="edge">
<title>start&#45;&gt;NEW</title>
<path fill="none" stroke="black" stroke-dasharray="5,2" d="M86,-355.78C86,-343.1 86,-327.93 86,-315.17"/>
<polygon fill="black" stroke="black" points="89.5,-315.12 86,-305.12 82.5,-315.12 89.5,-315.12"/>
<text text-anchor="middle" x="142.5" y="-326.8" font-family="Sans Not-Rotated 14" font-size="14.00"> &#160;&#160;&#160;&#160;&#160;&#160;&#160;&#160;&#160;&#160;&#160;&#160;&#160;&#160;&#160;&#160;&#160;&#160;&#160;&#160;&#160;&#160;&#160;&#160;</text>
</g>
</g>
</svg>
