<?xml version="1.0" encoding="UTF-8" standalone="no"?>
<!DOCTYPE svg PUBLIC "-//W3C//DTD SVG 1.1//EN"
 "http://www.w3.org/Graphics/SVG/1.1/DTD/svg11.dtd">
<!-- Generated by graphviz version 3.0.0 (20220226.1711)
 -->
<!-- Pages: 1 -->
<svg width="488pt" height="767pt"
 viewBox="0.00 0.00 487.50 766.60" xmlns="http://www.w3.org/2000/svg" xmlns:xlink="http://www.w3.org/1999/xlink">
<g id="graph0" class="graph" transform="scale(1 1) rotate(0) translate(4 762.6)">
<polygon fill="white" stroke="transparent" points="-4,4 -4,-762.6 483.5,-762.6 483.5,4 -4,4"/>
<!-- Red zone operator -->
<g id="node1" class="node">
<title>Red zone operator</title>
<polygon fill="#1d2559" stroke="black" points="322,-653 177,-653 177,-617 322,-617 322,-653"/>
<text text-anchor="middle" x="249.5" y="-631.3" font-family="Sans Not-Rotated 14" font-size="14.00" fill="white">Red zone operator</text>
</g>
<!-- Red zone operator&#45;&gt;Red zone operator -->
<g id="edge18" class="edge">
<title>Red zone operator&#45;&gt;Red zone operator</title>
<path fill="none" stroke="black" stroke-width="1.41" d="M322.29,-642.11C332.87,-640.98 340,-638.61 340,-635 340,-632.69 337.07,-630.88 332.19,-629.59"/>
<polygon fill="black" stroke="black" stroke-width="1.41" points="332.74,-626.13 322.29,-627.89 331.55,-633.03 332.74,-626.13"/>
<text text-anchor="middle" x="360.5" y="-631.3" font-family="Sans Not-Rotated 14" font-size="14.00"> &#160;&#160;&#160;&#160;&#160;&#160;&#160;&#160;</text>
</g>
<!-- Red zone doctor FD -->
<g id="node2" class="node">
<title>Red zone doctor FD</title>
<polygon fill="#1d2559" stroke="black" points="266,-479 113,-479 113,-443 266,-443 266,-479"/>
<text text-anchor="middle" x="189.5" y="-457.3" font-family="Sans Not-Rotated 14" font-size="14.00" fill="white">Red zone doctor FD</text>
</g>
<!-- Red zone operator&#45;&gt;Red zone doctor FD -->
<g id="edge6" class="edge">
<title>Red zone operator&#45;&gt;Red zone doctor FD</title>
<path fill="none" stroke="black" stroke-width="3.29" d="M182.15,-616.98C156.02,-606.73 128.77,-590.7 113.5,-566 95.6,-537.04 125.87,-505.74 153.35,-485.13"/>
<polygon fill="black" stroke="black" stroke-width="3.29" points="155.66,-487.78 161.73,-479.09 151.57,-482.1 155.66,-487.78"/>
<text text-anchor="middle" x="150" y="-544.3" font-family="Sans Not-Rotated 14" font-size="14.00"> &#160;&#160;&#160;&#160;&#160;&#160;&#160;&#160;&#160;&#160;&#160;&#160;&#160;&#160;&#160;</text>
</g>
<!-- Red zone doctor -->
<g id="node4" class="node">
<title>Red zone doctor</title>
<polygon fill="#1f3b98" stroke="black" points="410,-566 281,-566 281,-530 410,-530 410,-566"/>
<text text-anchor="middle" x="345.5" y="-544.3" font-family="Sans Not-Rotated 14" font-size="14.00" fill="white">Red zone doctor</text>
</g>
<!-- Red zone operator&#45;&gt;Red zone doctor -->
<g id="edge8" class="edge">
<title>Red zone operator&#45;&gt;Red zone doctor</title>
<path fill="none" stroke="black" stroke-width="5" d="M243.41,-616.77C240.88,-606.37 239.87,-593.37 246.5,-584 252.87,-575 261.75,-568.29 271.61,-563.31"/>
<polygon fill="black" stroke="black" stroke-width="5" points="273.52,-567.25 280.89,-559.19 269.97,-559.25 273.52,-567.25"/>
<text text-anchor="middle" x="283" y="-587.8" font-family="Sans Not-Rotated 14" font-size="14.00"> &#160;&#160;&#160;&#160;&#160;&#160;&#160;&#160;&#160;&#160;&#160;&#160;&#160;&#160;&#160;</text>
</g>
<!-- Red zone doctor FD&#45;&gt;Red zone operator -->
<g id="edge3" class="edge">
<title>Red zone doctor FD&#45;&gt;Red zone operator</title>
<path fill="none" stroke="black" stroke-width="3.39" d="M188.16,-479.21C187.14,-500.37 187.44,-537.05 198.5,-566 204.53,-581.79 215.38,-597.07 225.52,-609.13"/>
<polygon fill="black" stroke="black" stroke-width="3.39" points="223.14,-611.72 232.37,-616.93 228.4,-607.1 223.14,-611.72"/>
<text text-anchor="middle" x="235" y="-544.3" font-family="Sans Not-Rotated 14" font-size="14.00"> &#160;&#160;&#160;&#160;&#160;&#160;&#160;&#160;&#160;&#160;&#160;&#160;&#160;&#160;&#160;</text>
</g>
<!-- Red zone doctor FD&#45;&gt;Red zone doctor FD -->
<g id="edge19" class="edge">
<title>Red zone doctor FD&#45;&gt;Red zone doctor FD</title>
<path fill="none" stroke="black" stroke-width="2.47" d="M266.25,-468.03C276.89,-466.87 284,-464.53 284,-461 284,-458.74 281.08,-456.97 276.19,-455.68"/>
<polygon fill="black" stroke="black" stroke-width="2.47" points="276.7,-452.22 266.25,-453.97 275.52,-459.12 276.7,-452.22"/>
<text text-anchor="middle" x="320.5" y="-457.3" font-family="Sans Not-Rotated 14" font-size="14.00"> &#160;&#160;&#160;&#160;&#160;&#160;&#160;&#160;&#160;&#160;&#160;&#160;&#160;&#160;&#160;</text>
</g>
<!-- Notification operator -->
<g id="node6" class="node">
<title>Notification operator</title>
<polygon fill="#5661c6" stroke="black" points="287,-218 128,-218 128,-182 287,-182 287,-218"/>
<text text-anchor="middle" x="207.5" y="-196.3" font-family="Sans Not-Rotated 14" font-size="14.00" fill="white">Notification operator</text>
</g>
<!-- Red zone doctor FD&#45;&gt;Notification operator -->
<g id="edge11" class="edge">
<title>Red zone doctor FD&#45;&gt;Notification operator</title>
<path fill="none" stroke="black" stroke-width="1.46" d="M183.34,-442.95C178.77,-429.35 172.93,-409.73 170.5,-392 162.39,-332.81 183.15,-264.24 196.75,-227.5"/>
<polygon fill="black" stroke="black" stroke-width="1.46" points="200.08,-228.61 200.37,-218.02 193.54,-226.11 200.08,-228.61"/>
<text text-anchor="middle" x="192" y="-326.8" font-family="Sans Not-Rotated 14" font-size="14.00"> &#160;&#160;&#160;&#160;&#160;&#160;&#160;&#160;</text>
</g>
<!-- Yellow zone doctor -->
<g id="node8" class="node">
<title>Yellow zone doctor</title>
<polygon fill="#a09dde" stroke="black" points="329,-392 180,-392 180,-356 329,-356 329,-392"/>
<text text-anchor="middle" x="254.5" y="-370.3" font-family="Sans Not-Rotated 14" font-size="14.00">Yellow zone doctor</text>
</g>
<!-- Red zone doctor FD&#45;&gt;Yellow zone doctor -->
<g id="edge13" class="edge">
<title>Red zone doctor FD&#45;&gt;Yellow zone doctor</title>
<path fill="none" stroke="black" stroke-width="1.95" d="M202.65,-442.8C211.99,-430.59 224.68,-413.99 235.17,-400.28"/>
<polygon fill="black" stroke="black" stroke-width="1.95" points="238.07,-402.25 241.37,-392.18 232.51,-397.99 238.07,-402.25"/>
<text text-anchor="middle" x="247" y="-413.8" font-family="Sans Not-Rotated 14" font-size="14.00"> &#160;&#160;&#160;&#160;&#160;&#160;&#160;&#160;</text>
</g>
<!-- Yellow zone doctor FD -->
<g id="node3" class="node">
<title>Yellow zone doctor FD</title>
<polygon fill="#a09dde" stroke="black" points="440,-305 267,-305 267,-269 440,-269 440,-305"/>
<text text-anchor="middle" x="353.5" y="-283.3" font-family="Sans Not-Rotated 14" font-size="14.00">Yellow zone doctor FD</text>
</g>
<!-- Yellow zone doctor FD&#45;&gt;Red zone operator -->
<g id="edge16" class="edge">
<title>Yellow zone doctor FD&#45;&gt;Red zone operator</title>
<path fill="none" stroke="black" stroke-width="1.58" d="M394.7,-305.17C403.01,-310.02 411.14,-315.95 417.5,-323 433.64,-340.9 438.5,-348.9 438.5,-373 438.5,-549 438.5,-549 438.5,-549 438.5,-598.92 382.98,-619.7 332.12,-628.26"/>
<polygon fill="black" stroke="black" stroke-width="1.58" points="331.38,-624.83 322.03,-629.81 332.45,-631.75 331.38,-624.83"/>
<text text-anchor="middle" x="459" y="-457.3" font-family="Sans Not-Rotated 14" font-size="14.00"> &#160;&#160;&#160;&#160;&#160;&#160;&#160;&#160;</text>
</g>
<!-- Yellow zone doctor FD&#45;&gt;Notification operator -->
<g id="edge10" class="edge">
<title>Yellow zone doctor FD&#45;&gt;Notification operator</title>
<path fill="none" stroke="black" stroke-width="1.84" d="M323.95,-268.8C301.39,-255.66 270.13,-237.46 245.67,-223.22"/>
<polygon fill="black" stroke="black" stroke-width="1.84" points="247.4,-220.18 237,-218.18 243.88,-226.23 247.4,-220.18"/>
<text text-anchor="middle" x="310" y="-239.8" font-family="Sans Not-Rotated 14" font-size="14.00"> &#160;&#160;&#160;&#160;&#160;&#160;&#160;&#160;</text>
</g>
<!-- Yellow zone doctor FD&#45;&gt;Yellow zone doctor -->
<g id="edge14" class="edge">
<title>Yellow zone doctor FD&#45;&gt;Yellow zone doctor</title>
<path fill="none" stroke="black" stroke-width="2.06" d="M271.74,-305C263.86,-309.64 256.83,-315.53 251.5,-323 246.86,-329.5 245.93,-337.76 246.65,-345.69"/>
<polygon fill="black" stroke="black" stroke-width="2.06" points="243.24,-346.48 248.37,-355.75 250.14,-345.3 243.24,-346.48"/>
<text text-anchor="middle" x="288" y="-326.8" font-family="Sans Not-Rotated 14" font-size="14.00"> &#160;&#160;&#160;&#160;&#160;&#160;&#160;&#160;&#160;&#160;&#160;&#160;&#160;&#160;&#160;</text>
</g>
<!-- Red zone doctor&#45;&gt;Red zone operator -->
<g id="edge2" class="edge">
<title>Red zone doctor&#45;&gt;Red zone operator</title>
<path fill="none" stroke="black" stroke-width="3.42" d="M341.31,-566.04C337.97,-576.62 332.36,-589.89 323.5,-599 318.77,-603.86 313.24,-608.12 307.36,-611.84"/>
<polygon fill="black" stroke="black" stroke-width="3.42" points="305.47,-608.89 298.56,-616.91 308.97,-614.95 305.47,-608.89"/>
<text text-anchor="middle" x="371" y="-587.8" font-family="Sans Not-Rotated 14" font-size="14.00"> &#160;&#160;&#160;&#160;&#160;&#160;&#160;&#160;&#160;&#160;&#160;&#160;&#160;&#160;&#160;</text>
</g>
<!-- Red zone doctor&#45;&gt;Red zone doctor FD -->
<g id="edge5" class="edge">
<title>Red zone doctor&#45;&gt;Red zone doctor FD</title>
<path fill="none" stroke="black" stroke-width="3.46" d="M313.93,-529.8C289.64,-516.56 255.9,-498.18 229.69,-483.9"/>
<polygon fill="black" stroke="black" stroke-width="3.46" points="231.21,-480.74 220.76,-479.03 227.86,-486.89 231.21,-480.74"/>
<text text-anchor="middle" x="314" y="-500.8" font-family="Sans Not-Rotated 14" font-size="14.00"> &#160;&#160;&#160;&#160;&#160;&#160;&#160;&#160;&#160;&#160;&#160;&#160;&#160;&#160;&#160;</text>
</g>
<!-- Meas missing operator -->
<g id="node5" class="node">
<title>Meas missing operator</title>
<polygon fill="#e0ddf4" stroke="black" points="171,-127 0,-127 0,-91 171,-91 171,-127"/>
<text text-anchor="middle" x="85.5" y="-105.3" font-family="Sans Not-Rotated 14" font-size="14.00">Meas missing operator</text>
</g>
<!-- Meas missing doctor -->
<g id="node7" class="node">
<title>Meas missing doctor</title>
<polygon fill="#ffffff" stroke="black" points="224,-36 69,-36 69,0 224,0 224,-36"/>
<text text-anchor="middle" x="146.5" y="-14.3" font-family="Sans Not-Rotated 14" font-size="14.00">Meas missing doctor</text>
</g>
<!-- Meas missing operator&#45;&gt;Meas missing doctor -->
<g id="edge1" class="edge">
<title>Meas missing operator&#45;&gt;Meas missing doctor</title>
<path fill="none" stroke="black" stroke-width="2.51" d="M96.26,-90.79C103.05,-80.09 112.09,-66.11 120.5,-54 122.66,-50.9 124.96,-47.67 127.27,-44.49"/>
<polygon fill="black" stroke="black" stroke-width="2.51" points="130.2,-46.41 133.32,-36.29 124.57,-42.26 130.2,-46.41"/>
<text text-anchor="middle" x="157" y="-57.8" font-family="Sans Not-Rotated 14" font-size="14.00"> &#160;&#160;&#160;&#160;&#160;&#160;&#160;&#160;&#160;&#160;&#160;&#160;&#160;&#160;&#160;</text>
</g>
<!-- Notification operator&#45;&gt;Meas missing operator -->
<g id="edge9" class="edge">
<title>Notification operator&#45;&gt;Meas missing operator</title>
<path fill="none" stroke="black" stroke-width="2.7" d="M150.39,-181.9C139.79,-177.15 129.3,-171.25 120.5,-164 111.35,-156.46 103.77,-145.9 98.04,-136.11"/>
<polygon fill="black" stroke="black" stroke-width="2.7" points="100.98,-134.19 93.11,-127.09 94.83,-137.54 100.98,-134.19"/>
<text text-anchor="middle" x="157" y="-152.8" font-family="Sans Not-Rotated 14" font-size="14.00"> &#160;&#160;&#160;&#160;&#160;&#160;&#160;&#160;&#160;&#160;&#160;&#160;&#160;&#160;&#160;</text>
</g>
<!-- Notification operator&#45;&gt;Notification operator -->
<g id="edge20" class="edge">
<title>Notification operator&#45;&gt;Notification operator</title>
<path fill="none" stroke="black" stroke-width="1.96" d="M287.07,-206.99C297.83,-205.82 305,-203.49 305,-200 305,-197.77 302.06,-196.01 297.12,-194.72"/>
<polygon fill="black" stroke="black" stroke-width="1.96" points="297.52,-191.24 287.07,-193.01 296.34,-198.14 297.52,-191.24"/>
<text text-anchor="middle" x="325.5" y="-196.3" font-family="Sans Not-Rotated 14" font-size="14.00"> &#160;&#160;&#160;&#160;&#160;&#160;&#160;&#160;</text>
</g>
<!-- Notification operator&#45;&gt;Yellow zone doctor -->
<g id="edge17" class="edge">
<title>Notification operator&#45;&gt;Yellow zone doctor</title>
<path fill="none" stroke="black" stroke-width="1.57" d="M206.8,-218.35C206.45,-239.35 207.46,-275.55 216.5,-305 221.02,-319.73 229.05,-334.82 236.56,-347.03"/>
<polygon fill="black" stroke="black" stroke-width="1.57" points="233.81,-349.22 242.14,-355.76 239.7,-345.45 233.81,-349.22"/>
<text text-anchor="middle" x="237" y="-283.3" font-family="Sans Not-Rotated 14" font-size="14.00"> &#160;&#160;&#160;&#160;&#160;&#160;&#160;&#160;</text>
</g>
<!-- end -->
<g id="node10" class="node">
<title>end</title>
<ellipse fill="#ea4126" stroke="black" cx="320.5" cy="-109" rx="18" ry="18"/>
<ellipse fill="none" stroke="black" cx="320.5" cy="-109" rx="22" ry="22"/>
</g>
<!-- Notification operator&#45;&gt;end -->
<g id="edge15" class="edge">
<title>Notification operator&#45;&gt;end</title>
<path fill="none" stroke="black" stroke-dasharray="5,2" d="M229.29,-181.84C248.26,-166.9 275.74,-145.25 295.58,-129.63"/>
<polygon fill="black" stroke="black" points="297.88,-132.27 303.57,-123.34 293.55,-126.77 297.88,-132.27"/>
<text text-anchor="middle" x="292" y="-152.8" font-family="Sans Not-Rotated 14" font-size="14.00"> &#160;&#160;&#160;&#160;&#160;&#160;&#160;&#160;</text>
</g>
<!-- Meas missing doctor&#45;&gt;Notification operator -->
<g id="edge12" class="edge">
<title>Meas missing doctor&#45;&gt;Notification operator</title>
<path fill="none" stroke="black" stroke-width="2.05" d="M177.42,-36.21C183.72,-41.14 189.6,-47.09 193.5,-54 214.17,-90.65 213.89,-140.91 211.15,-171.61"/>
<polygon fill="black" stroke="black" stroke-width="2.05" points="207.67,-171.29 210.12,-181.6 214.63,-172.01 207.67,-171.29"/>
<text text-anchor="middle" x="249" y="-105.3" font-family="Sans Not-Rotated 14" font-size="14.00"> &#160;&#160;&#160;&#160;&#160;&#160;&#160;&#160;&#160;&#160;&#160;&#160;&#160;&#160;&#160;</text>
</g>
<!-- Yellow zone doctor&#45;&gt;Yellow zone doctor FD -->
<g id="edge7" class="edge">
<title>Yellow zone doctor&#45;&gt;Yellow zone doctor FD</title>
<path fill="none" stroke="black" stroke-width="3.58" d="M302.9,-355.84C312.13,-351.06 321.19,-345.16 328.5,-338 335.18,-331.46 340.37,-322.77 344.25,-314.46"/>
<polygon fill="black" stroke="black" stroke-width="3.58" points="347.56,-315.62 348.21,-305.05 341.11,-312.91 347.56,-315.62"/>
<text text-anchor="middle" x="377" y="-326.8" font-family="Sans Not-Rotated 14" font-size="14.00"> &#160;&#160;&#160;&#160;&#160;&#160;&#160;&#160;&#160;&#160;&#160;&#160;&#160;&#160;&#160;</text>
</g>
<!-- start -->
<g id="node9" class="node">
<title>start</title>
<ellipse fill="#95d600" stroke="black" cx="249.5" cy="-731.3" rx="27.1" ry="27.1"/>
<text text-anchor="middle" x="249.5" y="-727.6" font-family="Sans Not-Rotated 14" font-size="14.00">start</text>
</g>
<!-- start&#45;&gt;Red zone operator -->
<g id="edge4" class="edge">
<title>start&#45;&gt;Red zone operator</title>
<path fill="none" stroke="black" stroke-dasharray="5,2" d="M249.5,-703.78C249.5,-691.1 249.5,-675.93 249.5,-663.17"/>
<polygon fill="black" stroke="black" points="253,-663.12 249.5,-653.12 246,-663.12 253,-663.12"/>
<text text-anchor="middle" x="270" y="-674.8" font-family="Sans Not-Rotated 14" font-size="14.00"> &#160;&#160;&#160;&#160;&#160;&#160;&#160;&#160;</text>
</g>
</g>
</svg>
