<?xml version="1.0" encoding="UTF-8" standalone="no"?>
<!DOCTYPE svg PUBLIC "-//W3C//DTD SVG 1.1//EN"
 "http://www.w3.org/Graphics/SVG/1.1/DTD/svg11.dtd">
<!-- Generated by graphviz version 3.0.0 (20220226.1711)
 -->
<!-- Pages: 1 -->
<svg width="387pt" height="767pt"
 viewBox="0.00 0.00 387.00 766.60" xmlns="http://www.w3.org/2000/svg" xmlns:xlink="http://www.w3.org/1999/xlink">
<g id="graph0" class="graph" transform="scale(1 1) rotate(0) translate(4 762.6)">
<polygon fill="white" stroke="transparent" points="-4,4 -4,-762.6 383,-762.6 383,4 -4,4"/>
<!-- Red zone operator -->
<g id="node1" class="node">
<title>Red zone operator</title>
<polygon fill="#1d2559" stroke="black" points="246,-653 101,-653 101,-617 246,-617 246,-653"/>
<text text-anchor="middle" x="173.5" y="-631.3" font-family="Sans Not-Rotated 14" font-size="14.00" fill="white">Red zone operator</text>
</g>
<!-- Red zone doctor -->
<g id="node4" class="node">
<title>Red zone doctor</title>
<polygon fill="#1f3b98" stroke="black" points="225,-566 96,-566 96,-530 225,-530 225,-566"/>
<text text-anchor="middle" x="160.5" y="-544.3" font-family="Sans Not-Rotated 14" font-size="14.00" fill="white">Red zone doctor</text>
</g>
<!-- Red zone operator&#45;&gt;Red zone doctor -->
<g id="edge5" class="edge">
<title>Red zone operator&#45;&gt;Red zone doctor</title>
<path fill="none" stroke="black" stroke-width="5" d="M108.79,-616.77C101.19,-612.18 94.41,-606.36 89.5,-599 82.16,-588 88.19,-578.66 99.28,-571.15"/>
<polygon fill="black" stroke="black" stroke-width="5" points="101.69,-574.81 108.14,-566 97.29,-567.25 101.69,-574.81"/>
<text text-anchor="middle" x="126" y="-587.8" font-family="Sans Not-Rotated 14" font-size="14.00"> &#160;&#160;&#160;&#160;&#160;&#160;&#160;&#160;&#160;&#160;&#160;&#160;&#160;&#160;&#160;</text>
</g>
<!-- Red zone doctor FD -->
<g id="node2" class="node">
<title>Red zone doctor FD</title>
<polygon fill="#1d2559" stroke="black" points="288,-479 135,-479 135,-443 288,-443 288,-479"/>
<text text-anchor="middle" x="211.5" y="-457.3" font-family="Sans Not-Rotated 14" font-size="14.00" fill="white">Red zone doctor FD</text>
</g>
<!-- Red zone doctor FD&#45;&gt;Red zone operator -->
<g id="edge10" class="edge">
<title>Red zone doctor FD&#45;&gt;Red zone operator</title>
<path fill="none" stroke="black" stroke-width="3.39" d="M234.56,-479.03C239.79,-484.17 244.65,-490.26 247.5,-497 265.15,-538.77 269.99,-560.84 245.5,-599 242.62,-603.49 238.98,-607.42 234.88,-610.86"/>
<polygon fill="black" stroke="black" stroke-width="3.39" points="232.58,-608.2 226.5,-616.88 236.66,-613.89 232.58,-608.2"/>
<text text-anchor="middle" x="299" y="-544.3" font-family="Sans Not-Rotated 14" font-size="14.00"> &#160;&#160;&#160;&#160;&#160;&#160;&#160;&#160;&#160;&#160;&#160;&#160;&#160;&#160;&#160;</text>
</g>
<!-- Red zone doctor FD&#45;&gt;Red zone doctor FD -->
<g id="edge14" class="edge">
<title>Red zone doctor FD&#45;&gt;Red zone doctor FD</title>
<path fill="none" stroke="black" stroke-width="2.47" d="M288.25,-468.03C298.89,-466.87 306,-464.53 306,-461 306,-458.74 303.08,-456.97 298.19,-455.68"/>
<polygon fill="black" stroke="black" stroke-width="2.47" points="298.7,-452.22 288.25,-453.97 297.52,-459.12 298.7,-452.22"/>
<text text-anchor="middle" x="342.5" y="-457.3" font-family="Sans Not-Rotated 14" font-size="14.00"> &#160;&#160;&#160;&#160;&#160;&#160;&#160;&#160;&#160;&#160;&#160;&#160;&#160;&#160;&#160;</text>
</g>
<!-- Yellow zone doctor -->
<g id="node8" class="node">
<title>Yellow zone doctor</title>
<polygon fill="#a09dde" stroke="black" points="286,-392 137,-392 137,-356 286,-356 286,-392"/>
<text text-anchor="middle" x="211.5" y="-370.3" font-family="Sans Not-Rotated 14" font-size="14.00">Yellow zone doctor</text>
</g>
<!-- Red zone doctor FD&#45;&gt;Yellow zone doctor -->
<g id="edge8" class="edge">
<title>Red zone doctor FD&#45;&gt;Yellow zone doctor</title>
<path fill="none" stroke="black" stroke-width="1.95" d="M211.5,-442.8C211.5,-431.16 211.5,-415.55 211.5,-402.24"/>
<polygon fill="black" stroke="black" stroke-width="1.95" points="215,-402.18 211.5,-392.18 208,-402.18 215,-402.18"/>
<text text-anchor="middle" x="232" y="-413.8" font-family="Sans Not-Rotated 14" font-size="14.00"> &#160;&#160;&#160;&#160;&#160;&#160;&#160;&#160;</text>
</g>
<!-- Yellow zone doctor FD -->
<g id="node3" class="node">
<title>Yellow zone doctor FD</title>
<polygon fill="#a09dde" stroke="black" points="298,-305 125,-305 125,-269 298,-269 298,-305"/>
<text text-anchor="middle" x="211.5" y="-283.3" font-family="Sans Not-Rotated 14" font-size="14.00">Yellow zone doctor FD</text>
</g>
<!-- Notification operator -->
<g id="node6" class="node">
<title>Notification operator</title>
<polygon fill="#5661c6" stroke="black" points="291,-218 132,-218 132,-182 291,-182 291,-218"/>
<text text-anchor="middle" x="211.5" y="-196.3" font-family="Sans Not-Rotated 14" font-size="14.00" fill="white">Notification operator</text>
</g>
<!-- Yellow zone doctor FD&#45;&gt;Notification operator -->
<g id="edge7" class="edge">
<title>Yellow zone doctor FD&#45;&gt;Notification operator</title>
<path fill="none" stroke="black" stroke-width="1.84" d="M211.5,-268.8C211.5,-257.16 211.5,-241.55 211.5,-228.24"/>
<polygon fill="black" stroke="black" stroke-width="1.84" points="215,-228.18 211.5,-218.18 208,-228.18 215,-228.18"/>
<text text-anchor="middle" x="232" y="-239.8" font-family="Sans Not-Rotated 14" font-size="14.00"> &#160;&#160;&#160;&#160;&#160;&#160;&#160;&#160;</text>
</g>
<!-- Yellow zone doctor FD&#45;&gt;Yellow zone doctor -->
<g id="edge11" class="edge">
<title>Yellow zone doctor FD&#45;&gt;Yellow zone doctor</title>
<path fill="none" stroke="black" stroke-width="2.06" d="M228.49,-305.44C235.52,-314.78 241.25,-326.67 237.5,-338 236.45,-341.16 235,-344.27 233.31,-347.25"/>
<polygon fill="black" stroke="black" stroke-width="2.06" points="230.29,-345.46 227.69,-355.73 236.13,-349.33 230.29,-345.46"/>
<text text-anchor="middle" x="276" y="-326.8" font-family="Sans Not-Rotated 14" font-size="14.00"> &#160;&#160;&#160;&#160;&#160;&#160;&#160;&#160;&#160;&#160;&#160;&#160;&#160;&#160;&#160;</text>
</g>
<!-- Red zone doctor&#45;&gt;Red zone operator -->
<g id="edge2" class="edge">
<title>Red zone doctor&#45;&gt;Red zone operator</title>
<path fill="none" stroke="black" stroke-width="3.42" d="M163.13,-566.18C164.91,-577.81 167.29,-593.42 169.33,-606.73"/>
<polygon fill="black" stroke="black" stroke-width="3.42" points="165.9,-607.44 170.87,-616.8 172.82,-606.38 165.9,-607.44"/>
<text text-anchor="middle" x="205" y="-587.8" font-family="Sans Not-Rotated 14" font-size="14.00"> &#160;&#160;&#160;&#160;&#160;&#160;&#160;&#160;&#160;&#160;&#160;&#160;&#160;&#160;&#160;</text>
</g>
<!-- Red zone doctor&#45;&gt;Red zone doctor FD -->
<g id="edge3" class="edge">
<title>Red zone doctor&#45;&gt;Red zone doctor FD</title>
<path fill="none" stroke="black" stroke-width="3.46" d="M162.93,-529.88C164.93,-519.77 168.44,-507.03 174.5,-497 176.71,-493.34 179.41,-489.81 182.33,-486.5"/>
<polygon fill="black" stroke="black" stroke-width="3.46" points="184.96,-488.8 189.42,-479.19 179.94,-483.93 184.96,-488.8"/>
<text text-anchor="middle" x="211" y="-500.8" font-family="Sans Not-Rotated 14" font-size="14.00"> &#160;&#160;&#160;&#160;&#160;&#160;&#160;&#160;&#160;&#160;&#160;&#160;&#160;&#160;&#160;</text>
</g>
<!-- Meas missing operator -->
<g id="node5" class="node">
<title>Meas missing operator</title>
<polygon fill="#e0ddf4" stroke="black" points="171,-127 0,-127 0,-91 171,-91 171,-127"/>
<text text-anchor="middle" x="85.5" y="-105.3" font-family="Sans Not-Rotated 14" font-size="14.00">Meas missing operator</text>
</g>
<!-- Meas missing doctor -->
<g id="node7" class="node">
<title>Meas missing doctor</title>
<polygon fill="#ffffff" stroke="black" points="255,-36 100,-36 100,0 255,0 255,-36"/>
<text text-anchor="middle" x="177.5" y="-14.3" font-family="Sans Not-Rotated 14" font-size="14.00">Meas missing doctor</text>
</g>
<!-- Meas missing operator&#45;&gt;Meas missing doctor -->
<g id="edge1" class="edge">
<title>Meas missing operator&#45;&gt;Meas missing doctor</title>
<path fill="none" stroke="black" stroke-width="2.51" d="M103.24,-90.84C117.24,-77.3 136.94,-58.24 152.53,-43.15"/>
<polygon fill="black" stroke="black" stroke-width="2.51" points="155.06,-45.58 159.82,-36.11 150.2,-40.54 155.06,-45.58"/>
<text text-anchor="middle" x="177" y="-57.8" font-family="Sans Not-Rotated 14" font-size="14.00"> &#160;&#160;&#160;&#160;&#160;&#160;&#160;&#160;&#160;&#160;&#160;&#160;&#160;&#160;&#160;</text>
</g>
<!-- Notification operator&#45;&gt;Meas missing operator -->
<g id="edge6" class="edge">
<title>Notification operator&#45;&gt;Meas missing operator</title>
<path fill="none" stroke="black" stroke-width="2.7" d="M165.82,-181.93C155.07,-176.94 143.99,-170.92 134.5,-164 123.47,-155.96 113.04,-145.11 104.66,-135.25"/>
<polygon fill="black" stroke="black" stroke-width="2.7" points="107.18,-132.8 98.14,-127.28 101.77,-137.23 107.18,-132.8"/>
<text text-anchor="middle" x="171" y="-152.8" font-family="Sans Not-Rotated 14" font-size="14.00"> &#160;&#160;&#160;&#160;&#160;&#160;&#160;&#160;&#160;&#160;&#160;&#160;&#160;&#160;&#160;</text>
</g>
<!-- end -->
<g id="node10" class="node">
<title>end</title>
<ellipse fill="#ea4126" stroke="black" cx="211.5" cy="-109" rx="18" ry="18"/>
<ellipse fill="none" stroke="black" cx="211.5" cy="-109" rx="22" ry="22"/>
</g>
<!-- Notification operator&#45;&gt;end -->
<g id="edge9" class="edge">
<title>Notification operator&#45;&gt;end</title>
<path fill="none" stroke="black" stroke-dasharray="5,2" d="M211.5,-181.84C211.5,-170.44 211.5,-155.13 211.5,-141.58"/>
<polygon fill="black" stroke="black" points="215,-141.19 211.5,-131.19 208,-141.19 215,-141.19"/>
<text text-anchor="middle" x="232" y="-152.8" font-family="Sans Not-Rotated 14" font-size="14.00"> &#160;&#160;&#160;&#160;&#160;&#160;&#160;&#160;</text>
</g>
<!-- Meas missing doctor&#45;&gt;Notification operator -->
<g id="edge12" class="edge">
<title>Meas missing doctor&#45;&gt;Notification operator</title>
<path fill="none" stroke="black" stroke-width="2.05" d="M198.59,-36.04C204.92,-41.52 211.71,-47.79 217.5,-54 230.04,-67.46 234.87,-70.26 242.5,-87 254.17,-112.62 252.6,-121 255.5,-149 256.19,-155.63 258.4,-158 255.5,-164 253.64,-167.86 251.12,-171.42 248.23,-174.68"/>
<polygon fill="black" stroke="black" stroke-width="2.05" points="245.71,-172.25 240.94,-181.71 250.57,-177.29 245.71,-172.25"/>
<text text-anchor="middle" x="291" y="-105.3" font-family="Sans Not-Rotated 14" font-size="14.00"> &#160;&#160;&#160;&#160;&#160;&#160;&#160;&#160;&#160;&#160;&#160;&#160;&#160;&#160;&#160;</text>
</g>
<!-- Yellow zone doctor&#45;&gt;Yellow zone doctor FD -->
<g id="edge4" class="edge">
<title>Yellow zone doctor&#45;&gt;Yellow zone doctor FD</title>
<path fill="none" stroke="black" stroke-width="3.58" d="M179.45,-355.8C167.52,-346.97 158.25,-335.46 164.5,-323 166.45,-319.11 169.06,-315.55 172.06,-312.31"/>
<polygon fill="black" stroke="black" stroke-width="3.58" points="174.64,-314.68 179.61,-305.33 169.89,-309.54 174.64,-314.68"/>
<text text-anchor="middle" x="201" y="-326.8" font-family="Sans Not-Rotated 14" font-size="14.00"> &#160;&#160;&#160;&#160;&#160;&#160;&#160;&#160;&#160;&#160;&#160;&#160;&#160;&#160;&#160;</text>
</g>
<!-- start -->
<g id="node9" class="node">
<title>start</title>
<ellipse fill="#95d600" stroke="black" cx="173.5" cy="-731.3" rx="27.1" ry="27.1"/>
<text text-anchor="middle" x="173.5" y="-727.6" font-family="Sans Not-Rotated 14" font-size="14.00">start</text>
</g>
<!-- start&#45;&gt;Red zone operator -->
<g id="edge13" class="edge">
<title>start&#45;&gt;Red zone operator</title>
<path fill="none" stroke="black" stroke-dasharray="5,2" d="M173.5,-703.78C173.5,-691.1 173.5,-675.93 173.5,-663.17"/>
<polygon fill="black" stroke="black" points="177,-663.12 173.5,-653.12 170,-663.12 177,-663.12"/>
<text text-anchor="middle" x="194" y="-674.8" font-family="Sans Not-Rotated 14" font-size="14.00"> &#160;&#160;&#160;&#160;&#160;&#160;&#160;&#160;</text>
</g>
</g>
</svg>
