<?xml version="1.0" encoding="UTF-8" standalone="no"?>
<!DOCTYPE svg PUBLIC "-//W3C//DTD SVG 1.1//EN"
 "http://www.w3.org/Graphics/SVG/1.1/DTD/svg11.dtd">
<!-- Generated by graphviz version 3.0.0 (20220226.1711)
 -->
<!-- Pages: 1 -->
<svg width="493pt" height="767pt"
 viewBox="0.00 0.00 492.50 766.60" xmlns="http://www.w3.org/2000/svg" xmlns:xlink="http://www.w3.org/1999/xlink">
<g id="graph0" class="graph" transform="scale(1 1) rotate(0) translate(4 762.6)">
<polygon fill="white" stroke="transparent" points="-4,4 -4,-762.6 488.5,-762.6 488.5,4 -4,4"/>
<!-- Red zone operator -->
<g id="node1" class="node">
<title>Red zone operator</title>
<polygon fill="#1d2559" stroke="black" points="327,-653 182,-653 182,-617 327,-617 327,-653"/>
<text text-anchor="middle" x="254.5" y="-631.3" font-family="Sans Not-Rotated 14" font-size="14.00" fill="white">Red zone operator</text>
</g>
<!-- Red zone doctor FD -->
<g id="node2" class="node">
<title>Red zone doctor FD</title>
<polygon fill="#1d2559" stroke="black" points="316,-479 163,-479 163,-443 316,-443 316,-479"/>
<text text-anchor="middle" x="239.5" y="-457.3" font-family="Sans Not-Rotated 14" font-size="14.00" fill="white">Red zone doctor FD</text>
</g>
<!-- Red zone operator&#45;&gt;Red zone doctor FD -->
<g id="edge5" class="edge">
<title>Red zone operator&#45;&gt;Red zone doctor FD</title>
<path fill="none" stroke="black" stroke-width="3.29" d="M181.7,-622.29C148.97,-612.93 113.49,-596.13 94.5,-566 70.65,-528.16 119.82,-499.92 167.23,-482.49"/>
<polygon fill="black" stroke="black" stroke-width="3.29" points="168.41,-485.79 176.67,-479.15 166.08,-479.19 168.41,-485.79"/>
<text text-anchor="middle" x="131" y="-544.3" font-family="Sans Not-Rotated 14" font-size="14.00"> &#160;&#160;&#160;&#160;&#160;&#160;&#160;&#160;&#160;&#160;&#160;&#160;&#160;&#160;&#160;</text>
</g>
<!-- Red zone doctor -->
<g id="node4" class="node">
<title>Red zone doctor</title>
<polygon fill="#1f3b98" stroke="black" points="306,-566 177,-566 177,-530 306,-530 306,-566"/>
<text text-anchor="middle" x="241.5" y="-544.3" font-family="Sans Not-Rotated 14" font-size="14.00" fill="white">Red zone doctor</text>
</g>
<!-- Red zone operator&#45;&gt;Red zone doctor -->
<g id="edge7" class="edge">
<title>Red zone operator&#45;&gt;Red zone doctor</title>
<path fill="none" stroke="black" stroke-width="5" d="M189.79,-616.77C182.19,-612.18 175.41,-606.36 170.5,-599 163.16,-588 169.19,-578.66 180.28,-571.15"/>
<polygon fill="black" stroke="black" stroke-width="5" points="182.69,-574.81 189.14,-566 178.29,-567.25 182.69,-574.81"/>
<text text-anchor="middle" x="207" y="-587.8" font-family="Sans Not-Rotated 14" font-size="14.00"> &#160;&#160;&#160;&#160;&#160;&#160;&#160;&#160;&#160;&#160;&#160;&#160;&#160;&#160;&#160;</text>
</g>
<!-- Red zone doctor FD&#45;&gt;Red zone operator -->
<g id="edge3" class="edge">
<title>Red zone doctor FD&#45;&gt;Red zone operator</title>
<path fill="none" stroke="black" stroke-width="3.39" d="M297.89,-479.05C305.88,-483.69 313.16,-489.57 318.5,-497 341.15,-528.54 324.72,-545.21 326.5,-584 326.81,-590.66 330.04,-593.35 326.5,-599 323.67,-603.52 320.07,-607.48 315.99,-610.93"/>
<polygon fill="black" stroke="black" stroke-width="3.39" points="313.69,-608.27 307.64,-616.97 317.8,-613.94 313.69,-608.27"/>
<text text-anchor="middle" x="368" y="-544.3" font-family="Sans Not-Rotated 14" font-size="14.00"> &#160;&#160;&#160;&#160;&#160;&#160;&#160;&#160;&#160;&#160;&#160;&#160;&#160;&#160;&#160;</text>
</g>
<!-- Red zone doctor FD&#45;&gt;Red zone doctor FD -->
<g id="edge17" class="edge">
<title>Red zone doctor FD&#45;&gt;Red zone doctor FD</title>
<path fill="none" stroke="black" stroke-width="2.47" d="M316.25,-468.03C326.89,-466.87 334,-464.53 334,-461 334,-458.74 331.08,-456.97 326.19,-455.68"/>
<polygon fill="black" stroke="black" stroke-width="2.47" points="326.7,-452.22 316.25,-453.97 325.52,-459.12 326.7,-452.22"/>
<text text-anchor="middle" x="370.5" y="-457.3" font-family="Sans Not-Rotated 14" font-size="14.00"> &#160;&#160;&#160;&#160;&#160;&#160;&#160;&#160;&#160;&#160;&#160;&#160;&#160;&#160;&#160;</text>
</g>
<!-- Notification operator -->
<g id="node6" class="node">
<title>Notification operator</title>
<polygon fill="#5661c6" stroke="black" points="291,-218 132,-218 132,-182 291,-182 291,-218"/>
<text text-anchor="middle" x="211.5" y="-196.3" font-family="Sans Not-Rotated 14" font-size="14.00" fill="white">Notification operator</text>
</g>
<!-- Red zone doctor FD&#45;&gt;Notification operator -->
<g id="edge10" class="edge">
<title>Red zone doctor FD&#45;&gt;Notification operator</title>
<path fill="none" stroke="black" stroke-width="1.46" d="M231.37,-442.84C225.44,-429.36 217.86,-409.93 214.5,-392 203.7,-334.45 206.37,-265.42 209.07,-228.13"/>
<polygon fill="black" stroke="black" stroke-width="1.46" points="212.57,-228.3 209.86,-218.06 205.59,-227.75 212.57,-228.3"/>
<text text-anchor="middle" x="229" y="-326.8" font-family="Sans Not-Rotated 14" font-size="14.00"> &#160;&#160;&#160;&#160;&#160;&#160;&#160;&#160;</text>
</g>
<!-- Yellow zone doctor -->
<g id="node8" class="node">
<title>Yellow zone doctor</title>
<polygon fill="#a09dde" stroke="black" points="373,-392 224,-392 224,-356 373,-356 373,-392"/>
<text text-anchor="middle" x="298.5" y="-370.3" font-family="Sans Not-Rotated 14" font-size="14.00">Yellow zone doctor</text>
</g>
<!-- Red zone doctor FD&#45;&gt;Yellow zone doctor -->
<g id="edge12" class="edge">
<title>Red zone doctor FD&#45;&gt;Yellow zone doctor</title>
<path fill="none" stroke="black" stroke-width="1.95" d="M251.44,-442.8C259.84,-430.7 271.22,-414.3 280.68,-400.67"/>
<polygon fill="black" stroke="black" stroke-width="1.95" points="283.75,-402.39 286.58,-392.18 278,-398.39 283.75,-402.39"/>
<text text-anchor="middle" x="294" y="-413.8" font-family="Sans Not-Rotated 14" font-size="14.00"> &#160;&#160;&#160;&#160;&#160;&#160;&#160;&#160;</text>
</g>
<!-- Yellow zone doctor FD -->
<g id="node3" class="node">
<title>Yellow zone doctor FD</title>
<polygon fill="#a09dde" stroke="black" points="419,-305 246,-305 246,-269 419,-269 419,-305"/>
<text text-anchor="middle" x="332.5" y="-283.3" font-family="Sans Not-Rotated 14" font-size="14.00">Yellow zone doctor FD</text>
</g>
<!-- Yellow zone doctor FD&#45;&gt;Red zone operator -->
<g id="edge15" class="edge">
<title>Yellow zone doctor FD&#45;&gt;Red zone operator</title>
<path fill="none" stroke="black" stroke-width="1.58" d="M386.18,-305.01C396.3,-309.78 406.27,-315.72 414.5,-323 433.74,-340.02 443.5,-347.31 443.5,-373 443.5,-549 443.5,-549 443.5,-549 443.5,-598.92 387.98,-619.7 337.12,-628.26"/>
<polygon fill="black" stroke="black" stroke-width="1.58" points="336.38,-624.83 327.03,-629.81 337.45,-631.75 336.38,-624.83"/>
<text text-anchor="middle" x="464" y="-457.3" font-family="Sans Not-Rotated 14" font-size="14.00"> &#160;&#160;&#160;&#160;&#160;&#160;&#160;&#160;</text>
</g>
<!-- Yellow zone doctor FD&#45;&gt;Notification operator -->
<g id="edge9" class="edge">
<title>Yellow zone doctor FD&#45;&gt;Notification operator</title>
<path fill="none" stroke="black" stroke-width="1.84" d="M308.01,-268.8C289.65,-255.9 264.31,-238.1 244.21,-223.98"/>
<polygon fill="black" stroke="black" stroke-width="1.84" points="246.14,-221.06 235.95,-218.18 242.12,-226.79 246.14,-221.06"/>
<text text-anchor="middle" x="300" y="-239.8" font-family="Sans Not-Rotated 14" font-size="14.00"> &#160;&#160;&#160;&#160;&#160;&#160;&#160;&#160;</text>
</g>
<!-- Yellow zone doctor FD&#45;&gt;Yellow zone doctor -->
<g id="edge13" class="edge">
<title>Yellow zone doctor FD&#45;&gt;Yellow zone doctor</title>
<path fill="none" stroke="black" stroke-width="2.06" d="M336.19,-305.3C337.5,-315.23 337.75,-327.73 333.5,-338 332.03,-341.54 330.01,-344.91 327.68,-348.07"/>
<polygon fill="black" stroke="black" stroke-width="2.06" points="324.83,-346.01 320.93,-355.86 330.12,-350.59 324.83,-346.01"/>
<text text-anchor="middle" x="374" y="-326.8" font-family="Sans Not-Rotated 14" font-size="14.00"> &#160;&#160;&#160;&#160;&#160;&#160;&#160;&#160;&#160;&#160;&#160;&#160;&#160;&#160;&#160;</text>
</g>
<!-- Red zone doctor&#45;&gt;Red zone operator -->
<g id="edge2" class="edge">
<title>Red zone doctor&#45;&gt;Red zone operator</title>
<path fill="none" stroke="black" stroke-width="3.42" d="M244.13,-566.18C245.91,-577.81 248.29,-593.42 250.33,-606.73"/>
<polygon fill="black" stroke="black" stroke-width="3.42" points="246.9,-607.44 251.87,-616.8 253.82,-606.38 246.9,-607.44"/>
<text text-anchor="middle" x="286" y="-587.8" font-family="Sans Not-Rotated 14" font-size="14.00"> &#160;&#160;&#160;&#160;&#160;&#160;&#160;&#160;&#160;&#160;&#160;&#160;&#160;&#160;&#160;</text>
</g>
<!-- Red zone doctor&#45;&gt;Red zone doctor FD -->
<g id="edge4" class="edge">
<title>Red zone doctor&#45;&gt;Red zone doctor FD</title>
<path fill="none" stroke="black" stroke-width="3.46" d="M241.1,-529.8C240.82,-518.16 240.45,-502.55 240.14,-489.24"/>
<polygon fill="black" stroke="black" stroke-width="3.46" points="243.64,-489.09 239.9,-479.18 236.64,-489.26 243.64,-489.09"/>
<text text-anchor="middle" x="278" y="-500.8" font-family="Sans Not-Rotated 14" font-size="14.00"> &#160;&#160;&#160;&#160;&#160;&#160;&#160;&#160;&#160;&#160;&#160;&#160;&#160;&#160;&#160;</text>
</g>
<!-- Meas missing operator -->
<g id="node5" class="node">
<title>Meas missing operator</title>
<polygon fill="#e0ddf4" stroke="black" points="171,-127 0,-127 0,-91 171,-91 171,-127"/>
<text text-anchor="middle" x="85.5" y="-105.3" font-family="Sans Not-Rotated 14" font-size="14.00">Meas missing operator</text>
</g>
<!-- Meas missing doctor -->
<g id="node7" class="node">
<title>Meas missing doctor</title>
<polygon fill="#ffffff" stroke="black" points="255,-36 100,-36 100,0 255,0 255,-36"/>
<text text-anchor="middle" x="177.5" y="-14.3" font-family="Sans Not-Rotated 14" font-size="14.00">Meas missing doctor</text>
</g>
<!-- Meas missing operator&#45;&gt;Meas missing doctor -->
<g id="edge1" class="edge">
<title>Meas missing operator&#45;&gt;Meas missing doctor</title>
<path fill="none" stroke="black" stroke-width="2.51" d="M103.24,-90.84C117.24,-77.3 136.94,-58.24 152.53,-43.15"/>
<polygon fill="black" stroke="black" stroke-width="2.51" points="155.06,-45.58 159.82,-36.11 150.2,-40.54 155.06,-45.58"/>
<text text-anchor="middle" x="177" y="-57.8" font-family="Sans Not-Rotated 14" font-size="14.00"> &#160;&#160;&#160;&#160;&#160;&#160;&#160;&#160;&#160;&#160;&#160;&#160;&#160;&#160;&#160;</text>
</g>
<!-- Notification operator&#45;&gt;Meas missing operator -->
<g id="edge8" class="edge">
<title>Notification operator&#45;&gt;Meas missing operator</title>
<path fill="none" stroke="black" stroke-width="2.7" d="M165.82,-181.93C155.07,-176.94 143.99,-170.92 134.5,-164 123.47,-155.96 113.04,-145.11 104.66,-135.25"/>
<polygon fill="black" stroke="black" stroke-width="2.7" points="107.18,-132.8 98.14,-127.28 101.77,-137.23 107.18,-132.8"/>
<text text-anchor="middle" x="171" y="-152.8" font-family="Sans Not-Rotated 14" font-size="14.00"> &#160;&#160;&#160;&#160;&#160;&#160;&#160;&#160;&#160;&#160;&#160;&#160;&#160;&#160;&#160;</text>
</g>
<!-- end -->
<g id="node10" class="node">
<title>end</title>
<ellipse fill="#ea4126" stroke="black" cx="211.5" cy="-109" rx="18" ry="18"/>
<ellipse fill="none" stroke="black" cx="211.5" cy="-109" rx="22" ry="22"/>
</g>
<!-- Notification operator&#45;&gt;end -->
<g id="edge14" class="edge">
<title>Notification operator&#45;&gt;end</title>
<path fill="none" stroke="black" stroke-dasharray="5,2" d="M211.5,-181.84C211.5,-170.44 211.5,-155.13 211.5,-141.58"/>
<polygon fill="black" stroke="black" points="215,-141.19 211.5,-131.19 208,-141.19 215,-141.19"/>
<text text-anchor="middle" x="232" y="-152.8" font-family="Sans Not-Rotated 14" font-size="14.00"> &#160;&#160;&#160;&#160;&#160;&#160;&#160;&#160;</text>
</g>
<!-- Meas missing doctor&#45;&gt;Notification operator -->
<g id="edge11" class="edge">
<title>Meas missing doctor&#45;&gt;Notification operator</title>
<path fill="none" stroke="black" stroke-width="2.05" d="M198.59,-36.04C204.92,-41.52 211.71,-47.79 217.5,-54 230.04,-67.46 234.87,-70.26 242.5,-87 254.17,-112.62 252.6,-121 255.5,-149 256.19,-155.63 258.4,-158 255.5,-164 253.64,-167.86 251.12,-171.42 248.23,-174.68"/>
<polygon fill="black" stroke="black" stroke-width="2.05" points="245.71,-172.25 240.94,-181.71 250.57,-177.29 245.71,-172.25"/>
<text text-anchor="middle" x="291" y="-105.3" font-family="Sans Not-Rotated 14" font-size="14.00"> &#160;&#160;&#160;&#160;&#160;&#160;&#160;&#160;&#160;&#160;&#160;&#160;&#160;&#160;&#160;</text>
</g>
<!-- Yellow zone doctor&#45;&gt;Yellow zone doctor FD -->
<g id="edge6" class="edge">
<title>Yellow zone doctor&#45;&gt;Yellow zone doctor FD</title>
<path fill="none" stroke="black" stroke-width="3.58" d="M272.89,-355.97C262.02,-346.55 253.33,-334.46 260.5,-323 263.33,-318.48 266.93,-314.52 271.01,-311.07"/>
<polygon fill="black" stroke="black" stroke-width="3.58" points="273.31,-313.73 279.36,-305.03 269.2,-308.06 273.31,-313.73"/>
<text text-anchor="middle" x="297" y="-326.8" font-family="Sans Not-Rotated 14" font-size="14.00"> &#160;&#160;&#160;&#160;&#160;&#160;&#160;&#160;&#160;&#160;&#160;&#160;&#160;&#160;&#160;</text>
</g>
<!-- start -->
<g id="node9" class="node">
<title>start</title>
<ellipse fill="#95d600" stroke="black" cx="254.5" cy="-731.3" rx="27.1" ry="27.1"/>
<text text-anchor="middle" x="254.5" y="-727.6" font-family="Sans Not-Rotated 14" font-size="14.00">start</text>
</g>
<!-- start&#45;&gt;Red zone operator -->
<g id="edge16" class="edge">
<title>start&#45;&gt;Red zone operator</title>
<path fill="none" stroke="black" stroke-dasharray="5,2" d="M254.5,-703.78C254.5,-691.1 254.5,-675.93 254.5,-663.17"/>
<polygon fill="black" stroke="black" points="258,-663.12 254.5,-653.12 251,-663.12 258,-663.12"/>
<text text-anchor="middle" x="275" y="-674.8" font-family="Sans Not-Rotated 14" font-size="14.00"> &#160;&#160;&#160;&#160;&#160;&#160;&#160;&#160;</text>
</g>
</g>
</svg>
