<?xml version="1.0" encoding="UTF-8" standalone="no"?>
<!DOCTYPE svg PUBLIC "-//W3C//DTD SVG 1.1//EN"
 "http://www.w3.org/Graphics/SVG/1.1/DTD/svg11.dtd">
<!-- Generated by graphviz version 3.0.0 (20220226.1711)
 -->
<!-- Pages: 1 -->
<svg width="282pt" height="680pt"
 viewBox="0.00 0.00 281.50 679.60" xmlns="http://www.w3.org/2000/svg" xmlns:xlink="http://www.w3.org/1999/xlink">
<g id="graph0" class="graph" transform="scale(1 1) rotate(0) translate(4 675.6)">
<polygon fill="white" stroke="transparent" points="-4,4 -4,-675.6 277.5,-675.6 277.5,4 -4,4"/>
<!-- RELEASE -->
<g id="node1" class="node">
<title>RELEASE</title>
<polygon fill="#7d7fd2" stroke="black" points="184.5,-305 104.5,-305 104.5,-269 184.5,-269 184.5,-305"/>
<text text-anchor="middle" x="144.5" y="-283.3" font-family="Sans Not-Rotated 14" font-size="14.00">RELEASE</text>
</g>
<!-- CODE OK -->
<g id="node3" class="node">
<title>CODE OK</title>
<polygon fill="#7d7fd2" stroke="black" points="186,-218 103,-218 103,-182 186,-182 186,-218"/>
<text text-anchor="middle" x="144.5" y="-196.3" font-family="Sans Not-Rotated 14" font-size="14.00">CODE OK</text>
</g>
<!-- RELEASE&#45;&gt;CODE OK -->
<g id="edge3" class="edge">
<title>RELEASE&#45;&gt;CODE OK</title>
<path fill="none" stroke="black" stroke-width="3.91" d="M144.5,-268.8C144.5,-257.16 144.5,-241.55 144.5,-228.24"/>
<polygon fill="black" stroke="black" stroke-width="3.91" points="148,-228.18 144.5,-218.18 141,-228.18 148,-228.18"/>
<text text-anchor="middle" x="201" y="-239.8" font-family="Sans Not-Rotated 14" font-size="14.00"> &#160;&#160;&#160;&#160;&#160;&#160;&#160;&#160;&#160;&#160;&#160;&#160;&#160;&#160;&#160;&#160;&#160;&#160;&#160;&#160;&#160;&#160;&#160;&#160;</text>
</g>
<!-- BILLED -->
<g id="node2" class="node">
<title>BILLED</title>
<polygon fill="#7d7fd2" stroke="black" points="178.5,-131 110.5,-131 110.5,-95 178.5,-95 178.5,-131"/>
<text text-anchor="middle" x="144.5" y="-109.3" font-family="Sans Not-Rotated 14" font-size="14.00">BILLED</text>
</g>
<!-- end -->
<g id="node8" class="node">
<title>end</title>
<ellipse fill="#ea4126" stroke="black" cx="144.5" cy="-22" rx="18" ry="18"/>
<ellipse fill="none" stroke="black" cx="144.5" cy="-22" rx="22" ry="22"/>
</g>
<!-- BILLED&#45;&gt;end -->
<g id="edge8" class="edge">
<title>BILLED&#45;&gt;end</title>
<path fill="none" stroke="black" stroke-dasharray="5,2" d="M144.5,-94.84C144.5,-83.44 144.5,-68.13 144.5,-54.58"/>
<polygon fill="black" stroke="black" points="148,-54.19 144.5,-44.19 141,-54.19 148,-54.19"/>
<text text-anchor="middle" x="201" y="-65.8" font-family="Sans Not-Rotated 14" font-size="14.00"> &#160;&#160;&#160;&#160;&#160;&#160;&#160;&#160;&#160;&#160;&#160;&#160;&#160;&#160;&#160;&#160;&#160;&#160;&#160;&#160;&#160;&#160;&#160;&#160;</text>
</g>
<!-- CODE OK&#45;&gt;BILLED -->
<g id="edge1" class="edge">
<title>CODE OK&#45;&gt;BILLED</title>
<path fill="none" stroke="black" stroke-width="3.7" d="M144.5,-181.8C144.5,-170.16 144.5,-154.55 144.5,-141.24"/>
<polygon fill="black" stroke="black" stroke-width="3.7" points="148,-141.18 144.5,-131.18 141,-141.18 148,-141.18"/>
<text text-anchor="middle" x="201" y="-152.8" font-family="Sans Not-Rotated 14" font-size="14.00"> &#160;&#160;&#160;&#160;&#160;&#160;&#160;&#160;&#160;&#160;&#160;&#160;&#160;&#160;&#160;&#160;&#160;&#160;&#160;&#160;&#160;&#160;&#160;&#160;</text>
</g>
<!-- NEW -->
<g id="node4" class="node">
<title>NEW</title>
<polygon fill="#1d2559" stroke="black" points="171.5,-566 117.5,-566 117.5,-530 171.5,-530 171.5,-566"/>
<text text-anchor="middle" x="144.5" y="-544.3" font-family="Sans Not-Rotated 14" font-size="14.00" fill="white">NEW</text>
</g>
<!-- CHANGE DIAGN -->
<g id="node5" class="node">
<title>CHANGE DIAGN</title>
<polygon fill="#ffffff" stroke="black" points="129,-479 0,-479 0,-443 129,-443 129,-479"/>
<text text-anchor="middle" x="64.5" y="-457.3" font-family="Sans Not-Rotated 14" font-size="14.00">CHANGE DIAGN</text>
</g>
<!-- NEW&#45;&gt;CHANGE DIAGN -->
<g id="edge5" class="edge">
<title>NEW&#45;&gt;CHANGE DIAGN</title>
<path fill="none" stroke="black" stroke-width="2.77" d="M128.31,-529.8C116.6,-517.36 100.61,-500.36 87.56,-486.5"/>
<polygon fill="black" stroke="black" stroke-width="2.77" points="90.07,-484.06 80.67,-479.18 84.97,-488.86 90.07,-484.06"/>
<text text-anchor="middle" x="146" y="-500.8" font-family="Sans Not-Rotated 14" font-size="14.00"> &#160;&#160;&#160;&#160;&#160;&#160;&#160;&#160;&#160;&#160;&#160;&#160;&#160;&#160;&#160;</text>
</g>
<!-- FIN -->
<g id="node6" class="node">
<title>FIN</title>
<polygon fill="#5661c6" stroke="black" points="171.5,-392 117.5,-392 117.5,-356 171.5,-356 171.5,-392"/>
<text text-anchor="middle" x="144.5" y="-370.3" font-family="Sans Not-Rotated 14" font-size="14.00" fill="white">FIN</text>
</g>
<!-- NEW&#45;&gt;FIN -->
<g id="edge7" class="edge">
<title>NEW&#45;&gt;FIN</title>
<path fill="none" stroke="black" stroke-width="2.1" d="M169.94,-529.83C176.06,-524.7 182.1,-518.65 186.5,-512 194.96,-499.22 194.25,-494.16 196.5,-479 201.04,-448.35 203.61,-435.83 186.5,-410 183.95,-406.16 180.86,-402.51 177.52,-399.13"/>
<polygon fill="black" stroke="black" stroke-width="2.1" points="179.67,-396.35 169.94,-392.17 174.94,-401.51 179.67,-396.35"/>
<text text-anchor="middle" x="237" y="-457.3" font-family="Sans Not-Rotated 14" font-size="14.00"> &#160;&#160;&#160;&#160;&#160;&#160;&#160;&#160;&#160;&#160;&#160;&#160;&#160;&#160;&#160;</text>
</g>
<!-- CHANGE DIAGN&#45;&gt;CHANGE DIAGN -->
<g id="edge9" class="edge">
<title>CHANGE DIAGN&#45;&gt;CHANGE DIAGN</title>
<path fill="none" stroke="black" d="M129.18,-468.29C139.74,-467.24 147,-464.81 147,-461 147,-458.56 144.02,-456.68 139.1,-455.38"/>
<polygon fill="black" stroke="black" points="139.62,-451.91 129.18,-453.71 138.46,-458.82 139.62,-451.91"/>
<text text-anchor="middle" x="167.5" y="-457.3" font-family="Sans Not-Rotated 14" font-size="14.00"> &#160;&#160;&#160;&#160;&#160;&#160;&#160;&#160;</text>
</g>
<!-- CHANGE DIAGN&#45;&gt;FIN -->
<g id="edge6" class="edge">
<title>CHANGE DIAGN&#45;&gt;FIN</title>
<path fill="none" stroke="black" stroke-width="2.71" d="M80.69,-442.8C92.4,-430.36 108.39,-413.36 121.44,-399.5"/>
<polygon fill="black" stroke="black" stroke-width="2.71" points="124.03,-401.86 128.33,-392.18 118.93,-397.06 124.03,-401.86"/>
<text text-anchor="middle" x="146" y="-413.8" font-family="Sans Not-Rotated 14" font-size="14.00"> &#160;&#160;&#160;&#160;&#160;&#160;&#160;&#160;&#160;&#160;&#160;&#160;&#160;&#160;&#160;</text>
</g>
<!-- FIN&#45;&gt;RELEASE -->
<g id="edge2" class="edge">
<title>FIN&#45;&gt;RELEASE</title>
<path fill="none" stroke="black" stroke-width="4.02" d="M144.5,-355.8C144.5,-344.16 144.5,-328.55 144.5,-315.24"/>
<polygon fill="black" stroke="black" stroke-width="4.02" points="148.02,-315.18 144.5,-305.18 140.98,-315.18 148.02,-315.18"/>
<text text-anchor="middle" x="201" y="-326.8" font-family="Sans Not-Rotated 14" font-size="14.00"> &#160;&#160;&#160;&#160;&#160;&#160;&#160;&#160;&#160;&#160;&#160;&#160;&#160;&#160;&#160;&#160;&#160;&#160;&#160;&#160;&#160;&#160;&#160;&#160;</text>
</g>
<!-- start -->
<g id="node7" class="node">
<title>start</title>
<ellipse fill="#95d600" stroke="black" cx="144.5" cy="-644.3" rx="27.1" ry="27.1"/>
<text text-anchor="middle" x="144.5" y="-640.6" font-family="Sans Not-Rotated 14" font-size="14.00">start</text>
</g>
<!-- start&#45;&gt;NEW -->
<g id="edge4" class="edge">
<title>start&#45;&gt;NEW</title>
<path fill="none" stroke="black" stroke-dasharray="5,2" d="M144.5,-616.78C144.5,-604.1 144.5,-588.93 144.5,-576.17"/>
<polygon fill="black" stroke="black" points="148,-576.12 144.5,-566.12 141,-576.12 148,-576.12"/>
<text text-anchor="middle" x="201" y="-587.8" font-family="Sans Not-Rotated 14" font-size="14.00"> &#160;&#160;&#160;&#160;&#160;&#160;&#160;&#160;&#160;&#160;&#160;&#160;&#160;&#160;&#160;&#160;&#160;&#160;&#160;&#160;&#160;&#160;&#160;&#160;</text>
</g>
</g>
</svg>
