<?xml version="1.0" encoding="UTF-8" standalone="no"?>
<!DOCTYPE svg PUBLIC "-//W3C//DTD SVG 1.1//EN"
 "http://www.w3.org/Graphics/SVG/1.1/DTD/svg11.dtd">
<!-- Generated by graphviz version 3.0.0 (20220226.1711)
 -->
<!-- Pages: 1 -->
<svg width="941pt" height="593pt"
 viewBox="0.00 0.00 941.00 592.60" xmlns="http://www.w3.org/2000/svg" xmlns:xlink="http://www.w3.org/1999/xlink">
<g id="graph0" class="graph" transform="scale(1 1) rotate(0) translate(4 588.6)">
<polygon fill="white" stroke="transparent" points="-4,4 -4,-588.6 937,-588.6 937,4 -4,4"/>
<!-- RELEASE -->
<g id="node1" class="node">
<title>RELEASE</title>
<polygon fill="#7d7fd2" stroke="black" points="314,-392 234,-392 234,-356 314,-356 314,-392"/>
<text text-anchor="middle" x="274" y="-370.3" font-family="Sans Not-Rotated 14" font-size="14.00">RELEASE</text>
</g>
<!-- RELEASE&#45;&gt;RELEASE -->
<g id="edge15" class="edge">
<title>RELEASE&#45;&gt;RELEASE</title>
<path fill="none" stroke="black" stroke-width="1.01" d="M314.12,-381.78C324.33,-381.27 332,-378.68 332,-374 332,-371.08 329,-368.97 324.26,-367.67"/>
<polygon fill="black" stroke="black" stroke-width="1.01" points="324.51,-364.17 314.12,-366.22 323.52,-371.1 324.51,-364.17"/>
<text text-anchor="middle" x="341.5" y="-370.3" font-family="Sans Not-Rotated 14" font-size="14.00"> &#160;&#160;&#160;</text>
</g>
<!-- BILLED -->
<g id="node2" class="node">
<title>BILLED</title>
<polygon fill="#7d7fd2" stroke="black" points="473,-305 405,-305 405,-269 473,-269 473,-305"/>
<text text-anchor="middle" x="439" y="-283.3" font-family="Sans Not-Rotated 14" font-size="14.00">BILLED</text>
</g>
<!-- RELEASE&#45;&gt;BILLED -->
<g id="edge14" class="edge">
<title>RELEASE&#45;&gt;BILLED</title>
<path fill="none" stroke="black" stroke-width="1.03" d="M307.39,-355.8C333.19,-342.51 369.08,-324.02 396.86,-309.71"/>
<polygon fill="black" stroke="black" stroke-width="1.03" points="398.65,-312.72 405.94,-305.03 395.45,-306.5 398.65,-312.72"/>
<text text-anchor="middle" x="386.5" y="-326.8" font-family="Sans Not-Rotated 14" font-size="14.00"> &#160;&#160;&#160;&#160;&#160;&#160;&#160;&#160;</text>
</g>
<!-- CODE OK -->
<g id="node3" class="node">
<title>CODE OK</title>
<polygon fill="#7d7fd2" stroke="black" points="553.5,-218 470.5,-218 470.5,-182 553.5,-182 553.5,-218"/>
<text text-anchor="middle" x="512" y="-196.3" font-family="Sans Not-Rotated 14" font-size="14.00">CODE OK</text>
</g>
<!-- RELEASE&#45;&gt;CODE OK -->
<g id="edge12" class="edge">
<title>RELEASE&#45;&gt;CODE OK</title>
<path fill="none" stroke="black" stroke-width="3.95" d="M270.4,-355.96C266.72,-333.63 263.92,-294.34 283,-269 304.34,-240.66 399.45,-219.82 460.19,-209.12"/>
<polygon fill="black" stroke="black" stroke-width="3.95" points="461.1,-212.52 470.36,-207.37 459.91,-205.62 461.1,-212.52"/>
<text text-anchor="middle" x="339.5" y="-283.3" font-family="Sans Not-Rotated 14" font-size="14.00"> &#160;&#160;&#160;&#160;&#160;&#160;&#160;&#160;&#160;&#160;&#160;&#160;&#160;&#160;&#160;&#160;&#160;&#160;&#160;&#160;&#160;&#160;&#160;&#160;</text>
</g>
<!-- FIN -->
<g id="node6" class="node">
<title>FIN</title>
<polygon fill="#5661c6" stroke="black" points="466,-131 412,-131 412,-95 466,-95 466,-131"/>
<text text-anchor="middle" x="439" y="-109.3" font-family="Sans Not-Rotated 14" font-size="14.00" fill="white">FIN</text>
</g>
<!-- RELEASE&#45;&gt;FIN -->
<g id="edge13" class="edge">
<title>RELEASE&#45;&gt;FIN</title>
<path fill="none" stroke="black" stroke-width="1" d="M268.04,-355.76C266.39,-350.16 264.82,-343.88 264,-338 261.63,-321.05 260.36,-287.83 266,-269 286.03,-202.1 358.13,-154.78 402.69,-131.16"/>
<polygon fill="black" stroke="black" stroke-width="1" points="404.47,-134.18 411.75,-126.49 401.26,-127.96 404.47,-134.18"/>
<text text-anchor="middle" x="290.5" y="-239.8" font-family="Sans Not-Rotated 14" font-size="14.00"> &#160;&#160;&#160;</text>
</g>
<!-- end -->
<g id="node8" class="node">
<title>end</title>
<ellipse fill="#ea4126" stroke="black" cx="562" cy="-22" rx="18" ry="18"/>
<ellipse fill="none" stroke="black" cx="562" cy="-22" rx="22" ry="22"/>
</g>
<!-- RELEASE&#45;&gt;end -->
<g id="edge16" class="edge">
<title>RELEASE&#45;&gt;end</title>
<path fill="none" stroke="black" stroke-dasharray="5,2" d="M233.88,-370.54C182.77,-364.99 101,-346.9 101,-288 101,-288 101,-288 101,-112 101,-24.61 424.38,-21.18 529.45,-22.36"/>
<polygon fill="black" stroke="black" points="529.72,-25.87 539.77,-22.5 529.81,-18.87 529.72,-25.87"/>
<text text-anchor="middle" x="110.5" y="-196.3" font-family="Sans Not-Rotated 14" font-size="14.00"> &#160;&#160;&#160;</text>
</g>
<!-- BILLED&#45;&gt;BILLED -->
<g id="edge27" class="edge">
<title>BILLED&#45;&gt;BILLED</title>
<path fill="none" stroke="black" stroke-width="1.01" d="M473.01,-294.86C483.13,-294.62 491,-292 491,-287 491,-283.87 487.92,-281.68 483.15,-280.41"/>
<polygon fill="black" stroke="black" stroke-width="1.01" points="483.37,-276.91 473.01,-279.14 482.5,-283.86 483.37,-276.91"/>
<text text-anchor="middle" x="500.5" y="-283.3" font-family="Sans Not-Rotated 14" font-size="14.00"> &#160;&#160;&#160;</text>
</g>
<!-- BILLED&#45;&gt;CODE OK -->
<g id="edge26" class="edge">
<title>BILLED&#45;&gt;CODE OK</title>
<path fill="none" stroke="black" stroke-width="1.01" d="M469.87,-268.87C477.13,-263.81 484.38,-257.78 490,-251 495.68,-244.15 500.15,-235.6 503.54,-227.52"/>
<polygon fill="black" stroke="black" stroke-width="1.01" points="506.86,-228.63 507.14,-218.04 500.31,-226.15 506.86,-228.63"/>
<text text-anchor="middle" x="507.5" y="-239.8" font-family="Sans Not-Rotated 14" font-size="14.00"> &#160;&#160;&#160;</text>
</g>
<!-- BILLED&#45;&gt;end -->
<g id="edge28" class="edge">
<title>BILLED&#45;&gt;end</title>
<path fill="none" stroke="black" stroke-dasharray="5,2" d="M473.38,-278.06C486.4,-275.12 501.36,-271.82 515,-269 536.04,-264.65 596.29,-267.55 610,-251 658.99,-191.86 608.92,-95.05 579.77,-48.96"/>
<polygon fill="black" stroke="black" points="582.63,-46.94 574.26,-40.45 576.76,-50.74 582.63,-46.94"/>
<text text-anchor="middle" x="683.5" y="-152.8" font-family="Sans Not-Rotated 14" font-size="14.00"> &#160;&#160;&#160;&#160;&#160;&#160;&#160;&#160;&#160;&#160;&#160;&#160;&#160;&#160;&#160;&#160;&#160;&#160;&#160;&#160;&#160;&#160;&#160;&#160;</text>
</g>
<!-- CODE OK&#45;&gt;RELEASE -->
<g id="edge18" class="edge">
<title>CODE OK&#45;&gt;RELEASE</title>
<path fill="none" stroke="black" stroke-width="1.03" d="M519.46,-218.11C527.95,-240.52 538.31,-279.9 519,-305 495.34,-335.76 388.59,-356.35 324.06,-366.22"/>
<polygon fill="black" stroke="black" stroke-width="1.03" points="323.46,-362.77 314.08,-367.72 324.49,-369.7 323.46,-362.77"/>
<text text-anchor="middle" x="549.5" y="-283.3" font-family="Sans Not-Rotated 14" font-size="14.00"> &#160;&#160;&#160;&#160;&#160;&#160;&#160;&#160;</text>
</g>
<!-- CODE OK&#45;&gt;BILLED -->
<g id="edge17" class="edge">
<title>CODE OK&#45;&gt;BILLED</title>
<path fill="none" stroke="black" stroke-width="3.74" d="M470.22,-206.22C434.95,-211.58 388.41,-221.26 377,-236 367.08,-248.83 379.26,-260.39 395.37,-269.17"/>
<polygon fill="black" stroke="black" stroke-width="3.74" points="394.1,-272.44 404.62,-273.74 397.21,-266.17 394.1,-272.44"/>
<text text-anchor="middle" x="433.5" y="-239.8" font-family="Sans Not-Rotated 14" font-size="14.00"> &#160;&#160;&#160;&#160;&#160;&#160;&#160;&#160;&#160;&#160;&#160;&#160;&#160;&#160;&#160;&#160;&#160;&#160;&#160;&#160;&#160;&#160;&#160;&#160;</text>
</g>
<!-- CODE OK&#45;&gt;CODE OK -->
<g id="edge19" class="edge">
<title>CODE OK&#45;&gt;CODE OK</title>
<path fill="none" stroke="black" stroke-width="1.01" d="M553.71,-207.75C563.91,-207.18 571.5,-204.59 571.5,-200 571.5,-197.13 568.53,-195.04 563.82,-193.74"/>
<polygon fill="black" stroke="black" stroke-width="1.01" points="564.11,-190.25 553.71,-192.25 563.09,-197.17 564.11,-190.25"/>
<text text-anchor="middle" x="581" y="-196.3" font-family="Sans Not-Rotated 14" font-size="14.00"> &#160;&#160;&#160;</text>
</g>
<!-- CODE OK&#45;&gt;FIN -->
<g id="edge20" class="edge">
<title>CODE OK&#45;&gt;FIN</title>
<path fill="none" stroke="black" stroke-width="1" d="M501.2,-181.66C494.68,-171.71 485.93,-159.21 477,-149 473.77,-145.31 470.2,-141.6 466.56,-138.05"/>
<polygon fill="black" stroke="black" stroke-width="1" points="468.79,-135.35 459.12,-131.04 464,-140.45 468.79,-135.35"/>
<text text-anchor="middle" x="490.5" y="-152.8" font-family="Sans Not-Rotated 14" font-size="14.00"> </text>
</g>
<!-- CODE OK&#45;&gt;end -->
<g id="edge21" class="edge">
<title>CODE OK&#45;&gt;end</title>
<path fill="none" stroke="black" stroke-dasharray="5,2" d="M516.89,-181.8C525.35,-152 542.86,-90.38 553.4,-53.27"/>
<polygon fill="black" stroke="black" points="556.81,-54.07 556.18,-43.5 550.08,-52.16 556.81,-54.07"/>
<text text-anchor="middle" x="550.5" y="-109.3" font-family="Sans Not-Rotated 14" font-size="14.00"> &#160;&#160;&#160;</text>
</g>
<!-- NEW -->
<g id="node4" class="node">
<title>NEW</title>
<polygon fill="#1d2559" stroke="black" points="625,-479 571,-479 571,-443 625,-443 625,-479"/>
<text text-anchor="middle" x="598" y="-457.3" font-family="Sans Not-Rotated 14" font-size="14.00" fill="white">NEW</text>
</g>
<!-- NEW&#45;&gt;RELEASE -->
<g id="edge4" class="edge">
<title>NEW&#45;&gt;RELEASE</title>
<path fill="none" stroke="black" stroke-width="1" d="M570.93,-452.9C516.57,-438.64 393.41,-406.33 323.99,-388.11"/>
<polygon fill="black" stroke="black" stroke-width="1" points="324.71,-384.69 314.15,-385.53 322.94,-391.46 324.71,-384.69"/>
<text text-anchor="middle" x="457.5" y="-413.8" font-family="Sans Not-Rotated 14" font-size="14.00"> </text>
</g>
<!-- NEW&#45;&gt;BILLED -->
<g id="edge5" class="edge">
<title>NEW&#45;&gt;BILLED</title>
<path fill="none" stroke="black" d="M582.17,-442.88C553.84,-412.23 494.36,-347.89 461.69,-312.55"/>
<polygon fill="black" stroke="black" points="464.12,-310.02 454.76,-305.05 458.98,-314.77 464.12,-310.02"/>
<text text-anchor="middle" x="536.5" y="-370.3" font-family="Sans Not-Rotated 14" font-size="14.00"> </text>
</g>
<!-- NEW&#45;&gt;CODE OK -->
<g id="edge6" class="edge">
<title>NEW&#45;&gt;CODE OK</title>
<path fill="none" stroke="black" d="M599.2,-442.98C600.93,-408.43 601.36,-328.33 574,-269 566.35,-252.42 553.18,-237.09 540.93,-225.2"/>
<polygon fill="black" stroke="black" points="543.19,-222.52 533.49,-218.26 538.42,-227.64 543.19,-222.52"/>
<text text-anchor="middle" x="595.5" y="-326.8" font-family="Sans Not-Rotated 14" font-size="14.00"> </text>
</g>
<!-- NEW&#45;&gt;NEW -->
<g id="edge3" class="edge">
<title>NEW&#45;&gt;NEW</title>
<path fill="none" stroke="black" stroke-width="1.25" d="M625.24,-468.87C635.02,-469.04 643,-466.41 643,-461 643,-457.7 640.04,-455.44 635.51,-454.21"/>
<polygon fill="black" stroke="black" stroke-width="1.25" points="635.55,-450.7 625.24,-453.13 634.82,-457.66 635.55,-450.7"/>
<text text-anchor="middle" x="679.5" y="-457.3" font-family="Sans Not-Rotated 14" font-size="14.00"> &#160;&#160;&#160;&#160;&#160;&#160;&#160;&#160;&#160;&#160;&#160;&#160;&#160;&#160;&#160;</text>
</g>
<!-- CHANGE DIAGN -->
<g id="node5" class="node">
<title>CHANGE DIAGN</title>
<polygon fill="#ffffff" stroke="black" points="772.5,-305 643.5,-305 643.5,-269 772.5,-269 772.5,-305"/>
<text text-anchor="middle" x="708" y="-283.3" font-family="Sans Not-Rotated 14" font-size="14.00">CHANGE DIAGN</text>
</g>
<!-- NEW&#45;&gt;CHANGE DIAGN -->
<g id="edge2" class="edge">
<title>NEW&#45;&gt;CHANGE DIAGN</title>
<path fill="none" stroke="black" stroke-width="2.84" d="M614.49,-442.77C619.41,-437.29 624.64,-431.06 629,-425 655.26,-388.52 680.24,-342.68 694.84,-314.36"/>
<polygon fill="black" stroke="black" stroke-width="2.84" points="698.13,-315.62 699.55,-305.12 691.89,-312.44 698.13,-315.62"/>
<text text-anchor="middle" x="708.5" y="-370.3" font-family="Sans Not-Rotated 14" font-size="14.00"> &#160;&#160;&#160;&#160;&#160;&#160;&#160;&#160;&#160;&#160;&#160;&#160;&#160;&#160;&#160;</text>
</g>
<!-- NEW&#45;&gt;FIN -->
<g id="edge1" class="edge">
<title>NEW&#45;&gt;FIN</title>
<path fill="none" stroke="black" stroke-width="2.19" d="M570.75,-459.04C453.76,-454.57 0,-433.46 0,-375 0,-375 0,-375 0,-199 0,-117.47 295.51,-112.51 401.63,-113.35"/>
<polygon fill="black" stroke="black" stroke-width="2.19" points="401.83,-116.85 411.87,-113.46 401.91,-109.85 401.83,-116.85"/>
<text text-anchor="middle" x="36.5" y="-283.3" font-family="Sans Not-Rotated 14" font-size="14.00"> &#160;&#160;&#160;&#160;&#160;&#160;&#160;&#160;&#160;&#160;&#160;&#160;&#160;&#160;&#160;</text>
</g>
<!-- NEW&#45;&gt;end -->
<g id="edge7" class="edge">
<title>NEW&#45;&gt;end</title>
<path fill="none" stroke="black" stroke-dasharray="5,2" d="M625.05,-457.06C691.99,-449.04 860,-424.02 860,-375 860,-375 860,-375 860,-112 860,-56.95 670.94,-33.13 593.99,-25.72"/>
<polygon fill="black" stroke="black" points="594.19,-22.22 583.91,-24.78 593.55,-29.19 594.19,-22.22"/>
<text text-anchor="middle" x="896.5" y="-239.8" font-family="Sans Not-Rotated 14" font-size="14.00"> &#160;&#160;&#160;&#160;&#160;&#160;&#160;&#160;&#160;&#160;&#160;&#160;&#160;&#160;&#160;</text>
</g>
<!-- CHANGE DIAGN&#45;&gt;CODE OK -->
<g id="edge24" class="edge">
<title>CHANGE DIAGN&#45;&gt;CODE OK</title>
<path fill="none" stroke="black" stroke-width="1" d="M668.34,-268.8C637.28,-255.33 593.95,-236.54 560.77,-222.15"/>
<polygon fill="black" stroke="black" stroke-width="1" points="561.84,-218.8 551.27,-218.03 559.05,-225.22 561.84,-218.8"/>
<text text-anchor="middle" x="623.5" y="-239.8" font-family="Sans Not-Rotated 14" font-size="14.00"> </text>
</g>
<!-- CHANGE DIAGN&#45;&gt;CHANGE DIAGN -->
<g id="edge23" class="edge">
<title>CHANGE DIAGN&#45;&gt;CHANGE DIAGN</title>
<path fill="none" stroke="black" stroke-width="1.12" d="M772.68,-294.29C783.24,-293.24 790.5,-290.81 790.5,-287 790.5,-284.56 787.52,-282.68 782.6,-281.38"/>
<polygon fill="black" stroke="black" stroke-width="1.12" points="783.12,-277.91 772.68,-279.71 781.96,-284.82 783.12,-277.91"/>
<text text-anchor="middle" x="811" y="-283.3" font-family="Sans Not-Rotated 14" font-size="14.00"> &#160;&#160;&#160;&#160;&#160;&#160;&#160;&#160;</text>
</g>
<!-- CHANGE DIAGN&#45;&gt;FIN -->
<g id="edge22" class="edge">
<title>CHANGE DIAGN&#45;&gt;FIN</title>
<path fill="none" stroke="black" stroke-width="2.78" d="M713.15,-268.99C720.75,-240.09 730.94,-181.39 700,-149 673.46,-121.21 566.02,-136.61 528,-131 510.89,-128.48 492.07,-124.98 476.16,-121.82"/>
<polygon fill="black" stroke="black" stroke-width="2.78" points="476.66,-118.35 466.17,-119.81 475.27,-125.22 476.66,-118.35"/>
<text text-anchor="middle" x="757.5" y="-196.3" font-family="Sans Not-Rotated 14" font-size="14.00"> &#160;&#160;&#160;&#160;&#160;&#160;&#160;&#160;&#160;&#160;&#160;&#160;&#160;&#160;&#160;</text>
</g>
<!-- CHANGE DIAGN&#45;&gt;end -->
<g id="edge25" class="edge">
<title>CHANGE DIAGN&#45;&gt;end</title>
<path fill="none" stroke="black" stroke-dasharray="5,2" d="M744.62,-268.83C764.33,-257.44 786.83,-240.44 798,-218 805.13,-203.68 805.52,-196.13 798,-182 753.96,-99.23 645.53,-51.8 592.37,-32.8"/>
<polygon fill="black" stroke="black" points="593.41,-29.46 582.82,-29.48 591.11,-36.07 593.41,-29.46"/>
<text text-anchor="middle" x="787.5" y="-152.8" font-family="Sans Not-Rotated 14" font-size="14.00"> </text>
</g>
<!-- FIN&#45;&gt;RELEASE -->
<g id="edge8" class="edge">
<title>FIN&#45;&gt;RELEASE</title>
<path fill="none" stroke="black" stroke-width="4.05" d="M411.6,-114.54C347.96,-117.52 191.66,-135.22 140,-236 115.12,-284.54 177.05,-327.09 224.82,-351.42"/>
<polygon fill="black" stroke="black" stroke-width="4.05" points="223.32,-354.63 233.85,-355.89 226.46,-348.28 223.32,-354.63"/>
<text text-anchor="middle" x="196.5" y="-239.8" font-family="Sans Not-Rotated 14" font-size="14.00"> &#160;&#160;&#160;&#160;&#160;&#160;&#160;&#160;&#160;&#160;&#160;&#160;&#160;&#160;&#160;&#160;&#160;&#160;&#160;&#160;&#160;&#160;&#160;&#160;</text>
</g>
<!-- FIN&#45;&gt;CODE OK -->
<g id="edge10" class="edge">
<title>FIN&#45;&gt;CODE OK</title>
<path fill="none" stroke="black" stroke-width="1" d="M448.65,-131.01C454.74,-141.08 463.11,-153.81 472,-164 475.24,-167.71 478.87,-171.4 482.59,-174.92"/>
<polygon fill="black" stroke="black" stroke-width="1" points="480.48,-177.72 490.24,-181.83 485.17,-172.53 480.48,-177.72"/>
<text text-anchor="middle" x="474.5" y="-152.8" font-family="Sans Not-Rotated 14" font-size="14.00"> </text>
</g>
<!-- FIN&#45;&gt;FIN -->
<g id="edge9" class="edge">
<title>FIN&#45;&gt;FIN</title>
<path fill="none" stroke="black" stroke-width="1.01" d="M466.24,-120.87C476.02,-121.04 484,-118.41 484,-113 484,-109.7 481.04,-107.44 476.51,-106.21"/>
<polygon fill="black" stroke="black" stroke-width="1.01" points="476.55,-102.7 466.24,-105.13 475.82,-109.66 476.55,-102.7"/>
<text text-anchor="middle" x="493.5" y="-109.3" font-family="Sans Not-Rotated 14" font-size="14.00"> &#160;&#160;&#160;</text>
</g>
<!-- FIN&#45;&gt;end -->
<g id="edge11" class="edge">
<title>FIN&#45;&gt;end</title>
<path fill="none" stroke="black" stroke-dasharray="5,2" d="M451.81,-94.75C460.15,-84.34 471.74,-71.34 484,-62 498.62,-50.86 516.92,-41.52 532.12,-34.77"/>
<polygon fill="black" stroke="black" points="533.77,-37.87 541.58,-30.72 531.01,-31.44 533.77,-37.87"/>
<text text-anchor="middle" x="504.5" y="-65.8" font-family="Sans Not-Rotated 14" font-size="14.00"> &#160;&#160;&#160;&#160;&#160;&#160;&#160;&#160;</text>
</g>
<!-- start -->
<g id="node7" class="node">
<title>start</title>
<ellipse fill="#95d600" stroke="black" cx="598" cy="-557.3" rx="27.1" ry="27.1"/>
<text text-anchor="middle" x="598" y="-553.6" font-family="Sans Not-Rotated 14" font-size="14.00">start</text>
</g>
<!-- start&#45;&gt;NEW -->
<g id="edge29" class="edge">
<title>start&#45;&gt;NEW</title>
<path fill="none" stroke="black" stroke-dasharray="5,2" d="M598,-529.78C598,-517.1 598,-501.93 598,-489.17"/>
<polygon fill="black" stroke="black" points="601.5,-489.12 598,-479.12 594.5,-489.12 601.5,-489.12"/>
<text text-anchor="middle" x="654.5" y="-500.8" font-family="Sans Not-Rotated 14" font-size="14.00"> &#160;&#160;&#160;&#160;&#160;&#160;&#160;&#160;&#160;&#160;&#160;&#160;&#160;&#160;&#160;&#160;&#160;&#160;&#160;&#160;&#160;&#160;&#160;&#160;</text>
</g>
</g>
</svg>
