<?xml version="1.0" encoding="UTF-8" standalone="no"?>
<!DOCTYPE svg PUBLIC "-//W3C//DTD SVG 1.1//EN"
 "http://www.w3.org/Graphics/SVG/1.1/DTD/svg11.dtd">
<!-- Generated by graphviz version 3.0.0 (20220226.1711)
 -->
<!-- Pages: 1 -->
<svg width="468pt" height="593pt"
 viewBox="0.00 0.00 467.79 592.60" xmlns="http://www.w3.org/2000/svg" xmlns:xlink="http://www.w3.org/1999/xlink">
<g id="graph0" class="graph" transform="scale(1 1) rotate(0) translate(4 588.6)">
<polygon fill="white" stroke="transparent" points="-4,4 -4,-588.6 463.79,-588.6 463.79,4 -4,4"/>
<!-- Triage -->
<g id="node1" class="node">
<title>Triage</title>
<polygon fill="#ffffff" stroke="black" points="224.79,-479 164.79,-479 164.79,-443 224.79,-443 224.79,-479"/>
<text text-anchor="middle" x="194.79" y="-457.3" font-family="Sans Not-Rotated 14" font-size="14.00">Triage</text>
</g>
<!-- Register -->
<g id="node4" class="node">
<title>Register</title>
<polygon fill="#ffffff" stroke="black" points="231.79,-392 157.79,-392 157.79,-356 231.79,-356 231.79,-392"/>
<text text-anchor="middle" x="194.79" y="-370.3" font-family="Sans Not-Rotated 14" font-size="14.00">Register</text>
</g>
<!-- Triage&#45;&gt;Register -->
<g id="edge7" class="edge">
<title>Triage&#45;&gt;Register</title>
<path fill="none" stroke="black" stroke-width="5" d="M194.79,-442.8C194.79,-431.16 194.79,-415.55 194.79,-402.24"/>
<polygon fill="black" stroke="black" stroke-width="5" points="199.16,-402.18 194.79,-392.18 190.41,-402.18 199.16,-402.18"/>
<text text-anchor="middle" x="251.29" y="-413.8" font-family="Sans Not-Rotated 14" font-size="14.00"> &#160;&#160;&#160;&#160;&#160;&#160;&#160;&#160;&#160;&#160;&#160;&#160;&#160;&#160;&#160;&#160;&#160;&#160;&#160;&#160;&#160;&#160;&#160;&#160;</text>
</g>
<!-- Final Visit -->
<g id="node2" class="node">
<title>Final Visit</title>
<polygon fill="#ffffff" stroke="black" points="428.79,-218 344.79,-218 344.79,-182 428.79,-182 428.79,-218"/>
<text text-anchor="middle" x="386.79" y="-196.3" font-family="Sans Not-Rotated 14" font-size="14.00">Final Visit</text>
</g>
<!-- Prepare -->
<g id="node6" class="node">
<title>Prepare</title>
<polygon fill="#ffffff" stroke="black" points="422.29,-131 351.29,-131 351.29,-95 422.29,-95 422.29,-131"/>
<text text-anchor="middle" x="386.79" y="-109.3" font-family="Sans Not-Rotated 14" font-size="14.00">Prepare</text>
</g>
<!-- Final Visit&#45;&gt;Prepare -->
<g id="edge8" class="edge">
<title>Final Visit&#45;&gt;Prepare</title>
<path fill="none" stroke="black" stroke-width="1.96" d="M386.79,-181.8C386.79,-170.16 386.79,-154.55 386.79,-141.24"/>
<polygon fill="black" stroke="black" stroke-width="1.96" points="390.29,-141.18 386.79,-131.18 383.29,-141.18 390.29,-141.18"/>
<text text-anchor="middle" x="423.29" y="-152.8" font-family="Sans Not-Rotated 14" font-size="14.00"> &#160;&#160;&#160;&#160;&#160;&#160;&#160;&#160;&#160;&#160;&#160;&#160;&#160;&#160;&#160;</text>
</g>
<!-- Visit -->
<g id="node3" class="node">
<title>Visit</title>
<polygon fill="#ffffff" stroke="black" points="77.79,-218 23.79,-218 23.79,-182 77.79,-182 77.79,-218"/>
<text text-anchor="middle" x="50.79" y="-196.3" font-family="Sans Not-Rotated 14" font-size="14.00">Visit</text>
</g>
<!-- Check -->
<g id="node7" class="node">
<title>Check</title>
<polygon fill="#1d2559" stroke="black" points="224.29,-305 165.29,-305 165.29,-269 224.29,-269 224.29,-305"/>
<text text-anchor="middle" x="194.79" y="-283.3" font-family="Sans Not-Rotated 14" font-size="14.00" fill="white">Check</text>
</g>
<!-- Visit&#45;&gt;Check -->
<g id="edge2" class="edge">
<title>Visit&#45;&gt;Check</title>
<path fill="none" stroke="black" stroke-width="1.83" d="M68.7,-218.02C80.34,-228.46 96.2,-241.59 111.79,-251 125.39,-259.2 141.26,-266.41 155.46,-272.11"/>
<polygon fill="black" stroke="black" stroke-width="1.83" points="154.39,-275.45 164.98,-275.82 156.93,-268.93 154.39,-275.45"/>
<text text-anchor="middle" x="148.29" y="-239.8" font-family="Sans Not-Rotated 14" font-size="14.00"> &#160;&#160;&#160;&#160;&#160;&#160;&#160;&#160;&#160;&#160;&#160;&#160;&#160;&#160;&#160;</text>
</g>
<!-- Register&#45;&gt;Check -->
<g id="edge10" class="edge">
<title>Register&#45;&gt;Check</title>
<path fill="none" stroke="black" d="M194.79,-355.8C194.79,-344.16 194.79,-328.55 194.79,-315.24"/>
<polygon fill="black" stroke="black" points="198.29,-315.18 194.79,-305.18 191.29,-315.18 198.29,-315.18"/>
<text text-anchor="middle" x="231.29" y="-326.8" font-family="Sans Not-Rotated 14" font-size="14.00"> &#160;&#160;&#160;&#160;&#160;&#160;&#160;&#160;&#160;&#160;&#160;&#160;&#160;&#160;&#160;</text>
</g>
<!-- X&#45;Ray -->
<g id="node5" class="node">
<title>X&#45;Ray</title>
<polygon fill="#ffffff" stroke="black" points="272.29,-218 213.29,-218 213.29,-182 272.29,-182 272.29,-218"/>
<text text-anchor="middle" x="242.79" y="-196.3" font-family="Sans Not-Rotated 14" font-size="14.00">X&#45;Ray</text>
</g>
<!-- X&#45;Ray&#45;&gt;Check -->
<g id="edge3" class="edge">
<title>X&#45;Ray&#45;&gt;Check</title>
<path fill="none" stroke="black" stroke-width="2.67" d="M260.81,-218.06C268.99,-227.92 275.49,-240.42 268.79,-251 260.96,-263.37 247.45,-271.45 234.1,-276.69"/>
<polygon fill="black" stroke="black" stroke-width="2.67" points="232.79,-273.44 224.49,-280.03 235.09,-280.05 232.79,-273.44"/>
<text text-anchor="middle" x="308.29" y="-239.8" font-family="Sans Not-Rotated 14" font-size="14.00"> &#160;&#160;&#160;&#160;&#160;&#160;&#160;&#160;&#160;&#160;&#160;&#160;&#160;&#160;&#160;</text>
</g>
<!-- end -->
<g id="node9" class="node">
<title>end</title>
<ellipse fill="#ea4126" stroke="black" cx="386.79" cy="-22" rx="18" ry="18"/>
<ellipse fill="none" stroke="black" cx="386.79" cy="-22" rx="22" ry="22"/>
</g>
<!-- Prepare&#45;&gt;end -->
<g id="edge9" class="edge">
<title>Prepare&#45;&gt;end</title>
<path fill="none" stroke="black" stroke-dasharray="5,2" d="M386.79,-94.84C386.79,-83.44 386.79,-68.13 386.79,-54.58"/>
<polygon fill="black" stroke="black" points="390.29,-54.19 386.79,-44.19 383.29,-54.19 390.29,-54.19"/>
<text text-anchor="middle" x="423.29" y="-65.8" font-family="Sans Not-Rotated 14" font-size="14.00"> &#160;&#160;&#160;&#160;&#160;&#160;&#160;&#160;&#160;&#160;&#160;&#160;&#160;&#160;&#160;</text>
</g>
<!-- Check&#45;&gt;Final Visit -->
<g id="edge6" class="edge">
<title>Check&#45;&gt;Final Visit</title>
<path fill="none" stroke="black" stroke-width="1.57" d="M224.32,-285.2C257.13,-283.04 310.53,-275.64 348.79,-251 358.14,-244.98 366.07,-235.82 372.23,-226.97"/>
<polygon fill="black" stroke="black" stroke-width="1.57" points="375.3,-228.67 377.79,-218.37 369.42,-224.87 375.3,-228.67"/>
<text text-anchor="middle" x="401.29" y="-239.8" font-family="Sans Not-Rotated 14" font-size="14.00"> &#160;&#160;&#160;&#160;&#160;&#160;&#160;&#160;&#160;&#160;&#160;&#160;&#160;&#160;&#160;</text>
</g>
<!-- Check&#45;&gt;Visit -->
<g id="edge1" class="edge">
<title>Check&#45;&gt;Visit</title>
<path fill="none" stroke="black" stroke-width="2.52" d="M165.04,-285.02C116.58,-282.73 23.97,-275.21 3.79,-251 -4.82,-240.66 3.31,-229.72 15.09,-220.71"/>
<polygon fill="black" stroke="black" stroke-width="2.52" points="17.41,-223.36 23.67,-214.81 13.44,-217.59 17.41,-223.36"/>
<text text-anchor="middle" x="40.29" y="-239.8" font-family="Sans Not-Rotated 14" font-size="14.00"> &#160;&#160;&#160;&#160;&#160;&#160;&#160;&#160;&#160;&#160;&#160;&#160;&#160;&#160;&#160;</text>
</g>
<!-- Check&#45;&gt;X&#45;Ray -->
<g id="edge4" class="edge">
<title>Check&#45;&gt;X&#45;Ray</title>
<path fill="none" stroke="black" stroke-width="1.4" d="M189.5,-268.86C187.38,-258.74 186.52,-246 191.79,-236 194.98,-229.94 199.75,-224.72 205.12,-220.3"/>
<polygon fill="black" stroke="black" stroke-width="1.4" points="207.23,-223.1 213.29,-214.41 203.13,-217.42 207.23,-223.1"/>
<text text-anchor="middle" x="228.29" y="-239.8" font-family="Sans Not-Rotated 14" font-size="14.00"> &#160;&#160;&#160;&#160;&#160;&#160;&#160;&#160;&#160;&#160;&#160;&#160;&#160;&#160;&#160;</text>
</g>
<!-- Check&#45;&gt;Check -->
<g id="edge11" class="edge">
<title>Check&#45;&gt;Check</title>
<path fill="none" stroke="black" stroke-width="1.62" d="M224.48,-294.88C234.37,-294.88 242.29,-292.25 242.29,-287 242.29,-283.72 239.2,-281.46 234.46,-280.23"/>
<polygon fill="black" stroke="black" stroke-width="1.62" points="234.8,-276.75 224.48,-279.12 234.03,-283.71 234.8,-276.75"/>
<text text-anchor="middle" x="278.79" y="-283.3" font-family="Sans Not-Rotated 14" font-size="14.00"> &#160;&#160;&#160;&#160;&#160;&#160;&#160;&#160;&#160;&#160;&#160;&#160;&#160;&#160;&#160;</text>
</g>
<!-- start -->
<g id="node8" class="node">
<title>start</title>
<ellipse fill="#95d600" stroke="black" cx="194.79" cy="-557.3" rx="27.1" ry="27.1"/>
<text text-anchor="middle" x="194.79" y="-553.6" font-family="Sans Not-Rotated 14" font-size="14.00">start</text>
</g>
<!-- start&#45;&gt;Triage -->
<g id="edge5" class="edge">
<title>start&#45;&gt;Triage</title>
<path fill="none" stroke="black" stroke-dasharray="5,2" d="M194.79,-529.78C194.79,-517.1 194.79,-501.93 194.79,-489.17"/>
<polygon fill="black" stroke="black" points="198.29,-489.12 194.79,-479.12 191.29,-489.12 198.29,-489.12"/>
<text text-anchor="middle" x="251.29" y="-500.8" font-family="Sans Not-Rotated 14" font-size="14.00"> &#160;&#160;&#160;&#160;&#160;&#160;&#160;&#160;&#160;&#160;&#160;&#160;&#160;&#160;&#160;&#160;&#160;&#160;&#160;&#160;&#160;&#160;&#160;&#160;</text>
</g>
</g>
</svg>
