<?xml version="1.0" encoding="UTF-8" standalone="no"?>
<!DOCTYPE svg PUBLIC "-//W3C//DTD SVG 1.1//EN"
 "http://www.w3.org/Graphics/SVG/1.1/DTD/svg11.dtd">
<!-- Generated by graphviz version 3.0.0 (20220226.1711)
 -->
<!-- Pages: 1 -->
<svg width="749pt" height="680pt"
 viewBox="0.00 0.00 748.50 679.60" xmlns="http://www.w3.org/2000/svg" xmlns:xlink="http://www.w3.org/1999/xlink">
<g id="graph0" class="graph" transform="scale(1 1) rotate(0) translate(4 675.6)">
<polygon fill="white" stroke="transparent" points="-4,4 -4,-675.6 744.5,-675.6 744.5,4 -4,4"/>
<!-- Triage -->
<g id="node1" class="node">
<title>Triage</title>
<polygon fill="#ffffff" stroke="black" points="596.5,-566 536.5,-566 536.5,-530 596.5,-530 596.5,-566"/>
<text text-anchor="middle" x="566.5" y="-544.3" font-family="Sans Not-Rotated 14" font-size="14.00">Triage</text>
</g>
<!-- Register -->
<g id="node4" class="node">
<title>Register</title>
<polygon fill="#ffffff" stroke="black" points="603.5,-479 529.5,-479 529.5,-443 603.5,-443 603.5,-479"/>
<text text-anchor="middle" x="566.5" y="-457.3" font-family="Sans Not-Rotated 14" font-size="14.00">Register</text>
</g>
<!-- Triage&#45;&gt;Register -->
<g id="edge9" class="edge">
<title>Triage&#45;&gt;Register</title>
<path fill="none" stroke="black" stroke-width="5" d="M566.5,-529.8C566.5,-518.16 566.5,-502.55 566.5,-489.24"/>
<polygon fill="black" stroke="black" stroke-width="5" points="570.88,-489.18 566.5,-479.18 562.13,-489.18 570.88,-489.18"/>
<text text-anchor="middle" x="623" y="-500.8" font-family="Sans Not-Rotated 14" font-size="14.00"> &#160;&#160;&#160;&#160;&#160;&#160;&#160;&#160;&#160;&#160;&#160;&#160;&#160;&#160;&#160;&#160;&#160;&#160;&#160;&#160;&#160;&#160;&#160;&#160;</text>
</g>
<!-- Final Visit -->
<g id="node2" class="node">
<title>Final Visit</title>
<polygon fill="#ffffff" stroke="black" points="226.5,-305 142.5,-305 142.5,-269 226.5,-269 226.5,-305"/>
<text text-anchor="middle" x="184.5" y="-283.3" font-family="Sans Not-Rotated 14" font-size="14.00">Final Visit</text>
</g>
<!-- Prepare -->
<g id="node6" class="node">
<title>Prepare</title>
<polygon fill="#ffffff" stroke="black" points="71,-218 0,-218 0,-182 71,-182 71,-218"/>
<text text-anchor="middle" x="35.5" y="-196.3" font-family="Sans Not-Rotated 14" font-size="14.00">Prepare</text>
</g>
<!-- Final Visit&#45;&gt;Prepare -->
<g id="edge11" class="edge">
<title>Final Visit&#45;&gt;Prepare</title>
<path fill="none" stroke="black" stroke-width="3.29" d="M142.5,-280.88C105.6,-275.48 55.77,-265.7 42.5,-251 36.97,-244.87 34.56,-236.48 33.72,-228.32"/>
<polygon fill="black" stroke="black" stroke-width="3.29" points="37.22,-228.18 33.39,-218.3 30.23,-228.41 37.22,-228.18"/>
<text text-anchor="middle" x="79" y="-239.8" font-family="Sans Not-Rotated 14" font-size="14.00"> &#160;&#160;&#160;&#160;&#160;&#160;&#160;&#160;&#160;&#160;&#160;&#160;&#160;&#160;&#160;</text>
</g>
<!-- Check -->
<g id="node7" class="node">
<title>Check</title>
<polygon fill="#1d2559" stroke="black" points="255,-131 196,-131 196,-95 255,-95 255,-131"/>
<text text-anchor="middle" x="225.5" y="-109.3" font-family="Sans Not-Rotated 14" font-size="14.00" fill="white">Check</text>
</g>
<!-- Final Visit&#45;&gt;Check -->
<g id="edge13" class="edge">
<title>Final Visit&#45;&gt;Check</title>
<path fill="none" stroke="black" stroke-width="2.22" d="M165.52,-268.99C143.73,-247.38 113.52,-209.58 134.5,-182 152.65,-158.14 176.2,-182.87 199.5,-164 207.01,-157.92 212.6,-149.08 216.63,-140.52"/>
<polygon fill="black" stroke="black" stroke-width="2.22" points="219.92,-141.72 220.53,-131.14 213.46,-139.03 219.92,-141.72"/>
<text text-anchor="middle" x="171" y="-196.3" font-family="Sans Not-Rotated 14" font-size="14.00"> &#160;&#160;&#160;&#160;&#160;&#160;&#160;&#160;&#160;&#160;&#160;&#160;&#160;&#160;&#160;</text>
</g>
<!-- Visit -->
<g id="node3" class="node">
<title>Visit</title>
<polygon fill="#ffffff" stroke="black" points="454.5,-392 400.5,-392 400.5,-356 454.5,-356 454.5,-392"/>
<text text-anchor="middle" x="427.5" y="-370.3" font-family="Sans Not-Rotated 14" font-size="14.00">Visit</text>
</g>
<!-- Visit&#45;&gt;Final Visit -->
<g id="edge7" class="edge">
<title>Visit&#45;&gt;Final Visit</title>
<path fill="none" stroke="black" stroke-width="2.09" d="M400.32,-371.23C364.94,-368.12 301.82,-359.77 252.5,-338 237.58,-331.41 222.78,-321.1 210.81,-311.55"/>
<polygon fill="black" stroke="black" stroke-width="2.09" points="212.95,-308.78 203.01,-305.11 208.5,-314.18 212.95,-308.78"/>
<text text-anchor="middle" x="289" y="-326.8" font-family="Sans Not-Rotated 14" font-size="14.00"> &#160;&#160;&#160;&#160;&#160;&#160;&#160;&#160;&#160;&#160;&#160;&#160;&#160;&#160;&#160;</text>
</g>
<!-- Visit&#45;&gt;Check -->
<g id="edge2" class="edge">
<title>Visit&#45;&gt;Check</title>
<path fill="none" stroke="black" stroke-width="3.21" d="M435.03,-355.75C437.3,-350.15 439.68,-343.88 441.5,-338 451.93,-304.4 489.76,-210.03 468.5,-182 443.97,-149.67 327.66,-128.52 265.27,-119.3"/>
<polygon fill="black" stroke="black" stroke-width="3.21" points="265.41,-115.78 255.01,-117.82 264.41,-122.71 265.41,-115.78"/>
<text text-anchor="middle" x="509" y="-239.8" font-family="Sans Not-Rotated 14" font-size="14.00"> &#160;&#160;&#160;&#160;&#160;&#160;&#160;&#160;&#160;&#160;&#160;&#160;&#160;&#160;&#160;</text>
</g>
<!-- Register&#45;&gt;Visit -->
<g id="edge17" class="edge">
<title>Register&#45;&gt;Visit</title>
<path fill="none" stroke="black" d="M529.42,-448.64C513.38,-442.84 494.81,-434.9 479.5,-425 468.49,-417.88 457.79,-408.22 448.99,-399.29"/>
<polygon fill="black" stroke="black" points="451.5,-396.86 442.07,-392.03 446.44,-401.69 451.5,-396.86"/>
<text text-anchor="middle" x="516" y="-413.8" font-family="Sans Not-Rotated 14" font-size="14.00"> &#160;&#160;&#160;&#160;&#160;&#160;&#160;&#160;&#160;&#160;&#160;&#160;&#160;&#160;&#160;</text>
</g>
<!-- X&#45;Ray -->
<g id="node5" class="node">
<title>X&#45;Ray</title>
<polygon fill="#ffffff" stroke="black" points="377,-40 318,-40 318,-4 377,-4 377,-40"/>
<text text-anchor="middle" x="347.5" y="-18.3" font-family="Sans Not-Rotated 14" font-size="14.00">X&#45;Ray</text>
</g>
<!-- Register&#45;&gt;X&#45;Ray -->
<g id="edge10" class="edge">
<title>Register&#45;&gt;X&#45;Ray</title>
<path fill="none" stroke="black" stroke-width="2.33" d="M603.54,-446.3C632.36,-432.96 667.5,-409.61 667.5,-375 667.5,-375 667.5,-375 667.5,-112 667.5,-54.43 472.83,-32.52 387.16,-25.67"/>
<polygon fill="black" stroke="black" stroke-width="2.33" points="387.27,-22.17 377.03,-24.89 386.73,-29.15 387.27,-22.17"/>
<text text-anchor="middle" x="704" y="-239.8" font-family="Sans Not-Rotated 14" font-size="14.00"> &#160;&#160;&#160;&#160;&#160;&#160;&#160;&#160;&#160;&#160;&#160;&#160;&#160;&#160;&#160;</text>
</g>
<!-- Register&#45;&gt;Check -->
<g id="edge12" class="edge">
<title>Register&#45;&gt;Check</title>
<path fill="none" stroke="black" stroke-width="2.75" d="M566.5,-442.74C566.5,-425.57 566.5,-398.46 566.5,-375 566.5,-375 566.5,-375 566.5,-199 566.5,-137.52 355.19,-120.16 265.26,-115.56"/>
<polygon fill="black" stroke="black" stroke-width="2.75" points="265.32,-112.06 255.16,-115.07 264.98,-119.05 265.32,-112.06"/>
<text text-anchor="middle" x="603" y="-283.3" font-family="Sans Not-Rotated 14" font-size="14.00"> &#160;&#160;&#160;&#160;&#160;&#160;&#160;&#160;&#160;&#160;&#160;&#160;&#160;&#160;&#160;</text>
</g>
<!-- X&#45;Ray&#45;&gt;Visit -->
<g id="edge8" class="edge">
<title>X&#45;Ray&#45;&gt;Visit</title>
<path fill="none" stroke="black" stroke-width="1.47" d="M363.38,-40.15C368.58,-46.59 373.94,-54.23 377.5,-62 422.15,-159.4 427.74,-289.89 427.91,-345.76"/>
<polygon fill="black" stroke="black" stroke-width="1.47" points="424.41,-345.9 427.88,-355.91 431.41,-345.92 424.41,-345.9"/>
<text text-anchor="middle" x="456" y="-196.3" font-family="Sans Not-Rotated 14" font-size="14.00"> &#160;&#160;&#160;&#160;&#160;&#160;&#160;&#160;&#160;&#160;&#160;&#160;&#160;&#160;&#160;</text>
</g>
<!-- X&#45;Ray&#45;&gt;Check -->
<g id="edge3" class="edge">
<title>X&#45;Ray&#45;&gt;Check</title>
<path fill="none" stroke="black" stroke-width="3.69" d="M327.8,-40.23C314.95,-51.18 297.62,-65.44 281.5,-77 275.61,-81.23 269.21,-85.5 262.91,-89.54"/>
<polygon fill="black" stroke="black" stroke-width="3.69" points="261.04,-86.58 254.45,-94.88 264.77,-92.51 261.04,-86.58"/>
<text text-anchor="middle" x="337" y="-65.8" font-family="Sans Not-Rotated 14" font-size="14.00"> &#160;&#160;&#160;&#160;&#160;&#160;&#160;&#160;&#160;&#160;&#160;&#160;&#160;&#160;&#160;</text>
</g>
<!-- Prepare&#45;&gt;Check -->
<g id="edge14" class="edge">
<title>Prepare&#45;&gt;Check</title>
<path fill="none" stroke="black" stroke-width="1.61" d="M28.07,-181.87C24.72,-171.25 23,-157.97 30.5,-149 40.37,-137.2 131.74,-124.79 185.84,-118.39"/>
<polygon fill="black" stroke="black" stroke-width="1.61" points="186.27,-121.87 195.8,-117.23 185.46,-114.91 186.27,-121.87"/>
<text text-anchor="middle" x="67" y="-152.8" font-family="Sans Not-Rotated 14" font-size="14.00"> &#160;&#160;&#160;&#160;&#160;&#160;&#160;&#160;&#160;&#160;&#160;&#160;&#160;&#160;&#160;</text>
</g>
<!-- end -->
<g id="node9" class="node">
<title>end</title>
<ellipse fill="#ea4126" stroke="black" cx="30.5" cy="-22" rx="18" ry="18"/>
<ellipse fill="none" stroke="black" cx="30.5" cy="-22" rx="22" ry="22"/>
</g>
<!-- Prepare&#45;&gt;end -->
<g id="edge15" class="edge">
<title>Prepare&#45;&gt;end</title>
<path fill="none" stroke="black" stroke-dasharray="5,2" d="M27.17,-181.95C24.86,-176.36 22.66,-170.04 21.5,-164 14.27,-126.46 19.18,-82.37 24.13,-53.61"/>
<polygon fill="black" stroke="black" points="27.57,-54.22 25.93,-43.76 20.69,-52.96 27.57,-54.22"/>
<text text-anchor="middle" x="56" y="-109.3" font-family="Sans Not-Rotated 14" font-size="14.00"> &#160;&#160;&#160;&#160;&#160;&#160;&#160;&#160;&#160;&#160;&#160;&#160;&#160;&#160;&#160;</text>
</g>
<!-- Check&#45;&gt;Final Visit -->
<g id="edge6" class="edge">
<title>Check&#45;&gt;Final Visit</title>
<path fill="none" stroke="black" stroke-width="3.07" d="M226.41,-131.24C226.6,-140.93 226.33,-153.22 224.5,-164 218.75,-197.8 205.47,-235.02 195.79,-259.36"/>
<polygon fill="black" stroke="black" stroke-width="3.07" points="192.54,-258.06 192.02,-268.64 199.02,-260.69 192.54,-258.06"/>
<text text-anchor="middle" x="258" y="-196.3" font-family="Sans Not-Rotated 14" font-size="14.00"> &#160;&#160;&#160;&#160;&#160;&#160;&#160;&#160;&#160;&#160;&#160;&#160;&#160;&#160;&#160;</text>
</g>
<!-- Check&#45;&gt;Visit -->
<g id="edge1" class="edge">
<title>Check&#45;&gt;Visit</title>
<path fill="none" stroke="black" stroke-width="3.61" d="M246.79,-131.1C262.2,-144.1 282.96,-162.93 298.5,-182 321.18,-209.83 320.73,-221.03 340.5,-251 362.95,-285.04 390.53,-323.13 408.53,-347.56"/>
<polygon fill="black" stroke="black" stroke-width="3.61" points="405.95,-349.94 414.71,-355.9 411.57,-345.78 405.95,-349.94"/>
<text text-anchor="middle" x="377" y="-239.8" font-family="Sans Not-Rotated 14" font-size="14.00"> &#160;&#160;&#160;&#160;&#160;&#160;&#160;&#160;&#160;&#160;&#160;&#160;&#160;&#160;&#160;</text>
</g>
<!-- Check&#45;&gt;X&#45;Ray -->
<g id="edge4" class="edge">
<title>Check&#45;&gt;X&#45;Ray</title>
<path fill="none" stroke="black" stroke-width="2.98" d="M209.85,-94.65C202.6,-84.47 197.07,-71.73 204.5,-62 216.99,-45.64 269.71,-34.5 307.5,-28.44"/>
<polygon fill="black" stroke="black" stroke-width="2.98" points="308.37,-31.85 317.72,-26.87 307.3,-24.93 308.37,-31.85"/>
<text text-anchor="middle" x="241" y="-65.8" font-family="Sans Not-Rotated 14" font-size="14.00"> &#160;&#160;&#160;&#160;&#160;&#160;&#160;&#160;&#160;&#160;&#160;&#160;&#160;&#160;&#160;</text>
</g>
<!-- Check&#45;&gt;Prepare -->
<g id="edge18" class="edge">
<title>Check&#45;&gt;Prepare</title>
<path fill="none" stroke="black" stroke-width="2.22" d="M195.73,-122.49C175.67,-128.69 148.89,-137.94 126.5,-149 115.56,-154.41 114.05,-157.87 103.5,-164 95.83,-168.46 87.53,-172.98 79.45,-177.22"/>
<polygon fill="black" stroke="black" stroke-width="2.22" points="77.73,-174.16 70.46,-181.87 80.95,-180.38 77.73,-174.16"/>
<text text-anchor="middle" x="163" y="-152.8" font-family="Sans Not-Rotated 14" font-size="14.00"> &#160;&#160;&#160;&#160;&#160;&#160;&#160;&#160;&#160;&#160;&#160;&#160;&#160;&#160;&#160;</text>
</g>
<!-- Check&#45;&gt;Check -->
<g id="edge19" class="edge">
<title>Check&#45;&gt;Check</title>
<path fill="none" stroke="black" stroke-width="3.1" d="M255.19,-120.88C265.08,-120.88 273,-118.25 273,-113 273,-109.72 269.91,-107.46 265.17,-106.23"/>
<polygon fill="black" stroke="black" stroke-width="3.1" points="265.51,-102.75 255.19,-105.12 264.74,-109.71 265.51,-102.75"/>
<text text-anchor="middle" x="309.5" y="-109.3" font-family="Sans Not-Rotated 14" font-size="14.00"> &#160;&#160;&#160;&#160;&#160;&#160;&#160;&#160;&#160;&#160;&#160;&#160;&#160;&#160;&#160;</text>
</g>
<!-- Check&#45;&gt;end -->
<g id="edge16" class="edge">
<title>Check&#45;&gt;end</title>
<path fill="none" stroke="black" stroke-dasharray="5,2" d="M195.76,-103.31C175.33,-96.96 147.8,-87.62 124.5,-77 101.06,-66.32 75.81,-51.62 57.39,-40.26"/>
<polygon fill="black" stroke="black" points="59.02,-37.15 48.68,-34.82 55.31,-43.08 59.02,-37.15"/>
<text text-anchor="middle" x="161" y="-65.8" font-family="Sans Not-Rotated 14" font-size="14.00"> &#160;&#160;&#160;&#160;&#160;&#160;&#160;&#160;&#160;&#160;&#160;&#160;&#160;&#160;&#160;</text>
</g>
<!-- start -->
<g id="node8" class="node">
<title>start</title>
<ellipse fill="#95d600" stroke="black" cx="566.5" cy="-644.3" rx="27.1" ry="27.1"/>
<text text-anchor="middle" x="566.5" y="-640.6" font-family="Sans Not-Rotated 14" font-size="14.00">start</text>
</g>
<!-- start&#45;&gt;Triage -->
<g id="edge5" class="edge">
<title>start&#45;&gt;Triage</title>
<path fill="none" stroke="black" stroke-dasharray="5,2" d="M566.5,-616.78C566.5,-604.1 566.5,-588.93 566.5,-576.17"/>
<polygon fill="black" stroke="black" points="570,-576.12 566.5,-566.12 563,-576.12 570,-576.12"/>
<text text-anchor="middle" x="623" y="-587.8" font-family="Sans Not-Rotated 14" font-size="14.00"> &#160;&#160;&#160;&#160;&#160;&#160;&#160;&#160;&#160;&#160;&#160;&#160;&#160;&#160;&#160;&#160;&#160;&#160;&#160;&#160;&#160;&#160;&#160;&#160;</text>
</g>
</g>
</svg>
