<?xml version="1.0" encoding="UTF-8" standalone="no"?>
<!DOCTYPE svg PUBLIC "-//W3C//DTD SVG 1.1//EN"
 "http://www.w3.org/Graphics/SVG/1.1/DTD/svg11.dtd">
<!-- Generated by graphviz version 3.0.0 (20220226.1711)
 -->
<!-- Pages: 1 -->
<svg width="574pt" height="854pt"
 viewBox="0.00 0.00 573.50 853.60" xmlns="http://www.w3.org/2000/svg" xmlns:xlink="http://www.w3.org/1999/xlink">
<g id="graph0" class="graph" transform="scale(1 1) rotate(0) translate(4 849.6)">
<polygon fill="white" stroke="transparent" points="-4,4 -4,-849.6 569.5,-849.6 569.5,4 -4,4"/>
<!-- Program change operator -->
<g id="node1" class="node">
<title>Program change operator</title>
<polygon fill="#ffffff" stroke="black" points="271,-845.6 78,-845.6 78,-809.6 271,-809.6 271,-845.6"/>
<text text-anchor="middle" x="174.5" y="-823.9" font-family="Sans Not-Rotated 14" font-size="14.00">Program change operator</text>
</g>
<!-- Yellow zone Therapy control operator -->
<g id="node6" class="node">
<title>Yellow zone Therapy control operator</title>
<polygon fill="#e0ddf4" stroke="black" points="565.5,-749.3 287.5,-749.3 287.5,-713.3 565.5,-713.3 565.5,-749.3"/>
<text text-anchor="middle" x="426.5" y="-727.6" font-family="Sans Not-Rotated 14" font-size="14.00">Yellow zone Therapy control operator</text>
</g>
<!-- Program change operator&#45;&gt;Yellow zone Therapy control operator -->
<g id="edge1" class="edge">
<title>Program change operator&#45;&gt;Yellow zone Therapy control operator</title>
<path fill="none" stroke="black" stroke-width="1.01" d="M220.14,-809.52C262.64,-793.61 326.09,-769.87 371.4,-752.92"/>
<polygon fill="black" stroke="black" stroke-width="1.01" points="372.64,-756.19 380.78,-749.41 370.19,-749.63 372.64,-756.19"/>
<text text-anchor="middle" x="317" y="-780.4" font-family="Sans Not-Rotated 14" font-size="14.00"> &#160;&#160;&#160;</text>
</g>
<!-- Red zone operator -->
<g id="node2" class="node">
<title>Red zone operator</title>
<polygon fill="#1d2559" stroke="black" points="343,-653 198,-653 198,-617 343,-617 343,-653"/>
<text text-anchor="middle" x="270.5" y="-631.3" font-family="Sans Not-Rotated 14" font-size="14.00" fill="white">Red zone operator</text>
</g>
<!-- Red zone doctor -->
<g id="node5" class="node">
<title>Red zone doctor</title>
<polygon fill="#1f3b98" stroke="black" points="434,-566 305,-566 305,-530 434,-530 434,-566"/>
<text text-anchor="middle" x="369.5" y="-544.3" font-family="Sans Not-Rotated 14" font-size="14.00" fill="white">Red zone doctor</text>
</g>
<!-- Red zone operator&#45;&gt;Red zone doctor -->
<g id="edge7" class="edge">
<title>Red zone operator&#45;&gt;Red zone doctor</title>
<path fill="none" stroke="black" stroke-width="5" d="M264.37,-616.75C261.84,-606.34 260.83,-593.34 267.5,-584 271.61,-578.24 282.2,-572.82 295.08,-568.06"/>
<polygon fill="black" stroke="black" stroke-width="5" points="296.77,-572.1 304.8,-564.71 293.92,-563.83 296.77,-572.1"/>
<text text-anchor="middle" x="304" y="-587.8" font-family="Sans Not-Rotated 14" font-size="14.00"> &#160;&#160;&#160;&#160;&#160;&#160;&#160;&#160;&#160;&#160;&#160;&#160;&#160;&#160;&#160;</text>
</g>
<!-- Red zone doctor FD -->
<g id="node3" class="node">
<title>Red zone doctor FD</title>
<polygon fill="#1d2559" stroke="black" points="435,-479 282,-479 282,-443 435,-443 435,-479"/>
<text text-anchor="middle" x="358.5" y="-457.3" font-family="Sans Not-Rotated 14" font-size="14.00" fill="white">Red zone doctor FD</text>
</g>
<!-- Red zone doctor FD&#45;&gt;Red zone operator -->
<g id="edge13" class="edge">
<title>Red zone doctor FD&#45;&gt;Red zone operator</title>
<path fill="none" stroke="black" stroke-width="3.43" d="M291.98,-479C265.94,-489.27 238.71,-505.31 223.5,-530 207.67,-555.69 227.31,-587.62 245.82,-609.28"/>
<polygon fill="black" stroke="black" stroke-width="3.43" points="243.24,-611.64 252.52,-616.76 248.46,-606.97 243.24,-611.64"/>
<text text-anchor="middle" x="260" y="-544.3" font-family="Sans Not-Rotated 14" font-size="14.00"> &#160;&#160;&#160;&#160;&#160;&#160;&#160;&#160;&#160;&#160;&#160;&#160;&#160;&#160;&#160;</text>
</g>
<!-- Red zone doctor FD&#45;&gt;Red zone doctor FD -->
<g id="edge18" class="edge">
<title>Red zone doctor FD&#45;&gt;Red zone doctor FD</title>
<path fill="none" stroke="black" stroke-width="2.54" d="M435.25,-468.03C445.89,-466.87 453,-464.53 453,-461 453,-458.74 450.08,-456.97 445.19,-455.68"/>
<polygon fill="black" stroke="black" stroke-width="2.54" points="445.7,-452.22 435.25,-453.97 444.52,-459.12 445.7,-452.22"/>
<text text-anchor="middle" x="489.5" y="-457.3" font-family="Sans Not-Rotated 14" font-size="14.00"> &#160;&#160;&#160;&#160;&#160;&#160;&#160;&#160;&#160;&#160;&#160;&#160;&#160;&#160;&#160;</text>
</g>
<!-- Red zone doctor FD&#45;&gt;Yellow zone Therapy control operator -->
<g id="edge8" class="edge">
<title>Red zone doctor FD&#45;&gt;Yellow zone Therapy control operator</title>
<path fill="none" stroke="black" stroke-width="1.19" d="M421.24,-479.14C429.13,-483.75 436.26,-489.6 441.5,-497 485.86,-559.64 456.49,-657.06 438.12,-703.68"/>
<polygon fill="black" stroke="black" stroke-width="1.19" points="434.82,-702.5 434.28,-713.09 441.3,-705.15 434.82,-702.5"/>
<text text-anchor="middle" x="485" y="-587.8" font-family="Sans Not-Rotated 14" font-size="14.00"> &#160;&#160;&#160;&#160;&#160;&#160;&#160;&#160;</text>
</g>
<!-- Yellow zone doctor -->
<g id="node10" class="node">
<title>Yellow zone doctor</title>
<polygon fill="#7d7fd2" stroke="black" points="382,-392 233,-392 233,-356 382,-356 382,-392"/>
<text text-anchor="middle" x="307.5" y="-370.3" font-family="Sans Not-Rotated 14" font-size="14.00">Yellow zone doctor</text>
</g>
<!-- Red zone doctor FD&#45;&gt;Yellow zone doctor -->
<g id="edge11" class="edge">
<title>Red zone doctor FD&#45;&gt;Yellow zone doctor</title>
<path fill="none" stroke="black" stroke-width="2.04" d="M348.18,-442.8C340.99,-430.82 331.27,-414.62 323.13,-401.06"/>
<polygon fill="black" stroke="black" stroke-width="2.04" points="325.95,-398.95 317.81,-392.18 319.95,-402.55 325.95,-398.95"/>
<text text-anchor="middle" x="356" y="-413.8" font-family="Sans Not-Rotated 14" font-size="14.00"> &#160;&#160;&#160;&#160;&#160;&#160;&#160;&#160;</text>
</g>
<!-- Yellow zone doctor FD -->
<g id="node4" class="node">
<title>Yellow zone doctor FD</title>
<polygon fill="#5661c6" stroke="black" points="298,-305 125,-305 125,-269 298,-269 298,-305"/>
<text text-anchor="middle" x="211.5" y="-283.3" font-family="Sans Not-Rotated 14" font-size="14.00" fill="white">Yellow zone doctor FD</text>
</g>
<!-- Yellow zone doctor FD&#45;&gt;Program change operator -->
<g id="edge3" class="edge">
<title>Yellow zone doctor FD&#45;&gt;Program change operator</title>
<path fill="none" stroke="black" d="M192.66,-305.29C177.43,-321.23 158.5,-346.39 158.5,-373 158.5,-732.3 158.5,-732.3 158.5,-732.3 158.5,-755.17 163.13,-780.73 167.41,-799.46"/>
<polygon fill="black" stroke="black" points="164.05,-800.46 169.79,-809.36 170.86,-798.82 164.05,-800.46"/>
<text text-anchor="middle" x="168" y="-544.3" font-family="Sans Not-Rotated 14" font-size="14.00"> &#160;&#160;&#160;</text>
</g>
<!-- Notification operator -->
<g id="node8" class="node">
<title>Notification operator</title>
<polygon fill="#1946ba" stroke="black" points="291,-218 132,-218 132,-182 291,-182 291,-218"/>
<text text-anchor="middle" x="211.5" y="-196.3" font-family="Sans Not-Rotated 14" font-size="14.00" fill="white">Notification operator</text>
</g>
<!-- Yellow zone doctor FD&#45;&gt;Notification operator -->
<g id="edge10" class="edge">
<title>Yellow zone doctor FD&#45;&gt;Notification operator</title>
<path fill="none" stroke="black" stroke-width="1.93" d="M211.5,-268.8C211.5,-257.16 211.5,-241.55 211.5,-228.24"/>
<polygon fill="black" stroke="black" stroke-width="1.93" points="215,-228.18 211.5,-218.18 208,-228.18 215,-228.18"/>
<text text-anchor="middle" x="232" y="-239.8" font-family="Sans Not-Rotated 14" font-size="14.00"> &#160;&#160;&#160;&#160;&#160;&#160;&#160;&#160;</text>
</g>
<!-- Yellow zone doctor FD&#45;&gt;Yellow zone doctor -->
<g id="edge14" class="edge">
<title>Yellow zone doctor FD&#45;&gt;Yellow zone doctor</title>
<path fill="none" stroke="black" stroke-width="2.15" d="M205.41,-305.23C202.88,-315.63 201.87,-328.63 208.5,-338 212.77,-344.04 218.17,-349.04 224.24,-353.19"/>
<polygon fill="black" stroke="black" stroke-width="2.15" points="222.5,-356.22 232.88,-358.32 226.07,-350.2 222.5,-356.22"/>
<text text-anchor="middle" x="245" y="-326.8" font-family="Sans Not-Rotated 14" font-size="14.00"> &#160;&#160;&#160;&#160;&#160;&#160;&#160;&#160;&#160;&#160;&#160;&#160;&#160;&#160;&#160;</text>
</g>
<!-- Red zone doctor&#45;&gt;Red zone operator -->
<g id="edge4" class="edge">
<title>Red zone doctor&#45;&gt;Red zone operator</title>
<path fill="none" stroke="black" stroke-width="3.46" d="M364.21,-566.05C360.21,-576.63 353.8,-589.91 344.5,-599 339.59,-603.81 333.89,-608.05 327.87,-611.76"/>
<polygon fill="black" stroke="black" stroke-width="3.46" points="325.88,-608.87 318.9,-616.84 329.32,-614.97 325.88,-608.87"/>
<text text-anchor="middle" x="392" y="-587.8" font-family="Sans Not-Rotated 14" font-size="14.00"> &#160;&#160;&#160;&#160;&#160;&#160;&#160;&#160;&#160;&#160;&#160;&#160;&#160;&#160;&#160;</text>
</g>
<!-- Red zone doctor&#45;&gt;Red zone doctor FD -->
<g id="edge5" class="edge">
<title>Red zone doctor&#45;&gt;Red zone doctor FD</title>
<path fill="none" stroke="black" stroke-width="3.5" d="M367.27,-529.8C365.77,-518.16 363.75,-502.55 362.02,-489.24"/>
<polygon fill="black" stroke="black" stroke-width="3.5" points="365.48,-488.64 360.72,-479.18 358.54,-489.54 365.48,-488.64"/>
<text text-anchor="middle" x="401" y="-500.8" font-family="Sans Not-Rotated 14" font-size="14.00"> &#160;&#160;&#160;&#160;&#160;&#160;&#160;&#160;&#160;&#160;&#160;&#160;&#160;&#160;&#160;</text>
</g>
<!-- Yellow zone Therapy control operator&#45;&gt;Red zone operator -->
<g id="edge15" class="edge">
<title>Yellow zone Therapy control operator&#45;&gt;Red zone operator</title>
<path fill="none" stroke="black" stroke-width="1.14" d="M398.25,-713.22C372.82,-697.85 335.27,-675.15 307.46,-658.34"/>
<polygon fill="black" stroke="black" stroke-width="1.14" points="309.17,-655.29 298.8,-653.11 305.55,-661.28 309.17,-655.29"/>
<text text-anchor="middle" x="373" y="-674.8" font-family="Sans Not-Rotated 14" font-size="14.00"> &#160;&#160;&#160;&#160;&#160;&#160;&#160;&#160;</text>
</g>
<!-- Meas missing operator -->
<g id="node7" class="node">
<title>Meas missing operator</title>
<polygon fill="#a09dde" stroke="black" points="171,-127 0,-127 0,-91 171,-91 171,-127"/>
<text text-anchor="middle" x="85.5" y="-105.3" font-family="Sans Not-Rotated 14" font-size="14.00">Meas missing operator</text>
</g>
<!-- Meas missing doctor -->
<g id="node9" class="node">
<title>Meas missing doctor</title>
<polygon fill="#c0bde9" stroke="black" points="255,-36 100,-36 100,0 255,0 255,-36"/>
<text text-anchor="middle" x="177.5" y="-14.3" font-family="Sans Not-Rotated 14" font-size="14.00">Meas missing doctor</text>
</g>
<!-- Meas missing operator&#45;&gt;Meas missing doctor -->
<g id="edge2" class="edge">
<title>Meas missing operator&#45;&gt;Meas missing doctor</title>
<path fill="none" stroke="black" stroke-width="2.58" d="M103.24,-90.84C117.24,-77.3 136.94,-58.24 152.53,-43.15"/>
<polygon fill="black" stroke="black" stroke-width="2.58" points="155.06,-45.58 159.82,-36.11 150.2,-40.54 155.06,-45.58"/>
<text text-anchor="middle" x="177" y="-57.8" font-family="Sans Not-Rotated 14" font-size="14.00"> &#160;&#160;&#160;&#160;&#160;&#160;&#160;&#160;&#160;&#160;&#160;&#160;&#160;&#160;&#160;</text>
</g>
<!-- Notification operator&#45;&gt;Meas missing operator -->
<g id="edge9" class="edge">
<title>Notification operator&#45;&gt;Meas missing operator</title>
<path fill="none" stroke="black" stroke-width="2.76" d="M165.82,-181.93C155.07,-176.94 143.99,-170.92 134.5,-164 123.47,-155.96 113.04,-145.11 104.66,-135.25"/>
<polygon fill="black" stroke="black" stroke-width="2.76" points="107.18,-132.8 98.14,-127.28 101.77,-137.23 107.18,-132.8"/>
<text text-anchor="middle" x="171" y="-152.8" font-family="Sans Not-Rotated 14" font-size="14.00"> &#160;&#160;&#160;&#160;&#160;&#160;&#160;&#160;&#160;&#160;&#160;&#160;&#160;&#160;&#160;</text>
</g>
<!-- end -->
<g id="node12" class="node">
<title>end</title>
<ellipse fill="#ea4126" stroke="black" cx="211.5" cy="-109" rx="18" ry="18"/>
<ellipse fill="none" stroke="black" cx="211.5" cy="-109" rx="22" ry="22"/>
</g>
<!-- Notification operator&#45;&gt;end -->
<g id="edge12" class="edge">
<title>Notification operator&#45;&gt;end</title>
<path fill="none" stroke="black" stroke-dasharray="5,2" d="M211.5,-181.84C211.5,-170.44 211.5,-155.13 211.5,-141.58"/>
<polygon fill="black" stroke="black" points="215,-141.19 211.5,-131.19 208,-141.19 215,-141.19"/>
<text text-anchor="middle" x="232" y="-152.8" font-family="Sans Not-Rotated 14" font-size="14.00"> &#160;&#160;&#160;&#160;&#160;&#160;&#160;&#160;</text>
</g>
<!-- Meas missing doctor&#45;&gt;Notification operator -->
<g id="edge16" class="edge">
<title>Meas missing doctor&#45;&gt;Notification operator</title>
<path fill="none" stroke="black" stroke-width="2.13" d="M198.59,-36.04C204.92,-41.52 211.71,-47.79 217.5,-54 230.04,-67.46 234.87,-70.26 242.5,-87 254.17,-112.62 252.6,-121 255.5,-149 256.19,-155.63 258.4,-158 255.5,-164 253.64,-167.86 251.12,-171.42 248.23,-174.68"/>
<polygon fill="black" stroke="black" stroke-width="2.13" points="245.71,-172.25 240.94,-181.71 250.57,-177.29 245.71,-172.25"/>
<text text-anchor="middle" x="290" y="-105.3" font-family="Sans Not-Rotated 14" font-size="14.00"> &#160;&#160;&#160;&#160;&#160;&#160;&#160;&#160;&#160;&#160;&#160;&#160;&#160;&#160;&#160;</text>
</g>
<!-- Yellow zone doctor&#45;&gt;Yellow zone doctor FD -->
<g id="edge6" class="edge">
<title>Yellow zone doctor&#45;&gt;Yellow zone doctor FD</title>
<path fill="none" stroke="black" stroke-width="3.62" d="M303.31,-355.96C299.97,-345.38 294.36,-332.11 285.5,-323 280.77,-318.14 275.24,-313.88 269.36,-310.16"/>
<polygon fill="black" stroke="black" stroke-width="3.62" points="270.97,-307.05 260.56,-305.09 267.47,-313.11 270.97,-307.05"/>
<text text-anchor="middle" x="332" y="-326.8" font-family="Sans Not-Rotated 14" font-size="14.00"> &#160;&#160;&#160;&#160;&#160;&#160;&#160;&#160;&#160;&#160;&#160;&#160;&#160;&#160;&#160;</text>
</g>
<!-- start -->
<g id="node11" class="node">
<title>start</title>
<ellipse fill="#95d600" stroke="black" cx="242.5" cy="-731.3" rx="27.1" ry="27.1"/>
<text text-anchor="middle" x="242.5" y="-727.6" font-family="Sans Not-Rotated 14" font-size="14.00">start</text>
</g>
<!-- start&#45;&gt;Red zone operator -->
<g id="edge17" class="edge">
<title>start&#45;&gt;Red zone operator</title>
<path fill="none" stroke="black" stroke-dasharray="5,2" d="M250,-705.03C253.84,-692.11 258.51,-676.39 262.42,-663.21"/>
<polygon fill="black" stroke="black" points="265.88,-663.87 265.37,-653.29 259.17,-661.88 265.88,-663.87"/>
<text text-anchor="middle" x="280" y="-674.8" font-family="Sans Not-Rotated 14" font-size="14.00"> &#160;&#160;&#160;&#160;&#160;&#160;&#160;&#160;</text>
</g>
</g>
</svg>
