<?xml version="1.0" encoding="UTF-8" standalone="no"?>
<!DOCTYPE svg PUBLIC "-//W3C//DTD SVG 1.1//EN"
 "http://www.w3.org/Graphics/SVG/1.1/DTD/svg11.dtd">
<!-- Generated by graphviz version 3.0.0 (20220226.1711)
 -->
<!-- Pages: 1 -->
<svg width="1654pt" height="680pt"
 viewBox="0.00 0.00 1653.68 679.60" xmlns="http://www.w3.org/2000/svg" xmlns:xlink="http://www.w3.org/1999/xlink">
<g id="graph0" class="graph" transform="scale(1 1) rotate(0) translate(4 675.6)">
<polygon fill="white" stroke="transparent" points="-4,4 -4,-675.6 1649.68,-675.6 1649.68,4 -4,4"/>
<!-- Program change operator -->
<g id="node1" class="node">
<title>Program change operator</title>
<polygon fill="#ffffff" stroke="black" points="760.18,-671.6 567.18,-671.6 567.18,-635.6 760.18,-635.6 760.18,-671.6"/>
<text text-anchor="middle" x="663.68" y="-649.9" font-family="Sans Not-Rotated 14" font-size="14.00">Program change operator</text>
</g>
<!-- Yellow zone Therapy control operator -->
<g id="node6" class="node">
<title>Yellow zone Therapy control operator</title>
<polygon fill="#e0ddf4" stroke="black" points="774.68,-575.3 496.68,-575.3 496.68,-539.3 774.68,-539.3 774.68,-575.3"/>
<text text-anchor="middle" x="635.68" y="-553.6" font-family="Sans Not-Rotated 14" font-size="14.00">Yellow zone Therapy control operator</text>
</g>
<!-- Program change operator&#45;&gt;Yellow zone Therapy control operator -->
<g id="edge1" class="edge">
<title>Program change operator&#45;&gt;Yellow zone Therapy control operator</title>
<path fill="none" stroke="black" stroke-width="1.04" d="M658.54,-635.3C654.4,-621.34 648.5,-601.46 643.72,-585.39"/>
<polygon fill="black" stroke="black" stroke-width="1.04" points="646.98,-584.07 640.78,-575.48 640.27,-586.07 646.98,-584.07"/>
<text text-anchor="middle" x="663.18" y="-606.4" font-family="Sans Not-Rotated 14" font-size="14.00"> &#160;&#160;&#160;</text>
</g>
<!-- Notification operator -->
<g id="node8" class="node">
<title>Notification operator</title>
<polygon fill="#1946ba" stroke="black" points="476.18,-218 317.18,-218 317.18,-182 476.18,-182 476.18,-218"/>
<text text-anchor="middle" x="396.68" y="-196.3" font-family="Sans Not-Rotated 14" font-size="14.00" fill="white">Notification operator</text>
</g>
<!-- Program change operator&#45;&gt;Notification operator -->
<g id="edge55" class="edge">
<title>Program change operator&#45;&gt;Notification operator</title>
<path fill="none" stroke="black" stroke-width="1.01" d="M567.14,-637.91C435.09,-615.92 207.86,-570.68 149.68,-512 72.98,-434.64 50.39,-354.66 117.68,-269 141.03,-239.28 234.58,-220.91 307,-210.87"/>
<polygon fill="black" stroke="black" stroke-width="1.01" points="307.62,-214.32 317.07,-209.51 306.69,-207.38 307.62,-214.32"/>
<text text-anchor="middle" x="98.18" y="-413.8" font-family="Sans Not-Rotated 14" font-size="14.00"> &#160;&#160;&#160;</text>
</g>
<!-- Red zone operator -->
<g id="node2" class="node">
<title>Red zone operator</title>
<polygon fill="#1d2559" stroke="black" points="750.18,-479 605.18,-479 605.18,-443 750.18,-443 750.18,-479"/>
<text text-anchor="middle" x="677.68" y="-457.3" font-family="Sans Not-Rotated 14" font-size="14.00" fill="white">Red zone operator</text>
</g>
<!-- Red zone operator&#45;&gt;Red zone operator -->
<g id="edge64" class="edge">
<title>Red zone operator&#45;&gt;Red zone operator</title>
<path fill="none" stroke="black" stroke-width="1.53" d="M750.47,-468.11C761.05,-466.98 768.18,-464.61 768.18,-461 768.18,-458.69 765.25,-456.88 760.37,-455.59"/>
<polygon fill="black" stroke="black" stroke-width="1.53" points="760.92,-452.13 750.47,-453.89 759.73,-459.03 760.92,-452.13"/>
<text text-anchor="middle" x="788.68" y="-457.3" font-family="Sans Not-Rotated 14" font-size="14.00"> &#160;&#160;&#160;&#160;&#160;&#160;&#160;&#160;</text>
</g>
<!-- Red zone doctor FD -->
<g id="node3" class="node">
<title>Red zone doctor FD</title>
<polygon fill="#1d2559" stroke="black" points="1112.18,-392 959.18,-392 959.18,-356 1112.18,-356 1112.18,-392"/>
<text text-anchor="middle" x="1035.68" y="-370.3" font-family="Sans Not-Rotated 14" font-size="14.00" fill="white">Red zone doctor FD</text>
</g>
<!-- Red zone operator&#45;&gt;Red zone doctor FD -->
<g id="edge16" class="edge">
<title>Red zone operator&#45;&gt;Red zone doctor FD</title>
<path fill="none" stroke="black" stroke-width="3.35" d="M750.26,-455.46C794.01,-451.02 850.25,-442.26 897.68,-425 909.86,-420.57 910.85,-415.29 922.68,-410 935.05,-404.47 948.55,-399.46 961.78,-395.08"/>
<polygon fill="black" stroke="black" stroke-width="3.35" points="962.9,-398.4 971.34,-392 960.75,-391.74 962.9,-398.4"/>
<text text-anchor="middle" x="959.18" y="-413.8" font-family="Sans Not-Rotated 14" font-size="14.00"> &#160;&#160;&#160;&#160;&#160;&#160;&#160;&#160;&#160;&#160;&#160;&#160;&#160;&#160;&#160;</text>
</g>
<!-- Yellow zone doctor FD -->
<g id="node4" class="node">
<title>Yellow zone doctor FD</title>
<polygon fill="#5661c6" stroke="black" points="1056.18,-131 883.18,-131 883.18,-95 1056.18,-95 1056.18,-131"/>
<text text-anchor="middle" x="969.68" y="-109.3" font-family="Sans Not-Rotated 14" font-size="14.00" fill="white">Yellow zone doctor FD</text>
</g>
<!-- Red zone operator&#45;&gt;Yellow zone doctor FD -->
<g id="edge23" class="edge">
<title>Red zone operator&#45;&gt;Yellow zone doctor FD</title>
<path fill="none" stroke="black" stroke-width="1.08" d="M750.55,-457.91C833.84,-454.59 973.98,-446.14 1092.68,-425 1147.14,-415.3 1167.34,-423.69 1212.68,-392 1290.51,-337.6 1307.75,-308.45 1336.68,-218 1341.55,-202.76 1346.66,-194.51 1336.68,-182 1303.69,-140.66 1163.58,-124.4 1066.35,-118.03"/>
<polygon fill="black" stroke="black" stroke-width="1.08" points="1066.4,-114.53 1056.2,-117.39 1065.96,-121.51 1066.4,-114.53"/>
<text text-anchor="middle" x="1328.18" y="-283.3" font-family="Sans Not-Rotated 14" font-size="14.00"> &#160;&#160;&#160;</text>
</g>
<!-- Red zone doctor -->
<g id="node5" class="node">
<title>Red zone doctor</title>
<polygon fill="#1f3b98" stroke="black" points="1175.18,-40 1046.18,-40 1046.18,-4 1175.18,-4 1175.18,-40"/>
<text text-anchor="middle" x="1110.68" y="-18.3" font-family="Sans Not-Rotated 14" font-size="14.00" fill="white">Red zone doctor</text>
</g>
<!-- Red zone operator&#45;&gt;Red zone doctor -->
<g id="edge24" class="edge">
<title>Red zone operator&#45;&gt;Red zone doctor</title>
<path fill="none" stroke="black" stroke-width="5" d="M654.57,-442.86C622.08,-417.15 564.32,-365.14 541.68,-305 536.04,-290.03 533.12,-282.52 541.68,-269 551.67,-253.21 567.29,-264.99 579.68,-251 611.37,-215.24 577.58,-180.31 613.68,-149 647.46,-119.7 671.27,-147.89 712.68,-131 763.36,-110.33 763.51,-81.43 814.68,-62 886.48,-34.74 974.33,-25.97 1035.6,-23.42"/>
<polygon fill="black" stroke="black" stroke-width="5" points="1036.12,-27.78 1045.96,-23.04 1035.8,-19.03 1036.12,-27.78"/>
<text text-anchor="middle" x="626.18" y="-239.8" font-family="Sans Not-Rotated 14" font-size="14.00"> &#160;&#160;&#160;&#160;&#160;&#160;&#160;&#160;&#160;&#160;&#160;&#160;&#160;&#160;&#160;</text>
</g>
<!-- Red zone operator&#45;&gt;Yellow zone Therapy control operator -->
<g id="edge30" class="edge">
<title>Red zone operator&#45;&gt;Yellow zone Therapy control operator</title>
<path fill="none" stroke="black" stroke-width="1.05" d="M650.72,-479.28C645.07,-484.27 639.87,-490.23 636.68,-497 632.09,-506.75 631.08,-518.43 631.5,-528.85"/>
<polygon fill="black" stroke="black" stroke-width="1.05" points="628.03,-529.43 632.36,-539.1 635.01,-528.84 628.03,-529.43"/>
<text text-anchor="middle" x="646.18" y="-500.8" font-family="Sans Not-Rotated 14" font-size="14.00"> &#160;&#160;&#160;</text>
</g>
<!-- Yellow zone doctor -->
<g id="node10" class="node">
<title>Yellow zone doctor</title>
<polygon fill="#7d7fd2" stroke="black" points="1022.18,-305 873.18,-305 873.18,-269 1022.18,-269 1022.18,-305"/>
<text text-anchor="middle" x="947.68" y="-283.3" font-family="Sans Not-Rotated 14" font-size="14.00">Yellow zone doctor</text>
</g>
<!-- Red zone operator&#45;&gt;Yellow zone doctor -->
<g id="edge50" class="edge">
<title>Red zone operator&#45;&gt;Yellow zone doctor</title>
<path fill="none" stroke="black" stroke-width="1.22" d="M746.97,-442.93C782.46,-432.05 825.14,-415.5 858.68,-392 889.05,-370.72 915.47,-336.73 931.47,-313.44"/>
<polygon fill="black" stroke="black" stroke-width="1.22" points="934.41,-315.34 937.07,-305.09 928.59,-311.44 934.41,-315.34"/>
<text text-anchor="middle" x="917.18" y="-370.3" font-family="Sans Not-Rotated 14" font-size="14.00"> &#160;&#160;&#160;&#160;&#160;&#160;&#160;&#160;</text>
</g>
<!-- Red zone doctor FD&#45;&gt;Program change operator -->
<g id="edge4" class="edge">
<title>Red zone doctor FD&#45;&gt;Program change operator</title>
<path fill="none" stroke="black" stroke-width="1.01" d="M1112.47,-378.3C1194.8,-382.7 1319.65,-392.1 1363.68,-410 1456.6,-447.78 1574.69,-510.87 1506.68,-584.6 1457.71,-637.68 986.06,-649.33 770.37,-651.88"/>
<polygon fill="black" stroke="black" stroke-width="1.01" points="770.26,-648.38 760.3,-652 770.34,-655.38 770.26,-648.38"/>
<text text-anchor="middle" x="1527.18" y="-500.8" font-family="Sans Not-Rotated 14" font-size="14.00"> &#160;&#160;&#160;</text>
</g>
<!-- Red zone doctor FD&#45;&gt;Red zone operator -->
<g id="edge9" class="edge">
<title>Red zone doctor FD&#45;&gt;Red zone operator</title>
<path fill="none" stroke="black" stroke-width="3.44" d="M1027.91,-392.34C1021.9,-403.62 1012.43,-417.57 999.68,-425 960.42,-447.87 842.43,-455.81 760.74,-458.56"/>
<polygon fill="black" stroke="black" stroke-width="3.44" points="760.36,-455.07 750.47,-458.89 760.58,-462.07 760.36,-455.07"/>
<text text-anchor="middle" x="1052.18" y="-413.8" font-family="Sans Not-Rotated 14" font-size="14.00"> &#160;&#160;&#160;&#160;&#160;&#160;&#160;&#160;&#160;&#160;&#160;&#160;&#160;&#160;&#160;</text>
</g>
<!-- Red zone doctor FD&#45;&gt;Red zone doctor FD -->
<g id="edge65" class="edge">
<title>Red zone doctor FD&#45;&gt;Red zone doctor FD</title>
<path fill="none" stroke="black" stroke-width="2.55" d="M1112.43,-381.03C1123.07,-379.87 1130.18,-377.53 1130.18,-374 1130.18,-371.74 1127.26,-369.97 1122.37,-368.68"/>
<polygon fill="black" stroke="black" stroke-width="2.55" points="1122.88,-365.22 1112.43,-366.97 1121.7,-372.12 1122.88,-365.22"/>
<text text-anchor="middle" x="1166.68" y="-370.3" font-family="Sans Not-Rotated 14" font-size="14.00"> &#160;&#160;&#160;&#160;&#160;&#160;&#160;&#160;&#160;&#160;&#160;&#160;&#160;&#160;&#160;</text>
</g>
<!-- Red zone doctor FD&#45;&gt;Yellow zone doctor FD -->
<g id="edge20" class="edge">
<title>Red zone doctor FD&#45;&gt;Yellow zone doctor FD</title>
<path fill="none" stroke="black" stroke-width="1.5" d="M1055.53,-355.94C1079.96,-333.97 1121.2,-293.51 1145.68,-251 1169.14,-210.26 1203.98,-184.94 1173.68,-149 1159.47,-132.14 1111.98,-123.4 1066.4,-118.87"/>
<polygon fill="black" stroke="black" stroke-width="1.5" points="1066.7,-115.38 1056.42,-117.94 1066.05,-122.35 1066.7,-115.38"/>
<text text-anchor="middle" x="1175.18" y="-239.8" font-family="Sans Not-Rotated 14" font-size="14.00"> &#160;&#160;&#160;&#160;&#160;&#160;&#160;&#160;</text>
</g>
<!-- Red zone doctor FD&#45;&gt;Red zone doctor -->
<g id="edge25" class="edge">
<title>Red zone doctor FD&#45;&gt;Red zone doctor</title>
<path fill="none" stroke="black" stroke-width="1.73" d="M1098.91,-355.98C1161.22,-335.23 1251.87,-293.23 1285.68,-218 1319.18,-143.46 1219.47,-77.5 1157.02,-44.79"/>
<polygon fill="black" stroke="black" stroke-width="1.73" points="1158.59,-41.66 1148.09,-40.21 1155.39,-47.89 1158.59,-41.66"/>
<text text-anchor="middle" x="1312.18" y="-196.3" font-family="Sans Not-Rotated 14" font-size="14.00"> &#160;&#160;&#160;&#160;&#160;&#160;&#160;&#160;</text>
</g>
<!-- Red zone doctor FD&#45;&gt;Yellow zone Therapy control operator -->
<g id="edge29" class="edge">
<title>Red zone doctor FD&#45;&gt;Yellow zone Therapy control operator</title>
<path fill="none" stroke="black" stroke-width="1.22" d="M1112.32,-378.4C1199.06,-383.06 1330.37,-392.86 1345.68,-410 1376.92,-444.97 1355.51,-482.98 1318.68,-512 1277.84,-544.18 973.57,-553.06 785.18,-555.46"/>
<polygon fill="black" stroke="black" stroke-width="1.22" points="784.86,-551.97 774.9,-555.59 784.95,-558.97 784.86,-551.97"/>
<text text-anchor="middle" x="1381.18" y="-457.3" font-family="Sans Not-Rotated 14" font-size="14.00"> &#160;&#160;&#160;&#160;&#160;&#160;&#160;&#160;</text>
</g>
<!-- Meas missing operator -->
<g id="node7" class="node">
<title>Meas missing operator</title>
<polygon fill="#a09dde" stroke="black" points="508.18,-40 337.18,-40 337.18,-4 508.18,-4 508.18,-40"/>
<text text-anchor="middle" x="422.68" y="-18.3" font-family="Sans Not-Rotated 14" font-size="14.00">Meas missing operator</text>
</g>
<!-- Red zone doctor FD&#45;&gt;Meas missing operator -->
<g id="edge38" class="edge">
<title>Red zone doctor FD&#45;&gt;Meas missing operator</title>
<path fill="none" stroke="black" stroke-width="1.09" d="M958.95,-358.2C925.93,-348.24 889.32,-331.82 864.68,-305 842.17,-280.5 861.73,-256.69 835.68,-236 798.61,-206.55 761.2,-254.2 730.68,-218 720.37,-205.77 722.51,-195.76 730.68,-182 739.21,-167.63 755.15,-178.37 763.68,-164 767.08,-158.27 766.02,-155.24 763.68,-149 752.53,-119.2 743.33,-112.39 716.68,-95 657.48,-56.37 579.33,-38.46 518.48,-30.15"/>
<polygon fill="black" stroke="black" stroke-width="1.09" points="518.85,-26.67 508.48,-28.86 517.95,-33.62 518.85,-26.67"/>
<text text-anchor="middle" x="740.18" y="-196.3" font-family="Sans Not-Rotated 14" font-size="14.00"> &#160;&#160;&#160;</text>
</g>
<!-- Red zone doctor FD&#45;&gt;Notification operator -->
<g id="edge40" class="edge">
<title>Red zone doctor FD&#45;&gt;Notification operator</title>
<path fill="none" stroke="black" stroke-width="1.58" d="M959.01,-359.01C953.15,-357.98 947.32,-356.97 941.68,-356 892.42,-347.55 879.41,-349.09 830.68,-338 724.96,-313.94 701.55,-296.54 596.68,-269 562.27,-259.96 551.99,-263.51 518.68,-251 505.46,-246.04 503.55,-241.81 490.68,-236 479.64,-231.02 467.67,-226.16 456.08,-221.73"/>
<polygon fill="black" stroke="black" stroke-width="1.58" points="457.05,-218.35 446.46,-218.11 454.59,-224.91 457.05,-218.35"/>
<text text-anchor="middle" x="734.18" y="-283.3" font-family="Sans Not-Rotated 14" font-size="14.00"> &#160;&#160;&#160;&#160;&#160;&#160;&#160;&#160;</text>
</g>
<!-- Red zone doctor FD&#45;&gt;Yellow zone doctor -->
<g id="edge46" class="edge">
<title>Red zone doctor FD&#45;&gt;Yellow zone doctor</title>
<path fill="none" stroke="black" stroke-width="2.06" d="M958.86,-357.67C949.78,-352.8 941.64,-346.4 935.68,-338 930.83,-331.17 931.15,-322.63 933.5,-314.55"/>
<polygon fill="black" stroke="black" stroke-width="2.06" points="936.82,-315.65 937.16,-305.06 930.29,-313.13 936.82,-315.65"/>
<text text-anchor="middle" x="956.18" y="-326.8" font-family="Sans Not-Rotated 14" font-size="14.00"> &#160;&#160;&#160;&#160;&#160;&#160;&#160;&#160;</text>
</g>
<!-- Yellow zone doctor FD&#45;&gt;Program change operator -->
<g id="edge3" class="edge">
<title>Yellow zone doctor FD&#45;&gt;Program change operator</title>
<path fill="none" stroke="black" stroke-width="1.02" d="M1056.4,-116.3C1164.1,-119.97 1341.26,-128.9 1403.68,-149 1525.05,-188.09 1626.68,-201.99 1626.68,-329.5 1626.68,-558.3 1626.68,-558.3 1626.68,-558.3 1626.68,-623.42 1556.1,-602.79 1492.68,-617.6 1358.57,-648.91 962.34,-652.97 770.35,-653.02"/>
<polygon fill="black" stroke="black" stroke-width="1.02" points="770.24,-649.52 760.24,-653.02 770.24,-656.52 770.24,-649.52"/>
<text text-anchor="middle" x="1636.18" y="-370.3" font-family="Sans Not-Rotated 14" font-size="14.00"> &#160;&#160;&#160;</text>
</g>
<!-- Yellow zone doctor FD&#45;&gt;Red zone operator -->
<g id="edge11" class="edge">
<title>Yellow zone doctor FD&#45;&gt;Red zone operator</title>
<path fill="none" stroke="black" stroke-width="1.69" d="M1056.25,-113.56C1159.88,-114.37 1326.28,-120.33 1380.68,-149 1409.81,-164.35 1415.61,-186.04 1407.68,-218 1344.51,-472.6 1329.68,-404.56 1295.68,-425 1292.84,-426.71 928.04,-446.53 760.32,-455.56"/>
<polygon fill="black" stroke="black" stroke-width="1.69" points="760.09,-452.07 750.3,-456.1 760.47,-459.06 760.09,-452.07"/>
<text text-anchor="middle" x="1414.18" y="-283.3" font-family="Sans Not-Rotated 14" font-size="14.00"> &#160;&#160;&#160;&#160;&#160;&#160;&#160;&#160;</text>
</g>
<!-- Yellow zone doctor FD&#45;&gt;Red zone doctor FD -->
<g id="edge17" class="edge">
<title>Yellow zone doctor FD&#45;&gt;Red zone doctor FD</title>
<path fill="none" stroke="black" stroke-width="1.33" d="M995.11,-131.26C1010.62,-143.41 1029.05,-161.18 1037.68,-182 1060.3,-236.61 1050.45,-307.77 1042.38,-345.95"/>
<polygon fill="black" stroke="black" stroke-width="1.33" points="1038.94,-345.29 1040.18,-355.81 1045.78,-346.81 1038.94,-345.29"/>
<text text-anchor="middle" x="1071.18" y="-239.8" font-family="Sans Not-Rotated 14" font-size="14.00"> &#160;&#160;&#160;&#160;&#160;&#160;&#160;&#160;</text>
</g>
<!-- Yellow zone doctor FD&#45;&gt;Red zone doctor -->
<g id="edge26" class="edge">
<title>Yellow zone doctor FD&#45;&gt;Red zone doctor</title>
<path fill="none" stroke="black" stroke-width="1.29" d="M964.31,-94.59C962.21,-84.12 961.73,-71.11 968.68,-62 977.49,-50.45 1006.46,-41.46 1035.96,-35.05"/>
<polygon fill="black" stroke="black" stroke-width="1.29" points="1036.88,-38.43 1045.96,-32.97 1035.45,-31.58 1036.88,-38.43"/>
<text text-anchor="middle" x="989.18" y="-65.8" font-family="Sans Not-Rotated 14" font-size="14.00"> &#160;&#160;&#160;&#160;&#160;&#160;&#160;&#160;</text>
</g>
<!-- Yellow zone doctor FD&#45;&gt;Meas missing operator -->
<g id="edge36" class="edge">
<title>Yellow zone doctor FD&#45;&gt;Meas missing operator</title>
<path fill="none" stroke="black" stroke-width="1.16" d="M915.26,-94.98C878.44,-84.06 828.54,-70.4 783.68,-62 694.47,-45.29 591.42,-35.04 518.31,-29.27"/>
<polygon fill="black" stroke="black" stroke-width="1.16" points="518.44,-25.77 508.2,-28.49 517.9,-32.75 518.44,-25.77"/>
<text text-anchor="middle" x="865.18" y="-65.8" font-family="Sans Not-Rotated 14" font-size="14.00"> &#160;&#160;&#160;&#160;&#160;&#160;&#160;&#160;</text>
</g>
<!-- Yellow zone doctor FD&#45;&gt;Notification operator -->
<g id="edge39" class="edge">
<title>Yellow zone doctor FD&#45;&gt;Notification operator</title>
<path fill="none" stroke="black" stroke-width="1.94" d="M883.03,-129.69C824.33,-140.07 744.95,-153.63 674.68,-164 611.82,-173.28 540.73,-182.2 486.18,-188.71"/>
<polygon fill="black" stroke="black" stroke-width="1.94" points="485.71,-185.25 476.19,-189.9 486.53,-192.2 485.71,-185.25"/>
<text text-anchor="middle" x="785.18" y="-152.8" font-family="Sans Not-Rotated 14" font-size="14.00"> &#160;&#160;&#160;&#160;&#160;&#160;&#160;&#160;</text>
</g>
<!-- Yellow zone doctor FD&#45;&gt;Yellow zone doctor -->
<g id="edge47" class="edge">
<title>Yellow zone doctor FD&#45;&gt;Yellow zone doctor</title>
<path fill="none" stroke="black" stroke-width="2.16" d="M932.66,-131.07C912.74,-142.43 889.99,-159.43 878.68,-182 871.51,-196.3 870.6,-204.19 878.68,-218 886.92,-232.09 898.44,-225.2 910.68,-236 918.61,-243 925.89,-251.97 931.86,-260.37"/>
<polygon fill="black" stroke="black" stroke-width="2.16" points="929.07,-262.49 937.57,-268.81 934.87,-258.57 929.07,-262.49"/>
<text text-anchor="middle" x="915.18" y="-196.3" font-family="Sans Not-Rotated 14" font-size="14.00"> &#160;&#160;&#160;&#160;&#160;&#160;&#160;&#160;&#160;&#160;&#160;&#160;&#160;&#160;&#160;</text>
</g>
<!-- end -->
<g id="node12" class="node">
<title>end</title>
<ellipse fill="#ea4126" stroke="black" cx="144.68" cy="-22" rx="18" ry="18"/>
<ellipse fill="none" stroke="black" cx="144.68" cy="-22" rx="22" ry="22"/>
</g>
<!-- Yellow zone doctor FD&#45;&gt;end -->
<g id="edge54" class="edge">
<title>Yellow zone doctor FD&#45;&gt;end</title>
<path fill="none" stroke="black" stroke-dasharray="5,2" d="M882.95,-106.17C749.84,-97.13 509.47,-80.42 500.68,-77 490.65,-73.1 491.62,-66.11 481.68,-62 480.8,-61.64 260.2,-36.27 176.43,-26.65"/>
<polygon fill="black" stroke="black" points="176.8,-23.17 166.47,-25.5 176,-30.12 176.8,-23.17"/>
<text text-anchor="middle" x="510.18" y="-65.8" font-family="Sans Not-Rotated 14" font-size="14.00"> &#160;&#160;&#160;</text>
</g>
<!-- Red zone doctor&#45;&gt;Red zone operator -->
<g id="edge8" class="edge">
<title>Red zone doctor&#45;&gt;Red zone operator</title>
<path fill="none" stroke="black" stroke-width="3.47" d="M1045.89,-24.96C974.69,-28.34 866.12,-37.46 833.68,-62 794.16,-91.89 823.42,-128.67 788.68,-164 775.3,-177.61 765.39,-171.15 749.68,-182 721.49,-201.46 709.12,-204.94 694.68,-236 686.59,-253.41 680.89,-376.52 678.69,-432.46"/>
<polygon fill="black" stroke="black" stroke-width="3.47" points="675.18,-432.57 678.29,-442.7 682.17,-432.84 675.18,-432.57"/>
<text text-anchor="middle" x="731.18" y="-239.8" font-family="Sans Not-Rotated 14" font-size="14.00"> &#160;&#160;&#160;&#160;&#160;&#160;&#160;&#160;&#160;&#160;&#160;&#160;&#160;&#160;&#160;</text>
</g>
<!-- Red zone doctor&#45;&gt;Red zone doctor FD -->
<g id="edge15" class="edge">
<title>Red zone doctor&#45;&gt;Red zone doctor FD</title>
<path fill="none" stroke="black" stroke-width="3.51" d="M1127.02,-40.19C1161.47,-78.63 1235.56,-174.2 1199.68,-251 1177.5,-298.47 1126.34,-331.77 1087.02,-351.45"/>
<polygon fill="black" stroke="black" stroke-width="3.51" points="1085.28,-348.41 1077.81,-355.92 1088.33,-354.7 1085.28,-348.41"/>
<text text-anchor="middle" x="1245.18" y="-196.3" font-family="Sans Not-Rotated 14" font-size="14.00"> &#160;&#160;&#160;&#160;&#160;&#160;&#160;&#160;&#160;&#160;&#160;&#160;&#160;&#160;&#160;</text>
</g>
<!-- Red zone doctor&#45;&gt;Yellow zone doctor FD -->
<g id="edge22" class="edge">
<title>Red zone doctor&#45;&gt;Yellow zone doctor FD</title>
<path fill="none" stroke="black" stroke-width="1.11" d="M1073.98,-40.15C1061.26,-46.53 1047.08,-54.14 1034.68,-62 1022.22,-69.9 1009.2,-79.59 998.12,-88.33"/>
<polygon fill="black" stroke="black" stroke-width="1.11" points="995.67,-85.8 990.06,-94.79 1000.05,-91.27 995.67,-85.8"/>
<text text-anchor="middle" x="1055.18" y="-65.8" font-family="Sans Not-Rotated 14" font-size="14.00"> &#160;&#160;&#160;&#160;&#160;&#160;&#160;&#160;</text>
</g>
<!-- Red zone doctor&#45;&gt;Red zone doctor -->
<g id="edge66" class="edge">
<title>Red zone doctor&#45;&gt;Red zone doctor</title>
<path fill="none" stroke="black" stroke-width="1.25" d="M1175.36,-29.98C1185.92,-28.84 1193.18,-26.18 1193.18,-22 1193.18,-19.32 1190.2,-17.27 1185.28,-15.84"/>
<polygon fill="black" stroke="black" stroke-width="1.25" points="1185.83,-12.38 1175.36,-14.02 1184.56,-19.27 1185.83,-12.38"/>
<text text-anchor="middle" x="1213.68" y="-18.3" font-family="Sans Not-Rotated 14" font-size="14.00"> &#160;&#160;&#160;&#160;&#160;&#160;&#160;&#160;</text>
</g>
<!-- Red zone doctor&#45;&gt;Yellow zone Therapy control operator -->
<g id="edge32" class="edge">
<title>Red zone doctor&#45;&gt;Yellow zone Therapy control operator</title>
<path fill="none" stroke="black" stroke-width="1.04" d="M1175.26,-25.24C1276.44,-29.41 1462.99,-40.01 1483.68,-62 1611.3,-197.62 1540.71,-320.66 1442.68,-479 1431.25,-497.45 1426.67,-503.55 1406.68,-512 1351.16,-535.45 993.28,-547.81 785.17,-553.09"/>
<polygon fill="black" stroke="black" stroke-width="1.04" points="784.98,-549.6 775.07,-553.35 785.15,-556.59 784.98,-549.6"/>
<text text-anchor="middle" x="1555.18" y="-283.3" font-family="Sans Not-Rotated 14" font-size="14.00"> &#160;&#160;&#160;</text>
</g>
<!-- Red zone doctor&#45;&gt;Yellow zone doctor -->
<g id="edge49" class="edge">
<title>Red zone doctor&#45;&gt;Yellow zone doctor</title>
<path fill="none" stroke="black" stroke-width="1.27" d="M1117.99,-40.26C1134.31,-81.83 1168.47,-188.69 1117.68,-251 1106.46,-264.77 1069.5,-273.28 1032.91,-278.46"/>
<polygon fill="black" stroke="black" stroke-width="1.27" points="1032.07,-275.04 1022.62,-279.83 1032.99,-281.98 1032.07,-275.04"/>
<text text-anchor="middle" x="1164.18" y="-152.8" font-family="Sans Not-Rotated 14" font-size="14.00"> &#160;&#160;&#160;&#160;&#160;&#160;&#160;&#160;</text>
</g>
<!-- Yellow zone Therapy control operator&#45;&gt;Program change operator -->
<g id="edge6" class="edge">
<title>Yellow zone Therapy control operator&#45;&gt;Program change operator</title>
<path fill="none" stroke="black" stroke-width="1" d="M634.92,-575.37C634.9,-587.47 635.96,-603.92 640.68,-617.6 641.75,-620.69 643.15,-623.77 644.74,-626.76"/>
<polygon fill="black" stroke="black" stroke-width="1" points="641.75,-628.57 649.91,-635.33 647.74,-624.96 641.75,-628.57"/>
<text text-anchor="middle" x="643.18" y="-606.4" font-family="Sans Not-Rotated 14" font-size="14.00"> </text>
</g>
<!-- Yellow zone Therapy control operator&#45;&gt;Red zone operator -->
<g id="edge56" class="edge">
<title>Yellow zone Therapy control operator&#45;&gt;Red zone operator</title>
<path fill="none" stroke="black" stroke-width="1.16" d="M643.51,-539.06C647.21,-530.87 651.69,-520.94 655.68,-512 659.1,-504.33 662.79,-495.98 666.15,-488.34"/>
<polygon fill="black" stroke="black" stroke-width="1.16" points="669.37,-489.71 670.19,-479.14 662.96,-486.89 669.37,-489.71"/>
<text text-anchor="middle" x="683.18" y="-500.8" font-family="Sans Not-Rotated 14" font-size="14.00"> &#160;&#160;&#160;&#160;&#160;&#160;&#160;&#160;</text>
</g>
<!-- Yellow zone Therapy control operator&#45;&gt;Red zone doctor FD -->
<g id="edge57" class="edge">
<title>Yellow zone Therapy control operator&#45;&gt;Red zone doctor FD</title>
<path fill="none" stroke="black" stroke-width="1.09" d="M750.41,-539.27C871.81,-518.63 1051.49,-479.69 1092.68,-425 1100.13,-415.11 1094.41,-405.74 1084.2,-397.84"/>
<polygon fill="black" stroke="black" stroke-width="1.09" points="1085.91,-394.78 1075.66,-392.11 1082.01,-400.59 1085.91,-394.78"/>
<text text-anchor="middle" x="1081.18" y="-457.3" font-family="Sans Not-Rotated 14" font-size="14.00"> &#160;&#160;&#160;</text>
</g>
<!-- Yellow zone Therapy control operator&#45;&gt;Red zone doctor -->
<g id="edge58" class="edge">
<title>Yellow zone Therapy control operator&#45;&gt;Red zone doctor</title>
<path fill="none" stroke="black" stroke-width="1.06" d="M774.81,-554.1C948.96,-550.21 1236.88,-539.7 1339.68,-512 1467.31,-477.6 1469.68,-376.68 1469.68,-244.5 1469.68,-244.5 1469.68,-244.5 1469.68,-112 1469.68,-53.97 1290.75,-33.52 1185.53,-26.51"/>
<polygon fill="black" stroke="black" stroke-width="1.06" points="1185.48,-23 1175.28,-25.85 1185.03,-29.98 1185.48,-23"/>
<text text-anchor="middle" x="1478.18" y="-283.3" font-family="Sans Not-Rotated 14" font-size="14.00"> &#160;&#160;&#160;</text>
</g>
<!-- Yellow zone Therapy control operator&#45;&gt;Yellow zone Therapy control operator -->
<g id="edge68" class="edge">
<title>Yellow zone Therapy control operator&#45;&gt;Yellow zone Therapy control operator</title>
<path fill="none" stroke="black" stroke-width="1.7" d="M774.75,-564.72C785.83,-563.1 792.68,-560.62 792.68,-557.3 792.68,-555.11 789.73,-553.3 784.57,-551.85"/>
<polygon fill="black" stroke="black" stroke-width="1.7" points="785.25,-548.41 774.75,-549.87 783.87,-555.28 785.25,-548.41"/>
<text text-anchor="middle" x="813.18" y="-553.6" font-family="Sans Not-Rotated 14" font-size="14.00"> &#160;&#160;&#160;&#160;&#160;&#160;&#160;&#160;</text>
</g>
<!-- Yellow zone Therapy control operator&#45;&gt;Meas missing operator -->
<g id="edge60" class="edge">
<title>Yellow zone Therapy control operator&#45;&gt;Meas missing operator</title>
<path fill="none" stroke="black" stroke-width="1.01" d="M496.56,-551.96C402.3,-546.88 287.57,-535.86 245.68,-512 229.69,-502.89 228.56,-495.63 220.68,-479 147.58,-324.76 109.11,-229.12 214.68,-95 241.7,-60.67 286.07,-42.64 326.9,-33.21"/>
<polygon fill="black" stroke="black" stroke-width="1.01" points="327.88,-36.57 336.92,-31.04 326.41,-29.73 327.88,-36.57"/>
<text text-anchor="middle" x="164.18" y="-283.3" font-family="Sans Not-Rotated 14" font-size="14.00"> &#160;&#160;&#160;</text>
</g>
<!-- Yellow zone Therapy control operator&#45;&gt;Notification operator -->
<g id="edge44" class="edge">
<title>Yellow zone Therapy control operator&#45;&gt;Notification operator</title>
<path fill="none" stroke="black" stroke-width="1.12" d="M496.52,-544.61C462.56,-538.01 427.24,-527.79 396.68,-512 336.73,-481.03 323.49,-456.5 303.68,-392 284.35,-329.07 337.19,-261.04 370.96,-225.61"/>
<polygon fill="black" stroke="black" stroke-width="1.12" points="373.76,-227.75 378.25,-218.15 368.76,-222.86 373.76,-227.75"/>
<text text-anchor="middle" x="324.18" y="-370.3" font-family="Sans Not-Rotated 14" font-size="14.00"> &#160;&#160;&#160;&#160;&#160;&#160;&#160;&#160;</text>
</g>
<!-- Yellow zone Therapy control operator&#45;&gt;end -->
<g id="edge59" class="edge">
<title>Yellow zone Therapy control operator&#45;&gt;end</title>
<path fill="none" stroke="black" stroke-dasharray="5,2" d="M496.58,-551.97C416.28,-546.83 314,-535.75 225.68,-512 133.64,-487.25 86.59,-501.45 29.68,-425 -18.61,-360.13 6.68,-325.37 6.68,-244.5 6.68,-244.5 6.68,-244.5 6.68,-112 6.68,-61.65 72.37,-38.41 113.11,-28.84"/>
<polygon fill="black" stroke="black" points="114.1,-32.21 123.12,-26.64 112.6,-25.37 114.1,-32.21"/>
<text text-anchor="middle" x="16.18" y="-283.3" font-family="Sans Not-Rotated 14" font-size="14.00"> &#160;&#160;&#160;</text>
</g>
<!-- Meas missing operator&#45;&gt;Red zone operator -->
<g id="edge14" class="edge">
<title>Meas missing operator&#45;&gt;Red zone operator</title>
<path fill="none" stroke="black" stroke-width="1.11" d="M358.92,-40.05C345.66,-45.59 332.46,-52.77 321.68,-62 268.82,-107.29 286.31,-151.75 307.68,-218 325.2,-272.31 410.76,-395.62 459.68,-425 482.21,-438.53 543.14,-447.61 594.87,-453.12"/>
<polygon fill="black" stroke="black" stroke-width="1.11" points="594.78,-456.63 605.08,-454.17 595.5,-449.66 594.78,-456.63"/>
<text text-anchor="middle" x="342.18" y="-239.8" font-family="Sans Not-Rotated 14" font-size="14.00"> &#160;&#160;&#160;&#160;&#160;&#160;&#160;&#160;</text>
</g>
<!-- Meas missing operator&#45;&gt;Yellow zone Therapy control operator -->
<g id="edge33" class="edge">
<title>Meas missing operator&#45;&gt;Yellow zone Therapy control operator</title>
<path fill="none" stroke="black" stroke-width="1.03" d="M343.76,-40.09C329.49,-45.53 315.43,-52.67 303.68,-62 290.25,-72.67 291.16,-79.57 283.68,-95 208.78,-249.59 167.38,-323.17 239.68,-479 247.66,-496.19 250.07,-502.88 266.68,-512 304.08,-532.54 401.33,-543.68 486.61,-549.65"/>
<polygon fill="black" stroke="black" stroke-width="1.03" points="486.46,-553.15 496.67,-550.34 486.94,-546.17 486.46,-553.15"/>
<text text-anchor="middle" x="220.18" y="-283.3" font-family="Sans Not-Rotated 14" font-size="14.00"> &#160;&#160;&#160;</text>
</g>
<!-- Meas missing operator&#45;&gt;Notification operator -->
<g id="edge43" class="edge">
<title>Meas missing operator&#45;&gt;Notification operator</title>
<path fill="none" stroke="black" stroke-width="1.47" d="M416.11,-40.2C407.34,-64.15 392.27,-109.12 386.68,-149 385.63,-156.51 386.4,-164.59 387.89,-172.02"/>
<polygon fill="black" stroke="black" stroke-width="1.47" points="384.55,-173.1 390.37,-181.96 391.35,-171.41 384.55,-173.1"/>
<text text-anchor="middle" x="419.18" y="-109.3" font-family="Sans Not-Rotated 14" font-size="14.00"> &#160;&#160;&#160;&#160;&#160;&#160;&#160;&#160;</text>
</g>
<!-- Meas missing doctor -->
<g id="node9" class="node">
<title>Meas missing doctor</title>
<polygon fill="#c0bde9" stroke="black" points="621.18,-131 466.18,-131 466.18,-95 621.18,-95 621.18,-131"/>
<text text-anchor="middle" x="543.68" y="-109.3" font-family="Sans Not-Rotated 14" font-size="14.00">Meas missing doctor</text>
</g>
<!-- Meas missing operator&#45;&gt;Meas missing doctor -->
<g id="edge2" class="edge">
<title>Meas missing operator&#45;&gt;Meas missing doctor</title>
<path fill="none" stroke="black" stroke-width="2.59" d="M490.07,-40.08C502.36,-45.54 514.25,-52.69 523.68,-62 530.02,-68.26 534.41,-76.79 537.42,-85.02"/>
<polygon fill="black" stroke="black" stroke-width="2.59" points="534.14,-86.25 540.45,-94.76 540.82,-84.17 534.14,-86.25"/>
<text text-anchor="middle" x="570.18" y="-65.8" font-family="Sans Not-Rotated 14" font-size="14.00"> &#160;&#160;&#160;&#160;&#160;&#160;&#160;&#160;&#160;&#160;&#160;&#160;&#160;&#160;&#160;</text>
</g>
<!-- Meas missing operator&#45;&gt;Yellow zone doctor -->
<g id="edge51" class="edge">
<title>Meas missing operator&#45;&gt;Yellow zone doctor</title>
<path fill="none" stroke="black" stroke-width="1.12" d="M508.34,-25.29C592.84,-28.9 715.07,-38.19 755.68,-62 829.54,-105.3 810.73,-154.98 868.68,-218 883.36,-233.96 901.6,-249.88 916.85,-262.29"/>
<polygon fill="black" stroke="black" stroke-width="1.12" points="914.99,-265.28 924.98,-268.81 919.37,-259.82 914.99,-265.28"/>
<text text-anchor="middle" x="852.18" y="-152.8" font-family="Sans Not-Rotated 14" font-size="14.00"> &#160;&#160;&#160;&#160;&#160;&#160;&#160;&#160;</text>
</g>
<!-- Notification operator&#45;&gt;Program change operator -->
<g id="edge5" class="edge">
<title>Notification operator&#45;&gt;Program change operator</title>
<path fill="none" stroke="black" stroke-width="1" d="M317.09,-204.74C228.27,-209.69 94.69,-219.73 77.68,-236 16.39,-294.61 11.95,-559.44 73.68,-617.6 107.94,-649.87 396.14,-653.86 556.69,-653.53"/>
<polygon fill="black" stroke="black" stroke-width="1" points="557.09,-657.03 567.08,-653.5 557.07,-650.03 557.09,-657.03"/>
<text text-anchor="middle" x="40.18" y="-413.8" font-family="Sans Not-Rotated 14" font-size="14.00"> &#160;&#160;&#160;</text>
</g>
<!-- Notification operator&#45;&gt;Red zone operator -->
<g id="edge12" class="edge">
<title>Notification operator&#45;&gt;Red zone operator</title>
<path fill="none" stroke="black" stroke-width="1.37" d="M400.21,-218.25C410.39,-266.17 441.28,-399.05 475.68,-425 494.48,-439.18 547.82,-448.06 594.97,-453.32"/>
<polygon fill="black" stroke="black" stroke-width="1.37" points="594.61,-456.8 604.92,-454.39 595.36,-449.84 594.61,-456.8"/>
<text text-anchor="middle" x="452.18" y="-326.8" font-family="Sans Not-Rotated 14" font-size="14.00"> &#160;&#160;&#160;&#160;&#160;&#160;&#160;&#160;</text>
</g>
<!-- Notification operator&#45;&gt;Red zone doctor FD -->
<g id="edge61" class="edge">
<title>Notification operator&#45;&gt;Red zone doctor FD</title>
<path fill="none" stroke="black" stroke-width="1.09" d="M423.16,-218.18C464.49,-244.7 542.78,-293.76 573.68,-305 728.84,-361.47 778.21,-332.7 941.68,-356 944.07,-356.34 946.49,-356.7 948.93,-357.07"/>
<polygon fill="black" stroke="black" stroke-width="1.09" points="948.64,-360.56 959.06,-358.66 949.73,-353.65 948.64,-360.56"/>
<text text-anchor="middle" x="583.18" y="-283.3" font-family="Sans Not-Rotated 14" font-size="14.00"> &#160;&#160;&#160;</text>
</g>
<!-- Notification operator&#45;&gt;Yellow zone doctor FD -->
<g id="edge21" class="edge">
<title>Notification operator&#45;&gt;Yellow zone doctor FD</title>
<path fill="none" stroke="black" stroke-width="1.31" d="M476.54,-182.34C504.15,-176.56 535.28,-170.02 563.68,-164 594.81,-157.4 602.26,-153.99 633.68,-149 713.84,-136.27 805.53,-127.08 872.85,-121.32"/>
<polygon fill="black" stroke="black" stroke-width="1.31" points="873.36,-124.79 883.03,-120.45 872.77,-117.81 873.36,-124.79"/>
<text text-anchor="middle" x="654.18" y="-152.8" font-family="Sans Not-Rotated 14" font-size="14.00"> &#160;&#160;&#160;&#160;&#160;&#160;&#160;&#160;</text>
</g>
<!-- Notification operator&#45;&gt;Red zone doctor -->
<g id="edge28" class="edge">
<title>Notification operator&#45;&gt;Red zone doctor</title>
<path fill="none" stroke="black" stroke-width="1.15" d="M469.52,-181.98C490.95,-176.62 514.35,-170.41 535.68,-164 556.88,-157.62 610.5,-142.06 629.68,-131 650.98,-118.72 650.12,-106.81 671.68,-95 716.07,-70.68 731.13,-72.34 780.68,-62 867.3,-43.92 968.58,-33.5 1035.86,-28.06"/>
<polygon fill="black" stroke="black" stroke-width="1.15" points="1036.26,-31.54 1045.95,-27.26 1035.7,-24.56 1036.26,-31.54"/>
<text text-anchor="middle" x="692.18" y="-109.3" font-family="Sans Not-Rotated 14" font-size="14.00"> &#160;&#160;&#160;&#160;&#160;&#160;&#160;&#160;</text>
</g>
<!-- Notification operator&#45;&gt;Yellow zone Therapy control operator -->
<g id="edge31" class="edge">
<title>Notification operator&#45;&gt;Yellow zone Therapy control operator</title>
<path fill="none" stroke="black" stroke-width="1.07" d="M386.69,-218.28C377.96,-235.03 366.68,-261.43 366.68,-286 366.68,-462 366.68,-462 366.68,-462 366.68,-496.68 447.31,-521.65 520.28,-537.15"/>
<polygon fill="black" stroke="black" stroke-width="1.07" points="520.02,-540.67 530.52,-539.27 521.44,-533.82 520.02,-540.67"/>
<text text-anchor="middle" x="376.18" y="-370.3" font-family="Sans Not-Rotated 14" font-size="14.00"> &#160;&#160;&#160;</text>
</g>
<!-- Notification operator&#45;&gt;Meas missing operator -->
<g id="edge35" class="edge">
<title>Notification operator&#45;&gt;Meas missing operator</title>
<path fill="none" stroke="black" stroke-width="2.77" d="M362.69,-181.99C343.77,-170.47 322.02,-153.29 311.68,-131 304.95,-116.49 304.04,-109.06 311.68,-95 323.82,-72.66 346.21,-56.18 367.72,-44.66"/>
<polygon fill="black" stroke="black" stroke-width="2.77" points="369.52,-47.68 376.85,-40.03 366.35,-41.43 369.52,-47.68"/>
<text text-anchor="middle" x="348.18" y="-109.3" font-family="Sans Not-Rotated 14" font-size="14.00"> &#160;&#160;&#160;&#160;&#160;&#160;&#160;&#160;&#160;&#160;&#160;&#160;&#160;&#160;&#160;</text>
</g>
<!-- Notification operator&#45;&gt;Notification operator -->
<g id="edge67" class="edge">
<title>Notification operator&#45;&gt;Notification operator</title>
<path fill="none" stroke="black" stroke-width="2.07" d="M476.25,-206.99C487.01,-205.82 494.18,-203.49 494.18,-200 494.18,-197.77 491.24,-196.01 486.3,-194.72"/>
<polygon fill="black" stroke="black" stroke-width="2.07" points="486.7,-191.24 476.25,-193.01 485.52,-198.14 486.7,-191.24"/>
<text text-anchor="middle" x="514.68" y="-196.3" font-family="Sans Not-Rotated 14" font-size="14.00"> &#160;&#160;&#160;&#160;&#160;&#160;&#160;&#160;</text>
</g>
<!-- Notification operator&#45;&gt;Meas missing doctor -->
<g id="edge45" class="edge">
<title>Notification operator&#45;&gt;Meas missing doctor</title>
<path fill="none" stroke="black" stroke-width="1.11" d="M391.3,-181.97C389.07,-171.4 388.46,-158.12 395.68,-149 400.06,-143.47 426.59,-136.45 456.01,-130.15"/>
<polygon fill="black" stroke="black" stroke-width="1.11" points="457,-133.52 466.08,-128.05 455.57,-126.67 457,-133.52"/>
<text text-anchor="middle" x="416.18" y="-152.8" font-family="Sans Not-Rotated 14" font-size="14.00"> &#160;&#160;&#160;&#160;&#160;&#160;&#160;&#160;</text>
</g>
<!-- Notification operator&#45;&gt;Yellow zone doctor -->
<g id="edge48" class="edge">
<title>Notification operator&#45;&gt;Yellow zone doctor</title>
<path fill="none" stroke="black" stroke-width="1.68" d="M476.35,-206.47C569.27,-213.19 717.11,-225.05 771.68,-236 793.59,-240.4 798.23,-244.72 819.68,-251 837.12,-256.11 855.97,-261.39 873.7,-266.26"/>
<polygon fill="black" stroke="black" stroke-width="1.68" points="872.85,-269.65 883.42,-268.91 874.7,-262.9 872.85,-269.65"/>
<text text-anchor="middle" x="840.18" y="-239.8" font-family="Sans Not-Rotated 14" font-size="14.00"> &#160;&#160;&#160;&#160;&#160;&#160;&#160;&#160;</text>
</g>
<!-- Notification operator&#45;&gt;end -->
<g id="edge53" class="edge">
<title>Notification operator&#45;&gt;end</title>
<path fill="none" stroke="black" stroke-dasharray="5,2" d="M358.13,-181.95C346.04,-176.42 332.72,-170.13 320.68,-164 293.9,-150.37 286,-148.65 261.68,-131 225.7,-104.89 188.75,-68.96 166.25,-45.86"/>
<polygon fill="black" stroke="black" points="168.66,-43.31 159.2,-38.55 163.62,-48.17 168.66,-43.31"/>
<text text-anchor="middle" x="282.18" y="-109.3" font-family="Sans Not-Rotated 14" font-size="14.00"> &#160;&#160;&#160;&#160;&#160;&#160;&#160;&#160;</text>
</g>
<!-- Meas missing doctor&#45;&gt;Red zone operator -->
<g id="edge62" class="edge">
<title>Meas missing doctor&#45;&gt;Red zone operator</title>
<path fill="none" stroke="black" stroke-width="1.06" d="M548.65,-131.2C553.91,-153.02 559.45,-191.04 543.68,-218 535.44,-232.09 523,-224.25 511.68,-236 500.23,-247.88 498.57,-252.97 494.68,-269 478.22,-336.88 465.62,-374.31 513.68,-425 525.3,-437.26 560.09,-445.6 594.65,-451.05"/>
<polygon fill="black" stroke="black" stroke-width="1.06" points="594.44,-454.56 604.85,-452.58 595.48,-447.63 594.44,-454.56"/>
<text text-anchor="middle" x="504.18" y="-283.3" font-family="Sans Not-Rotated 14" font-size="14.00"> &#160;&#160;&#160;</text>
</g>
<!-- Meas missing doctor&#45;&gt;Yellow zone Therapy control operator -->
<g id="edge34" class="edge">
<title>Meas missing doctor&#45;&gt;Yellow zone Therapy control operator</title>
<path fill="none" stroke="black" stroke-width="1.01" d="M465.9,-128.5C440.4,-134.01 412.1,-140.93 386.68,-149 350.41,-160.52 339.48,-161.1 307.68,-182 278.79,-200.99 266.55,-204.78 251.68,-236 233.75,-273.66 243.68,-287.79 243.68,-329.5 243.68,-462 243.68,-462 243.68,-462 243.68,-514.02 375.83,-537.42 486.67,-547.9"/>
<polygon fill="black" stroke="black" stroke-width="1.01" points="486.37,-551.39 496.65,-548.82 487.01,-544.42 486.37,-551.39"/>
<text text-anchor="middle" x="253.18" y="-326.8" font-family="Sans Not-Rotated 14" font-size="14.00"> &#160;&#160;&#160;</text>
</g>
<!-- Meas missing doctor&#45;&gt;Meas missing operator -->
<g id="edge37" class="edge">
<title>Meas missing doctor&#45;&gt;Meas missing operator</title>
<path fill="none" stroke="black" stroke-width="1.37" d="M466.7,-94.9C457.1,-90.29 448.07,-84.43 440.68,-77 433.52,-69.79 429.2,-59.67 426.61,-50.13"/>
<polygon fill="black" stroke="black" stroke-width="1.37" points="429.98,-49.18 424.41,-40.17 423.15,-50.69 429.98,-49.18"/>
<text text-anchor="middle" x="461.18" y="-65.8" font-family="Sans Not-Rotated 14" font-size="14.00"> &#160;&#160;&#160;&#160;&#160;&#160;&#160;&#160;</text>
</g>
<!-- Meas missing doctor&#45;&gt;Notification operator -->
<g id="edge41" class="edge">
<title>Meas missing doctor&#45;&gt;Notification operator</title>
<path fill="none" stroke="black" stroke-width="2.15" d="M499.02,-131.02C486.93,-136.23 474.06,-142.36 462.68,-149 449.49,-156.69 435.88,-166.61 424.48,-175.58"/>
<polygon fill="black" stroke="black" stroke-width="2.15" points="422.21,-172.91 416.6,-181.9 426.59,-178.38 422.21,-172.91"/>
<text text-anchor="middle" x="499.18" y="-152.8" font-family="Sans Not-Rotated 14" font-size="14.00"> &#160;&#160;&#160;&#160;&#160;&#160;&#160;&#160;&#160;&#160;&#160;&#160;&#160;&#160;&#160;</text>
</g>
<!-- Meas missing doctor&#45;&gt;Yellow zone doctor -->
<g id="edge52" class="edge">
<title>Meas missing doctor&#45;&gt;Yellow zone doctor</title>
<path fill="none" stroke="black" stroke-width="1.07" d="M621.47,-128.43C626.28,-129.3 631.04,-130.17 635.68,-131 681.42,-139.22 702.52,-119.81 738.68,-149 764.43,-169.79 741.1,-197 766.68,-218 799.56,-244.99 820.8,-221.2 860.68,-236 866.07,-238 889.08,-251.26 910.07,-263.61"/>
<polygon fill="black" stroke="black" stroke-width="1.07" points="908.5,-266.75 918.89,-268.82 912.06,-260.72 908.5,-266.75"/>
<text text-anchor="middle" x="776.18" y="-196.3" font-family="Sans Not-Rotated 14" font-size="14.00"> &#160;&#160;&#160;</text>
</g>
<!-- Yellow zone doctor&#45;&gt;Program change operator -->
<g id="edge7" class="edge">
<title>Yellow zone doctor&#45;&gt;Program change operator</title>
<path fill="none" stroke="black" d="M1022.22,-296.45C1209.54,-320.61 1674.96,-400.45 1530.68,-584.6 1506.2,-615.84 1486.49,-609.26 1447.68,-617.6 1321.76,-644.63 954.26,-650.82 770.66,-652.21"/>
<polygon fill="black" stroke="black" points="770.42,-648.72 760.45,-652.29 770.47,-655.72 770.42,-648.72"/>
<text text-anchor="middle" x="1549.18" y="-457.3" font-family="Sans Not-Rotated 14" font-size="14.00"> </text>
</g>
<!-- Yellow zone doctor&#45;&gt;Red zone operator -->
<g id="edge13" class="edge">
<title>Yellow zone doctor&#45;&gt;Red zone operator</title>
<path fill="none" stroke="black" stroke-width="1.21" d="M906.15,-305.06C894.17,-310.4 881.23,-316.58 869.68,-323 808.21,-357.16 742.81,-407.14 706.41,-436.34"/>
<polygon fill="black" stroke="black" stroke-width="1.21" points="703.82,-433.94 698.24,-442.95 708.22,-439.39 703.82,-433.94"/>
<text text-anchor="middle" x="834.18" y="-370.3" font-family="Sans Not-Rotated 14" font-size="14.00"> &#160;&#160;&#160;&#160;&#160;&#160;&#160;&#160;</text>
</g>
<!-- Yellow zone doctor&#45;&gt;Red zone doctor FD -->
<g id="edge18" class="edge">
<title>Yellow zone doctor&#45;&gt;Red zone doctor FD</title>
<path fill="none" stroke="black" stroke-width="1.28" d="M963.33,-305.02C972.54,-314.86 984.54,-327.36 995.68,-338 999.5,-341.65 1003.62,-345.42 1007.7,-349.07"/>
<polygon fill="black" stroke="black" stroke-width="1.28" points="1005.62,-351.9 1015.43,-355.89 1010.25,-346.65 1005.62,-351.9"/>
<text text-anchor="middle" x="1016.18" y="-326.8" font-family="Sans Not-Rotated 14" font-size="14.00"> &#160;&#160;&#160;&#160;&#160;&#160;&#160;&#160;</text>
</g>
<!-- Yellow zone doctor&#45;&gt;Yellow zone doctor FD -->
<g id="edge19" class="edge">
<title>Yellow zone doctor&#45;&gt;Yellow zone doctor FD</title>
<path fill="none" stroke="black" stroke-width="3.63" d="M949.87,-268.88C953.69,-239 961.61,-177.11 966.19,-141.27"/>
<polygon fill="black" stroke="black" stroke-width="3.63" points="969.7,-141.41 967.5,-131.05 962.76,-140.53 969.7,-141.41"/>
<text text-anchor="middle" x="997.18" y="-196.3" font-family="Sans Not-Rotated 14" font-size="14.00"> &#160;&#160;&#160;&#160;&#160;&#160;&#160;&#160;&#160;&#160;&#160;&#160;&#160;&#160;&#160;</text>
</g>
<!-- Yellow zone doctor&#45;&gt;Red zone doctor -->
<g id="edge63" class="edge">
<title>Yellow zone doctor&#45;&gt;Red zone doctor</title>
<path fill="none" stroke="black" stroke-width="1.07" d="M1022.39,-276.15C1052.77,-270.54 1083.01,-262.33 1092.68,-251 1117.88,-221.47 1115.08,-104.04 1112.36,-50.21"/>
<polygon fill="black" stroke="black" stroke-width="1.07" points="1115.84,-49.84 1111.81,-40.04 1108.85,-50.22 1115.84,-49.84"/>
<text text-anchor="middle" x="1122.18" y="-152.8" font-family="Sans Not-Rotated 14" font-size="14.00"> &#160;&#160;&#160;</text>
</g>
<!-- Yellow zone doctor&#45;&gt;Notification operator -->
<g id="edge42" class="edge">
<title>Yellow zone doctor&#45;&gt;Notification operator</title>
<path fill="none" stroke="black" stroke-width="1.37" d="M873.05,-281.59C763.66,-274.83 569.38,-261.57 538.68,-251 527.14,-247.03 526.76,-241.11 515.68,-236 503.41,-230.34 490,-225.35 476.75,-221.05"/>
<polygon fill="black" stroke="black" stroke-width="1.37" points="477.73,-217.69 467.15,-218.03 475.64,-224.37 477.73,-217.69"/>
<text text-anchor="middle" x="559.18" y="-239.8" font-family="Sans Not-Rotated 14" font-size="14.00"> &#160;&#160;&#160;&#160;&#160;&#160;&#160;&#160;</text>
</g>
<!-- start -->
<g id="node11" class="node">
<title>start</title>
<ellipse fill="#95d600" stroke="black" cx="1470.68" cy="-557.3" rx="27.1" ry="27.1"/>
<text text-anchor="middle" x="1470.68" y="-553.6" font-family="Sans Not-Rotated 14" font-size="14.00">start</text>
</g>
<!-- start&#45;&gt;Red zone operator -->
<g id="edge10" class="edge">
<title>start&#45;&gt;Red zone operator</title>
<path fill="none" stroke="black" stroke-dasharray="5,2" d="M1443.38,-553.05C1335.37,-540.21 935.26,-492.63 760.38,-471.83"/>
<polygon fill="black" stroke="black" points="760.54,-468.33 750.2,-470.62 759.72,-475.28 760.54,-468.33"/>
<text text-anchor="middle" x="1118.18" y="-500.8" font-family="Sans Not-Rotated 14" font-size="14.00"> &#160;&#160;&#160;&#160;&#160;&#160;&#160;&#160;</text>
</g>
<!-- start&#45;&gt;Red zone doctor -->
<g id="edge27" class="edge">
<title>start&#45;&gt;Red zone doctor</title>
<path fill="none" stroke="black" stroke-dasharray="5,2" d="M1477.93,-530.82C1485.57,-506.73 1499.21,-470.31 1518.68,-443 1525.62,-433.26 1533.27,-435.66 1538.68,-425 1611.8,-280.89 1668.89,-181.11 1559.68,-62 1534.98,-35.07 1307.25,-26.67 1185.94,-24.1"/>
<polygon fill="black" stroke="black" points="1185.68,-20.6 1175.62,-23.89 1185.54,-27.6 1185.68,-20.6"/>
<text text-anchor="middle" x="1618.18" y="-283.3" font-family="Sans Not-Rotated 14" font-size="14.00"> &#160;&#160;&#160;</text>
</g>
</g>
</svg>
