<?xml version="1.0" encoding="UTF-8" standalone="no"?>
<!DOCTYPE svg PUBLIC "-//W3C//DTD SVG 1.1//EN"
 "http://www.w3.org/Graphics/SVG/1.1/DTD/svg11.dtd">
<!-- Generated by graphviz version 3.0.0 (20220226.1711)
 -->
<!-- Pages: 1 -->
<svg width="681pt" height="854pt"
 viewBox="0.00 0.00 680.50 853.60" xmlns="http://www.w3.org/2000/svg" xmlns:xlink="http://www.w3.org/1999/xlink">
<g id="graph0" class="graph" transform="scale(1 1) rotate(0) translate(4 849.6)">
<polygon fill="white" stroke="transparent" points="-4,4 -4,-849.6 676.5,-849.6 676.5,4 -4,4"/>
<!-- Program change operator -->
<g id="node1" class="node">
<title>Program change operator</title>
<polygon fill="#ffffff" stroke="black" points="193,-845.6 0,-845.6 0,-809.6 193,-809.6 193,-845.6"/>
<text text-anchor="middle" x="96.5" y="-823.9" font-family="Sans Not-Rotated 14" font-size="14.00">Program change operator</text>
</g>
<!-- Yellow zone Therapy control operator -->
<g id="node6" class="node">
<title>Yellow zone Therapy control operator</title>
<polygon fill="#e0ddf4" stroke="black" points="668.5,-749.3 390.5,-749.3 390.5,-713.3 668.5,-713.3 668.5,-749.3"/>
<text text-anchor="middle" x="529.5" y="-727.6" font-family="Sans Not-Rotated 14" font-size="14.00">Yellow zone Therapy control operator</text>
</g>
<!-- Program change operator&#45;&gt;Yellow zone Therapy control operator -->
<g id="edge1" class="edge">
<title>Program change operator&#45;&gt;Yellow zone Therapy control operator</title>
<path fill="none" stroke="black" stroke-width="1.01" d="M174.66,-809.57C249.77,-793.22 363.09,-768.54 441.37,-751.49"/>
<polygon fill="black" stroke="black" stroke-width="1.01" points="442.19,-754.89 451.21,-749.35 440.7,-748.06 442.19,-754.89"/>
<text text-anchor="middle" x="336" y="-780.4" font-family="Sans Not-Rotated 14" font-size="14.00"> &#160;&#160;&#160;</text>
</g>
<!-- Red zone operator -->
<g id="node2" class="node">
<title>Red zone operator</title>
<polygon fill="#1d2559" stroke="black" points="416,-653 271,-653 271,-617 416,-617 416,-653"/>
<text text-anchor="middle" x="343.5" y="-631.3" font-family="Sans Not-Rotated 14" font-size="14.00" fill="white">Red zone operator</text>
</g>
<!-- Red zone doctor FD -->
<g id="node3" class="node">
<title>Red zone doctor FD</title>
<polygon fill="#1d2559" stroke="black" points="501,-479 348,-479 348,-443 501,-443 501,-479"/>
<text text-anchor="middle" x="424.5" y="-457.3" font-family="Sans Not-Rotated 14" font-size="14.00" fill="white">Red zone doctor FD</text>
</g>
<!-- Red zone operator&#45;&gt;Red zone doctor FD -->
<g id="edge8" class="edge">
<title>Red zone operator&#45;&gt;Red zone doctor FD</title>
<path fill="none" stroke="black" stroke-width="3.34" d="M365.85,-616.86C380.43,-604.4 398.54,-586.22 408.5,-566 420.38,-541.89 423.89,-511.14 424.72,-489.34"/>
<polygon fill="black" stroke="black" stroke-width="3.34" points="428.23,-489.21 424.95,-479.14 421.23,-489.06 428.23,-489.21"/>
<text text-anchor="middle" x="457" y="-544.3" font-family="Sans Not-Rotated 14" font-size="14.00"> &#160;&#160;&#160;&#160;&#160;&#160;&#160;&#160;&#160;&#160;&#160;&#160;&#160;&#160;&#160;</text>
</g>
<!-- Red zone doctor -->
<g id="node5" class="node">
<title>Red zone doctor</title>
<polygon fill="#1f3b98" stroke="black" points="285,-566 156,-566 156,-530 285,-530 285,-566"/>
<text text-anchor="middle" x="220.5" y="-544.3" font-family="Sans Not-Rotated 14" font-size="14.00" fill="white">Red zone doctor</text>
</g>
<!-- Red zone operator&#45;&gt;Red zone doctor -->
<g id="edge10" class="edge">
<title>Red zone operator&#45;&gt;Red zone doctor</title>
<path fill="none" stroke="black" stroke-width="5" d="M270.77,-628.83C228.05,-624.11 179.87,-615.28 166.5,-599 158.68,-589.48 164.41,-580.04 174.59,-571.97"/>
<polygon fill="black" stroke="black" stroke-width="5" points="177.37,-575.37 183.1,-566.08 172.39,-568.18 177.37,-575.37"/>
<text text-anchor="middle" x="203" y="-587.8" font-family="Sans Not-Rotated 14" font-size="14.00"> &#160;&#160;&#160;&#160;&#160;&#160;&#160;&#160;&#160;&#160;&#160;&#160;&#160;&#160;&#160;</text>
</g>
<!-- Red zone doctor FD&#45;&gt;Red zone operator -->
<g id="edge5" class="edge">
<title>Red zone doctor FD&#45;&gt;Red zone operator</title>
<path fill="none" stroke="black" stroke-width="3.43" d="M388.27,-479.27C368.78,-490.69 346.53,-507.69 335.5,-530 329.08,-542.98 333.81,-580.35 338.26,-606.55"/>
<polygon fill="black" stroke="black" stroke-width="3.43" points="334.86,-607.42 340.05,-616.66 341.75,-606.2 334.86,-607.42"/>
<text text-anchor="middle" x="372" y="-544.3" font-family="Sans Not-Rotated 14" font-size="14.00"> &#160;&#160;&#160;&#160;&#160;&#160;&#160;&#160;&#160;&#160;&#160;&#160;&#160;&#160;&#160;</text>
</g>
<!-- Red zone doctor FD&#45;&gt;Red zone doctor FD -->
<g id="edge24" class="edge">
<title>Red zone doctor FD&#45;&gt;Red zone doctor FD</title>
<path fill="none" stroke="black" stroke-width="2.54" d="M501.25,-468.03C511.89,-466.87 519,-464.53 519,-461 519,-458.74 516.08,-456.97 511.19,-455.68"/>
<polygon fill="black" stroke="black" stroke-width="2.54" points="511.7,-452.22 501.25,-453.97 510.52,-459.12 511.7,-452.22"/>
<text text-anchor="middle" x="555.5" y="-457.3" font-family="Sans Not-Rotated 14" font-size="14.00"> &#160;&#160;&#160;&#160;&#160;&#160;&#160;&#160;&#160;&#160;&#160;&#160;&#160;&#160;&#160;</text>
</g>
<!-- Red zone doctor FD&#45;&gt;Yellow zone Therapy control operator -->
<g id="edge11" class="edge">
<title>Red zone doctor FD&#45;&gt;Yellow zone Therapy control operator</title>
<path fill="none" stroke="black" stroke-width="1.19" d="M450.28,-479.11C466.51,-491.32 486.42,-509.21 497.5,-530 527.39,-586.08 531.04,-662.62 530.59,-702.92"/>
<polygon fill="black" stroke="black" stroke-width="1.19" points="527.09,-702.97 530.38,-713.04 534.09,-703.11 527.09,-702.97"/>
<text text-anchor="middle" x="542" y="-587.8" font-family="Sans Not-Rotated 14" font-size="14.00"> &#160;&#160;&#160;&#160;&#160;&#160;&#160;&#160;</text>
</g>
<!-- Notification operator -->
<g id="node8" class="node">
<title>Notification operator</title>
<polygon fill="#1946ba" stroke="black" points="475,-218 316,-218 316,-182 475,-182 475,-218"/>
<text text-anchor="middle" x="395.5" y="-196.3" font-family="Sans Not-Rotated 14" font-size="14.00" fill="white">Notification operator</text>
</g>
<!-- Red zone doctor FD&#45;&gt;Notification operator -->
<g id="edge14" class="edge">
<title>Red zone doctor FD&#45;&gt;Notification operator</title>
<path fill="none" stroke="black" stroke-width="1.56" d="M423.66,-442.76C421.64,-405.07 415.78,-312.55 403.5,-236 403.07,-233.32 402.56,-230.54 402,-227.78"/>
<polygon fill="black" stroke="black" stroke-width="1.56" points="405.42,-227.02 399.86,-218 398.58,-228.52 405.42,-227.02"/>
<text text-anchor="middle" x="437" y="-326.8" font-family="Sans Not-Rotated 14" font-size="14.00"> &#160;&#160;&#160;&#160;&#160;&#160;&#160;&#160;</text>
</g>
<!-- Yellow zone doctor -->
<g id="node10" class="node">
<title>Yellow zone doctor</title>
<polygon fill="#7d7fd2" stroke="black" points="310,-392 161,-392 161,-356 310,-356 310,-392"/>
<text text-anchor="middle" x="235.5" y="-370.3" font-family="Sans Not-Rotated 14" font-size="14.00">Yellow zone doctor</text>
</g>
<!-- Red zone doctor FD&#45;&gt;Yellow zone doctor -->
<g id="edge16" class="edge">
<title>Red zone doctor FD&#45;&gt;Yellow zone doctor</title>
<path fill="none" stroke="black" stroke-width="2.04" d="M386.25,-442.8C356.31,-429.33 314.52,-410.54 282.53,-396.15"/>
<polygon fill="black" stroke="black" stroke-width="2.04" points="283.92,-392.94 273.37,-392.03 281.05,-399.32 283.92,-392.94"/>
<text text-anchor="middle" x="362" y="-413.8" font-family="Sans Not-Rotated 14" font-size="14.00"> &#160;&#160;&#160;&#160;&#160;&#160;&#160;&#160;</text>
</g>
<!-- Yellow zone doctor FD -->
<g id="node4" class="node">
<title>Yellow zone doctor FD</title>
<polygon fill="#5661c6" stroke="black" points="396,-305 223,-305 223,-269 396,-269 396,-305"/>
<text text-anchor="middle" x="309.5" y="-283.3" font-family="Sans Not-Rotated 14" font-size="14.00" fill="white">Yellow zone doctor FD</text>
</g>
<!-- Yellow zone doctor FD&#45;&gt;Program change operator -->
<g id="edge3" class="edge">
<title>Yellow zone doctor FD&#45;&gt;Program change operator</title>
<path fill="none" stroke="black" d="M224.64,-305.06C197.43,-311.1 171.08,-317.7 158.5,-323 120.56,-338.99 80.5,-331.82 80.5,-373 80.5,-732.3 80.5,-732.3 80.5,-732.3 80.5,-755.17 85.13,-780.73 89.41,-799.46"/>
<polygon fill="black" stroke="black" points="86.05,-800.46 91.79,-809.36 92.86,-798.82 86.05,-800.46"/>
<text text-anchor="middle" x="90" y="-544.3" font-family="Sans Not-Rotated 14" font-size="14.00"> &#160;&#160;&#160;</text>
</g>
<!-- Yellow zone doctor FD&#45;&gt;Red zone operator -->
<g id="edge19" class="edge">
<title>Yellow zone doctor FD&#45;&gt;Red zone operator</title>
<path fill="none" stroke="black" stroke-width="1.67" d="M245.59,-305.02C193.15,-320.92 127.5,-346.19 127.5,-373 127.5,-549 127.5,-549 127.5,-549 127.5,-575.38 137.65,-584.22 159.5,-599 176.23,-610.32 220.07,-618.9 260.76,-624.73"/>
<polygon fill="black" stroke="black" stroke-width="1.67" points="260.36,-628.2 270.74,-626.11 261.32,-621.27 260.36,-628.2"/>
<text text-anchor="middle" x="148" y="-457.3" font-family="Sans Not-Rotated 14" font-size="14.00"> &#160;&#160;&#160;&#160;&#160;&#160;&#160;&#160;</text>
</g>
<!-- Yellow zone doctor FD&#45;&gt;Notification operator -->
<g id="edge13" class="edge">
<title>Yellow zone doctor FD&#45;&gt;Notification operator</title>
<path fill="none" stroke="black" stroke-width="1.93" d="M326.9,-268.8C339.49,-256.36 356.68,-239.36 370.71,-225.5"/>
<polygon fill="black" stroke="black" stroke-width="1.93" points="373.47,-227.69 378.12,-218.18 368.55,-222.72 373.47,-227.69"/>
<text text-anchor="middle" x="379" y="-239.8" font-family="Sans Not-Rotated 14" font-size="14.00"> &#160;&#160;&#160;&#160;&#160;&#160;&#160;&#160;</text>
</g>
<!-- Yellow zone doctor FD&#45;&gt;Yellow zone doctor -->
<g id="edge17" class="edge">
<title>Yellow zone doctor FD&#45;&gt;Yellow zone doctor</title>
<path fill="none" stroke="black" stroke-width="2.15" d="M310.86,-305.17C310.82,-315.55 309.17,-328.54 302.5,-338 299.29,-342.56 295.29,-346.57 290.87,-350.08"/>
<polygon fill="black" stroke="black" stroke-width="2.15" points="288.72,-347.31 282.51,-355.9 292.72,-353.06 288.72,-347.31"/>
<text text-anchor="middle" x="346" y="-326.8" font-family="Sans Not-Rotated 14" font-size="14.00"> &#160;&#160;&#160;&#160;&#160;&#160;&#160;&#160;&#160;&#160;&#160;&#160;&#160;&#160;&#160;</text>
</g>
<!-- Red zone doctor&#45;&gt;Red zone operator -->
<g id="edge4" class="edge">
<title>Red zone doctor&#45;&gt;Red zone operator</title>
<path fill="none" stroke="black" stroke-width="3.46" d="M229.91,-566.2C236.47,-576.84 246.07,-590.13 257.5,-599 264.18,-604.19 271.74,-608.72 279.53,-612.64"/>
<polygon fill="black" stroke="black" stroke-width="3.46" points="278.2,-615.89 288.74,-616.98 281.18,-609.55 278.2,-615.89"/>
<text text-anchor="middle" x="294" y="-587.8" font-family="Sans Not-Rotated 14" font-size="14.00"> &#160;&#160;&#160;&#160;&#160;&#160;&#160;&#160;&#160;&#160;&#160;&#160;&#160;&#160;&#160;</text>
</g>
<!-- Red zone doctor&#45;&gt;Red zone doctor FD -->
<g id="edge7" class="edge">
<title>Red zone doctor&#45;&gt;Red zone doctor FD</title>
<path fill="none" stroke="black" stroke-width="3.5" d="M220.88,-529.79C222.06,-518.86 225.45,-505.27 234.5,-497 249.92,-482.92 295.29,-474.26 337.83,-469.07"/>
<polygon fill="black" stroke="black" stroke-width="3.5" points="338.46,-472.52 347.99,-467.89 337.65,-465.57 338.46,-472.52"/>
<text text-anchor="middle" x="271" y="-500.8" font-family="Sans Not-Rotated 14" font-size="14.00"> &#160;&#160;&#160;&#160;&#160;&#160;&#160;&#160;&#160;&#160;&#160;&#160;&#160;&#160;&#160;</text>
</g>
<!-- Yellow zone Therapy control operator&#45;&gt;Red zone operator -->
<g id="edge20" class="edge">
<title>Yellow zone Therapy control operator&#45;&gt;Red zone operator</title>
<path fill="none" stroke="black" stroke-width="1.14" d="M495.82,-713.22C465.1,-697.65 419.57,-674.56 386.29,-657.69"/>
<polygon fill="black" stroke="black" stroke-width="1.14" points="387.75,-654.51 377.25,-653.11 384.58,-660.75 387.75,-654.51"/>
<text text-anchor="middle" x="463" y="-674.8" font-family="Sans Not-Rotated 14" font-size="14.00"> &#160;&#160;&#160;&#160;&#160;&#160;&#160;&#160;</text>
</g>
<!-- Yellow zone Therapy control operator&#45;&gt;Red zone doctor FD -->
<g id="edge22" class="edge">
<title>Yellow zone Therapy control operator&#45;&gt;Red zone doctor FD</title>
<path fill="none" stroke="black" stroke-width="1.06" d="M540.28,-713.29C556.37,-685.66 583.08,-629.54 566.5,-584 549.24,-536.57 533.03,-528.39 493.5,-497 487.43,-492.18 480.6,-487.76 473.65,-483.8"/>
<polygon fill="black" stroke="black" stroke-width="1.06" points="475.3,-480.71 464.84,-479.04 471.97,-486.87 475.3,-480.71"/>
<text text-anchor="middle" x="580" y="-587.8" font-family="Sans Not-Rotated 14" font-size="14.00"> &#160;&#160;&#160;</text>
</g>
<!-- Yellow zone Therapy control operator&#45;&gt;Notification operator -->
<g id="edge21" class="edge">
<title>Yellow zone Therapy control operator&#45;&gt;Notification operator</title>
<path fill="none" stroke="black" stroke-width="1.1" d="M568.64,-713.17C597.41,-697.63 631.5,-671.69 631.5,-636 631.5,-636 631.5,-636 631.5,-286 631.5,-253.64 551.96,-230.2 485.23,-216.24"/>
<polygon fill="black" stroke="black" stroke-width="1.1" points="485.57,-212.73 475.07,-214.16 484.17,-219.59 485.57,-212.73"/>
<text text-anchor="middle" x="652" y="-457.3" font-family="Sans Not-Rotated 14" font-size="14.00"> &#160;&#160;&#160;&#160;&#160;&#160;&#160;&#160;</text>
</g>
<!-- Meas missing operator -->
<g id="node7" class="node">
<title>Meas missing operator</title>
<polygon fill="#a09dde" stroke="black" points="355,-127 184,-127 184,-91 355,-91 355,-127"/>
<text text-anchor="middle" x="269.5" y="-105.3" font-family="Sans Not-Rotated 14" font-size="14.00">Meas missing operator</text>
</g>
<!-- Meas missing doctor -->
<g id="node9" class="node">
<title>Meas missing doctor</title>
<polygon fill="#c0bde9" stroke="black" points="439,-36 284,-36 284,0 439,0 439,-36"/>
<text text-anchor="middle" x="361.5" y="-14.3" font-family="Sans Not-Rotated 14" font-size="14.00">Meas missing doctor</text>
</g>
<!-- Meas missing operator&#45;&gt;Meas missing doctor -->
<g id="edge2" class="edge">
<title>Meas missing operator&#45;&gt;Meas missing doctor</title>
<path fill="none" stroke="black" stroke-width="2.58" d="M287.24,-90.84C301.24,-77.3 320.94,-58.24 336.53,-43.15"/>
<polygon fill="black" stroke="black" stroke-width="2.58" points="339.06,-45.58 343.82,-36.11 334.2,-40.54 339.06,-45.58"/>
<text text-anchor="middle" x="361" y="-57.8" font-family="Sans Not-Rotated 14" font-size="14.00"> &#160;&#160;&#160;&#160;&#160;&#160;&#160;&#160;&#160;&#160;&#160;&#160;&#160;&#160;&#160;</text>
</g>
<!-- Notification operator&#45;&gt;Meas missing operator -->
<g id="edge12" class="edge">
<title>Notification operator&#45;&gt;Meas missing operator</title>
<path fill="none" stroke="black" stroke-width="2.76" d="M349.82,-181.93C339.07,-176.94 327.99,-170.92 318.5,-164 307.47,-155.96 297.04,-145.11 288.66,-135.25"/>
<polygon fill="black" stroke="black" stroke-width="2.76" points="291.18,-132.8 282.14,-127.28 285.77,-137.23 291.18,-132.8"/>
<text text-anchor="middle" x="355" y="-152.8" font-family="Sans Not-Rotated 14" font-size="14.00"> &#160;&#160;&#160;&#160;&#160;&#160;&#160;&#160;&#160;&#160;&#160;&#160;&#160;&#160;&#160;</text>
</g>
<!-- Notification operator&#45;&gt;Yellow zone doctor -->
<g id="edge23" class="edge">
<title>Notification operator&#45;&gt;Yellow zone doctor</title>
<path fill="none" stroke="black" stroke-width="1.66" d="M315.93,-214.97C259.19,-226.73 189.96,-245.42 172.5,-269 153.12,-295.18 179.99,-327.58 204.39,-349.19"/>
<polygon fill="black" stroke="black" stroke-width="1.66" points="202.29,-352 212.17,-355.81 206.82,-346.67 202.29,-352"/>
<text text-anchor="middle" x="193" y="-283.3" font-family="Sans Not-Rotated 14" font-size="14.00"> &#160;&#160;&#160;&#160;&#160;&#160;&#160;&#160;</text>
</g>
<!-- end -->
<g id="node12" class="node">
<title>end</title>
<ellipse fill="#ea4126" stroke="black" cx="395.5" cy="-109" rx="18" ry="18"/>
<ellipse fill="none" stroke="black" cx="395.5" cy="-109" rx="22" ry="22"/>
</g>
<!-- Notification operator&#45;&gt;end -->
<g id="edge18" class="edge">
<title>Notification operator&#45;&gt;end</title>
<path fill="none" stroke="black" stroke-dasharray="5,2" d="M395.5,-181.84C395.5,-170.44 395.5,-155.13 395.5,-141.58"/>
<polygon fill="black" stroke="black" points="399,-141.19 395.5,-131.19 392,-141.19 399,-141.19"/>
<text text-anchor="middle" x="416" y="-152.8" font-family="Sans Not-Rotated 14" font-size="14.00"> &#160;&#160;&#160;&#160;&#160;&#160;&#160;&#160;</text>
</g>
<!-- Meas missing doctor&#45;&gt;Notification operator -->
<g id="edge15" class="edge">
<title>Meas missing doctor&#45;&gt;Notification operator</title>
<path fill="none" stroke="black" stroke-width="2.13" d="M382.59,-36.04C388.92,-41.52 395.71,-47.79 401.5,-54 414.04,-67.46 418.87,-70.26 426.5,-87 438.17,-112.62 436.6,-121 439.5,-149 440.19,-155.63 442.4,-158 439.5,-164 437.64,-167.86 435.12,-171.42 432.23,-174.68"/>
<polygon fill="black" stroke="black" stroke-width="2.13" points="429.71,-172.25 424.94,-181.71 434.57,-177.29 429.71,-172.25"/>
<text text-anchor="middle" x="475" y="-105.3" font-family="Sans Not-Rotated 14" font-size="14.00"> &#160;&#160;&#160;&#160;&#160;&#160;&#160;&#160;&#160;&#160;&#160;&#160;&#160;&#160;&#160;</text>
</g>
<!-- Yellow zone doctor&#45;&gt;Yellow zone doctor FD -->
<g id="edge9" class="edge">
<title>Yellow zone doctor&#45;&gt;Yellow zone doctor FD</title>
<path fill="none" stroke="black" stroke-width="3.62" d="M228.19,-355.97C224.98,-345.65 223.18,-332.66 229.5,-323 232.43,-318.52 236.08,-314.6 240.19,-311.19"/>
<polygon fill="black" stroke="black" stroke-width="3.62" points="242.47,-313.86 248.6,-305.22 238.42,-308.16 242.47,-313.86"/>
<text text-anchor="middle" x="266" y="-326.8" font-family="Sans Not-Rotated 14" font-size="14.00"> &#160;&#160;&#160;&#160;&#160;&#160;&#160;&#160;&#160;&#160;&#160;&#160;&#160;&#160;&#160;</text>
</g>
<!-- start -->
<g id="node11" class="node">
<title>start</title>
<ellipse fill="#95d600" stroke="black" cx="343.5" cy="-731.3" rx="27.1" ry="27.1"/>
<text text-anchor="middle" x="343.5" y="-727.6" font-family="Sans Not-Rotated 14" font-size="14.00">start</text>
</g>
<!-- start&#45;&gt;Red zone operator -->
<g id="edge6" class="edge">
<title>start&#45;&gt;Red zone operator</title>
<path fill="none" stroke="black" stroke-dasharray="5,2" d="M343.5,-703.78C343.5,-691.1 343.5,-675.93 343.5,-663.17"/>
<polygon fill="black" stroke="black" points="347,-663.12 343.5,-653.12 340,-663.12 347,-663.12"/>
<text text-anchor="middle" x="364" y="-674.8" font-family="Sans Not-Rotated 14" font-size="14.00"> &#160;&#160;&#160;&#160;&#160;&#160;&#160;&#160;</text>
</g>
</g>
</svg>
