<?xml version="1.0" encoding="UTF-8" standalone="no"?>
<!DOCTYPE svg PUBLIC "-//W3C//DTD SVG 1.1//EN"
 "http://www.w3.org/Graphics/SVG/1.1/DTD/svg11.dtd">
<!-- Generated by graphviz version 3.0.0 (20220226.1711)
 -->
<!-- Pages: 1 -->
<svg width="1391pt" height="680pt"
 viewBox="0.00 0.00 1391.00 679.60" xmlns="http://www.w3.org/2000/svg" xmlns:xlink="http://www.w3.org/1999/xlink">
<g id="graph0" class="graph" transform="scale(1 1) rotate(0) translate(4 675.6)">
<polygon fill="white" stroke="transparent" points="-4,4 -4,-675.6 1387,-675.6 1387,4 -4,4"/>
<!-- Program change operator -->
<g id="node1" class="node">
<title>Program change operator</title>
<polygon fill="#ffffff" stroke="black" points="743.5,-671.6 550.5,-671.6 550.5,-635.6 743.5,-635.6 743.5,-671.6"/>
<text text-anchor="middle" x="647" y="-649.9" font-family="Sans Not-Rotated 14" font-size="14.00">Program change operator</text>
</g>
<!-- Yellow zone Therapy control operator -->
<g id="node6" class="node">
<title>Yellow zone Therapy control operator</title>
<polygon fill="#e0ddf4" stroke="black" points="786,-575.3 508,-575.3 508,-539.3 786,-539.3 786,-575.3"/>
<text text-anchor="middle" x="647" y="-553.6" font-family="Sans Not-Rotated 14" font-size="14.00">Yellow zone Therapy control operator</text>
</g>
<!-- Program change operator&#45;&gt;Yellow zone Therapy control operator -->
<g id="edge1" class="edge">
<title>Program change operator&#45;&gt;Yellow zone Therapy control operator</title>
<path fill="none" stroke="black" stroke-width="1.03" d="M647,-635.3C647,-621.48 647,-601.83 647,-585.85"/>
<polygon fill="black" stroke="black" stroke-width="1.03" points="650.5,-585.48 647,-575.48 643.5,-585.48 650.5,-585.48"/>
<text text-anchor="middle" x="656.5" y="-606.4" font-family="Sans Not-Rotated 14" font-size="14.00"> &#160;&#160;&#160;</text>
</g>
<!-- Notification operator -->
<g id="node8" class="node">
<title>Notification operator</title>
<polygon fill="#1946ba" stroke="black" points="290.5,-218 131.5,-218 131.5,-182 290.5,-182 290.5,-218"/>
<text text-anchor="middle" x="211" y="-196.3" font-family="Sans Not-Rotated 14" font-size="14.00" fill="white">Notification operator</text>
</g>
<!-- Program change operator&#45;&gt;Notification operator -->
<g id="edge44" class="edge">
<title>Program change operator&#45;&gt;Notification operator</title>
<path fill="none" stroke="black" stroke-width="1" d="M550.2,-639.98C452.52,-623.5 300.82,-587.34 191,-512 100.97,-450.24 118.65,-371.95 155,-269 160.81,-252.56 172.55,-237.27 183.79,-225.37"/>
<polygon fill="black" stroke="black" stroke-width="1" points="186.48,-227.63 191.04,-218.07 181.51,-222.7 186.48,-227.63"/>
<text text-anchor="middle" x="137.5" y="-413.8" font-family="Sans Not-Rotated 14" font-size="14.00"> &#160;&#160;&#160;</text>
</g>
<!-- Red zone operator -->
<g id="node2" class="node">
<title>Red zone operator</title>
<polygon fill="#1d2559" stroke="black" points="719.5,-479 574.5,-479 574.5,-443 719.5,-443 719.5,-479"/>
<text text-anchor="middle" x="647" y="-457.3" font-family="Sans Not-Rotated 14" font-size="14.00" fill="white">Red zone operator</text>
</g>
<!-- Red zone operator&#45;&gt;Red zone operator -->
<g id="edge55" class="edge">
<title>Red zone operator&#45;&gt;Red zone operator</title>
<path fill="none" stroke="black" stroke-width="1.52" d="M719.79,-468.11C730.37,-466.98 737.5,-464.61 737.5,-461 737.5,-458.69 734.57,-456.88 729.69,-455.59"/>
<polygon fill="black" stroke="black" stroke-width="1.52" points="730.24,-452.13 719.79,-453.89 729.05,-459.03 730.24,-452.13"/>
<text text-anchor="middle" x="758" y="-457.3" font-family="Sans Not-Rotated 14" font-size="14.00"> &#160;&#160;&#160;&#160;&#160;&#160;&#160;&#160;</text>
</g>
<!-- Red zone doctor FD -->
<g id="node3" class="node">
<title>Red zone doctor FD</title>
<polygon fill="#1d2559" stroke="black" points="896.5,-392 743.5,-392 743.5,-356 896.5,-356 896.5,-392"/>
<text text-anchor="middle" x="820" y="-370.3" font-family="Sans Not-Rotated 14" font-size="14.00" fill="white">Red zone doctor FD</text>
</g>
<!-- Red zone operator&#45;&gt;Red zone doctor FD -->
<g id="edge13" class="edge">
<title>Red zone operator&#45;&gt;Red zone doctor FD</title>
<path fill="none" stroke="black" stroke-width="3.35" d="M685.53,-442.99C697.1,-437.56 709.71,-431.31 721,-425 731.65,-419.04 733.32,-415.9 744,-410 752.49,-405.31 761.73,-400.68 770.74,-396.41"/>
<polygon fill="black" stroke="black" stroke-width="3.35" points="772.42,-399.48 780.01,-392.09 769.47,-393.14 772.42,-399.48"/>
<text text-anchor="middle" x="780.5" y="-413.8" font-family="Sans Not-Rotated 14" font-size="14.00"> &#160;&#160;&#160;&#160;&#160;&#160;&#160;&#160;&#160;&#160;&#160;&#160;&#160;&#160;&#160;</text>
</g>
<!-- Red zone doctor -->
<g id="node5" class="node">
<title>Red zone doctor</title>
<polygon fill="#1f3b98" stroke="black" points="1225.5,-36 1096.5,-36 1096.5,0 1225.5,0 1225.5,-36"/>
<text text-anchor="middle" x="1161" y="-14.3" font-family="Sans Not-Rotated 14" font-size="14.00" fill="white">Red zone doctor</text>
</g>
<!-- Red zone operator&#45;&gt;Red zone doctor -->
<g id="edge19" class="edge">
<title>Red zone operator&#45;&gt;Red zone doctor</title>
<path fill="none" stroke="black" stroke-width="5" d="M719.64,-450.39C740.11,-447.82 762.41,-445.16 783,-443 902.72,-430.42 954.38,-466.42 1049,-392 1118.17,-337.6 1154.62,-332.42 1188,-251 1191.46,-242.56 1219.31,-195.68 1180,-54 1179.18,-51.03 1178.06,-48.04 1176.79,-45.11"/>
<polygon fill="black" stroke="black" stroke-width="5" points="1180.69,-43.13 1172.31,-36.14 1172.86,-47.04 1180.69,-43.13"/>
<text text-anchor="middle" x="1229.5" y="-239.8" font-family="Sans Not-Rotated 14" font-size="14.00"> &#160;&#160;&#160;&#160;&#160;&#160;&#160;&#160;&#160;&#160;&#160;&#160;&#160;&#160;&#160;</text>
</g>
<!-- Red zone operator&#45;&gt;Yellow zone Therapy control operator -->
<g id="edge23" class="edge">
<title>Red zone operator&#45;&gt;Yellow zone Therapy control operator</title>
<path fill="none" stroke="black" stroke-width="1.05" d="M634.93,-479.03C631.7,-484.51 628.65,-490.78 627,-497 624.1,-507.9 626.85,-519.71 631.13,-529.9"/>
<polygon fill="black" stroke="black" stroke-width="1.05" points="628.07,-531.62 635.58,-539.1 634.37,-528.57 628.07,-531.62"/>
<text text-anchor="middle" x="636.5" y="-500.8" font-family="Sans Not-Rotated 14" font-size="14.00"> &#160;&#160;&#160;</text>
</g>
<!-- Yellow zone doctor -->
<g id="node10" class="node">
<title>Yellow zone doctor</title>
<polygon fill="#7d7fd2" stroke="black" points="629.5,-305 480.5,-305 480.5,-269 629.5,-269 629.5,-305"/>
<text text-anchor="middle" x="555" y="-283.3" font-family="Sans Not-Rotated 14" font-size="14.00">Yellow zone doctor</text>
</g>
<!-- Red zone operator&#45;&gt;Yellow zone doctor -->
<g id="edge41" class="edge">
<title>Red zone operator&#45;&gt;Yellow zone doctor</title>
<path fill="none" stroke="black" stroke-width="1.21" d="M604.63,-442.89C583.21,-431.82 559.23,-415.1 547,-392 534.42,-368.23 539.13,-337.05 545.3,-315.05"/>
<polygon fill="black" stroke="black" stroke-width="1.21" points="548.68,-315.94 548.27,-305.35 541.99,-313.88 548.68,-315.94"/>
<text text-anchor="middle" x="567.5" y="-370.3" font-family="Sans Not-Rotated 14" font-size="14.00"> &#160;&#160;&#160;&#160;&#160;&#160;&#160;&#160;</text>
</g>
<!-- Red zone doctor FD&#45;&gt;Program change operator -->
<g id="edge4" class="edge">
<title>Red zone doctor FD&#45;&gt;Program change operator</title>
<path fill="none" stroke="black" stroke-width="1" d="M859.57,-392.03C882.62,-403.6 910.83,-420.84 930,-443 973.67,-493.47 1022.21,-532.9 980,-584.6 951.73,-619.22 840.3,-636.68 754.03,-645.16"/>
<polygon fill="black" stroke="black" stroke-width="1" points="753.53,-641.69 743.91,-646.13 754.2,-648.66 753.53,-641.69"/>
<text text-anchor="middle" x="995.5" y="-500.8" font-family="Sans Not-Rotated 14" font-size="14.00"> &#160;&#160;&#160;</text>
</g>
<!-- Red zone doctor FD&#45;&gt;Red zone operator -->
<g id="edge7" class="edge">
<title>Red zone doctor FD&#45;&gt;Red zone operator</title>
<path fill="none" stroke="black" stroke-width="3.44" d="M743.37,-381.27C703.49,-386.27 660.49,-395.02 648,-410 642.76,-416.28 641.24,-424.71 641.42,-432.86"/>
<polygon fill="black" stroke="black" stroke-width="3.44" points="637.94,-433.23 642.39,-442.84 644.9,-432.55 637.94,-433.23"/>
<text text-anchor="middle" x="684.5" y="-413.8" font-family="Sans Not-Rotated 14" font-size="14.00"> &#160;&#160;&#160;&#160;&#160;&#160;&#160;&#160;&#160;&#160;&#160;&#160;&#160;&#160;&#160;</text>
</g>
<!-- Red zone doctor FD&#45;&gt;Red zone doctor FD -->
<g id="edge56" class="edge">
<title>Red zone doctor FD&#45;&gt;Red zone doctor FD</title>
<path fill="none" stroke="black" stroke-width="2.55" d="M896.75,-381.03C907.39,-379.87 914.5,-377.53 914.5,-374 914.5,-371.74 911.58,-369.97 906.69,-368.68"/>
<polygon fill="black" stroke="black" stroke-width="2.55" points="907.2,-365.22 896.75,-366.97 906.02,-372.12 907.2,-365.22"/>
<text text-anchor="middle" x="951" y="-370.3" font-family="Sans Not-Rotated 14" font-size="14.00"> &#160;&#160;&#160;&#160;&#160;&#160;&#160;&#160;&#160;&#160;&#160;&#160;&#160;&#160;&#160;</text>
</g>
<!-- Yellow zone doctor FD -->
<g id="node4" class="node">
<title>Yellow zone doctor FD</title>
<polygon fill="#5661c6" stroke="black" points="900.5,-127 727.5,-127 727.5,-91 900.5,-91 900.5,-127"/>
<text text-anchor="middle" x="814" y="-105.3" font-family="Sans Not-Rotated 14" font-size="14.00" fill="white">Yellow zone doctor FD</text>
</g>
<!-- Red zone doctor FD&#45;&gt;Yellow zone doctor FD -->
<g id="edge17" class="edge">
<title>Red zone doctor FD&#45;&gt;Yellow zone doctor FD</title>
<path fill="none" stroke="black" stroke-width="1.5" d="M831.04,-355.59C846.03,-329.88 870.07,-280.05 862,-236 855.44,-200.22 839.16,-161.46 827.38,-136.52"/>
<polygon fill="black" stroke="black" stroke-width="1.5" points="830.45,-134.84 822.96,-127.35 824.15,-137.88 830.45,-134.84"/>
<text text-anchor="middle" x="883.5" y="-239.8" font-family="Sans Not-Rotated 14" font-size="14.00"> &#160;&#160;&#160;&#160;&#160;&#160;&#160;&#160;</text>
</g>
<!-- Red zone doctor FD&#45;&gt;Red zone doctor -->
<g id="edge20" class="edge">
<title>Red zone doctor FD&#45;&gt;Red zone doctor</title>
<path fill="none" stroke="black" stroke-width="1.73" d="M849.21,-355.91C858.75,-350.27 869.36,-343.92 879,-338 880.32,-337.19 1066.97,-219.17 1068,-218 1113.98,-165.7 1141.68,-86.76 1153.79,-45.8"/>
<polygon fill="black" stroke="black" stroke-width="1.73" points="1157.2,-46.58 1156.6,-36 1150.47,-44.65 1157.2,-46.58"/>
<text text-anchor="middle" x="1114.5" y="-196.3" font-family="Sans Not-Rotated 14" font-size="14.00"> &#160;&#160;&#160;&#160;&#160;&#160;&#160;&#160;</text>
</g>
<!-- Red zone doctor FD&#45;&gt;Yellow zone Therapy control operator -->
<g id="edge22" class="edge">
<title>Red zone doctor FD&#45;&gt;Yellow zone Therapy control operator</title>
<path fill="none" stroke="black" stroke-width="1.21" d="M851.49,-392.05C858.41,-397.05 865.12,-403.07 870,-410 896.58,-447.78 889.8,-488.55 850,-512 832.29,-522.43 812.41,-530.41 792.2,-536.52"/>
<polygon fill="black" stroke="black" stroke-width="1.21" points="791.23,-533.16 782.58,-539.28 793.16,-539.89 791.23,-533.16"/>
<text text-anchor="middle" x="905.5" y="-457.3" font-family="Sans Not-Rotated 14" font-size="14.00"> &#160;&#160;&#160;&#160;&#160;&#160;&#160;&#160;</text>
</g>
<!-- Meas missing operator -->
<g id="node7" class="node">
<title>Meas missing operator</title>
<polygon fill="#a09dde" stroke="black" points="472.5,-36 301.5,-36 301.5,0 472.5,0 472.5,-36"/>
<text text-anchor="middle" x="387" y="-14.3" font-family="Sans Not-Rotated 14" font-size="14.00">Meas missing operator</text>
</g>
<!-- Red zone doctor FD&#45;&gt;Meas missing operator -->
<g id="edge30" class="edge">
<title>Red zone doctor FD&#45;&gt;Meas missing operator</title>
<path fill="none" stroke="black" stroke-width="1.08" d="M815.87,-355.83C807.14,-321.35 784.8,-241.87 751,-182 737.64,-158.34 697.01,-101.46 674,-87 616.52,-50.87 541.6,-33.93 482.72,-25.98"/>
<polygon fill="black" stroke="black" stroke-width="1.08" points="483.04,-22.5 472.67,-24.69 482.14,-29.44 483.04,-22.5"/>
<text text-anchor="middle" x="778.5" y="-196.3" font-family="Sans Not-Rotated 14" font-size="14.00"> &#160;&#160;&#160;</text>
</g>
<!-- Red zone doctor FD&#45;&gt;Notification operator -->
<g id="edge32" class="edge">
<title>Red zone doctor FD&#45;&gt;Notification operator</title>
<path fill="none" stroke="black" stroke-width="1.58" d="M743.48,-364.32C616.2,-349.57 371.23,-319.8 334,-305 295.5,-289.69 289.23,-278.23 258,-251 249.06,-243.21 239.97,-233.92 232.19,-225.47"/>
<polygon fill="black" stroke="black" stroke-width="1.58" points="234.76,-223.09 225.47,-218.02 229.57,-227.79 234.76,-223.09"/>
<text text-anchor="middle" x="354.5" y="-283.3" font-family="Sans Not-Rotated 14" font-size="14.00"> &#160;&#160;&#160;&#160;&#160;&#160;&#160;&#160;</text>
</g>
<!-- Red zone doctor FD&#45;&gt;Yellow zone doctor -->
<g id="edge37" class="edge">
<title>Red zone doctor FD&#45;&gt;Yellow zone doctor</title>
<path fill="none" stroke="black" stroke-width="2.06" d="M770.94,-355.93C755.53,-350.4 738.49,-344.11 723,-338 707.26,-331.79 704,-328.5 688,-323 671.86,-317.45 654.37,-312.27 637.53,-307.69"/>
<polygon fill="black" stroke="black" stroke-width="2.06" points="638.28,-304.27 627.71,-305.06 636.47,-311.03 638.28,-304.27"/>
<text text-anchor="middle" x="743.5" y="-326.8" font-family="Sans Not-Rotated 14" font-size="14.00"> &#160;&#160;&#160;&#160;&#160;&#160;&#160;&#160;</text>
</g>
<!-- Yellow zone doctor FD&#45;&gt;Program change operator -->
<g id="edge3" class="edge">
<title>Yellow zone doctor FD&#45;&gt;Program change operator</title>
<path fill="none" stroke="black" stroke-width="1.02" d="M856.29,-127C886.69,-138.71 928.88,-153.91 967,-164 1010.66,-175.55 1031.25,-154.41 1067,-182 1093.76,-202.65 1080.39,-222.78 1099,-251 1182.69,-377.88 1411.55,-390.67 1320,-512 1252.9,-600.93 925.87,-634.92 753.62,-646.81"/>
<polygon fill="black" stroke="black" stroke-width="1.02" points="753.25,-643.33 743.51,-647.49 753.73,-650.31 753.25,-643.33"/>
<text text-anchor="middle" x="1297.5" y="-370.3" font-family="Sans Not-Rotated 14" font-size="14.00"> &#160;&#160;&#160;</text>
</g>
<!-- Yellow zone doctor FD&#45;&gt;Red zone operator -->
<g id="edge9" class="edge">
<title>Yellow zone doctor FD&#45;&gt;Red zone operator</title>
<path fill="none" stroke="black" stroke-width="1.69" d="M840.48,-127.12C907.58,-172.55 1073.66,-299.01 997,-392 980.08,-412.53 828.04,-436.15 729.99,-449.45"/>
<polygon fill="black" stroke="black" stroke-width="1.69" points="729.24,-446.02 719.8,-450.83 730.17,-452.96 729.24,-446.02"/>
<text text-anchor="middle" x="1030.5" y="-283.3" font-family="Sans Not-Rotated 14" font-size="14.00"> &#160;&#160;&#160;&#160;&#160;&#160;&#160;&#160;</text>
</g>
<!-- Yellow zone doctor FD&#45;&gt;Red zone doctor FD -->
<g id="edge14" class="edge">
<title>Yellow zone doctor FD&#45;&gt;Red zone doctor FD</title>
<path fill="none" stroke="black" stroke-width="1.33" d="M814.4,-127.32C815.41,-171.97 818.14,-291.29 819.37,-345.51"/>
<polygon fill="black" stroke="black" stroke-width="1.33" points="815.88,-345.83 819.61,-355.74 822.88,-345.67 815.88,-345.83"/>
<text text-anchor="middle" x="837.5" y="-239.8" font-family="Sans Not-Rotated 14" font-size="14.00"> &#160;&#160;&#160;&#160;&#160;&#160;&#160;&#160;</text>
</g>
<!-- Yellow zone doctor FD&#45;&gt;Red zone doctor -->
<g id="edge21" class="edge">
<title>Yellow zone doctor FD&#45;&gt;Red zone doctor</title>
<path fill="none" stroke="black" stroke-width="1.28" d="M844.84,-90.85C867.9,-78.75 900.57,-63.14 931,-54 981.71,-38.77 1040.79,-29.96 1086.38,-24.99"/>
<polygon fill="black" stroke="black" stroke-width="1.28" points="1086.9,-28.46 1096.48,-23.93 1086.17,-21.49 1086.9,-28.46"/>
<text text-anchor="middle" x="951.5" y="-57.8" font-family="Sans Not-Rotated 14" font-size="14.00"> &#160;&#160;&#160;&#160;&#160;&#160;&#160;&#160;</text>
</g>
<!-- Yellow zone doctor FD&#45;&gt;Meas missing operator -->
<g id="edge28" class="edge">
<title>Yellow zone doctor FD&#45;&gt;Meas missing operator</title>
<path fill="none" stroke="black" stroke-width="1.16" d="M767.69,-90.91C733.84,-79 686.6,-63.59 644,-54 591.3,-42.13 531.55,-33.7 482.94,-28.09"/>
<polygon fill="black" stroke="black" stroke-width="1.16" points="483.07,-24.59 472.74,-26.94 482.28,-31.54 483.07,-24.59"/>
<text text-anchor="middle" x="717.5" y="-57.8" font-family="Sans Not-Rotated 14" font-size="14.00"> &#160;&#160;&#160;&#160;&#160;&#160;&#160;&#160;</text>
</g>
<!-- Yellow zone doctor FD&#45;&gt;Notification operator -->
<g id="edge31" class="edge">
<title>Yellow zone doctor FD&#45;&gt;Notification operator</title>
<path fill="none" stroke="black" stroke-width="1.94" d="M727.33,-120.75C694.18,-126.66 656.54,-135.62 624,-149 612.71,-153.64 612.53,-160 601,-164 587.02,-168.84 411.75,-183.28 300.98,-192.03"/>
<polygon fill="black" stroke="black" stroke-width="1.94" points="300.5,-188.56 290.8,-192.83 301.05,-195.53 300.5,-188.56"/>
<text text-anchor="middle" x="644.5" y="-152.8" font-family="Sans Not-Rotated 14" font-size="14.00"> &#160;&#160;&#160;&#160;&#160;&#160;&#160;&#160;</text>
</g>
<!-- Yellow zone doctor FD&#45;&gt;Yellow zone doctor -->
<g id="edge38" class="edge">
<title>Yellow zone doctor FD&#45;&gt;Yellow zone doctor</title>
<path fill="none" stroke="black" stroke-width="2.16" d="M765.16,-127C746.05,-133.74 723.96,-141.63 704,-149 686.58,-155.44 682.92,-159.13 665,-164 641.31,-170.44 571.97,-163.36 556,-182 538.07,-202.93 541.16,-235.87 546.59,-259.06"/>
<polygon fill="black" stroke="black" stroke-width="2.16" points="543.26,-260.16 549.17,-268.95 550.03,-258.39 543.26,-260.16"/>
<text text-anchor="middle" x="592.5" y="-196.3" font-family="Sans Not-Rotated 14" font-size="14.00"> &#160;&#160;&#160;&#160;&#160;&#160;&#160;&#160;&#160;&#160;&#160;&#160;&#160;&#160;&#160;</text>
</g>
<!-- Red zone doctor&#45;&gt;Red zone operator -->
<g id="edge6" class="edge">
<title>Red zone doctor&#45;&gt;Red zone operator</title>
<path fill="none" stroke="black" stroke-width="3.47" d="M1163.61,-36.2C1168.23,-72.65 1174.31,-159.13 1139,-218 1132.14,-229.43 1123.99,-226.15 1115,-236 1060.14,-296.15 1081.64,-340.01 1019,-392 936.43,-460.54 889.51,-429.95 783,-443 765.82,-445.1 747.43,-447.38 729.9,-449.57"/>
<polygon fill="black" stroke="black" stroke-width="3.47" points="729.18,-446.13 719.69,-450.85 730.05,-453.08 729.18,-446.13"/>
<text text-anchor="middle" x="1151.5" y="-239.8" font-family="Sans Not-Rotated 14" font-size="14.00"> &#160;&#160;&#160;&#160;&#160;&#160;&#160;&#160;&#160;&#160;&#160;&#160;&#160;&#160;&#160;</text>
</g>
<!-- Red zone doctor&#45;&gt;Red zone doctor FD -->
<g id="edge12" class="edge">
<title>Red zone doctor&#45;&gt;Red zone doctor FD</title>
<path fill="none" stroke="black" stroke-width="3.51" d="M1135.32,-36.22C1127.87,-41.61 1119.89,-47.78 1113,-54 987.11,-167.7 977.19,-217.29 858,-338 854.39,-341.66 850.49,-345.43 846.62,-349.08"/>
<polygon fill="black" stroke="black" stroke-width="3.51" points="844.22,-346.53 839.28,-355.9 848.99,-351.66 844.22,-346.53"/>
<text text-anchor="middle" x="1027.5" y="-196.3" font-family="Sans Not-Rotated 14" font-size="14.00"> &#160;&#160;&#160;&#160;&#160;&#160;&#160;&#160;&#160;&#160;&#160;&#160;&#160;&#160;&#160;</text>
</g>
<!-- Red zone doctor&#45;&gt;Red zone doctor -->
<g id="edge57" class="edge">
<title>Red zone doctor&#45;&gt;Red zone doctor</title>
<path fill="none" stroke="black" stroke-width="1.25" d="M1225.68,-25.29C1236.24,-24.24 1243.5,-21.81 1243.5,-18 1243.5,-15.56 1240.52,-13.68 1235.6,-12.38"/>
<polygon fill="black" stroke="black" stroke-width="1.25" points="1236.12,-8.91 1225.68,-10.71 1234.96,-15.82 1236.12,-8.91"/>
<text text-anchor="middle" x="1264" y="-14.3" font-family="Sans Not-Rotated 14" font-size="14.00"> &#160;&#160;&#160;&#160;&#160;&#160;&#160;&#160;</text>
</g>
<!-- Red zone doctor&#45;&gt;Yellow zone Therapy control operator -->
<g id="edge25" class="edge">
<title>Red zone doctor&#45;&gt;Yellow zone Therapy control operator</title>
<path fill="none" stroke="black" stroke-width="1.04" d="M1225.84,-27.95C1256.84,-33.66 1289.3,-42.22 1299,-54 1376.84,-148.57 1306,-207.02 1306,-329.5 1306,-462 1306,-462 1306,-462 1306,-528.93 1075.23,-502.38 1009,-512 939.12,-522.15 861.42,-531.87 795.98,-539.6"/>
<polygon fill="black" stroke="black" stroke-width="1.04" points="795.53,-536.13 786,-540.77 796.35,-543.08 795.53,-536.13"/>
<text text-anchor="middle" x="1320.5" y="-283.3" font-family="Sans Not-Rotated 14" font-size="14.00"> &#160;&#160;&#160;</text>
</g>
<!-- Red zone doctor&#45;&gt;Yellow zone doctor -->
<g id="edge40" class="edge">
<title>Red zone doctor&#45;&gt;Yellow zone doctor</title>
<path fill="none" stroke="black" stroke-width="1.26" d="M1096.46,-31.07C1074.17,-36.51 1049.42,-44.01 1028,-54 913.56,-107.36 909.97,-163.63 796,-218 746.36,-241.68 686.94,-258.56 639.51,-269.58"/>
<polygon fill="black" stroke="black" stroke-width="1.26" points="638.56,-266.21 629.58,-271.85 640.11,-273.04 638.56,-266.21"/>
<text text-anchor="middle" x="916.5" y="-152.8" font-family="Sans Not-Rotated 14" font-size="14.00"> &#160;&#160;&#160;&#160;&#160;&#160;&#160;&#160;</text>
</g>
<!-- Yellow zone Therapy control operator&#45;&gt;Red zone operator -->
<g id="edge45" class="edge">
<title>Yellow zone Therapy control operator&#45;&gt;Red zone operator</title>
<path fill="none" stroke="black" stroke-width="1.16" d="M647,-539C647,-525.18 647,-505.54 647,-489.55"/>
<polygon fill="black" stroke="black" stroke-width="1.16" points="650.5,-489.19 647,-479.19 643.5,-489.19 650.5,-489.19"/>
<text text-anchor="middle" x="667.5" y="-500.8" font-family="Sans Not-Rotated 14" font-size="14.00"> &#160;&#160;&#160;&#160;&#160;&#160;&#160;&#160;</text>
</g>
<!-- Yellow zone Therapy control operator&#45;&gt;Red zone doctor FD -->
<g id="edge47" class="edge">
<title>Yellow zone Therapy control operator&#45;&gt;Red zone doctor FD</title>
<path fill="none" stroke="black" stroke-width="1.09" d="M690.41,-539.22C720.08,-526.01 758.94,-505.49 787,-479 807.62,-459.53 813.14,-452.25 821,-425 823.06,-417.86 823.63,-409.9 823.48,-402.47"/>
<polygon fill="black" stroke="black" stroke-width="1.09" points="826.97,-402.22 822.86,-392.45 819.98,-402.65 826.97,-402.22"/>
<text text-anchor="middle" x="823.5" y="-457.3" font-family="Sans Not-Rotated 14" font-size="14.00"> &#160;&#160;&#160;</text>
</g>
<!-- Yellow zone Therapy control operator&#45;&gt;Red zone doctor -->
<g id="edge48" class="edge">
<title>Yellow zone Therapy control operator&#45;&gt;Red zone doctor</title>
<path fill="none" stroke="black" stroke-width="1.05" d="M775.01,-539.24C929.12,-510.7 1178.62,-436.76 1270,-251 1306.97,-175.85 1230.67,-85.81 1187.67,-43.39"/>
<polygon fill="black" stroke="black" stroke-width="1.05" points="1189.93,-40.71 1180.31,-36.27 1185.07,-45.74 1189.93,-40.71"/>
<text text-anchor="middle" x="1268.5" y="-283.3" font-family="Sans Not-Rotated 14" font-size="14.00"> &#160;&#160;&#160;</text>
</g>
<!-- Yellow zone Therapy control operator&#45;&gt;Yellow zone Therapy control operator -->
<g id="edge59" class="edge">
<title>Yellow zone Therapy control operator&#45;&gt;Yellow zone Therapy control operator</title>
<path fill="none" stroke="black" stroke-width="1.7" d="M786.07,-564.72C797.15,-563.1 804,-560.62 804,-557.3 804,-555.11 801.05,-553.3 795.89,-551.85"/>
<polygon fill="black" stroke="black" stroke-width="1.7" points="796.57,-548.41 786.07,-549.87 795.19,-555.28 796.57,-548.41"/>
<text text-anchor="middle" x="824.5" y="-553.6" font-family="Sans Not-Rotated 14" font-size="14.00"> &#160;&#160;&#160;&#160;&#160;&#160;&#160;&#160;</text>
</g>
<!-- Yellow zone Therapy control operator&#45;&gt;Notification operator -->
<g id="edge46" class="edge">
<title>Yellow zone Therapy control operator&#45;&gt;Notification operator</title>
<path fill="none" stroke="black" stroke-width="1.12" d="M507.78,-555.44C366.67,-550.7 169,-531.62 169,-462 169,-462 169,-462 169,-286 169,-264.33 180.1,-242.48 190.89,-226.35"/>
<polygon fill="black" stroke="black" stroke-width="1.12" points="193.87,-228.21 196.78,-218.02 188.15,-224.17 193.87,-228.21"/>
<text text-anchor="middle" x="189.5" y="-370.3" font-family="Sans Not-Rotated 14" font-size="14.00"> &#160;&#160;&#160;&#160;&#160;&#160;&#160;&#160;</text>
</g>
<!-- end -->
<g id="node12" class="node">
<title>end</title>
<ellipse fill="#ea4126" stroke="black" cx="64" cy="-109" rx="18" ry="18"/>
<ellipse fill="none" stroke="black" cx="64" cy="-109" rx="22" ry="22"/>
</g>
<!-- Yellow zone Therapy control operator&#45;&gt;end -->
<g id="edge49" class="edge">
<title>Yellow zone Therapy control operator&#45;&gt;end</title>
<path fill="none" stroke="black" stroke-dasharray="5,2" d="M507.84,-548.02C330.59,-535.57 47,-508.4 47,-462 47,-462 47,-462 47,-199 47,-179.2 51.11,-157.35 55.29,-140.26"/>
<polygon fill="black" stroke="black" points="58.75,-140.85 57.86,-130.29 51.97,-139.1 58.75,-140.85"/>
<text text-anchor="middle" x="56.5" y="-326.8" font-family="Sans Not-Rotated 14" font-size="14.00"> &#160;&#160;&#160;</text>
</g>
<!-- Meas missing operator&#45;&gt;Red zone operator -->
<g id="edge50" class="edge">
<title>Meas missing operator&#45;&gt;Red zone operator</title>
<path fill="none" stroke="black" stroke-width="1.11" d="M413.53,-36.01C429.7,-48.06 448.95,-65.81 458,-87 465.68,-104.99 462.86,-112.06 458,-131 451.58,-156.05 436.42,-156.95 430,-182 426.03,-197.5 426.51,-202.39 430,-218 439.34,-259.71 449.35,-268.14 471,-305 504.23,-361.58 505.16,-384.77 557,-425 563.66,-430.17 571.18,-434.66 578.97,-438.54"/>
<polygon fill="black" stroke="black" stroke-width="1.11" points="577.65,-441.78 588.19,-442.81 580.59,-435.43 577.65,-441.78"/>
<text text-anchor="middle" x="460.5" y="-239.8" font-family="Sans Not-Rotated 14" font-size="14.00"> &#160;&#160;&#160;&#160;&#160;&#160;&#160;&#160;</text>
</g>
<!-- Meas missing operator&#45;&gt;Yellow zone Therapy control operator -->
<g id="edge26" class="edge">
<title>Meas missing operator&#45;&gt;Yellow zone Therapy control operator</title>
<path fill="none" stroke="black" stroke-width="1.03" d="M301.11,-21.66C187.1,-27.58 0,-46.64 0,-108 0,-244.5 0,-244.5 0,-244.5 0,-426.28 29.3,-460.43 43,-479 61.77,-504.43 75.64,-503.2 106,-512 176.85,-532.53 363.35,-544.52 497.57,-550.73"/>
<polygon fill="black" stroke="black" stroke-width="1.03" points="497.8,-554.25 507.95,-551.21 498.12,-547.25 497.8,-554.25"/>
<text text-anchor="middle" x="11.5" y="-283.3" font-family="Sans Not-Rotated 14" font-size="14.00"> &#160;&#160;&#160;</text>
</g>
<!-- Meas missing operator&#45;&gt;Notification operator -->
<g id="edge35" class="edge">
<title>Meas missing operator&#45;&gt;Notification operator</title>
<path fill="none" stroke="black" stroke-width="1.47" d="M301.19,-31.5C239.21,-42.56 163.3,-60.99 145,-87 124.52,-116.11 154.31,-151.85 180.21,-175.01"/>
<polygon fill="black" stroke="black" stroke-width="1.47" points="178.21,-177.9 188.07,-181.77 182.77,-172.6 178.21,-177.9"/>
<text text-anchor="middle" x="165.5" y="-105.3" font-family="Sans Not-Rotated 14" font-size="14.00"> &#160;&#160;&#160;&#160;&#160;&#160;&#160;&#160;</text>
</g>
<!-- Meas missing doctor -->
<g id="node9" class="node">
<title>Meas missing doctor</title>
<polygon fill="#c0bde9" stroke="black" points="350.5,-127 195.5,-127 195.5,-91 350.5,-91 350.5,-127"/>
<text text-anchor="middle" x="273" y="-105.3" font-family="Sans Not-Rotated 14" font-size="14.00">Meas missing doctor</text>
</g>
<!-- Meas missing operator&#45;&gt;Meas missing doctor -->
<g id="edge2" class="edge">
<title>Meas missing operator&#45;&gt;Meas missing doctor</title>
<path fill="none" stroke="black" stroke-width="2.59" d="M327.42,-36.18C317.51,-40.86 307.9,-46.72 300,-54 291.91,-61.46 285.91,-71.88 281.65,-81.59"/>
<polygon fill="black" stroke="black" stroke-width="2.59" points="278.39,-80.33 277.96,-90.91 284.9,-82.9 278.39,-80.33"/>
<text text-anchor="middle" x="336.5" y="-57.8" font-family="Sans Not-Rotated 14" font-size="14.00"> &#160;&#160;&#160;&#160;&#160;&#160;&#160;&#160;&#160;&#160;&#160;&#160;&#160;&#160;&#160;</text>
</g>
<!-- Meas missing operator&#45;&gt;Yellow zone doctor -->
<g id="edge42" class="edge">
<title>Meas missing operator&#45;&gt;Yellow zone doctor</title>
<path fill="none" stroke="black" stroke-width="1.11" d="M472.76,-33.37C483.78,-38.37 493.99,-45.06 502,-54 561.44,-120.35 512.06,-166.08 539,-251 539.89,-253.81 540.95,-256.68 542.09,-259.52"/>
<polygon fill="black" stroke="black" stroke-width="1.11" points="538.96,-261.11 546.17,-268.88 545.38,-258.32 538.96,-261.11"/>
<text text-anchor="middle" x="553.5" y="-152.8" font-family="Sans Not-Rotated 14" font-size="14.00"> &#160;&#160;&#160;&#160;&#160;&#160;&#160;&#160;</text>
</g>
<!-- Notification operator&#45;&gt;Program change operator -->
<g id="edge5" class="edge">
<title>Notification operator&#45;&gt;Program change operator</title>
<path fill="none" stroke="black" d="M137.94,-218.01C127.46,-222.65 117.39,-228.53 109,-236 90.58,-252.38 85,-261.35 85,-286 85,-418.5 85,-418.5 85,-418.5 85,-507.86 47.51,-556.8 113,-617.6 143.5,-645.91 392.96,-651.74 539.89,-652.68"/>
<polygon fill="black" stroke="black" points="540.27,-656.18 550.29,-652.74 540.31,-649.18 540.27,-656.18"/>
<text text-anchor="middle" x="94.5" y="-413.8" font-family="Sans Not-Rotated 14" font-size="14.00"> &#160;&#160;&#160;</text>
</g>
<!-- Notification operator&#45;&gt;Red zone operator -->
<g id="edge10" class="edge">
<title>Notification operator&#45;&gt;Red zone operator</title>
<path fill="none" stroke="black" stroke-width="1.37" d="M218.06,-218.18C237.08,-261.97 294.08,-377.62 383,-425 413.55,-441.28 498.68,-450.49 564.1,-455.33"/>
<polygon fill="black" stroke="black" stroke-width="1.37" points="564.19,-458.84 574.41,-456.07 564.69,-451.86 564.19,-458.84"/>
<text text-anchor="middle" x="307.5" y="-326.8" font-family="Sans Not-Rotated 14" font-size="14.00"> &#160;&#160;&#160;&#160;&#160;&#160;&#160;&#160;</text>
</g>
<!-- Notification operator&#45;&gt;Yellow zone doctor FD -->
<g id="edge18" class="edge">
<title>Notification operator&#45;&gt;Yellow zone doctor FD</title>
<path fill="none" stroke="black" stroke-width="1.31" d="M290.6,-184.87C324.65,-178.68 364.82,-171.21 401,-164 432.2,-157.78 439.58,-154.01 471,-149 546.47,-136.98 566.07,-139.63 642,-131 666.43,-128.22 692.8,-125.08 717.37,-122.08"/>
<polygon fill="black" stroke="black" stroke-width="1.31" points="717.91,-125.54 727.41,-120.86 717.06,-118.6 717.91,-125.54"/>
<text text-anchor="middle" x="491.5" y="-152.8" font-family="Sans Not-Rotated 14" font-size="14.00"> &#160;&#160;&#160;&#160;&#160;&#160;&#160;&#160;</text>
</g>
<!-- Notification operator&#45;&gt;Red zone doctor -->
<g id="edge51" class="edge">
<title>Notification operator&#45;&gt;Red zone doctor</title>
<path fill="none" stroke="black" stroke-width="1.15" d="M290.7,-192.11C396.2,-182.88 569.73,-167.28 576,-164 632.72,-134.31 611.92,-82.99 669,-54 705.19,-35.62 957.69,-25.26 1086.21,-21.13"/>
<polygon fill="black" stroke="black" stroke-width="1.15" points="1086.48,-24.62 1096.37,-20.81 1086.26,-17.63 1086.48,-24.62"/>
<text text-anchor="middle" x="653.5" y="-105.3" font-family="Sans Not-Rotated 14" font-size="14.00"> &#160;&#160;&#160;&#160;&#160;&#160;&#160;&#160;</text>
</g>
<!-- Notification operator&#45;&gt;Yellow zone Therapy control operator -->
<g id="edge24" class="edge">
<title>Notification operator&#45;&gt;Yellow zone Therapy control operator</title>
<path fill="none" stroke="black" stroke-width="1.06" d="M212.32,-218.16C216.07,-255.15 230.03,-343 280,-392 358.9,-469.38 480.57,-513.89 561.94,-536.59"/>
<polygon fill="black" stroke="black" stroke-width="1.06" points="561.08,-539.98 571.65,-539.25 562.93,-533.23 561.08,-539.98"/>
<text text-anchor="middle" x="289.5" y="-370.3" font-family="Sans Not-Rotated 14" font-size="14.00"> &#160;&#160;&#160;</text>
</g>
<!-- Notification operator&#45;&gt;Meas missing operator -->
<g id="edge27" class="edge">
<title>Notification operator&#45;&gt;Meas missing operator</title>
<path fill="none" stroke="black" stroke-width="2.77" d="M290.54,-186.13C306.91,-181.03 323.3,-173.92 337,-164 374.36,-136.94 384.05,-80.09 386.42,-46.17"/>
<polygon fill="black" stroke="black" stroke-width="2.77" points="389.92,-46.2 386.95,-36.03 382.93,-45.83 389.92,-46.2"/>
<text text-anchor="middle" x="417.5" y="-105.3" font-family="Sans Not-Rotated 14" font-size="14.00"> &#160;&#160;&#160;&#160;&#160;&#160;&#160;&#160;&#160;&#160;&#160;&#160;&#160;&#160;&#160;</text>
</g>
<!-- Notification operator&#45;&gt;Notification operator -->
<g id="edge58" class="edge">
<title>Notification operator&#45;&gt;Notification operator</title>
<path fill="none" stroke="black" stroke-width="2.06" d="M290.57,-206.99C301.33,-205.82 308.5,-203.49 308.5,-200 308.5,-197.77 305.56,-196.01 300.62,-194.72"/>
<polygon fill="black" stroke="black" stroke-width="2.06" points="301.02,-191.24 290.57,-193.01 299.84,-198.14 301.02,-191.24"/>
<text text-anchor="middle" x="329" y="-196.3" font-family="Sans Not-Rotated 14" font-size="14.00"> &#160;&#160;&#160;&#160;&#160;&#160;&#160;&#160;</text>
</g>
<!-- Notification operator&#45;&gt;Meas missing doctor -->
<g id="edge36" class="edge">
<title>Notification operator&#45;&gt;Meas missing doctor</title>
<path fill="none" stroke="black" stroke-width="1.1" d="M204.45,-181.73C201.72,-171.57 200.35,-158.83 206,-149 209.52,-142.89 214.4,-137.64 219.94,-133.16"/>
<polygon fill="black" stroke="black" stroke-width="1.1" points="222.31,-135.78 228.46,-127.14 218.27,-130.06 222.31,-135.78"/>
<text text-anchor="middle" x="226.5" y="-152.8" font-family="Sans Not-Rotated 14" font-size="14.00"> &#160;&#160;&#160;&#160;&#160;&#160;&#160;&#160;</text>
</g>
<!-- Notification operator&#45;&gt;Yellow zone doctor -->
<g id="edge39" class="edge">
<title>Notification operator&#45;&gt;Yellow zone doctor</title>
<path fill="none" stroke="black" stroke-width="1.68" d="M232.32,-218.03C249.62,-231.7 271.94,-248.94 277,-251 277,-251 388.09,-264.99 469.82,-275.28"/>
<polygon fill="black" stroke="black" stroke-width="1.68" points="469.78,-278.8 480.14,-276.57 470.65,-271.85 469.78,-278.8"/>
<text text-anchor="middle" x="297.5" y="-239.8" font-family="Sans Not-Rotated 14" font-size="14.00"> &#160;&#160;&#160;&#160;&#160;&#160;&#160;&#160;</text>
</g>
<!-- Notification operator&#45;&gt;end -->
<g id="edge43" class="edge">
<title>Notification operator&#45;&gt;end</title>
<path fill="none" stroke="black" stroke-dasharray="5,2" d="M131.3,-190.76C112.92,-185.52 94.75,-177.18 81,-164 74.58,-157.84 70.57,-149.28 68.07,-140.79"/>
<polygon fill="black" stroke="black" points="71.47,-139.94 65.78,-131 64.65,-141.54 71.47,-139.94"/>
<text text-anchor="middle" x="101.5" y="-152.8" font-family="Sans Not-Rotated 14" font-size="14.00"> &#160;&#160;&#160;&#160;&#160;&#160;&#160;&#160;</text>
</g>
<!-- Meas missing doctor&#45;&gt;Red zone operator -->
<g id="edge53" class="edge">
<title>Meas missing doctor&#45;&gt;Red zone operator</title>
<path fill="none" stroke="black" stroke-width="1.06" d="M307.62,-127.19C317.78,-133.22 328.45,-140.62 337,-149 349.41,-161.17 349.66,-166.74 358,-182 370.68,-205.21 374.21,-211.05 383,-236 411.76,-317.64 366.28,-366.41 430,-425 449.46,-442.9 511.43,-451.67 564.19,-455.96"/>
<polygon fill="black" stroke="black" stroke-width="1.06" points="564.03,-459.46 574.27,-456.73 564.56,-452.48 564.03,-459.46"/>
<text text-anchor="middle" x="403.5" y="-283.3" font-family="Sans Not-Rotated 14" font-size="14.00"> &#160;&#160;&#160;</text>
</g>
<!-- Meas missing doctor&#45;&gt;Meas missing operator -->
<g id="edge29" class="edge">
<title>Meas missing doctor&#45;&gt;Meas missing operator</title>
<path fill="none" stroke="black" stroke-width="1.36" d="M253.52,-90.54C243.56,-79.49 235.2,-65.22 244,-54 250.87,-45.24 269.63,-38.39 291.38,-33.17"/>
<polygon fill="black" stroke="black" stroke-width="1.36" points="292.22,-36.56 301.2,-30.95 290.68,-29.74 292.22,-36.56"/>
<text text-anchor="middle" x="264.5" y="-57.8" font-family="Sans Not-Rotated 14" font-size="14.00"> &#160;&#160;&#160;&#160;&#160;&#160;&#160;&#160;</text>
</g>
<!-- Meas missing doctor&#45;&gt;Notification operator -->
<g id="edge33" class="edge">
<title>Meas missing doctor&#45;&gt;Notification operator</title>
<path fill="none" stroke="black" stroke-width="2.14" d="M268.3,-127.08C264.7,-138.25 258.99,-152.79 251,-164 248.34,-167.74 245.2,-171.34 241.87,-174.72"/>
<polygon fill="black" stroke="black" stroke-width="2.14" points="239.29,-172.35 234.4,-181.74 244.08,-177.45 239.29,-172.35"/>
<text text-anchor="middle" x="296.5" y="-152.8" font-family="Sans Not-Rotated 14" font-size="14.00"> &#160;&#160;&#160;&#160;&#160;&#160;&#160;&#160;&#160;&#160;&#160;&#160;&#160;&#160;&#160;</text>
</g>
<!-- Meas missing doctor&#45;&gt;Yellow zone doctor -->
<g id="edge52" class="edge">
<title>Meas missing doctor&#45;&gt;Yellow zone doctor</title>
<path fill="none" stroke="black" stroke-width="1.07" d="M327.98,-127.05C343.96,-132.99 361.11,-140.37 376,-149 437.74,-184.78 442.24,-209.1 500,-251 505.66,-255.11 511.8,-259.27 517.85,-263.23"/>
<polygon fill="black" stroke="black" stroke-width="1.07" points="516.28,-266.38 526.58,-268.84 520.06,-260.49 516.28,-266.38"/>
<text text-anchor="middle" x="469.5" y="-196.3" font-family="Sans Not-Rotated 14" font-size="14.00"> &#160;&#160;&#160;</text>
</g>
<!-- Yellow zone doctor&#45;&gt;Red zone operator -->
<g id="edge11" class="edge">
<title>Yellow zone doctor&#45;&gt;Red zone operator</title>
<path fill="none" stroke="black" stroke-width="1.2" d="M564.12,-305.05C580.28,-335.27 614.03,-398.37 633.1,-434.02"/>
<polygon fill="black" stroke="black" stroke-width="1.2" points="630.04,-435.71 637.84,-442.88 636.21,-432.41 630.04,-435.71"/>
<text text-anchor="middle" x="631.5" y="-370.3" font-family="Sans Not-Rotated 14" font-size="14.00"> &#160;&#160;&#160;&#160;&#160;&#160;&#160;&#160;</text>
</g>
<!-- Yellow zone doctor&#45;&gt;Red zone doctor FD -->
<g id="edge15" class="edge">
<title>Yellow zone doctor&#45;&gt;Red zone doctor FD</title>
<path fill="none" stroke="black" stroke-width="1.28" d="M581.38,-305.09C599.25,-315.97 623.77,-329.55 647,-338 674.32,-347.93 705.14,-355.31 733.12,-360.66"/>
<polygon fill="black" stroke="black" stroke-width="1.28" points="732.82,-364.16 743.29,-362.54 734.09,-357.28 732.82,-364.16"/>
<text text-anchor="middle" x="667.5" y="-326.8" font-family="Sans Not-Rotated 14" font-size="14.00"> &#160;&#160;&#160;&#160;&#160;&#160;&#160;&#160;</text>
</g>
<!-- Yellow zone doctor&#45;&gt;Yellow zone doctor FD -->
<g id="edge16" class="edge">
<title>Yellow zone doctor&#45;&gt;Yellow zone doctor FD</title>
<path fill="none" stroke="black" stroke-width="3.63" d="M574.13,-268.95C603.06,-243.32 656.8,-196.33 678,-182 706.41,-162.8 740.53,-144.75 767.48,-131.52"/>
<polygon fill="black" stroke="black" stroke-width="3.63" points="769.22,-134.57 776.69,-127.05 766.17,-128.27 769.22,-134.57"/>
<text text-anchor="middle" x="714.5" y="-196.3" font-family="Sans Not-Rotated 14" font-size="14.00"> &#160;&#160;&#160;&#160;&#160;&#160;&#160;&#160;&#160;&#160;&#160;&#160;&#160;&#160;&#160;</text>
</g>
<!-- Yellow zone doctor&#45;&gt;Notification operator -->
<g id="edge34" class="edge">
<title>Yellow zone doctor&#45;&gt;Notification operator</title>
<path fill="none" stroke="black" stroke-width="1.37" d="M480.42,-274.34C445.72,-268.35 404.02,-260.34 367,-251 362.12,-249.77 314.88,-234.59 273.65,-221.28"/>
<polygon fill="black" stroke="black" stroke-width="1.37" points="274.47,-217.87 263.88,-218.12 272.32,-224.53 274.47,-217.87"/>
<text text-anchor="middle" x="387.5" y="-239.8" font-family="Sans Not-Rotated 14" font-size="14.00"> &#160;&#160;&#160;&#160;&#160;&#160;&#160;&#160;</text>
</g>
<!-- start -->
<g id="node11" class="node">
<title>start</title>
<ellipse fill="#95d600" stroke="black" cx="944" cy="-557.3" rx="27.1" ry="27.1"/>
<text text-anchor="middle" x="944" y="-553.6" font-family="Sans Not-Rotated 14" font-size="14.00">start</text>
</g>
<!-- start&#45;&gt;Red zone operator -->
<g id="edge8" class="edge">
<title>start&#45;&gt;Red zone operator</title>
<path fill="none" stroke="black" stroke-dasharray="5,2" d="M918.16,-548.09C872.19,-533.5 774.94,-502.62 710.28,-482.09"/>
<polygon fill="black" stroke="black" points="711.18,-478.7 700.59,-479.01 709.06,-485.38 711.18,-478.7"/>
<text text-anchor="middle" x="825.5" y="-500.8" font-family="Sans Not-Rotated 14" font-size="14.00"> &#160;&#160;&#160;&#160;&#160;&#160;&#160;&#160;</text>
</g>
<!-- start&#45;&gt;Red zone doctor -->
<g id="edge54" class="edge">
<title>start&#45;&gt;Red zone doctor</title>
<path fill="none" stroke="black" stroke-dasharray="5,2" d="M971.21,-553.2C1057.35,-543.39 1318.42,-513.53 1320,-512 1406.52,-428.44 1361,-364.78 1361,-244.5 1361,-244.5 1361,-244.5 1361,-108 1361,-81.74 1357.51,-70.4 1337,-54 1321.21,-41.37 1276.19,-32.55 1235.63,-26.93"/>
<polygon fill="black" stroke="black" points="1236.09,-23.46 1225.71,-25.6 1235.16,-30.39 1236.09,-23.46"/>
<text text-anchor="middle" x="1373.5" y="-283.3" font-family="Sans Not-Rotated 14" font-size="14.00"> &#160;&#160;&#160;</text>
</g>
</g>
</svg>
