<?xml version="1.0" encoding="UTF-8" standalone="no"?>
<!DOCTYPE svg PUBLIC "-//W3C//DTD SVG 1.1//EN"
 "http://www.w3.org/Graphics/SVG/1.1/DTD/svg11.dtd">
<!-- Generated by graphviz version 3.0.0 (20220226.1711)
 -->
<!-- Pages: 1 -->
<svg width="1044pt" height="767pt"
 viewBox="0.00 0.00 1043.50 766.60" xmlns="http://www.w3.org/2000/svg" xmlns:xlink="http://www.w3.org/1999/xlink">
<g id="graph0" class="graph" transform="scale(1 1) rotate(0) translate(4 762.6)">
<polygon fill="white" stroke="transparent" points="-4,4 -4,-762.6 1039.5,-762.6 1039.5,4 -4,4"/>
<!-- Program change operator -->
<g id="node1" class="node">
<title>Program change operator</title>
<polygon fill="#ffffff" stroke="black" points="193,-758.6 0,-758.6 0,-722.6 193,-722.6 193,-758.6"/>
<text text-anchor="middle" x="96.5" y="-736.9" font-family="Sans Not-Rotated 14" font-size="14.00">Program change operator</text>
</g>
<!-- Yellow zone Therapy control operator -->
<g id="node6" class="node">
<title>Yellow zone Therapy control operator</title>
<polygon fill="#e0ddf4" stroke="black" points="585.5,-662.3 307.5,-662.3 307.5,-626.3 585.5,-626.3 585.5,-662.3"/>
<text text-anchor="middle" x="446.5" y="-640.6" font-family="Sans Not-Rotated 14" font-size="14.00">Yellow zone Therapy control operator</text>
</g>
<!-- Program change operator&#45;&gt;Yellow zone Therapy control operator -->
<g id="edge1" class="edge">
<title>Program change operator&#45;&gt;Yellow zone Therapy control operator</title>
<path fill="none" stroke="black" stroke-width="1.02" d="M159.88,-722.52C220,-706.32 310.28,-682 373.4,-664.99"/>
<polygon fill="black" stroke="black" stroke-width="1.02" points="374.55,-668.31 383.29,-662.33 372.73,-661.55 374.55,-668.31"/>
<text text-anchor="middle" x="292" y="-693.4" font-family="Sans Not-Rotated 14" font-size="14.00"> &#160;&#160;&#160;</text>
</g>
<!-- Red zone operator -->
<g id="node2" class="node">
<title>Red zone operator</title>
<polygon fill="#1d2559" stroke="black" points="651,-566 506,-566 506,-530 651,-530 651,-566"/>
<text text-anchor="middle" x="578.5" y="-544.3" font-family="Sans Not-Rotated 14" font-size="14.00" fill="white">Red zone operator</text>
</g>
<!-- Red zone operator&#45;&gt;Red zone operator -->
<g id="edge37" class="edge">
<title>Red zone operator&#45;&gt;Red zone operator</title>
<path fill="none" stroke="black" stroke-width="1.51" d="M651.29,-555.11C661.87,-553.98 669,-551.61 669,-548 669,-545.69 666.07,-543.88 661.19,-542.59"/>
<polygon fill="black" stroke="black" stroke-width="1.51" points="661.74,-539.13 651.29,-540.89 660.55,-546.03 661.74,-539.13"/>
<text text-anchor="middle" x="689.5" y="-544.3" font-family="Sans Not-Rotated 14" font-size="14.00"> &#160;&#160;&#160;&#160;&#160;&#160;&#160;&#160;</text>
</g>
<!-- Red zone doctor FD -->
<g id="node3" class="node">
<title>Red zone doctor FD</title>
<polygon fill="#1d2559" stroke="black" points="541,-479 388,-479 388,-443 541,-443 541,-479"/>
<text text-anchor="middle" x="464.5" y="-457.3" font-family="Sans Not-Rotated 14" font-size="14.00" fill="white">Red zone doctor FD</text>
</g>
<!-- Red zone operator&#45;&gt;Red zone doctor FD -->
<g id="edge9" class="edge">
<title>Red zone operator&#45;&gt;Red zone doctor FD</title>
<path fill="none" stroke="black" stroke-width="3.34" d="M505.94,-531.14C495.71,-526.35 486.11,-520.12 478.5,-512 472.69,-505.81 469.26,-497.4 467.24,-489.25"/>
<polygon fill="black" stroke="black" stroke-width="3.34" points="470.65,-488.43 465.38,-479.24 463.77,-489.71 470.65,-488.43"/>
<text text-anchor="middle" x="515" y="-500.8" font-family="Sans Not-Rotated 14" font-size="14.00"> &#160;&#160;&#160;&#160;&#160;&#160;&#160;&#160;&#160;&#160;&#160;&#160;&#160;&#160;&#160;</text>
</g>
<!-- Red zone doctor -->
<g id="node5" class="node">
<title>Red zone doctor</title>
<polygon fill="#1f3b98" stroke="black" points="735,-218 606,-218 606,-182 735,-182 735,-218"/>
<text text-anchor="middle" x="670.5" y="-196.3" font-family="Sans Not-Rotated 14" font-size="14.00" fill="white">Red zone doctor</text>
</g>
<!-- Red zone operator&#45;&gt;Red zone doctor -->
<g id="edge12" class="edge">
<title>Red zone operator&#45;&gt;Red zone doctor</title>
<path fill="none" stroke="black" stroke-width="5" d="M651.05,-540.92C700.67,-532.31 757.5,-511.63 757.5,-462 757.5,-462 757.5,-462 757.5,-286 757.5,-259.16 736.05,-238.01 714.45,-223.53"/>
<polygon fill="black" stroke="black" stroke-width="5" points="716.68,-219.76 705.89,-218.11 712,-227.16 716.68,-219.76"/>
<text text-anchor="middle" x="794" y="-370.3" font-family="Sans Not-Rotated 14" font-size="14.00"> &#160;&#160;&#160;&#160;&#160;&#160;&#160;&#160;&#160;&#160;&#160;&#160;&#160;&#160;&#160;</text>
</g>
<!-- Red zone operator&#45;&gt;Yellow zone Therapy control operator -->
<g id="edge15" class="edge">
<title>Red zone operator&#45;&gt;Yellow zone Therapy control operator</title>
<path fill="none" stroke="black" stroke-width="1.03" d="M565.66,-566.22C557.31,-576.62 545.73,-589.62 533.5,-599 522.35,-607.55 509.31,-615.21 496.76,-621.66"/>
<polygon fill="black" stroke="black" stroke-width="1.03" points="495.14,-618.55 487.74,-626.13 498.25,-624.82 495.14,-618.55"/>
<text text-anchor="middle" x="560" y="-587.8" font-family="Sans Not-Rotated 14" font-size="14.00"> &#160;&#160;&#160;</text>
</g>
<!-- Red zone doctor FD&#45;&gt;Red zone operator -->
<g id="edge5" class="edge">
<title>Red zone doctor FD&#45;&gt;Red zone operator</title>
<path fill="none" stroke="black" stroke-width="3.43" d="M527.95,-479.02C537.96,-483.7 547.6,-489.59 555.5,-497 562.21,-503.3 567.13,-511.93 570.65,-520.26"/>
<polygon fill="black" stroke="black" stroke-width="3.43" points="567.41,-521.57 574.17,-529.72 573.97,-519.13 567.41,-521.57"/>
<text text-anchor="middle" x="603" y="-500.8" font-family="Sans Not-Rotated 14" font-size="14.00"> &#160;&#160;&#160;&#160;&#160;&#160;&#160;&#160;&#160;&#160;&#160;&#160;&#160;&#160;&#160;</text>
</g>
<!-- Red zone doctor FD&#45;&gt;Red zone doctor FD -->
<g id="edge38" class="edge">
<title>Red zone doctor FD&#45;&gt;Red zone doctor FD</title>
<path fill="none" stroke="black" stroke-width="2.54" d="M541.25,-468.03C551.89,-466.87 559,-464.53 559,-461 559,-458.74 556.08,-456.97 551.19,-455.68"/>
<polygon fill="black" stroke="black" stroke-width="2.54" points="551.7,-452.22 541.25,-453.97 550.52,-459.12 551.7,-452.22"/>
<text text-anchor="middle" x="595.5" y="-457.3" font-family="Sans Not-Rotated 14" font-size="14.00"> &#160;&#160;&#160;&#160;&#160;&#160;&#160;&#160;&#160;&#160;&#160;&#160;&#160;&#160;&#160;</text>
</g>
<!-- Yellow zone doctor FD -->
<g id="node4" class="node">
<title>Yellow zone doctor FD</title>
<polygon fill="#5661c6" stroke="black" points="506,-305 333,-305 333,-269 506,-269 506,-305"/>
<text text-anchor="middle" x="419.5" y="-283.3" font-family="Sans Not-Rotated 14" font-size="14.00" fill="white">Yellow zone doctor FD</text>
</g>
<!-- Red zone doctor FD&#45;&gt;Yellow zone doctor FD -->
<g id="edge11" class="edge">
<title>Red zone doctor FD&#45;&gt;Yellow zone doctor FD</title>
<path fill="none" stroke="black" stroke-width="1.48" d="M462.58,-442.89C460.7,-422.13 458.84,-386.17 464.5,-356 467.26,-341.26 478.55,-336.23 471.5,-323 469.31,-318.89 466.4,-315.18 463.08,-311.84"/>
<polygon fill="black" stroke="black" stroke-width="1.48" points="465.11,-308.98 455.24,-305.14 460.56,-314.3 465.11,-308.98"/>
<text text-anchor="middle" x="485" y="-370.3" font-family="Sans Not-Rotated 14" font-size="14.00"> &#160;&#160;&#160;&#160;&#160;&#160;&#160;&#160;</text>
</g>
<!-- Red zone doctor FD&#45;&gt;Red zone doctor -->
<g id="edge13" class="edge">
<title>Red zone doctor FD&#45;&gt;Red zone doctor</title>
<path fill="none" stroke="black" stroke-width="1.71" d="M512.43,-442.85C556.3,-424.35 618.77,-390.32 648.5,-338 667.92,-303.83 671.52,-257.57 671.58,-228.5"/>
<polygon fill="black" stroke="black" stroke-width="1.71" points="675.08,-228.23 671.45,-218.27 668.08,-228.31 675.08,-228.23"/>
<text text-anchor="middle" x="676" y="-326.8" font-family="Sans Not-Rotated 14" font-size="14.00"> &#160;&#160;&#160;&#160;&#160;&#160;&#160;&#160;</text>
</g>
<!-- Red zone doctor FD&#45;&gt;Yellow zone Therapy control operator -->
<g id="edge14" class="edge">
<title>Red zone doctor FD&#45;&gt;Yellow zone Therapy control operator</title>
<path fill="none" stroke="black" stroke-width="1.2" d="M462,-479.02C460.04,-492.75 457.34,-512.59 455.5,-530 452.4,-559.31 449.85,-592.98 448.27,-615.95"/>
<polygon fill="black" stroke="black" stroke-width="1.2" points="444.77,-615.78 447.59,-626 451.76,-616.25 444.77,-615.78"/>
<text text-anchor="middle" x="476" y="-544.3" font-family="Sans Not-Rotated 14" font-size="14.00"> &#160;&#160;&#160;&#160;&#160;&#160;&#160;&#160;</text>
</g>
<!-- Notification operator -->
<g id="node8" class="node">
<title>Notification operator</title>
<polygon fill="#1946ba" stroke="black" points="353,-218 194,-218 194,-182 353,-182 353,-218"/>
<text text-anchor="middle" x="273.5" y="-196.3" font-family="Sans Not-Rotated 14" font-size="14.00" fill="white">Notification operator</text>
</g>
<!-- Red zone doctor FD&#45;&gt;Notification operator -->
<g id="edge19" class="edge">
<title>Red zone doctor FD&#45;&gt;Notification operator</title>
<path fill="none" stroke="black" stroke-width="1.56" d="M393.24,-442.99C351.51,-431.56 298.54,-414.47 254.5,-392 218.23,-373.5 198.95,-374.3 180.5,-338 164.15,-305.83 162.46,-298.32 215.5,-236 219.31,-231.52 223.84,-227.46 228.67,-223.82"/>
<polygon fill="black" stroke="black" stroke-width="1.56" points="230.74,-226.65 237,-218.1 226.77,-220.88 230.74,-226.65"/>
<text text-anchor="middle" x="201" y="-326.8" font-family="Sans Not-Rotated 14" font-size="14.00"> &#160;&#160;&#160;&#160;&#160;&#160;&#160;&#160;</text>
</g>
<!-- Yellow zone doctor -->
<g id="node10" class="node">
<title>Yellow zone doctor</title>
<polygon fill="#7d7fd2" stroke="black" points="413,-392 264,-392 264,-356 413,-356 413,-392"/>
<text text-anchor="middle" x="338.5" y="-370.3" font-family="Sans Not-Rotated 14" font-size="14.00">Yellow zone doctor</text>
</g>
<!-- Red zone doctor FD&#45;&gt;Yellow zone doctor -->
<g id="edge23" class="edge">
<title>Red zone doctor FD&#45;&gt;Yellow zone doctor</title>
<path fill="none" stroke="black" stroke-width="2.04" d="M426.65,-442.94C416.25,-437.69 405.18,-431.55 395.5,-425 384.43,-417.51 373.17,-408.09 363.61,-399.46"/>
<polygon fill="black" stroke="black" stroke-width="2.04" points="365.75,-396.66 356.03,-392.45 361,-401.8 365.75,-396.66"/>
<text text-anchor="middle" x="416" y="-413.8" font-family="Sans Not-Rotated 14" font-size="14.00"> &#160;&#160;&#160;&#160;&#160;&#160;&#160;&#160;</text>
</g>
<!-- Yellow zone doctor FD&#45;&gt;Program change operator -->
<g id="edge3" class="edge">
<title>Yellow zone doctor FD&#45;&gt;Program change operator</title>
<path fill="none" stroke="black" stroke-width="1" d="M332.64,-303.95C232.2,-327.99 80.5,-384.07 80.5,-503.5 80.5,-645.3 80.5,-645.3 80.5,-645.3 80.5,-668.17 85.13,-693.73 89.41,-712.46"/>
<polygon fill="black" stroke="black" stroke-width="1" points="86.05,-713.46 91.79,-722.36 92.86,-711.82 86.05,-713.46"/>
<text text-anchor="middle" x="90" y="-500.8" font-family="Sans Not-Rotated 14" font-size="14.00"> &#160;&#160;&#160;</text>
</g>
<!-- Yellow zone doctor FD&#45;&gt;Red zone operator -->
<g id="edge7" class="edge">
<title>Yellow zone doctor FD&#45;&gt;Red zone operator</title>
<path fill="none" stroke="black" stroke-width="1.68" d="M340.84,-305.05C287.99,-320.76 231.81,-348.36 254.5,-392 304.45,-488.06 364.1,-476.83 466.5,-512 481.2,-517.05 497.08,-522.2 512.14,-526.94"/>
<polygon fill="black" stroke="black" stroke-width="1.68" points="511.31,-530.34 521.9,-529.99 513.4,-523.66 511.31,-530.34"/>
<text text-anchor="middle" x="296" y="-413.8" font-family="Sans Not-Rotated 14" font-size="14.00"> &#160;&#160;&#160;&#160;&#160;&#160;&#160;&#160;</text>
</g>
<!-- Yellow zone doctor FD&#45;&gt;Red zone doctor FD -->
<g id="edge28" class="edge">
<title>Yellow zone doctor FD&#45;&gt;Red zone doctor FD</title>
<path fill="none" stroke="black" stroke-width="1.31" d="M462.37,-305.12C471.35,-310 480.28,-315.95 487.5,-323 499.45,-334.67 501.37,-339.81 505.5,-356 509.45,-371.5 509.79,-376.59 505.5,-392 501.28,-407.18 492.66,-422.35 484.41,-434.5"/>
<polygon fill="black" stroke="black" stroke-width="1.31" points="481.47,-432.6 478.53,-442.78 487.17,-436.65 481.47,-432.6"/>
<text text-anchor="middle" x="530" y="-370.3" font-family="Sans Not-Rotated 14" font-size="14.00"> &#160;&#160;&#160;&#160;&#160;&#160;&#160;&#160;</text>
</g>
<!-- Yellow zone doctor FD&#45;&gt;Red zone doctor -->
<g id="edge29" class="edge">
<title>Yellow zone doctor FD&#45;&gt;Red zone doctor</title>
<path fill="none" stroke="black" stroke-width="1.27" d="M437.99,-268.84C450.92,-257.78 469.1,-244.03 487.5,-236 521.35,-221.23 561.41,-212.67 595.41,-207.72"/>
<polygon fill="black" stroke="black" stroke-width="1.27" points="596.32,-211.13 605.75,-206.3 595.37,-204.19 596.32,-211.13"/>
<text text-anchor="middle" x="508" y="-239.8" font-family="Sans Not-Rotated 14" font-size="14.00"> &#160;&#160;&#160;&#160;&#160;&#160;&#160;&#160;</text>
</g>
<!-- Yellow zone doctor FD&#45;&gt;Notification operator -->
<g id="edge18" class="edge">
<title>Yellow zone doctor FD&#45;&gt;Notification operator</title>
<path fill="none" stroke="black" stroke-width="1.93" d="M378.55,-268.85C366.99,-263.56 354.56,-257.42 343.5,-251 329.75,-243.02 315.34,-233.03 303.18,-224.09"/>
<polygon fill="black" stroke="black" stroke-width="1.93" points="305.27,-221.28 295.17,-218.1 301.08,-226.89 305.27,-221.28"/>
<text text-anchor="middle" x="364" y="-239.8" font-family="Sans Not-Rotated 14" font-size="14.00"> &#160;&#160;&#160;&#160;&#160;&#160;&#160;&#160;</text>
</g>
<!-- Yellow zone doctor FD&#45;&gt;Yellow zone doctor -->
<g id="edge24" class="edge">
<title>Yellow zone doctor FD&#45;&gt;Yellow zone doctor</title>
<path fill="none" stroke="black" stroke-width="2.15" d="M332.75,-300.84C321.72,-306.04 311.77,-313.19 304.5,-323 298.53,-331.05 301.75,-340.06 308.12,-348.18"/>
<polygon fill="black" stroke="black" stroke-width="2.15" points="305.65,-350.66 315.01,-355.64 310.8,-345.91 305.65,-350.66"/>
<text text-anchor="middle" x="341" y="-326.8" font-family="Sans Not-Rotated 14" font-size="14.00"> &#160;&#160;&#160;&#160;&#160;&#160;&#160;&#160;&#160;&#160;&#160;&#160;&#160;&#160;&#160;</text>
</g>
<!-- Red zone doctor&#45;&gt;Red zone operator -->
<g id="edge4" class="edge">
<title>Red zone doctor&#45;&gt;Red zone operator</title>
<path fill="none" stroke="black" stroke-width="3.46" d="M735.22,-203.12C792.31,-208.87 866.5,-227.58 866.5,-286 866.5,-462 866.5,-462 866.5,-462 866.5,-505.13 746.21,-528.01 661.11,-538.81"/>
<polygon fill="black" stroke="black" stroke-width="3.46" points="660.67,-535.33 651.17,-540.03 661.53,-542.28 660.67,-535.33"/>
<text text-anchor="middle" x="903" y="-370.3" font-family="Sans Not-Rotated 14" font-size="14.00"> &#160;&#160;&#160;&#160;&#160;&#160;&#160;&#160;&#160;&#160;&#160;&#160;&#160;&#160;&#160;</text>
</g>
<!-- Red zone doctor&#45;&gt;Red zone doctor FD -->
<g id="edge8" class="edge">
<title>Red zone doctor&#45;&gt;Red zone doctor FD</title>
<path fill="none" stroke="black" stroke-width="3.5" d="M660.42,-218.26C647.4,-239.81 623.32,-277.2 597.5,-305 588.9,-314.26 582.53,-312.5 575.5,-323 557.66,-349.63 572.85,-365.72 554.5,-392 541.8,-410.18 522.72,-425.59 505.4,-437.11"/>
<polygon fill="black" stroke="black" stroke-width="3.5" points="503.07,-434.44 496.54,-442.78 506.85,-440.34 503.07,-434.44"/>
<text text-anchor="middle" x="612" y="-326.8" font-family="Sans Not-Rotated 14" font-size="14.00"> &#160;&#160;&#160;&#160;&#160;&#160;&#160;&#160;&#160;&#160;&#160;&#160;&#160;&#160;&#160;</text>
</g>
<!-- Red zone doctor&#45;&gt;Yellow zone doctor -->
<g id="edge26" class="edge">
<title>Red zone doctor&#45;&gt;Yellow zone doctor</title>
<path fill="none" stroke="black" stroke-width="1.25" d="M630.59,-218.1C619.59,-223.35 607.84,-229.48 597.5,-236 536.55,-274.42 536.19,-306.28 471.5,-338 456.36,-345.43 439.45,-351.42 422.89,-356.2"/>
<polygon fill="black" stroke="black" stroke-width="1.25" points="421.91,-352.84 413.21,-358.88 423.78,-359.59 421.91,-352.84"/>
<text text-anchor="middle" x="575" y="-283.3" font-family="Sans Not-Rotated 14" font-size="14.00"> &#160;&#160;&#160;&#160;&#160;&#160;&#160;&#160;</text>
</g>
<!-- Yellow zone Therapy control operator&#45;&gt;Red zone operator -->
<g id="edge30" class="edge">
<title>Yellow zone Therapy control operator&#45;&gt;Red zone operator</title>
<path fill="none" stroke="black" stroke-width="1.14" d="M455.06,-626.14C462.36,-613.03 473.98,-595.33 488.5,-584 495.15,-578.81 502.66,-574.31 510.44,-570.43"/>
<polygon fill="black" stroke="black" stroke-width="1.14" points="512.06,-573.53 519.66,-566.15 509.11,-567.18 512.06,-573.53"/>
<text text-anchor="middle" x="509" y="-587.8" font-family="Sans Not-Rotated 14" font-size="14.00"> &#160;&#160;&#160;&#160;&#160;&#160;&#160;&#160;</text>
</g>
<!-- Yellow zone Therapy control operator&#45;&gt;Red zone doctor FD -->
<g id="edge32" class="edge">
<title>Yellow zone Therapy control operator&#45;&gt;Red zone doctor FD</title>
<path fill="none" stroke="black" stroke-width="1.07" d="M439.88,-626.22C432.13,-603.89 421.35,-563.64 429.5,-530 433.06,-515.3 440.39,-500.21 447.42,-487.99"/>
<polygon fill="black" stroke="black" stroke-width="1.07" points="450.52,-489.64 452.68,-479.26 444.52,-486.03 450.52,-489.64"/>
<text text-anchor="middle" x="439" y="-544.3" font-family="Sans Not-Rotated 14" font-size="14.00"> &#160;&#160;&#160;</text>
</g>
<!-- Yellow zone Therapy control operator&#45;&gt;Red zone doctor -->
<g id="edge33" class="edge">
<title>Yellow zone Therapy control operator&#45;&gt;Red zone doctor</title>
<path fill="none" stroke="black" stroke-width="1.04" d="M580.45,-626.25C710.21,-601.13 894.37,-539.84 943.5,-392 968.14,-317.86 927.9,-278.73 862.5,-236 843.31,-223.47 790.8,-214.41 745.53,-208.65"/>
<polygon fill="black" stroke="black" stroke-width="1.04" points="745.75,-205.15 735.4,-207.4 744.9,-212.1 745.75,-205.15"/>
<text text-anchor="middle" x="946" y="-413.8" font-family="Sans Not-Rotated 14" font-size="14.00"> &#160;&#160;&#160;</text>
</g>
<!-- Yellow zone Therapy control operator&#45;&gt;Notification operator -->
<g id="edge31" class="edge">
<title>Yellow zone Therapy control operator&#45;&gt;Notification operator</title>
<path fill="none" stroke="black" stroke-width="1.1" d="M307.24,-627.94C256.26,-620.62 205.64,-610.86 183.5,-599 106.75,-557.89 110.64,-510.36 93.5,-425 75.44,-335.05 102.61,-290.37 176.5,-236 183.81,-230.62 192.02,-226 200.5,-222.05"/>
<polygon fill="black" stroke="black" stroke-width="1.1" points="201.99,-225.22 209.77,-218.02 199.2,-218.8 201.99,-225.22"/>
<text text-anchor="middle" x="114" y="-413.8" font-family="Sans Not-Rotated 14" font-size="14.00"> &#160;&#160;&#160;&#160;&#160;&#160;&#160;&#160;</text>
</g>
<!-- end -->
<g id="node12" class="node">
<title>end</title>
<ellipse fill="#ea4126" stroke="black" cx="861.5" cy="-109" rx="18" ry="18"/>
<ellipse fill="none" stroke="black" cx="861.5" cy="-109" rx="22" ry="22"/>
</g>
<!-- Yellow zone Therapy control operator&#45;&gt;end -->
<g id="edge34" class="edge">
<title>Yellow zone Therapy control operator&#45;&gt;end</title>
<path fill="none" stroke="black" stroke-dasharray="5,2" d="M585.57,-633.81C754.31,-620.39 1016.5,-592.54 1016.5,-549 1016.5,-549 1016.5,-549 1016.5,-199 1016.5,-142.72 938.7,-121.51 893.34,-113.93"/>
<polygon fill="black" stroke="black" points="893.8,-110.46 883.38,-112.4 892.73,-117.38 893.8,-110.46"/>
<text text-anchor="middle" x="1026" y="-370.3" font-family="Sans Not-Rotated 14" font-size="14.00"> &#160;&#160;&#160;</text>
</g>
<!-- Meas missing operator -->
<g id="node7" class="node">
<title>Meas missing operator</title>
<polygon fill="#a09dde" stroke="black" points="293,-127 122,-127 122,-91 293,-91 293,-127"/>
<text text-anchor="middle" x="207.5" y="-105.3" font-family="Sans Not-Rotated 14" font-size="14.00">Meas missing operator</text>
</g>
<!-- Meas missing operator&#45;&gt;Notification operator -->
<g id="edge22" class="edge">
<title>Meas missing operator&#45;&gt;Notification operator</title>
<path fill="none" stroke="black" stroke-width="1.45" d="M230.81,-127.38C238.1,-133.62 245.73,-141.08 251.5,-149 256.66,-156.08 260.97,-164.57 264.36,-172.52"/>
<polygon fill="black" stroke="black" stroke-width="1.45" points="261.1,-173.81 268.04,-181.83 267.61,-171.24 261.1,-173.81"/>
<text text-anchor="middle" x="281" y="-152.8" font-family="Sans Not-Rotated 14" font-size="14.00"> &#160;&#160;&#160;&#160;&#160;&#160;&#160;&#160;</text>
</g>
<!-- Meas missing doctor -->
<g id="node9" class="node">
<title>Meas missing doctor</title>
<polygon fill="#c0bde9" stroke="black" points="346,-36 191,-36 191,0 346,0 346,-36"/>
<text text-anchor="middle" x="268.5" y="-14.3" font-family="Sans Not-Rotated 14" font-size="14.00">Meas missing doctor</text>
</g>
<!-- Meas missing operator&#45;&gt;Meas missing doctor -->
<g id="edge2" class="edge">
<title>Meas missing operator&#45;&gt;Meas missing doctor</title>
<path fill="none" stroke="black" stroke-width="2.58" d="M218.26,-90.79C225.05,-80.09 234.09,-66.11 242.5,-54 244.66,-50.9 246.96,-47.67 249.27,-44.49"/>
<polygon fill="black" stroke="black" stroke-width="2.58" points="252.2,-46.41 255.32,-36.29 246.57,-42.26 252.2,-46.41"/>
<text text-anchor="middle" x="279" y="-57.8" font-family="Sans Not-Rotated 14" font-size="14.00"> &#160;&#160;&#160;&#160;&#160;&#160;&#160;&#160;&#160;&#160;&#160;&#160;&#160;&#160;&#160;</text>
</g>
<!-- Notification operator&#45;&gt;Red zone operator -->
<g id="edge36" class="edge">
<title>Notification operator&#45;&gt;Red zone operator</title>
<path fill="none" stroke="black" stroke-width="1.35" d="M353.12,-205.09C405.09,-209.38 473.91,-218.13 532.5,-236 564.25,-245.68 569.97,-253.84 599.5,-269 644.78,-292.25 674.33,-279.34 700.5,-323 708.16,-335.79 699.17,-341.84 694.5,-356 671.63,-425.27 690.29,-456.04 643.5,-512 639.66,-516.6 635.05,-520.68 630.08,-524.29"/>
<polygon fill="black" stroke="black" stroke-width="1.35" points="627.92,-521.52 621.46,-529.92 631.74,-527.38 627.92,-521.52"/>
<text text-anchor="middle" x="715" y="-370.3" font-family="Sans Not-Rotated 14" font-size="14.00"> &#160;&#160;&#160;&#160;&#160;&#160;&#160;&#160;</text>
</g>
<!-- Notification operator&#45;&gt;Yellow zone doctor FD -->
<g id="edge35" class="edge">
<title>Notification operator&#45;&gt;Yellow zone doctor FD</title>
<path fill="none" stroke="black" stroke-width="1.29" d="M350.72,-218.07C362.68,-222.72 374.4,-228.59 384.5,-236 393.12,-242.32 400.39,-251.44 406.03,-260.15"/>
<polygon fill="black" stroke="black" stroke-width="1.29" points="403.16,-262.18 411.3,-268.96 409.16,-258.58 403.16,-262.18"/>
<text text-anchor="middle" x="420" y="-239.8" font-family="Sans Not-Rotated 14" font-size="14.00"> &#160;&#160;&#160;&#160;&#160;&#160;&#160;&#160;</text>
</g>
<!-- Notification operator&#45;&gt;Yellow zone Therapy control operator -->
<g id="edge16" class="edge">
<title>Notification operator&#45;&gt;Yellow zone Therapy control operator</title>
<path fill="none" stroke="black" stroke-width="1.05" d="M224.36,-218.05C202.02,-228.77 178.21,-245.17 167.5,-269 140.56,-328.96 156.5,-350.76 156.5,-416.5 156.5,-549 156.5,-549 156.5,-549 156.5,-585.11 238.85,-609.51 315.78,-624.43"/>
<polygon fill="black" stroke="black" stroke-width="1.05" points="315.14,-627.87 325.61,-626.29 316.44,-620.99 315.14,-627.87"/>
<text text-anchor="middle" x="166" y="-413.8" font-family="Sans Not-Rotated 14" font-size="14.00"> &#160;&#160;&#160;</text>
</g>
<!-- Notification operator&#45;&gt;Meas missing operator -->
<g id="edge17" class="edge">
<title>Notification operator&#45;&gt;Meas missing operator</title>
<path fill="none" stroke="black" stroke-width="2.76" d="M198.17,-181.76C190.48,-177.17 183.63,-171.35 178.5,-164 172.19,-154.95 175.74,-144.38 182.21,-135"/>
<polygon fill="black" stroke="black" stroke-width="2.76" points="184.98,-137.14 188.46,-127.13 179.5,-132.78 184.98,-137.14"/>
<text text-anchor="middle" x="215" y="-152.8" font-family="Sans Not-Rotated 14" font-size="14.00"> &#160;&#160;&#160;&#160;&#160;&#160;&#160;&#160;&#160;&#160;&#160;&#160;&#160;&#160;&#160;</text>
</g>
<!-- Notification operator&#45;&gt;Notification operator -->
<g id="edge39" class="edge">
<title>Notification operator&#45;&gt;Notification operator</title>
<path fill="none" stroke="black" stroke-width="2.05" d="M353.07,-206.99C363.83,-205.82 371,-203.49 371,-200 371,-197.77 368.06,-196.01 363.12,-194.72"/>
<polygon fill="black" stroke="black" stroke-width="2.05" points="363.52,-191.24 353.07,-193.01 362.34,-198.14 363.52,-191.24"/>
<text text-anchor="middle" x="391.5" y="-196.3" font-family="Sans Not-Rotated 14" font-size="14.00"> &#160;&#160;&#160;&#160;&#160;&#160;&#160;&#160;</text>
</g>
<!-- Notification operator&#45;&gt;Yellow zone doctor -->
<g id="edge25" class="edge">
<title>Notification operator&#45;&gt;Yellow zone doctor</title>
<path fill="none" stroke="black" stroke-width="1.67" d="M271.84,-218.08C270.06,-246.06 270.48,-302.12 297.5,-338 300.37,-341.82 303.73,-345.5 307.27,-348.96"/>
<polygon fill="black" stroke="black" stroke-width="1.67" points="304.93,-351.56 314.68,-355.7 309.64,-346.38 304.93,-351.56"/>
<text text-anchor="middle" x="302" y="-283.3" font-family="Sans Not-Rotated 14" font-size="14.00"> &#160;&#160;&#160;&#160;&#160;&#160;&#160;&#160;</text>
</g>
<!-- Notification operator&#45;&gt;end -->
<g id="edge27" class="edge">
<title>Notification operator&#45;&gt;end</title>
<path fill="none" stroke="black" stroke-dasharray="5,2" d="M353.11,-186.95C484.25,-167.1 740.12,-128.37 829.65,-114.82"/>
<polygon fill="black" stroke="black" points="830.36,-118.25 839.72,-113.3 829.31,-111.33 830.36,-118.25"/>
<text text-anchor="middle" x="624" y="-152.8" font-family="Sans Not-Rotated 14" font-size="14.00"> &#160;&#160;&#160;&#160;&#160;&#160;&#160;&#160;</text>
</g>
<!-- Meas missing doctor&#45;&gt;Notification operator -->
<g id="edge20" class="edge">
<title>Meas missing doctor&#45;&gt;Notification operator</title>
<path fill="none" stroke="black" stroke-width="2.13" d="M300.39,-36.33C306.48,-41.2 312.03,-47.09 315.5,-54 337.53,-97.87 325.64,-119.23 305.5,-164 303.96,-167.43 301.95,-170.75 299.68,-173.89"/>
<polygon fill="black" stroke="black" stroke-width="2.13" points="296.88,-171.79 293.25,-181.74 302.3,-176.22 296.88,-171.79"/>
<text text-anchor="middle" x="364" y="-105.3" font-family="Sans Not-Rotated 14" font-size="14.00"> &#160;&#160;&#160;&#160;&#160;&#160;&#160;&#160;&#160;&#160;&#160;&#160;&#160;&#160;&#160;</text>
</g>
<!-- Yellow zone doctor&#45;&gt;Yellow zone doctor FD -->
<g id="edge10" class="edge">
<title>Yellow zone doctor&#45;&gt;Yellow zone doctor FD</title>
<path fill="none" stroke="black" stroke-width="3.62" d="M361.7,-355.79C368.37,-350.4 375.48,-344.23 381.5,-338 388.81,-330.44 396.01,-321.47 402.14,-313.24"/>
<polygon fill="black" stroke="black" stroke-width="3.62" points="405.07,-315.16 408.11,-305.01 399.4,-311.05 405.07,-315.16"/>
<text text-anchor="middle" x="431" y="-326.8" font-family="Sans Not-Rotated 14" font-size="14.00"> &#160;&#160;&#160;&#160;&#160;&#160;&#160;&#160;&#160;&#160;&#160;&#160;&#160;&#160;&#160;</text>
</g>
<!-- Yellow zone doctor&#45;&gt;Notification operator -->
<g id="edge21" class="edge">
<title>Yellow zone doctor&#45;&gt;Notification operator</title>
<path fill="none" stroke="black" stroke-width="1.35" d="M275.21,-355.91C250.16,-345.59 224.12,-329.53 210.5,-305 194.94,-276.98 220,-245.61 242.97,-224.73"/>
<polygon fill="black" stroke="black" stroke-width="1.35" points="245.37,-227.27 250.62,-218.06 240.78,-221.99 245.37,-227.27"/>
<text text-anchor="middle" x="231" y="-283.3" font-family="Sans Not-Rotated 14" font-size="14.00"> &#160;&#160;&#160;&#160;&#160;&#160;&#160;&#160;</text>
</g>
<!-- start -->
<g id="node11" class="node">
<title>start</title>
<ellipse fill="#95d600" stroke="black" cx="960.5" cy="-644.3" rx="27.1" ry="27.1"/>
<text text-anchor="middle" x="960.5" y="-640.6" font-family="Sans Not-Rotated 14" font-size="14.00">start</text>
</g>
<!-- start&#45;&gt;Red zone operator -->
<g id="edge6" class="edge">
<title>start&#45;&gt;Red zone operator</title>
<path fill="none" stroke="black" stroke-dasharray="5,2" d="M934.24,-636.82C878,-622.93 744,-589.85 657.46,-568.49"/>
<polygon fill="black" stroke="black" points="658.22,-565.07 647.67,-566.08 656.54,-571.87 658.22,-565.07"/>
<text text-anchor="middle" x="802" y="-587.8" font-family="Sans Not-Rotated 14" font-size="14.00"> &#160;&#160;&#160;&#160;&#160;&#160;&#160;&#160;</text>
</g>
</g>
</svg>
