<?xml version="1.0" encoding="UTF-8" standalone="no"?>
<!DOCTYPE svg PUBLIC "-//W3C//DTD SVG 1.1//EN"
 "http://www.w3.org/Graphics/SVG/1.1/DTD/svg11.dtd">
<!-- Generated by graphviz version 3.0.0 (20220226.1711)
 -->
<!-- Pages: 1 -->
<svg width="510pt" height="854pt"
 viewBox="0.00 0.00 510.00 853.60" xmlns="http://www.w3.org/2000/svg" xmlns:xlink="http://www.w3.org/1999/xlink">
<g id="graph0" class="graph" transform="scale(1 1) rotate(0) translate(4 849.6)">
<polygon fill="white" stroke="transparent" points="-4,4 -4,-849.6 506,-849.6 506,4 -4,4"/>
<!-- Program change operator -->
<g id="node1" class="node">
<title>Program change operator</title>
<polygon fill="#ffffff" stroke="black" points="496.5,-845.6 303.5,-845.6 303.5,-809.6 496.5,-809.6 496.5,-845.6"/>
<text text-anchor="middle" x="400" y="-823.9" font-family="Sans Not-Rotated 14" font-size="14.00">Program change operator</text>
</g>
<!-- Yellow zone Therapy control operator -->
<g id="node6" class="node">
<title>Yellow zone Therapy control operator</title>
<polygon fill="#e0ddf4" stroke="black" points="455,-749.3 177,-749.3 177,-713.3 455,-713.3 455,-749.3"/>
<text text-anchor="middle" x="316" y="-727.6" font-family="Sans Not-Rotated 14" font-size="14.00">Yellow zone Therapy control operator</text>
</g>
<!-- Program change operator&#45;&gt;Yellow zone Therapy control operator -->
<g id="edge1" class="edge">
<title>Program change operator&#45;&gt;Yellow zone Therapy control operator</title>
<path fill="none" stroke="black" stroke-width="1.01" d="M384.59,-809.3C371.57,-794.68 352.75,-773.55 338.11,-757.12"/>
<polygon fill="black" stroke="black" stroke-width="1.01" points="340.57,-754.62 331.31,-749.48 335.35,-759.28 340.57,-754.62"/>
<text text-anchor="middle" x="377.5" y="-780.4" font-family="Sans Not-Rotated 14" font-size="14.00"> &#160;&#160;&#160;</text>
</g>
<!-- Red zone operator -->
<g id="node2" class="node">
<title>Red zone operator</title>
<polygon fill="#1d2559" stroke="black" points="202.5,-653 57.5,-653 57.5,-617 202.5,-617 202.5,-653"/>
<text text-anchor="middle" x="130" y="-631.3" font-family="Sans Not-Rotated 14" font-size="14.00" fill="white">Red zone operator</text>
</g>
<!-- Red zone doctor FD -->
<g id="node3" class="node">
<title>Red zone doctor FD</title>
<polygon fill="#1d2559" stroke="black" points="328.5,-479 175.5,-479 175.5,-443 328.5,-443 328.5,-479"/>
<text text-anchor="middle" x="252" y="-457.3" font-family="Sans Not-Rotated 14" font-size="14.00" fill="white">Red zone doctor FD</text>
</g>
<!-- Red zone operator&#45;&gt;Red zone doctor FD -->
<g id="edge7" class="edge">
<title>Red zone operator&#45;&gt;Red zone doctor FD</title>
<path fill="none" stroke="black" stroke-width="3.34" d="M179.24,-616.94C187.46,-612.23 195.19,-606.32 201,-599 220.56,-574.33 206.16,-559.55 217,-530 222.28,-515.6 229.93,-500.34 236.73,-487.94"/>
<polygon fill="black" stroke="black" stroke-width="3.34" points="239.86,-489.51 241.71,-479.07 233.76,-486.08 239.86,-489.51"/>
<text text-anchor="middle" x="253.5" y="-544.3" font-family="Sans Not-Rotated 14" font-size="14.00"> &#160;&#160;&#160;&#160;&#160;&#160;&#160;&#160;&#160;&#160;&#160;&#160;&#160;&#160;&#160;</text>
</g>
<!-- Red zone doctor -->
<g id="node5" class="node">
<title>Red zone doctor</title>
<polygon fill="#1f3b98" stroke="black" points="180.5,-566 51.5,-566 51.5,-530 180.5,-530 180.5,-566"/>
<text text-anchor="middle" x="116" y="-544.3" font-family="Sans Not-Rotated 14" font-size="14.00" fill="white">Red zone doctor</text>
</g>
<!-- Red zone operator&#45;&gt;Red zone doctor -->
<g id="edge9" class="edge">
<title>Red zone operator&#45;&gt;Red zone doctor</title>
<path fill="none" stroke="black" stroke-width="5" d="M127.17,-616.8C125.25,-605.16 122.68,-589.55 120.49,-576.24"/>
<polygon fill="black" stroke="black" stroke-width="5" points="124.77,-575.33 118.83,-566.18 116.14,-576.75 124.77,-575.33"/>
<text text-anchor="middle" x="160.5" y="-587.8" font-family="Sans Not-Rotated 14" font-size="14.00"> &#160;&#160;&#160;&#160;&#160;&#160;&#160;&#160;&#160;&#160;&#160;&#160;&#160;&#160;&#160;</text>
</g>
<!-- Red zone doctor FD&#45;&gt;Red zone operator -->
<g id="edge5" class="edge">
<title>Red zone doctor FD&#45;&gt;Red zone operator</title>
<path fill="none" stroke="black" stroke-width="3.43" d="M268.52,-479.36C286.71,-500.68 311.24,-537.51 294,-566 276.5,-594.92 243.9,-611.54 212.35,-621.09"/>
<polygon fill="black" stroke="black" stroke-width="3.43" points="211.29,-617.75 202.61,-623.83 213.19,-624.49 211.29,-617.75"/>
<text text-anchor="middle" x="336.5" y="-544.3" font-family="Sans Not-Rotated 14" font-size="14.00"> &#160;&#160;&#160;&#160;&#160;&#160;&#160;&#160;&#160;&#160;&#160;&#160;&#160;&#160;&#160;</text>
</g>
<!-- Red zone doctor FD&#45;&gt;Red zone doctor FD -->
<g id="edge21" class="edge">
<title>Red zone doctor FD&#45;&gt;Red zone doctor FD</title>
<path fill="none" stroke="black" stroke-width="2.54" d="M328.75,-468.03C339.39,-466.87 346.5,-464.53 346.5,-461 346.5,-458.74 343.58,-456.97 338.69,-455.68"/>
<polygon fill="black" stroke="black" stroke-width="2.54" points="339.2,-452.22 328.75,-453.97 338.02,-459.12 339.2,-452.22"/>
<text text-anchor="middle" x="383" y="-457.3" font-family="Sans Not-Rotated 14" font-size="14.00"> &#160;&#160;&#160;&#160;&#160;&#160;&#160;&#160;&#160;&#160;&#160;&#160;&#160;&#160;&#160;</text>
</g>
<!-- Red zone doctor FD&#45;&gt;Yellow zone Therapy control operator -->
<g id="edge10" class="edge">
<title>Red zone doctor FD&#45;&gt;Yellow zone Therapy control operator</title>
<path fill="none" stroke="black" stroke-width="1.19" d="M311.1,-479.07C336.02,-489.52 362.55,-505.68 377,-530 411.02,-587.23 365.14,-665.09 336.27,-704.77"/>
<polygon fill="black" stroke="black" stroke-width="1.19" points="333.24,-702.99 330.06,-713.09 338.85,-707.18 333.24,-702.99"/>
<text text-anchor="middle" x="408.5" y="-587.8" font-family="Sans Not-Rotated 14" font-size="14.00"> &#160;&#160;&#160;&#160;&#160;&#160;&#160;&#160;</text>
</g>
<!-- Notification operator -->
<g id="node8" class="node">
<title>Notification operator</title>
<polygon fill="#1946ba" stroke="black" points="295.5,-218 136.5,-218 136.5,-182 295.5,-182 295.5,-218"/>
<text text-anchor="middle" x="216" y="-196.3" font-family="Sans Not-Rotated 14" font-size="14.00" fill="white">Notification operator</text>
</g>
<!-- Red zone doctor FD&#45;&gt;Notification operator -->
<g id="edge13" class="edge">
<title>Red zone doctor FD&#45;&gt;Notification operator</title>
<path fill="none" stroke="black" stroke-width="1.56" d="M241.09,-442.9C233.27,-429.6 223.38,-410.38 219,-392 205.44,-335.04 209.16,-265.79 212.77,-228.3"/>
<polygon fill="black" stroke="black" stroke-width="1.56" points="216.27,-228.48 213.82,-218.17 209.31,-227.76 216.27,-228.48"/>
<text text-anchor="middle" x="231.5" y="-326.8" font-family="Sans Not-Rotated 14" font-size="14.00"> &#160;&#160;&#160;&#160;&#160;&#160;&#160;&#160;</text>
</g>
<!-- Yellow zone doctor -->
<g id="node10" class="node">
<title>Yellow zone doctor</title>
<polygon fill="#7d7fd2" stroke="black" points="377.5,-392 228.5,-392 228.5,-356 377.5,-356 377.5,-392"/>
<text text-anchor="middle" x="303" y="-370.3" font-family="Sans Not-Rotated 14" font-size="14.00">Yellow zone doctor</text>
</g>
<!-- Red zone doctor FD&#45;&gt;Yellow zone doctor -->
<g id="edge14" class="edge">
<title>Red zone doctor FD&#45;&gt;Yellow zone doctor</title>
<path fill="none" stroke="black" stroke-width="2.04" d="M262.32,-442.8C269.51,-430.82 279.23,-414.62 287.37,-401.06"/>
<polygon fill="black" stroke="black" stroke-width="2.04" points="290.55,-402.55 292.69,-392.18 284.55,-398.95 290.55,-402.55"/>
<text text-anchor="middle" x="301.5" y="-413.8" font-family="Sans Not-Rotated 14" font-size="14.00"> &#160;&#160;&#160;&#160;&#160;&#160;&#160;&#160;</text>
</g>
<!-- Yellow zone doctor FD -->
<g id="node4" class="node">
<title>Yellow zone doctor FD</title>
<polygon fill="#5661c6" stroke="black" points="401.5,-305 228.5,-305 228.5,-269 401.5,-269 401.5,-305"/>
<text text-anchor="middle" x="315" y="-283.3" font-family="Sans Not-Rotated 14" font-size="14.00" fill="white">Yellow zone doctor FD</text>
</g>
<!-- Yellow zone doctor FD&#45;&gt;Program change operator -->
<g id="edge3" class="edge">
<title>Yellow zone doctor FD&#45;&gt;Program change operator</title>
<path fill="none" stroke="black" d="M401.95,-299.9C442.95,-310.92 483,-332.14 483,-373 483,-732.3 483,-732.3 483,-732.3 483,-761.89 459.69,-786.6 437.78,-803.29"/>
<polygon fill="black" stroke="black" points="435.54,-800.59 429.5,-809.29 439.65,-806.26 435.54,-800.59"/>
<text text-anchor="middle" x="492.5" y="-544.3" font-family="Sans Not-Rotated 14" font-size="14.00"> &#160;&#160;&#160;</text>
</g>
<!-- Yellow zone doctor FD&#45;&gt;Red zone operator -->
<g id="edge17" class="edge">
<title>Yellow zone doctor FD&#45;&gt;Red zone operator</title>
<path fill="none" stroke="black" stroke-width="1.67" d="M228.09,-294.44C134.85,-303.81 0,-325.56 0,-373 0,-549 0,-549 0,-549 0,-574.26 7.71,-582.7 27,-599 33.38,-604.39 40.62,-608.96 48.25,-612.83"/>
<polygon fill="black" stroke="black" stroke-width="1.67" points="46.8,-616.02 57.34,-617.07 49.75,-609.68 46.8,-616.02"/>
<text text-anchor="middle" x="20.5" y="-457.3" font-family="Sans Not-Rotated 14" font-size="14.00"> &#160;&#160;&#160;&#160;&#160;&#160;&#160;&#160;</text>
</g>
<!-- Yellow zone doctor FD&#45;&gt;Notification operator -->
<g id="edge12" class="edge">
<title>Yellow zone doctor FD&#45;&gt;Notification operator</title>
<path fill="none" stroke="black" stroke-width="1.93" d="M294.97,-268.8C280.21,-256.13 259.95,-238.73 243.65,-224.74"/>
<polygon fill="black" stroke="black" stroke-width="1.93" points="245.87,-222.03 236,-218.18 241.31,-227.35 245.87,-222.03"/>
<text text-anchor="middle" x="292.5" y="-239.8" font-family="Sans Not-Rotated 14" font-size="14.00"> &#160;&#160;&#160;&#160;&#160;&#160;&#160;&#160;</text>
</g>
<!-- Yellow zone doctor FD&#45;&gt;Yellow zone doctor -->
<g id="edge16" class="edge">
<title>Yellow zone doctor FD&#45;&gt;Yellow zone doctor</title>
<path fill="none" stroke="black" stroke-width="2.15" d="M343.47,-305.22C354.67,-314.31 363.5,-326.05 357,-338 354.69,-342.25 351.61,-346.07 348.09,-349.48"/>
<polygon fill="black" stroke="black" stroke-width="2.15" points="345.82,-346.82 340.36,-355.9 350.29,-352.2 345.82,-346.82"/>
<text text-anchor="middle" x="396.5" y="-326.8" font-family="Sans Not-Rotated 14" font-size="14.00"> &#160;&#160;&#160;&#160;&#160;&#160;&#160;&#160;&#160;&#160;&#160;&#160;&#160;&#160;&#160;</text>
</g>
<!-- Red zone doctor&#45;&gt;Red zone operator -->
<g id="edge4" class="edge">
<title>Red zone doctor&#45;&gt;Red zone operator</title>
<path fill="none" stroke="black" stroke-width="3.46" d="M52.59,-566.15C35.5,-574.09 24.15,-584.93 34,-599 37.96,-604.66 42.94,-609.41 48.54,-613.4"/>
<polygon fill="black" stroke="black" stroke-width="3.46" points="46.79,-616.43 57.14,-618.7 50.47,-610.47 46.79,-616.43"/>
<text text-anchor="middle" x="70.5" y="-587.8" font-family="Sans Not-Rotated 14" font-size="14.00"> &#160;&#160;&#160;&#160;&#160;&#160;&#160;&#160;&#160;&#160;&#160;&#160;&#160;&#160;&#160;</text>
</g>
<!-- Red zone doctor&#45;&gt;Red zone doctor FD -->
<g id="edge6" class="edge">
<title>Red zone doctor&#45;&gt;Red zone doctor FD</title>
<path fill="none" stroke="black" stroke-width="3.5" d="M116.71,-529.59C118.05,-518.87 121.49,-505.57 130,-497 139.87,-487.06 152.37,-479.9 165.57,-474.75"/>
<polygon fill="black" stroke="black" stroke-width="3.5" points="167,-477.96 175.28,-471.35 164.69,-471.36 167,-477.96"/>
<text text-anchor="middle" x="166.5" y="-500.8" font-family="Sans Not-Rotated 14" font-size="14.00"> &#160;&#160;&#160;&#160;&#160;&#160;&#160;&#160;&#160;&#160;&#160;&#160;&#160;&#160;&#160;</text>
</g>
<!-- Yellow zone Therapy control operator&#45;&gt;Red zone operator -->
<g id="edge18" class="edge">
<title>Yellow zone Therapy control operator&#45;&gt;Red zone operator</title>
<path fill="none" stroke="black" stroke-width="1.14" d="M282.32,-713.22C251.6,-697.65 206.07,-674.56 172.79,-657.69"/>
<polygon fill="black" stroke="black" stroke-width="1.14" points="174.25,-654.51 163.75,-653.11 171.08,-660.75 174.25,-654.51"/>
<text text-anchor="middle" x="249.5" y="-674.8" font-family="Sans Not-Rotated 14" font-size="14.00"> &#160;&#160;&#160;&#160;&#160;&#160;&#160;&#160;</text>
</g>
<!-- Meas missing operator -->
<g id="node7" class="node">
<title>Meas missing operator</title>
<polygon fill="#a09dde" stroke="black" points="179.5,-127 8.5,-127 8.5,-91 179.5,-91 179.5,-127"/>
<text text-anchor="middle" x="94" y="-105.3" font-family="Sans Not-Rotated 14" font-size="14.00">Meas missing operator</text>
</g>
<!-- Meas missing doctor -->
<g id="node9" class="node">
<title>Meas missing doctor</title>
<polygon fill="#c0bde9" stroke="black" points="232.5,-36 77.5,-36 77.5,0 232.5,0 232.5,-36"/>
<text text-anchor="middle" x="155" y="-14.3" font-family="Sans Not-Rotated 14" font-size="14.00">Meas missing doctor</text>
</g>
<!-- Meas missing operator&#45;&gt;Meas missing doctor -->
<g id="edge2" class="edge">
<title>Meas missing operator&#45;&gt;Meas missing doctor</title>
<path fill="none" stroke="black" stroke-width="2.58" d="M104.76,-90.79C111.55,-80.09 120.59,-66.11 129,-54 131.16,-50.9 133.46,-47.67 135.77,-44.49"/>
<polygon fill="black" stroke="black" stroke-width="2.58" points="138.7,-46.41 141.82,-36.29 133.07,-42.26 138.7,-46.41"/>
<text text-anchor="middle" x="165.5" y="-57.8" font-family="Sans Not-Rotated 14" font-size="14.00"> &#160;&#160;&#160;&#160;&#160;&#160;&#160;&#160;&#160;&#160;&#160;&#160;&#160;&#160;&#160;</text>
</g>
<!-- Notification operator&#45;&gt;Meas missing operator -->
<g id="edge11" class="edge">
<title>Notification operator&#45;&gt;Meas missing operator</title>
<path fill="none" stroke="black" stroke-width="2.76" d="M158.89,-181.9C148.29,-177.15 137.8,-171.25 129,-164 119.85,-156.46 112.27,-145.9 106.54,-136.11"/>
<polygon fill="black" stroke="black" stroke-width="2.76" points="109.48,-134.19 101.61,-127.09 103.33,-137.54 109.48,-134.19"/>
<text text-anchor="middle" x="165.5" y="-152.8" font-family="Sans Not-Rotated 14" font-size="14.00"> &#160;&#160;&#160;&#160;&#160;&#160;&#160;&#160;&#160;&#160;&#160;&#160;&#160;&#160;&#160;</text>
</g>
<!-- end -->
<g id="node12" class="node">
<title>end</title>
<ellipse fill="#ea4126" stroke="black" cx="329" cy="-109" rx="18" ry="18"/>
<ellipse fill="none" stroke="black" cx="329" cy="-109" rx="22" ry="22"/>
</g>
<!-- Notification operator&#45;&gt;end -->
<g id="edge15" class="edge">
<title>Notification operator&#45;&gt;end</title>
<path fill="none" stroke="black" stroke-dasharray="5,2" d="M237.79,-181.84C256.76,-166.9 284.24,-145.25 304.08,-129.63"/>
<polygon fill="black" stroke="black" points="306.38,-132.27 312.07,-123.34 302.05,-126.77 306.38,-132.27"/>
<text text-anchor="middle" x="300.5" y="-152.8" font-family="Sans Not-Rotated 14" font-size="14.00"> &#160;&#160;&#160;&#160;&#160;&#160;&#160;&#160;</text>
</g>
<!-- Meas missing doctor&#45;&gt;Notification operator -->
<g id="edge19" class="edge">
<title>Meas missing doctor&#45;&gt;Notification operator</title>
<path fill="none" stroke="black" stroke-width="2.13" d="M185.92,-36.21C192.22,-41.14 198.1,-47.09 202,-54 222.67,-90.65 222.39,-140.91 219.65,-171.61"/>
<polygon fill="black" stroke="black" stroke-width="2.13" points="216.17,-171.29 218.62,-181.6 223.13,-172.01 216.17,-171.29"/>
<text text-anchor="middle" x="257.5" y="-105.3" font-family="Sans Not-Rotated 14" font-size="14.00"> &#160;&#160;&#160;&#160;&#160;&#160;&#160;&#160;&#160;&#160;&#160;&#160;&#160;&#160;&#160;</text>
</g>
<!-- Yellow zone doctor&#45;&gt;Yellow zone doctor FD -->
<g id="edge8" class="edge">
<title>Yellow zone doctor&#45;&gt;Yellow zone doctor FD</title>
<path fill="none" stroke="black" stroke-width="3.62" d="M290.07,-355.88C284.39,-346.22 279.85,-333.94 284,-323 285.28,-319.63 287.04,-316.38 289.09,-313.31"/>
<polygon fill="black" stroke="black" stroke-width="3.62" points="292.04,-315.21 295.42,-305.17 286.52,-310.91 292.04,-315.21"/>
<text text-anchor="middle" x="320.5" y="-326.8" font-family="Sans Not-Rotated 14" font-size="14.00"> &#160;&#160;&#160;&#160;&#160;&#160;&#160;&#160;&#160;&#160;&#160;&#160;&#160;&#160;&#160;</text>
</g>
<!-- start -->
<g id="node11" class="node">
<title>start</title>
<ellipse fill="#95d600" stroke="black" cx="130" cy="-731.3" rx="27.1" ry="27.1"/>
<text text-anchor="middle" x="130" y="-727.6" font-family="Sans Not-Rotated 14" font-size="14.00">start</text>
</g>
<!-- start&#45;&gt;Red zone operator -->
<g id="edge20" class="edge">
<title>start&#45;&gt;Red zone operator</title>
<path fill="none" stroke="black" stroke-dasharray="5,2" d="M130,-703.78C130,-691.1 130,-675.93 130,-663.17"/>
<polygon fill="black" stroke="black" points="133.5,-663.12 130,-653.12 126.5,-663.12 133.5,-663.12"/>
<text text-anchor="middle" x="150.5" y="-674.8" font-family="Sans Not-Rotated 14" font-size="14.00"> &#160;&#160;&#160;&#160;&#160;&#160;&#160;&#160;</text>
</g>
</g>
</svg>
