<?xml version="1.0" encoding="UTF-8" standalone="no"?>
<!DOCTYPE svg PUBLIC "-//W3C//DTD SVG 1.1//EN"
 "http://www.w3.org/Graphics/SVG/1.1/DTD/svg11.dtd">
<!-- Generated by graphviz version 3.0.0 (20220226.1711)
 -->
<!-- Pages: 1 -->
<svg width="967pt" height="767pt"
 viewBox="0.00 0.00 966.50 766.60" xmlns="http://www.w3.org/2000/svg" xmlns:xlink="http://www.w3.org/1999/xlink">
<g id="graph0" class="graph" transform="scale(1 1) rotate(0) translate(4 762.6)">
<polygon fill="white" stroke="transparent" points="-4,4 -4,-762.6 962.5,-762.6 962.5,4 -4,4"/>
<!-- Program change operator -->
<g id="node1" class="node">
<title>Program change operator</title>
<polygon fill="#ffffff" stroke="black" points="193,-758.6 0,-758.6 0,-722.6 193,-722.6 193,-758.6"/>
<text text-anchor="middle" x="96.5" y="-736.9" font-family="Sans Not-Rotated 14" font-size="14.00">Program change operator</text>
</g>
<!-- Yellow zone Therapy control operator -->
<g id="node6" class="node">
<title>Yellow zone Therapy control operator</title>
<polygon fill="#e0ddf4" stroke="black" points="931.5,-662.3 653.5,-662.3 653.5,-626.3 931.5,-626.3 931.5,-662.3"/>
<text text-anchor="middle" x="792.5" y="-640.6" font-family="Sans Not-Rotated 14" font-size="14.00">Yellow zone Therapy control operator</text>
</g>
<!-- Program change operator&#45;&gt;Yellow zone Therapy control operator -->
<g id="edge1" class="edge">
<title>Program change operator&#45;&gt;Yellow zone Therapy control operator</title>
<path fill="none" stroke="black" stroke-width="1.01" d="M193.23,-729.14C302.88,-716.94 486.9,-695.36 644.5,-671.6 659.53,-669.33 675.38,-666.73 690.9,-664.07"/>
<polygon fill="black" stroke="black" stroke-width="1.01" points="691.78,-667.47 701.04,-662.32 690.59,-660.58 691.78,-667.47"/>
<text text-anchor="middle" x="520" y="-693.4" font-family="Sans Not-Rotated 14" font-size="14.00"> &#160;&#160;&#160;</text>
</g>
<!-- Red zone operator -->
<g id="node2" class="node">
<title>Red zone operator</title>
<polygon fill="#1d2559" stroke="black" points="689,-566 544,-566 544,-530 689,-530 689,-566"/>
<text text-anchor="middle" x="616.5" y="-544.3" font-family="Sans Not-Rotated 14" font-size="14.00" fill="white">Red zone operator</text>
</g>
<!-- Red zone operator&#45;&gt;Red zone operator -->
<g id="edge33" class="edge">
<title>Red zone operator&#45;&gt;Red zone operator</title>
<path fill="none" stroke="black" stroke-width="1.51" d="M689.29,-555.11C699.87,-553.98 707,-551.61 707,-548 707,-545.69 704.07,-543.88 699.19,-542.59"/>
<polygon fill="black" stroke="black" stroke-width="1.51" points="699.74,-539.13 689.29,-540.89 698.55,-546.03 699.74,-539.13"/>
<text text-anchor="middle" x="727.5" y="-544.3" font-family="Sans Not-Rotated 14" font-size="14.00"> &#160;&#160;&#160;&#160;&#160;&#160;&#160;&#160;</text>
</g>
<!-- Red zone doctor FD -->
<g id="node3" class="node">
<title>Red zone doctor FD</title>
<polygon fill="#1d2559" stroke="black" points="610,-479 457,-479 457,-443 610,-443 610,-479"/>
<text text-anchor="middle" x="533.5" y="-457.3" font-family="Sans Not-Rotated 14" font-size="14.00" fill="white">Red zone doctor FD</text>
</g>
<!-- Red zone operator&#45;&gt;Red zone doctor FD -->
<g id="edge9" class="edge">
<title>Red zone operator&#45;&gt;Red zone doctor FD</title>
<path fill="none" stroke="black" stroke-width="3.34" d="M543.62,-530.06C535.74,-525.42 528.7,-519.52 523.5,-512 518.77,-505.17 518.85,-496.63 520.86,-488.55"/>
<polygon fill="black" stroke="black" stroke-width="3.34" points="524.17,-489.66 524.05,-479.07 517.54,-487.42 524.17,-489.66"/>
<text text-anchor="middle" x="560" y="-500.8" font-family="Sans Not-Rotated 14" font-size="14.00"> &#160;&#160;&#160;&#160;&#160;&#160;&#160;&#160;&#160;&#160;&#160;&#160;&#160;&#160;&#160;</text>
</g>
<!-- Red zone doctor -->
<g id="node5" class="node">
<title>Red zone doctor</title>
<polygon fill="#1f3b98" stroke="black" points="792,-218 663,-218 663,-182 792,-182 792,-218"/>
<text text-anchor="middle" x="727.5" y="-196.3" font-family="Sans Not-Rotated 14" font-size="14.00" fill="white">Red zone doctor</text>
</g>
<!-- Red zone operator&#45;&gt;Red zone doctor -->
<g id="edge12" class="edge">
<title>Red zone operator&#45;&gt;Red zone doctor</title>
<path fill="none" stroke="black" stroke-width="5" d="M673.41,-529.81C685.2,-524.99 697.16,-519.08 707.5,-512 766.95,-471.3 790.53,-459.21 816.5,-392 838.76,-334.39 765.3,-240.05 762.5,-236 760.03,-232.42 757.17,-228.89 754.16,-225.52"/>
<polygon fill="black" stroke="black" stroke-width="5" points="757.09,-222.25 747.02,-218.04 750.76,-228.29 757.09,-222.25"/>
<text text-anchor="middle" x="858" y="-370.3" font-family="Sans Not-Rotated 14" font-size="14.00"> &#160;&#160;&#160;&#160;&#160;&#160;&#160;&#160;&#160;&#160;&#160;&#160;&#160;&#160;&#160;</text>
</g>
<!-- Red zone doctor FD&#45;&gt;Red zone operator -->
<g id="edge5" class="edge">
<title>Red zone doctor FD&#45;&gt;Red zone operator</title>
<path fill="none" stroke="black" stroke-width="3.43" d="M578.15,-479.05C586.45,-483.84 594.42,-489.77 600.5,-497 605.95,-503.47 609.55,-511.82 611.92,-519.84"/>
<polygon fill="black" stroke="black" stroke-width="3.43" points="608.55,-520.77 614.33,-529.65 615.35,-519.1 608.55,-520.77"/>
<text text-anchor="middle" x="646" y="-500.8" font-family="Sans Not-Rotated 14" font-size="14.00"> &#160;&#160;&#160;&#160;&#160;&#160;&#160;&#160;&#160;&#160;&#160;&#160;&#160;&#160;&#160;</text>
</g>
<!-- Red zone doctor FD&#45;&gt;Red zone doctor FD -->
<g id="edge34" class="edge">
<title>Red zone doctor FD&#45;&gt;Red zone doctor FD</title>
<path fill="none" stroke="black" stroke-width="2.54" d="M610.25,-468.03C620.89,-466.87 628,-464.53 628,-461 628,-458.74 625.08,-456.97 620.19,-455.68"/>
<polygon fill="black" stroke="black" stroke-width="2.54" points="620.7,-452.22 610.25,-453.97 619.52,-459.12 620.7,-452.22"/>
<text text-anchor="middle" x="664.5" y="-457.3" font-family="Sans Not-Rotated 14" font-size="14.00"> &#160;&#160;&#160;&#160;&#160;&#160;&#160;&#160;&#160;&#160;&#160;&#160;&#160;&#160;&#160;</text>
</g>
<!-- Yellow zone doctor FD -->
<g id="node4" class="node">
<title>Yellow zone doctor FD</title>
<polygon fill="#5661c6" stroke="black" points="370,-305 197,-305 197,-269 370,-269 370,-305"/>
<text text-anchor="middle" x="283.5" y="-283.3" font-family="Sans Not-Rotated 14" font-size="14.00" fill="white">Yellow zone doctor FD</text>
</g>
<!-- Red zone doctor FD&#45;&gt;Yellow zone doctor FD -->
<g id="edge11" class="edge">
<title>Red zone doctor FD&#45;&gt;Yellow zone doctor FD</title>
<path fill="none" stroke="black" stroke-width="1.48" d="M456.73,-445.83C415.74,-435.62 365.97,-418.81 327.5,-392 302.33,-374.46 294.91,-366.86 284.5,-338 281.94,-330.89 281,-322.84 280.88,-315.31"/>
<polygon fill="black" stroke="black" stroke-width="1.48" points="284.38,-315.26 281.17,-305.16 277.39,-315.06 284.38,-315.26"/>
<text text-anchor="middle" x="348" y="-370.3" font-family="Sans Not-Rotated 14" font-size="14.00"> &#160;&#160;&#160;&#160;&#160;&#160;&#160;&#160;</text>
</g>
<!-- Red zone doctor FD&#45;&gt;Red zone doctor -->
<g id="edge24" class="edge">
<title>Red zone doctor FD&#45;&gt;Red zone doctor</title>
<path fill="none" stroke="black" stroke-width="1.71" d="M545.32,-442.95C563.5,-416.85 599.55,-365.57 631.5,-323 656.97,-289.06 687.42,-250.73 707.09,-226.24"/>
<polygon fill="black" stroke="black" stroke-width="1.71" points="710.03,-228.17 713.58,-218.18 704.58,-223.78 710.03,-228.17"/>
<text text-anchor="middle" x="652" y="-326.8" font-family="Sans Not-Rotated 14" font-size="14.00"> &#160;&#160;&#160;&#160;&#160;&#160;&#160;&#160;</text>
</g>
<!-- Red zone doctor FD&#45;&gt;Yellow zone Therapy control operator -->
<g id="edge13" class="edge">
<title>Red zone doctor FD&#45;&gt;Yellow zone Therapy control operator</title>
<path fill="none" stroke="black" stroke-width="1.19" d="M610.04,-462.56C680.4,-464.67 777.98,-472.18 806.5,-497 839.96,-526.11 821.52,-583.15 806.24,-616.76"/>
<polygon fill="black" stroke="black" stroke-width="1.19" points="802.99,-615.44 801.86,-625.98 809.31,-618.45 802.99,-615.44"/>
<text text-anchor="middle" x="846" y="-544.3" font-family="Sans Not-Rotated 14" font-size="14.00"> &#160;&#160;&#160;&#160;&#160;&#160;&#160;&#160;</text>
</g>
<!-- Notification operator -->
<g id="node8" class="node">
<title>Notification operator</title>
<polygon fill="#1946ba" stroke="black" points="427,-218 268,-218 268,-182 427,-182 427,-218"/>
<text text-anchor="middle" x="347.5" y="-196.3" font-family="Sans Not-Rotated 14" font-size="14.00" fill="white">Notification operator</text>
</g>
<!-- Red zone doctor FD&#45;&gt;Notification operator -->
<g id="edge16" class="edge">
<title>Red zone doctor FD&#45;&gt;Notification operator</title>
<path fill="none" stroke="black" stroke-width="1.56" d="M537.75,-442.98C539.07,-437.29 540.46,-430.89 541.5,-425 548.3,-386.62 561.05,-289.9 563.5,-251 563.92,-244.35 567.82,-241.08 563.5,-236 547.08,-216.71 489.15,-208.02 437.42,-204.12"/>
<polygon fill="black" stroke="black" stroke-width="1.56" points="437.39,-200.61 427.17,-203.4 436.9,-207.59 437.39,-200.61"/>
<text text-anchor="middle" x="577" y="-326.8" font-family="Sans Not-Rotated 14" font-size="14.00"> &#160;&#160;&#160;&#160;&#160;&#160;&#160;&#160;</text>
</g>
<!-- Yellow zone doctor -->
<g id="node10" class="node">
<title>Yellow zone doctor</title>
<polygon fill="#7d7fd2" stroke="black" points="527,-392 378,-392 378,-356 527,-356 527,-392"/>
<text text-anchor="middle" x="452.5" y="-370.3" font-family="Sans Not-Rotated 14" font-size="14.00">Yellow zone doctor</text>
</g>
<!-- Red zone doctor FD&#45;&gt;Yellow zone doctor -->
<g id="edge20" class="edge">
<title>Red zone doctor FD&#45;&gt;Yellow zone doctor</title>
<path fill="none" stroke="black" stroke-width="2.04" d="M517.11,-442.8C505.25,-430.36 489.06,-413.36 475.85,-399.5"/>
<polygon fill="black" stroke="black" stroke-width="2.04" points="478.3,-397 468.87,-392.18 473.23,-401.83 478.3,-397"/>
<text text-anchor="middle" x="519" y="-413.8" font-family="Sans Not-Rotated 14" font-size="14.00"> &#160;&#160;&#160;&#160;&#160;&#160;&#160;&#160;</text>
</g>
<!-- Yellow zone doctor FD&#45;&gt;Program change operator -->
<g id="edge3" class="edge">
<title>Yellow zone doctor FD&#45;&gt;Program change operator</title>
<path fill="none" stroke="black" d="M197.46,-305.06C164.93,-315.21 129.72,-331.15 104.5,-356 83.9,-376.3 80.5,-387.57 80.5,-416.5 80.5,-645.3 80.5,-645.3 80.5,-645.3 80.5,-668.17 85.13,-693.73 89.41,-712.46"/>
<polygon fill="black" stroke="black" points="86.05,-713.46 91.79,-722.36 92.86,-711.82 86.05,-713.46"/>
<text text-anchor="middle" x="90" y="-500.8" font-family="Sans Not-Rotated 14" font-size="14.00"> &#160;&#160;&#160;</text>
</g>
<!-- Yellow zone doctor FD&#45;&gt;Red zone operator -->
<g id="edge7" class="edge">
<title>Yellow zone doctor FD&#45;&gt;Red zone operator</title>
<path fill="none" stroke="black" stroke-width="1.67" d="M259.65,-305.28C253.97,-310.42 248.42,-316.44 244.5,-323 220.96,-362.39 201.35,-388 228.5,-425 264.84,-474.52 430.95,-513.07 533.69,-532.7"/>
<polygon fill="black" stroke="black" stroke-width="1.67" points="533.26,-536.18 543.73,-534.59 534.56,-529.3 533.26,-536.18"/>
<text text-anchor="middle" x="249" y="-413.8" font-family="Sans Not-Rotated 14" font-size="14.00"> &#160;&#160;&#160;&#160;&#160;&#160;&#160;&#160;</text>
</g>
<!-- Yellow zone doctor FD&#45;&gt;Red zone doctor FD -->
<g id="edge25" class="edge">
<title>Yellow zone doctor FD&#45;&gt;Red zone doctor FD</title>
<path fill="none" stroke="black" stroke-width="1.31" d="M268.41,-305.32C251.21,-327.26 227.87,-365.4 247.5,-392 271.07,-423.93 371.55,-442.16 446.8,-451.55"/>
<polygon fill="black" stroke="black" stroke-width="1.31" points="446.42,-455.03 456.77,-452.77 447.26,-448.08 446.42,-455.03"/>
<text text-anchor="middle" x="268" y="-370.3" font-family="Sans Not-Rotated 14" font-size="14.00"> &#160;&#160;&#160;&#160;&#160;&#160;&#160;&#160;</text>
</g>
<!-- Yellow zone doctor FD&#45;&gt;Red zone doctor -->
<g id="edge26" class="edge">
<title>Yellow zone doctor FD&#45;&gt;Red zone doctor</title>
<path fill="none" stroke="black" stroke-width="1.26" d="M370.16,-269.41C452.28,-253.69 574.35,-230.32 652.42,-215.37"/>
<polygon fill="black" stroke="black" stroke-width="1.26" points="653.5,-218.73 662.66,-213.41 652.18,-211.86 653.5,-218.73"/>
<text text-anchor="middle" x="553" y="-239.8" font-family="Sans Not-Rotated 14" font-size="14.00"> &#160;&#160;&#160;&#160;&#160;&#160;&#160;&#160;</text>
</g>
<!-- Yellow zone doctor FD&#45;&gt;Notification operator -->
<g id="edge15" class="edge">
<title>Yellow zone doctor FD&#45;&gt;Notification operator</title>
<path fill="none" stroke="black" stroke-width="1.93" d="M307.97,-268.82C314.24,-263.61 320.59,-257.52 325.5,-251 330.77,-244 335.1,-235.53 338.49,-227.58"/>
<polygon fill="black" stroke="black" stroke-width="1.93" points="341.75,-228.84 342.15,-218.26 335.24,-226.29 341.75,-228.84"/>
<text text-anchor="middle" x="355" y="-239.8" font-family="Sans Not-Rotated 14" font-size="14.00"> &#160;&#160;&#160;&#160;&#160;&#160;&#160;&#160;</text>
</g>
<!-- Yellow zone doctor FD&#45;&gt;Yellow zone doctor -->
<g id="edge21" class="edge">
<title>Yellow zone doctor FD&#45;&gt;Yellow zone doctor</title>
<path fill="none" stroke="black" stroke-width="2.15" d="M283.61,-305.07C284.61,-315.94 287.73,-329.52 296.5,-338 299.44,-340.84 332.77,-348.49 367.87,-355.92"/>
<polygon fill="black" stroke="black" stroke-width="2.15" points="367.28,-359.37 377.79,-358 368.72,-352.52 367.28,-359.37"/>
<text text-anchor="middle" x="333" y="-326.8" font-family="Sans Not-Rotated 14" font-size="14.00"> &#160;&#160;&#160;&#160;&#160;&#160;&#160;&#160;&#160;&#160;&#160;&#160;&#160;&#160;&#160;</text>
</g>
<!-- Red zone doctor&#45;&gt;Red zone operator -->
<g id="edge4" class="edge">
<title>Red zone doctor&#45;&gt;Red zone operator</title>
<path fill="none" stroke="black" stroke-width="3.46" d="M737.18,-218.22C750.65,-244.52 771.88,-296.08 757.5,-338 754.21,-347.59 748.05,-346.94 743.5,-356 718.05,-406.69 733.62,-427.67 709.5,-479 701.9,-495.18 700.02,-500.31 686.5,-512 680.99,-516.77 674.71,-521.07 668.24,-524.9"/>
<polygon fill="black" stroke="black" stroke-width="3.46" points="666.39,-521.92 659.34,-529.82 669.78,-528.04 666.39,-521.92"/>
<text text-anchor="middle" x="780" y="-370.3" font-family="Sans Not-Rotated 14" font-size="14.00"> &#160;&#160;&#160;&#160;&#160;&#160;&#160;&#160;&#160;&#160;&#160;&#160;&#160;&#160;&#160;</text>
</g>
<!-- Red zone doctor&#45;&gt;Red zone doctor FD -->
<g id="edge8" class="edge">
<title>Red zone doctor&#45;&gt;Red zone doctor FD</title>
<path fill="none" stroke="black" stroke-width="3.5" d="M721.18,-218.27C702.8,-268.14 649.66,-409.79 633.5,-425 628.07,-430.11 621.84,-434.48 615.22,-438.22"/>
<polygon fill="black" stroke="black" stroke-width="3.5" points="613.29,-435.27 605.97,-442.93 616.47,-441.51 613.29,-435.27"/>
<text text-anchor="middle" x="718" y="-326.8" font-family="Sans Not-Rotated 14" font-size="14.00"> &#160;&#160;&#160;&#160;&#160;&#160;&#160;&#160;&#160;&#160;&#160;&#160;&#160;&#160;&#160;</text>
</g>
<!-- Yellow zone Therapy control operator&#45;&gt;Red zone operator -->
<g id="edge27" class="edge">
<title>Yellow zone Therapy control operator&#45;&gt;Red zone operator</title>
<path fill="none" stroke="black" stroke-width="1.14" d="M760.63,-626.22C731.69,-610.71 688.84,-587.76 657.39,-570.91"/>
<polygon fill="black" stroke="black" stroke-width="1.14" points="658.9,-567.75 648.43,-566.11 655.59,-573.92 658.9,-567.75"/>
<text text-anchor="middle" x="731" y="-587.8" font-family="Sans Not-Rotated 14" font-size="14.00"> &#160;&#160;&#160;&#160;&#160;&#160;&#160;&#160;</text>
</g>
<!-- Yellow zone Therapy control operator&#45;&gt;Red zone doctor FD -->
<g id="edge29" class="edge">
<title>Yellow zone Therapy control operator&#45;&gt;Red zone doctor FD</title>
<path fill="none" stroke="black" stroke-width="1.06" d="M791.29,-626.26C788.74,-602.12 780.83,-557.8 756.5,-530 722.53,-491.19 667.12,-474.17 620.03,-466.86"/>
<polygon fill="black" stroke="black" stroke-width="1.06" points="620.52,-463.39 610.12,-465.44 619.53,-470.32 620.52,-463.39"/>
<text text-anchor="middle" x="787" y="-544.3" font-family="Sans Not-Rotated 14" font-size="14.00"> &#160;&#160;&#160;</text>
</g>
<!-- Yellow zone Therapy control operator&#45;&gt;Red zone doctor -->
<g id="edge30" class="edge">
<title>Yellow zone Therapy control operator&#45;&gt;Red zone doctor</title>
<path fill="none" stroke="black" stroke-width="1.03" d="M863.42,-626.22C901.01,-612.48 939.5,-588.72 939.5,-549 939.5,-549 939.5,-549 939.5,-286 939.5,-225.15 863.32,-206.71 802.29,-201.7"/>
<polygon fill="black" stroke="black" stroke-width="1.03" points="802.48,-198.2 792.26,-200.98 801.98,-205.18 802.48,-198.2"/>
<text text-anchor="middle" x="949" y="-413.8" font-family="Sans Not-Rotated 14" font-size="14.00"> &#160;&#160;&#160;</text>
</g>
<!-- Yellow zone Therapy control operator&#45;&gt;Notification operator -->
<g id="edge28" class="edge">
<title>Yellow zone Therapy control operator&#45;&gt;Notification operator</title>
<path fill="none" stroke="black" stroke-width="1.1" d="M696.66,-626.23C497.93,-590.83 59.27,-512.64 58.5,-512 -26.64,-441.35 36.23,-349.14 112.5,-269 149.89,-229.71 208.46,-212.7 257.76,-205.52"/>
<polygon fill="black" stroke="black" stroke-width="1.1" points="258.37,-208.97 267.81,-204.17 257.44,-202.03 258.37,-208.97"/>
<text text-anchor="middle" x="41" y="-413.8" font-family="Sans Not-Rotated 14" font-size="14.00"> &#160;&#160;&#160;&#160;&#160;&#160;&#160;&#160;</text>
</g>
<!-- Meas missing operator -->
<g id="node7" class="node">
<title>Meas missing operator</title>
<polygon fill="#a09dde" stroke="black" points="339,-127 168,-127 168,-91 339,-91 339,-127"/>
<text text-anchor="middle" x="253.5" y="-105.3" font-family="Sans Not-Rotated 14" font-size="14.00">Meas missing operator</text>
</g>
<!-- Meas missing operator&#45;&gt;Notification operator -->
<g id="edge19" class="edge">
<title>Meas missing operator&#45;&gt;Notification operator</title>
<path fill="none" stroke="black" stroke-width="1.45" d="M273.44,-127.22C281.06,-133.92 289.77,-141.72 297.5,-149 306.12,-157.12 315.35,-166.22 323.49,-174.41"/>
<polygon fill="black" stroke="black" stroke-width="1.45" points="321.11,-176.97 330.63,-181.62 326.08,-172.05 321.11,-176.97"/>
<text text-anchor="middle" x="334" y="-152.8" font-family="Sans Not-Rotated 14" font-size="14.00"> &#160;&#160;&#160;&#160;&#160;&#160;&#160;&#160;</text>
</g>
<!-- Meas missing doctor -->
<g id="node9" class="node">
<title>Meas missing doctor</title>
<polygon fill="#c0bde9" stroke="black" points="392,-36 237,-36 237,0 392,0 392,-36"/>
<text text-anchor="middle" x="314.5" y="-14.3" font-family="Sans Not-Rotated 14" font-size="14.00">Meas missing doctor</text>
</g>
<!-- Meas missing operator&#45;&gt;Meas missing doctor -->
<g id="edge2" class="edge">
<title>Meas missing operator&#45;&gt;Meas missing doctor</title>
<path fill="none" stroke="black" stroke-width="2.58" d="M264.26,-90.79C271.05,-80.09 280.09,-66.11 288.5,-54 290.66,-50.9 292.96,-47.67 295.27,-44.49"/>
<polygon fill="black" stroke="black" stroke-width="2.58" points="298.2,-46.41 301.32,-36.29 292.57,-42.26 298.2,-46.41"/>
<text text-anchor="middle" x="325" y="-57.8" font-family="Sans Not-Rotated 14" font-size="14.00"> &#160;&#160;&#160;&#160;&#160;&#160;&#160;&#160;&#160;&#160;&#160;&#160;&#160;&#160;&#160;</text>
</g>
<!-- Notification operator&#45;&gt;Red zone operator -->
<g id="edge32" class="edge">
<title>Notification operator&#45;&gt;Red zone operator</title>
<path fill="none" stroke="black" stroke-width="1.35" d="M267.71,-216.22C204.41,-230.65 126.5,-254.76 126.5,-286 126.5,-462 126.5,-462 126.5,-462 126.5,-502.83 393.98,-529.72 533.69,-540.99"/>
<polygon fill="black" stroke="black" stroke-width="1.35" points="533.69,-544.5 543.94,-541.81 534.24,-537.52 533.69,-544.5"/>
<text text-anchor="middle" x="147" y="-370.3" font-family="Sans Not-Rotated 14" font-size="14.00"> &#160;&#160;&#160;&#160;&#160;&#160;&#160;&#160;</text>
</g>
<!-- Notification operator&#45;&gt;Yellow zone doctor FD -->
<g id="edge31" class="edge">
<title>Notification operator&#45;&gt;Yellow zone doctor FD</title>
<path fill="none" stroke="black" stroke-width="1.29" d="M298.65,-218.19C291.41,-222.86 284.92,-228.7 280.5,-236 276.47,-242.65 275.62,-250.75 276.22,-258.48"/>
<polygon fill="black" stroke="black" stroke-width="1.29" points="272.8,-259.26 277.78,-268.61 279.72,-258.2 272.8,-259.26"/>
<text text-anchor="middle" x="301" y="-239.8" font-family="Sans Not-Rotated 14" font-size="14.00"> &#160;&#160;&#160;&#160;&#160;&#160;&#160;&#160;</text>
</g>
<!-- Notification operator&#45;&gt;Meas missing operator -->
<g id="edge14" class="edge">
<title>Notification operator&#45;&gt;Meas missing operator</title>
<path fill="none" stroke="black" stroke-width="2.76" d="M267.99,-184.26C248.08,-178.89 230.62,-172.11 224.5,-164 217.85,-155.2 221.34,-144.67 227.85,-135.26"/>
<polygon fill="black" stroke="black" stroke-width="2.76" points="230.66,-137.35 234.16,-127.35 225.19,-132.98 230.66,-137.35"/>
<text text-anchor="middle" x="261" y="-152.8" font-family="Sans Not-Rotated 14" font-size="14.00"> &#160;&#160;&#160;&#160;&#160;&#160;&#160;&#160;&#160;&#160;&#160;&#160;&#160;&#160;&#160;</text>
</g>
<!-- Notification operator&#45;&gt;Notification operator -->
<g id="edge35" class="edge">
<title>Notification operator&#45;&gt;Notification operator</title>
<path fill="none" stroke="black" stroke-width="2.05" d="M427.07,-206.99C437.83,-205.82 445,-203.49 445,-200 445,-197.77 442.06,-196.01 437.12,-194.72"/>
<polygon fill="black" stroke="black" stroke-width="2.05" points="437.52,-191.24 427.07,-193.01 436.34,-198.14 437.52,-191.24"/>
<text text-anchor="middle" x="465.5" y="-196.3" font-family="Sans Not-Rotated 14" font-size="14.00"> &#160;&#160;&#160;&#160;&#160;&#160;&#160;&#160;</text>
</g>
<!-- Notification operator&#45;&gt;Yellow zone doctor -->
<g id="edge22" class="edge">
<title>Notification operator&#45;&gt;Yellow zone doctor</title>
<path fill="none" stroke="black" stroke-width="1.66" d="M363.78,-218.16C368.93,-223.75 374.55,-230.05 379.5,-236 404.04,-265.54 401.73,-280.74 431.5,-305 445.99,-316.8 459.51,-307.21 469.5,-323 474.08,-330.24 473.05,-338.85 469.9,-346.88"/>
<polygon fill="black" stroke="black" stroke-width="1.66" points="466.73,-345.39 465.43,-355.91 473.01,-348.5 466.73,-345.39"/>
<text text-anchor="middle" x="452" y="-283.3" font-family="Sans Not-Rotated 14" font-size="14.00"> &#160;&#160;&#160;&#160;&#160;&#160;&#160;&#160;</text>
</g>
<!-- end -->
<g id="node12" class="node">
<title>end</title>
<ellipse fill="#ea4126" stroke="black" cx="488.5" cy="-109" rx="18" ry="18"/>
<ellipse fill="none" stroke="black" cx="488.5" cy="-109" rx="22" ry="22"/>
</g>
<!-- Notification operator&#45;&gt;end -->
<g id="edge23" class="edge">
<title>Notification operator&#45;&gt;end</title>
<path fill="none" stroke="black" stroke-dasharray="5,2" d="M374.69,-181.84C399.77,-166 436.81,-142.63 461.76,-126.88"/>
<polygon fill="black" stroke="black" points="463.77,-129.75 470.36,-121.45 460.03,-123.83 463.77,-129.75"/>
<text text-anchor="middle" x="447" y="-152.8" font-family="Sans Not-Rotated 14" font-size="14.00"> &#160;&#160;&#160;&#160;&#160;&#160;&#160;&#160;</text>
</g>
<!-- Meas missing doctor&#45;&gt;Notification operator -->
<g id="edge17" class="edge">
<title>Meas missing doctor&#45;&gt;Notification operator</title>
<path fill="none" stroke="black" stroke-width="2.13" d="M346.39,-36.33C352.48,-41.2 358.03,-47.09 361.5,-54 380.47,-91.77 368.7,-142.01 358.25,-172.35"/>
<polygon fill="black" stroke="black" stroke-width="2.13" points="354.93,-171.24 354.8,-181.83 361.51,-173.63 354.93,-171.24"/>
<text text-anchor="middle" x="409" y="-105.3" font-family="Sans Not-Rotated 14" font-size="14.00"> &#160;&#160;&#160;&#160;&#160;&#160;&#160;&#160;&#160;&#160;&#160;&#160;&#160;&#160;&#160;</text>
</g>
<!-- Yellow zone doctor&#45;&gt;Yellow zone doctor FD -->
<g id="edge10" class="edge">
<title>Yellow zone doctor&#45;&gt;Yellow zone doctor FD</title>
<path fill="none" stroke="black" stroke-width="3.62" d="M424.8,-355.84C415.76,-350.19 405.68,-343.86 396.5,-338 386.21,-331.43 384.36,-328.57 373.5,-323 363.68,-317.96 352.96,-313.19 342.45,-308.9"/>
<polygon fill="black" stroke="black" stroke-width="3.62" points="343.47,-305.54 332.89,-305.09 340.88,-312.04 343.47,-305.54"/>
<text text-anchor="middle" x="433" y="-326.8" font-family="Sans Not-Rotated 14" font-size="14.00"> &#160;&#160;&#160;&#160;&#160;&#160;&#160;&#160;&#160;&#160;&#160;&#160;&#160;&#160;&#160;</text>
</g>
<!-- Yellow zone doctor&#45;&gt;Notification operator -->
<g id="edge18" class="edge">
<title>Yellow zone doctor&#45;&gt;Notification operator</title>
<path fill="none" stroke="black" stroke-width="1.35" d="M480.19,-355.87C485.97,-350.87 491.28,-344.88 494.5,-338 504,-317.73 486.43,-285.64 476.5,-269 466.19,-251.72 462.33,-247.03 445.5,-236 437.23,-230.58 428.01,-225.88 418.63,-221.83"/>
<polygon fill="black" stroke="black" stroke-width="1.35" points="419.81,-218.54 409.22,-218.01 417.17,-225.02 419.81,-218.54"/>
<text text-anchor="middle" x="515" y="-283.3" font-family="Sans Not-Rotated 14" font-size="14.00"> &#160;&#160;&#160;&#160;&#160;&#160;&#160;&#160;</text>
</g>
<!-- start -->
<g id="node11" class="node">
<title>start</title>
<ellipse fill="#95d600" stroke="black" cx="608.5" cy="-644.3" rx="27.1" ry="27.1"/>
<text text-anchor="middle" x="608.5" y="-640.6" font-family="Sans Not-Rotated 14" font-size="14.00">start</text>
</g>
<!-- start&#45;&gt;Red zone operator -->
<g id="edge6" class="edge">
<title>start&#45;&gt;Red zone operator</title>
<path fill="none" stroke="black" stroke-dasharray="5,2" d="M610.73,-617.03C611.8,-604.34 613.1,-589.13 614.18,-576.31"/>
<polygon fill="black" stroke="black" points="617.68,-576.47 615.04,-566.21 610.71,-575.88 617.68,-576.47"/>
<text text-anchor="middle" x="634" y="-587.8" font-family="Sans Not-Rotated 14" font-size="14.00"> &#160;&#160;&#160;&#160;&#160;&#160;&#160;&#160;</text>
</g>
</g>
</svg>
