<?xml version="1.0" encoding="UTF-8" standalone="no"?>
<!DOCTYPE svg PUBLIC "-//W3C//DTD SVG 1.1//EN"
 "http://www.w3.org/Graphics/SVG/1.1/DTD/svg11.dtd">
<!-- Generated by graphviz version 3.0.0 (20220226.1711)
 -->
<!-- Pages: 1 -->
<svg width="1097pt" height="767pt"
 viewBox="0.00 0.00 1097.00 766.60" xmlns="http://www.w3.org/2000/svg" xmlns:xlink="http://www.w3.org/1999/xlink">
<g id="graph0" class="graph" transform="scale(1 1) rotate(0) translate(4 762.6)">
<polygon fill="white" stroke="transparent" points="-4,4 -4,-762.6 1093,-762.6 1093,4 -4,4"/>
<!-- Program change operator -->
<g id="node1" class="node">
<title>Program change operator</title>
<polygon fill="#ffffff" stroke="black" points="377.5,-758.6 184.5,-758.6 184.5,-722.6 377.5,-722.6 377.5,-758.6"/>
<text text-anchor="middle" x="281" y="-736.9" font-family="Sans Not-Rotated 14" font-size="14.00">Program change operator</text>
</g>
<!-- Yellow zone Therapy control operator -->
<g id="node6" class="node">
<title>Yellow zone Therapy control operator</title>
<polygon fill="#e0ddf4" stroke="black" points="730,-662.3 452,-662.3 452,-626.3 730,-626.3 730,-662.3"/>
<text text-anchor="middle" x="591" y="-640.6" font-family="Sans Not-Rotated 14" font-size="14.00">Yellow zone Therapy control operator</text>
</g>
<!-- Program change operator&#45;&gt;Yellow zone Therapy control operator -->
<g id="edge1" class="edge">
<title>Program change operator&#45;&gt;Yellow zone Therapy control operator</title>
<path fill="none" stroke="black" stroke-width="1.03" d="M337.14,-722.52C390.06,-706.42 469.36,-682.3 525.22,-665.31"/>
<polygon fill="black" stroke="black" stroke-width="1.03" points="526.47,-668.59 535.02,-662.33 524.43,-661.89 526.47,-668.59"/>
<text text-anchor="middle" x="454.5" y="-693.4" font-family="Sans Not-Rotated 14" font-size="14.00"> &#160;&#160;&#160;</text>
</g>
<!-- Red zone operator -->
<g id="node2" class="node">
<title>Red zone operator</title>
<polygon fill="#1d2559" stroke="black" points="495.5,-566 350.5,-566 350.5,-530 495.5,-530 495.5,-566"/>
<text text-anchor="middle" x="423" y="-544.3" font-family="Sans Not-Rotated 14" font-size="14.00" fill="white">Red zone operator</text>
</g>
<!-- Red zone operator&#45;&gt;Red zone operator -->
<g id="edge45" class="edge">
<title>Red zone operator&#45;&gt;Red zone operator</title>
<path fill="none" stroke="black" stroke-width="1.52" d="M495.79,-555.11C506.37,-553.98 513.5,-551.61 513.5,-548 513.5,-545.69 510.57,-543.88 505.69,-542.59"/>
<polygon fill="black" stroke="black" stroke-width="1.52" points="506.24,-539.13 495.79,-540.89 505.05,-546.03 506.24,-539.13"/>
<text text-anchor="middle" x="534" y="-544.3" font-family="Sans Not-Rotated 14" font-size="14.00"> &#160;&#160;&#160;&#160;&#160;&#160;&#160;&#160;</text>
</g>
<!-- Red zone doctor FD -->
<g id="node3" class="node">
<title>Red zone doctor FD</title>
<polygon fill="#1d2559" stroke="black" points="521.5,-479 368.5,-479 368.5,-443 521.5,-443 521.5,-479"/>
<text text-anchor="middle" x="445" y="-457.3" font-family="Sans Not-Rotated 14" font-size="14.00" fill="white">Red zone doctor FD</text>
</g>
<!-- Red zone operator&#45;&gt;Red zone doctor FD -->
<g id="edge12" class="edge">
<title>Red zone operator&#45;&gt;Red zone doctor FD</title>
<path fill="none" stroke="black" stroke-width="3.34" d="M439.19,-529.73C443.18,-524.44 446.91,-518.32 449,-512 451.38,-504.81 451.68,-496.73 451.04,-489.2"/>
<polygon fill="black" stroke="black" stroke-width="3.34" points="454.47,-488.48 449.63,-479.06 447.54,-489.45 454.47,-488.48"/>
<text text-anchor="middle" x="487.5" y="-500.8" font-family="Sans Not-Rotated 14" font-size="14.00"> &#160;&#160;&#160;&#160;&#160;&#160;&#160;&#160;&#160;&#160;&#160;&#160;&#160;&#160;&#160;</text>
</g>
<!-- Red zone doctor -->
<g id="node5" class="node">
<title>Red zone doctor</title>
<polygon fill="#1f3b98" stroke="black" points="197.5,-123 68.5,-123 68.5,-87 197.5,-87 197.5,-123"/>
<text text-anchor="middle" x="133" y="-101.3" font-family="Sans Not-Rotated 14" font-size="14.00" fill="white">Red zone doctor</text>
</g>
<!-- Red zone operator&#45;&gt;Red zone doctor -->
<g id="edge18" class="edge">
<title>Red zone operator&#45;&gt;Red zone doctor</title>
<path fill="none" stroke="black" stroke-width="5" d="M381.75,-529.96C316.96,-500.89 192.38,-435.27 131,-338 91.92,-276.06 110.59,-247.1 115,-174 115.89,-159.25 115.34,-155.31 119,-141 119.69,-138.3 120.54,-135.53 121.47,-132.79"/>
<polygon fill="black" stroke="black" stroke-width="5" points="125.67,-134.05 125.11,-123.15 117.49,-130.96 125.67,-134.05"/>
<text text-anchor="middle" x="167.5" y="-326.8" font-family="Sans Not-Rotated 14" font-size="14.00"> &#160;&#160;&#160;&#160;&#160;&#160;&#160;&#160;&#160;&#160;&#160;&#160;&#160;&#160;&#160;</text>
</g>
<!-- Red zone operator&#45;&gt;Yellow zone Therapy control operator -->
<g id="edge22" class="edge">
<title>Red zone operator&#45;&gt;Yellow zone Therapy control operator</title>
<path fill="none" stroke="black" stroke-width="1.04" d="M431.87,-566.45C438.14,-577.19 447.46,-590.49 459,-599 472.37,-608.86 488.08,-616.62 503.91,-622.69"/>
<polygon fill="black" stroke="black" stroke-width="1.04" points="503.16,-626.14 513.75,-626.26 505.54,-619.56 503.16,-626.14"/>
<text text-anchor="middle" x="468.5" y="-587.8" font-family="Sans Not-Rotated 14" font-size="14.00"> &#160;&#160;&#160;</text>
</g>
<!-- Yellow zone doctor -->
<g id="node10" class="node">
<title>Yellow zone doctor</title>
<polygon fill="#7d7fd2" stroke="black" points="717.5,-392 568.5,-392 568.5,-356 717.5,-356 717.5,-392"/>
<text text-anchor="middle" x="643" y="-370.3" font-family="Sans Not-Rotated 14" font-size="14.00">Yellow zone doctor</text>
</g>
<!-- Red zone operator&#45;&gt;Yellow zone doctor -->
<g id="edge35" class="edge">
<title>Red zone operator&#45;&gt;Yellow zone doctor</title>
<path fill="none" stroke="black" stroke-width="1.21" d="M495.52,-538.82C565.26,-529.18 663.11,-510.37 684,-479 700.41,-454.36 682.71,-422.17 665.73,-400.17"/>
<polygon fill="black" stroke="black" stroke-width="1.21" points="668.34,-397.83 659.32,-392.27 662.9,-402.24 668.34,-397.83"/>
<text text-anchor="middle" x="710.5" y="-457.3" font-family="Sans Not-Rotated 14" font-size="14.00"> &#160;&#160;&#160;&#160;&#160;&#160;&#160;&#160;</text>
</g>
<!-- Red zone doctor FD&#45;&gt;Program change operator -->
<g id="edge4" class="edge">
<title>Red zone doctor FD&#45;&gt;Program change operator</title>
<path fill="none" stroke="black" d="M398.87,-479.18C388.52,-484.11 377.96,-490.07 369,-497 354.01,-508.59 352.19,-514.02 342,-530 318.91,-566.2 312.76,-576 300,-617 290.07,-648.89 285.2,-687.12 282.9,-712.32"/>
<polygon fill="black" stroke="black" points="279.39,-712.32 282.04,-722.58 286.37,-712.91 279.39,-712.32"/>
<text text-anchor="middle" x="321.5" y="-587.8" font-family="Sans Not-Rotated 14" font-size="14.00"> &#160;&#160;&#160;</text>
</g>
<!-- Red zone doctor FD&#45;&gt;Red zone operator -->
<g id="edge6" class="edge">
<title>Red zone doctor FD&#45;&gt;Red zone operator</title>
<path fill="none" stroke="black" stroke-width="3.44" d="M394.37,-479.17C387.06,-483.82 380.5,-489.67 376,-497 370.27,-506.33 374.71,-515.4 382.75,-523.2"/>
<polygon fill="black" stroke="black" stroke-width="3.44" points="381.02,-526.31 390.97,-529.97 385.48,-520.91 381.02,-526.31"/>
<text text-anchor="middle" x="412.5" y="-500.8" font-family="Sans Not-Rotated 14" font-size="14.00"> &#160;&#160;&#160;&#160;&#160;&#160;&#160;&#160;&#160;&#160;&#160;&#160;&#160;&#160;&#160;</text>
</g>
<!-- Red zone doctor FD&#45;&gt;Red zone doctor FD -->
<g id="edge46" class="edge">
<title>Red zone doctor FD&#45;&gt;Red zone doctor FD</title>
<path fill="none" stroke="black" stroke-width="2.55" d="M521.75,-468.03C532.39,-466.87 539.5,-464.53 539.5,-461 539.5,-458.74 536.58,-456.97 531.69,-455.68"/>
<polygon fill="black" stroke="black" stroke-width="2.55" points="532.2,-452.22 521.75,-453.97 531.02,-459.12 532.2,-452.22"/>
<text text-anchor="middle" x="576" y="-457.3" font-family="Sans Not-Rotated 14" font-size="14.00"> &#160;&#160;&#160;&#160;&#160;&#160;&#160;&#160;&#160;&#160;&#160;&#160;&#160;&#160;&#160;</text>
</g>
<!-- Yellow zone doctor FD -->
<g id="node4" class="node">
<title>Yellow zone doctor FD</title>
<polygon fill="#5661c6" stroke="black" points="659.5,-214 486.5,-214 486.5,-178 659.5,-178 659.5,-214"/>
<text text-anchor="middle" x="573" y="-192.3" font-family="Sans Not-Rotated 14" font-size="14.00" fill="white">Yellow zone doctor FD</text>
</g>
<!-- Red zone doctor FD&#45;&gt;Yellow zone doctor FD -->
<g id="edge16" class="edge">
<title>Red zone doctor FD&#45;&gt;Yellow zone doctor FD</title>
<path fill="none" stroke="black" stroke-width="1.49" d="M443.33,-442.84C438.69,-393.27 426.71,-252.37 439,-236 448.48,-223.36 461.83,-214.63 476.46,-208.64"/>
<polygon fill="black" stroke="black" stroke-width="1.49" points="478.03,-211.79 486.23,-205.08 475.64,-205.21 478.03,-211.79"/>
<text text-anchor="middle" x="455.5" y="-326.8" font-family="Sans Not-Rotated 14" font-size="14.00"> &#160;&#160;&#160;&#160;&#160;&#160;&#160;&#160;</text>
</g>
<!-- Red zone doctor FD&#45;&gt;Red zone doctor -->
<g id="edge19" class="edge">
<title>Red zone doctor FD&#45;&gt;Red zone doctor</title>
<path fill="none" stroke="black" stroke-width="1.72" d="M428.13,-442.93C422.82,-437.34 417.03,-431.02 412,-425 387.54,-395.74 385.21,-385.46 361,-356 290.28,-269.95 199.24,-174.22 156.78,-130.36"/>
<polygon fill="black" stroke="black" stroke-width="1.72" points="159.14,-127.77 149.67,-123.03 154.12,-132.64 159.14,-127.77"/>
<text text-anchor="middle" x="338.5" y="-283.3" font-family="Sans Not-Rotated 14" font-size="14.00"> &#160;&#160;&#160;&#160;&#160;&#160;&#160;&#160;</text>
</g>
<!-- Red zone doctor FD&#45;&gt;Yellow zone Therapy control operator -->
<g id="edge21" class="edge">
<title>Red zone doctor FD&#45;&gt;Yellow zone Therapy control operator</title>
<path fill="none" stroke="black" stroke-width="1.21" d="M499.36,-479.01C523.6,-489.59 549.83,-505.9 564,-530 579.64,-556.61 586.23,-591.76 589,-615.81"/>
<polygon fill="black" stroke="black" stroke-width="1.21" points="585.54,-616.41 590.02,-626.01 592.51,-615.71 585.54,-616.41"/>
<text text-anchor="middle" x="599.5" y="-544.3" font-family="Sans Not-Rotated 14" font-size="14.00"> &#160;&#160;&#160;&#160;&#160;&#160;&#160;&#160;</text>
</g>
<!-- Notification operator -->
<g id="node8" class="node">
<title>Notification operator</title>
<polygon fill="#1946ba" stroke="black" points="947.5,-305 788.5,-305 788.5,-269 947.5,-269 947.5,-305"/>
<text text-anchor="middle" x="868" y="-283.3" font-family="Sans Not-Rotated 14" font-size="14.00" fill="white">Notification operator</text>
</g>
<!-- Red zone doctor FD&#45;&gt;Notification operator -->
<g id="edge27" class="edge">
<title>Red zone doctor FD&#45;&gt;Notification operator</title>
<path fill="none" stroke="black" stroke-width="1.57" d="M521.64,-451.31C580.33,-442.38 661.98,-424.95 727,-392 751.1,-379.78 753.39,-370.81 776,-356 789.33,-347.27 793.91,-347.08 807,-338 818.54,-330 830.63,-320.38 840.97,-311.73"/>
<polygon fill="black" stroke="black" stroke-width="1.57" points="843.49,-314.18 848.85,-305.04 838.96,-308.84 843.49,-314.18"/>
<text text-anchor="middle" x="796.5" y="-370.3" font-family="Sans Not-Rotated 14" font-size="14.00"> &#160;&#160;&#160;&#160;&#160;&#160;&#160;&#160;</text>
</g>
<!-- Red zone doctor FD&#45;&gt;Yellow zone doctor -->
<g id="edge31" class="edge">
<title>Red zone doctor FD&#45;&gt;Yellow zone doctor</title>
<path fill="none" stroke="black" stroke-width="2.05" d="M460.7,-442.83C471.58,-431.91 486.95,-418.32 503,-410 520.14,-401.11 539.65,-394.41 558.55,-389.37"/>
<polygon fill="black" stroke="black" stroke-width="2.05" points="559.52,-392.73 568.36,-386.89 557.8,-385.95 559.52,-392.73"/>
<text text-anchor="middle" x="523.5" y="-413.8" font-family="Sans Not-Rotated 14" font-size="14.00"> &#160;&#160;&#160;&#160;&#160;&#160;&#160;&#160;</text>
</g>
<!-- Yellow zone doctor FD&#45;&gt;Program change operator -->
<g id="edge3" class="edge">
<title>Yellow zone doctor FD&#45;&gt;Program change operator</title>
<path fill="none" stroke="black" stroke-width="1.02" d="M486.08,-203.21C450.12,-208.49 408.98,-218.2 375,-236 313.03,-268.46 209,-433.54 209,-503.5 209,-645.3 209,-645.3 209,-645.3 209,-673.54 229.65,-698.58 248.84,-715.74"/>
<polygon fill="black" stroke="black" stroke-width="1.02" points="246.74,-718.56 256.62,-722.38 251.28,-713.23 246.74,-718.56"/>
<text text-anchor="middle" x="233.5" y="-457.3" font-family="Sans Not-Rotated 14" font-size="14.00"> &#160;&#160;&#160;</text>
</g>
<!-- Yellow zone doctor FD&#45;&gt;Red zone operator -->
<g id="edge8" class="edge">
<title>Yellow zone doctor FD&#45;&gt;Red zone operator</title>
<path fill="none" stroke="black" stroke-width="1.69" d="M486.12,-208.52C448.67,-215 410.22,-224.19 396,-236 312.02,-305.77 338.13,-372.03 360,-479 363.04,-493.89 360.03,-499.72 369,-512 372.13,-516.29 375.96,-520.19 380.13,-523.7"/>
<polygon fill="black" stroke="black" stroke-width="1.69" points="378.35,-526.75 388.44,-529.97 382.56,-521.16 378.35,-526.75"/>
<text text-anchor="middle" x="362.5" y="-370.3" font-family="Sans Not-Rotated 14" font-size="14.00"> &#160;&#160;&#160;&#160;&#160;&#160;&#160;&#160;</text>
</g>
<!-- Yellow zone doctor FD&#45;&gt;Red zone doctor FD -->
<g id="edge13" class="edge">
<title>Yellow zone doctor FD&#45;&gt;Red zone doctor FD</title>
<path fill="none" stroke="black" stroke-width="1.32" d="M486.13,-209.73C453.88,-216.11 422.37,-224.88 411,-236 394.26,-252.37 379.81,-301.14 388,-338 395.79,-373.06 414.75,-409.97 428.68,-433.89"/>
<polygon fill="black" stroke="black" stroke-width="1.32" points="425.79,-435.89 433.92,-442.69 431.81,-432.31 425.79,-435.89"/>
<text text-anchor="middle" x="408.5" y="-326.8" font-family="Sans Not-Rotated 14" font-size="14.00"> &#160;&#160;&#160;&#160;&#160;&#160;&#160;&#160;</text>
</g>
<!-- Yellow zone doctor FD&#45;&gt;Red zone doctor -->
<g id="edge20" class="edge">
<title>Yellow zone doctor FD&#45;&gt;Red zone doctor</title>
<path fill="none" stroke="black" stroke-width="1.28" d="M547.64,-177.85C527.91,-165.42 499.38,-149.38 472,-141 383.83,-114.02 277.39,-106.92 207.59,-105.49"/>
<polygon fill="black" stroke="black" stroke-width="1.28" points="207.62,-101.99 197.56,-105.32 207.5,-108.99 207.62,-101.99"/>
<text text-anchor="middle" x="526.5" y="-144.8" font-family="Sans Not-Rotated 14" font-size="14.00"> &#160;&#160;&#160;&#160;&#160;&#160;&#160;&#160;</text>
</g>
<!-- Meas missing operator -->
<g id="node7" class="node">
<title>Meas missing operator</title>
<polygon fill="#a09dde" stroke="black" points="909.5,-123 738.5,-123 738.5,-87 909.5,-87 909.5,-123"/>
<text text-anchor="middle" x="824" y="-101.3" font-family="Sans Not-Rotated 14" font-size="14.00">Meas missing operator</text>
</g>
<!-- Yellow zone doctor FD&#45;&gt;Meas missing operator -->
<g id="edge25" class="edge">
<title>Yellow zone doctor FD&#45;&gt;Meas missing operator</title>
<path fill="none" stroke="black" stroke-width="1.15" d="M610.37,-177.99C635.88,-166.72 670.62,-152.03 702,-141 717.24,-135.65 733.75,-130.49 749.56,-125.86"/>
<polygon fill="black" stroke="black" stroke-width="1.15" points="750.65,-129.18 759.29,-123.04 748.71,-122.46 750.65,-129.18"/>
<text text-anchor="middle" x="722.5" y="-144.8" font-family="Sans Not-Rotated 14" font-size="14.00"> &#160;&#160;&#160;&#160;&#160;&#160;&#160;&#160;</text>
</g>
<!-- Yellow zone doctor FD&#45;&gt;Notification operator -->
<g id="edge26" class="edge">
<title>Yellow zone doctor FD&#45;&gt;Notification operator</title>
<path fill="none" stroke="black" stroke-width="1.94" d="M659.62,-213.01C669.19,-214.72 678.8,-216.41 688,-218 737.25,-226.49 752.85,-216.82 799,-236 803.39,-237.83 820.78,-250.43 837,-262.53"/>
<polygon fill="black" stroke="black" stroke-width="1.94" points="835.2,-265.55 845.3,-268.75 839.4,-259.95 835.2,-265.55"/>
<text text-anchor="middle" x="839.5" y="-239.8" font-family="Sans Not-Rotated 14" font-size="14.00"> &#160;&#160;&#160;&#160;&#160;&#160;&#160;&#160;</text>
</g>
<!-- Yellow zone doctor FD&#45;&gt;Yellow zone doctor -->
<g id="edge32" class="edge">
<title>Yellow zone doctor FD&#45;&gt;Yellow zone doctor</title>
<path fill="none" stroke="black" stroke-width="2.16" d="M579.76,-214.01C591.97,-244.7 617.77,-309.57 632.36,-346.26"/>
<polygon fill="black" stroke="black" stroke-width="2.16" points="629.21,-347.81 636.16,-355.8 635.72,-345.22 629.21,-347.81"/>
<text text-anchor="middle" x="650.5" y="-283.3" font-family="Sans Not-Rotated 14" font-size="14.00"> &#160;&#160;&#160;&#160;&#160;&#160;&#160;&#160;&#160;&#160;&#160;&#160;&#160;&#160;&#160;</text>
</g>
<!-- Red zone doctor&#45;&gt;Red zone operator -->
<g id="edge5" class="edge">
<title>Red zone doctor&#45;&gt;Red zone operator</title>
<path fill="none" stroke="black" stroke-width="3.47" d="M92.63,-123.05C85.13,-127.86 78.07,-133.8 73,-141 12.74,-226.54 33.18,-324.41 39,-338 85.8,-447.23 131.03,-469.5 242,-512 242.16,-512.06 292.59,-521.81 340.17,-531"/>
<polygon fill="black" stroke="black" stroke-width="3.47" points="339.78,-534.49 350.26,-532.95 341.1,-527.62 339.78,-534.49"/>
<text text-anchor="middle" x="75.5" y="-326.8" font-family="Sans Not-Rotated 14" font-size="14.00"> &#160;&#160;&#160;&#160;&#160;&#160;&#160;&#160;&#160;&#160;&#160;&#160;&#160;&#160;&#160;</text>
</g>
<!-- Red zone doctor&#45;&gt;Red zone doctor FD -->
<g id="edge11" class="edge">
<title>Red zone doctor&#45;&gt;Red zone doctor FD</title>
<path fill="none" stroke="black" stroke-width="3.51" d="M128.35,-123.21C119.31,-160.83 103.82,-251.28 147,-305 164.71,-327.03 182.4,-311.02 208,-323 282.03,-357.62 288.94,-386.44 361,-425 370.18,-429.91 380.21,-434.62 390.03,-438.9"/>
<polygon fill="black" stroke="black" stroke-width="3.51" points="388.78,-442.17 399.35,-442.86 391.52,-435.73 388.78,-442.17"/>
<text text-anchor="middle" x="183.5" y="-283.3" font-family="Sans Not-Rotated 14" font-size="14.00"> &#160;&#160;&#160;&#160;&#160;&#160;&#160;&#160;&#160;&#160;&#160;&#160;&#160;&#160;&#160;</text>
</g>
<!-- Red zone doctor&#45;&gt;Red zone doctor -->
<g id="edge47" class="edge">
<title>Red zone doctor&#45;&gt;Red zone doctor</title>
<path fill="none" stroke="black" stroke-width="1.25" d="M197.68,-112.29C208.24,-111.24 215.5,-108.81 215.5,-105 215.5,-102.56 212.52,-100.68 207.6,-99.38"/>
<polygon fill="black" stroke="black" stroke-width="1.25" points="208.12,-95.91 197.68,-97.71 206.96,-102.82 208.12,-95.91"/>
<text text-anchor="middle" x="236" y="-101.3" font-family="Sans Not-Rotated 14" font-size="14.00"> &#160;&#160;&#160;&#160;&#160;&#160;&#160;&#160;</text>
</g>
<!-- Red zone doctor&#45;&gt;Yellow zone doctor -->
<g id="edge34" class="edge">
<title>Red zone doctor&#45;&gt;Yellow zone doctor</title>
<path fill="none" stroke="black" stroke-width="1.26" d="M197.72,-120C216.97,-125.32 237.78,-132.27 256,-141 392.56,-206.44 398.55,-270.28 534,-338 545.01,-343.51 557.08,-348.4 569.04,-352.65"/>
<polygon fill="black" stroke="black" stroke-width="1.26" points="567.99,-355.99 578.59,-355.92 570.26,-349.37 567.99,-355.99"/>
<text text-anchor="middle" x="428.5" y="-239.8" font-family="Sans Not-Rotated 14" font-size="14.00"> &#160;&#160;&#160;&#160;&#160;&#160;&#160;&#160;</text>
</g>
<!-- Yellow zone Therapy control operator&#45;&gt;Red zone operator -->
<g id="edge37" class="edge">
<title>Yellow zone Therapy control operator&#45;&gt;Red zone operator</title>
<path fill="none" stroke="black" stroke-width="1.16" d="M560.58,-626.22C533.07,-610.78 492.41,-587.96 462.42,-571.13"/>
<polygon fill="black" stroke="black" stroke-width="1.16" points="463.91,-567.95 453.48,-566.11 460.49,-574.06 463.91,-567.95"/>
<text text-anchor="middle" x="532.5" y="-587.8" font-family="Sans Not-Rotated 14" font-size="14.00"> &#160;&#160;&#160;&#160;&#160;&#160;&#160;&#160;</text>
</g>
<!-- Yellow zone Therapy control operator&#45;&gt;Red zone doctor FD -->
<g id="edge39" class="edge">
<title>Yellow zone Therapy control operator&#45;&gt;Red zone doctor FD</title>
<path fill="none" stroke="black" stroke-width="1.08" d="M604.29,-625.96C620.42,-602.62 643.22,-560.5 624,-530 603.99,-498.25 566.82,-481.28 531.52,-472.23"/>
<polygon fill="black" stroke="black" stroke-width="1.08" points="532.16,-468.78 521.63,-469.88 530.55,-475.59 532.16,-468.78"/>
<text text-anchor="middle" x="640.5" y="-544.3" font-family="Sans Not-Rotated 14" font-size="14.00"> &#160;&#160;&#160;</text>
</g>
<!-- Yellow zone Therapy control operator&#45;&gt;Red zone doctor -->
<g id="edge40" class="edge">
<title>Yellow zone Therapy control operator&#45;&gt;Red zone doctor</title>
<path fill="none" stroke="black" stroke-width="1.05" d="M530.95,-626.27C503.19,-618.25 469.84,-608.4 440,-599 221.71,-530.26 0,-560.36 0,-331.5 0,-331.5 0,-331.5 0,-195 0,-162.14 28.38,-140.65 58.93,-127.03"/>
<polygon fill="black" stroke="black" stroke-width="1.05" points="60.57,-130.14 68.45,-123.06 57.87,-123.68 60.57,-130.14"/>
<text text-anchor="middle" x="15.5" y="-370.3" font-family="Sans Not-Rotated 14" font-size="14.00"> &#160;&#160;&#160;</text>
</g>
<!-- Yellow zone Therapy control operator&#45;&gt;Notification operator -->
<g id="edge38" class="edge">
<title>Yellow zone Therapy control operator&#45;&gt;Notification operator</title>
<path fill="none" stroke="black" stroke-width="1.11" d="M704.48,-626.23C782.1,-611.24 871,-586 871,-549 871,-549 871,-549 871,-373 871,-353.74 870.22,-332.04 869.46,-315.39"/>
<polygon fill="black" stroke="black" stroke-width="1.11" points="872.95,-315.07 868.97,-305.25 865.95,-315.41 872.95,-315.07"/>
<text text-anchor="middle" x="891.5" y="-457.3" font-family="Sans Not-Rotated 14" font-size="14.00"> &#160;&#160;&#160;&#160;&#160;&#160;&#160;&#160;</text>
</g>
<!-- end -->
<g id="node12" class="node">
<title>end</title>
<ellipse fill="#ea4126" stroke="black" cx="1050" cy="-196" rx="18" ry="18"/>
<ellipse fill="none" stroke="black" cx="1050" cy="-196" rx="22" ry="22"/>
</g>
<!-- Yellow zone Therapy control operator&#45;&gt;end -->
<g id="edge41" class="edge">
<title>Yellow zone Therapy control operator&#45;&gt;end</title>
<path fill="none" stroke="black" stroke-dasharray="5,2" d="M730.19,-642.51C871.62,-637.83 1070,-618.82 1070,-549 1070,-549 1070,-549 1070,-286 1070,-265.93 1065.1,-243.93 1060.15,-226.82"/>
<polygon fill="black" stroke="black" points="1063.38,-225.4 1057.11,-216.86 1056.68,-227.45 1063.38,-225.4"/>
<text text-anchor="middle" x="1079.5" y="-413.8" font-family="Sans Not-Rotated 14" font-size="14.00"> &#160;&#160;&#160;</text>
</g>
<!-- Meas missing operator&#45;&gt;Notification operator -->
<g id="edge30" class="edge">
<title>Meas missing operator&#45;&gt;Notification operator</title>
<path fill="none" stroke="black" stroke-width="1.47" d="M848.37,-123.15C863.49,-135.37 881.59,-153.27 890,-174 901.34,-201.96 891.41,-236.28 881.5,-259.5"/>
<polygon fill="black" stroke="black" stroke-width="1.47" points="878.26,-258.17 877.31,-268.72 884.63,-261.06 878.26,-258.17"/>
<text text-anchor="middle" x="915.5" y="-192.3" font-family="Sans Not-Rotated 14" font-size="14.00"> &#160;&#160;&#160;&#160;&#160;&#160;&#160;&#160;</text>
</g>
<!-- Meas missing doctor -->
<g id="node9" class="node">
<title>Meas missing doctor</title>
<polygon fill="#c0bde9" stroke="black" points="901.5,-36 746.5,-36 746.5,0 901.5,0 901.5,-36"/>
<text text-anchor="middle" x="824" y="-14.3" font-family="Sans Not-Rotated 14" font-size="14.00">Meas missing doctor</text>
</g>
<!-- Meas missing operator&#45;&gt;Meas missing doctor -->
<g id="edge2" class="edge">
<title>Meas missing operator&#45;&gt;Meas missing doctor</title>
<path fill="none" stroke="black" stroke-width="2.59" d="M829.96,-86.76C831.61,-81.16 833.18,-74.88 834,-69 835.05,-61.49 834.28,-53.41 832.79,-45.98"/>
<polygon fill="black" stroke="black" stroke-width="2.59" points="836.13,-44.9 830.31,-36.04 829.33,-46.59 836.13,-44.9"/>
<text text-anchor="middle" x="870.5" y="-57.8" font-family="Sans Not-Rotated 14" font-size="14.00"> &#160;&#160;&#160;&#160;&#160;&#160;&#160;&#160;&#160;&#160;&#160;&#160;&#160;&#160;&#160;</text>
</g>
<!-- Meas missing operator&#45;&gt;Yellow zone doctor -->
<g id="edge42" class="edge">
<title>Meas missing operator&#45;&gt;Yellow zone doctor</title>
<path fill="none" stroke="black" stroke-width="1.11" d="M814.12,-123.02C810.85,-128.72 807.23,-135.11 804,-141 781.05,-182.83 772.14,-191.87 754,-236 741.81,-265.65 755.16,-281.84 733,-305 716.38,-322.37 701.51,-308.96 682,-323 673.02,-329.46 665.08,-338.56 658.75,-347.22"/>
<polygon fill="black" stroke="black" stroke-width="1.11" points="655.75,-345.4 652.97,-355.63 661.52,-349.37 655.75,-345.4"/>
<text text-anchor="middle" x="774.5" y="-239.8" font-family="Sans Not-Rotated 14" font-size="14.00"> &#160;&#160;&#160;&#160;&#160;&#160;&#160;&#160;</text>
</g>
<!-- Notification operator&#45;&gt;Red zone operator -->
<g id="edge9" class="edge">
<title>Notification operator&#45;&gt;Red zone operator</title>
<path fill="none" stroke="black" stroke-width="1.37" d="M861.49,-305.06C852.95,-326.39 836.7,-363.57 817,-392 786.74,-435.68 778.55,-448.56 735,-479 704.48,-500.33 693.82,-501.84 658,-512 630.07,-519.92 561.83,-529.71 506.03,-536.92"/>
<polygon fill="black" stroke="black" stroke-width="1.37" points="505.25,-533.49 495.77,-538.24 506.14,-540.44 505.25,-533.49"/>
<text text-anchor="middle" x="824.5" y="-413.8" font-family="Sans Not-Rotated 14" font-size="14.00"> &#160;&#160;&#160;&#160;&#160;&#160;&#160;&#160;</text>
</g>
<!-- Notification operator&#45;&gt;Yellow zone doctor FD -->
<g id="edge17" class="edge">
<title>Notification operator&#45;&gt;Yellow zone doctor FD</title>
<path fill="none" stroke="black" stroke-width="1.31" d="M788.23,-273.78C758.31,-268.21 724.23,-260.66 694,-251 666.94,-242.36 637.83,-229.49 614.95,-218.48"/>
<polygon fill="black" stroke="black" stroke-width="1.31" points="616.39,-215.29 605.86,-214.05 613.32,-221.58 616.39,-215.29"/>
<text text-anchor="middle" x="714.5" y="-239.8" font-family="Sans Not-Rotated 14" font-size="14.00"> &#160;&#160;&#160;&#160;&#160;&#160;&#160;&#160;</text>
</g>
<!-- Notification operator&#45;&gt;Yellow zone Therapy control operator -->
<g id="edge23" class="edge">
<title>Notification operator&#45;&gt;Yellow zone Therapy control operator</title>
<path fill="none" stroke="black" stroke-width="1.06" d="M899.62,-305.21C921.98,-319.93 948,-343.41 948,-373 948,-549 948,-549 948,-549 948,-594.55 837.97,-618.59 740.09,-630.96"/>
<polygon fill="black" stroke="black" stroke-width="1.06" points="739.55,-627.5 730.05,-632.2 740.4,-634.45 739.55,-627.5"/>
<text text-anchor="middle" x="957.5" y="-457.3" font-family="Sans Not-Rotated 14" font-size="14.00"> &#160;&#160;&#160;</text>
</g>
<!-- Notification operator&#45;&gt;Meas missing operator -->
<g id="edge24" class="edge">
<title>Notification operator&#45;&gt;Meas missing operator</title>
<path fill="none" stroke="black" stroke-width="2.77" d="M870.51,-268.63C871.07,-258.18 869.96,-245.18 863,-236 849.74,-218.51 829.38,-236.13 817,-218 799.99,-193.08 806.12,-157.32 813.62,-132.96"/>
<polygon fill="black" stroke="black" stroke-width="2.77" points="817.01,-133.87 816.86,-123.28 810.37,-131.65 817.01,-133.87"/>
<text text-anchor="middle" x="853.5" y="-192.3" font-family="Sans Not-Rotated 14" font-size="14.00"> &#160;&#160;&#160;&#160;&#160;&#160;&#160;&#160;&#160;&#160;&#160;&#160;&#160;&#160;&#160;</text>
</g>
<!-- Notification operator&#45;&gt;Notification operator -->
<g id="edge48" class="edge">
<title>Notification operator&#45;&gt;Notification operator</title>
<path fill="none" stroke="black" stroke-width="2.06" d="M947.57,-293.99C958.33,-292.82 965.5,-290.49 965.5,-287 965.5,-284.77 962.56,-283.01 957.62,-281.72"/>
<polygon fill="black" stroke="black" stroke-width="2.06" points="958.02,-278.24 947.57,-280.01 956.84,-285.14 958.02,-278.24"/>
<text text-anchor="middle" x="986" y="-283.3" font-family="Sans Not-Rotated 14" font-size="14.00"> &#160;&#160;&#160;&#160;&#160;&#160;&#160;&#160;</text>
</g>
<!-- Notification operator&#45;&gt;Yellow zone doctor -->
<g id="edge33" class="edge">
<title>Notification operator&#45;&gt;Yellow zone doctor</title>
<path fill="none" stroke="black" stroke-width="1.68" d="M810.34,-305.01C795.59,-310.11 779.96,-316.18 766,-323 755.03,-328.35 753.95,-332.61 743,-338 732.23,-343.3 720.46,-348.17 708.89,-352.49"/>
<polygon fill="black" stroke="black" stroke-width="1.68" points="707.46,-349.28 699.25,-355.98 709.85,-355.86 707.46,-349.28"/>
<text text-anchor="middle" x="786.5" y="-326.8" font-family="Sans Not-Rotated 14" font-size="14.00"> &#160;&#160;&#160;&#160;&#160;&#160;&#160;&#160;</text>
</g>
<!-- Notification operator&#45;&gt;end -->
<g id="edge36" class="edge">
<title>Notification operator&#45;&gt;end</title>
<path fill="none" stroke="black" stroke-dasharray="5,2" d="M947.64,-269.58C962.9,-264.77 978.35,-258.68 992,-251 1005.89,-243.18 1019.09,-231.38 1029.38,-220.8"/>
<polygon fill="black" stroke="black" points="1032.04,-223.08 1036.32,-213.39 1026.93,-218.29 1032.04,-223.08"/>
<text text-anchor="middle" x="1031.5" y="-239.8" font-family="Sans Not-Rotated 14" font-size="14.00"> &#160;&#160;&#160;&#160;&#160;&#160;&#160;&#160;</text>
</g>
<!-- Meas missing doctor&#45;&gt;Meas missing operator -->
<g id="edge43" class="edge">
<title>Meas missing doctor&#45;&gt;Meas missing operator</title>
<path fill="none" stroke="black" stroke-width="1.36" d="M801.57,-36.14C796.48,-41.27 791.76,-47.33 789,-54 785.43,-62.63 788.46,-71.24 793.98,-78.83"/>
<polygon fill="black" stroke="black" stroke-width="1.36" points="791.54,-81.36 800.74,-86.61 796.82,-76.76 791.54,-81.36"/>
<text text-anchor="middle" x="809.5" y="-57.8" font-family="Sans Not-Rotated 14" font-size="14.00"> &#160;&#160;&#160;&#160;&#160;&#160;&#160;&#160;</text>
</g>
<!-- Meas missing doctor&#45;&gt;Notification operator -->
<g id="edge28" class="edge">
<title>Meas missing doctor&#45;&gt;Notification operator</title>
<path fill="none" stroke="black" stroke-width="2.14" d="M887.67,-36.14C896.44,-40.76 904.61,-46.61 911,-54 946.89,-95.5 933.52,-119.52 940,-174 942.31,-193.42 947.74,-200.04 940,-218 932.38,-235.69 917.64,-250.91 903.47,-262.45"/>
<polygon fill="black" stroke="black" stroke-width="2.14" points="901.03,-259.92 895.26,-268.8 905.31,-265.45 901.03,-259.92"/>
<text text-anchor="middle" x="974.5" y="-144.8" font-family="Sans Not-Rotated 14" font-size="14.00"> &#160;&#160;&#160;&#160;&#160;&#160;&#160;&#160;&#160;&#160;&#160;&#160;&#160;&#160;&#160;</text>
</g>
<!-- Meas missing doctor&#45;&gt;Yellow zone doctor -->
<g id="edge44" class="edge">
<title>Meas missing doctor&#45;&gt;Yellow zone doctor</title>
<path fill="none" stroke="black" stroke-width="1.07" d="M788.16,-36.05C767.86,-47.58 743.84,-64.77 730,-87 677.98,-170.56 747.23,-224.22 691,-305 682.33,-317.45 671.65,-311.29 662,-323 656.52,-329.65 652.51,-338.05 649.64,-346.06"/>
<polygon fill="black" stroke="black" stroke-width="1.07" points="646.23,-345.24 646.57,-355.83 652.9,-347.34 646.23,-345.24"/>
<text text-anchor="middle" x="723.5" y="-192.3" font-family="Sans Not-Rotated 14" font-size="14.00"> &#160;&#160;&#160;</text>
</g>
<!-- Yellow zone doctor&#45;&gt;Red zone operator -->
<g id="edge10" class="edge">
<title>Yellow zone doctor&#45;&gt;Red zone operator</title>
<path fill="none" stroke="black" stroke-width="1.2" d="M644.38,-392.34C645.21,-415.01 643.16,-454.69 622,-479 592.77,-512.58 546.23,-529.6 505.51,-538.22"/>
<polygon fill="black" stroke="black" stroke-width="1.2" points="504.7,-534.81 495.57,-540.18 506.06,-541.68 504.7,-534.81"/>
<text text-anchor="middle" x="659.5" y="-457.3" font-family="Sans Not-Rotated 14" font-size="14.00"> &#160;&#160;&#160;&#160;&#160;&#160;&#160;&#160;</text>
</g>
<!-- Yellow zone doctor&#45;&gt;Red zone doctor FD -->
<g id="edge14" class="edge">
<title>Yellow zone doctor&#45;&gt;Red zone doctor FD</title>
<path fill="none" stroke="black" stroke-width="1.28" d="M613.21,-392.22C594.78,-402.49 570.43,-415.36 548,-425 535.9,-430.2 522.75,-435.17 510.02,-439.64"/>
<polygon fill="black" stroke="black" stroke-width="1.28" points="508.71,-436.39 500.39,-442.95 510.99,-443.01 508.71,-436.39"/>
<text text-anchor="middle" x="597.5" y="-413.8" font-family="Sans Not-Rotated 14" font-size="14.00"> &#160;&#160;&#160;&#160;&#160;&#160;&#160;&#160;</text>
</g>
<!-- Yellow zone doctor&#45;&gt;Yellow zone doctor FD -->
<g id="edge15" class="edge">
<title>Yellow zone doctor&#45;&gt;Yellow zone doctor FD</title>
<path fill="none" stroke="black" stroke-width="3.63" d="M587.45,-355.9C563.16,-345.35 537.05,-329.1 523,-305 506.99,-277.53 528.29,-244.07 547.83,-221.74"/>
<polygon fill="black" stroke="black" stroke-width="3.63" points="550.44,-224.08 554.6,-214.34 545.27,-219.35 550.44,-224.08"/>
<text text-anchor="middle" x="559.5" y="-283.3" font-family="Sans Not-Rotated 14" font-size="14.00"> &#160;&#160;&#160;&#160;&#160;&#160;&#160;&#160;&#160;&#160;&#160;&#160;&#160;&#160;&#160;</text>
</g>
<!-- Yellow zone doctor&#45;&gt;Notification operator -->
<g id="edge29" class="edge">
<title>Yellow zone doctor&#45;&gt;Notification operator</title>
<path fill="none" stroke="black" stroke-width="1.36" d="M661.16,-355.89C675,-343.18 693.14,-327.34 702,-323 709.53,-319.31 743.16,-311.99 778.21,-304.99"/>
<polygon fill="black" stroke="black" stroke-width="1.36" points="778.98,-308.4 788.11,-303.03 777.62,-301.54 778.98,-308.4"/>
<text text-anchor="middle" x="722.5" y="-326.8" font-family="Sans Not-Rotated 14" font-size="14.00"> &#160;&#160;&#160;&#160;&#160;&#160;&#160;&#160;</text>
</g>
<!-- start -->
<g id="node11" class="node">
<title>start</title>
<ellipse fill="#95d600" stroke="black" cx="336" cy="-644.3" rx="27.1" ry="27.1"/>
<text text-anchor="middle" x="336" y="-640.6" font-family="Sans Not-Rotated 14" font-size="14.00">start</text>
</g>
<!-- start&#45;&gt;Red zone operator -->
<g id="edge7" class="edge">
<title>start&#45;&gt;Red zone operator</title>
<path fill="none" stroke="black" stroke-dasharray="5,2" d="M343.61,-617.93C347.94,-606.6 354.28,-593.65 363,-584 367.04,-579.53 371.79,-575.47 376.82,-571.83"/>
<polygon fill="black" stroke="black" points="379.06,-574.55 385.46,-566.11 375.19,-568.71 379.06,-574.55"/>
<text text-anchor="middle" x="383.5" y="-587.8" font-family="Sans Not-Rotated 14" font-size="14.00"> &#160;&#160;&#160;&#160;&#160;&#160;&#160;&#160;</text>
</g>
</g>
</svg>
