<?xml version="1.0" encoding="UTF-8" standalone="no"?>
<!DOCTYPE svg PUBLIC "-//W3C//DTD SVG 1.1//EN"
 "http://www.w3.org/Graphics/SVG/1.1/DTD/svg11.dtd">
<!-- Generated by graphviz version 3.0.0 (20220226.1711)
 -->
<!-- Pages: 1 -->
<svg width="629pt" height="854pt"
 viewBox="0.00 0.00 628.50 853.60" xmlns="http://www.w3.org/2000/svg" xmlns:xlink="http://www.w3.org/1999/xlink">
<g id="graph0" class="graph" transform="scale(1 1) rotate(0) translate(4 849.6)">
<polygon fill="white" stroke="transparent" points="-4,4 -4,-849.6 624.5,-849.6 624.5,4 -4,4"/>
<!-- Program change operator -->
<g id="node1" class="node">
<title>Program change operator</title>
<polygon fill="#ffffff" stroke="black" points="490,-845.6 297,-845.6 297,-809.6 490,-809.6 490,-845.6"/>
<text text-anchor="middle" x="393.5" y="-823.9" font-family="Sans Not-Rotated 14" font-size="14.00">Program change operator</text>
</g>
<!-- Yellow zone Therapy control operator -->
<g id="node6" class="node">
<title>Yellow zone Therapy control operator</title>
<polygon fill="#e0ddf4" stroke="black" points="295.5,-749.3 17.5,-749.3 17.5,-713.3 295.5,-713.3 295.5,-749.3"/>
<text text-anchor="middle" x="156.5" y="-727.6" font-family="Sans Not-Rotated 14" font-size="14.00">Yellow zone Therapy control operator</text>
</g>
<!-- Program change operator&#45;&gt;Yellow zone Therapy control operator -->
<g id="edge1" class="edge">
<title>Program change operator&#45;&gt;Yellow zone Therapy control operator</title>
<path fill="none" stroke="black" stroke-width="1.01" d="M350.58,-809.52C310.77,-793.68 251.43,-770.07 208.86,-753.13"/>
<polygon fill="black" stroke="black" stroke-width="1.01" points="210.08,-749.85 199.5,-749.41 207.5,-756.36 210.08,-749.85"/>
<text text-anchor="middle" x="312" y="-780.4" font-family="Sans Not-Rotated 14" font-size="14.00"> &#160;&#160;&#160;</text>
</g>
<!-- Red zone operator -->
<g id="node2" class="node">
<title>Red zone operator</title>
<polygon fill="#1d2559" stroke="black" points="458,-653 313,-653 313,-617 458,-617 458,-653"/>
<text text-anchor="middle" x="385.5" y="-631.3" font-family="Sans Not-Rotated 14" font-size="14.00" fill="white">Red zone operator</text>
</g>
<!-- Red zone operator&#45;&gt;Red zone operator -->
<g id="edge26" class="edge">
<title>Red zone operator&#45;&gt;Red zone operator</title>
<path fill="none" stroke="black" stroke-width="1.51" d="M458.29,-642.11C468.87,-640.98 476,-638.61 476,-635 476,-632.69 473.07,-630.88 468.19,-629.59"/>
<polygon fill="black" stroke="black" stroke-width="1.51" points="468.74,-626.13 458.29,-627.89 467.55,-633.03 468.74,-626.13"/>
<text text-anchor="middle" x="496.5" y="-631.3" font-family="Sans Not-Rotated 14" font-size="14.00"> &#160;&#160;&#160;&#160;&#160;&#160;&#160;&#160;</text>
</g>
<!-- Red zone doctor FD -->
<g id="node3" class="node">
<title>Red zone doctor FD</title>
<polygon fill="#1d2559" stroke="black" points="301,-479 148,-479 148,-443 301,-443 301,-479"/>
<text text-anchor="middle" x="224.5" y="-457.3" font-family="Sans Not-Rotated 14" font-size="14.00" fill="white">Red zone doctor FD</text>
</g>
<!-- Red zone operator&#45;&gt;Red zone doctor FD -->
<g id="edge8" class="edge">
<title>Red zone operator&#45;&gt;Red zone doctor FD</title>
<path fill="none" stroke="black" stroke-width="3.34" d="M396.99,-616.96C410.23,-594.98 427.95,-556.44 409.5,-530 387.03,-497.8 347.53,-480.8 310.79,-471.85"/>
<polygon fill="black" stroke="black" stroke-width="3.34" points="311.55,-468.43 301.02,-469.64 310,-475.26 311.55,-468.43"/>
<text text-anchor="middle" x="453" y="-544.3" font-family="Sans Not-Rotated 14" font-size="14.00"> &#160;&#160;&#160;&#160;&#160;&#160;&#160;&#160;&#160;&#160;&#160;&#160;&#160;&#160;&#160;</text>
</g>
<!-- Red zone doctor -->
<g id="node5" class="node">
<title>Red zone doctor</title>
<polygon fill="#1f3b98" stroke="black" points="286,-566 157,-566 157,-530 286,-530 286,-566"/>
<text text-anchor="middle" x="221.5" y="-544.3" font-family="Sans Not-Rotated 14" font-size="14.00" fill="white">Red zone doctor</text>
</g>
<!-- Red zone operator&#45;&gt;Red zone doctor -->
<g id="edge10" class="edge">
<title>Red zone operator&#45;&gt;Red zone doctor</title>
<path fill="none" stroke="black" stroke-width="5" d="M312.91,-628.23C272.21,-623.32 227.14,-614.5 214.5,-599 209.22,-592.53 208.84,-583.95 210.44,-575.73"/>
<polygon fill="black" stroke="black" stroke-width="5" points="214.67,-576.86 213.19,-566.04 206.25,-574.47 214.67,-576.86"/>
<text text-anchor="middle" x="251" y="-587.8" font-family="Sans Not-Rotated 14" font-size="14.00"> &#160;&#160;&#160;&#160;&#160;&#160;&#160;&#160;&#160;&#160;&#160;&#160;&#160;&#160;&#160;</text>
</g>
<!-- Red zone doctor FD&#45;&gt;Red zone operator -->
<g id="edge5" class="edge">
<title>Red zone doctor FD&#45;&gt;Red zone operator</title>
<path fill="none" stroke="black" stroke-width="3.43" d="M273,-479.04C282.51,-483.85 291.88,-489.79 299.5,-497 324.78,-520.91 310.09,-543.35 336.5,-566 354.75,-581.65 373.62,-564.38 387.5,-584 392.11,-590.51 393.15,-598.78 392.6,-606.71"/>
<polygon fill="black" stroke="black" stroke-width="3.43" points="389.11,-606.36 391.12,-616.76 396.04,-607.38 389.11,-606.36"/>
<text text-anchor="middle" x="373" y="-544.3" font-family="Sans Not-Rotated 14" font-size="14.00"> &#160;&#160;&#160;&#160;&#160;&#160;&#160;&#160;&#160;&#160;&#160;&#160;&#160;&#160;&#160;</text>
</g>
<!-- Red zone doctor FD&#45;&gt;Red zone doctor FD -->
<g id="edge27" class="edge">
<title>Red zone doctor FD&#45;&gt;Red zone doctor FD</title>
<path fill="none" stroke="black" stroke-width="2.54" d="M301.25,-468.03C311.89,-466.87 319,-464.53 319,-461 319,-458.74 316.08,-456.97 311.19,-455.68"/>
<polygon fill="black" stroke="black" stroke-width="2.54" points="311.7,-452.22 301.25,-453.97 310.52,-459.12 311.7,-452.22"/>
<text text-anchor="middle" x="355.5" y="-457.3" font-family="Sans Not-Rotated 14" font-size="14.00"> &#160;&#160;&#160;&#160;&#160;&#160;&#160;&#160;&#160;&#160;&#160;&#160;&#160;&#160;&#160;</text>
</g>
<!-- Red zone doctor FD&#45;&gt;Yellow zone Therapy control operator -->
<g id="edge11" class="edge">
<title>Red zone doctor FD&#45;&gt;Yellow zone Therapy control operator</title>
<path fill="none" stroke="black" stroke-width="1.19" d="M195.01,-479.03C177.65,-490.87 157.25,-508.38 147.5,-530 121.62,-587.38 136.79,-663.64 147.94,-703.48"/>
<polygon fill="black" stroke="black" stroke-width="1.19" points="144.63,-704.63 150.79,-713.25 151.34,-702.66 144.63,-704.63"/>
<text text-anchor="middle" x="155" y="-587.8" font-family="Sans Not-Rotated 14" font-size="14.00"> &#160;&#160;&#160;&#160;&#160;&#160;&#160;&#160;</text>
</g>
<!-- Notification operator -->
<g id="node8" class="node">
<title>Notification operator</title>
<polygon fill="#1946ba" stroke="black" points="291,-218 132,-218 132,-182 291,-182 291,-218"/>
<text text-anchor="middle" x="211.5" y="-196.3" font-family="Sans Not-Rotated 14" font-size="14.00" fill="white">Notification operator</text>
</g>
<!-- Red zone doctor FD&#45;&gt;Notification operator -->
<g id="edge14" class="edge">
<title>Red zone doctor FD&#45;&gt;Notification operator</title>
<path fill="none" stroke="black" stroke-width="1.56" d="M219.2,-442.71C217.72,-437.12 216.29,-430.84 215.5,-425 205.96,-354.62 207.99,-270.67 209.94,-228.32"/>
<polygon fill="black" stroke="black" stroke-width="1.56" points="213.44,-228.41 210.44,-218.25 206.45,-228.06 213.44,-228.41"/>
<text text-anchor="middle" x="229" y="-326.8" font-family="Sans Not-Rotated 14" font-size="14.00"> &#160;&#160;&#160;&#160;&#160;&#160;&#160;&#160;</text>
</g>
<!-- Yellow zone doctor -->
<g id="node10" class="node">
<title>Yellow zone doctor</title>
<polygon fill="#7d7fd2" stroke="black" points="436,-392 287,-392 287,-356 436,-356 436,-392"/>
<text text-anchor="middle" x="361.5" y="-370.3" font-family="Sans Not-Rotated 14" font-size="14.00">Yellow zone doctor</text>
</g>
<!-- Red zone doctor FD&#45;&gt;Yellow zone doctor -->
<g id="edge16" class="edge">
<title>Red zone doctor FD&#45;&gt;Yellow zone doctor</title>
<path fill="none" stroke="black" stroke-width="2.04" d="M252.22,-442.8C273.21,-429.78 302.22,-411.78 325.07,-397.6"/>
<polygon fill="black" stroke="black" stroke-width="2.04" points="327.17,-400.42 333.82,-392.18 323.47,-394.47 327.17,-400.42"/>
<text text-anchor="middle" x="321" y="-413.8" font-family="Sans Not-Rotated 14" font-size="14.00"> &#160;&#160;&#160;&#160;&#160;&#160;&#160;&#160;</text>
</g>
<!-- Yellow zone doctor FD -->
<g id="node4" class="node">
<title>Yellow zone doctor FD</title>
<polygon fill="#5661c6" stroke="black" points="524,-305 351,-305 351,-269 524,-269 524,-305"/>
<text text-anchor="middle" x="437.5" y="-283.3" font-family="Sans Not-Rotated 14" font-size="14.00" fill="white">Yellow zone doctor FD</text>
</g>
<!-- Yellow zone doctor FD&#45;&gt;Program change operator -->
<g id="edge3" class="edge">
<title>Yellow zone doctor FD&#45;&gt;Program change operator</title>
<path fill="none" stroke="black" d="M524.3,-301.05C563.64,-312.39 601.5,-333.55 601.5,-373 601.5,-732.3 601.5,-732.3 601.5,-732.3 601.5,-782.21 551.2,-805.84 500.08,-816.96"/>
<polygon fill="black" stroke="black" points="499.3,-813.55 490.19,-818.96 500.69,-820.41 499.3,-813.55"/>
<text text-anchor="middle" x="611" y="-544.3" font-family="Sans Not-Rotated 14" font-size="14.00"> &#160;&#160;&#160;</text>
</g>
<!-- Yellow zone doctor FD&#45;&gt;Red zone operator -->
<g id="edge19" class="edge">
<title>Yellow zone doctor FD&#45;&gt;Red zone operator</title>
<path fill="none" stroke="black" stroke-width="1.67" d="M477.51,-305.01C503.48,-319.02 532.5,-341.68 532.5,-373 532.5,-549 532.5,-549 532.5,-549 532.5,-583.76 501.31,-604.53 467.67,-616.83"/>
<polygon fill="black" stroke="black" stroke-width="1.67" points="466.48,-613.54 458.14,-620.08 468.73,-620.16 466.48,-613.54"/>
<text text-anchor="middle" x="553" y="-457.3" font-family="Sans Not-Rotated 14" font-size="14.00"> &#160;&#160;&#160;&#160;&#160;&#160;&#160;&#160;</text>
</g>
<!-- Yellow zone doctor FD&#45;&gt;Red zone doctor FD -->
<g id="edge20" class="edge">
<title>Yellow zone doctor FD&#45;&gt;Red zone doctor FD</title>
<path fill="none" stroke="black" stroke-width="1.31" d="M361.24,-305.04C311.8,-317.69 253.69,-336.13 237.5,-356 220.14,-377.31 218.74,-409.69 220.51,-432.65"/>
<polygon fill="black" stroke="black" stroke-width="1.31" points="217.05,-433.17 221.54,-442.77 224.01,-432.46 217.05,-433.17"/>
<text text-anchor="middle" x="258" y="-370.3" font-family="Sans Not-Rotated 14" font-size="14.00"> &#160;&#160;&#160;&#160;&#160;&#160;&#160;&#160;</text>
</g>
<!-- Yellow zone doctor FD&#45;&gt;Notification operator -->
<g id="edge13" class="edge">
<title>Yellow zone doctor FD&#45;&gt;Notification operator</title>
<path fill="none" stroke="black" stroke-width="1.93" d="M392.04,-268.9C355.79,-255.27 304.91,-236.13 266.4,-221.65"/>
<polygon fill="black" stroke="black" stroke-width="1.93" points="267.48,-218.32 256.89,-218.07 265.02,-224.87 267.48,-218.32"/>
<text text-anchor="middle" x="358" y="-239.8" font-family="Sans Not-Rotated 14" font-size="14.00"> &#160;&#160;&#160;&#160;&#160;&#160;&#160;&#160;</text>
</g>
<!-- Yellow zone doctor FD&#45;&gt;Yellow zone doctor -->
<g id="edge17" class="edge">
<title>Yellow zone doctor FD&#45;&gt;Yellow zone doctor</title>
<path fill="none" stroke="black" stroke-width="2.15" d="M433.13,-305.14C429.85,-315.5 424.51,-328.5 416.5,-338 412.85,-342.33 408.53,-346.3 403.94,-349.89"/>
<polygon fill="black" stroke="black" stroke-width="2.15" points="401.57,-347.27 395.46,-355.93 405.64,-352.97 401.57,-347.27"/>
<text text-anchor="middle" x="462" y="-326.8" font-family="Sans Not-Rotated 14" font-size="14.00"> &#160;&#160;&#160;&#160;&#160;&#160;&#160;&#160;&#160;&#160;&#160;&#160;&#160;&#160;&#160;</text>
</g>
<!-- Red zone doctor&#45;&gt;Red zone operator -->
<g id="edge4" class="edge">
<title>Red zone doctor&#45;&gt;Red zone operator</title>
<path fill="none" stroke="black" stroke-width="3.46" d="M257.53,-566.03C268.57,-571.51 280.66,-577.78 291.5,-584 302.09,-590.07 303.9,-592.96 314.5,-599 322.48,-603.55 331.13,-608.11 339.56,-612.36"/>
<polygon fill="black" stroke="black" stroke-width="3.46" points="338.06,-615.52 348.58,-616.84 341.18,-609.26 338.06,-615.52"/>
<text text-anchor="middle" x="351" y="-587.8" font-family="Sans Not-Rotated 14" font-size="14.00"> &#160;&#160;&#160;&#160;&#160;&#160;&#160;&#160;&#160;&#160;&#160;&#160;&#160;&#160;&#160;</text>
</g>
<!-- Red zone doctor&#45;&gt;Red zone doctor FD -->
<g id="edge7" class="edge">
<title>Red zone doctor&#45;&gt;Red zone doctor FD</title>
<path fill="none" stroke="black" stroke-width="3.5" d="M222.11,-529.8C222.52,-518.16 223.07,-502.55 223.54,-489.24"/>
<polygon fill="black" stroke="black" stroke-width="3.5" points="227.04,-489.29 223.89,-479.18 220.04,-489.05 227.04,-489.29"/>
<text text-anchor="middle" x="259" y="-500.8" font-family="Sans Not-Rotated 14" font-size="14.00"> &#160;&#160;&#160;&#160;&#160;&#160;&#160;&#160;&#160;&#160;&#160;&#160;&#160;&#160;&#160;</text>
</g>
<!-- Yellow zone Therapy control operator&#45;&gt;Red zone operator -->
<g id="edge21" class="edge">
<title>Yellow zone Therapy control operator&#45;&gt;Red zone operator</title>
<path fill="none" stroke="black" stroke-width="1.14" d="M197.97,-713.22C236.35,-697.42 293.53,-673.87 334.65,-656.94"/>
<polygon fill="black" stroke="black" stroke-width="1.14" points="336.04,-660.15 343.95,-653.11 333.37,-653.68 336.04,-660.15"/>
<text text-anchor="middle" x="318" y="-674.8" font-family="Sans Not-Rotated 14" font-size="14.00"> &#160;&#160;&#160;&#160;&#160;&#160;&#160;&#160;</text>
</g>
<!-- Yellow zone Therapy control operator&#45;&gt;Red zone doctor FD -->
<g id="edge23" class="edge">
<title>Yellow zone Therapy control operator&#45;&gt;Red zone doctor FD</title>
<path fill="none" stroke="black" stroke-width="1.06" d="M145.04,-713.04C128.45,-685.98 100.76,-631.74 110.5,-584 119.16,-541.54 122.32,-526.02 154.5,-497 159.84,-492.18 165.97,-487.86 172.32,-484.04"/>
<polygon fill="black" stroke="black" stroke-width="1.06" points="174.07,-487.07 181.08,-479.13 170.65,-480.96 174.07,-487.07"/>
<text text-anchor="middle" x="120" y="-587.8" font-family="Sans Not-Rotated 14" font-size="14.00"> &#160;&#160;&#160;</text>
</g>
<!-- Yellow zone Therapy control operator&#45;&gt;Red zone doctor -->
<g id="edge24" class="edge">
<title>Yellow zone Therapy control operator&#45;&gt;Red zone doctor</title>
<path fill="none" stroke="black" stroke-width="1.03" d="M161.65,-712.97C170.01,-685.36 187.4,-629.84 205.5,-584 206.58,-581.26 207.76,-578.43 208.98,-575.62"/>
<polygon fill="black" stroke="black" stroke-width="1.03" points="212.26,-576.85 213.16,-566.29 205.88,-573.99 212.26,-576.85"/>
<text text-anchor="middle" x="201" y="-631.3" font-family="Sans Not-Rotated 14" font-size="14.00"> &#160;&#160;&#160;</text>
</g>
<!-- Yellow zone Therapy control operator&#45;&gt;Notification operator -->
<g id="edge22" class="edge">
<title>Yellow zone Therapy control operator&#45;&gt;Notification operator</title>
<path fill="none" stroke="black" stroke-width="1.1" d="M113.82,-713.16C83.63,-697.9 48.5,-672.34 48.5,-636 48.5,-636 48.5,-636 48.5,-286 48.5,-247.75 84.22,-226.69 122.22,-215.1"/>
<polygon fill="black" stroke="black" stroke-width="1.1" points="123.24,-218.45 131.91,-212.35 121.33,-211.71 123.24,-218.45"/>
<text text-anchor="middle" x="69" y="-457.3" font-family="Sans Not-Rotated 14" font-size="14.00"> &#160;&#160;&#160;&#160;&#160;&#160;&#160;&#160;</text>
</g>
<!-- Meas missing operator -->
<g id="node7" class="node">
<title>Meas missing operator</title>
<polygon fill="#a09dde" stroke="black" points="171,-127 0,-127 0,-91 171,-91 171,-127"/>
<text text-anchor="middle" x="85.5" y="-105.3" font-family="Sans Not-Rotated 14" font-size="14.00">Meas missing operator</text>
</g>
<!-- Meas missing doctor -->
<g id="node9" class="node">
<title>Meas missing doctor</title>
<polygon fill="#c0bde9" stroke="black" points="255,-36 100,-36 100,0 255,0 255,-36"/>
<text text-anchor="middle" x="177.5" y="-14.3" font-family="Sans Not-Rotated 14" font-size="14.00">Meas missing doctor</text>
</g>
<!-- Meas missing operator&#45;&gt;Meas missing doctor -->
<g id="edge2" class="edge">
<title>Meas missing operator&#45;&gt;Meas missing doctor</title>
<path fill="none" stroke="black" stroke-width="2.58" d="M103.24,-90.84C117.24,-77.3 136.94,-58.24 152.53,-43.15"/>
<polygon fill="black" stroke="black" stroke-width="2.58" points="155.06,-45.58 159.82,-36.11 150.2,-40.54 155.06,-45.58"/>
<text text-anchor="middle" x="177" y="-57.8" font-family="Sans Not-Rotated 14" font-size="14.00"> &#160;&#160;&#160;&#160;&#160;&#160;&#160;&#160;&#160;&#160;&#160;&#160;&#160;&#160;&#160;</text>
</g>
<!-- Notification operator&#45;&gt;Meas missing operator -->
<g id="edge12" class="edge">
<title>Notification operator&#45;&gt;Meas missing operator</title>
<path fill="none" stroke="black" stroke-width="2.76" d="M165.82,-181.93C155.07,-176.94 143.99,-170.92 134.5,-164 123.47,-155.96 113.04,-145.11 104.66,-135.25"/>
<polygon fill="black" stroke="black" stroke-width="2.76" points="107.18,-132.8 98.14,-127.28 101.77,-137.23 107.18,-132.8"/>
<text text-anchor="middle" x="171" y="-152.8" font-family="Sans Not-Rotated 14" font-size="14.00"> &#160;&#160;&#160;&#160;&#160;&#160;&#160;&#160;&#160;&#160;&#160;&#160;&#160;&#160;&#160;</text>
</g>
<!-- Notification operator&#45;&gt;Notification operator -->
<g id="edge28" class="edge">
<title>Notification operator&#45;&gt;Notification operator</title>
<path fill="none" stroke="black" stroke-width="2.05" d="M291.07,-206.99C301.83,-205.82 309,-203.49 309,-200 309,-197.77 306.06,-196.01 301.12,-194.72"/>
<polygon fill="black" stroke="black" stroke-width="2.05" points="301.52,-191.24 291.07,-193.01 300.34,-198.14 301.52,-191.24"/>
<text text-anchor="middle" x="329.5" y="-196.3" font-family="Sans Not-Rotated 14" font-size="14.00"> &#160;&#160;&#160;&#160;&#160;&#160;&#160;&#160;</text>
</g>
<!-- Notification operator&#45;&gt;Yellow zone doctor -->
<g id="edge25" class="edge">
<title>Notification operator&#45;&gt;Yellow zone doctor</title>
<path fill="none" stroke="black" stroke-width="1.66" d="M226.42,-218.34C244.23,-239.02 274.95,-274.61 301.5,-305 314.11,-319.43 328.3,-335.52 339.71,-348.42"/>
<polygon fill="black" stroke="black" stroke-width="1.66" points="337.16,-350.82 346.41,-355.99 342.41,-346.19 337.16,-350.82"/>
<text text-anchor="middle" x="322" y="-283.3" font-family="Sans Not-Rotated 14" font-size="14.00"> &#160;&#160;&#160;&#160;&#160;&#160;&#160;&#160;</text>
</g>
<!-- end -->
<g id="node12" class="node">
<title>end</title>
<ellipse fill="#ea4126" stroke="black" cx="211.5" cy="-109" rx="18" ry="18"/>
<ellipse fill="none" stroke="black" cx="211.5" cy="-109" rx="22" ry="22"/>
</g>
<!-- Notification operator&#45;&gt;end -->
<g id="edge18" class="edge">
<title>Notification operator&#45;&gt;end</title>
<path fill="none" stroke="black" stroke-dasharray="5,2" d="M211.5,-181.84C211.5,-170.44 211.5,-155.13 211.5,-141.58"/>
<polygon fill="black" stroke="black" points="215,-141.19 211.5,-131.19 208,-141.19 215,-141.19"/>
<text text-anchor="middle" x="232" y="-152.8" font-family="Sans Not-Rotated 14" font-size="14.00"> &#160;&#160;&#160;&#160;&#160;&#160;&#160;&#160;</text>
</g>
<!-- Meas missing doctor&#45;&gt;Notification operator -->
<g id="edge15" class="edge">
<title>Meas missing doctor&#45;&gt;Notification operator</title>
<path fill="none" stroke="black" stroke-width="2.13" d="M198.59,-36.04C204.92,-41.52 211.71,-47.79 217.5,-54 230.04,-67.46 234.87,-70.26 242.5,-87 254.17,-112.62 252.6,-121 255.5,-149 256.19,-155.63 258.4,-158 255.5,-164 253.64,-167.86 251.12,-171.42 248.23,-174.68"/>
<polygon fill="black" stroke="black" stroke-width="2.13" points="245.71,-172.25 240.94,-181.71 250.57,-177.29 245.71,-172.25"/>
<text text-anchor="middle" x="290" y="-105.3" font-family="Sans Not-Rotated 14" font-size="14.00"> &#160;&#160;&#160;&#160;&#160;&#160;&#160;&#160;&#160;&#160;&#160;&#160;&#160;&#160;&#160;</text>
</g>
<!-- Yellow zone doctor&#45;&gt;Yellow zone doctor FD -->
<g id="edge9" class="edge">
<title>Yellow zone doctor&#45;&gt;Yellow zone doctor FD</title>
<path fill="none" stroke="black" stroke-width="3.62" d="M347.74,-355.74C341.41,-345.59 336.66,-332.85 343.5,-323 346.73,-318.35 350.65,-314.32 355.04,-310.82"/>
<polygon fill="black" stroke="black" stroke-width="3.62" points="357.14,-313.63 363.4,-305.09 353.18,-307.86 357.14,-313.63"/>
<text text-anchor="middle" x="380" y="-326.8" font-family="Sans Not-Rotated 14" font-size="14.00"> &#160;&#160;&#160;&#160;&#160;&#160;&#160;&#160;&#160;&#160;&#160;&#160;&#160;&#160;&#160;</text>
</g>
<!-- start -->
<g id="node11" class="node">
<title>start</title>
<ellipse fill="#95d600" stroke="black" cx="385.5" cy="-731.3" rx="27.1" ry="27.1"/>
<text text-anchor="middle" x="385.5" y="-727.6" font-family="Sans Not-Rotated 14" font-size="14.00">start</text>
</g>
<!-- start&#45;&gt;Red zone operator -->
<g id="edge6" class="edge">
<title>start&#45;&gt;Red zone operator</title>
<path fill="none" stroke="black" stroke-dasharray="5,2" d="M385.5,-703.78C385.5,-691.1 385.5,-675.93 385.5,-663.17"/>
<polygon fill="black" stroke="black" points="389,-663.12 385.5,-653.12 382,-663.12 389,-663.12"/>
<text text-anchor="middle" x="406" y="-674.8" font-family="Sans Not-Rotated 14" font-size="14.00"> &#160;&#160;&#160;&#160;&#160;&#160;&#160;&#160;</text>
</g>
</g>
</svg>
