<?xml version="1.0" encoding="UTF-8" standalone="no"?>
<!DOCTYPE svg PUBLIC "-//W3C//DTD SVG 1.1//EN"
 "http://www.w3.org/Graphics/SVG/1.1/DTD/svg11.dtd">
<!-- Generated by graphviz version 3.0.0 (20220226.1711)
 -->
<!-- Pages: 1 -->
<svg width="814pt" height="680pt"
 viewBox="0.00 0.00 813.58 679.60" xmlns="http://www.w3.org/2000/svg" xmlns:xlink="http://www.w3.org/1999/xlink">
<g id="graph0" class="graph" transform="scale(1 1) rotate(0) translate(4 675.6)">
<polygon fill="white" stroke="transparent" points="-4,4 -4,-675.6 809.58,-675.6 809.58,4 -4,4"/>
<!-- Triage -->
<g id="node1" class="node">
<title>Triage</title>
<polygon fill="#a09dde" stroke="black" points="661.58,-566 601.58,-566 601.58,-530 661.58,-530 661.58,-566"/>
<text text-anchor="middle" x="631.58" y="-544.3" font-family="Sans Not-Rotated 14" font-size="14.00">Triage</text>
</g>
<!-- Register -->
<g id="node4" class="node">
<title>Register</title>
<polygon fill="#a09dde" stroke="black" points="668.58,-479 594.58,-479 594.58,-443 668.58,-443 668.58,-479"/>
<text text-anchor="middle" x="631.58" y="-457.3" font-family="Sans Not-Rotated 14" font-size="14.00">Register</text>
</g>
<!-- Triage&#45;&gt;Register -->
<g id="edge9" class="edge">
<title>Triage&#45;&gt;Register</title>
<path fill="none" stroke="black" stroke-width="5" d="M631.58,-529.8C631.58,-518.16 631.58,-502.55 631.58,-489.24"/>
<polygon fill="black" stroke="black" stroke-width="5" points="635.96,-489.18 631.58,-479.18 627.21,-489.18 635.96,-489.18"/>
<text text-anchor="middle" x="688.08" y="-500.8" font-family="Sans Not-Rotated 14" font-size="14.00"> &#160;&#160;&#160;&#160;&#160;&#160;&#160;&#160;&#160;&#160;&#160;&#160;&#160;&#160;&#160;&#160;&#160;&#160;&#160;&#160;&#160;&#160;&#160;&#160;</text>
</g>
<!-- Final Visit -->
<g id="node2" class="node">
<title>Final Visit</title>
<polygon fill="#a09dde" stroke="black" points="254.58,-305 170.58,-305 170.58,-269 254.58,-269 254.58,-305"/>
<text text-anchor="middle" x="212.58" y="-283.3" font-family="Sans Not-Rotated 14" font-size="14.00">Final Visit</text>
</g>
<!-- Prepare -->
<g id="node6" class="node">
<title>Prepare</title>
<polygon fill="#a09dde" stroke="black" points="132.08,-218 61.08,-218 61.08,-182 132.08,-182 132.08,-218"/>
<text text-anchor="middle" x="96.58" y="-196.3" font-family="Sans Not-Rotated 14" font-size="14.00">Prepare</text>
</g>
<!-- Final Visit&#45;&gt;Prepare -->
<g id="edge11" class="edge">
<title>Final Visit&#45;&gt;Prepare</title>
<path fill="none" stroke="black" stroke-width="3.4" d="M170.36,-281.14C149.4,-276.62 125.27,-267.88 109.58,-251 103.83,-244.81 100.55,-236.4 98.71,-228.25"/>
<polygon fill="black" stroke="black" stroke-width="3.4" points="102.14,-227.54 97.05,-218.25 95.23,-228.68 102.14,-227.54"/>
<text text-anchor="middle" x="146.08" y="-239.8" font-family="Sans Not-Rotated 14" font-size="14.00"> &#160;&#160;&#160;&#160;&#160;&#160;&#160;&#160;&#160;&#160;&#160;&#160;&#160;&#160;&#160;</text>
</g>
<!-- Check -->
<g id="node8" class="node">
<title>Check</title>
<polygon fill="#1d2559" stroke="black" points="354.08,-131 295.08,-131 295.08,-95 354.08,-95 354.08,-131"/>
<text text-anchor="middle" x="324.58" y="-109.3" font-family="Sans Not-Rotated 14" font-size="14.00" fill="white">Check</text>
</g>
<!-- Final Visit&#45;&gt;Check -->
<g id="edge14" class="edge">
<title>Final Visit&#45;&gt;Check</title>
<path fill="none" stroke="black" stroke-width="2.4" d="M202.91,-268.94C191.66,-246.59 176.99,-207.26 196.58,-182 216.27,-156.61 238.11,-178.88 266.58,-164 279.23,-157.39 291.46,-147.54 301.41,-138.32"/>
<polygon fill="black" stroke="black" stroke-width="2.4" points="304.09,-140.6 308.86,-131.14 299.23,-135.56 304.09,-140.6"/>
<text text-anchor="middle" x="233.08" y="-196.3" font-family="Sans Not-Rotated 14" font-size="14.00"> &#160;&#160;&#160;&#160;&#160;&#160;&#160;&#160;&#160;&#160;&#160;&#160;&#160;&#160;&#160;</text>
</g>
<!-- Visit -->
<g id="node3" class="node">
<title>Visit</title>
<polygon fill="#a09dde" stroke="black" points="471.58,-392 417.58,-392 417.58,-356 471.58,-356 471.58,-392"/>
<text text-anchor="middle" x="444.58" y="-370.3" font-family="Sans Not-Rotated 14" font-size="14.00">Visit</text>
</g>
<!-- Visit&#45;&gt;Final Visit -->
<g id="edge7" class="edge">
<title>Visit&#45;&gt;Final Visit</title>
<path fill="none" stroke="black" stroke-width="2.28" d="M417.47,-372.79C380.21,-371.43 312.04,-365.06 261.58,-338 250.15,-331.87 239.73,-322.16 231.47,-312.92"/>
<polygon fill="black" stroke="black" stroke-width="2.28" points="233.93,-310.4 224.8,-305.02 228.58,-314.92 233.93,-310.4"/>
<text text-anchor="middle" x="298.08" y="-326.8" font-family="Sans Not-Rotated 14" font-size="14.00"> &#160;&#160;&#160;&#160;&#160;&#160;&#160;&#160;&#160;&#160;&#160;&#160;&#160;&#160;&#160;</text>
</g>
<!-- Visit&#45;&gt;Check -->
<g id="edge2" class="edge">
<title>Visit&#45;&gt;Check</title>
<path fill="none" stroke="black" stroke-width="3.33" d="M443.76,-355.65C442.06,-329.17 437.04,-277.39 422.58,-236 407.95,-194.1 403.24,-182.02 373.58,-149 369.87,-144.87 365.59,-140.94 361.14,-137.32"/>
<polygon fill="black" stroke="black" stroke-width="3.33" points="363.09,-134.41 353.02,-131.14 358.85,-139.98 363.09,-134.41"/>
<text text-anchor="middle" x="464.08" y="-239.8" font-family="Sans Not-Rotated 14" font-size="14.00"> &#160;&#160;&#160;&#160;&#160;&#160;&#160;&#160;&#160;&#160;&#160;&#160;&#160;&#160;&#160;</text>
</g>
<!-- Register&#45;&gt;Visit -->
<g id="edge18" class="edge">
<title>Register&#45;&gt;Visit</title>
<path fill="none" stroke="black" stroke-width="1.26" d="M594.48,-445.84C578.94,-439.71 560.77,-432.29 544.58,-425 523.24,-415.39 499.8,-403.73 480.99,-394.09"/>
<polygon fill="black" stroke="black" stroke-width="1.26" points="482.38,-390.87 471.89,-389.4 479.17,-397.09 482.38,-390.87"/>
<text text-anchor="middle" x="581.08" y="-413.8" font-family="Sans Not-Rotated 14" font-size="14.00"> &#160;&#160;&#160;&#160;&#160;&#160;&#160;&#160;&#160;&#160;&#160;&#160;&#160;&#160;&#160;</text>
</g>
<!-- X&#45;Ray -->
<g id="node5" class="node">
<title>X&#45;Ray</title>
<polygon fill="#a09dde" stroke="black" points="515.08,-40 456.08,-40 456.08,-4 515.08,-4 515.08,-40"/>
<text text-anchor="middle" x="485.58" y="-18.3" font-family="Sans Not-Rotated 14" font-size="14.00">X&#45;Ray</text>
</g>
<!-- Register&#45;&gt;X&#45;Ray -->
<g id="edge10" class="edge">
<title>Register&#45;&gt;X&#45;Ray</title>
<path fill="none" stroke="black" stroke-width="2.5" d="M668.62,-446.3C697.44,-432.96 732.58,-409.61 732.58,-375 732.58,-375 732.58,-375 732.58,-112 732.58,-68.54 595.51,-40.44 525.59,-28.93"/>
<polygon fill="black" stroke="black" stroke-width="2.5" points="525.81,-25.42 515.38,-27.29 524.7,-32.33 525.81,-25.42"/>
<text text-anchor="middle" x="769.08" y="-239.8" font-family="Sans Not-Rotated 14" font-size="14.00"> &#160;&#160;&#160;&#160;&#160;&#160;&#160;&#160;&#160;&#160;&#160;&#160;&#160;&#160;&#160;</text>
</g>
<!-- Register&#45;&gt;Check -->
<g id="edge13" class="edge">
<title>Register&#45;&gt;Check</title>
<path fill="none" stroke="black" stroke-width="2.9" d="M631.58,-442.74C631.58,-425.57 631.58,-398.46 631.58,-375 631.58,-375 631.58,-375 631.58,-199 631.58,-144.17 447.43,-123.29 364.38,-116.65"/>
<polygon fill="black" stroke="black" stroke-width="2.9" points="364.54,-113.16 354.3,-115.88 364,-120.14 364.54,-113.16"/>
<text text-anchor="middle" x="668.08" y="-283.3" font-family="Sans Not-Rotated 14" font-size="14.00"> &#160;&#160;&#160;&#160;&#160;&#160;&#160;&#160;&#160;&#160;&#160;&#160;&#160;&#160;&#160;</text>
</g>
<!-- X&#45;Ray&#45;&gt;Visit -->
<g id="edge8" class="edge">
<title>X&#45;Ray&#45;&gt;Visit</title>
<path fill="none" stroke="black" stroke-width="1.7" d="M503.24,-40.08C508.59,-46.41 513.79,-54 516.58,-62 544.32,-141.47 526.46,-169.72 504.58,-251 495.16,-286.01 475.44,-322.93 461.18,-346.86"/>
<polygon fill="black" stroke="black" stroke-width="1.7" points="458.03,-345.31 455.82,-355.67 464.01,-348.95 458.03,-345.31"/>
<text text-anchor="middle" x="561.08" y="-196.3" font-family="Sans Not-Rotated 14" font-size="14.00"> &#160;&#160;&#160;&#160;&#160;&#160;&#160;&#160;&#160;&#160;&#160;&#160;&#160;&#160;&#160;</text>
</g>
<!-- X&#45;Ray&#45;&gt;Check -->
<g id="edge3" class="edge">
<title>X&#45;Ray&#45;&gt;Check</title>
<path fill="none" stroke="black" stroke-width="3.77" d="M468.02,-40.13C455.37,-51.74 437.45,-66.79 419.58,-77 402.36,-86.84 381.87,-94.81 364.32,-100.64"/>
<polygon fill="black" stroke="black" stroke-width="3.77" points="362.84,-97.44 354.39,-103.83 364.98,-104.11 362.84,-97.44"/>
<text text-anchor="middle" x="478.08" y="-65.8" font-family="Sans Not-Rotated 14" font-size="14.00"> &#160;&#160;&#160;&#160;&#160;&#160;&#160;&#160;&#160;&#160;&#160;&#160;&#160;&#160;&#160;</text>
</g>
<!-- Organize Ambulance -->
<g id="node7" class="node">
<title>Organize Ambulance</title>
<polygon fill="#ffffff" stroke="black" points="250.58,-131 90.58,-131 90.58,-95 250.58,-95 250.58,-131"/>
<text text-anchor="middle" x="170.58" y="-109.3" font-family="Sans Not-Rotated 14" font-size="14.00">Organize Ambulance</text>
</g>
<!-- Prepare&#45;&gt;Organize Ambulance -->
<g id="edge12" class="edge">
<title>Prepare&#45;&gt;Organize Ambulance</title>
<path fill="none" stroke="black" d="M60.79,-186.43C40.72,-177.37 21.85,-164.11 33.58,-149 37.16,-144.4 56.92,-138.4 80.37,-132.67"/>
<polygon fill="black" stroke="black" points="81.32,-136.04 90.24,-130.32 79.7,-129.23 81.32,-136.04"/>
<text text-anchor="middle" x="54.08" y="-152.8" font-family="Sans Not-Rotated 14" font-size="14.00"> &#160;&#160;&#160;&#160;&#160;&#160;&#160;&#160;</text>
</g>
<!-- Prepare&#45;&gt;Check -->
<g id="edge15" class="edge">
<title>Prepare&#45;&gt;Check</title>
<path fill="none" stroke="black" stroke-width="1.83" d="M132.09,-183.4C144.45,-177.66 158.3,-170.87 170.58,-164 181.24,-158.04 182.44,-153.97 193.58,-149 195.76,-148.03 247.36,-134.35 285.14,-124.38"/>
<polygon fill="black" stroke="black" stroke-width="1.83" points="286.12,-127.74 294.89,-121.81 284.33,-120.97 286.12,-127.74"/>
<text text-anchor="middle" x="230.08" y="-152.8" font-family="Sans Not-Rotated 14" font-size="14.00"> &#160;&#160;&#160;&#160;&#160;&#160;&#160;&#160;&#160;&#160;&#160;&#160;&#160;&#160;&#160;</text>
</g>
<!-- end -->
<g id="node10" class="node">
<title>end</title>
<ellipse fill="#ea4126" stroke="black" cx="170.58" cy="-22" rx="18" ry="18"/>
<ellipse fill="none" stroke="black" cx="170.58" cy="-22" rx="22" ry="22"/>
</g>
<!-- Prepare&#45;&gt;end -->
<g id="edge16" class="edge">
<title>Prepare&#45;&gt;end</title>
<path fill="none" stroke="black" stroke-dasharray="5,2" d="M60.82,-186.19C48.93,-180.69 36.26,-173.34 26.58,-164 3.78,-141.99 -8.69,-121.57 8.58,-95 37.33,-50.77 100.19,-33.49 138.61,-26.9"/>
<polygon fill="black" stroke="black" points="139.41,-30.32 148.75,-25.31 138.33,-23.4 139.41,-30.32"/>
<text text-anchor="middle" x="45.08" y="-109.3" font-family="Sans Not-Rotated 14" font-size="14.00"> &#160;&#160;&#160;&#160;&#160;&#160;&#160;&#160;&#160;&#160;&#160;&#160;&#160;&#160;&#160;</text>
</g>
<!-- Organize Ambulance&#45;&gt;end -->
<g id="edge19" class="edge">
<title>Organize Ambulance&#45;&gt;end</title>
<path fill="none" stroke="black" stroke-dasharray="5,2" d="M170.58,-94.84C170.58,-83.44 170.58,-68.13 170.58,-54.58"/>
<polygon fill="black" stroke="black" points="174.08,-54.19 170.58,-44.19 167.08,-54.19 174.08,-54.19"/>
<text text-anchor="middle" x="191.08" y="-65.8" font-family="Sans Not-Rotated 14" font-size="14.00"> &#160;&#160;&#160;&#160;&#160;&#160;&#160;&#160;</text>
</g>
<!-- Check&#45;&gt;Final Visit -->
<g id="edge6" class="edge">
<title>Check&#45;&gt;Final Visit</title>
<path fill="none" stroke="black" stroke-width="3.19" d="M317.81,-131.35C309.11,-152.67 292.82,-189.49 273.58,-218 263.08,-233.57 249.24,-249.28 237.4,-261.68"/>
<polygon fill="black" stroke="black" stroke-width="3.19" points="234.8,-259.33 230.33,-268.94 239.82,-264.21 234.8,-259.33"/>
<text text-anchor="middle" x="331.08" y="-196.3" font-family="Sans Not-Rotated 14" font-size="14.00"> &#160;&#160;&#160;&#160;&#160;&#160;&#160;&#160;&#160;&#160;&#160;&#160;&#160;&#160;&#160;</text>
</g>
<!-- Check&#45;&gt;Visit -->
<g id="edge1" class="edge">
<title>Check&#45;&gt;Visit</title>
<path fill="none" stroke="black" stroke-width="3.7" d="M340.87,-131.14C351.91,-144.02 365.56,-162.68 371.58,-182 376.35,-197.27 378.44,-203.54 371.58,-218 366.17,-229.42 354.99,-224.58 349.58,-236 346.73,-242.02 347.42,-244.69 349.58,-251 362.98,-290.01 394.51,-326.13 417.59,-348.79"/>
<polygon fill="black" stroke="black" stroke-width="3.7" points="415.41,-351.55 425.05,-355.94 420.25,-346.5 415.41,-351.55"/>
<text text-anchor="middle" x="386.08" y="-239.8" font-family="Sans Not-Rotated 14" font-size="14.00"> &#160;&#160;&#160;&#160;&#160;&#160;&#160;&#160;&#160;&#160;&#160;&#160;&#160;&#160;&#160;</text>
</g>
<!-- Check&#45;&gt;X&#45;Ray -->
<g id="edge4" class="edge">
<title>Check&#45;&gt;X&#45;Ray</title>
<path fill="none" stroke="black" stroke-width="3.11" d="M326.67,-94.95C328.86,-84.09 333.37,-70.51 342.58,-62 370.61,-36.12 414.13,-27.13 445.8,-24.15"/>
<polygon fill="black" stroke="black" stroke-width="3.11" points="446.35,-27.62 456.05,-23.36 445.81,-20.64 446.35,-27.62"/>
<text text-anchor="middle" x="379.08" y="-65.8" font-family="Sans Not-Rotated 14" font-size="14.00"> &#160;&#160;&#160;&#160;&#160;&#160;&#160;&#160;&#160;&#160;&#160;&#160;&#160;&#160;&#160;</text>
</g>
<!-- Check&#45;&gt;Prepare -->
<g id="edge20" class="edge">
<title>Check&#45;&gt;Prepare</title>
<path fill="none" stroke="black" stroke-width="2.4" d="M295.02,-122.72C283.98,-125.71 271.29,-128.85 259.58,-131 223.09,-137.71 118.37,-121.38 93.58,-149 88.11,-155.1 87.07,-163.48 87.95,-171.64"/>
<polygon fill="black" stroke="black" stroke-width="2.4" points="84.55,-172.51 89.89,-181.67 91.42,-171.18 84.55,-172.51"/>
<text text-anchor="middle" x="130.08" y="-152.8" font-family="Sans Not-Rotated 14" font-size="14.00"> &#160;&#160;&#160;&#160;&#160;&#160;&#160;&#160;&#160;&#160;&#160;&#160;&#160;&#160;&#160;</text>
</g>
<!-- Check&#45;&gt;Check -->
<g id="edge21" class="edge">
<title>Check&#45;&gt;Check</title>
<path fill="none" stroke="black" stroke-width="3.22" d="M354.27,-120.88C364.17,-120.88 372.08,-118.25 372.08,-113 372.08,-109.72 368.99,-107.46 364.26,-106.23"/>
<polygon fill="black" stroke="black" stroke-width="3.22" points="364.6,-102.75 354.27,-105.12 363.82,-109.71 364.6,-102.75"/>
<text text-anchor="middle" x="408.58" y="-109.3" font-family="Sans Not-Rotated 14" font-size="14.00"> &#160;&#160;&#160;&#160;&#160;&#160;&#160;&#160;&#160;&#160;&#160;&#160;&#160;&#160;&#160;</text>
</g>
<!-- Check&#45;&gt;end -->
<g id="edge17" class="edge">
<title>Check&#45;&gt;end</title>
<path fill="none" stroke="black" stroke-dasharray="5,2" d="M294.75,-99.7C280.49,-93.46 263.35,-85.42 248.58,-77 230.29,-66.56 210.8,-53.07 195.89,-42.19"/>
<polygon fill="black" stroke="black" points="197.8,-39.25 187.67,-36.12 193.64,-44.88 197.8,-39.25"/>
<text text-anchor="middle" x="285.08" y="-65.8" font-family="Sans Not-Rotated 14" font-size="14.00"> &#160;&#160;&#160;&#160;&#160;&#160;&#160;&#160;&#160;&#160;&#160;&#160;&#160;&#160;&#160;</text>
</g>
<!-- start -->
<g id="node9" class="node">
<title>start</title>
<ellipse fill="#95d600" stroke="black" cx="631.58" cy="-644.3" rx="27.1" ry="27.1"/>
<text text-anchor="middle" x="631.58" y="-640.6" font-family="Sans Not-Rotated 14" font-size="14.00">start</text>
</g>
<!-- start&#45;&gt;Triage -->
<g id="edge5" class="edge">
<title>start&#45;&gt;Triage</title>
<path fill="none" stroke="black" stroke-dasharray="5,2" d="M631.58,-616.78C631.58,-604.1 631.58,-588.93 631.58,-576.17"/>
<polygon fill="black" stroke="black" points="635.08,-576.12 631.58,-566.12 628.08,-576.12 635.08,-576.12"/>
<text text-anchor="middle" x="688.08" y="-587.8" font-family="Sans Not-Rotated 14" font-size="14.00"> &#160;&#160;&#160;&#160;&#160;&#160;&#160;&#160;&#160;&#160;&#160;&#160;&#160;&#160;&#160;&#160;&#160;&#160;&#160;&#160;&#160;&#160;&#160;&#160;</text>
</g>
</g>
</svg>
