<?xml version="1.0" encoding="UTF-8" standalone="no"?>
<!DOCTYPE svg PUBLIC "-//W3C//DTD SVG 1.1//EN"
 "http://www.w3.org/Graphics/SVG/1.1/DTD/svg11.dtd">
<!-- Generated by graphviz version 3.0.0 (20220226.1711)
 -->
<!-- Pages: 1 -->
<svg width="843pt" height="767pt"
 viewBox="0.00 0.00 843.00 766.60" xmlns="http://www.w3.org/2000/svg" xmlns:xlink="http://www.w3.org/1999/xlink">
<g id="graph0" class="graph" transform="scale(1 1) rotate(0) translate(4 762.6)">
<polygon fill="white" stroke="transparent" points="-4,4 -4,-762.6 839,-762.6 839,4 -4,4"/>
<!-- Triage -->
<g id="node1" class="node">
<title>Triage</title>
<polygon fill="#a09dde" stroke="black" points="593,-653 533,-653 533,-617 593,-617 593,-653"/>
<text text-anchor="middle" x="563" y="-631.3" font-family="Sans Not-Rotated 14" font-size="14.00">Triage</text>
</g>
<!-- Register -->
<g id="node4" class="node">
<title>Register</title>
<polygon fill="#a09dde" stroke="black" points="379,-566 305,-566 305,-530 379,-530 379,-566"/>
<text text-anchor="middle" x="342" y="-544.3" font-family="Sans Not-Rotated 14" font-size="14.00">Register</text>
</g>
<!-- Triage&#45;&gt;Register -->
<g id="edge1" class="edge">
<title>Triage&#45;&gt;Register</title>
<path fill="none" stroke="black" stroke-width="5" d="M532.88,-627.67C506.76,-621.72 468.19,-611.82 436,-599 416.58,-591.27 395.98,-580.61 379.03,-571.13"/>
<polygon fill="black" stroke="black" stroke-width="5" points="380.87,-567.14 370.02,-566 376.55,-574.75 380.87,-567.14"/>
<text text-anchor="middle" x="492.5" y="-587.8" font-family="Sans Not-Rotated 14" font-size="14.00"> &#160;&#160;&#160;&#160;&#160;&#160;&#160;&#160;&#160;&#160;&#160;&#160;&#160;&#160;&#160;&#160;&#160;&#160;&#160;&#160;&#160;&#160;&#160;&#160;</text>
</g>
<!-- Check -->
<g id="node8" class="node">
<title>Check</title>
<polygon fill="#1d2559" stroke="black" points="604.5,-305 545.5,-305 545.5,-269 604.5,-269 604.5,-305"/>
<text text-anchor="middle" x="575" y="-283.3" font-family="Sans Not-Rotated 14" font-size="14.00" fill="white">Check</text>
</g>
<!-- Triage&#45;&gt;Check -->
<g id="edge2" class="edge">
<title>Triage&#45;&gt;Check</title>
<path fill="none" stroke="black" stroke-width="1" d="M593.14,-633.57C624.37,-631.65 673.13,-624.39 706,-599 725.98,-583.56 733,-574.26 733,-549 733,-549 733,-549 733,-373 733,-347.74 725.82,-338.65 706,-323 679.95,-302.43 642.86,-293.9 614.79,-290.39"/>
<polygon fill="black" stroke="black" stroke-width="1" points="614.84,-286.88 604.52,-289.28 614.08,-293.83 614.84,-286.88"/>
<text text-anchor="middle" x="735.5" y="-457.3" font-family="Sans Not-Rotated 14" font-size="14.00"> </text>
</g>
<!-- Final Visit -->
<g id="node2" class="node">
<title>Final Visit</title>
<polygon fill="#a09dde" stroke="black" points="587,-392 503,-392 503,-356 587,-356 587,-392"/>
<text text-anchor="middle" x="545" y="-370.3" font-family="Sans Not-Rotated 14" font-size="14.00">Final Visit</text>
</g>
<!-- Final Visit&#45;&gt;Triage -->
<g id="edge23" class="edge">
<title>Final Visit&#45;&gt;Triage</title>
<path fill="none" stroke="black" d="M547.13,-392.07C547.79,-397.77 548.48,-404.15 549,-410 555.26,-480.88 559.71,-564.61 561.75,-606.8"/>
<polygon fill="black" stroke="black" points="558.26,-607.01 562.23,-616.84 565.25,-606.68 558.26,-607.01"/>
<text text-anchor="middle" x="558.5" y="-500.8" font-family="Sans Not-Rotated 14" font-size="14.00"> </text>
</g>
<!-- Prepare -->
<g id="node6" class="node">
<title>Prepare</title>
<polygon fill="#a09dde" stroke="black" points="521.5,-218 450.5,-218 450.5,-182 521.5,-182 521.5,-218"/>
<text text-anchor="middle" x="486" y="-196.3" font-family="Sans Not-Rotated 14" font-size="14.00">Prepare</text>
</g>
<!-- Final Visit&#45;&gt;Prepare -->
<g id="edge22" class="edge">
<title>Final Visit&#45;&gt;Prepare</title>
<path fill="none" stroke="black" stroke-width="3.46" d="M512.21,-355.77C494.04,-344.18 473.3,-326.98 464,-305 453.34,-279.8 462.41,-248.89 471.93,-227.35"/>
<polygon fill="black" stroke="black" stroke-width="3.46" points="475.16,-228.71 476.27,-218.17 468.83,-225.72 475.16,-228.71"/>
<text text-anchor="middle" x="500.5" y="-283.3" font-family="Sans Not-Rotated 14" font-size="14.00"> &#160;&#160;&#160;&#160;&#160;&#160;&#160;&#160;&#160;&#160;&#160;&#160;&#160;&#160;&#160;</text>
</g>
<!-- Final Visit&#45;&gt;Check -->
<g id="edge21" class="edge">
<title>Final Visit&#45;&gt;Check</title>
<path fill="none" stroke="black" stroke-width="2.49" d="M518.01,-355.95C506.76,-346.63 497.81,-334.63 505,-323 508.9,-316.7 522.19,-309.41 536.15,-303.12"/>
<polygon fill="black" stroke="black" stroke-width="2.49" points="537.55,-306.33 545.34,-299.15 534.77,-299.9 537.55,-306.33"/>
<text text-anchor="middle" x="541.5" y="-326.8" font-family="Sans Not-Rotated 14" font-size="14.00"> &#160;&#160;&#160;&#160;&#160;&#160;&#160;&#160;&#160;&#160;&#160;&#160;&#160;&#160;&#160;</text>
</g>
<!-- Visit -->
<g id="node3" class="node">
<title>Visit</title>
<polygon fill="#a09dde" stroke="black" points="286,-479 232,-479 232,-443 286,-443 286,-479"/>
<text text-anchor="middle" x="259" y="-457.3" font-family="Sans Not-Rotated 14" font-size="14.00">Visit</text>
</g>
<!-- Visit&#45;&gt;Final Visit -->
<g id="edge19" class="edge">
<title>Visit&#45;&gt;Final Visit</title>
<path fill="none" stroke="black" stroke-width="2.37" d="M286.32,-452.14C306.38,-445.92 334.02,-436.4 357,-425 367.93,-419.58 368.73,-414.68 380,-410 400.07,-401.67 452.33,-391.23 492.71,-383.93"/>
<polygon fill="black" stroke="black" stroke-width="2.37" points="493.46,-387.35 502.69,-382.15 492.23,-380.46 493.46,-387.35"/>
<text text-anchor="middle" x="416.5" y="-413.8" font-family="Sans Not-Rotated 14" font-size="14.00"> &#160;&#160;&#160;&#160;&#160;&#160;&#160;&#160;&#160;&#160;&#160;&#160;&#160;&#160;&#160;</text>
</g>
<!-- X&#45;Ray -->
<g id="node5" class="node">
<title>X&#45;Ray</title>
<polygon fill="#a09dde" stroke="black" points="249.5,-218 190.5,-218 190.5,-182 249.5,-182 249.5,-218"/>
<text text-anchor="middle" x="220" y="-196.3" font-family="Sans Not-Rotated 14" font-size="14.00">X&#45;Ray</text>
</g>
<!-- Visit&#45;&gt;X&#45;Ray -->
<g id="edge20" class="edge">
<title>Visit&#45;&gt;X&#45;Ray</title>
<path fill="none" stroke="black" stroke-width="1.18" d="M253.5,-442.68C251.87,-437.08 250.2,-430.82 249,-425 234.49,-354.7 225.9,-270.4 222.19,-228.07"/>
<polygon fill="black" stroke="black" stroke-width="1.18" points="225.67,-227.67 221.33,-218 218.69,-228.27 225.67,-227.67"/>
<text text-anchor="middle" x="255.5" y="-326.8" font-family="Sans Not-Rotated 14" font-size="14.00"> &#160;&#160;&#160;&#160;&#160;&#160;&#160;&#160;</text>
</g>
<!-- Visit&#45;&gt;Check -->
<g id="edge18" class="edge">
<title>Visit&#45;&gt;Check</title>
<path fill="none" stroke="black" stroke-width="3.39" d="M279.57,-442.94C312.99,-415.29 376.55,-363.05 388,-356 418.33,-337.34 427.24,-334.3 461,-323 492.46,-312.47 504.49,-316.34 535.4,-306.7"/>
<polygon fill="black" stroke="black" stroke-width="3.39" points="536.77,-309.93 545.14,-303.42 534.54,-303.29 536.77,-309.93"/>
<text text-anchor="middle" x="424.5" y="-370.3" font-family="Sans Not-Rotated 14" font-size="14.00"> &#160;&#160;&#160;&#160;&#160;&#160;&#160;&#160;&#160;&#160;&#160;&#160;&#160;&#160;&#160;</text>
</g>
<!-- Register&#45;&gt;Visit -->
<g id="edge4" class="edge">
<title>Register&#45;&gt;Visit</title>
<path fill="none" stroke="black" stroke-width="1.39" d="M325.2,-529.8C313.05,-517.36 296.46,-500.36 282.93,-486.5"/>
<polygon fill="black" stroke="black" stroke-width="1.39" points="285.26,-483.88 275.77,-479.18 280.25,-488.78 285.26,-483.88"/>
<text text-anchor="middle" x="342.5" y="-500.8" font-family="Sans Not-Rotated 14" font-size="14.00"> &#160;&#160;&#160;&#160;&#160;&#160;&#160;&#160;&#160;&#160;&#160;&#160;&#160;&#160;&#160;</text>
</g>
<!-- Register&#45;&gt;X&#45;Ray -->
<g id="edge5" class="edge">
<title>Register&#45;&gt;X&#45;Ray</title>
<path fill="none" stroke="black" stroke-width="2.59" d="M304.9,-543.3C230.25,-534.81 69,-510.83 69,-462 69,-462 69,-462 69,-286 69,-234.93 135.41,-214.21 180.15,-206.05"/>
<polygon fill="black" stroke="black" stroke-width="2.59" points="180.89,-209.48 190.17,-204.36 179.72,-202.57 180.89,-209.48"/>
<text text-anchor="middle" x="105.5" y="-370.3" font-family="Sans Not-Rotated 14" font-size="14.00"> &#160;&#160;&#160;&#160;&#160;&#160;&#160;&#160;&#160;&#160;&#160;&#160;&#160;&#160;&#160;</text>
</g>
<!-- Register&#45;&gt;Check -->
<g id="edge3" class="edge">
<title>Register&#45;&gt;Check</title>
<path fill="none" stroke="black" stroke-width="2.97" d="M363.53,-529.92C370.02,-524.43 377,-518.18 383,-512 417.58,-476.4 427.21,-467.4 453,-425 478.75,-382.67 462.63,-357.7 498,-323 510.59,-310.64 519.26,-312.54 535.9,-306.78"/>
<polygon fill="black" stroke="black" stroke-width="2.97" points="537.42,-309.94 545.39,-302.95 534.8,-303.45 537.42,-309.94"/>
<text text-anchor="middle" x="496.5" y="-413.8" font-family="Sans Not-Rotated 14" font-size="14.00"> &#160;&#160;&#160;&#160;&#160;&#160;&#160;&#160;&#160;&#160;&#160;&#160;&#160;&#160;&#160;</text>
</g>
<!-- end -->
<g id="node10" class="node">
<title>end</title>
<ellipse fill="#ea4126" stroke="black" cx="571" cy="-22" rx="18" ry="18"/>
<ellipse fill="none" stroke="black" cx="571" cy="-22" rx="22" ry="22"/>
</g>
<!-- Register&#45;&gt;end -->
<g id="edge6" class="edge">
<title>Register&#45;&gt;end</title>
<path fill="none" stroke="black" stroke-dasharray="5,2" d="M304.75,-545.6C216.11,-541.24 0,-524.25 0,-462 0,-462 0,-462 0,-112 0,-57.04 418.39,-30.96 538.89,-24.59"/>
<polygon fill="black" stroke="black" points="539.16,-28.08 548.97,-24.06 538.8,-21.09 539.16,-28.08"/>
<text text-anchor="middle" x="20.5" y="-283.3" font-family="Sans Not-Rotated 14" font-size="14.00"> &#160;&#160;&#160;&#160;&#160;&#160;&#160;&#160;</text>
</g>
<!-- X&#45;Ray&#45;&gt;Final Visit -->
<g id="edge17" class="edge">
<title>X&#45;Ray&#45;&gt;Final Visit</title>
<path fill="none" stroke="black" stroke-width="1.32" d="M225.85,-218.22C230.23,-228.88 237.17,-242.16 247,-251 284.65,-284.84 418.19,-331.86 493.09,-356.48"/>
<polygon fill="black" stroke="black" stroke-width="1.32" points="492.22,-359.87 502.81,-359.65 494.39,-353.22 492.22,-359.87"/>
<text text-anchor="middle" x="368.5" y="-283.3" font-family="Sans Not-Rotated 14" font-size="14.00"> &#160;&#160;&#160;&#160;&#160;&#160;&#160;&#160;</text>
</g>
<!-- X&#45;Ray&#45;&gt;Visit -->
<g id="edge15" class="edge">
<title>X&#45;Ray&#45;&gt;Visit</title>
<path fill="none" stroke="black" stroke-width="1.81" d="M190.31,-217.5C149.79,-242.26 85.19,-291.16 113,-338 121.53,-352.37 133.56,-344.84 146,-356 173.81,-380.94 166.12,-400.13 194,-425 202.49,-432.58 212.92,-439.11 222.91,-444.41"/>
<polygon fill="black" stroke="black" stroke-width="1.81" points="221.39,-447.56 231.9,-448.93 224.53,-441.31 221.39,-447.56"/>
<text text-anchor="middle" x="149.5" y="-326.8" font-family="Sans Not-Rotated 14" font-size="14.00"> &#160;&#160;&#160;&#160;&#160;&#160;&#160;&#160;&#160;&#160;&#160;&#160;&#160;&#160;&#160;</text>
</g>
<!-- X&#45;Ray&#45;&gt;Check -->
<g id="edge16" class="edge">
<title>X&#45;Ray&#45;&gt;Check</title>
<path fill="none" stroke="black" stroke-width="3.82" d="M249.51,-209.59C293.14,-222.21 372.81,-244.91 402,-251 456.95,-262.46 472.5,-255.57 527,-269 529.82,-269.69 532.7,-270.49 535.59,-271.35"/>
<polygon fill="black" stroke="black" stroke-width="3.82" points="534.73,-274.75 545.32,-274.46 536.86,-268.08 534.73,-274.75"/>
<text text-anchor="middle" x="438.5" y="-239.8" font-family="Sans Not-Rotated 14" font-size="14.00"> &#160;&#160;&#160;&#160;&#160;&#160;&#160;&#160;&#160;&#160;&#160;&#160;&#160;&#160;&#160;</text>
</g>
<!-- Organize Ambulance -->
<g id="node7" class="node">
<title>Organize Ambulance</title>
<polygon fill="#ffffff" stroke="black" points="737,-131 577,-131 577,-95 737,-95 737,-131"/>
<text text-anchor="middle" x="657" y="-109.3" font-family="Sans Not-Rotated 14" font-size="14.00">Organize Ambulance</text>
</g>
<!-- Prepare&#45;&gt;Organize Ambulance -->
<g id="edge25" class="edge">
<title>Prepare&#45;&gt;Organize Ambulance</title>
<path fill="none" stroke="black" stroke-width="1.14" d="M520.6,-181.8C547.46,-168.45 584.86,-149.86 613.7,-135.52"/>
<polygon fill="black" stroke="black" stroke-width="1.14" points="615.34,-138.62 622.74,-131.03 612.23,-132.35 615.34,-138.62"/>
<text text-anchor="middle" x="601.5" y="-152.8" font-family="Sans Not-Rotated 14" font-size="14.00"> &#160;&#160;&#160;&#160;&#160;&#160;&#160;&#160;</text>
</g>
<!-- Prepare&#45;&gt;Check -->
<g id="edge24" class="edge">
<title>Prepare&#45;&gt;Check</title>
<path fill="none" stroke="black" stroke-width="1.94" d="M521.66,-212.25C534.23,-217.72 547.57,-225.44 557,-236 562.71,-242.39 566.64,-250.71 569.34,-258.73"/>
<polygon fill="black" stroke="black" stroke-width="1.94" points="566.03,-259.9 572.13,-268.56 572.76,-257.99 566.03,-259.9"/>
<text text-anchor="middle" x="602.5" y="-239.8" font-family="Sans Not-Rotated 14" font-size="14.00"> &#160;&#160;&#160;&#160;&#160;&#160;&#160;&#160;&#160;&#160;&#160;&#160;&#160;&#160;&#160;</text>
</g>
<!-- Prepare&#45;&gt;end -->
<g id="edge26" class="edge">
<title>Prepare&#45;&gt;end</title>
<path fill="none" stroke="black" stroke-dasharray="5,2" d="M483.9,-181.83C482.05,-160.37 481.46,-123.08 495,-95 505.82,-72.56 526.85,-53.5 544.05,-40.64"/>
<polygon fill="black" stroke="black" points="546.53,-43.17 552.62,-34.5 542.45,-37.48 546.53,-43.17"/>
<text text-anchor="middle" x="531.5" y="-109.3" font-family="Sans Not-Rotated 14" font-size="14.00"> &#160;&#160;&#160;&#160;&#160;&#160;&#160;&#160;&#160;&#160;&#160;&#160;&#160;&#160;&#160;</text>
</g>
<!-- Organize Ambulance&#45;&gt;Check -->
<g id="edge27" class="edge">
<title>Organize Ambulance&#45;&gt;Check</title>
<path fill="none" stroke="black" stroke-width="1.02" d="M667.78,-131.12C679.46,-151.89 695.12,-187.87 685,-218 674.78,-248.42 641.67,-266.07 614.43,-275.73"/>
<polygon fill="black" stroke="black" stroke-width="1.02" points="613.11,-272.48 604.71,-278.93 615.3,-279.12 613.11,-272.48"/>
<text text-anchor="middle" x="697.5" y="-196.3" font-family="Sans Not-Rotated 14" font-size="14.00"> &#160;&#160;&#160;</text>
</g>
<!-- Organize Ambulance&#45;&gt;end -->
<g id="edge28" class="edge">
<title>Organize Ambulance&#45;&gt;end</title>
<path fill="none" stroke="black" stroke-dasharray="5,2" d="M640.42,-94.84C626.95,-80.9 607.84,-61.13 593.08,-45.85"/>
<polygon fill="black" stroke="black" points="595.27,-43.08 585.81,-38.32 590.24,-47.95 595.27,-43.08"/>
<text text-anchor="middle" x="641.5" y="-65.8" font-family="Sans Not-Rotated 14" font-size="14.00"> &#160;&#160;&#160;&#160;&#160;&#160;&#160;&#160;</text>
</g>
<!-- Check&#45;&gt;Triage -->
<g id="edge13" class="edge">
<title>Check&#45;&gt;Triage</title>
<path fill="none" stroke="black" d="M604.52,-295.5C639.18,-306.29 692,-329.82 692,-373 692,-549 692,-549 692,-549 692,-592.21 640.91,-614.7 603.04,-625.43"/>
<polygon fill="black" stroke="black" points="602.01,-622.08 593.24,-628.03 603.81,-628.85 602.01,-622.08"/>
<text text-anchor="middle" x="694.5" y="-457.3" font-family="Sans Not-Rotated 14" font-size="14.00"> </text>
</g>
<!-- Check&#45;&gt;Final Visit -->
<g id="edge8" class="edge">
<title>Check&#45;&gt;Final Visit</title>
<path fill="none" stroke="black" stroke-width="3.26" d="M581.83,-305.27C584.69,-315.2 586.44,-327.7 582,-338 580.43,-341.64 578.28,-345.08 575.79,-348.28"/>
<polygon fill="black" stroke="black" stroke-width="3.26" points="573.19,-345.94 569.07,-355.7 578.38,-350.64 573.19,-345.94"/>
<text text-anchor="middle" x="620.5" y="-326.8" font-family="Sans Not-Rotated 14" font-size="14.00"> &#160;&#160;&#160;&#160;&#160;&#160;&#160;&#160;&#160;&#160;&#160;&#160;&#160;&#160;&#160;</text>
</g>
<!-- Check&#45;&gt;Visit -->
<g id="edge10" class="edge">
<title>Check&#45;&gt;Visit</title>
<path fill="none" stroke="black" stroke-width="3.74" d="M545.21,-303.64C543.8,-304.14 542.4,-304.6 541,-305 522.33,-310.34 313.24,-294.62 268,-356 251.85,-377.91 251.55,-409.92 254.07,-432.63"/>
<polygon fill="black" stroke="black" stroke-width="3.74" points="250.61,-433.2 255.42,-442.64 257.55,-432.26 250.61,-433.2"/>
<text text-anchor="middle" x="304.5" y="-370.3" font-family="Sans Not-Rotated 14" font-size="14.00"> &#160;&#160;&#160;&#160;&#160;&#160;&#160;&#160;&#160;&#160;&#160;&#160;&#160;&#160;&#160;</text>
</g>
<!-- Check&#45;&gt;X&#45;Ray -->
<g id="edge7" class="edge">
<title>Check&#45;&gt;X&#45;Ray</title>
<path fill="none" stroke="black" stroke-width="3.17" d="M545.4,-274.11C539.39,-272.1 533.06,-270.26 527,-269 470.29,-257.22 319.33,-275.81 267,-251 255.34,-245.47 245.14,-235.68 237.24,-226.21"/>
<polygon fill="black" stroke="black" stroke-width="3.17" points="239.83,-223.83 230.92,-218.09 234.31,-228.13 239.83,-223.83"/>
<text text-anchor="middle" x="303.5" y="-239.8" font-family="Sans Not-Rotated 14" font-size="14.00"> &#160;&#160;&#160;&#160;&#160;&#160;&#160;&#160;&#160;&#160;&#160;&#160;&#160;&#160;&#160;</text>
</g>
<!-- Check&#45;&gt;Prepare -->
<g id="edge9" class="edge">
<title>Check&#45;&gt;Prepare</title>
<path fill="none" stroke="black" stroke-width="2.49" d="M545.05,-275.4C519.25,-266.12 485.87,-253.72 484,-251 479.49,-244.43 478.47,-236.14 479.01,-228.21"/>
<polygon fill="black" stroke="black" stroke-width="2.49" points="482.5,-228.58 480.48,-218.18 475.57,-227.57 482.5,-228.58"/>
<text text-anchor="middle" x="520.5" y="-239.8" font-family="Sans Not-Rotated 14" font-size="14.00"> &#160;&#160;&#160;&#160;&#160;&#160;&#160;&#160;&#160;&#160;&#160;&#160;&#160;&#160;&#160;</text>
</g>
<!-- Check&#45;&gt;Organize Ambulance -->
<g id="edge12" class="edge">
<title>Check&#45;&gt;Organize Ambulance</title>
<path fill="none" stroke="black" stroke-width="1.03" d="M604.58,-278.01C618.52,-272.68 634.02,-264.16 643,-251 665.2,-218.46 664.62,-171.05 661.39,-141.4"/>
<polygon fill="black" stroke="black" stroke-width="1.03" points="664.85,-140.82 660.12,-131.34 657.9,-141.7 664.85,-140.82"/>
<text text-anchor="middle" x="671.5" y="-196.3" font-family="Sans Not-Rotated 14" font-size="14.00"> &#160;&#160;&#160;</text>
</g>
<!-- Check&#45;&gt;Check -->
<g id="edge11" class="edge">
<title>Check&#45;&gt;Check</title>
<path fill="none" stroke="black" stroke-width="3.28" d="M604.69,-294.88C614.58,-294.88 622.5,-292.25 622.5,-287 622.5,-283.72 619.41,-281.46 614.67,-280.23"/>
<polygon fill="black" stroke="black" stroke-width="3.28" points="615.01,-276.75 604.69,-279.12 614.24,-283.71 615.01,-276.75"/>
<text text-anchor="middle" x="659" y="-283.3" font-family="Sans Not-Rotated 14" font-size="14.00"> &#160;&#160;&#160;&#160;&#160;&#160;&#160;&#160;&#160;&#160;&#160;&#160;&#160;&#160;&#160;</text>
</g>
<!-- Check&#45;&gt;end -->
<g id="edge14" class="edge">
<title>Check&#45;&gt;end</title>
<path fill="none" stroke="black" stroke-dasharray="5,2" d="M604.56,-280.77C627.16,-275.76 658.34,-266.6 682,-251 744.56,-209.74 787.68,-157.28 746,-95 714.06,-47.28 644.16,-31.16 603.02,-25.73"/>
<polygon fill="black" stroke="black" points="603.32,-22.24 592.98,-24.55 602.5,-29.2 603.32,-22.24"/>
<text text-anchor="middle" x="798.5" y="-152.8" font-family="Sans Not-Rotated 14" font-size="14.00"> &#160;&#160;&#160;&#160;&#160;&#160;&#160;&#160;&#160;&#160;&#160;&#160;&#160;&#160;&#160;</text>
</g>
<!-- start -->
<g id="node9" class="node">
<title>start</title>
<ellipse fill="#95d600" stroke="black" cx="363" cy="-731.3" rx="27.1" ry="27.1"/>
<text text-anchor="middle" x="363" y="-727.6" font-family="Sans Not-Rotated 14" font-size="14.00">start</text>
</g>
<!-- start&#45;&gt;Triage -->
<g id="edge29" class="edge">
<title>start&#45;&gt;Triage</title>
<path fill="none" stroke="black" stroke-dasharray="5,2" d="M387.52,-718.73C421.42,-702.75 482.97,-673.73 523.42,-654.66"/>
<polygon fill="black" stroke="black" points="525.17,-657.71 532.72,-650.28 522.18,-651.38 525.17,-657.71"/>
<text text-anchor="middle" x="542.5" y="-674.8" font-family="Sans Not-Rotated 14" font-size="14.00"> &#160;&#160;&#160;&#160;&#160;&#160;&#160;&#160;&#160;&#160;&#160;&#160;&#160;&#160;&#160;&#160;&#160;&#160;&#160;&#160;&#160;&#160;&#160;&#160;</text>
</g>
<!-- start&#45;&gt;Register -->
<g id="edge30" class="edge">
<title>start&#45;&gt;Register</title>
<path fill="none" stroke="black" stroke-dasharray="5,2" d="M359.95,-703.94C356,-669.91 349.18,-610.98 345.18,-576.43"/>
<polygon fill="black" stroke="black" points="348.61,-575.67 343.99,-566.14 341.66,-576.47 348.61,-575.67"/>
<text text-anchor="middle" x="356.5" y="-631.3" font-family="Sans Not-Rotated 14" font-size="14.00"> </text>
</g>
</g>
</svg>
