<?xml version="1.0" encoding="UTF-8" standalone="no"?>
<!DOCTYPE svg PUBLIC "-//W3C//DTD SVG 1.1//EN"
 "http://www.w3.org/Graphics/SVG/1.1/DTD/svg11.dtd">
<!-- Generated by graphviz version 3.0.0 (20220226.1711)
 -->
<!-- Pages: 1 -->
<svg width="440pt" height="767pt"
 viewBox="0.00 0.00 440.00 766.60" xmlns="http://www.w3.org/2000/svg" xmlns:xlink="http://www.w3.org/1999/xlink">
<g id="graph0" class="graph" transform="scale(1 1) rotate(0) translate(4 762.6)">
<polygon fill="white" stroke="transparent" points="-4,4 -4,-762.6 436,-762.6 436,4 -4,4"/>
<!-- Triage -->
<g id="node1" class="node">
<title>Triage</title>
<polygon fill="#a09dde" stroke="black" points="308,-653 248,-653 248,-617 308,-617 308,-653"/>
<text text-anchor="middle" x="278" y="-631.3" font-family="Sans Not-Rotated 14" font-size="14.00">Triage</text>
</g>
<!-- Register -->
<g id="node4" class="node">
<title>Register</title>
<polygon fill="#a09dde" stroke="black" points="315,-566 241,-566 241,-530 315,-530 315,-566"/>
<text text-anchor="middle" x="278" y="-544.3" font-family="Sans Not-Rotated 14" font-size="14.00">Register</text>
</g>
<!-- Triage&#45;&gt;Register -->
<g id="edge7" class="edge">
<title>Triage&#45;&gt;Register</title>
<path fill="none" stroke="black" stroke-width="5" d="M278,-616.8C278,-605.16 278,-589.55 278,-576.24"/>
<polygon fill="black" stroke="black" stroke-width="5" points="282.38,-576.18 278,-566.18 273.63,-576.18 282.38,-576.18"/>
<text text-anchor="middle" x="334.5" y="-587.8" font-family="Sans Not-Rotated 14" font-size="14.00"> &#160;&#160;&#160;&#160;&#160;&#160;&#160;&#160;&#160;&#160;&#160;&#160;&#160;&#160;&#160;&#160;&#160;&#160;&#160;&#160;&#160;&#160;&#160;&#160;</text>
</g>
<!-- Final Visit -->
<g id="node2" class="node">
<title>Final Visit</title>
<polygon fill="#a09dde" stroke="black" points="180,-305 96,-305 96,-269 180,-269 180,-305"/>
<text text-anchor="middle" x="138" y="-283.3" font-family="Sans Not-Rotated 14" font-size="14.00">Final Visit</text>
</g>
<!-- Prepare -->
<g id="node6" class="node">
<title>Prepare</title>
<polygon fill="#a09dde" stroke="black" points="173.5,-218 102.5,-218 102.5,-182 173.5,-182 173.5,-218"/>
<text text-anchor="middle" x="138" y="-196.3" font-family="Sans Not-Rotated 14" font-size="14.00">Prepare</text>
</g>
<!-- Final Visit&#45;&gt;Prepare -->
<g id="edge9" class="edge">
<title>Final Visit&#45;&gt;Prepare</title>
<path fill="none" stroke="black" stroke-width="3.4" d="M138,-268.8C138,-257.16 138,-241.55 138,-228.24"/>
<polygon fill="black" stroke="black" stroke-width="3.4" points="141.5,-228.18 138,-218.18 134.5,-228.18 141.5,-228.18"/>
<text text-anchor="middle" x="174.5" y="-239.8" font-family="Sans Not-Rotated 14" font-size="14.00"> &#160;&#160;&#160;&#160;&#160;&#160;&#160;&#160;&#160;&#160;&#160;&#160;&#160;&#160;&#160;</text>
</g>
<!-- Check -->
<g id="node8" class="node">
<title>Check</title>
<polygon fill="#1d2559" stroke="black" points="263.5,-392 204.5,-392 204.5,-356 263.5,-356 263.5,-392"/>
<text text-anchor="middle" x="234" y="-370.3" font-family="Sans Not-Rotated 14" font-size="14.00" fill="white">Check</text>
</g>
<!-- Final Visit&#45;&gt;Check -->
<g id="edge13" class="edge">
<title>Final Visit&#45;&gt;Check</title>
<path fill="none" stroke="black" stroke-width="2.4" d="M155.85,-305.46C165.99,-315.22 179.01,-327.49 191,-338 195.25,-341.73 199.82,-345.59 204.33,-349.32"/>
<polygon fill="black" stroke="black" stroke-width="2.4" points="202.35,-352.23 212.31,-355.86 206.79,-346.81 202.35,-352.23"/>
<text text-anchor="middle" x="227.5" y="-326.8" font-family="Sans Not-Rotated 14" font-size="14.00"> &#160;&#160;&#160;&#160;&#160;&#160;&#160;&#160;&#160;&#160;&#160;&#160;&#160;&#160;&#160;</text>
</g>
<!-- Visit -->
<g id="node3" class="node">
<title>Visit</title>
<polygon fill="#a09dde" stroke="black" points="357,-305 303,-305 303,-269 357,-269 357,-305"/>
<text text-anchor="middle" x="330" y="-283.3" font-family="Sans Not-Rotated 14" font-size="14.00">Visit</text>
</g>
<!-- Visit&#45;&gt;Check -->
<g id="edge2" class="edge">
<title>Visit&#45;&gt;Check</title>
<path fill="none" stroke="black" stroke-width="3.33" d="M348.26,-305.03C356.83,-315.11 363.65,-327.84 356,-338 337.19,-362.97 301.76,-371.01 273.9,-373.22"/>
<polygon fill="black" stroke="black" stroke-width="3.33" points="273.44,-369.74 263.65,-373.8 273.83,-376.73 273.44,-369.74"/>
<text text-anchor="middle" x="395.5" y="-326.8" font-family="Sans Not-Rotated 14" font-size="14.00"> &#160;&#160;&#160;&#160;&#160;&#160;&#160;&#160;&#160;&#160;&#160;&#160;&#160;&#160;&#160;</text>
</g>
<!-- X&#45;Ray -->
<g id="node5" class="node">
<title>X&#45;Ray</title>
<polygon fill="#a09dde" stroke="black" points="263.5,-479 204.5,-479 204.5,-443 263.5,-443 263.5,-479"/>
<text text-anchor="middle" x="234" y="-457.3" font-family="Sans Not-Rotated 14" font-size="14.00">X&#45;Ray</text>
</g>
<!-- Register&#45;&gt;X&#45;Ray -->
<g id="edge8" class="edge">
<title>Register&#45;&gt;X&#45;Ray</title>
<path fill="none" stroke="black" stroke-width="2.5" d="M249.76,-529.93C243.84,-524.93 238.38,-518.92 235,-512 231.6,-505.03 230.45,-496.83 230.4,-489.11"/>
<polygon fill="black" stroke="black" stroke-width="2.5" points="233.9,-489.2 230.89,-479.04 226.9,-488.86 233.9,-489.2"/>
<text text-anchor="middle" x="271.5" y="-500.8" font-family="Sans Not-Rotated 14" font-size="14.00"> &#160;&#160;&#160;&#160;&#160;&#160;&#160;&#160;&#160;&#160;&#160;&#160;&#160;&#160;&#160;</text>
</g>
<!-- Register&#45;&gt;Check -->
<g id="edge11" class="edge">
<title>Register&#45;&gt;Check</title>
<path fill="none" stroke="black" stroke-width="2.9" d="M296.96,-529.74C301.44,-524.52 305.61,-518.46 308,-512 323.73,-469.48 332.25,-448.3 308,-410 300.17,-397.63 286.66,-389.55 273.31,-384.31"/>
<polygon fill="black" stroke="black" stroke-width="2.9" points="274.3,-380.95 263.7,-380.97 272,-387.56 274.3,-380.95"/>
<text text-anchor="middle" x="360.5" y="-457.3" font-family="Sans Not-Rotated 14" font-size="14.00"> &#160;&#160;&#160;&#160;&#160;&#160;&#160;&#160;&#160;&#160;&#160;&#160;&#160;&#160;&#160;</text>
</g>
<!-- X&#45;Ray&#45;&gt;Check -->
<g id="edge3" class="edge">
<title>X&#45;Ray&#45;&gt;Check</title>
<path fill="none" stroke="black" stroke-width="3.77" d="M204.4,-455.93C170.14,-449.91 120.61,-436.37 139,-410 151.47,-392.12 174.16,-383.35 194.24,-379.06"/>
<polygon fill="black" stroke="black" stroke-width="3.77" points="194.92,-382.49 204.13,-377.24 193.66,-375.6 194.92,-382.49"/>
<text text-anchor="middle" x="175.5" y="-413.8" font-family="Sans Not-Rotated 14" font-size="14.00"> &#160;&#160;&#160;&#160;&#160;&#160;&#160;&#160;&#160;&#160;&#160;&#160;&#160;&#160;&#160;</text>
</g>
<!-- Organize Ambulance -->
<g id="node7" class="node">
<title>Organize Ambulance</title>
<polygon fill="#ffffff" stroke="black" points="160,-131 0,-131 0,-95 160,-95 160,-131"/>
<text text-anchor="middle" x="80" y="-109.3" font-family="Sans Not-Rotated 14" font-size="14.00">Organize Ambulance</text>
</g>
<!-- Prepare&#45;&gt;Organize Ambulance -->
<g id="edge10" class="edge">
<title>Prepare&#45;&gt;Organize Ambulance</title>
<path fill="none" stroke="black" d="M126.26,-181.8C118.01,-169.7 106.82,-153.3 97.51,-139.67"/>
<polygon fill="black" stroke="black" points="100.25,-137.46 91.72,-131.18 94.47,-141.41 100.25,-137.46"/>
<text text-anchor="middle" x="133.5" y="-152.8" font-family="Sans Not-Rotated 14" font-size="14.00"> &#160;&#160;&#160;&#160;&#160;&#160;&#160;&#160;</text>
</g>
<!-- end -->
<g id="node10" class="node">
<title>end</title>
<ellipse fill="#ea4126" stroke="black" cx="138" cy="-22" rx="18" ry="18"/>
<ellipse fill="none" stroke="black" cx="138" cy="-22" rx="22" ry="22"/>
</g>
<!-- Prepare&#45;&gt;end -->
<g id="edge12" class="edge">
<title>Prepare&#45;&gt;end</title>
<path fill="none" stroke="black" stroke-dasharray="5,2" d="M148.89,-181.93C156.57,-168.65 166.01,-149.44 169,-131 173.97,-100.35 170.03,-90.63 158,-62 156.45,-58.32 154.7,-54.5 152.89,-50.77"/>
<polygon fill="black" stroke="black" points="155.98,-49.13 148.36,-41.77 149.73,-52.27 155.98,-49.13"/>
<text text-anchor="middle" x="208.5" y="-109.3" font-family="Sans Not-Rotated 14" font-size="14.00"> &#160;&#160;&#160;&#160;&#160;&#160;&#160;&#160;&#160;&#160;&#160;&#160;&#160;&#160;&#160;</text>
</g>
<!-- Organize Ambulance&#45;&gt;end -->
<g id="edge14" class="edge">
<title>Organize Ambulance&#45;&gt;end</title>
<path fill="none" stroke="black" stroke-dasharray="5,2" d="M91.18,-94.84C99.52,-82.04 111.08,-64.31 120.62,-49.67"/>
<polygon fill="black" stroke="black" points="123.73,-51.31 126.25,-41.02 117.86,-47.49 123.73,-51.31"/>
<text text-anchor="middle" x="133.5" y="-65.8" font-family="Sans Not-Rotated 14" font-size="14.00"> &#160;&#160;&#160;&#160;&#160;&#160;&#160;&#160;</text>
</g>
<!-- Check&#45;&gt;Final Visit -->
<g id="edge6" class="edge">
<title>Check&#45;&gt;Final Visit</title>
<path fill="none" stroke="black" stroke-width="3.19" d="M204.26,-369.99C166.56,-365.49 104.81,-355.59 91,-338 83.86,-328.9 88.89,-319.52 97.89,-311.37"/>
<polygon fill="black" stroke="black" stroke-width="3.19" points="100.12,-314.07 105.8,-305.13 95.78,-308.58 100.12,-314.07"/>
<text text-anchor="middle" x="127.5" y="-326.8" font-family="Sans Not-Rotated 14" font-size="14.00"> &#160;&#160;&#160;&#160;&#160;&#160;&#160;&#160;&#160;&#160;&#160;&#160;&#160;&#160;&#160;</text>
</g>
<!-- Check&#45;&gt;Visit -->
<g id="edge1" class="edge">
<title>Check&#45;&gt;Visit</title>
<path fill="none" stroke="black" stroke-width="3.7" d="M249.71,-355.67C259.03,-345.73 271.28,-333.23 283,-323 287.52,-319.06 292.44,-315.07 297.36,-311.28"/>
<polygon fill="black" stroke="black" stroke-width="3.7" points="299.66,-313.93 305.53,-305.11 295.44,-308.34 299.66,-313.93"/>
<text text-anchor="middle" x="319.5" y="-326.8" font-family="Sans Not-Rotated 14" font-size="14.00"> &#160;&#160;&#160;&#160;&#160;&#160;&#160;&#160;&#160;&#160;&#160;&#160;&#160;&#160;&#160;</text>
</g>
<!-- Check&#45;&gt;X&#45;Ray -->
<g id="edge4" class="edge">
<title>Check&#45;&gt;X&#45;Ray</title>
<path fill="none" stroke="black" stroke-width="3.11" d="M234,-392.18C234,-403.81 234,-419.42 234,-432.73"/>
<polygon fill="black" stroke="black" stroke-width="3.11" points="230.5,-432.8 234,-442.8 237.5,-432.8 230.5,-432.8"/>
<text text-anchor="middle" x="270.5" y="-413.8" font-family="Sans Not-Rotated 14" font-size="14.00"> &#160;&#160;&#160;&#160;&#160;&#160;&#160;&#160;&#160;&#160;&#160;&#160;&#160;&#160;&#160;</text>
</g>
<!-- Check&#45;&gt;Check -->
<g id="edge15" class="edge">
<title>Check&#45;&gt;Check</title>
<path fill="none" stroke="black" stroke-width="3.22" d="M263.69,-381.88C273.58,-381.88 281.5,-379.25 281.5,-374 281.5,-370.72 278.41,-368.46 273.67,-367.23"/>
<polygon fill="black" stroke="black" stroke-width="3.22" points="274.01,-363.75 263.69,-366.12 273.24,-370.71 274.01,-363.75"/>
<text text-anchor="middle" x="318" y="-370.3" font-family="Sans Not-Rotated 14" font-size="14.00"> &#160;&#160;&#160;&#160;&#160;&#160;&#160;&#160;&#160;&#160;&#160;&#160;&#160;&#160;&#160;</text>
</g>
<!-- start -->
<g id="node9" class="node">
<title>start</title>
<ellipse fill="#95d600" stroke="black" cx="278" cy="-731.3" rx="27.1" ry="27.1"/>
<text text-anchor="middle" x="278" y="-727.6" font-family="Sans Not-Rotated 14" font-size="14.00">start</text>
</g>
<!-- start&#45;&gt;Triage -->
<g id="edge5" class="edge">
<title>start&#45;&gt;Triage</title>
<path fill="none" stroke="black" stroke-dasharray="5,2" d="M278,-703.78C278,-691.1 278,-675.93 278,-663.17"/>
<polygon fill="black" stroke="black" points="281.5,-663.12 278,-653.12 274.5,-663.12 281.5,-663.12"/>
<text text-anchor="middle" x="334.5" y="-674.8" font-family="Sans Not-Rotated 14" font-size="14.00"> &#160;&#160;&#160;&#160;&#160;&#160;&#160;&#160;&#160;&#160;&#160;&#160;&#160;&#160;&#160;&#160;&#160;&#160;&#160;&#160;&#160;&#160;&#160;&#160;</text>
</g>
</g>
</svg>
