<?xml version="1.0" encoding="UTF-8" standalone="no"?>
<!DOCTYPE svg PUBLIC "-//W3C//DTD SVG 1.1//EN"
 "http://www.w3.org/Graphics/SVG/1.1/DTD/svg11.dtd">
<!-- Generated by graphviz version 3.0.0 (20220226.1711)
 -->
<!-- Pages: 1 -->
<svg width="309pt" height="767pt"
 viewBox="0.00 0.00 309.21 766.60" xmlns="http://www.w3.org/2000/svg" xmlns:xlink="http://www.w3.org/1999/xlink">
<g id="graph0" class="graph" transform="scale(1 1) rotate(0) translate(4 762.6)">
<polygon fill="white" stroke="transparent" points="-4,4 -4,-762.6 305.21,-762.6 305.21,4 -4,4"/>
<!-- Triage -->
<g id="node1" class="node">
<title>Triage</title>
<polygon fill="#a09dde" stroke="black" points="173.21,-653 113.21,-653 113.21,-617 173.21,-617 173.21,-653"/>
<text text-anchor="middle" x="143.21" y="-631.3" font-family="Sans Not-Rotated 14" font-size="14.00">Triage</text>
</g>
<!-- Register -->
<g id="node4" class="node">
<title>Register</title>
<polygon fill="#a09dde" stroke="black" points="180.21,-566 106.21,-566 106.21,-530 180.21,-530 180.21,-566"/>
<text text-anchor="middle" x="143.21" y="-544.3" font-family="Sans Not-Rotated 14" font-size="14.00">Register</text>
</g>
<!-- Triage&#45;&gt;Register -->
<g id="edge7" class="edge">
<title>Triage&#45;&gt;Register</title>
<path fill="none" stroke="black" stroke-width="5" d="M143.21,-616.8C143.21,-605.16 143.21,-589.55 143.21,-576.24"/>
<polygon fill="black" stroke="black" stroke-width="5" points="147.59,-576.18 143.21,-566.18 138.84,-576.18 147.59,-576.18"/>
<text text-anchor="middle" x="199.71" y="-587.8" font-family="Sans Not-Rotated 14" font-size="14.00"> &#160;&#160;&#160;&#160;&#160;&#160;&#160;&#160;&#160;&#160;&#160;&#160;&#160;&#160;&#160;&#160;&#160;&#160;&#160;&#160;&#160;&#160;&#160;&#160;</text>
</g>
<!-- Final Visit -->
<g id="node2" class="node">
<title>Final Visit</title>
<polygon fill="#a09dde" stroke="black" points="237.21,-305 153.21,-305 153.21,-269 237.21,-269 237.21,-305"/>
<text text-anchor="middle" x="195.21" y="-283.3" font-family="Sans Not-Rotated 14" font-size="14.00">Final Visit</text>
</g>
<!-- Prepare -->
<g id="node6" class="node">
<title>Prepare</title>
<polygon fill="#a09dde" stroke="black" points="230.71,-218 159.71,-218 159.71,-182 230.71,-182 230.71,-218"/>
<text text-anchor="middle" x="195.21" y="-196.3" font-family="Sans Not-Rotated 14" font-size="14.00">Prepare</text>
</g>
<!-- Final Visit&#45;&gt;Prepare -->
<g id="edge9" class="edge">
<title>Final Visit&#45;&gt;Prepare</title>
<path fill="none" stroke="black" stroke-width="3.4" d="M195.21,-268.8C195.21,-257.16 195.21,-241.55 195.21,-228.24"/>
<polygon fill="black" stroke="black" stroke-width="3.4" points="198.71,-228.18 195.21,-218.18 191.71,-228.18 198.71,-228.18"/>
<text text-anchor="middle" x="231.71" y="-239.8" font-family="Sans Not-Rotated 14" font-size="14.00"> &#160;&#160;&#160;&#160;&#160;&#160;&#160;&#160;&#160;&#160;&#160;&#160;&#160;&#160;&#160;</text>
</g>
<!-- Visit -->
<g id="node3" class="node">
<title>Visit</title>
<polygon fill="#a09dde" stroke="black" points="78.21,-305 24.21,-305 24.21,-269 78.21,-269 78.21,-305"/>
<text text-anchor="middle" x="51.21" y="-283.3" font-family="Sans Not-Rotated 14" font-size="14.00">Visit</text>
</g>
<!-- Check -->
<g id="node8" class="node">
<title>Check</title>
<polygon fill="#1d2559" stroke="black" points="128.71,-392 69.71,-392 69.71,-356 128.71,-356 128.71,-392"/>
<text text-anchor="middle" x="99.21" y="-370.3" font-family="Sans Not-Rotated 14" font-size="14.00" fill="white">Check</text>
</g>
<!-- Visit&#45;&gt;Check -->
<g id="edge2" class="edge">
<title>Visit&#45;&gt;Check</title>
<path fill="none" stroke="black" stroke-width="3.33" d="M65.24,-305.28C69.37,-310.77 73.71,-316.98 77.21,-323 81.5,-330.38 85.5,-338.75 88.87,-346.5"/>
<polygon fill="black" stroke="black" stroke-width="3.33" points="85.7,-348 92.79,-355.87 92.16,-345.29 85.7,-348"/>
<text text-anchor="middle" x="121.71" y="-326.8" font-family="Sans Not-Rotated 14" font-size="14.00"> &#160;&#160;&#160;&#160;&#160;&#160;&#160;&#160;&#160;&#160;&#160;&#160;&#160;&#160;&#160;</text>
</g>
<!-- X&#45;Ray -->
<g id="node5" class="node">
<title>X&#45;Ray</title>
<polygon fill="#a09dde" stroke="black" points="128.71,-479 69.71,-479 69.71,-443 128.71,-443 128.71,-479"/>
<text text-anchor="middle" x="99.21" y="-457.3" font-family="Sans Not-Rotated 14" font-size="14.00">X&#45;Ray</text>
</g>
<!-- Register&#45;&gt;X&#45;Ray -->
<g id="edge8" class="edge">
<title>Register&#45;&gt;X&#45;Ray</title>
<path fill="none" stroke="black" stroke-width="2.5" d="M114.97,-529.93C109.05,-524.93 103.59,-518.92 100.21,-512 96.81,-505.03 95.66,-496.83 95.61,-489.11"/>
<polygon fill="black" stroke="black" stroke-width="2.5" points="99.11,-489.2 96.11,-479.04 92.12,-488.86 99.11,-489.2"/>
<text text-anchor="middle" x="136.71" y="-500.8" font-family="Sans Not-Rotated 14" font-size="14.00"> &#160;&#160;&#160;&#160;&#160;&#160;&#160;&#160;&#160;&#160;&#160;&#160;&#160;&#160;&#160;</text>
</g>
<!-- Register&#45;&gt;Check -->
<g id="edge12" class="edge">
<title>Register&#45;&gt;Check</title>
<path fill="none" stroke="black" stroke-width="2.9" d="M162.17,-529.74C166.66,-524.52 170.83,-518.46 173.21,-512 188.94,-469.48 197.47,-448.3 173.21,-410 165.38,-397.63 151.87,-389.55 138.52,-384.31"/>
<polygon fill="black" stroke="black" stroke-width="2.9" points="139.51,-380.95 128.91,-380.97 137.21,-387.56 139.51,-380.95"/>
<text text-anchor="middle" x="225.71" y="-457.3" font-family="Sans Not-Rotated 14" font-size="14.00"> &#160;&#160;&#160;&#160;&#160;&#160;&#160;&#160;&#160;&#160;&#160;&#160;&#160;&#160;&#160;</text>
</g>
<!-- X&#45;Ray&#45;&gt;Check -->
<g id="edge3" class="edge">
<title>X&#45;Ray&#45;&gt;Check</title>
<path fill="none" stroke="black" stroke-width="3.77" d="M69.62,-455.93C35.35,-449.91 -14.18,-436.37 4.21,-410 16.68,-392.12 39.37,-383.35 59.45,-379.06"/>
<polygon fill="black" stroke="black" stroke-width="3.77" points="60.14,-382.49 69.34,-377.24 58.88,-375.6 60.14,-382.49"/>
<text text-anchor="middle" x="40.71" y="-413.8" font-family="Sans Not-Rotated 14" font-size="14.00"> &#160;&#160;&#160;&#160;&#160;&#160;&#160;&#160;&#160;&#160;&#160;&#160;&#160;&#160;&#160;</text>
</g>
<!-- Organize Ambulance -->
<g id="node7" class="node">
<title>Organize Ambulance</title>
<polygon fill="#ffffff" stroke="black" points="217.21,-131 57.21,-131 57.21,-95 217.21,-95 217.21,-131"/>
<text text-anchor="middle" x="137.21" y="-109.3" font-family="Sans Not-Rotated 14" font-size="14.00">Organize Ambulance</text>
</g>
<!-- Prepare&#45;&gt;Organize Ambulance -->
<g id="edge10" class="edge">
<title>Prepare&#45;&gt;Organize Ambulance</title>
<path fill="none" stroke="black" d="M183.48,-181.8C175.22,-169.7 164.03,-153.3 154.73,-139.67"/>
<polygon fill="black" stroke="black" points="157.46,-137.46 148.93,-131.18 151.68,-141.41 157.46,-137.46"/>
<text text-anchor="middle" x="190.71" y="-152.8" font-family="Sans Not-Rotated 14" font-size="14.00"> &#160;&#160;&#160;&#160;&#160;&#160;&#160;&#160;</text>
</g>
<!-- end -->
<g id="node10" class="node">
<title>end</title>
<ellipse fill="#ea4126" stroke="black" cx="195.21" cy="-22" rx="18" ry="18"/>
<ellipse fill="none" stroke="black" cx="195.21" cy="-22" rx="22" ry="22"/>
</g>
<!-- Prepare&#45;&gt;end -->
<g id="edge11" class="edge">
<title>Prepare&#45;&gt;end</title>
<path fill="none" stroke="black" stroke-dasharray="5,2" d="M206.1,-181.93C213.79,-168.65 223.22,-149.44 226.21,-131 231.19,-100.35 227.24,-90.63 215.21,-62 213.67,-58.32 211.91,-54.5 210.1,-50.77"/>
<polygon fill="black" stroke="black" points="213.19,-49.13 205.57,-41.77 206.94,-52.27 213.19,-49.13"/>
<text text-anchor="middle" x="264.71" y="-109.3" font-family="Sans Not-Rotated 14" font-size="14.00"> &#160;&#160;&#160;&#160;&#160;&#160;&#160;&#160;&#160;&#160;&#160;&#160;&#160;&#160;&#160;</text>
</g>
<!-- Organize Ambulance&#45;&gt;end -->
<g id="edge13" class="edge">
<title>Organize Ambulance&#45;&gt;end</title>
<path fill="none" stroke="black" stroke-dasharray="5,2" d="M148.4,-94.84C156.74,-82.04 168.29,-64.31 177.83,-49.67"/>
<polygon fill="black" stroke="black" points="180.94,-51.31 183.47,-41.02 175.08,-47.49 180.94,-51.31"/>
<text text-anchor="middle" x="190.71" y="-65.8" font-family="Sans Not-Rotated 14" font-size="14.00"> &#160;&#160;&#160;&#160;&#160;&#160;&#160;&#160;</text>
</g>
<!-- Check&#45;&gt;Final Visit -->
<g id="edge6" class="edge">
<title>Check&#45;&gt;Final Visit</title>
<path fill="none" stroke="black" stroke-width="3.19" d="M128.73,-360.32C140.01,-354.56 152.48,-347.01 162.21,-338 169.61,-331.15 176.14,-322.32 181.39,-313.99"/>
<polygon fill="black" stroke="black" stroke-width="3.19" points="184.48,-315.65 186.58,-305.26 178.46,-312.07 184.48,-315.65"/>
<text text-anchor="middle" x="211.71" y="-326.8" font-family="Sans Not-Rotated 14" font-size="14.00"> &#160;&#160;&#160;&#160;&#160;&#160;&#160;&#160;&#160;&#160;&#160;&#160;&#160;&#160;&#160;</text>
</g>
<!-- Check&#45;&gt;Visit -->
<g id="edge1" class="edge">
<title>Check&#45;&gt;Visit</title>
<path fill="none" stroke="black" stroke-width="3.7" d="M69.34,-370.76C47.33,-367.36 18.79,-358.91 4.21,-338 -3.37,-327.12 4.53,-316.25 15.88,-307.44"/>
<polygon fill="black" stroke="black" stroke-width="3.7" points="17.93,-310.27 24.14,-301.69 13.93,-304.53 17.93,-310.27"/>
<text text-anchor="middle" x="40.71" y="-326.8" font-family="Sans Not-Rotated 14" font-size="14.00"> &#160;&#160;&#160;&#160;&#160;&#160;&#160;&#160;&#160;&#160;&#160;&#160;&#160;&#160;&#160;</text>
</g>
<!-- Check&#45;&gt;X&#45;Ray -->
<g id="edge4" class="edge">
<title>Check&#45;&gt;X&#45;Ray</title>
<path fill="none" stroke="black" stroke-width="3.11" d="M99.21,-392.18C99.21,-403.81 99.21,-419.42 99.21,-432.73"/>
<polygon fill="black" stroke="black" stroke-width="3.11" points="95.71,-432.8 99.21,-442.8 102.71,-432.8 95.71,-432.8"/>
<text text-anchor="middle" x="135.71" y="-413.8" font-family="Sans Not-Rotated 14" font-size="14.00"> &#160;&#160;&#160;&#160;&#160;&#160;&#160;&#160;&#160;&#160;&#160;&#160;&#160;&#160;&#160;</text>
</g>
<!-- Check&#45;&gt;Check -->
<g id="edge14" class="edge">
<title>Check&#45;&gt;Check</title>
<path fill="none" stroke="black" stroke-width="3.22" d="M128.9,-381.88C138.8,-381.88 146.71,-379.25 146.71,-374 146.71,-370.72 143.62,-368.46 138.89,-367.23"/>
<polygon fill="black" stroke="black" stroke-width="3.22" points="139.23,-363.75 128.9,-366.12 138.45,-370.71 139.23,-363.75"/>
<text text-anchor="middle" x="183.21" y="-370.3" font-family="Sans Not-Rotated 14" font-size="14.00"> &#160;&#160;&#160;&#160;&#160;&#160;&#160;&#160;&#160;&#160;&#160;&#160;&#160;&#160;&#160;</text>
</g>
<!-- start -->
<g id="node9" class="node">
<title>start</title>
<ellipse fill="#95d600" stroke="black" cx="143.21" cy="-731.3" rx="27.1" ry="27.1"/>
<text text-anchor="middle" x="143.21" y="-727.6" font-family="Sans Not-Rotated 14" font-size="14.00">start</text>
</g>
<!-- start&#45;&gt;Triage -->
<g id="edge5" class="edge">
<title>start&#45;&gt;Triage</title>
<path fill="none" stroke="black" stroke-dasharray="5,2" d="M143.21,-703.78C143.21,-691.1 143.21,-675.93 143.21,-663.17"/>
<polygon fill="black" stroke="black" points="146.71,-663.12 143.21,-653.12 139.71,-663.12 146.71,-663.12"/>
<text text-anchor="middle" x="199.71" y="-674.8" font-family="Sans Not-Rotated 14" font-size="14.00"> &#160;&#160;&#160;&#160;&#160;&#160;&#160;&#160;&#160;&#160;&#160;&#160;&#160;&#160;&#160;&#160;&#160;&#160;&#160;&#160;&#160;&#160;&#160;&#160;</text>
</g>
</g>
</svg>
