<?xml version="1.0" encoding="UTF-8" standalone="no"?>
<!DOCTYPE svg PUBLIC "-//W3C//DTD SVG 1.1//EN"
 "http://www.w3.org/Graphics/SVG/1.1/DTD/svg11.dtd">
<!-- Generated by graphviz version 3.0.0 (20220226.1711)
 -->
<!-- Pages: 1 -->
<svg width="501pt" height="680pt"
 viewBox="0.00 0.00 500.79 679.60" xmlns="http://www.w3.org/2000/svg" xmlns:xlink="http://www.w3.org/1999/xlink">
<g id="graph0" class="graph" transform="scale(1 1) rotate(0) translate(4 675.6)">
<polygon fill="white" stroke="transparent" points="-4,4 -4,-675.6 496.79,-675.6 496.79,4 -4,4"/>
<!-- Triage -->
<g id="node1" class="node">
<title>Triage</title>
<polygon fill="#a09dde" stroke="black" points="224.79,-566 164.79,-566 164.79,-530 224.79,-530 224.79,-566"/>
<text text-anchor="middle" x="194.79" y="-544.3" font-family="Sans Not-Rotated 14" font-size="14.00">Triage</text>
</g>
<!-- Register -->
<g id="node4" class="node">
<title>Register</title>
<polygon fill="#a09dde" stroke="black" points="231.79,-479 157.79,-479 157.79,-443 231.79,-443 231.79,-479"/>
<text text-anchor="middle" x="194.79" y="-457.3" font-family="Sans Not-Rotated 14" font-size="14.00">Register</text>
</g>
<!-- Triage&#45;&gt;Register -->
<g id="edge7" class="edge">
<title>Triage&#45;&gt;Register</title>
<path fill="none" stroke="black" stroke-width="5" d="M194.79,-529.8C194.79,-518.16 194.79,-502.55 194.79,-489.24"/>
<polygon fill="black" stroke="black" stroke-width="5" points="199.16,-489.18 194.79,-479.18 190.41,-489.18 199.16,-489.18"/>
<text text-anchor="middle" x="251.29" y="-500.8" font-family="Sans Not-Rotated 14" font-size="14.00"> &#160;&#160;&#160;&#160;&#160;&#160;&#160;&#160;&#160;&#160;&#160;&#160;&#160;&#160;&#160;&#160;&#160;&#160;&#160;&#160;&#160;&#160;&#160;&#160;</text>
</g>
<!-- Final Visit -->
<g id="node2" class="node">
<title>Final Visit</title>
<polygon fill="#a09dde" stroke="black" points="428.79,-305 344.79,-305 344.79,-269 428.79,-269 428.79,-305"/>
<text text-anchor="middle" x="386.79" y="-283.3" font-family="Sans Not-Rotated 14" font-size="14.00">Final Visit</text>
</g>
<!-- Prepare -->
<g id="node6" class="node">
<title>Prepare</title>
<polygon fill="#a09dde" stroke="black" points="422.29,-218 351.29,-218 351.29,-182 422.29,-182 422.29,-218"/>
<text text-anchor="middle" x="386.79" y="-196.3" font-family="Sans Not-Rotated 14" font-size="14.00">Prepare</text>
</g>
<!-- Final Visit&#45;&gt;Prepare -->
<g id="edge8" class="edge">
<title>Final Visit&#45;&gt;Prepare</title>
<path fill="none" stroke="black" stroke-width="3.4" d="M386.79,-268.8C386.79,-257.16 386.79,-241.55 386.79,-228.24"/>
<polygon fill="black" stroke="black" stroke-width="3.4" points="390.29,-228.18 386.79,-218.18 383.29,-228.18 390.29,-228.18"/>
<text text-anchor="middle" x="423.29" y="-239.8" font-family="Sans Not-Rotated 14" font-size="14.00"> &#160;&#160;&#160;&#160;&#160;&#160;&#160;&#160;&#160;&#160;&#160;&#160;&#160;&#160;&#160;</text>
</g>
<!-- Visit -->
<g id="node3" class="node">
<title>Visit</title>
<polygon fill="#a09dde" stroke="black" points="77.79,-305 23.79,-305 23.79,-269 77.79,-269 77.79,-305"/>
<text text-anchor="middle" x="50.79" y="-283.3" font-family="Sans Not-Rotated 14" font-size="14.00">Visit</text>
</g>
<!-- Check -->
<g id="node8" class="node">
<title>Check</title>
<polygon fill="#1d2559" stroke="black" points="224.29,-392 165.29,-392 165.29,-356 224.29,-356 224.29,-392"/>
<text text-anchor="middle" x="194.79" y="-370.3" font-family="Sans Not-Rotated 14" font-size="14.00" fill="white">Check</text>
</g>
<!-- Visit&#45;&gt;Check -->
<g id="edge2" class="edge">
<title>Visit&#45;&gt;Check</title>
<path fill="none" stroke="black" stroke-width="3.33" d="M68.7,-305.02C80.34,-315.46 96.2,-328.59 111.79,-338 125.39,-346.2 141.26,-353.41 155.46,-359.11"/>
<polygon fill="black" stroke="black" stroke-width="3.33" points="154.39,-362.45 164.98,-362.82 156.93,-355.93 154.39,-362.45"/>
<text text-anchor="middle" x="148.29" y="-326.8" font-family="Sans Not-Rotated 14" font-size="14.00"> &#160;&#160;&#160;&#160;&#160;&#160;&#160;&#160;&#160;&#160;&#160;&#160;&#160;&#160;&#160;</text>
</g>
<!-- Register&#45;&gt;Check -->
<g id="edge11" class="edge">
<title>Register&#45;&gt;Check</title>
<path fill="none" stroke="black" stroke-width="2.9" d="M194.79,-442.8C194.79,-431.16 194.79,-415.55 194.79,-402.24"/>
<polygon fill="black" stroke="black" stroke-width="2.9" points="198.29,-402.18 194.79,-392.18 191.29,-402.18 198.29,-402.18"/>
<text text-anchor="middle" x="231.29" y="-413.8" font-family="Sans Not-Rotated 14" font-size="14.00"> &#160;&#160;&#160;&#160;&#160;&#160;&#160;&#160;&#160;&#160;&#160;&#160;&#160;&#160;&#160;</text>
</g>
<!-- X&#45;Ray -->
<g id="node5" class="node">
<title>X&#45;Ray</title>
<polygon fill="#a09dde" stroke="black" points="272.29,-305 213.29,-305 213.29,-269 272.29,-269 272.29,-305"/>
<text text-anchor="middle" x="242.79" y="-283.3" font-family="Sans Not-Rotated 14" font-size="14.00">X&#45;Ray</text>
</g>
<!-- X&#45;Ray&#45;&gt;Check -->
<g id="edge3" class="edge">
<title>X&#45;Ray&#45;&gt;Check</title>
<path fill="none" stroke="black" stroke-width="3.77" d="M260.81,-305.06C268.99,-314.92 275.49,-327.42 268.79,-338 260.96,-350.37 247.45,-358.45 234.1,-363.69"/>
<polygon fill="black" stroke="black" stroke-width="3.77" points="232.79,-360.44 224.49,-367.03 235.09,-367.05 232.79,-360.44"/>
<text text-anchor="middle" x="308.29" y="-326.8" font-family="Sans Not-Rotated 14" font-size="14.00"> &#160;&#160;&#160;&#160;&#160;&#160;&#160;&#160;&#160;&#160;&#160;&#160;&#160;&#160;&#160;</text>
</g>
<!-- Organize Ambulance -->
<g id="node7" class="node">
<title>Organize Ambulance</title>
<polygon fill="#ffffff" stroke="black" points="408.79,-131 248.79,-131 248.79,-95 408.79,-95 408.79,-131"/>
<text text-anchor="middle" x="328.79" y="-109.3" font-family="Sans Not-Rotated 14" font-size="14.00">Organize Ambulance</text>
</g>
<!-- Prepare&#45;&gt;Organize Ambulance -->
<g id="edge9" class="edge">
<title>Prepare&#45;&gt;Organize Ambulance</title>
<path fill="none" stroke="black" d="M375.05,-181.8C366.8,-169.7 355.61,-153.3 346.3,-139.67"/>
<polygon fill="black" stroke="black" points="349.04,-137.46 340.51,-131.18 343.25,-141.41 349.04,-137.46"/>
<text text-anchor="middle" x="382.29" y="-152.8" font-family="Sans Not-Rotated 14" font-size="14.00"> &#160;&#160;&#160;&#160;&#160;&#160;&#160;&#160;</text>
</g>
<!-- end -->
<g id="node10" class="node">
<title>end</title>
<ellipse fill="#ea4126" stroke="black" cx="386.79" cy="-22" rx="18" ry="18"/>
<ellipse fill="none" stroke="black" cx="386.79" cy="-22" rx="22" ry="22"/>
</g>
<!-- Prepare&#45;&gt;end -->
<g id="edge10" class="edge">
<title>Prepare&#45;&gt;end</title>
<path fill="none" stroke="black" stroke-dasharray="5,2" d="M397.68,-181.93C405.36,-168.65 414.8,-149.44 417.79,-131 422.76,-100.35 418.82,-90.63 406.79,-62 405.24,-58.32 403.49,-54.5 401.68,-50.77"/>
<polygon fill="black" stroke="black" points="404.77,-49.13 397.15,-41.77 398.52,-52.27 404.77,-49.13"/>
<text text-anchor="middle" x="456.29" y="-109.3" font-family="Sans Not-Rotated 14" font-size="14.00"> &#160;&#160;&#160;&#160;&#160;&#160;&#160;&#160;&#160;&#160;&#160;&#160;&#160;&#160;&#160;</text>
</g>
<!-- Organize Ambulance&#45;&gt;end -->
<g id="edge12" class="edge">
<title>Organize Ambulance&#45;&gt;end</title>
<path fill="none" stroke="black" stroke-dasharray="5,2" d="M339.97,-94.84C348.31,-82.04 359.87,-64.31 369.41,-49.67"/>
<polygon fill="black" stroke="black" points="372.52,-51.31 375.04,-41.02 366.65,-47.49 372.52,-51.31"/>
<text text-anchor="middle" x="382.29" y="-65.8" font-family="Sans Not-Rotated 14" font-size="14.00"> &#160;&#160;&#160;&#160;&#160;&#160;&#160;&#160;</text>
</g>
<!-- Check&#45;&gt;Final Visit -->
<g id="edge6" class="edge">
<title>Check&#45;&gt;Final Visit</title>
<path fill="none" stroke="black" stroke-width="3.19" d="M224.32,-372.2C257.13,-370.04 310.53,-362.64 348.79,-338 358.14,-331.98 366.07,-322.82 372.23,-313.97"/>
<polygon fill="black" stroke="black" stroke-width="3.19" points="375.3,-315.67 377.79,-305.37 369.42,-311.87 375.3,-315.67"/>
<text text-anchor="middle" x="402.29" y="-326.8" font-family="Sans Not-Rotated 14" font-size="14.00"> &#160;&#160;&#160;&#160;&#160;&#160;&#160;&#160;&#160;&#160;&#160;&#160;&#160;&#160;&#160;</text>
</g>
<!-- Check&#45;&gt;Visit -->
<g id="edge1" class="edge">
<title>Check&#45;&gt;Visit</title>
<path fill="none" stroke="black" stroke-width="3.7" d="M165.04,-372.02C116.58,-369.73 23.97,-362.21 3.79,-338 -4.82,-327.66 3.31,-316.72 15.09,-307.71"/>
<polygon fill="black" stroke="black" stroke-width="3.7" points="17.41,-310.36 23.67,-301.81 13.44,-304.59 17.41,-310.36"/>
<text text-anchor="middle" x="40.29" y="-326.8" font-family="Sans Not-Rotated 14" font-size="14.00"> &#160;&#160;&#160;&#160;&#160;&#160;&#160;&#160;&#160;&#160;&#160;&#160;&#160;&#160;&#160;</text>
</g>
<!-- Check&#45;&gt;X&#45;Ray -->
<g id="edge4" class="edge">
<title>Check&#45;&gt;X&#45;Ray</title>
<path fill="none" stroke="black" stroke-width="3.11" d="M189.5,-355.86C187.38,-345.74 186.52,-333 191.79,-323 194.98,-316.94 199.75,-311.72 205.12,-307.3"/>
<polygon fill="black" stroke="black" stroke-width="3.11" points="207.23,-310.1 213.29,-301.41 203.13,-304.42 207.23,-310.1"/>
<text text-anchor="middle" x="228.29" y="-326.8" font-family="Sans Not-Rotated 14" font-size="14.00"> &#160;&#160;&#160;&#160;&#160;&#160;&#160;&#160;&#160;&#160;&#160;&#160;&#160;&#160;&#160;</text>
</g>
<!-- Check&#45;&gt;Check -->
<g id="edge13" class="edge">
<title>Check&#45;&gt;Check</title>
<path fill="none" stroke="black" stroke-width="3.22" d="M224.48,-381.88C234.37,-381.88 242.29,-379.25 242.29,-374 242.29,-370.72 239.2,-368.46 234.46,-367.23"/>
<polygon fill="black" stroke="black" stroke-width="3.22" points="234.8,-363.75 224.48,-366.12 234.03,-370.71 234.8,-363.75"/>
<text text-anchor="middle" x="278.79" y="-370.3" font-family="Sans Not-Rotated 14" font-size="14.00"> &#160;&#160;&#160;&#160;&#160;&#160;&#160;&#160;&#160;&#160;&#160;&#160;&#160;&#160;&#160;</text>
</g>
<!-- start -->
<g id="node9" class="node">
<title>start</title>
<ellipse fill="#95d600" stroke="black" cx="194.79" cy="-644.3" rx="27.1" ry="27.1"/>
<text text-anchor="middle" x="194.79" y="-640.6" font-family="Sans Not-Rotated 14" font-size="14.00">start</text>
</g>
<!-- start&#45;&gt;Triage -->
<g id="edge5" class="edge">
<title>start&#45;&gt;Triage</title>
<path fill="none" stroke="black" stroke-dasharray="5,2" d="M194.79,-616.78C194.79,-604.1 194.79,-588.93 194.79,-576.17"/>
<polygon fill="black" stroke="black" points="198.29,-576.12 194.79,-566.12 191.29,-576.12 198.29,-576.12"/>
<text text-anchor="middle" x="251.29" y="-587.8" font-family="Sans Not-Rotated 14" font-size="14.00"> &#160;&#160;&#160;&#160;&#160;&#160;&#160;&#160;&#160;&#160;&#160;&#160;&#160;&#160;&#160;&#160;&#160;&#160;&#160;&#160;&#160;&#160;&#160;&#160;</text>
</g>
</g>
</svg>
