<?xml version="1.0" encoding="UTF-8" standalone="no"?>
<!DOCTYPE svg PUBLIC "-//W3C//DTD SVG 1.1//EN"
 "http://www.w3.org/Graphics/SVG/1.1/DTD/svg11.dtd">
<!-- Generated by graphviz version 3.0.0 (20220226.1711)
 -->
<!-- Pages: 1 -->
<svg width="393pt" height="854pt"
 viewBox="0.00 0.00 392.92 853.60" xmlns="http://www.w3.org/2000/svg" xmlns:xlink="http://www.w3.org/1999/xlink">
<g id="graph0" class="graph" transform="scale(1 1) rotate(0) translate(4 849.6)">
<polygon fill="white" stroke="transparent" points="-4,4 -4,-849.6 388.92,-849.6 388.92,4 -4,4"/>
<!-- Triage -->
<g id="node1" class="node">
<title>Triage</title>
<polygon fill="#a09dde" stroke="black" points="207.92,-740 147.92,-740 147.92,-704 207.92,-704 207.92,-740"/>
<text text-anchor="middle" x="177.92" y="-718.3" font-family="Sans Not-Rotated 14" font-size="14.00">Triage</text>
</g>
<!-- Register -->
<g id="node4" class="node">
<title>Register</title>
<polygon fill="#a09dde" stroke="black" points="214.92,-653 140.92,-653 140.92,-617 214.92,-617 214.92,-653"/>
<text text-anchor="middle" x="177.92" y="-631.3" font-family="Sans Not-Rotated 14" font-size="14.00">Register</text>
</g>
<!-- Triage&#45;&gt;Register -->
<g id="edge8" class="edge">
<title>Triage&#45;&gt;Register</title>
<path fill="none" stroke="black" stroke-width="5" d="M177.92,-703.8C177.92,-692.16 177.92,-676.55 177.92,-663.24"/>
<polygon fill="black" stroke="black" stroke-width="5" points="182.3,-663.18 177.92,-653.18 173.55,-663.18 182.3,-663.18"/>
<text text-anchor="middle" x="234.42" y="-674.8" font-family="Sans Not-Rotated 14" font-size="14.00"> &#160;&#160;&#160;&#160;&#160;&#160;&#160;&#160;&#160;&#160;&#160;&#160;&#160;&#160;&#160;&#160;&#160;&#160;&#160;&#160;&#160;&#160;&#160;&#160;</text>
</g>
<!-- Final Visit -->
<g id="node2" class="node">
<title>Final Visit</title>
<polygon fill="#a09dde" stroke="black" points="174.92,-305 90.92,-305 90.92,-269 174.92,-269 174.92,-305"/>
<text text-anchor="middle" x="132.92" y="-283.3" font-family="Sans Not-Rotated 14" font-size="14.00">Final Visit</text>
</g>
<!-- Prepare -->
<g id="node6" class="node">
<title>Prepare</title>
<polygon fill="#a09dde" stroke="black" points="245.42,-218 174.42,-218 174.42,-182 245.42,-182 245.42,-218"/>
<text text-anchor="middle" x="209.92" y="-196.3" font-family="Sans Not-Rotated 14" font-size="14.00">Prepare</text>
</g>
<!-- Final Visit&#45;&gt;Prepare -->
<g id="edge10" class="edge">
<title>Final Visit&#45;&gt;Prepare</title>
<path fill="none" stroke="black" stroke-width="3.4" d="M148.5,-268.8C159.67,-256.47 174.88,-239.68 187.37,-225.89"/>
<polygon fill="black" stroke="black" stroke-width="3.4" points="190.24,-227.94 194.36,-218.18 185.05,-223.24 190.24,-227.94"/>
<text text-anchor="middle" x="213.42" y="-239.8" font-family="Sans Not-Rotated 14" font-size="14.00"> &#160;&#160;&#160;&#160;&#160;&#160;&#160;&#160;&#160;&#160;&#160;&#160;&#160;&#160;&#160;</text>
</g>
<!-- Check -->
<g id="node8" class="node">
<title>Check</title>
<polygon fill="#1d2559" stroke="black" points="163.42,-479 104.42,-479 104.42,-443 163.42,-443 163.42,-479"/>
<text text-anchor="middle" x="133.92" y="-457.3" font-family="Sans Not-Rotated 14" font-size="14.00" fill="white">Check</text>
</g>
<!-- Final Visit&#45;&gt;Check -->
<g id="edge13" class="edge">
<title>Final Visit&#45;&gt;Check</title>
<path fill="none" stroke="black" stroke-width="2.4" d="M125.35,-305.21C119.84,-318.72 112.85,-338.17 109.92,-356 107.32,-371.79 107.22,-376.23 109.92,-392 112.34,-406.12 117.39,-421.2 122.24,-433.56"/>
<polygon fill="black" stroke="black" stroke-width="2.4" points="119,-434.89 126.03,-442.83 125.48,-432.24 119,-434.89"/>
<text text-anchor="middle" x="146.42" y="-370.3" font-family="Sans Not-Rotated 14" font-size="14.00"> &#160;&#160;&#160;&#160;&#160;&#160;&#160;&#160;&#160;&#160;&#160;&#160;&#160;&#160;&#160;</text>
</g>
<!-- Visit -->
<g id="node3" class="node">
<title>Visit</title>
<polygon fill="#a09dde" stroke="black" points="245.92,-392 191.92,-392 191.92,-356 245.92,-356 245.92,-392"/>
<text text-anchor="middle" x="218.92" y="-370.3" font-family="Sans Not-Rotated 14" font-size="14.00">Visit</text>
</g>
<!-- Visit&#45;&gt;Final Visit -->
<g id="edge7" class="edge">
<title>Visit&#45;&gt;Final Visit</title>
<path fill="none" stroke="black" stroke-width="2.28" d="M201.52,-355.8C188.93,-343.36 171.74,-326.36 157.71,-312.5"/>
<polygon fill="black" stroke="black" stroke-width="2.28" points="159.87,-309.72 150.3,-305.18 154.95,-314.69 159.87,-309.72"/>
<text text-anchor="middle" x="218.42" y="-326.8" font-family="Sans Not-Rotated 14" font-size="14.00"> &#160;&#160;&#160;&#160;&#160;&#160;&#160;&#160;&#160;&#160;&#160;&#160;&#160;&#160;&#160;</text>
</g>
<!-- Visit&#45;&gt;Check -->
<g id="edge2" class="edge">
<title>Visit&#45;&gt;Check</title>
<path fill="none" stroke="black" stroke-width="3.33" d="M218.82,-392.37C217.93,-402.82 215.23,-415.82 207.92,-425 199.1,-436.07 185.94,-443.83 173.15,-449.17"/>
<polygon fill="black" stroke="black" stroke-width="3.33" points="171.65,-446 163.52,-452.8 174.12,-452.55 171.65,-446"/>
<text text-anchor="middle" x="252.42" y="-413.8" font-family="Sans Not-Rotated 14" font-size="14.00"> &#160;&#160;&#160;&#160;&#160;&#160;&#160;&#160;&#160;&#160;&#160;&#160;&#160;&#160;&#160;</text>
</g>
<!-- X&#45;Ray -->
<g id="node5" class="node">
<title>X&#45;Ray</title>
<polygon fill="#a09dde" stroke="black" points="163.42,-566 104.42,-566 104.42,-530 163.42,-530 163.42,-566"/>
<text text-anchor="middle" x="133.92" y="-544.3" font-family="Sans Not-Rotated 14" font-size="14.00">X&#45;Ray</text>
</g>
<!-- Register&#45;&gt;X&#45;Ray -->
<g id="edge9" class="edge">
<title>Register&#45;&gt;X&#45;Ray</title>
<path fill="none" stroke="black" stroke-width="2.5" d="M149.68,-616.93C143.76,-611.93 138.3,-605.92 134.92,-599 131.52,-592.03 130.37,-583.83 130.32,-576.11"/>
<polygon fill="black" stroke="black" stroke-width="2.5" points="133.82,-576.2 130.81,-566.04 126.82,-575.86 133.82,-576.2"/>
<text text-anchor="middle" x="171.42" y="-587.8" font-family="Sans Not-Rotated 14" font-size="14.00"> &#160;&#160;&#160;&#160;&#160;&#160;&#160;&#160;&#160;&#160;&#160;&#160;&#160;&#160;&#160;</text>
</g>
<!-- Register&#45;&gt;Check -->
<g id="edge12" class="edge">
<title>Register&#45;&gt;Check</title>
<path fill="none" stroke="black" stroke-width="2.9" d="M196.88,-616.74C201.36,-611.52 205.53,-605.46 207.92,-599 223.65,-556.48 232.17,-535.3 207.92,-497 200.09,-484.63 186.58,-476.55 173.23,-471.31"/>
<polygon fill="black" stroke="black" stroke-width="2.9" points="174.22,-467.95 163.62,-467.97 171.92,-474.56 174.22,-467.95"/>
<text text-anchor="middle" x="260.42" y="-544.3" font-family="Sans Not-Rotated 14" font-size="14.00"> &#160;&#160;&#160;&#160;&#160;&#160;&#160;&#160;&#160;&#160;&#160;&#160;&#160;&#160;&#160;</text>
</g>
<!-- X&#45;Ray&#45;&gt;Check -->
<g id="edge3" class="edge">
<title>X&#45;Ray&#45;&gt;Check</title>
<path fill="none" stroke="black" stroke-width="3.77" d="M104.32,-542.93C70.06,-536.91 20.53,-523.37 38.92,-497 51.39,-479.12 74.08,-470.35 94.16,-466.06"/>
<polygon fill="black" stroke="black" stroke-width="3.77" points="94.84,-469.49 104.05,-464.24 93.58,-462.6 94.84,-469.49"/>
<text text-anchor="middle" x="75.42" y="-500.8" font-family="Sans Not-Rotated 14" font-size="14.00"> &#160;&#160;&#160;&#160;&#160;&#160;&#160;&#160;&#160;&#160;&#160;&#160;&#160;&#160;&#160;</text>
</g>
<!-- Organize Ambulance -->
<g id="node7" class="node">
<title>Organize Ambulance</title>
<polygon fill="#ffffff" stroke="black" points="231.92,-131 71.92,-131 71.92,-95 231.92,-95 231.92,-131"/>
<text text-anchor="middle" x="151.92" y="-109.3" font-family="Sans Not-Rotated 14" font-size="14.00">Organize Ambulance</text>
</g>
<!-- Prepare&#45;&gt;Organize Ambulance -->
<g id="edge11" class="edge">
<title>Prepare&#45;&gt;Organize Ambulance</title>
<path fill="none" stroke="black" d="M198.18,-181.8C189.93,-169.7 178.74,-153.3 169.43,-139.67"/>
<polygon fill="black" stroke="black" points="172.17,-137.46 163.64,-131.18 166.39,-141.41 172.17,-137.46"/>
<text text-anchor="middle" x="205.42" y="-152.8" font-family="Sans Not-Rotated 14" font-size="14.00"> &#160;&#160;&#160;&#160;&#160;&#160;&#160;&#160;</text>
</g>
<!-- end -->
<g id="node10" class="node">
<title>end</title>
<ellipse fill="#ea4126" stroke="black" cx="209.92" cy="-22" rx="18" ry="18"/>
<ellipse fill="none" stroke="black" cx="209.92" cy="-22" rx="22" ry="22"/>
</g>
<!-- Prepare&#45;&gt;end -->
<g id="edge14" class="edge">
<title>Prepare&#45;&gt;end</title>
<path fill="none" stroke="black" stroke-dasharray="5,2" d="M220.81,-181.93C228.49,-168.65 237.93,-149.44 240.92,-131 245.89,-100.35 241.95,-90.63 229.92,-62 228.37,-58.32 226.62,-54.5 224.81,-50.77"/>
<polygon fill="black" stroke="black" points="227.9,-49.13 220.28,-41.77 221.65,-52.27 227.9,-49.13"/>
<text text-anchor="middle" x="279.42" y="-109.3" font-family="Sans Not-Rotated 14" font-size="14.00"> &#160;&#160;&#160;&#160;&#160;&#160;&#160;&#160;&#160;&#160;&#160;&#160;&#160;&#160;&#160;</text>
</g>
<!-- Organize Ambulance&#45;&gt;end -->
<g id="edge15" class="edge">
<title>Organize Ambulance&#45;&gt;end</title>
<path fill="none" stroke="black" stroke-dasharray="5,2" d="M163.1,-94.84C171.44,-82.04 183,-64.31 192.54,-49.67"/>
<polygon fill="black" stroke="black" points="195.65,-51.31 198.17,-41.02 189.78,-47.49 195.65,-51.31"/>
<text text-anchor="middle" x="205.42" y="-65.8" font-family="Sans Not-Rotated 14" font-size="14.00"> &#160;&#160;&#160;&#160;&#160;&#160;&#160;&#160;</text>
</g>
<!-- Check&#45;&gt;Final Visit -->
<g id="edge6" class="edge">
<title>Check&#45;&gt;Final Visit</title>
<path fill="none" stroke="black" stroke-width="3.19" d="M104.16,-453.59C73.45,-445.22 27.12,-427.26 5.92,-392 -17.31,-353.35 36.7,-322.74 81.34,-305.01"/>
<polygon fill="black" stroke="black" stroke-width="3.19" points="82.61,-308.27 90.7,-301.42 80.11,-301.73 82.61,-308.27"/>
<text text-anchor="middle" x="42.42" y="-370.3" font-family="Sans Not-Rotated 14" font-size="14.00"> &#160;&#160;&#160;&#160;&#160;&#160;&#160;&#160;&#160;&#160;&#160;&#160;&#160;&#160;&#160;</text>
</g>
<!-- Check&#45;&gt;Visit -->
<g id="edge1" class="edge">
<title>Check&#45;&gt;Visit</title>
<path fill="none" stroke="black" stroke-width="3.7" d="M129.86,-442.84C128.4,-432.47 128.47,-419.47 134.92,-410 135.02,-409.86 159.51,-399.66 182.02,-390.31"/>
<polygon fill="black" stroke="black" stroke-width="3.7" points="183.57,-393.46 191.46,-386.39 180.89,-386.99 183.57,-393.46"/>
<text text-anchor="middle" x="171.42" y="-413.8" font-family="Sans Not-Rotated 14" font-size="14.00"> &#160;&#160;&#160;&#160;&#160;&#160;&#160;&#160;&#160;&#160;&#160;&#160;&#160;&#160;&#160;</text>
</g>
<!-- Check&#45;&gt;X&#45;Ray -->
<g id="edge4" class="edge">
<title>Check&#45;&gt;X&#45;Ray</title>
<path fill="none" stroke="black" stroke-width="3.11" d="M133.92,-479.18C133.92,-490.81 133.92,-506.42 133.92,-519.73"/>
<polygon fill="black" stroke="black" stroke-width="3.11" points="130.42,-519.8 133.92,-529.8 137.42,-519.8 130.42,-519.8"/>
<text text-anchor="middle" x="170.42" y="-500.8" font-family="Sans Not-Rotated 14" font-size="14.00"> &#160;&#160;&#160;&#160;&#160;&#160;&#160;&#160;&#160;&#160;&#160;&#160;&#160;&#160;&#160;</text>
</g>
<!-- Check&#45;&gt;Prepare -->
<g id="edge16" class="edge">
<title>Check&#45;&gt;Prepare</title>
<path fill="none" stroke="black" stroke-width="2.4" d="M163.43,-457.82C204.85,-454.08 276.98,-444.83 292.92,-425 308.12,-406.09 407.93,-481.84 253.92,-236 251.46,-232.08 248.41,-228.41 245.06,-225.03"/>
<polygon fill="black" stroke="black" stroke-width="2.4" points="247.16,-222.21 237.38,-218.13 242.47,-227.42 247.16,-222.21"/>
<text text-anchor="middle" x="348.42" y="-326.8" font-family="Sans Not-Rotated 14" font-size="14.00"> &#160;&#160;&#160;&#160;&#160;&#160;&#160;&#160;&#160;&#160;&#160;&#160;&#160;&#160;&#160;</text>
</g>
<!-- Check&#45;&gt;Check -->
<g id="edge17" class="edge">
<title>Check&#45;&gt;Check</title>
<path fill="none" stroke="black" stroke-width="3.22" d="M163.61,-468.88C173.5,-468.88 181.42,-466.25 181.42,-461 181.42,-457.72 178.33,-455.46 173.59,-454.23"/>
<polygon fill="black" stroke="black" stroke-width="3.22" points="173.93,-450.75 163.61,-453.12 173.16,-457.71 173.93,-450.75"/>
<text text-anchor="middle" x="217.92" y="-457.3" font-family="Sans Not-Rotated 14" font-size="14.00"> &#160;&#160;&#160;&#160;&#160;&#160;&#160;&#160;&#160;&#160;&#160;&#160;&#160;&#160;&#160;</text>
</g>
<!-- start -->
<g id="node9" class="node">
<title>start</title>
<ellipse fill="#95d600" stroke="black" cx="177.92" cy="-818.3" rx="27.1" ry="27.1"/>
<text text-anchor="middle" x="177.92" y="-814.6" font-family="Sans Not-Rotated 14" font-size="14.00">start</text>
</g>
<!-- start&#45;&gt;Triage -->
<g id="edge5" class="edge">
<title>start&#45;&gt;Triage</title>
<path fill="none" stroke="black" stroke-dasharray="5,2" d="M177.92,-790.78C177.92,-778.1 177.92,-762.93 177.92,-750.17"/>
<polygon fill="black" stroke="black" points="181.42,-750.12 177.92,-740.12 174.42,-750.12 181.42,-750.12"/>
<text text-anchor="middle" x="234.42" y="-761.8" font-family="Sans Not-Rotated 14" font-size="14.00"> &#160;&#160;&#160;&#160;&#160;&#160;&#160;&#160;&#160;&#160;&#160;&#160;&#160;&#160;&#160;&#160;&#160;&#160;&#160;&#160;&#160;&#160;&#160;&#160;</text>
</g>
</g>
</svg>
