<?xml version="1.0" encoding="UTF-8" standalone="no"?>
<!DOCTYPE svg PUBLIC "-//W3C//DTD SVG 1.1//EN"
 "http://www.w3.org/Graphics/SVG/1.1/DTD/svg11.dtd">
<!-- Generated by graphviz version 3.0.0 (20220226.1711)
 -->
<!-- Pages: 1 -->
<svg width="584pt" height="854pt"
 viewBox="0.00 0.00 583.71 853.60" xmlns="http://www.w3.org/2000/svg" xmlns:xlink="http://www.w3.org/1999/xlink">
<g id="graph0" class="graph" transform="scale(1 1) rotate(0) translate(4 849.6)">
<polygon fill="white" stroke="transparent" points="-4,4 -4,-849.6 579.71,-849.6 579.71,4 -4,4"/>
<!-- Triage -->
<g id="node1" class="node">
<title>Triage</title>
<polygon fill="#a09dde" stroke="black" points="304.71,-740 244.71,-740 244.71,-704 304.71,-704 304.71,-740"/>
<text text-anchor="middle" x="274.71" y="-718.3" font-family="Sans Not-Rotated 14" font-size="14.00">Triage</text>
</g>
<!-- Register -->
<g id="node4" class="node">
<title>Register</title>
<polygon fill="#a09dde" stroke="black" points="311.71,-653 237.71,-653 237.71,-617 311.71,-617 311.71,-653"/>
<text text-anchor="middle" x="274.71" y="-631.3" font-family="Sans Not-Rotated 14" font-size="14.00">Register</text>
</g>
<!-- Triage&#45;&gt;Register -->
<g id="edge8" class="edge">
<title>Triage&#45;&gt;Register</title>
<path fill="none" stroke="black" stroke-width="5" d="M274.71,-703.8C274.71,-692.16 274.71,-676.55 274.71,-663.24"/>
<polygon fill="black" stroke="black" stroke-width="5" points="279.09,-663.18 274.71,-653.18 270.34,-663.18 279.09,-663.18"/>
<text text-anchor="middle" x="331.21" y="-674.8" font-family="Sans Not-Rotated 14" font-size="14.00"> &#160;&#160;&#160;&#160;&#160;&#160;&#160;&#160;&#160;&#160;&#160;&#160;&#160;&#160;&#160;&#160;&#160;&#160;&#160;&#160;&#160;&#160;&#160;&#160;</text>
</g>
<!-- Final Visit -->
<g id="node2" class="node">
<title>Final Visit</title>
<polygon fill="#a09dde" stroke="black" points="175.71,-305 91.71,-305 91.71,-269 175.71,-269 175.71,-305"/>
<text text-anchor="middle" x="133.71" y="-283.3" font-family="Sans Not-Rotated 14" font-size="14.00">Final Visit</text>
</g>
<!-- Prepare -->
<g id="node6" class="node">
<title>Prepare</title>
<polygon fill="#a09dde" stroke="black" points="354.21,-218 283.21,-218 283.21,-182 354.21,-182 354.21,-218"/>
<text text-anchor="middle" x="318.71" y="-196.3" font-family="Sans Not-Rotated 14" font-size="14.00">Prepare</text>
</g>
<!-- Final Visit&#45;&gt;Prepare -->
<g id="edge10" class="edge">
<title>Final Visit&#45;&gt;Prepare</title>
<path fill="none" stroke="black" stroke-width="3.4" d="M165.58,-268.83C184.58,-258.82 209.29,-246.21 231.71,-236 245.07,-229.92 259.8,-223.79 273.29,-218.38"/>
<polygon fill="black" stroke="black" stroke-width="3.4" points="274.85,-221.53 282.85,-214.59 272.27,-215.03 274.85,-221.53"/>
<text text-anchor="middle" x="268.21" y="-239.8" font-family="Sans Not-Rotated 14" font-size="14.00"> &#160;&#160;&#160;&#160;&#160;&#160;&#160;&#160;&#160;&#160;&#160;&#160;&#160;&#160;&#160;</text>
</g>
<!-- Check -->
<g id="node8" class="node">
<title>Check</title>
<polygon fill="#1d2559" stroke="black" points="260.21,-479 201.21,-479 201.21,-443 260.21,-443 260.21,-479"/>
<text text-anchor="middle" x="230.71" y="-457.3" font-family="Sans Not-Rotated 14" font-size="14.00" fill="white">Check</text>
</g>
<!-- Final Visit&#45;&gt;Check -->
<g id="edge13" class="edge">
<title>Final Visit&#45;&gt;Check</title>
<path fill="none" stroke="black" stroke-width="2.4" d="M124.92,-305.04C115.4,-325.73 102.6,-361.63 110.71,-392 115.08,-408.35 116.67,-414.21 129.71,-425 147.21,-439.47 171.05,-448.1 191.17,-453.17"/>
<polygon fill="black" stroke="black" stroke-width="2.4" points="190.47,-456.6 201,-455.45 192.05,-449.78 190.47,-456.6"/>
<text text-anchor="middle" x="147.21" y="-370.3" font-family="Sans Not-Rotated 14" font-size="14.00"> &#160;&#160;&#160;&#160;&#160;&#160;&#160;&#160;&#160;&#160;&#160;&#160;&#160;&#160;&#160;</text>
</g>
<!-- Visit -->
<g id="node3" class="node">
<title>Visit</title>
<polygon fill="#a09dde" stroke="black" points="246.71,-392 192.71,-392 192.71,-356 246.71,-356 246.71,-392"/>
<text text-anchor="middle" x="219.71" y="-370.3" font-family="Sans Not-Rotated 14" font-size="14.00">Visit</text>
</g>
<!-- Visit&#45;&gt;Final Visit -->
<g id="edge7" class="edge">
<title>Visit&#45;&gt;Final Visit</title>
<path fill="none" stroke="black" stroke-width="2.28" d="M202.31,-355.8C189.72,-343.36 172.53,-326.36 158.51,-312.5"/>
<polygon fill="black" stroke="black" stroke-width="2.28" points="160.66,-309.72 151.09,-305.18 155.74,-314.69 160.66,-309.72"/>
<text text-anchor="middle" x="219.21" y="-326.8" font-family="Sans Not-Rotated 14" font-size="14.00"> &#160;&#160;&#160;&#160;&#160;&#160;&#160;&#160;&#160;&#160;&#160;&#160;&#160;&#160;&#160;</text>
</g>
<!-- Visit&#45;&gt;Check -->
<g id="edge2" class="edge">
<title>Visit&#45;&gt;Check</title>
<path fill="none" stroke="black" stroke-width="3.33" d="M221.94,-392.18C223.44,-403.81 225.46,-419.42 227.19,-432.73"/>
<polygon fill="black" stroke="black" stroke-width="3.33" points="223.73,-433.33 228.49,-442.8 230.68,-432.43 223.73,-433.33"/>
<text text-anchor="middle" x="263.21" y="-413.8" font-family="Sans Not-Rotated 14" font-size="14.00"> &#160;&#160;&#160;&#160;&#160;&#160;&#160;&#160;&#160;&#160;&#160;&#160;&#160;&#160;&#160;</text>
</g>
<!-- X&#45;Ray -->
<g id="node5" class="node">
<title>X&#45;Ray</title>
<polygon fill="#a09dde" stroke="black" points="260.21,-566 201.21,-566 201.21,-530 260.21,-530 260.21,-566"/>
<text text-anchor="middle" x="230.71" y="-544.3" font-family="Sans Not-Rotated 14" font-size="14.00">X&#45;Ray</text>
</g>
<!-- Register&#45;&gt;X&#45;Ray -->
<g id="edge9" class="edge">
<title>Register&#45;&gt;X&#45;Ray</title>
<path fill="none" stroke="black" stroke-width="2.5" d="M246.47,-616.93C240.55,-611.93 235.09,-605.92 231.71,-599 228.31,-592.03 227.16,-583.83 227.11,-576.11"/>
<polygon fill="black" stroke="black" stroke-width="2.5" points="230.61,-576.2 227.61,-566.04 223.62,-575.86 230.61,-576.2"/>
<text text-anchor="middle" x="268.21" y="-587.8" font-family="Sans Not-Rotated 14" font-size="14.00"> &#160;&#160;&#160;&#160;&#160;&#160;&#160;&#160;&#160;&#160;&#160;&#160;&#160;&#160;&#160;</text>
</g>
<!-- Register&#45;&gt;Check -->
<g id="edge12" class="edge">
<title>Register&#45;&gt;Check</title>
<path fill="none" stroke="black" stroke-width="2.9" d="M293.67,-616.74C298.16,-611.52 302.33,-605.46 304.71,-599 320.44,-556.48 328.97,-535.3 304.71,-497 296.88,-484.63 283.37,-476.55 270.02,-471.31"/>
<polygon fill="black" stroke="black" stroke-width="2.9" points="271.01,-467.95 260.41,-467.97 268.71,-474.56 271.01,-467.95"/>
<text text-anchor="middle" x="357.21" y="-544.3" font-family="Sans Not-Rotated 14" font-size="14.00"> &#160;&#160;&#160;&#160;&#160;&#160;&#160;&#160;&#160;&#160;&#160;&#160;&#160;&#160;&#160;</text>
</g>
<!-- X&#45;Ray&#45;&gt;Check -->
<g id="edge3" class="edge">
<title>X&#45;Ray&#45;&gt;Check</title>
<path fill="none" stroke="black" stroke-width="3.77" d="M201.12,-542.93C166.85,-536.91 117.32,-523.37 135.71,-497 148.18,-479.12 170.87,-470.35 190.95,-466.06"/>
<polygon fill="black" stroke="black" stroke-width="3.77" points="191.64,-469.49 200.84,-464.24 190.38,-462.6 191.64,-469.49"/>
<text text-anchor="middle" x="172.21" y="-500.8" font-family="Sans Not-Rotated 14" font-size="14.00"> &#160;&#160;&#160;&#160;&#160;&#160;&#160;&#160;&#160;&#160;&#160;&#160;&#160;&#160;&#160;</text>
</g>
<!-- Organize Ambulance -->
<g id="node7" class="node">
<title>Organize Ambulance</title>
<polygon fill="#ffffff" stroke="black" points="365.71,-131 205.71,-131 205.71,-95 365.71,-95 365.71,-131"/>
<text text-anchor="middle" x="285.71" y="-109.3" font-family="Sans Not-Rotated 14" font-size="14.00">Organize Ambulance</text>
</g>
<!-- Prepare&#45;&gt;Organize Ambulance -->
<g id="edge11" class="edge">
<title>Prepare&#45;&gt;Organize Ambulance</title>
<path fill="none" stroke="black" d="M312.04,-181.8C307.47,-170.05 301.34,-154.24 296.14,-140.84"/>
<polygon fill="black" stroke="black" points="299.26,-139.23 292.38,-131.18 292.74,-141.76 299.26,-139.23"/>
<text text-anchor="middle" x="325.21" y="-152.8" font-family="Sans Not-Rotated 14" font-size="14.00"> &#160;&#160;&#160;&#160;&#160;&#160;&#160;&#160;</text>
</g>
<!-- Prepare&#45;&gt;Check -->
<g id="edge14" class="edge">
<title>Prepare&#45;&gt;Check</title>
<path fill="none" stroke="black" stroke-width="1.83" d="M338.68,-218.19C365.19,-243.23 407.1,-291.8 392.71,-338 378.75,-382.85 370.14,-396.62 332.71,-425 314.46,-438.84 290.37,-447.44 270.17,-452.66"/>
<polygon fill="black" stroke="black" stroke-width="1.83" points="269.23,-449.28 260.32,-455.02 270.86,-456.09 269.23,-449.28"/>
<text text-anchor="middle" x="431.21" y="-326.8" font-family="Sans Not-Rotated 14" font-size="14.00"> &#160;&#160;&#160;&#160;&#160;&#160;&#160;&#160;&#160;&#160;&#160;&#160;&#160;&#160;&#160;</text>
</g>
<!-- end -->
<g id="node10" class="node">
<title>end</title>
<ellipse fill="#ea4126" stroke="black" cx="401.71" cy="-22" rx="18" ry="18"/>
<ellipse fill="none" stroke="black" cx="401.71" cy="-22" rx="22" ry="22"/>
</g>
<!-- Prepare&#45;&gt;end -->
<g id="edge15" class="edge">
<title>Prepare&#45;&gt;end</title>
<path fill="none" stroke="black" stroke-dasharray="5,2" d="M336.82,-181.94C349.36,-169.1 365.4,-150.45 374.71,-131 386.46,-106.47 393.45,-76.28 397.37,-54.06"/>
<polygon fill="black" stroke="black" points="400.83,-54.59 399,-44.15 393.92,-53.45 400.83,-54.59"/>
<text text-anchor="middle" x="423.21" y="-109.3" font-family="Sans Not-Rotated 14" font-size="14.00"> &#160;&#160;&#160;&#160;&#160;&#160;&#160;&#160;&#160;&#160;&#160;&#160;&#160;&#160;&#160;</text>
</g>
<!-- Organize Ambulance&#45;&gt;end -->
<g id="edge17" class="edge">
<title>Organize Ambulance&#45;&gt;end</title>
<path fill="none" stroke="black" stroke-dasharray="5,2" d="M305.76,-94.97C317.53,-85.13 332.78,-72.63 346.71,-62 355.88,-55.01 366.14,-47.62 375.29,-41.18"/>
<polygon fill="black" stroke="black" points="377.46,-43.93 383.65,-35.34 373.45,-38.19 377.46,-43.93"/>
<text text-anchor="middle" x="367.21" y="-65.8" font-family="Sans Not-Rotated 14" font-size="14.00"> &#160;&#160;&#160;&#160;&#160;&#160;&#160;&#160;</text>
</g>
<!-- Check&#45;&gt;Final Visit -->
<g id="edge6" class="edge">
<title>Check&#45;&gt;Final Visit</title>
<path fill="none" stroke="black" stroke-width="3.19" d="M201.1,-455.65C145.4,-446.78 28.65,-424.63 6.71,-392 -18.6,-354.36 36.67,-323.32 82.09,-305.22"/>
<polygon fill="black" stroke="black" stroke-width="3.19" points="83.53,-308.42 91.6,-301.56 81.02,-301.89 83.53,-308.42"/>
<text text-anchor="middle" x="43.21" y="-370.3" font-family="Sans Not-Rotated 14" font-size="14.00"> &#160;&#160;&#160;&#160;&#160;&#160;&#160;&#160;&#160;&#160;&#160;&#160;&#160;&#160;&#160;</text>
</g>
<!-- Check&#45;&gt;Visit -->
<g id="edge1" class="edge">
<title>Check&#45;&gt;Visit</title>
<path fill="none" stroke="black" stroke-width="3.7" d="M200.84,-457.76C178.83,-454.36 150.29,-445.91 135.71,-425 131.9,-419.53 132.02,-415.55 135.71,-410 135.81,-409.86 160.3,-399.66 182.81,-390.31"/>
<polygon fill="black" stroke="black" stroke-width="3.7" points="184.36,-393.46 192.26,-386.39 181.68,-386.99 184.36,-393.46"/>
<text text-anchor="middle" x="172.21" y="-413.8" font-family="Sans Not-Rotated 14" font-size="14.00"> &#160;&#160;&#160;&#160;&#160;&#160;&#160;&#160;&#160;&#160;&#160;&#160;&#160;&#160;&#160;</text>
</g>
<!-- Check&#45;&gt;X&#45;Ray -->
<g id="edge4" class="edge">
<title>Check&#45;&gt;X&#45;Ray</title>
<path fill="none" stroke="black" stroke-width="3.11" d="M230.71,-479.18C230.71,-490.81 230.71,-506.42 230.71,-519.73"/>
<polygon fill="black" stroke="black" stroke-width="3.11" points="227.21,-519.8 230.71,-529.8 234.21,-519.8 227.21,-519.8"/>
<text text-anchor="middle" x="267.21" y="-500.8" font-family="Sans Not-Rotated 14" font-size="14.00"> &#160;&#160;&#160;&#160;&#160;&#160;&#160;&#160;&#160;&#160;&#160;&#160;&#160;&#160;&#160;</text>
</g>
<!-- Check&#45;&gt;Prepare -->
<g id="edge18" class="edge">
<title>Check&#45;&gt;Prepare</title>
<path fill="none" stroke="black" stroke-width="2.4" d="M260.39,-453.43C275.94,-448.37 293.78,-439.66 303.71,-425 309.14,-416.98 315.18,-286.47 317.61,-228.44"/>
<polygon fill="black" stroke="black" stroke-width="2.4" points="321.12,-228.31 318.04,-218.18 314.13,-228.03 321.12,-228.31"/>
<text text-anchor="middle" x="350.21" y="-326.8" font-family="Sans Not-Rotated 14" font-size="14.00"> &#160;&#160;&#160;&#160;&#160;&#160;&#160;&#160;&#160;&#160;&#160;&#160;&#160;&#160;&#160;</text>
</g>
<!-- Check&#45;&gt;Check -->
<g id="edge19" class="edge">
<title>Check&#45;&gt;Check</title>
<path fill="none" stroke="black" stroke-width="3.22" d="M260.4,-468.88C270.3,-468.88 278.21,-466.25 278.21,-461 278.21,-457.72 275.12,-455.46 270.39,-454.23"/>
<polygon fill="black" stroke="black" stroke-width="3.22" points="270.73,-450.75 260.4,-453.12 269.95,-457.71 270.73,-450.75"/>
<text text-anchor="middle" x="314.71" y="-457.3" font-family="Sans Not-Rotated 14" font-size="14.00"> &#160;&#160;&#160;&#160;&#160;&#160;&#160;&#160;&#160;&#160;&#160;&#160;&#160;&#160;&#160;</text>
</g>
<!-- Check&#45;&gt;end -->
<g id="edge16" class="edge">
<title>Check&#45;&gt;end</title>
<path fill="none" stroke="black" stroke-dasharray="5,2" d="M260.34,-457.09C330.84,-449.36 502.71,-425.34 502.71,-375 502.71,-375 502.71,-375 502.71,-112 502.71,-73.62 461.15,-47.85 431.35,-34.31"/>
<polygon fill="black" stroke="black" points="432.72,-31.1 422.15,-30.35 429.95,-37.52 432.72,-31.1"/>
<text text-anchor="middle" x="539.21" y="-239.8" font-family="Sans Not-Rotated 14" font-size="14.00"> &#160;&#160;&#160;&#160;&#160;&#160;&#160;&#160;&#160;&#160;&#160;&#160;&#160;&#160;&#160;</text>
</g>
<!-- start -->
<g id="node9" class="node">
<title>start</title>
<ellipse fill="#95d600" stroke="black" cx="274.71" cy="-818.3" rx="27.1" ry="27.1"/>
<text text-anchor="middle" x="274.71" y="-814.6" font-family="Sans Not-Rotated 14" font-size="14.00">start</text>
</g>
<!-- start&#45;&gt;Triage -->
<g id="edge5" class="edge">
<title>start&#45;&gt;Triage</title>
<path fill="none" stroke="black" stroke-dasharray="5,2" d="M274.71,-790.78C274.71,-778.1 274.71,-762.93 274.71,-750.17"/>
<polygon fill="black" stroke="black" points="278.21,-750.12 274.71,-740.12 271.21,-750.12 278.21,-750.12"/>
<text text-anchor="middle" x="331.21" y="-761.8" font-family="Sans Not-Rotated 14" font-size="14.00"> &#160;&#160;&#160;&#160;&#160;&#160;&#160;&#160;&#160;&#160;&#160;&#160;&#160;&#160;&#160;&#160;&#160;&#160;&#160;&#160;&#160;&#160;&#160;&#160;</text>
</g>
</g>
</svg>
