<?xml version="1.0" encoding="UTF-8" standalone="no"?>
<!DOCTYPE svg PUBLIC "-//W3C//DTD SVG 1.1//EN"
 "http://www.w3.org/Graphics/SVG/1.1/DTD/svg11.dtd">
<!-- Generated by graphviz version 3.0.0 (20220226.1711)
 -->
<!-- Pages: 1 -->
<svg width="1539pt" height="461pt"
 viewBox="0.00 0.00 1539.05 460.60" xmlns="http://www.w3.org/2000/svg" xmlns:xlink="http://www.w3.org/1999/xlink">
<g id="graph0" class="graph" transform="scale(1 1) rotate(0) translate(4 456.6)">
<polygon fill="white" stroke="transparent" points="-4,4 -4,-456.6 1535.05,-456.6 1535.05,4 -4,4"/>
<!-- IV Antibiotics -->
<g id="node1" class="node">
<title>IV Antibiotics</title>
<polygon fill="#c0bde9" stroke="black" points="310.55,-347 203.55,-347 203.55,-311 310.55,-311 310.55,-347"/>
<text text-anchor="middle" x="257.05" y="-325.3" font-family="Sans Not-Rotated 14" font-size="14.00">IV Antibiotics</text>
</g>
<!-- IV Liquid -->
<g id="node2" class="node">
<title>IV Liquid</title>
<polygon fill="#c0bde9" stroke="black" points="231.55,-239 154.55,-239 154.55,-203 231.55,-203 231.55,-239"/>
<text text-anchor="middle" x="193.05" y="-217.3" font-family="Sans Not-Rotated 14" font-size="14.00">IV Liquid</text>
</g>
<!-- IV Antibiotics&#45;&gt;IV Liquid -->
<g id="edge17" class="edge">
<title>IV Antibiotics&#45;&gt;IV Liquid</title>
<path fill="none" stroke="black" stroke-width="1.19" d="M254.55,-310.74C251.73,-295.58 246.01,-273.43 235.05,-257 232.49,-253.17 229.39,-249.53 226.05,-246.15"/>
<polygon fill="black" stroke="black" stroke-width="1.19" points="228.2,-243.36 218.46,-239.19 223.47,-248.52 228.2,-243.36"/>
<text text-anchor="middle" x="260.55" y="-271.3" font-family="Sans Not-Rotated 14" font-size="14.00"> &#160;&#160;&#160;</text>
</g>
<!-- ER Registration -->
<g id="node14" class="node">
<title>ER Registration</title>
<polygon fill="#a09dde" stroke="black" points="251.05,-40 127.05,-40 127.05,-4 251.05,-4 251.05,-40"/>
<text text-anchor="middle" x="189.05" y="-18.3" font-family="Sans Not-Rotated 14" font-size="14.00">ER Registration</text>
</g>
<!-- IV Antibiotics&#45;&gt;ER Registration -->
<g id="edge16" class="edge">
<title>IV Antibiotics&#45;&gt;ER Registration</title>
<path fill="none" stroke="black" stroke-width="2.4" d="M211.96,-310.9C201.89,-305.96 191.66,-299.98 183.05,-293 136.25,-255.03 120.28,-242.12 101.05,-185 82.67,-130.39 106.75,-107.55 142.05,-62 146.24,-56.59 151.3,-51.44 156.53,-46.75"/>
<polygon fill="black" stroke="black" stroke-width="2.4" points="158.86,-49.36 164.23,-40.23 154.33,-44.02 158.86,-49.36"/>
<text text-anchor="middle" x="121.55" y="-163.3" font-family="Sans Not-Rotated 14" font-size="14.00"> &#160;&#160;&#160;&#160;&#160;&#160;&#160;&#160;</text>
</g>
<!-- ER Sepsis Triage -->
<g id="node15" class="node">
<title>ER Sepsis Triage</title>
<polygon fill="#a09dde" stroke="black" points="357.55,-131 226.55,-131 226.55,-95 357.55,-95 357.55,-131"/>
<text text-anchor="middle" x="292.05" y="-109.3" font-family="Sans Not-Rotated 14" font-size="14.00">ER Sepsis Triage</text>
</g>
<!-- IV Antibiotics&#45;&gt;ER Sepsis Triage -->
<g id="edge18" class="edge">
<title>IV Antibiotics&#45;&gt;ER Sepsis Triage</title>
<path fill="none" stroke="black" stroke-width="1.01" d="M266.95,-310.67C269.68,-305.18 272.35,-298.98 274.05,-293 288.9,-240.72 291.88,-176.82 292.27,-141.24"/>
<polygon fill="black" stroke="black" stroke-width="1.01" points="295.77,-141.17 292.31,-131.15 288.77,-141.14 295.77,-141.17"/>
<text text-anchor="middle" x="292.55" y="-217.3" font-family="Sans Not-Rotated 14" font-size="14.00"> </text>
</g>
<!-- end -->
<g id="node18" class="node">
<title>end</title>
<ellipse fill="#ea4126" stroke="black" cx="799.05" cy="-22" rx="18" ry="18"/>
<ellipse fill="none" stroke="black" cx="799.05" cy="-22" rx="22" ry="22"/>
</g>
<!-- IV Antibiotics&#45;&gt;end -->
<g id="edge19" class="edge">
<title>IV Antibiotics&#45;&gt;end</title>
<path fill="none" stroke="black" stroke-dasharray="5,2" d="M296.89,-310.88C307.37,-305.71 318.43,-299.62 328.05,-293 376.49,-259.65 379.72,-240.47 425.05,-203 487.53,-151.35 501.31,-134.59 572.05,-95 605.97,-76.01 616.2,-74.37 653.05,-62 691.99,-48.93 737.9,-37.26 767.69,-30.17"/>
<polygon fill="black" stroke="black" points="768.59,-33.55 777.52,-27.85 766.99,-26.74 768.59,-33.55"/>
<text text-anchor="middle" x="490.55" y="-163.3" font-family="Sans Not-Rotated 14" font-size="14.00"> </text>
</g>
<!-- IV Liquid&#45;&gt;IV Antibiotics -->
<g id="edge12" class="edge">
<title>IV Liquid&#45;&gt;IV Antibiotics</title>
<path fill="none" stroke="black" stroke-width="2.19" d="M188.76,-239.07C185.93,-254.32 184.31,-276.71 194.05,-293 196.71,-297.45 200.16,-301.38 204.08,-304.83"/>
<polygon fill="black" stroke="black" stroke-width="2.19" points="202.01,-307.66 212.09,-310.91 206.24,-302.08 202.01,-307.66"/>
<text text-anchor="middle" x="214.55" y="-271.3" font-family="Sans Not-Rotated 14" font-size="14.00"> &#160;&#160;&#160;&#160;&#160;&#160;&#160;&#160;</text>
</g>
<!-- IV Liquid&#45;&gt;IV Liquid -->
<g id="edge15" class="edge">
<title>IV Liquid&#45;&gt;IV Liquid</title>
<path fill="none" stroke="black" stroke-width="1" d="M231.61,-231.04C241.82,-230.46 249.55,-227.12 249.55,-221 249.55,-217.18 246.53,-214.44 241.77,-212.78"/>
<polygon fill="black" stroke="black" stroke-width="1" points="242.07,-209.28 231.61,-210.96 240.84,-216.17 242.07,-209.28"/>
<text text-anchor="middle" x="252.05" y="-217.3" font-family="Sans Not-Rotated 14" font-size="14.00"> </text>
</g>
<!-- IV Liquid&#45;&gt;ER Registration -->
<g id="edge13" class="edge">
<title>IV Liquid&#45;&gt;ER Registration</title>
<path fill="none" stroke="black" stroke-width="1.2" d="M178.49,-202.99C165.01,-186.04 145.89,-158.61 138.05,-131 133.68,-115.61 133.2,-110.25 138.05,-95 143.54,-77.76 154.82,-61.1 165.38,-48.15"/>
<polygon fill="black" stroke="black" stroke-width="1.2" points="168.32,-50.1 172.15,-40.22 163,-45.55 168.32,-50.1"/>
<text text-anchor="middle" x="158.55" y="-109.3" font-family="Sans Not-Rotated 14" font-size="14.00"> &#160;&#160;&#160;&#160;&#160;&#160;&#160;&#160;</text>
</g>
<!-- IV Liquid&#45;&gt;ER Sepsis Triage -->
<g id="edge14" class="edge">
<title>IV Liquid&#45;&gt;ER Sepsis Triage</title>
<path fill="none" stroke="black" stroke-width="1.07" d="M189.41,-202.73C187.16,-187.13 186.58,-164.34 198.05,-149 203.22,-142.08 209.92,-136.54 217.36,-132.08"/>
<polygon fill="black" stroke="black" stroke-width="1.07" points="219.15,-135.09 226.38,-127.34 215.9,-128.9 219.15,-135.09"/>
<text text-anchor="middle" x="207.55" y="-163.3" font-family="Sans Not-Rotated 14" font-size="14.00"> &#160;&#160;&#160;</text>
</g>
<!-- ER Triage -->
<g id="node3" class="node">
<title>ER Triage</title>
<polygon fill="#a09dde" stroke="black" points="545.55,-293 462.55,-293 462.55,-257 545.55,-257 545.55,-293"/>
<text text-anchor="middle" x="504.05" y="-271.3" font-family="Sans Not-Rotated 14" font-size="14.00">ER Triage</text>
</g>
<!-- ER Triage&#45;&gt;ER Triage -->
<g id="edge30" class="edge">
<title>ER Triage&#45;&gt;ER Triage</title>
<path fill="none" stroke="black" stroke-width="3.06" d="M545.76,-284.97C555.96,-284.23 563.55,-280.91 563.55,-275 563.55,-271.31 560.58,-268.63 555.87,-266.95"/>
<polygon fill="black" stroke="black" stroke-width="3.06" points="556.23,-263.46 545.76,-265.03 554.93,-270.34 556.23,-263.46"/>
<text text-anchor="middle" x="600.05" y="-271.3" font-family="Sans Not-Rotated 14" font-size="14.00"> &#160;&#160;&#160;&#160;&#160;&#160;&#160;&#160;&#160;&#160;&#160;&#160;&#160;&#160;&#160;</text>
</g>
<!-- ER Triage&#45;&gt;end -->
<g id="edge31" class="edge">
<title>ER Triage&#45;&gt;end</title>
<path fill="none" stroke="black" stroke-dasharray="5,2" d="M507.48,-256.6C513.43,-230.4 527.94,-180.51 557.05,-149 616.9,-84.23 717.69,-47.03 768.22,-31.55"/>
<polygon fill="black" stroke="black" points="769.33,-34.87 777.92,-28.66 767.33,-28.16 769.33,-34.87"/>
<text text-anchor="middle" x="559.55" y="-163.3" font-family="Sans Not-Rotated 14" font-size="14.00"> </text>
</g>
<!-- Leucocytes -->
<g id="node4" class="node">
<title>Leucocytes</title>
<polygon fill="#1d2559" stroke="black" points="795.55,-347 702.55,-347 702.55,-311 795.55,-311 795.55,-347"/>
<text text-anchor="middle" x="749.05" y="-325.3" font-family="Sans Not-Rotated 14" font-size="14.00" fill="white">Leucocytes</text>
</g>
<!-- Leucocytes&#45;&gt;Leucocytes -->
<g id="edge21" class="edge">
<title>Leucocytes&#45;&gt;Leucocytes</title>
<path fill="none" stroke="black" stroke-width="2.53" d="M795.72,-336.66C806.04,-335.94 813.55,-333.39 813.55,-329 813.55,-326.26 810.62,-324.23 805.9,-322.92"/>
<polygon fill="black" stroke="black" stroke-width="2.53" points="806.14,-319.42 795.72,-321.34 805.07,-326.33 806.14,-319.42"/>
<text text-anchor="middle" x="834.05" y="-325.3" font-family="Sans Not-Rotated 14" font-size="14.00"> &#160;&#160;&#160;&#160;&#160;&#160;&#160;&#160;</text>
</g>
<!-- LacticAcid -->
<g id="node5" class="node">
<title>LacticAcid</title>
<polygon fill="#7d7fd2" stroke="black" points="726.55,-239 641.55,-239 641.55,-203 726.55,-203 726.55,-239"/>
<text text-anchor="middle" x="684.05" y="-217.3" font-family="Sans Not-Rotated 14" font-size="14.00">LacticAcid</text>
</g>
<!-- Leucocytes&#45;&gt;LacticAcid -->
<g id="edge22" class="edge">
<title>Leucocytes&#45;&gt;LacticAcid</title>
<path fill="none" stroke="black" stroke-width="2.08" d="M746.6,-310.71C743.8,-295.53 738.1,-273.36 727.05,-257 724.36,-253.02 721.09,-249.26 717.56,-245.79"/>
<polygon fill="black" stroke="black" stroke-width="2.08" points="719.86,-243.15 710.07,-239.09 715.19,-248.37 719.86,-243.15"/>
<text text-anchor="middle" x="762.55" y="-271.3" font-family="Sans Not-Rotated 14" font-size="14.00"> &#160;&#160;&#160;&#160;&#160;&#160;&#160;&#160;</text>
</g>
<!-- CRP -->
<g id="node11" class="node">
<title>CRP</title>
<polygon fill="#1d2559" stroke="black" points="740.05,-131 686.05,-131 686.05,-95 740.05,-95 740.05,-131"/>
<text text-anchor="middle" x="713.05" y="-109.3" font-family="Sans Not-Rotated 14" font-size="14.00" fill="white">CRP</text>
</g>
<!-- Leucocytes&#45;&gt;CRP -->
<g id="edge20" class="edge">
<title>Leucocytes&#45;&gt;CRP</title>
<path fill="none" stroke="black" stroke-width="5" d="M702.79,-310.97C691.91,-305.97 680.68,-299.95 671.05,-293 653.45,-280.29 656.8,-267.93 638.05,-257 607.31,-239.08 582.2,-266.84 560.05,-239 520.37,-189.11 618.93,-145.78 675.93,-125.78"/>
<polygon fill="black" stroke="black" stroke-width="5" points="677.67,-129.81 685.71,-122.43 674.84,-121.53 677.67,-129.81"/>
<text text-anchor="middle" x="596.55" y="-217.3" font-family="Sans Not-Rotated 14" font-size="14.00"> &#160;&#160;&#160;&#160;&#160;&#160;&#160;&#160;&#160;&#160;&#160;&#160;&#160;&#160;&#160;</text>
</g>
<!-- LacticAcid&#45;&gt;Leucocytes -->
<g id="edge28" class="edge">
<title>LacticAcid&#45;&gt;Leucocytes</title>
<path fill="none" stroke="black" stroke-width="2.47" d="M678.66,-239.1C674.93,-254.36 672.21,-276.76 682.05,-293 685.14,-298.11 689.25,-302.5 693.92,-306.28"/>
<polygon fill="black" stroke="black" stroke-width="2.47" points="692.01,-309.22 702.22,-312.07 696.02,-303.48 692.01,-309.22"/>
<text text-anchor="middle" x="702.55" y="-271.3" font-family="Sans Not-Rotated 14" font-size="14.00"> &#160;&#160;&#160;&#160;&#160;&#160;&#160;&#160;</text>
</g>
<!-- LacticAcid&#45;&gt;LacticAcid -->
<g id="edge29" class="edge">
<title>LacticAcid&#45;&gt;LacticAcid</title>
<path fill="none" stroke="black" stroke-width="1.27" d="M726.73,-230.95C736.97,-230.17 744.55,-226.85 744.55,-221 744.55,-217.34 741.59,-214.67 736.87,-213"/>
<polygon fill="black" stroke="black" stroke-width="1.27" points="737.21,-209.5 726.73,-211.05 735.9,-216.38 737.21,-209.5"/>
<text text-anchor="middle" x="765.05" y="-217.3" font-family="Sans Not-Rotated 14" font-size="14.00"> &#160;&#160;&#160;&#160;&#160;&#160;&#160;&#160;</text>
</g>
<!-- LacticAcid&#45;&gt;CRP -->
<g id="edge27" class="edge">
<title>LacticAcid&#45;&gt;CRP</title>
<path fill="none" stroke="black" stroke-width="2.12" d="M688.99,-202.93C690.62,-197.23 692.43,-190.85 694.05,-185 698.05,-170.54 702.38,-154.39 705.9,-141.15"/>
<polygon fill="black" stroke="black" stroke-width="2.12" points="709.35,-141.8 708.52,-131.24 702.58,-140.01 709.35,-141.8"/>
<text text-anchor="middle" x="723.55" y="-163.3" font-family="Sans Not-Rotated 14" font-size="14.00"> &#160;&#160;&#160;&#160;&#160;&#160;&#160;&#160;</text>
</g>
<!-- Return ER -->
<g id="node6" class="node">
<title>Return ER</title>
<polygon fill="#ffffff" stroke="black" points="879.05,-185 791.05,-185 791.05,-149 879.05,-149 879.05,-185"/>
<text text-anchor="middle" x="835.05" y="-163.3" font-family="Sans Not-Rotated 14" font-size="14.00">Return ER</text>
</g>
<!-- Return ER&#45;&gt;Return ER -->
<g id="edge1" class="edge">
<title>Return ER&#45;&gt;Return ER</title>
<path fill="none" stroke="black" stroke-width="1.57" d="M879.08,-176.92C889.42,-176.11 897.05,-172.8 897.05,-167 897.05,-163.28 893.92,-160.59 888.95,-158.92"/>
<polygon fill="black" stroke="black" stroke-width="1.57" points="889.55,-155.47 879.08,-157.08 888.26,-162.35 889.55,-155.47"/>
<text text-anchor="middle" x="917.55" y="-163.3" font-family="Sans Not-Rotated 14" font-size="14.00"> &#160;&#160;&#160;&#160;&#160;&#160;&#160;&#160;</text>
</g>
<!-- Return ER&#45;&gt;end -->
<g id="edge2" class="edge">
<title>Return ER&#45;&gt;end</title>
<path fill="none" stroke="black" stroke-dasharray="5,2" d="M830.71,-148.75C824.78,-125.2 814.05,-82.59 806.75,-53.56"/>
<polygon fill="black" stroke="black" points="810.06,-52.39 804.22,-43.54 803.27,-54.1 810.06,-52.39"/>
<text text-anchor="middle" x="827.55" y="-109.3" font-family="Sans Not-Rotated 14" font-size="14.00"> </text>
</g>
<!-- Release A -->
<g id="node7" class="node">
<title>Release A</title>
<polygon fill="#e0ddf4" stroke="black" points="1362.05,-347 1278.05,-347 1278.05,-311 1362.05,-311 1362.05,-347"/>
<text text-anchor="middle" x="1320.05" y="-325.3" font-family="Sans Not-Rotated 14" font-size="14.00">Release A</text>
</g>
<!-- Release A&#45;&gt;Release A -->
<g id="edge35" class="edge">
<title>Release A&#45;&gt;Release A</title>
<path fill="none" stroke="black" stroke-width="2.14" d="M1362.11,-336.75C1372.39,-336.18 1380.05,-333.59 1380.05,-329 1380.05,-326.13 1377.06,-324.04 1372.31,-322.74"/>
<polygon fill="black" stroke="black" stroke-width="2.14" points="1372.51,-319.23 1362.11,-321.25 1371.49,-326.16 1372.51,-319.23"/>
<text text-anchor="middle" x="1400.55" y="-325.3" font-family="Sans Not-Rotated 14" font-size="14.00"> &#160;&#160;&#160;&#160;&#160;&#160;&#160;&#160;</text>
</g>
<!-- Release E -->
<g id="node8" class="node">
<title>Release E</title>
<polygon fill="#ffffff" stroke="black" points="1298.55,-40 1215.55,-40 1215.55,-4 1298.55,-4 1298.55,-40"/>
<text text-anchor="middle" x="1257.05" y="-18.3" font-family="Sans Not-Rotated 14" font-size="14.00">Release E</text>
</g>
<!-- Release A&#45;&gt;Release E -->
<g id="edge39" class="edge">
<title>Release A&#45;&gt;Release E</title>
<path fill="none" stroke="black" stroke-width="1.01" d="M1311.92,-310.8C1309.49,-305.2 1306.96,-298.91 1305.05,-293 1274.94,-199.58 1269.83,-174.56 1259.05,-77 1258.09,-68.35 1257.57,-58.87 1257.29,-50.3"/>
<polygon fill="black" stroke="black" stroke-width="1.01" points="1260.78,-49.99 1257.05,-40.07 1253.78,-50.15 1260.78,-49.99"/>
<text text-anchor="middle" x="1276.55" y="-163.3" font-family="Sans Not-Rotated 14" font-size="14.00"> </text>
</g>
<!-- Release D -->
<g id="node10" class="node">
<title>Release D</title>
<polygon fill="#ffffff" stroke="black" points="1426.05,-239 1340.05,-239 1340.05,-203 1426.05,-203 1426.05,-239"/>
<text text-anchor="middle" x="1383.05" y="-217.3" font-family="Sans Not-Rotated 14" font-size="14.00">Release D</text>
</g>
<!-- Release A&#45;&gt;Release D -->
<g id="edge38" class="edge">
<title>Release A&#45;&gt;Release D</title>
<path fill="none" stroke="black" stroke-width="1.04" d="M1322.26,-310.75C1324.85,-295.58 1330.24,-273.43 1341.05,-257 1343.58,-253.15 1346.67,-249.5 1350,-246.11"/>
<polygon fill="black" stroke="black" stroke-width="1.04" points="1352.59,-248.49 1357.58,-239.15 1347.85,-243.34 1352.59,-248.49"/>
<text text-anchor="middle" x="1350.55" y="-271.3" font-family="Sans Not-Rotated 14" font-size="14.00"> &#160;&#160;&#160;</text>
</g>
<!-- Release C -->
<g id="node13" class="node">
<title>Release C</title>
<polygon fill="#ffffff" stroke="black" points="1508.05,-40 1424.05,-40 1424.05,-4 1508.05,-4 1508.05,-40"/>
<text text-anchor="middle" x="1466.05" y="-18.3" font-family="Sans Not-Rotated 14" font-size="14.00">Release C</text>
</g>
<!-- Release A&#45;&gt;Release C -->
<g id="edge37" class="edge">
<title>Release A&#45;&gt;Release C</title>
<path fill="none" stroke="black" stroke-width="1.03" d="M1362.3,-321.1C1383.38,-316.03 1408.31,-307.42 1427.05,-293 1449.72,-275.56 1452.85,-266.08 1462.05,-239 1485.29,-170.61 1472.16,-149.17 1475.05,-77 1475.32,-70.34 1475.81,-68.62 1475.05,-62 1474.62,-58.19 1473.95,-54.2 1473.17,-50.3"/>
<polygon fill="black" stroke="black" stroke-width="1.03" points="1476.54,-49.32 1470.94,-40.33 1469.71,-50.85 1476.54,-49.32"/>
<text text-anchor="middle" x="1485.55" y="-163.3" font-family="Sans Not-Rotated 14" font-size="14.00"> &#160;&#160;&#160;</text>
</g>
<!-- Release B -->
<g id="node16" class="node">
<title>Release B</title>
<polygon fill="#ffffff" stroke="black" points="1387.05,-131 1303.05,-131 1303.05,-95 1387.05,-95 1387.05,-131"/>
<text text-anchor="middle" x="1345.05" y="-109.3" font-family="Sans Not-Rotated 14" font-size="14.00">Release B</text>
</g>
<!-- Release A&#45;&gt;Release B -->
<g id="edge36" class="edge">
<title>Release A&#45;&gt;Release B</title>
<path fill="none" stroke="black" stroke-width="1.09" d="M1362.17,-314.09C1374.55,-308.74 1387.57,-301.75 1398.05,-293 1420.38,-274.35 1426.44,-266.79 1435.05,-239 1439.78,-223.72 1441.21,-217.76 1435.05,-203 1423.82,-176.09 1400.04,-153.16 1379.75,-137.32"/>
<polygon fill="black" stroke="black" stroke-width="1.09" points="1381.69,-134.4 1371.6,-131.18 1377.48,-139.99 1381.69,-134.4"/>
<text text-anchor="middle" x="1448.55" y="-217.3" font-family="Sans Not-Rotated 14" font-size="14.00"> &#160;&#160;&#160;</text>
</g>
<!-- Release A&#45;&gt;end -->
<g id="edge40" class="edge">
<title>Release A&#45;&gt;end</title>
<path fill="none" stroke="black" stroke-dasharray="5,2" d="M1294.81,-310.99C1286.78,-305.4 1277.95,-299.07 1270.05,-293 1143.79,-195.9 1139.62,-130.99 996.05,-62 941.96,-36.01 871.55,-27.34 831.22,-24.45"/>
<polygon fill="black" stroke="black" points="831.36,-20.95 821.16,-23.8 830.92,-27.93 831.36,-20.95"/>
<text text-anchor="middle" x="1157.55" y="-163.3" font-family="Sans Not-Rotated 14" font-size="14.00"> </text>
</g>
<!-- Release E&#45;&gt;Release A -->
<g id="edge54" class="edge">
<title>Release E&#45;&gt;Release A</title>
<path fill="none" stroke="black" stroke-width="1.01" d="M1254.92,-40.1C1250.19,-84.8 1242.61,-207.57 1289.05,-293 1290.86,-296.33 1293.05,-299.62 1295.41,-302.76"/>
<polygon fill="black" stroke="black" stroke-width="1.01" points="1292.87,-305.18 1301.93,-310.67 1298.27,-300.73 1292.87,-305.18"/>
<text text-anchor="middle" x="1257.55" y="-163.3" font-family="Sans Not-Rotated 14" font-size="14.00"> </text>
</g>
<!-- Admission NC -->
<g id="node9" class="node">
<title>Admission NC</title>
<polygon fill="#a09dde" stroke="black" points="1119.05,-347 1009.05,-347 1009.05,-311 1119.05,-311 1119.05,-347"/>
<text text-anchor="middle" x="1064.05" y="-325.3" font-family="Sans Not-Rotated 14" font-size="14.00">Admission NC</text>
</g>
<!-- Admission NC&#45;&gt;Admission NC -->
<g id="edge32" class="edge">
<title>Admission NC&#45;&gt;Admission NC</title>
<path fill="none" stroke="black" stroke-width="3.25" d="M1119.12,-336.5C1129.62,-335.6 1137.05,-333.1 1137.05,-329 1137.05,-326.37 1134,-324.4 1129.05,-323.09"/>
<polygon fill="black" stroke="black" stroke-width="3.25" points="1129.55,-319.63 1119.12,-321.5 1128.45,-326.54 1129.55,-319.63"/>
<text text-anchor="middle" x="1173.55" y="-325.3" font-family="Sans Not-Rotated 14" font-size="14.00"> &#160;&#160;&#160;&#160;&#160;&#160;&#160;&#160;&#160;&#160;&#160;&#160;&#160;&#160;&#160;</text>
</g>
<!-- Admission IC -->
<g id="node12" class="node">
<title>Admission IC</title>
<polygon fill="#ffffff" stroke="black" points="1093.05,-239 989.05,-239 989.05,-203 1093.05,-203 1093.05,-239"/>
<text text-anchor="middle" x="1041.05" y="-217.3" font-family="Sans Not-Rotated 14" font-size="14.00">Admission IC</text>
</g>
<!-- Admission NC&#45;&gt;Admission IC -->
<g id="edge33" class="edge">
<title>Admission NC&#45;&gt;Admission IC</title>
<path fill="none" stroke="black" stroke-width="1.03" d="M1044.47,-310.83C1039.84,-305.62 1035.53,-299.53 1033.05,-293 1027.76,-279.04 1029.21,-262.52 1032.23,-248.93"/>
<polygon fill="black" stroke="black" stroke-width="1.03" points="1035.63,-249.75 1034.77,-239.2 1028.86,-247.99 1035.63,-249.75"/>
<text text-anchor="middle" x="1042.55" y="-271.3" font-family="Sans Not-Rotated 14" font-size="14.00"> &#160;&#160;&#160;</text>
</g>
<!-- Admission NC&#45;&gt;end -->
<g id="edge34" class="edge">
<title>Admission NC&#45;&gt;end</title>
<path fill="none" stroke="black" stroke-dasharray="5,2" d="M1043.69,-310.71C1025.02,-293.97 997.69,-267.06 980.05,-239 956.66,-201.78 965.04,-184.45 939.05,-149 906.49,-104.6 856.2,-64.1 825.58,-41.57"/>
<polygon fill="black" stroke="black" points="827.28,-38.48 817.13,-35.44 823.17,-44.15 827.28,-38.48"/>
<text text-anchor="middle" x="966.55" y="-163.3" font-family="Sans Not-Rotated 14" font-size="14.00"> &#160;&#160;&#160;</text>
</g>
<!-- Release D&#45;&gt;Release A -->
<g id="edge50" class="edge">
<title>Release D&#45;&gt;Release A</title>
<path fill="none" stroke="black" stroke-width="1.04" d="M1380.17,-239.19C1377.04,-254.32 1370.96,-276.45 1360.05,-293 1357.53,-296.83 1354.47,-300.49 1351.19,-303.91"/>
<polygon fill="black" stroke="black" stroke-width="1.04" points="1348.61,-301.54 1343.76,-310.96 1353.43,-306.62 1348.61,-301.54"/>
<text text-anchor="middle" x="1384.55" y="-271.3" font-family="Sans Not-Rotated 14" font-size="14.00"> &#160;&#160;&#160;</text>
</g>
<!-- Release D&#45;&gt;Release E -->
<g id="edge53" class="edge">
<title>Release D&#45;&gt;Release E</title>
<path fill="none" stroke="black" d="M1357.98,-202.84C1336.43,-186.77 1306.21,-160.8 1289.05,-131 1274.39,-105.54 1265.92,-72.78 1261.42,-50.04"/>
<polygon fill="black" stroke="black" points="1264.83,-49.26 1259.57,-40.07 1257.95,-50.54 1264.83,-49.26"/>
<text text-anchor="middle" x="1291.55" y="-109.3" font-family="Sans Not-Rotated 14" font-size="14.00"> </text>
</g>
<!-- Release D&#45;&gt;Release C -->
<g id="edge52" class="edge">
<title>Release D&#45;&gt;Release C</title>
<path fill="none" stroke="black" d="M1403.48,-202.65C1408.98,-197.35 1414.62,-191.26 1419.05,-185 1448.74,-143.11 1449.88,-127.33 1460.05,-77 1461.8,-68.32 1463.08,-58.75 1463.99,-50.11"/>
<polygon fill="black" stroke="black" points="1467.47,-50.43 1464.93,-40.14 1460.5,-49.77 1467.47,-50.43"/>
<text text-anchor="middle" x="1458.55" y="-109.3" font-family="Sans Not-Rotated 14" font-size="14.00"> </text>
</g>
<!-- Release D&#45;&gt;Release B -->
<g id="edge51" class="edge">
<title>Release D&#45;&gt;Release B</title>
<path fill="none" stroke="black" stroke-width="1" d="M1376.95,-202.97C1370.94,-186.22 1361.69,-160.41 1354.69,-140.89"/>
<polygon fill="black" stroke="black" stroke-width="1" points="1357.94,-139.57 1351.27,-131.34 1351.35,-141.94 1357.94,-139.57"/>
<text text-anchor="middle" x="1371.55" y="-163.3" font-family="Sans Not-Rotated 14" font-size="14.00"> </text>
</g>
<!-- CRP&#45;&gt;Leucocytes -->
<g id="edge24" class="edge">
<title>CRP&#45;&gt;Leucocytes</title>
<path fill="none" stroke="black" stroke-width="4.61" d="M736.72,-131.01C756.69,-146.98 783.78,-172.89 795.05,-203 809.13,-240.61 805.84,-257.51 787.05,-293 785.07,-296.75 782.52,-300.3 779.69,-303.61"/>
<polygon fill="black" stroke="black" stroke-width="4.61" points="776.74,-300.86 772.69,-310.85 782.54,-306.46 776.74,-300.86"/>
<text text-anchor="middle" x="839.55" y="-217.3" font-family="Sans Not-Rotated 14" font-size="14.00"> &#160;&#160;&#160;&#160;&#160;&#160;&#160;&#160;&#160;&#160;&#160;&#160;&#160;&#160;&#160;</text>
</g>
<!-- CRP&#45;&gt;LacticAcid -->
<g id="edge23" class="edge">
<title>CRP&#45;&gt;LacticAcid</title>
<path fill="none" stroke="black" stroke-width="2.51" d="M686.03,-122.65C673.67,-128.12 660.2,-136.56 653.05,-149 645.08,-162.87 647.38,-170.04 653.05,-185 654.33,-188.37 656.09,-191.62 658.14,-194.69"/>
<polygon fill="black" stroke="black" stroke-width="2.51" points="655.57,-197.09 664.47,-202.83 661.09,-192.79 655.57,-197.09"/>
<text text-anchor="middle" x="673.55" y="-163.3" font-family="Sans Not-Rotated 14" font-size="14.00"> &#160;&#160;&#160;&#160;&#160;&#160;&#160;&#160;</text>
</g>
<!-- CRP&#45;&gt;CRP -->
<g id="edge25" class="edge">
<title>CRP&#45;&gt;CRP</title>
<path fill="none" stroke="black" stroke-width="2.26" d="M740.29,-120.87C750.07,-121.04 758.05,-118.41 758.05,-113 758.05,-109.7 755.09,-107.44 750.56,-106.21"/>
<polygon fill="black" stroke="black" stroke-width="2.26" points="750.6,-102.7 740.29,-105.13 749.87,-109.66 750.6,-102.7"/>
<text text-anchor="middle" x="778.55" y="-109.3" font-family="Sans Not-Rotated 14" font-size="14.00"> &#160;&#160;&#160;&#160;&#160;&#160;&#160;&#160;</text>
</g>
<!-- CRP&#45;&gt;end -->
<g id="edge26" class="edge">
<title>CRP&#45;&gt;end</title>
<path fill="none" stroke="black" stroke-dasharray="5,2" d="M729.63,-94.84C743.1,-80.9 762.21,-61.13 776.97,-45.85"/>
<polygon fill="black" stroke="black" points="779.81,-47.95 784.24,-38.32 774.78,-43.08 779.81,-47.95"/>
<text text-anchor="middle" x="763.55" y="-65.8" font-family="Sans Not-Rotated 14" font-size="14.00"> </text>
</g>
<!-- Admission IC&#45;&gt;Admission NC -->
<g id="edge55" class="edge">
<title>Admission IC&#45;&gt;Admission NC</title>
<path fill="none" stroke="black" stroke-width="1.03" d="M1047.01,-239.32C1048.8,-244.91 1050.65,-251.18 1052.05,-257 1055.51,-271.39 1058.34,-287.65 1060.37,-300.97"/>
<polygon fill="black" stroke="black" stroke-width="1.03" points="1056.92,-301.55 1061.84,-310.94 1063.85,-300.54 1056.92,-301.55"/>
<text text-anchor="middle" x="1067.55" y="-271.3" font-family="Sans Not-Rotated 14" font-size="14.00"> &#160;&#160;&#160;</text>
</g>
<!-- Admission IC&#45;&gt;Admission IC -->
<g id="edge56" class="edge">
<title>Admission IC&#45;&gt;Admission IC</title>
<path fill="none" stroke="black" stroke-width="1.19" d="M1093.25,-230.71C1103.64,-229.61 1111.05,-226.38 1111.05,-221 1111.05,-217.55 1108.01,-214.99 1103.09,-213.3"/>
<polygon fill="black" stroke="black" stroke-width="1.19" points="1103.75,-209.86 1093.25,-211.29 1102.35,-216.72 1103.75,-209.86"/>
<text text-anchor="middle" x="1120.55" y="-217.3" font-family="Sans Not-Rotated 14" font-size="14.00"> &#160;&#160;&#160;</text>
</g>
<!-- Admission IC&#45;&gt;end -->
<g id="edge57" class="edge">
<title>Admission IC&#45;&gt;end</title>
<path fill="none" stroke="black" stroke-dasharray="5,2" d="M1039.06,-202.95C1034.3,-170.29 1019.17,-98.91 975.05,-62 953.49,-43.97 875.56,-32.04 830.96,-26.53"/>
<polygon fill="black" stroke="black" points="831.27,-23.04 820.92,-25.33 830.44,-29.99 831.27,-23.04"/>
<text text-anchor="middle" x="1021.55" y="-109.3" font-family="Sans Not-Rotated 14" font-size="14.00"> </text>
</g>
<!-- Release C&#45;&gt;Release A -->
<g id="edge46" class="edge">
<title>Release C&#45;&gt;Release A</title>
<path fill="none" stroke="black" stroke-width="1.04" d="M1478.24,-40.11C1482.33,-46.66 1486.5,-54.4 1489.05,-62 1501.43,-98.9 1496.82,-110.14 1499.05,-149 1502.88,-215.81 1506.43,-250.12 1455.05,-293 1431.97,-312.26 1399.53,-321.07 1372.24,-325.04"/>
<polygon fill="black" stroke="black" stroke-width="1.04" points="1371.53,-321.6 1362.06,-326.33 1372.42,-328.54 1371.53,-321.6"/>
<text text-anchor="middle" x="1509.55" y="-163.3" font-family="Sans Not-Rotated 14" font-size="14.00"> &#160;&#160;&#160;</text>
</g>
<!-- Release C&#45;&gt;Release D -->
<g id="edge47" class="edge">
<title>Release C&#45;&gt;Release D</title>
<path fill="none" stroke="black" stroke-width="1" d="M1458.79,-40.24C1444.25,-74.74 1411.49,-152.49 1394.21,-193.51"/>
<polygon fill="black" stroke="black" stroke-width="1" points="1390.93,-192.29 1390.27,-202.86 1397.38,-195.01 1390.93,-192.29"/>
<text text-anchor="middle" x="1437.55" y="-109.3" font-family="Sans Not-Rotated 14" font-size="14.00"> </text>
</g>
<!-- Release C&#45;&gt;Release C -->
<g id="edge48" class="edge">
<title>Release C&#45;&gt;Release C</title>
<path fill="none" stroke="black" stroke-width="1" d="M1508.11,-30.49C1518.39,-29.86 1526.05,-27.03 1526.05,-22 1526.05,-18.86 1523.06,-16.57 1518.31,-15.15"/>
<polygon fill="black" stroke="black" stroke-width="1" points="1518.53,-11.64 1508.11,-13.51 1517.43,-18.55 1518.53,-11.64"/>
<text text-anchor="middle" x="1528.55" y="-18.3" font-family="Sans Not-Rotated 14" font-size="14.00"> </text>
</g>
<!-- Release C&#45;&gt;Release B -->
<g id="edge49" class="edge">
<title>Release C&#45;&gt;Release B</title>
<path fill="none" stroke="black" d="M1424,-38.92C1410.8,-45.01 1396.65,-52.76 1385.05,-62 1376.44,-68.85 1368.51,-77.89 1362.02,-86.38"/>
<polygon fill="black" stroke="black" points="1359.09,-84.46 1356.03,-94.6 1364.75,-88.58 1359.09,-84.46"/>
<text text-anchor="middle" x="1387.55" y="-65.8" font-family="Sans Not-Rotated 14" font-size="14.00"> </text>
</g>
<!-- ER Registration&#45;&gt;IV Antibiotics -->
<g id="edge6" class="edge">
<title>ER Registration&#45;&gt;IV Antibiotics</title>
<path fill="none" stroke="black" d="M126.88,-26.08C100.12,-30.68 70.74,-40.73 52.05,-62 -15.72,-139.12 -18.73,-218.64 52.05,-293 71.05,-312.96 140.29,-321.56 193.1,-325.25"/>
<polygon fill="black" stroke="black" points="192.87,-328.75 203.08,-325.91 193.33,-321.76 192.87,-328.75"/>
<text text-anchor="middle" x="6.55" y="-163.3" font-family="Sans Not-Rotated 14" font-size="14.00"> </text>
</g>
<!-- ER Registration&#45;&gt;IV Liquid -->
<g id="edge4" class="edge">
<title>ER Registration&#45;&gt;IV Liquid</title>
<path fill="none" stroke="black" stroke-width="1.08" d="M187.1,-40.09C184.06,-69.71 179.12,-132.44 185.05,-185 185.34,-187.55 185.74,-190.18 186.21,-192.8"/>
<polygon fill="black" stroke="black" stroke-width="1.08" points="182.81,-193.62 188.28,-202.69 189.66,-192.18 182.81,-193.62"/>
<text text-anchor="middle" x="192.55" y="-109.3" font-family="Sans Not-Rotated 14" font-size="14.00"> &#160;&#160;&#160;</text>
</g>
<!-- ER Registration&#45;&gt;ER Registration -->
<g id="edge5" class="edge">
<title>ER Registration&#45;&gt;ER Registration</title>
<path fill="none" stroke="black" stroke-width="1.01" d="M251.11,-30.05C261.71,-28.95 269.05,-26.27 269.05,-22 269.05,-19.27 266.04,-17.18 261.08,-15.75"/>
<polygon fill="black" stroke="black" stroke-width="1.01" points="261.57,-12.28 251.11,-13.95 260.33,-19.17 261.57,-12.28"/>
<text text-anchor="middle" x="271.55" y="-18.3" font-family="Sans Not-Rotated 14" font-size="14.00"> </text>
</g>
<!-- ER Registration&#45;&gt;ER Sepsis Triage -->
<g id="edge3" class="edge">
<title>ER Registration&#45;&gt;ER Sepsis Triage</title>
<path fill="none" stroke="black" stroke-width="2.96" d="M236.7,-40.2C247.96,-45.88 259.23,-53.08 268.05,-62 274.47,-68.5 279.43,-77.04 283.13,-85.23"/>
<polygon fill="black" stroke="black" stroke-width="2.96" points="279.9,-86.58 286.9,-94.53 286.39,-83.95 279.9,-86.58"/>
<text text-anchor="middle" x="315.55" y="-65.8" font-family="Sans Not-Rotated 14" font-size="14.00"> &#160;&#160;&#160;&#160;&#160;&#160;&#160;&#160;&#160;&#160;&#160;&#160;&#160;&#160;&#160;</text>
</g>
<!-- ER Sepsis Triage&#45;&gt;IV Antibiotics -->
<g id="edge8" class="edge">
<title>ER Sepsis Triage&#45;&gt;IV Antibiotics</title>
<path fill="none" stroke="black" stroke-width="1.41" d="M304.94,-131.31C308.25,-136.7 311.35,-142.85 313.05,-149 330.16,-210.77 336.19,-236.98 305.05,-293 302.79,-297.06 299.84,-300.78 296.51,-304.15"/>
<polygon fill="black" stroke="black" stroke-width="1.41" points="293.94,-301.74 288.73,-310.97 298.56,-307.01 293.94,-301.74"/>
<text text-anchor="middle" x="347.55" y="-217.3" font-family="Sans Not-Rotated 14" font-size="14.00"> &#160;&#160;&#160;&#160;&#160;&#160;&#160;&#160;</text>
</g>
<!-- ER Sepsis Triage&#45;&gt;IV Liquid -->
<g id="edge7" class="edge">
<title>ER Sepsis Triage&#45;&gt;IV Liquid</title>
<path fill="none" stroke="black" stroke-width="2.2" d="M264.95,-131.07C257.71,-136.33 250.2,-142.46 244.05,-149 231.04,-162.83 232.11,-169.57 221.05,-185 218.72,-188.25 216.2,-191.61 213.65,-194.9"/>
<polygon fill="black" stroke="black" stroke-width="2.2" points="210.84,-192.82 207.38,-202.83 216.33,-197.16 210.84,-192.82"/>
<text text-anchor="middle" x="264.55" y="-163.3" font-family="Sans Not-Rotated 14" font-size="14.00"> &#160;&#160;&#160;&#160;&#160;&#160;&#160;&#160;</text>
</g>
<!-- ER Sepsis Triage&#45;&gt;ER Registration -->
<g id="edge9" class="edge">
<title>ER Sepsis Triage&#45;&gt;ER Registration</title>
<path fill="none" stroke="black" stroke-width="1.43" d="M249.23,-94.81C239.98,-89.91 230.69,-83.97 223.05,-77 214.49,-69.2 207.25,-58.76 201.68,-49.14"/>
<polygon fill="black" stroke="black" stroke-width="1.43" points="204.71,-47.39 196.86,-40.28 198.56,-50.73 204.71,-47.39"/>
<text text-anchor="middle" x="243.55" y="-65.8" font-family="Sans Not-Rotated 14" font-size="14.00"> &#160;&#160;&#160;&#160;&#160;&#160;&#160;&#160;</text>
</g>
<!-- ER Sepsis Triage&#45;&gt;ER Sepsis Triage -->
<g id="edge10" class="edge">
<title>ER Sepsis Triage&#45;&gt;ER Sepsis Triage</title>
<path fill="none" stroke="black" stroke-width="1" d="M357.86,-120.25C368.36,-119.19 375.55,-116.77 375.55,-113 375.55,-110.58 372.6,-108.72 367.72,-107.42"/>
<polygon fill="black" stroke="black" stroke-width="1" points="368.3,-103.97 357.86,-105.75 367.13,-110.87 368.3,-103.97"/>
<text text-anchor="middle" x="378.05" y="-109.3" font-family="Sans Not-Rotated 14" font-size="14.00"> </text>
</g>
<!-- ER Sepsis Triage&#45;&gt;end -->
<g id="edge11" class="edge">
<title>ER Sepsis Triage&#45;&gt;end</title>
<path fill="none" stroke="black" stroke-dasharray="5,2" d="M335.01,-94.96C364.64,-83.89 405.18,-70.06 442.05,-62 560.09,-36.19 703.99,-27.11 766.96,-24.22"/>
<polygon fill="black" stroke="black" points="767.22,-27.71 777.06,-23.78 766.91,-20.72 767.22,-27.71"/>
<text text-anchor="middle" x="444.55" y="-65.8" font-family="Sans Not-Rotated 14" font-size="14.00"> </text>
</g>
<!-- Release B&#45;&gt;Release A -->
<g id="edge41" class="edge">
<title>Release B&#45;&gt;Release A</title>
<path fill="none" stroke="black" stroke-width="1.08" d="M1336.57,-131.21C1328.43,-148.77 1316.71,-177.05 1312.05,-203 1306.07,-236.34 1310.33,-275.38 1314.58,-300.84"/>
<polygon fill="black" stroke="black" stroke-width="1.08" points="1311.17,-301.64 1316.37,-310.87 1318.06,-300.41 1311.17,-301.64"/>
<text text-anchor="middle" x="1321.55" y="-217.3" font-family="Sans Not-Rotated 14" font-size="14.00"> &#160;&#160;&#160;</text>
</g>
<!-- Release B&#45;&gt;Release E -->
<g id="edge45" class="edge">
<title>Release B&#45;&gt;Release E</title>
<path fill="none" stroke="black" d="M1328.08,-94.84C1314.81,-81.42 1296.19,-62.58 1281.34,-47.56"/>
<polygon fill="black" stroke="black" points="1283.49,-44.76 1273.97,-40.11 1278.51,-49.68 1283.49,-44.76"/>
<text text-anchor="middle" x="1310.55" y="-65.8" font-family="Sans Not-Rotated 14" font-size="14.00"> </text>
</g>
<!-- Release B&#45;&gt;Release D -->
<g id="edge43" class="edge">
<title>Release B&#45;&gt;Release D</title>
<path fill="none" stroke="black" stroke-width="1" d="M1343.85,-131.09C1343.46,-145.95 1344.52,-167.75 1352.05,-185 1353.53,-188.4 1355.48,-191.7 1357.66,-194.83"/>
<polygon fill="black" stroke="black" stroke-width="1" points="1354.93,-197.01 1363.89,-202.66 1360.41,-192.65 1354.93,-197.01"/>
<text text-anchor="middle" x="1354.55" y="-163.3" font-family="Sans Not-Rotated 14" font-size="14.00"> </text>
</g>
<!-- Release B&#45;&gt;Release C -->
<g id="edge44" class="edge">
<title>Release B&#45;&gt;Release C</title>
<path fill="none" stroke="black" stroke-width="1.01" d="M1368.38,-94.84C1387.21,-80.99 1413.89,-61.37 1434.61,-46.13"/>
<polygon fill="black" stroke="black" stroke-width="1.01" points="1436.81,-48.85 1442.79,-40.11 1432.66,-43.21 1436.81,-48.85"/>
<text text-anchor="middle" x="1414.55" y="-65.8" font-family="Sans Not-Rotated 14" font-size="14.00"> </text>
</g>
<!-- Release B&#45;&gt;Release B -->
<g id="edge42" class="edge">
<title>Release B&#45;&gt;Release B</title>
<path fill="none" stroke="black" stroke-width="1.01" d="M1387.11,-120.75C1397.39,-120.18 1405.05,-117.59 1405.05,-113 1405.05,-110.13 1402.06,-108.04 1397.31,-106.74"/>
<polygon fill="black" stroke="black" stroke-width="1.01" points="1397.51,-103.23 1387.11,-105.25 1396.49,-110.16 1397.51,-103.23"/>
<text text-anchor="middle" x="1407.55" y="-109.3" font-family="Sans Not-Rotated 14" font-size="14.00"> </text>
</g>
<!-- start -->
<g id="node17" class="node">
<title>start</title>
<ellipse fill="#95d600" stroke="black" cx="923.05" cy="-425.3" rx="27.1" ry="27.1"/>
<text text-anchor="middle" x="923.05" y="-421.6" font-family="Sans Not-Rotated 14" font-size="14.00">start</text>
</g>
<!-- start&#45;&gt;ER Triage -->
<g id="edge61" class="edge">
<title>start&#45;&gt;ER Triage</title>
<path fill="none" stroke="black" stroke-dasharray="5,2" d="M897.2,-415.87C854.68,-401.95 767.39,-373.07 694.05,-347 646.79,-330.2 593.31,-310.12 555.15,-295.6"/>
<polygon fill="black" stroke="black" points="556.39,-292.33 545.79,-292.04 553.89,-298.87 556.39,-292.33"/>
<text text-anchor="middle" x="790.55" y="-368.8" font-family="Sans Not-Rotated 14" font-size="14.00"> </text>
</g>
<!-- start&#45;&gt;Leucocytes -->
<g id="edge60" class="edge">
<title>start&#45;&gt;Leucocytes</title>
<path fill="none" stroke="black" stroke-dasharray="5,2" d="M899.22,-411.38C871.06,-396.12 823.74,-370.48 789.74,-352.05"/>
<polygon fill="black" stroke="black" points="790.99,-348.75 780.53,-347.06 787.66,-354.9 790.99,-348.75"/>
<text text-anchor="middle" x="843.55" y="-368.8" font-family="Sans Not-Rotated 14" font-size="14.00"> </text>
</g>
<!-- start&#45;&gt;Return ER -->
<g id="edge58" class="edge">
<title>start&#45;&gt;Return ER</title>
<path fill="none" stroke="black" stroke-dasharray="5,2" d="M923.71,-397.97C923.62,-354.22 918.26,-265.2 880.05,-203 877.65,-199.1 874.66,-195.47 871.35,-192.13"/>
<polygon fill="black" stroke="black" points="873.52,-189.38 863.74,-185.32 868.85,-194.59 873.52,-189.38"/>
<text text-anchor="middle" x="923.55" y="-325.3" font-family="Sans Not-Rotated 14" font-size="14.00"> </text>
</g>
<!-- start&#45;&gt;Release A -->
<g id="edge63" class="edge">
<title>start&#45;&gt;Release A</title>
<path fill="none" stroke="black" stroke-dasharray="5,2" d="M949.41,-418.04C1014.21,-402.65 1182.26,-362.73 1268.03,-342.36"/>
<polygon fill="black" stroke="black" points="1268.9,-345.75 1277.82,-340.03 1267.28,-338.94 1268.9,-345.75"/>
<text text-anchor="middle" x="1170.55" y="-368.8" font-family="Sans Not-Rotated 14" font-size="14.00"> </text>
</g>
<!-- start&#45;&gt;Admission NC -->
<g id="edge62" class="edge">
<title>start&#45;&gt;Admission NC</title>
<path fill="none" stroke="black" stroke-dasharray="5,2" d="M946.82,-411.76C962.31,-403.31 982.78,-391.63 1000.05,-380 1012.07,-371.9 1024.76,-362.25 1035.64,-353.59"/>
<polygon fill="black" stroke="black" points="1037.97,-356.2 1043.57,-347.21 1033.58,-350.75 1037.97,-356.2"/>
<text text-anchor="middle" x="1028.55" y="-368.8" font-family="Sans Not-Rotated 14" font-size="14.00"> &#160;&#160;&#160;</text>
</g>
<!-- start&#45;&gt;Admission IC -->
<g id="edge64" class="edge">
<title>start&#45;&gt;Admission IC</title>
<path fill="none" stroke="black" stroke-dasharray="5,2" d="M936.59,-401.09C958.78,-363.04 1002.75,-287.66 1025.93,-247.92"/>
<polygon fill="black" stroke="black" points="1029.07,-249.49 1031.09,-239.08 1023.02,-245.96 1029.07,-249.49"/>
<text text-anchor="middle" x="989.55" y="-325.3" font-family="Sans Not-Rotated 14" font-size="14.00"> </text>
</g>
<!-- start&#45;&gt;ER Registration -->
<g id="edge59" class="edge">
<title>start&#45;&gt;ER Registration</title>
<path fill="none" stroke="black" stroke-dasharray="5,2" d="M895.75,-424.74C794.61,-425.67 447.05,-422.14 447.05,-330 447.05,-330 447.05,-330 447.05,-166 447.05,-118.46 456.82,-94.42 422.05,-62 399.19,-40.68 320.94,-30.93 261.37,-26.52"/>
<polygon fill="black" stroke="black" points="261.46,-23.02 251.24,-25.81 260.97,-30 261.46,-23.02"/>
<text text-anchor="middle" x="449.55" y="-217.3" font-family="Sans Not-Rotated 14" font-size="14.00"> </text>
</g>
</g>
</svg>
