<?xml version="1.0" encoding="UTF-8" standalone="no"?>
<!DOCTYPE svg PUBLIC "-//W3C//DTD SVG 1.1//EN"
 "http://www.w3.org/Graphics/SVG/1.1/DTD/svg11.dtd">
<!-- Generated by graphviz version 3.0.0 (20220226.1711)
 -->
<!-- Pages: 1 -->
<svg width="1065pt" height="635pt"
 viewBox="0.00 0.00 1064.64 634.60" xmlns="http://www.w3.org/2000/svg" xmlns:xlink="http://www.w3.org/1999/xlink">
<g id="graph0" class="graph" transform="scale(1 1) rotate(0) translate(4 630.6)">
<polygon fill="white" stroke="transparent" points="-4,4 -4,-630.6 1060.64,-630.6 1060.64,4 -4,4"/>
<!-- IV Antibiotics -->
<g id="node1" class="node">
<title>IV Antibiotics</title>
<polygon fill="#c0bde9" stroke="black" points="304.14,-626.6 197.14,-626.6 197.14,-590.6 304.14,-590.6 304.14,-626.6"/>
<text text-anchor="middle" x="250.64" y="-604.9" font-family="Sans Not-Rotated 14" font-size="14.00">IV Antibiotics</text>
</g>
<!-- IV Liquid -->
<g id="node2" class="node">
<title>IV Liquid</title>
<polygon fill="#c0bde9" stroke="black" points="195.14,-539.6 118.14,-539.6 118.14,-503.6 195.14,-503.6 195.14,-539.6"/>
<text text-anchor="middle" x="156.64" y="-517.9" font-family="Sans Not-Rotated 14" font-size="14.00">IV Liquid</text>
</g>
<!-- IV Antibiotics&#45;&gt;IV Liquid -->
<g id="edge9" class="edge">
<title>IV Antibiotics&#45;&gt;IV Liquid</title>
<path fill="none" stroke="black" stroke-width="1.19" d="M196.93,-600.46C180.3,-595.45 163.73,-586.95 153.64,-572.6 149.06,-566.06 148.14,-557.79 148.86,-549.86"/>
<polygon fill="black" stroke="black" stroke-width="1.19" points="152.34,-550.26 150.57,-539.81 145.44,-549.08 152.34,-550.26"/>
<text text-anchor="middle" x="163.14" y="-561.4" font-family="Sans Not-Rotated 14" font-size="14.00"> &#160;&#160;&#160;</text>
</g>
<!-- ER Registration -->
<g id="node14" class="node">
<title>ER Registration</title>
<polygon fill="#a09dde" stroke="black" points="231.64,-347 107.64,-347 107.64,-311 231.64,-311 231.64,-347"/>
<text text-anchor="middle" x="169.64" y="-325.3" font-family="Sans Not-Rotated 14" font-size="14.00">ER Registration</text>
</g>
<!-- IV Antibiotics&#45;&gt;ER Registration -->
<g id="edge35" class="edge">
<title>IV Antibiotics&#45;&gt;ER Registration</title>
<path fill="none" stroke="black" stroke-width="2.4" d="M258.86,-590.46C264.85,-576.98 272.45,-557.55 275.64,-539.6 286.82,-476.83 284.02,-453.5 252.64,-398 242.26,-379.63 224.82,-364.21 208.6,-352.72"/>
<polygon fill="black" stroke="black" stroke-width="2.4" points="210.51,-349.79 200.27,-347.07 206.58,-355.58 210.51,-349.79"/>
<text text-anchor="middle" x="302.14" y="-474.4" font-family="Sans Not-Rotated 14" font-size="14.00"> &#160;&#160;&#160;&#160;&#160;&#160;&#160;&#160;</text>
</g>
<!-- end -->
<g id="node18" class="node">
<title>end</title>
<ellipse fill="#ea4126" stroke="black" cx="624.64" cy="-22" rx="18" ry="18"/>
<ellipse fill="none" stroke="black" cx="624.64" cy="-22" rx="22" ry="22"/>
</g>
<!-- IV Antibiotics&#45;&gt;end -->
<g id="edge49" class="edge">
<title>IV Antibiotics&#45;&gt;end</title>
<path fill="none" stroke="black" stroke-dasharray="5,2" d="M304.44,-607.54C484.04,-606.67 1051.64,-597.94 1051.64,-522.6 1051.64,-522.6 1051.64,-522.6 1051.64,-112 1051.64,-31.36 756.07,-23.3 656.75,-22.86"/>
<polygon fill="black" stroke="black" points="656.71,-19.36 646.7,-22.84 656.69,-26.36 656.71,-19.36"/>
<text text-anchor="middle" x="1054.14" y="-325.3" font-family="Sans Not-Rotated 14" font-size="14.00"> </text>
</g>
<!-- IV Liquid&#45;&gt;IV Antibiotics -->
<g id="edge10" class="edge">
<title>IV Liquid&#45;&gt;IV Antibiotics</title>
<path fill="none" stroke="black" stroke-width="2.19" d="M167.99,-540.01C175.16,-550.23 185.05,-562.97 195.64,-572.6 200.37,-576.89 205.69,-580.99 211.1,-584.78"/>
<polygon fill="black" stroke="black" stroke-width="2.19" points="209.36,-587.82 219.62,-590.45 213.24,-582 209.36,-587.82"/>
<text text-anchor="middle" x="216.14" y="-561.4" font-family="Sans Not-Rotated 14" font-size="14.00"> &#160;&#160;&#160;&#160;&#160;&#160;&#160;&#160;</text>
</g>
<!-- IV Liquid&#45;&gt;ER Registration -->
<g id="edge34" class="edge">
<title>IV Liquid&#45;&gt;ER Registration</title>
<path fill="none" stroke="black" stroke-width="1.2" d="M176.1,-503.51C181.15,-498.21 186.14,-492.06 189.64,-485.6 196.84,-472.33 195.54,-467.54 197.64,-452.6 203.06,-414.02 214.45,-401.42 200.64,-365 199.37,-361.63 197.6,-358.38 195.56,-355.31"/>
<polygon fill="black" stroke="black" stroke-width="1.2" points="198.13,-352.91 189.22,-347.17 192.6,-357.21 198.13,-352.91"/>
<text text-anchor="middle" x="228.14" y="-421.6" font-family="Sans Not-Rotated 14" font-size="14.00"> &#160;&#160;&#160;&#160;&#160;&#160;&#160;&#160;</text>
</g>
<!-- ER Sepsis Triage -->
<g id="node15" class="node">
<title>ER Sepsis Triage</title>
<polygon fill="#a09dde" stroke="black" points="189.14,-443.3 58.14,-443.3 58.14,-407.3 189.14,-407.3 189.14,-443.3"/>
<text text-anchor="middle" x="123.64" y="-421.6" font-family="Sans Not-Rotated 14" font-size="14.00">ER Sepsis Triage</text>
</g>
<!-- IV Liquid&#45;&gt;ER Sepsis Triage -->
<g id="edge1" class="edge">
<title>IV Liquid&#45;&gt;ER Sepsis Triage</title>
<path fill="none" stroke="black" stroke-width="1.07" d="M131.94,-503.4C126.56,-498.34 121.6,-492.33 118.64,-485.6 114.26,-475.59 114.35,-463.73 115.96,-453.26"/>
<polygon fill="black" stroke="black" stroke-width="1.07" points="119.41,-453.87 117.98,-443.37 112.55,-452.47 119.41,-453.87"/>
<text text-anchor="middle" x="128.14" y="-474.4" font-family="Sans Not-Rotated 14" font-size="14.00"> &#160;&#160;&#160;</text>
</g>
<!-- ER Triage -->
<g id="node3" class="node">
<title>ER Triage</title>
<polygon fill="#a09dde" stroke="black" points="680.14,-293 597.14,-293 597.14,-257 680.14,-257 680.14,-293"/>
<text text-anchor="middle" x="638.64" y="-271.3" font-family="Sans Not-Rotated 14" font-size="14.00">ER Triage</text>
</g>
<!-- ER Triage&#45;&gt;end -->
<g id="edge43" class="edge">
<title>ER Triage&#45;&gt;end</title>
<path fill="none" stroke="black" stroke-dasharray="5,2" d="M636.56,-256.97C634.46,-239.08 631.3,-210.1 629.64,-185 626.66,-139.72 625.45,-87.2 624.96,-54.53"/>
<polygon fill="black" stroke="black" points="628.46,-54.2 624.83,-44.25 621.46,-54.3 628.46,-54.2"/>
<text text-anchor="middle" x="632.14" y="-163.3" font-family="Sans Not-Rotated 14" font-size="14.00"> </text>
</g>
<!-- Leucocytes -->
<g id="node4" class="node">
<title>Leucocytes</title>
<polygon fill="#1d2559" stroke="black" points="854.14,-347 761.14,-347 761.14,-311 854.14,-311 854.14,-347"/>
<text text-anchor="middle" x="807.64" y="-325.3" font-family="Sans Not-Rotated 14" font-size="14.00" fill="white">Leucocytes</text>
</g>
<!-- LacticAcid -->
<g id="node5" class="node">
<title>LacticAcid</title>
<polygon fill="#7d7fd2" stroke="black" points="914.14,-239 829.14,-239 829.14,-203 914.14,-203 914.14,-239"/>
<text text-anchor="middle" x="871.64" y="-217.3" font-family="Sans Not-Rotated 14" font-size="14.00">LacticAcid</text>
</g>
<!-- Leucocytes&#45;&gt;LacticAcid -->
<g id="edge12" class="edge">
<title>Leucocytes&#45;&gt;LacticAcid</title>
<path fill="none" stroke="black" stroke-width="2.08" d="M833.05,-310.81C839.18,-305.68 845.22,-299.63 849.64,-293 858.37,-279.91 863.78,-263.19 867.05,-249.26"/>
<polygon fill="black" stroke="black" stroke-width="2.08" points="870.52,-249.76 869.15,-239.26 863.66,-248.32 870.52,-249.76"/>
<text text-anchor="middle" x="885.14" y="-271.3" font-family="Sans Not-Rotated 14" font-size="14.00"> &#160;&#160;&#160;&#160;&#160;&#160;&#160;&#160;</text>
</g>
<!-- CRP -->
<g id="node11" class="node">
<title>CRP</title>
<polygon fill="#1d2559" stroke="black" points="834.64,-131 780.64,-131 780.64,-95 834.64,-95 834.64,-131"/>
<text text-anchor="middle" x="807.64" y="-109.3" font-family="Sans Not-Rotated 14" font-size="14.00" fill="white">CRP</text>
</g>
<!-- Leucocytes&#45;&gt;CRP -->
<g id="edge13" class="edge">
<title>Leucocytes&#45;&gt;CRP</title>
<path fill="none" stroke="black" stroke-width="5" d="M790.1,-310.88C768.26,-287.41 735.26,-243.52 747.64,-203 754.99,-178.96 771.26,-155.53 785.01,-138.76"/>
<polygon fill="black" stroke="black" stroke-width="5" points="788.38,-141.54 791.5,-131.08 781.7,-135.89 788.38,-141.54"/>
<text text-anchor="middle" x="784.14" y="-217.3" font-family="Sans Not-Rotated 14" font-size="14.00"> &#160;&#160;&#160;&#160;&#160;&#160;&#160;&#160;&#160;&#160;&#160;&#160;&#160;&#160;&#160;</text>
</g>
<!-- LacticAcid&#45;&gt;Leucocytes -->
<g id="edge4" class="edge">
<title>LacticAcid&#45;&gt;Leucocytes</title>
<path fill="none" stroke="black" stroke-width="2.47" d="M828.92,-237.67C820.86,-242.61 813.46,-248.95 808.64,-257 800.88,-269.98 800.33,-286.84 801.86,-300.86"/>
<polygon fill="black" stroke="black" stroke-width="2.47" points="798.42,-301.55 803.35,-310.93 805.35,-300.52 798.42,-301.55"/>
<text text-anchor="middle" x="829.14" y="-271.3" font-family="Sans Not-Rotated 14" font-size="14.00"> &#160;&#160;&#160;&#160;&#160;&#160;&#160;&#160;</text>
</g>
<!-- LacticAcid&#45;&gt;CRP -->
<g id="edge8" class="edge">
<title>LacticAcid&#45;&gt;CRP</title>
<path fill="none" stroke="black" stroke-width="2.12" d="M828.94,-206.42C819.31,-201.27 810.29,-194.32 804.64,-185 796.8,-172.05 797.16,-155.2 799.67,-141.17"/>
<polygon fill="black" stroke="black" stroke-width="2.12" points="803.16,-141.61 801.91,-131.09 796.32,-140.1 803.16,-141.61"/>
<text text-anchor="middle" x="825.14" y="-163.3" font-family="Sans Not-Rotated 14" font-size="14.00"> &#160;&#160;&#160;&#160;&#160;&#160;&#160;&#160;</text>
</g>
<!-- Return ER -->
<g id="node6" class="node">
<title>Return ER</title>
<polygon fill="#ffffff" stroke="black" points="722.64,-185 634.64,-185 634.64,-149 722.64,-149 722.64,-185"/>
<text text-anchor="middle" x="678.64" y="-163.3" font-family="Sans Not-Rotated 14" font-size="14.00">Return ER</text>
</g>
<!-- Return ER&#45;&gt;end -->
<g id="edge44" class="edge">
<title>Return ER&#45;&gt;end</title>
<path fill="none" stroke="black" stroke-dasharray="5,2" d="M672.13,-148.75C663.15,-124.96 646.82,-81.74 635.86,-52.69"/>
<polygon fill="black" stroke="black" points="639.03,-51.19 632.22,-43.07 632.48,-53.66 639.03,-51.19"/>
<text text-anchor="middle" x="667.14" y="-109.3" font-family="Sans Not-Rotated 14" font-size="14.00"> </text>
</g>
<!-- Release A -->
<g id="node7" class="node">
<title>Release A</title>
<polygon fill="#e0ddf4" stroke="black" points="333.64,-347 249.64,-347 249.64,-311 333.64,-311 333.64,-347"/>
<text text-anchor="middle" x="291.64" y="-325.3" font-family="Sans Not-Rotated 14" font-size="14.00">Release A</text>
</g>
<!-- Release E -->
<g id="node8" class="node">
<title>Release E</title>
<polygon fill="#ffffff" stroke="black" points="360.14,-40 277.14,-40 277.14,-4 360.14,-4 360.14,-40"/>
<text text-anchor="middle" x="318.64" y="-18.3" font-family="Sans Not-Rotated 14" font-size="14.00">Release E</text>
</g>
<!-- Release A&#45;&gt;Release E -->
<g id="edge23" class="edge">
<title>Release A&#45;&gt;Release E</title>
<path fill="none" stroke="black" stroke-width="1.01" d="M306.44,-310.83C310.36,-305.44 314.18,-299.25 316.64,-293 325.5,-270.48 321.3,-263.09 323.64,-239 330.61,-167.23 331.31,-149.1 332.64,-77 332.77,-70.33 333.79,-68.57 332.64,-62 331.94,-57.97 330.86,-53.8 329.6,-49.76"/>
<polygon fill="black" stroke="black" stroke-width="1.01" points="332.84,-48.41 326.23,-40.12 326.23,-50.72 332.84,-48.41"/>
<text text-anchor="middle" x="334.14" y="-163.3" font-family="Sans Not-Rotated 14" font-size="14.00"> </text>
</g>
<!-- Release D -->
<g id="node10" class="node">
<title>Release D</title>
<polygon fill="#ffffff" stroke="black" points="200.64,-239 114.64,-239 114.64,-203 200.64,-203 200.64,-239"/>
<text text-anchor="middle" x="157.64" y="-217.3" font-family="Sans Not-Rotated 14" font-size="14.00">Release D</text>
</g>
<!-- Release A&#45;&gt;Release D -->
<g id="edge27" class="edge">
<title>Release A&#45;&gt;Release D</title>
<path fill="none" stroke="black" stroke-width="1.04" d="M249.45,-313.54C246.48,-312.65 243.52,-311.79 240.64,-311 204.24,-301.02 181.34,-322.38 157.64,-293 147.93,-280.95 147.74,-263.65 150.07,-249.14"/>
<polygon fill="black" stroke="black" stroke-width="1.04" points="153.54,-249.68 152.12,-239.19 146.68,-248.28 153.54,-249.68"/>
<text text-anchor="middle" x="167.14" y="-271.3" font-family="Sans Not-Rotated 14" font-size="14.00"> &#160;&#160;&#160;</text>
</g>
<!-- Release C -->
<g id="node13" class="node">
<title>Release C</title>
<polygon fill="#ffffff" stroke="black" points="177.64,-40 93.64,-40 93.64,-4 177.64,-4 177.64,-40"/>
<text text-anchor="middle" x="135.64" y="-18.3" font-family="Sans Not-Rotated 14" font-size="14.00">Release C</text>
</g>
<!-- Release A&#45;&gt;Release C -->
<g id="edge30" class="edge">
<title>Release A&#45;&gt;Release C</title>
<path fill="none" stroke="black" stroke-width="1.03" d="M249.47,-313.46C246.5,-312.58 243.53,-311.75 240.64,-311 199.05,-300.18 182.05,-315.84 145.64,-293 120.34,-277.13 115,-267.36 105.64,-239 83.94,-173.24 108.57,-91.17 124.4,-49.68"/>
<polygon fill="black" stroke="black" stroke-width="1.03" points="127.69,-50.86 128.1,-40.28 121.18,-48.3 127.69,-50.86"/>
<text text-anchor="middle" x="109.14" y="-163.3" font-family="Sans Not-Rotated 14" font-size="14.00"> &#160;&#160;&#160;</text>
</g>
<!-- Release B -->
<g id="node16" class="node">
<title>Release B</title>
<polygon fill="#ffffff" stroke="black" points="262.64,-131 178.64,-131 178.64,-95 262.64,-95 262.64,-131"/>
<text text-anchor="middle" x="220.64" y="-109.3" font-family="Sans Not-Rotated 14" font-size="14.00">Release B</text>
</g>
<!-- Release A&#45;&gt;Release B -->
<g id="edge38" class="edge">
<title>Release A&#45;&gt;Release B</title>
<path fill="none" stroke="black" stroke-width="1.09" d="M289.95,-310.71C287.26,-286.29 281.09,-240.51 269.64,-203 261.98,-177.88 258.68,-171.8 245.64,-149 243.89,-145.92 241.92,-142.79 239.89,-139.72"/>
<polygon fill="black" stroke="black" stroke-width="1.09" points="242.66,-137.57 234.08,-131.34 236.9,-141.56 242.66,-137.57"/>
<text text-anchor="middle" x="289.14" y="-217.3" font-family="Sans Not-Rotated 14" font-size="14.00"> &#160;&#160;&#160;</text>
</g>
<!-- Release A&#45;&gt;end -->
<g id="edge45" class="edge">
<title>Release A&#45;&gt;end</title>
<path fill="none" stroke="black" stroke-dasharray="5,2" d="M314.02,-310.77C320.81,-305.28 328.18,-299.06 334.64,-293 436.72,-197.26 437.13,-146.57 548.64,-62 562.89,-51.19 580.58,-41.91 595.31,-35.12"/>
<polygon fill="black" stroke="black" points="596.78,-38.3 604.49,-31.03 593.93,-31.9 596.78,-38.3"/>
<text text-anchor="middle" x="460.14" y="-163.3" font-family="Sans Not-Rotated 14" font-size="14.00"> </text>
</g>
<!-- Release E&#45;&gt;Release A -->
<g id="edge11" class="edge">
<title>Release E&#45;&gt;Release A</title>
<path fill="none" stroke="black" stroke-width="1.01" d="M318.61,-40.03C318.52,-50.67 318.27,-64.64 317.64,-77 312.75,-173.21 314.41,-197.81 299.64,-293 299.25,-295.53 298.78,-298.16 298.26,-300.77"/>
<polygon fill="black" stroke="black" stroke-width="1.01" points="294.82,-300.13 296.12,-310.65 301.66,-301.61 294.82,-300.13"/>
<text text-anchor="middle" x="317.14" y="-163.3" font-family="Sans Not-Rotated 14" font-size="14.00"> </text>
</g>
<!-- Admission NC -->
<g id="node9" class="node">
<title>Admission NC</title>
<polygon fill="#a09dde" stroke="black" points="533.64,-347 423.64,-347 423.64,-311 533.64,-311 533.64,-347"/>
<text text-anchor="middle" x="478.64" y="-325.3" font-family="Sans Not-Rotated 14" font-size="14.00">Admission NC</text>
</g>
<!-- Admission NC&#45;&gt;Admission NC -->
<g id="edge48" class="edge">
<title>Admission NC&#45;&gt;Admission NC</title>
<path fill="none" stroke="black" stroke-width="3.25" d="M533.72,-336.5C544.22,-335.6 551.64,-333.1 551.64,-329 551.64,-326.37 548.6,-324.4 543.64,-323.09"/>
<polygon fill="black" stroke="black" stroke-width="3.25" points="544.14,-319.63 533.72,-321.5 543.04,-326.54 544.14,-319.63"/>
<text text-anchor="middle" x="588.14" y="-325.3" font-family="Sans Not-Rotated 14" font-size="14.00"> &#160;&#160;&#160;&#160;&#160;&#160;&#160;&#160;&#160;&#160;&#160;&#160;&#160;&#160;&#160;</text>
</g>
<!-- Admission IC -->
<g id="node12" class="node">
<title>Admission IC</title>
<polygon fill="#ffffff" stroke="black" points="547.64,-239 443.64,-239 443.64,-203 547.64,-203 547.64,-239"/>
<text text-anchor="middle" x="495.64" y="-217.3" font-family="Sans Not-Rotated 14" font-size="14.00">Admission IC</text>
</g>
<!-- Admission NC&#45;&gt;Admission IC -->
<g id="edge2" class="edge">
<title>Admission NC&#45;&gt;Admission IC</title>
<path fill="none" stroke="black" stroke-width="1.03" d="M472.82,-310.97C468.74,-296.33 464.93,-274.84 470.64,-257 471.65,-253.87 473.04,-250.78 474.67,-247.82"/>
<polygon fill="black" stroke="black" stroke-width="1.03" points="477.64,-249.66 480.07,-239.35 471.74,-245.9 477.64,-249.66"/>
<text text-anchor="middle" x="480.14" y="-271.3" font-family="Sans Not-Rotated 14" font-size="14.00"> &#160;&#160;&#160;</text>
</g>
<!-- Admission NC&#45;&gt;end -->
<g id="edge41" class="edge">
<title>Admission NC&#45;&gt;end</title>
<path fill="none" stroke="black" stroke-dasharray="5,2" d="M499.26,-310.97C505.44,-305.49 512.05,-299.22 517.64,-293 537.44,-270.99 543.36,-265.46 556.64,-239 588.01,-176.52 608.61,-96.61 618.27,-53.64"/>
<polygon fill="black" stroke="black" points="621.7,-54.31 620.43,-43.79 614.87,-52.81 621.7,-54.31"/>
<text text-anchor="middle" x="601.14" y="-163.3" font-family="Sans Not-Rotated 14" font-size="14.00"> &#160;&#160;&#160;</text>
</g>
<!-- Release D&#45;&gt;Release A -->
<g id="edge21" class="edge">
<title>Release D&#45;&gt;Release A</title>
<path fill="none" stroke="black" stroke-width="1.04" d="M168.46,-239.27C181.28,-259.63 201.2,-291 203.64,-293 209.91,-298.14 224.39,-304.51 239.83,-310.4"/>
<polygon fill="black" stroke="black" stroke-width="1.04" points="238.91,-313.79 249.51,-313.99 241.35,-307.23 238.91,-313.79"/>
<text text-anchor="middle" x="213.14" y="-271.3" font-family="Sans Not-Rotated 14" font-size="14.00"> &#160;&#160;&#160;</text>
</g>
<!-- Release D&#45;&gt;Release E -->
<g id="edge25" class="edge">
<title>Release D&#45;&gt;Release E</title>
<path fill="none" stroke="black" d="M192.85,-202.93C202.25,-197.72 212.15,-191.6 220.64,-185 246.71,-164.75 253.45,-158.55 271.64,-131 288.65,-105.25 301.93,-72.34 309.98,-49.65"/>
<polygon fill="black" stroke="black" points="313.35,-50.6 313.3,-40.01 306.73,-48.32 313.35,-50.6"/>
<text text-anchor="middle" x="294.14" y="-109.3" font-family="Sans Not-Rotated 14" font-size="14.00"> </text>
</g>
<!-- Release D&#45;&gt;Release C -->
<g id="edge32" class="edge">
<title>Release D&#45;&gt;Release C</title>
<path fill="none" stroke="black" d="M151.8,-202.66C150.02,-197.06 148.14,-190.8 146.64,-185 140.52,-161.29 138.1,-155.37 135.64,-131 132.89,-103.71 133.28,-72.34 134.13,-50.47"/>
<polygon fill="black" stroke="black" points="137.63,-50.41 134.58,-40.26 130.64,-50.1 137.63,-50.41"/>
<text text-anchor="middle" x="138.14" y="-109.3" font-family="Sans Not-Rotated 14" font-size="14.00"> </text>
</g>
<!-- Release D&#45;&gt;Release B -->
<g id="edge40" class="edge">
<title>Release D&#45;&gt;Release B</title>
<path fill="none" stroke="black" stroke-width="1" d="M165.22,-202.87C171.98,-188.18 182.5,-166.65 193.64,-149 195.65,-145.83 197.87,-142.59 200.15,-139.43"/>
<polygon fill="black" stroke="black" stroke-width="1" points="203.03,-141.43 206.24,-131.34 197.43,-137.23 203.03,-141.43"/>
<text text-anchor="middle" x="196.14" y="-163.3" font-family="Sans Not-Rotated 14" font-size="14.00"> </text>
</g>
<!-- CRP&#45;&gt;Leucocytes -->
<g id="edge5" class="edge">
<title>CRP&#45;&gt;Leucocytes</title>
<path fill="none" stroke="black" stroke-width="4.61" d="M834.89,-116.3C857.98,-119.7 890.31,-128.12 909.64,-149 926.49,-167.19 920.51,-178.41 923.64,-203 928.76,-243.16 937.15,-263.3 909.64,-293 897.68,-305.92 880.74,-314.07 864.1,-319.21"/>
<polygon fill="black" stroke="black" stroke-width="4.61" points="862.93,-315.35 854.37,-321.9 865.09,-323.12 862.93,-315.35"/>
<text text-anchor="middle" x="964.14" y="-217.3" font-family="Sans Not-Rotated 14" font-size="14.00"> &#160;&#160;&#160;&#160;&#160;&#160;&#160;&#160;&#160;&#160;&#160;&#160;&#160;&#160;&#160;</text>
</g>
<!-- CRP&#45;&gt;LacticAcid -->
<g id="edge6" class="edge">
<title>CRP&#45;&gt;LacticAcid</title>
<path fill="none" stroke="black" stroke-width="2.51" d="M833.05,-131.19C839.18,-136.32 845.22,-142.37 849.64,-149 858.37,-162.09 863.78,-178.81 867.05,-192.74"/>
<polygon fill="black" stroke="black" stroke-width="2.51" points="863.66,-193.68 869.15,-202.74 870.52,-192.24 863.66,-193.68"/>
<text text-anchor="middle" x="885.14" y="-163.3" font-family="Sans Not-Rotated 14" font-size="14.00"> &#160;&#160;&#160;&#160;&#160;&#160;&#160;&#160;</text>
</g>
<!-- CRP&#45;&gt;end -->
<g id="edge46" class="edge">
<title>CRP&#45;&gt;end</title>
<path fill="none" stroke="black" stroke-dasharray="5,2" d="M780.64,-98.87C746.56,-82.29 688.19,-53.91 653.33,-36.95"/>
<polygon fill="black" stroke="black" points="654.69,-33.72 644.17,-32.49 651.63,-40.02 654.69,-33.72"/>
<text text-anchor="middle" x="734.14" y="-65.8" font-family="Sans Not-Rotated 14" font-size="14.00"> </text>
</g>
<!-- Admission IC&#45;&gt;Admission NC -->
<g id="edge3" class="edge">
<title>Admission IC&#45;&gt;Admission NC</title>
<path fill="none" stroke="black" stroke-width="1.03" d="M495.25,-239.07C494.67,-253.55 493.23,-274.79 489.64,-293 489.12,-295.66 488.46,-298.41 487.74,-301.13"/>
<polygon fill="black" stroke="black" stroke-width="1.03" points="484.37,-300.17 484.89,-310.75 491.09,-302.15 484.37,-300.17"/>
<text text-anchor="middle" x="504.14" y="-271.3" font-family="Sans Not-Rotated 14" font-size="14.00"> &#160;&#160;&#160;</text>
</g>
<!-- Admission IC&#45;&gt;end -->
<g id="edge42" class="edge">
<title>Admission IC&#45;&gt;end</title>
<path fill="none" stroke="black" stroke-dasharray="5,2" d="M499.27,-203C506.62,-171.96 525.76,-105.34 562.64,-62 571.68,-51.38 584.36,-42.7 595.89,-36.25"/>
<polygon fill="black" stroke="black" points="597.59,-39.31 604.81,-31.56 594.33,-33.12 597.59,-39.31"/>
<text text-anchor="middle" x="542.14" y="-109.3" font-family="Sans Not-Rotated 14" font-size="14.00"> </text>
</g>
<!-- Release C&#45;&gt;Release A -->
<g id="edge20" class="edge">
<title>Release C&#45;&gt;Release A</title>
<path fill="none" stroke="black" stroke-width="1.04" d="M93.42,-35.63C79.42,-41.64 64.83,-50.18 54.64,-62 -12.39,-139.76 -23.14,-225.99 54.64,-293 84.14,-318.41 186.1,-304.42 239.54,-311.45"/>
<polygon fill="black" stroke="black" stroke-width="1.04" points="239.1,-314.93 249.54,-313.15 240.27,-308.02 239.1,-314.93"/>
<text text-anchor="middle" x="15.14" y="-163.3" font-family="Sans Not-Rotated 14" font-size="14.00"> &#160;&#160;&#160;</text>
</g>
<!-- Release C&#45;&gt;Release D -->
<g id="edge29" class="edge">
<title>Release C&#45;&gt;Release D</title>
<path fill="none" stroke="black" stroke-width="1" d="M137.57,-40.24C141.4,-74.52 149.99,-151.51 154.6,-192.72"/>
<polygon fill="black" stroke="black" stroke-width="1" points="151.14,-193.31 155.73,-202.86 158.1,-192.54 151.14,-193.31"/>
<text text-anchor="middle" x="150.14" y="-109.3" font-family="Sans Not-Rotated 14" font-size="14.00"> </text>
</g>
<!-- Release C&#45;&gt;Release B -->
<g id="edge39" class="edge">
<title>Release C&#45;&gt;Release B</title>
<path fill="none" stroke="black" d="M168.59,-40.01C178.14,-46.04 188.03,-53.48 195.64,-62 201.78,-68.87 206.8,-77.51 210.69,-85.67"/>
<polygon fill="black" stroke="black" points="207.51,-87.15 214.74,-94.9 213.92,-84.33 207.51,-87.15"/>
<text text-anchor="middle" x="209.14" y="-65.8" font-family="Sans Not-Rotated 14" font-size="14.00"> </text>
</g>
<!-- ER Registration&#45;&gt;IV Liquid -->
<g id="edge15" class="edge">
<title>ER Registration&#45;&gt;IV Liquid</title>
<path fill="none" stroke="black" stroke-width="1.08" d="M107.52,-340.76C76.49,-349.95 42.8,-366.89 29.64,-398 20.19,-420.35 17.18,-431.78 29.64,-452.6 46.66,-481 80.04,-498.21 108.31,-508.21"/>
<polygon fill="black" stroke="black" stroke-width="1.08" points="107.47,-511.62 118.06,-511.45 109.67,-504.98 107.47,-511.62"/>
<text text-anchor="middle" x="39.14" y="-421.6" font-family="Sans Not-Rotated 14" font-size="14.00"> &#160;&#160;&#160;</text>
</g>
<!-- ER Registration&#45;&gt;ER Sepsis Triage -->
<g id="edge37" class="edge">
<title>ER Registration&#45;&gt;ER Sepsis Triage</title>
<path fill="none" stroke="black" stroke-width="2.96" d="M107.6,-339.24C93.18,-344.43 79.48,-352.5 70.64,-365 61.65,-377.72 70.88,-390.75 84.02,-401.34"/>
<polygon fill="black" stroke="black" stroke-width="2.96" points="81.97,-404.18 92.1,-407.28 86.11,-398.54 81.97,-404.18"/>
<text text-anchor="middle" x="107.14" y="-368.8" font-family="Sans Not-Rotated 14" font-size="14.00"> &#160;&#160;&#160;&#160;&#160;&#160;&#160;&#160;&#160;&#160;&#160;&#160;&#160;&#160;&#160;</text>
</g>
<!-- ER Sepsis Triage&#45;&gt;IV Antibiotics -->
<g id="edge14" class="edge">
<title>ER Sepsis Triage&#45;&gt;IV Antibiotics</title>
<path fill="none" stroke="black" stroke-width="1.41" d="M155.61,-443.37C167.29,-450.67 179.99,-459.97 189.64,-470.6 218.77,-502.66 235.8,-550.91 244.16,-580.77"/>
<polygon fill="black" stroke="black" stroke-width="1.41" points="240.8,-581.75 246.76,-590.51 247.56,-579.94 240.8,-581.75"/>
<text text-anchor="middle" x="251.14" y="-517.9" font-family="Sans Not-Rotated 14" font-size="14.00"> &#160;&#160;&#160;&#160;&#160;&#160;&#160;&#160;</text>
</g>
<!-- ER Sepsis Triage&#45;&gt;IV Liquid -->
<g id="edge7" class="edge">
<title>ER Sepsis Triage&#45;&gt;IV Liquid</title>
<path fill="none" stroke="black" stroke-width="2.2" d="M129.66,-443.48C134.58,-457.54 141.62,-477.67 147.28,-493.84"/>
<polygon fill="black" stroke="black" stroke-width="2.2" points="143.98,-495.02 150.59,-503.3 150.59,-492.7 143.98,-495.02"/>
<text text-anchor="middle" x="165.14" y="-474.4" font-family="Sans Not-Rotated 14" font-size="14.00"> &#160;&#160;&#160;&#160;&#160;&#160;&#160;&#160;</text>
</g>
<!-- ER Sepsis Triage&#45;&gt;ER Registration -->
<g id="edge33" class="edge">
<title>ER Sepsis Triage&#45;&gt;ER Registration</title>
<path fill="none" stroke="black" stroke-width="1.43" d="M133.32,-407.22C137.83,-399.06 143.18,-389.11 147.64,-380 151.34,-372.45 155.11,-364.14 158.47,-356.5"/>
<polygon fill="black" stroke="black" stroke-width="1.43" points="161.69,-357.85 162.45,-347.28 155.27,-355.07 161.69,-357.85"/>
<text text-anchor="middle" x="176.14" y="-368.8" font-family="Sans Not-Rotated 14" font-size="14.00"> &#160;&#160;&#160;&#160;&#160;&#160;&#160;&#160;</text>
</g>
<!-- Release B&#45;&gt;Release A -->
<g id="edge19" class="edge">
<title>Release B&#45;&gt;Release A</title>
<path fill="none" stroke="black" stroke-width="1.08" d="M223.68,-131.29C228.21,-155.69 237.63,-201.46 250.64,-239 258.16,-260.7 269.15,-284.26 277.86,-301.69"/>
<polygon fill="black" stroke="black" stroke-width="1.08" points="274.78,-303.36 282.43,-310.69 281.03,-300.19 274.78,-303.36"/>
<text text-anchor="middle" x="260.14" y="-217.3" font-family="Sans Not-Rotated 14" font-size="14.00"> &#160;&#160;&#160;</text>
</g>
<!-- Release B&#45;&gt;Release E -->
<g id="edge24" class="edge">
<title>Release B&#45;&gt;Release E</title>
<path fill="none" stroke="black" d="M239.54,-94.84C254.45,-81.3 275.44,-62.24 292.05,-47.15"/>
<polygon fill="black" stroke="black" points="294.76,-49.42 299.81,-40.11 290.05,-44.24 294.76,-49.42"/>
<text text-anchor="middle" x="278.14" y="-65.8" font-family="Sans Not-Rotated 14" font-size="14.00"> </text>
</g>
<!-- Release B&#45;&gt;Release D -->
<g id="edge28" class="edge">
<title>Release B&#45;&gt;Release D</title>
<path fill="none" stroke="black" stroke-width="1" d="M216.77,-131.08C212.82,-146.14 205.69,-168.22 194.64,-185 192.17,-188.76 189.22,-192.4 186.08,-195.84"/>
<polygon fill="black" stroke="black" stroke-width="1" points="183.56,-193.4 179.01,-202.96 188.53,-198.33 183.56,-193.4"/>
<text text-anchor="middle" x="214.14" y="-163.3" font-family="Sans Not-Rotated 14" font-size="14.00"> </text>
</g>
<!-- Release B&#45;&gt;Release C -->
<g id="edge31" class="edge">
<title>Release B&#45;&gt;Release C</title>
<path fill="none" stroke="black" stroke-width="1.01" d="M204.25,-94.84C191.44,-81.42 173.45,-62.58 159.1,-47.56"/>
<polygon fill="black" stroke="black" stroke-width="1.01" points="161.42,-44.92 151.98,-40.11 156.36,-49.76 161.42,-44.92"/>
<text text-anchor="middle" x="189.14" y="-65.8" font-family="Sans Not-Rotated 14" font-size="14.00"> </text>
</g>
<!-- start -->
<g id="node17" class="node">
<title>start</title>
<ellipse fill="#95d600" stroke="black" cx="478.64" cy="-425.3" rx="27.1" ry="27.1"/>
<text text-anchor="middle" x="478.64" y="-421.6" font-family="Sans Not-Rotated 14" font-size="14.00">start</text>
</g>
<!-- start&#45;&gt;ER Triage -->
<g id="edge16" class="edge">
<title>start&#45;&gt;ER Triage</title>
<path fill="none" stroke="black" stroke-dasharray="5,2" d="M505.36,-419.4C541.29,-411.26 604.06,-391.25 633.64,-347 642.07,-334.39 643.57,-317.56 642.84,-303.44"/>
<polygon fill="black" stroke="black" points="646.31,-302.94 641.93,-293.3 639.34,-303.57 646.31,-302.94"/>
<text text-anchor="middle" x="618.14" y="-368.8" font-family="Sans Not-Rotated 14" font-size="14.00"> </text>
</g>
<!-- start&#45;&gt;Leucocytes -->
<g id="edge17" class="edge">
<title>start&#45;&gt;Leucocytes</title>
<path fill="none" stroke="black" stroke-dasharray="5,2" d="M505.99,-421.78C550.38,-417.11 640.42,-405.2 712.64,-380 732.84,-372.95 754.01,-362.18 771.24,-352.43"/>
<polygon fill="black" stroke="black" points="773.46,-355.19 780.37,-347.15 769.96,-349.13 773.46,-355.19"/>
<text text-anchor="middle" x="747.14" y="-368.8" font-family="Sans Not-Rotated 14" font-size="14.00"> </text>
</g>
<!-- start&#45;&gt;Return ER -->
<g id="edge18" class="edge">
<title>start&#45;&gt;Return ER</title>
<path fill="none" stroke="black" stroke-dasharray="5,2" d="M505.71,-420.92C536.65,-416.03 587.77,-404.68 624.64,-380 640.39,-369.46 640.78,-362.53 651.64,-347 667.63,-324.14 676.27,-319.91 683.64,-293 692.58,-260.38 688.79,-221.18 684.46,-195.48"/>
<polygon fill="black" stroke="black" points="687.85,-194.56 682.6,-185.36 680.96,-195.83 687.85,-194.56"/>
<text text-anchor="middle" x="679.14" y="-325.3" font-family="Sans Not-Rotated 14" font-size="14.00"> </text>
</g>
<!-- start&#45;&gt;Release A -->
<g id="edge22" class="edge">
<title>start&#45;&gt;Release A</title>
<path fill="none" stroke="black" stroke-dasharray="5,2" d="M453.96,-413.05C435.1,-404.34 408.54,-391.8 385.64,-380 373.44,-373.71 370.73,-371.51 358.64,-365 350.67,-360.7 342.12,-356.18 333.9,-351.86"/>
<polygon fill="black" stroke="black" points="335.27,-348.63 324.79,-347.1 332.03,-354.84 335.27,-348.63"/>
<text text-anchor="middle" x="388.14" y="-368.8" font-family="Sans Not-Rotated 14" font-size="14.00"> </text>
</g>
<!-- start&#45;&gt;Admission NC -->
<g id="edge26" class="edge">
<title>start&#45;&gt;Admission NC</title>
<path fill="none" stroke="black" stroke-dasharray="5,2" d="M478.64,-397.78C478.64,-385.1 478.64,-369.93 478.64,-357.17"/>
<polygon fill="black" stroke="black" points="482.14,-357.12 478.64,-347.12 475.14,-357.12 482.14,-357.12"/>
<text text-anchor="middle" x="488.14" y="-368.8" font-family="Sans Not-Rotated 14" font-size="14.00"> &#160;&#160;&#160;</text>
</g>
<!-- start&#45;&gt;Admission IC -->
<g id="edge47" class="edge">
<title>start&#45;&gt;Admission IC</title>
<path fill="none" stroke="black" stroke-dasharray="5,2" d="M456.88,-407.94C431.47,-386.69 394.71,-347.94 409.64,-311 415.8,-295.76 445.3,-266.96 468.06,-246.24"/>
<polygon fill="black" stroke="black" points="470.69,-248.58 475.77,-239.29 466,-243.38 470.69,-248.58"/>
<text text-anchor="middle" x="412.14" y="-325.3" font-family="Sans Not-Rotated 14" font-size="14.00"> </text>
</g>
<!-- start&#45;&gt;ER Registration -->
<g id="edge36" class="edge">
<title>start&#45;&gt;ER Registration</title>
<path fill="none" stroke="black" stroke-dasharray="5,2" d="M452.68,-416.1C427.86,-407.96 389.58,-394.61 357.64,-380 345.16,-374.29 343.53,-369.74 330.64,-365 295.12,-351.94 282.34,-355.15 241.92,-347.15"/>
<polygon fill="black" stroke="black" points="242.46,-343.68 231.95,-345.06 241.02,-350.53 242.46,-343.68"/>
<text text-anchor="middle" x="360.14" y="-368.8" font-family="Sans Not-Rotated 14" font-size="14.00"> </text>
</g>
</g>
</svg>
