<?xml version="1.0" encoding="UTF-8" standalone="no"?>
<!DOCTYPE svg PUBLIC "-//W3C//DTD SVG 1.1//EN"
 "http://www.w3.org/Graphics/SVG/1.1/DTD/svg11.dtd">
<!-- Generated by graphviz version 3.0.0 (20220226.1711)
 -->
<!-- Pages: 1 -->
<svg width="1218pt" height="419pt"
 viewBox="0.00 0.00 1217.50 418.60" xmlns="http://www.w3.org/2000/svg" xmlns:xlink="http://www.w3.org/1999/xlink">
<g id="graph0" class="graph" transform="scale(1 1) rotate(0) translate(4 414.6)">
<polygon fill="white" stroke="transparent" points="-4,4 -4,-414.6 1213.5,-414.6 1213.5,4 -4,4"/>
<!-- IV Antibiotics -->
<g id="node1" class="node">
<title>IV Antibiotics</title>
<polygon fill="#c0bde9" stroke="black" points="190,-305 83,-305 83,-269 190,-269 190,-305"/>
<text text-anchor="middle" x="136.5" y="-283.3" font-family="Sans Not-Rotated 14" font-size="14.00">IV Antibiotics</text>
</g>
<!-- IV Liquid -->
<g id="node2" class="node">
<title>IV Liquid</title>
<polygon fill="#c0bde9" stroke="black" points="77,-214 0,-214 0,-178 77,-178 77,-214"/>
<text text-anchor="middle" x="38.5" y="-192.3" font-family="Sans Not-Rotated 14" font-size="14.00">IV Liquid</text>
</g>
<!-- IV Antibiotics&#45;&gt;IV Liquid -->
<g id="edge9" class="edge">
<title>IV Antibiotics&#45;&gt;IV Liquid</title>
<path fill="none" stroke="black" stroke-width="1.19" d="M117.6,-268.84C102.69,-255.3 81.7,-236.24 65.09,-221.15"/>
<polygon fill="black" stroke="black" stroke-width="1.19" points="67.09,-218.24 57.34,-214.11 62.39,-223.42 67.09,-218.24"/>
<text text-anchor="middle" x="105" y="-239.8" font-family="Sans Not-Rotated 14" font-size="14.00"> &#160;&#160;&#160;</text>
</g>
<!-- ER Registration -->
<g id="node14" class="node">
<title>ER Registration</title>
<polygon fill="#a09dde" stroke="black" points="179.5,-36 55.5,-36 55.5,0 179.5,0 179.5,-36"/>
<text text-anchor="middle" x="117.5" y="-14.3" font-family="Sans Not-Rotated 14" font-size="14.00">ER Registration</text>
</g>
<!-- IV Antibiotics&#45;&gt;ER Registration -->
<g id="edge27" class="edge">
<title>IV Antibiotics&#45;&gt;ER Registration</title>
<path fill="none" stroke="black" stroke-width="2.41" d="M148.64,-268.82C175.65,-228.27 235,-124.69 190.5,-54 187.67,-49.51 184.09,-45.58 180.03,-42.14"/>
<polygon fill="black" stroke="black" stroke-width="2.41" points="181.88,-39.16 171.73,-36.13 177.78,-44.83 181.88,-39.16"/>
<text text-anchor="middle" x="224" y="-144.8" font-family="Sans Not-Rotated 14" font-size="14.00"> &#160;&#160;&#160;&#160;&#160;&#160;&#160;&#160;</text>
</g>
<!-- end -->
<g id="node18" class="node">
<title>end</title>
<ellipse fill="#ea4126" stroke="black" cx="292.5" cy="-196" rx="18" ry="18"/>
<ellipse fill="none" stroke="black" cx="292.5" cy="-196" rx="22" ry="22"/>
</g>
<!-- IV Antibiotics&#45;&gt;end -->
<g id="edge33" class="edge">
<title>IV Antibiotics&#45;&gt;end</title>
<path fill="none" stroke="black" stroke-dasharray="5,2" d="M180.06,-268.87C192.11,-263.62 205.02,-257.5 216.5,-251 234.4,-240.87 253.25,-227.49 267.7,-216.59"/>
<polygon fill="black" stroke="black" points="269.85,-219.35 275.66,-210.49 265.59,-213.79 269.85,-219.35"/>
<text text-anchor="middle" x="242" y="-239.8" font-family="Sans Not-Rotated 14" font-size="14.00"> </text>
</g>
<!-- IV Liquid&#45;&gt;IV Antibiotics -->
<g id="edge10" class="edge">
<title>IV Liquid&#45;&gt;IV Antibiotics</title>
<path fill="none" stroke="black" stroke-width="2.19" d="M32.84,-214.11C30.18,-225.57 29.01,-240.44 36.5,-251 45.36,-263.49 59.04,-271.56 73.46,-276.76"/>
<polygon fill="black" stroke="black" stroke-width="2.19" points="72.41,-280.1 83,-279.78 74.52,-273.43 72.41,-280.1"/>
<text text-anchor="middle" x="57" y="-239.8" font-family="Sans Not-Rotated 14" font-size="14.00"> &#160;&#160;&#160;&#160;&#160;&#160;&#160;&#160;</text>
</g>
<!-- ER Sepsis Triage -->
<g id="node15" class="node">
<title>ER Sepsis Triage</title>
<polygon fill="#a09dde" stroke="black" points="174,-123 43,-123 43,-87 174,-87 174,-123"/>
<text text-anchor="middle" x="108.5" y="-101.3" font-family="Sans Not-Rotated 14" font-size="14.00">ER Sepsis Triage</text>
</g>
<!-- IV Liquid&#45;&gt;ER Sepsis Triage -->
<g id="edge1" class="edge">
<title>IV Liquid&#45;&gt;ER Sepsis Triage</title>
<path fill="none" stroke="black" stroke-width="1.07" d="M59.43,-177.92C66.59,-171.48 74.35,-163.82 80.5,-156 86.25,-148.69 91.53,-140.06 95.92,-132.04"/>
<polygon fill="black" stroke="black" stroke-width="1.07" points="99.1,-133.51 100.64,-123.03 92.9,-130.26 99.1,-133.51"/>
<text text-anchor="middle" x="99" y="-144.8" font-family="Sans Not-Rotated 14" font-size="14.00"> &#160;&#160;&#160;</text>
</g>
<!-- ER Triage -->
<g id="node3" class="node">
<title>ER Triage</title>
<polygon fill="#a09dde" stroke="black" points="310,-305 227,-305 227,-269 310,-269 310,-305"/>
<text text-anchor="middle" x="268.5" y="-283.3" font-family="Sans Not-Rotated 14" font-size="14.00">ER Triage</text>
</g>
<!-- ER Triage&#45;&gt;end -->
<g id="edge28" class="edge">
<title>ER Triage&#45;&gt;end</title>
<path fill="none" stroke="black" stroke-dasharray="5,2" d="M267.72,-268.57C267.73,-258.82 268.5,-246.54 271.5,-236 272.63,-232.04 274.2,-228.02 275.99,-224.15"/>
<polygon fill="black" stroke="black" points="279.26,-225.44 280.73,-214.95 273.04,-222.23 279.26,-225.44"/>
<text text-anchor="middle" x="274" y="-239.8" font-family="Sans Not-Rotated 14" font-size="14.00"> </text>
</g>
<!-- Leucocytes -->
<g id="node4" class="node">
<title>Leucocytes</title>
<polygon fill="#1d2559" stroke="black" points="540,-305 447,-305 447,-269 540,-269 540,-305"/>
<text text-anchor="middle" x="493.5" y="-283.3" font-family="Sans Not-Rotated 14" font-size="14.00" fill="white">Leucocytes</text>
</g>
<!-- LacticAcid -->
<g id="node5" class="node">
<title>LacticAcid</title>
<polygon fill="#7d7fd2" stroke="black" points="418,-214 333,-214 333,-178 418,-178 418,-214"/>
<text text-anchor="middle" x="375.5" y="-192.3" font-family="Sans Not-Rotated 14" font-size="14.00">LacticAcid</text>
</g>
<!-- Leucocytes&#45;&gt;LacticAcid -->
<g id="edge12" class="edge">
<title>Leucocytes&#45;&gt;LacticAcid</title>
<path fill="none" stroke="black" stroke-width="2.08" d="M466.42,-268.93C457.98,-263.4 448.73,-257.11 440.5,-251 427.8,-241.57 414.26,-230.51 402.85,-220.86"/>
<polygon fill="black" stroke="black" stroke-width="2.08" points="404.84,-217.95 394.96,-214.12 400.3,-223.27 404.84,-217.95"/>
<text text-anchor="middle" x="461" y="-239.8" font-family="Sans Not-Rotated 14" font-size="14.00"> &#160;&#160;&#160;&#160;&#160;&#160;&#160;&#160;</text>
</g>
<!-- CRP -->
<g id="node11" class="node">
<title>CRP</title>
<polygon fill="#1d2559" stroke="black" points="453.5,-123 399.5,-123 399.5,-87 453.5,-87 453.5,-123"/>
<text text-anchor="middle" x="426.5" y="-101.3" font-family="Sans Not-Rotated 14" font-size="14.00" fill="white">CRP</text>
</g>
<!-- Leucocytes&#45;&gt;CRP -->
<g id="edge13" class="edge">
<title>Leucocytes&#45;&gt;CRP</title>
<path fill="none" stroke="black" stroke-width="5" d="M492.53,-268.97C491.22,-258.66 488.24,-245.66 481.5,-236 473.25,-224.17 462.42,-230.05 454.5,-218 435.4,-188.93 450.12,-174.43 440.5,-141 439.7,-138.23 438.76,-135.37 437.76,-132.55"/>
<polygon fill="black" stroke="black" stroke-width="5" points="441.84,-130.98 434.18,-123.21 433.67,-134.11 441.84,-130.98"/>
<text text-anchor="middle" x="491" y="-192.3" font-family="Sans Not-Rotated 14" font-size="14.00"> &#160;&#160;&#160;&#160;&#160;&#160;&#160;&#160;&#160;&#160;&#160;&#160;&#160;&#160;&#160;</text>
</g>
<!-- Leucocytes&#45;&gt;end -->
<g id="edge34" class="edge">
<title>Leucocytes&#45;&gt;end</title>
<path fill="none" stroke="black" stroke-dasharray="1,5" d="M446.78,-272.25C442.31,-271.08 437.83,-269.98 433.5,-269 387.32,-258.53 368.2,-276.8 328.5,-251 318.91,-244.77 311.26,-234.98 305.52,-225.44"/>
<polygon fill="black" stroke="black" points="308.49,-223.58 300.61,-216.5 302.36,-226.95 308.49,-223.58"/>
</g>
<!-- LacticAcid&#45;&gt;Leucocytes -->
<g id="edge4" class="edge">
<title>LacticAcid&#45;&gt;Leucocytes</title>
<path fill="none" stroke="black" stroke-width="2.47" d="M370.95,-214.27C369,-225.81 368.68,-240.69 376.5,-251 377.54,-252.37 407.62,-261.35 437.01,-269.87"/>
<polygon fill="black" stroke="black" stroke-width="2.47" points="436.33,-273.32 446.91,-272.73 438.27,-266.59 436.33,-273.32"/>
<text text-anchor="middle" x="397" y="-239.8" font-family="Sans Not-Rotated 14" font-size="14.00"> &#160;&#160;&#160;&#160;&#160;&#160;&#160;&#160;</text>
</g>
<!-- LacticAcid&#45;&gt;CRP -->
<g id="edge8" class="edge">
<title>LacticAcid&#45;&gt;CRP</title>
<path fill="none" stroke="black" stroke-width="2.12" d="M356.27,-177.54C346.76,-166.75 338.81,-152.76 346.5,-141 356.12,-126.29 373.43,-117.73 389.5,-112.76"/>
<polygon fill="black" stroke="black" stroke-width="2.12" points="390.53,-116.1 399.26,-110.11 388.7,-109.35 390.53,-116.1"/>
<text text-anchor="middle" x="367" y="-144.8" font-family="Sans Not-Rotated 14" font-size="14.00"> &#160;&#160;&#160;&#160;&#160;&#160;&#160;&#160;</text>
</g>
<!-- Return ER -->
<g id="node6" class="node">
<title>Return ER</title>
<polygon fill="#ffffff" stroke="black" points="424.5,-305 336.5,-305 336.5,-269 424.5,-269 424.5,-305"/>
<text text-anchor="middle" x="380.5" y="-283.3" font-family="Sans Not-Rotated 14" font-size="14.00">Return ER</text>
</g>
<!-- Return ER&#45;&gt;end -->
<g id="edge29" class="edge">
<title>Return ER&#45;&gt;end</title>
<path fill="none" stroke="black" stroke-dasharray="5,2" d="M336.35,-276.16C322.52,-270.93 308.54,-262.99 299.5,-251 294.58,-244.47 292.18,-236.19 291.17,-228.09"/>
<polygon fill="black" stroke="black" points="294.66,-227.82 290.54,-218.06 287.67,-228.26 294.66,-227.82"/>
<text text-anchor="middle" x="302" y="-239.8" font-family="Sans Not-Rotated 14" font-size="14.00"> </text>
</g>
<!-- Release A -->
<g id="node7" class="node">
<title>Release A</title>
<polygon fill="#e0ddf4" stroke="black" points="842.5,-305 758.5,-305 758.5,-269 842.5,-269 842.5,-305"/>
<text text-anchor="middle" x="800.5" y="-283.3" font-family="Sans Not-Rotated 14" font-size="14.00">Release A</text>
</g>
<!-- Release E -->
<g id="node8" class="node">
<title>Release E</title>
<polygon fill="#ffffff" stroke="black" points="1046,-214 963,-214 963,-178 1046,-178 1046,-214"/>
<text text-anchor="middle" x="1004.5" y="-192.3" font-family="Sans Not-Rotated 14" font-size="14.00">Release E</text>
</g>
<!-- Release A&#45;&gt;Release E -->
<g id="edge19" class="edge">
<title>Release A&#45;&gt;Release E</title>
<path fill="none" stroke="black" stroke-width="1.01" d="M842.51,-282.28C873.63,-278.11 916.22,-269.33 949.5,-251 962.76,-243.69 975.05,-232.3 984.63,-221.85"/>
<polygon fill="black" stroke="black" stroke-width="1.01" points="987.43,-223.96 991.4,-214.13 982.17,-219.34 987.43,-223.96"/>
<text text-anchor="middle" x="972" y="-239.8" font-family="Sans Not-Rotated 14" font-size="14.00"> </text>
</g>
<!-- Release D -->
<g id="node10" class="node">
<title>Release D</title>
<polygon fill="#ffffff" stroke="black" points="740.5,-214 654.5,-214 654.5,-178 740.5,-178 740.5,-214"/>
<text text-anchor="middle" x="697.5" y="-192.3" font-family="Sans Not-Rotated 14" font-size="14.00">Release D</text>
</g>
<!-- Release A&#45;&gt;Release D -->
<g id="edge21" class="edge">
<title>Release A&#45;&gt;Release D</title>
<path fill="none" stroke="black" stroke-width="1.04" d="M775.55,-268.87C767.97,-263.38 759.74,-257.14 752.5,-251 741.71,-241.85 730.45,-231.05 720.95,-221.52"/>
<polygon fill="black" stroke="black" stroke-width="1.04" points="723.26,-218.88 713.75,-214.2 718.27,-223.79 723.26,-218.88"/>
<text text-anchor="middle" x="762" y="-239.8" font-family="Sans Not-Rotated 14" font-size="14.00"> &#160;&#160;&#160;</text>
</g>
<!-- Release C -->
<g id="node13" class="node">
<title>Release C</title>
<polygon fill="#ffffff" stroke="black" points="842.5,-214 758.5,-214 758.5,-178 842.5,-178 842.5,-214"/>
<text text-anchor="middle" x="800.5" y="-192.3" font-family="Sans Not-Rotated 14" font-size="14.00">Release C</text>
</g>
<!-- Release A&#45;&gt;Release C -->
<g id="edge22" class="edge">
<title>Release A&#45;&gt;Release C</title>
<path fill="none" stroke="black" stroke-width="1.03" d="M800.5,-268.84C800.5,-256.28 800.5,-238.98 800.5,-224.5"/>
<polygon fill="black" stroke="black" stroke-width="1.03" points="804,-224.11 800.5,-214.11 797,-224.11 804,-224.11"/>
<text text-anchor="middle" x="810" y="-239.8" font-family="Sans Not-Rotated 14" font-size="14.00"> &#160;&#160;&#160;</text>
</g>
<!-- Release B -->
<g id="node16" class="node">
<title>Release B</title>
<polygon fill="#ffffff" stroke="black" points="944.5,-214 860.5,-214 860.5,-178 944.5,-178 944.5,-214"/>
<text text-anchor="middle" x="902.5" y="-192.3" font-family="Sans Not-Rotated 14" font-size="14.00">Release B</text>
</g>
<!-- Release A&#45;&gt;Release B -->
<g id="edge25" class="edge">
<title>Release A&#45;&gt;Release B</title>
<path fill="none" stroke="black" stroke-width="1.09" d="M842.87,-274.45C856.26,-269.11 870.24,-261.53 880.5,-251 887.71,-243.6 892.67,-233.52 896.03,-224.06"/>
<polygon fill="black" stroke="black" stroke-width="1.09" points="899.46,-224.8 899.07,-214.21 892.77,-222.74 899.46,-224.8"/>
<text text-anchor="middle" x="899" y="-239.8" font-family="Sans Not-Rotated 14" font-size="14.00"> &#160;&#160;&#160;</text>
</g>
<!-- Release A&#45;&gt;end -->
<g id="edge35" class="edge">
<title>Release A&#45;&gt;end</title>
<path fill="none" stroke="black" stroke-dasharray="5,2" d="M758.13,-283.28C651.6,-276.37 379.8,-258.14 361.5,-251 343.78,-244.09 326.91,-231.05 314.28,-219.51"/>
<polygon fill="black" stroke="black" points="316.66,-216.94 307,-212.59 311.84,-222.02 316.66,-216.94"/>
<text text-anchor="middle" x="364" y="-239.8" font-family="Sans Not-Rotated 14" font-size="14.00"> </text>
</g>
<!-- Release E&#45;&gt;Release A -->
<g id="edge11" class="edge">
<title>Release E&#45;&gt;Release A</title>
<path fill="none" stroke="black" stroke-width="1.01" d="M978.78,-214.25C960.78,-225.77 935.87,-240.65 912.5,-251 893.39,-259.46 871.6,-266.77 852.36,-272.48"/>
<polygon fill="black" stroke="black" stroke-width="1.01" points="851.18,-269.17 842.55,-275.32 853.13,-275.9 851.18,-269.17"/>
<text text-anchor="middle" x="943" y="-239.8" font-family="Sans Not-Rotated 14" font-size="14.00"> </text>
</g>
<!-- Admission NC -->
<g id="node9" class="node">
<title>Admission NC</title>
<polygon fill="#a09dde" stroke="black" points="1073.5,-305 963.5,-305 963.5,-269 1073.5,-269 1073.5,-305"/>
<text text-anchor="middle" x="1018.5" y="-283.3" font-family="Sans Not-Rotated 14" font-size="14.00">Admission NC</text>
</g>
<!-- Admission NC&#45;&gt;Admission NC -->
<g id="edge32" class="edge">
<title>Admission NC&#45;&gt;Admission NC</title>
<path fill="none" stroke="black" stroke-width="3.25" d="M1073.57,-294.5C1084.07,-293.6 1091.5,-291.1 1091.5,-287 1091.5,-284.37 1088.45,-282.4 1083.5,-281.09"/>
<polygon fill="black" stroke="black" stroke-width="3.25" points="1084,-277.63 1073.57,-279.5 1082.89,-284.54 1084,-277.63"/>
<text text-anchor="middle" x="1128" y="-283.3" font-family="Sans Not-Rotated 14" font-size="14.00"> &#160;&#160;&#160;&#160;&#160;&#160;&#160;&#160;&#160;&#160;&#160;&#160;&#160;&#160;&#160;</text>
</g>
<!-- Admission IC -->
<g id="node12" class="node">
<title>Admission IC</title>
<polygon fill="#ffffff" stroke="black" points="1168.5,-214 1064.5,-214 1064.5,-178 1168.5,-178 1168.5,-214"/>
<text text-anchor="middle" x="1116.5" y="-192.3" font-family="Sans Not-Rotated 14" font-size="14.00">Admission IC</text>
</g>
<!-- Admission NC&#45;&gt;Admission IC -->
<g id="edge2" class="edge">
<title>Admission NC&#45;&gt;Admission IC</title>
<path fill="none" stroke="black" stroke-width="1.03" d="M1060.28,-268.86C1069.25,-263.96 1078.21,-258 1085.5,-251 1093.57,-243.25 1100.18,-232.94 1105.19,-223.4"/>
<polygon fill="black" stroke="black" stroke-width="1.03" points="1108.42,-224.77 1109.67,-214.25 1102.13,-221.7 1108.42,-224.77"/>
<text text-anchor="middle" x="1106" y="-239.8" font-family="Sans Not-Rotated 14" font-size="14.00"> &#160;&#160;&#160;</text>
</g>
<!-- Admission NC&#45;&gt;end -->
<g id="edge26" class="edge">
<title>Admission NC&#45;&gt;end</title>
<path fill="none" stroke="black" stroke-dasharray="5,2" d="M1009.89,-268.78C1003.09,-257.24 992.43,-242.93 978.5,-236 913.42,-203.61 393.86,-239.77 324.5,-218 322.34,-217.32 320.18,-216.45 318.07,-215.45"/>
<polygon fill="black" stroke="black" points="319.64,-212.32 309.21,-210.44 316.19,-218.41 319.64,-212.32"/>
<text text-anchor="middle" x="1005" y="-239.8" font-family="Sans Not-Rotated 14" font-size="14.00"> &#160;&#160;&#160;</text>
</g>
<!-- Release D&#45;&gt;Release A -->
<g id="edge30" class="edge">
<title>Release D&#45;&gt;Release A</title>
<path fill="none" stroke="black" stroke-width="1.04" d="M698.74,-214.23C700.42,-225.89 704.35,-240.95 713.5,-251 722.93,-261.37 735.86,-268.72 748.87,-273.92"/>
<polygon fill="black" stroke="black" stroke-width="1.04" points="747.71,-277.22 758.3,-277.33 750.09,-270.64 747.71,-277.22"/>
<text text-anchor="middle" x="723" y="-239.8" font-family="Sans Not-Rotated 14" font-size="14.00"> &#160;&#160;&#160;</text>
</g>
<!-- CRP&#45;&gt;Leucocytes -->
<g id="edge5" class="edge">
<title>CRP&#45;&gt;Leucocytes</title>
<path fill="none" stroke="black" stroke-width="4.61" d="M453.67,-115.01C478.95,-125.02 515.11,-143.85 531.5,-174 546.72,-201.99 529.53,-237.2 513.62,-260.59"/>
<polygon fill="black" stroke="black" stroke-width="4.61" points="510.19,-258.46 507.66,-268.94 516.76,-263.15 510.19,-258.46"/>
<text text-anchor="middle" x="573" y="-192.3" font-family="Sans Not-Rotated 14" font-size="14.00"> &#160;&#160;&#160;&#160;&#160;&#160;&#160;&#160;&#160;&#160;&#160;&#160;&#160;&#160;&#160;</text>
</g>
<!-- CRP&#45;&gt;LacticAcid -->
<g id="edge6" class="edge">
<title>CRP&#45;&gt;LacticAcid</title>
<path fill="none" stroke="black" stroke-width="2.51" d="M411.91,-123.22C407.62,-128.71 403.12,-134.94 399.5,-141 394.33,-149.67 389.59,-159.66 385.71,-168.66"/>
<polygon fill="black" stroke="black" stroke-width="2.51" points="382.46,-167.36 381.86,-177.94 388.92,-170.05 382.46,-167.36"/>
<text text-anchor="middle" x="420" y="-144.8" font-family="Sans Not-Rotated 14" font-size="14.00"> &#160;&#160;&#160;&#160;&#160;&#160;&#160;&#160;</text>
</g>
<!-- Admission IC&#45;&gt;Admission NC -->
<g id="edge3" class="edge">
<title>Admission IC&#45;&gt;Admission NC</title>
<path fill="none" stroke="black" stroke-width="1.03" d="M1090.32,-214.14C1081.17,-220.57 1071.06,-228.23 1062.5,-236 1054.07,-243.66 1045.61,-252.83 1038.39,-261.21"/>
<polygon fill="black" stroke="black" stroke-width="1.03" points="1035.66,-259.03 1031.9,-268.93 1041.01,-263.53 1035.66,-259.03"/>
<text text-anchor="middle" x="1072" y="-239.8" font-family="Sans Not-Rotated 14" font-size="14.00"> &#160;&#160;&#160;</text>
</g>
<!-- Release C&#45;&gt;Release A -->
<g id="edge31" class="edge">
<title>Release C&#45;&gt;Release A</title>
<path fill="none" stroke="black" stroke-width="1.04" d="M786.51,-214.14C779.69,-224.58 773.7,-238.31 777.5,-251 778.41,-254.04 779.67,-257.05 781.15,-259.97"/>
<polygon fill="black" stroke="black" stroke-width="1.04" points="778.29,-262.02 786.4,-268.84 784.32,-258.45 778.29,-262.02"/>
<text text-anchor="middle" x="787" y="-239.8" font-family="Sans Not-Rotated 14" font-size="14.00"> &#160;&#160;&#160;</text>
</g>
<!-- ER Registration&#45;&gt;IV Liquid -->
<g id="edge15" class="edge">
<title>ER Registration&#45;&gt;IV Liquid</title>
<path fill="none" stroke="black" stroke-width="1.08" d="M69.66,-36.13C47.77,-46.9 24.52,-63.32 14.5,-87 3.22,-113.66 13.54,-146.36 23.94,-168.75"/>
<polygon fill="black" stroke="black" stroke-width="1.08" points="20.92,-170.54 28.49,-177.95 27.19,-167.44 20.92,-170.54"/>
<text text-anchor="middle" x="24" y="-101.3" font-family="Sans Not-Rotated 14" font-size="14.00"> &#160;&#160;&#160;</text>
</g>
<!-- ER Registration&#45;&gt;ER Sepsis Triage -->
<g id="edge24" class="edge">
<title>ER Registration&#45;&gt;ER Sepsis Triage</title>
<path fill="none" stroke="black" stroke-width="2.96" d="M115.68,-36.18C114.45,-47.81 112.8,-63.42 111.39,-76.73"/>
<polygon fill="black" stroke="black" stroke-width="2.96" points="107.89,-76.49 110.32,-86.8 114.85,-77.22 107.89,-76.49"/>
<text text-anchor="middle" x="150" y="-57.8" font-family="Sans Not-Rotated 14" font-size="14.00"> &#160;&#160;&#160;&#160;&#160;&#160;&#160;&#160;&#160;&#160;&#160;&#160;&#160;&#160;&#160;</text>
</g>
<!-- ER Sepsis Triage&#45;&gt;IV Antibiotics -->
<g id="edge14" class="edge">
<title>ER Sepsis Triage&#45;&gt;IV Antibiotics</title>
<path fill="none" stroke="black" stroke-width="1.41" d="M111.18,-123.21C116.04,-154.48 126.37,-220.88 132.22,-258.5"/>
<polygon fill="black" stroke="black" stroke-width="1.41" points="128.82,-259.4 133.82,-268.74 135.74,-258.32 128.82,-259.4"/>
<text text-anchor="middle" x="146" y="-192.3" font-family="Sans Not-Rotated 14" font-size="14.00"> &#160;&#160;&#160;&#160;&#160;&#160;&#160;&#160;</text>
</g>
<!-- ER Sepsis Triage&#45;&gt;IV Liquid -->
<g id="edge7" class="edge">
<title>ER Sepsis Triage&#45;&gt;IV Liquid</title>
<path fill="none" stroke="black" stroke-width="2.2" d="M54.27,-123.13C46.82,-127.77 40.14,-133.63 35.5,-141 30.56,-148.85 29.88,-158.69 30.91,-167.81"/>
<polygon fill="black" stroke="black" stroke-width="2.2" points="27.46,-168.42 32.66,-177.65 34.35,-167.19 27.46,-168.42"/>
<text text-anchor="middle" x="56" y="-144.8" font-family="Sans Not-Rotated 14" font-size="14.00"> &#160;&#160;&#160;&#160;&#160;&#160;&#160;&#160;</text>
</g>
<!-- ER Sepsis Triage&#45;&gt;ER Registration -->
<g id="edge23" class="edge">
<title>ER Sepsis Triage&#45;&gt;ER Registration</title>
<path fill="none" stroke="black" stroke-width="1.43" d="M70.97,-86.96C57.37,-78.24 46.98,-66.77 54.5,-54 57.13,-49.53 60.56,-45.59 64.46,-42.13"/>
<polygon fill="black" stroke="black" stroke-width="1.43" points="66.62,-44.88 72.45,-36.04 62.38,-39.31 66.62,-44.88"/>
<text text-anchor="middle" x="75" y="-57.8" font-family="Sans Not-Rotated 14" font-size="14.00"> &#160;&#160;&#160;&#160;&#160;&#160;&#160;&#160;</text>
</g>
<!-- Release B&#45;&gt;Release A -->
<g id="edge18" class="edge">
<title>Release B&#45;&gt;Release A</title>
<path fill="none" stroke="black" stroke-width="1.08" d="M882.89,-214.11C867.25,-227.76 845.15,-247.04 827.78,-262.2"/>
<polygon fill="black" stroke="black" stroke-width="1.08" points="825.4,-259.63 820.17,-268.84 830,-264.9 825.4,-259.63"/>
<text text-anchor="middle" x="867" y="-239.8" font-family="Sans Not-Rotated 14" font-size="14.00"> &#160;&#160;&#160;</text>
</g>
<!-- start -->
<g id="node17" class="node">
<title>start</title>
<ellipse fill="#95d600" stroke="black" cx="699.5" cy="-383.3" rx="27.1" ry="27.1"/>
<text text-anchor="middle" x="699.5" y="-379.6" font-family="Sans Not-Rotated 14" font-size="14.00">start</text>
</g>
<!-- start&#45;&gt;ER Triage -->
<g id="edge16" class="edge">
<title>start&#45;&gt;ER Triage</title>
<path fill="none" stroke="black" stroke-dasharray="5,2" d="M672.73,-377.46C611.35,-366.2 455.88,-336.78 327.5,-305 325.06,-304.39 322.56,-303.76 320.04,-303.1"/>
<polygon fill="black" stroke="black" points="320.86,-299.69 310.3,-300.47 319.04,-306.45 320.86,-299.69"/>
<text text-anchor="middle" x="472" y="-326.8" font-family="Sans Not-Rotated 14" font-size="14.00"> </text>
</g>
<!-- start&#45;&gt;Leucocytes -->
<g id="edge37" class="edge">
<title>start&#45;&gt;Leucocytes</title>
<path fill="none" stroke="black" stroke-dasharray="5,2" d="M675.06,-371.11C641.87,-355.92 581.88,-328.45 539.97,-309.27"/>
<polygon fill="black" stroke="black" points="541.34,-306.05 530.79,-305.07 538.43,-312.42 541.34,-306.05"/>
<text text-anchor="middle" x="605" y="-326.8" font-family="Sans Not-Rotated 14" font-size="14.00"> </text>
</g>
<!-- start&#45;&gt;Return ER -->
<g id="edge17" class="edge">
<title>start&#45;&gt;Return ER</title>
<path fill="none" stroke="black" stroke-dasharray="5,2" d="M673.39,-374.58C621.34,-359.19 503.7,-324.42 434.39,-303.93"/>
<polygon fill="black" stroke="black" points="435.11,-300.49 424.53,-301.01 433.13,-307.21 435.11,-300.49"/>
<text text-anchor="middle" x="552" y="-326.8" font-family="Sans Not-Rotated 14" font-size="14.00"> </text>
</g>
<!-- start&#45;&gt;Release A -->
<g id="edge38" class="edge">
<title>start&#45;&gt;Release A</title>
<path fill="none" stroke="black" stroke-dasharray="5,2" d="M718.97,-364.12C734.78,-349.36 757.21,-328.42 774.54,-312.23"/>
<polygon fill="black" stroke="black" points="777.19,-314.56 782.11,-305.17 772.41,-309.44 777.19,-314.56"/>
<text text-anchor="middle" x="764" y="-326.8" font-family="Sans Not-Rotated 14" font-size="14.00"> </text>
</g>
<!-- start&#45;&gt;Admission NC -->
<g id="edge20" class="edge">
<title>start&#45;&gt;Admission NC</title>
<path fill="none" stroke="black" stroke-dasharray="5,2" d="M725.61,-374.58C774.99,-359.98 883.42,-327.93 953.6,-307.18"/>
<polygon fill="black" stroke="black" points="954.64,-310.53 963.24,-304.34 952.66,-303.81 954.64,-310.53"/>
<text text-anchor="middle" x="906" y="-326.8" font-family="Sans Not-Rotated 14" font-size="14.00"> &#160;&#160;&#160;</text>
</g>
<!-- start&#45;&gt;ER Registration -->
<g id="edge36" class="edge">
<title>start&#45;&gt;ER Registration</title>
<path fill="none" stroke="black" stroke-dasharray="5,2" d="M726.65,-380.14C831.54,-371.44 1204.5,-337.05 1204.5,-288 1204.5,-288 1204.5,-288 1204.5,-104 1204.5,-52.97 433.14,-27.6 189.99,-20.87"/>
<polygon fill="black" stroke="black" points="189.94,-17.36 179.85,-20.59 189.75,-24.36 189.94,-17.36"/>
<text text-anchor="middle" x="1207" y="-192.3" font-family="Sans Not-Rotated 14" font-size="14.00"> </text>
</g>
</g>
</svg>
