<?xml version="1.0" encoding="UTF-8" standalone="no"?>
<!DOCTYPE svg PUBLIC "-//W3C//DTD SVG 1.1//EN"
 "http://www.w3.org/Graphics/SVG/1.1/DTD/svg11.dtd">
<!-- Generated by graphviz version 3.0.0 (20220226.1711)
 -->
<!-- Pages: 1 -->
<svg width="1409pt" height="635pt"
 viewBox="0.00 0.00 1409.37 634.60" xmlns="http://www.w3.org/2000/svg" xmlns:xlink="http://www.w3.org/1999/xlink">
<g id="graph0" class="graph" transform="scale(1 1) rotate(0) translate(4 630.6)">
<polygon fill="white" stroke="transparent" points="-4,4 -4,-630.6 1405.37,-630.6 1405.37,4 -4,4"/>
<!-- IV Antibiotics -->
<g id="node1" class="node">
<title>IV Antibiotics</title>
<polygon fill="#c0bde9" stroke="black" points="279.87,-626.6 172.87,-626.6 172.87,-590.6 279.87,-590.6 279.87,-626.6"/>
<text text-anchor="middle" x="226.37" y="-604.9" font-family="Sans Not-Rotated 14" font-size="14.00">IV Antibiotics</text>
</g>
<!-- IV Liquid -->
<g id="node2" class="node">
<title>IV Liquid</title>
<polygon fill="#c0bde9" stroke="black" points="178.87,-539.6 101.87,-539.6 101.87,-503.6 178.87,-503.6 178.87,-539.6"/>
<text text-anchor="middle" x="140.37" y="-517.9" font-family="Sans Not-Rotated 14" font-size="14.00">IV Liquid</text>
</g>
<!-- IV Antibiotics&#45;&gt;IV Liquid -->
<g id="edge9" class="edge">
<title>IV Antibiotics&#45;&gt;IV Liquid</title>
<path fill="none" stroke="black" stroke-width="1.19" d="M208.97,-590.39C196.38,-577.95 179.19,-560.96 165.16,-547.1"/>
<polygon fill="black" stroke="black" stroke-width="1.19" points="167.32,-544.31 157.75,-539.77 162.4,-549.29 167.32,-544.31"/>
<text text-anchor="middle" x="198.87" y="-561.4" font-family="Sans Not-Rotated 14" font-size="14.00"> &#160;&#160;&#160;</text>
</g>
<!-- ER Registration -->
<g id="node14" class="node">
<title>ER Registration</title>
<polygon fill="#a09dde" stroke="black" points="245.37,-347 121.37,-347 121.37,-311 245.37,-311 245.37,-347"/>
<text text-anchor="middle" x="183.37" y="-325.3" font-family="Sans Not-Rotated 14" font-size="14.00">ER Registration</text>
</g>
<!-- IV Antibiotics&#45;&gt;ER Registration -->
<g id="edge35" class="edge">
<title>IV Antibiotics&#45;&gt;ER Registration</title>
<path fill="none" stroke="black" stroke-width="2.4" d="M234.59,-590.46C240.58,-576.98 248.18,-557.55 251.37,-539.6 257.32,-506.16 249,-422.55 243.37,-398 239.85,-382.64 239.95,-377.52 230.37,-365 227.36,-361.07 223.8,-357.36 220,-353.94"/>
<polygon fill="black" stroke="black" stroke-width="2.4" points="221.92,-350.99 211.97,-347.34 217.47,-356.4 221.92,-350.99"/>
<text text-anchor="middle" x="273.87" y="-474.4" font-family="Sans Not-Rotated 14" font-size="14.00"> &#160;&#160;&#160;&#160;&#160;&#160;&#160;&#160;</text>
</g>
<!-- end -->
<g id="node18" class="node">
<title>end</title>
<ellipse fill="#ea4126" stroke="black" cx="746.37" cy="-22" rx="18" ry="18"/>
<ellipse fill="none" stroke="black" cx="746.37" cy="-22" rx="22" ry="22"/>
</g>
<!-- IV Antibiotics&#45;&gt;end -->
<g id="edge47" class="edge">
<title>IV Antibiotics&#45;&gt;end</title>
<path fill="none" stroke="black" stroke-dasharray="5,2" d="M280.11,-593.69C313.99,-581.31 351.37,-559.34 351.37,-522.6 351.37,-522.6 351.37,-522.6 351.37,-112 351.37,-37.8 620,-25.45 714.2,-23.41"/>
<polygon fill="black" stroke="black" points="714.36,-26.9 724.29,-23.21 714.22,-19.9 714.36,-26.9"/>
<text text-anchor="middle" x="353.87" y="-325.3" font-family="Sans Not-Rotated 14" font-size="14.00"> </text>
</g>
<!-- IV Liquid&#45;&gt;IV Antibiotics -->
<g id="edge10" class="edge">
<title>IV Liquid&#45;&gt;IV Antibiotics</title>
<path fill="none" stroke="black" stroke-width="2.19" d="M132.4,-539.73C128.85,-550.09 126.79,-563.08 133.37,-572.6 140.65,-583.12 151.52,-590.48 163.29,-595.63"/>
<polygon fill="black" stroke="black" stroke-width="2.19" points="162.28,-598.99 172.87,-599.31 164.78,-592.46 162.28,-598.99"/>
<text text-anchor="middle" x="153.87" y="-561.4" font-family="Sans Not-Rotated 14" font-size="14.00"> &#160;&#160;&#160;&#160;&#160;&#160;&#160;&#160;</text>
</g>
<!-- IV Liquid&#45;&gt;ER Registration -->
<g id="edge34" class="edge">
<title>IV Liquid&#45;&gt;ER Registration</title>
<path fill="none" stroke="black" stroke-width="1.2" d="M101.86,-512.17C70.88,-503.14 29.33,-485.44 9.37,-452.6 -3.23,-431.86 -2.98,-418.89 9.37,-398 30.28,-362.63 73.11,-345.62 111.03,-337.45"/>
<polygon fill="black" stroke="black" stroke-width="1.2" points="111.94,-340.84 121.07,-335.47 110.58,-333.97 111.94,-340.84"/>
<text text-anchor="middle" x="29.87" y="-421.6" font-family="Sans Not-Rotated 14" font-size="14.00"> &#160;&#160;&#160;&#160;&#160;&#160;&#160;&#160;</text>
</g>
<!-- ER Sepsis Triage -->
<g id="node15" class="node">
<title>ER Sepsis Triage</title>
<polygon fill="#a09dde" stroke="black" points="190.87,-443.3 59.87,-443.3 59.87,-407.3 190.87,-407.3 190.87,-443.3"/>
<text text-anchor="middle" x="125.37" y="-421.6" font-family="Sans Not-Rotated 14" font-size="14.00">ER Sepsis Triage</text>
</g>
<!-- IV Liquid&#45;&gt;ER Sepsis Triage -->
<g id="edge1" class="edge">
<title>IV Liquid&#45;&gt;ER Sepsis Triage</title>
<path fill="none" stroke="black" stroke-width="1.07" d="M140.21,-503.37C139.9,-493.69 139.14,-481.41 137.37,-470.6 136.44,-464.89 135.07,-458.87 133.59,-453.16"/>
<polygon fill="black" stroke="black" stroke-width="1.07" points="136.92,-452.07 130.87,-443.37 130.18,-453.94 136.92,-452.07"/>
<text text-anchor="middle" x="148.87" y="-474.4" font-family="Sans Not-Rotated 14" font-size="14.00"> &#160;&#160;&#160;</text>
</g>
<!-- ER Triage -->
<g id="node3" class="node">
<title>ER Triage</title>
<polygon fill="#a09dde" stroke="black" points="809.87,-293 726.87,-293 726.87,-257 809.87,-257 809.87,-293"/>
<text text-anchor="middle" x="768.37" y="-271.3" font-family="Sans Not-Rotated 14" font-size="14.00">ER Triage</text>
</g>
<!-- ER Triage&#45;&gt;end -->
<g id="edge42" class="edge">
<title>ER Triage&#45;&gt;end</title>
<path fill="none" stroke="black" stroke-dasharray="5,2" d="M766.86,-256.75C763.2,-214.99 753.82,-107.98 749.13,-54.46"/>
<polygon fill="black" stroke="black" points="752.59,-53.86 748.23,-44.2 745.62,-54.47 752.59,-53.86"/>
<text text-anchor="middle" x="761.87" y="-163.3" font-family="Sans Not-Rotated 14" font-size="14.00"> </text>
</g>
<!-- Leucocytes -->
<g id="node4" class="node">
<title>Leucocytes</title>
<polygon fill="#1d2559" stroke="black" points="600.87,-347 507.87,-347 507.87,-311 600.87,-311 600.87,-347"/>
<text text-anchor="middle" x="554.37" y="-325.3" font-family="Sans Not-Rotated 14" font-size="14.00" fill="white">Leucocytes</text>
</g>
<!-- LacticAcid -->
<g id="node5" class="node">
<title>LacticAcid</title>
<polygon fill="#7d7fd2" stroke="black" points="573.87,-239 488.87,-239 488.87,-203 573.87,-203 573.87,-239"/>
<text text-anchor="middle" x="531.37" y="-217.3" font-family="Sans Not-Rotated 14" font-size="14.00">LacticAcid</text>
</g>
<!-- Leucocytes&#45;&gt;LacticAcid -->
<g id="edge12" class="edge">
<title>Leucocytes&#45;&gt;LacticAcid</title>
<path fill="none" stroke="black" stroke-width="2.08" d="M511.73,-310.81C504.79,-306.08 498.52,-300.22 494.37,-293 486.4,-279.13 488.04,-271.7 494.37,-257 495.94,-253.36 498.09,-249.92 500.58,-246.72"/>
<polygon fill="black" stroke="black" stroke-width="2.08" points="503.18,-249.06 507.3,-239.3 498,-244.36 503.18,-249.06"/>
<text text-anchor="middle" x="514.87" y="-271.3" font-family="Sans Not-Rotated 14" font-size="14.00"> &#160;&#160;&#160;&#160;&#160;&#160;&#160;&#160;</text>
</g>
<!-- CRP -->
<g id="node11" class="node">
<title>CRP</title>
<polygon fill="#1d2559" stroke="black" points="581.37,-131 527.37,-131 527.37,-95 581.37,-95 581.37,-131"/>
<text text-anchor="middle" x="554.37" y="-109.3" font-family="Sans Not-Rotated 14" font-size="14.00" fill="white">CRP</text>
</g>
<!-- Leucocytes&#45;&gt;CRP -->
<g id="edge13" class="edge">
<title>Leucocytes&#45;&gt;CRP</title>
<path fill="none" stroke="black" stroke-width="5" d="M507.47,-312.52C455.29,-292.46 381.49,-253.92 407.37,-203 429.12,-160.21 481.58,-136.06 517.57,-124.01"/>
<polygon fill="black" stroke="black" stroke-width="5" points="519.05,-128.13 527.25,-120.93 516.39,-119.79 519.05,-128.13"/>
<text text-anchor="middle" x="443.87" y="-217.3" font-family="Sans Not-Rotated 14" font-size="14.00"> &#160;&#160;&#160;&#160;&#160;&#160;&#160;&#160;&#160;&#160;&#160;&#160;&#160;&#160;&#160;</text>
</g>
<!-- LacticAcid&#45;&gt;Leucocytes -->
<g id="edge4" class="edge">
<title>LacticAcid&#45;&gt;Leucocytes</title>
<path fill="none" stroke="black" stroke-width="2.47" d="M535.13,-239.34C538.76,-256.04 544.29,-281.55 548.5,-300.93"/>
<polygon fill="black" stroke="black" stroke-width="2.47" points="545.14,-301.94 550.68,-310.97 551.98,-300.45 545.14,-301.94"/>
<text text-anchor="middle" x="565.87" y="-271.3" font-family="Sans Not-Rotated 14" font-size="14.00"> &#160;&#160;&#160;&#160;&#160;&#160;&#160;&#160;</text>
</g>
<!-- LacticAcid&#45;&gt;CRP -->
<g id="edge8" class="edge">
<title>LacticAcid&#45;&gt;CRP</title>
<path fill="none" stroke="black" stroke-width="2.12" d="M535.07,-202.97C538.68,-186.3 544.25,-160.65 548.48,-141.16"/>
<polygon fill="black" stroke="black" stroke-width="2.12" points="551.91,-141.86 550.61,-131.34 545.07,-140.37 551.91,-141.86"/>
<text text-anchor="middle" x="565.87" y="-163.3" font-family="Sans Not-Rotated 14" font-size="14.00"> &#160;&#160;&#160;&#160;&#160;&#160;&#160;&#160;</text>
</g>
<!-- Return ER -->
<g id="node6" class="node">
<title>Return ER</title>
<polygon fill="#ffffff" stroke="black" points="748.37,-185 660.37,-185 660.37,-149 748.37,-149 748.37,-185"/>
<text text-anchor="middle" x="704.37" y="-163.3" font-family="Sans Not-Rotated 14" font-size="14.00">Return ER</text>
</g>
<!-- Return ER&#45;&gt;end -->
<g id="edge43" class="edge">
<title>Return ER&#45;&gt;end</title>
<path fill="none" stroke="black" stroke-dasharray="5,2" d="M709.44,-148.75C716.39,-125.09 728.98,-82.22 737.51,-53.18"/>
<polygon fill="black" stroke="black" points="740.88,-54.12 740.34,-43.54 734.16,-52.15 740.88,-54.12"/>
<text text-anchor="middle" x="726.87" y="-109.3" font-family="Sans Not-Rotated 14" font-size="14.00"> </text>
</g>
<!-- Release A -->
<g id="node7" class="node">
<title>Release A</title>
<polygon fill="#e0ddf4" stroke="black" points="1050.37,-347 966.37,-347 966.37,-311 1050.37,-311 1050.37,-347"/>
<text text-anchor="middle" x="1008.37" y="-325.3" font-family="Sans Not-Rotated 14" font-size="14.00">Release A</text>
</g>
<!-- Release E -->
<g id="node8" class="node">
<title>Release E</title>
<polygon fill="#ffffff" stroke="black" points="1213.87,-40 1130.87,-40 1130.87,-4 1213.87,-4 1213.87,-40"/>
<text text-anchor="middle" x="1172.37" y="-18.3" font-family="Sans Not-Rotated 14" font-size="14.00">Release E</text>
</g>
<!-- Release A&#45;&gt;Release E -->
<g id="edge23" class="edge">
<title>Release A&#45;&gt;Release E</title>
<path fill="none" stroke="black" stroke-width="1.01" d="M1050.38,-320.93C1070.54,-315.85 1094.02,-307.28 1111.37,-293 1132.74,-275.41 1129.66,-263.58 1142.37,-239 1176.65,-172.73 1182.25,-151.49 1186.37,-77 1186.74,-70.34 1187.51,-68.57 1186.37,-62 1185.67,-57.97 1184.59,-53.8 1183.33,-49.76"/>
<polygon fill="black" stroke="black" stroke-width="1.01" points="1186.57,-48.41 1179.96,-40.12 1179.96,-50.72 1186.57,-48.41"/>
<text text-anchor="middle" x="1180.87" y="-163.3" font-family="Sans Not-Rotated 14" font-size="14.00"> </text>
</g>
<!-- Release D -->
<g id="node10" class="node">
<title>Release D</title>
<polygon fill="#ffffff" stroke="black" points="1051.37,-239 965.37,-239 965.37,-203 1051.37,-203 1051.37,-239"/>
<text text-anchor="middle" x="1008.37" y="-217.3" font-family="Sans Not-Rotated 14" font-size="14.00">Release D</text>
</g>
<!-- Release A&#45;&gt;Release D -->
<g id="edge27" class="edge">
<title>Release A&#45;&gt;Release D</title>
<path fill="none" stroke="black" stroke-width="1.04" d="M1008.37,-310.97C1008.37,-294.38 1008.37,-268.88 1008.37,-249.43"/>
<polygon fill="black" stroke="black" stroke-width="1.04" points="1011.87,-249.34 1008.37,-239.34 1004.87,-249.34 1011.87,-249.34"/>
<text text-anchor="middle" x="1017.87" y="-271.3" font-family="Sans Not-Rotated 14" font-size="14.00"> &#160;&#160;&#160;</text>
</g>
<!-- Release C -->
<g id="node13" class="node">
<title>Release C</title>
<polygon fill="#ffffff" stroke="black" points="1034.37,-40 950.37,-40 950.37,-4 1034.37,-4 1034.37,-40"/>
<text text-anchor="middle" x="992.37" y="-18.3" font-family="Sans Not-Rotated 14" font-size="14.00">Release C</text>
</g>
<!-- Release A&#45;&gt;Release C -->
<g id="edge30" class="edge">
<title>Release A&#45;&gt;Release C</title>
<path fill="none" stroke="black" stroke-width="1.03" d="M966.05,-315.2C952.96,-309.82 939.16,-302.54 928.37,-293 887.24,-256.62 881.38,-238.35 868.37,-185 853.92,-125.72 881.26,-99.53 929.37,-62 936.75,-56.25 945.01,-50.62 953.07,-45.5"/>
<polygon fill="black" stroke="black" stroke-width="1.03" points="955.02,-48.41 961.68,-40.18 951.34,-42.46 955.02,-48.41"/>
<text text-anchor="middle" x="877.87" y="-163.3" font-family="Sans Not-Rotated 14" font-size="14.00"> &#160;&#160;&#160;</text>
</g>
<!-- Release B -->
<g id="node16" class="node">
<title>Release B</title>
<polygon fill="#ffffff" stroke="black" points="1120.37,-131 1036.37,-131 1036.37,-95 1120.37,-95 1120.37,-131"/>
<text text-anchor="middle" x="1078.37" y="-109.3" font-family="Sans Not-Rotated 14" font-size="14.00">Release B</text>
</g>
<!-- Release A&#45;&gt;Release B -->
<g id="edge38" class="edge">
<title>Release A&#45;&gt;Release B</title>
<path fill="none" stroke="black" stroke-width="1.09" d="M1034.63,-310.89C1055.81,-295.2 1083.63,-269.76 1093.37,-239 1103.69,-206.4 1095.8,-166.96 1088.1,-141.22"/>
<polygon fill="black" stroke="black" stroke-width="1.09" points="1091.34,-139.88 1084.97,-131.41 1084.67,-142 1091.34,-139.88"/>
<text text-anchor="middle" x="1106.87" y="-217.3" font-family="Sans Not-Rotated 14" font-size="14.00"> &#160;&#160;&#160;</text>
</g>
<!-- Release A&#45;&gt;end -->
<g id="edge44" class="edge">
<title>Release A&#45;&gt;end</title>
<path fill="none" stroke="black" stroke-dasharray="5,2" d="M966.11,-323.63C941.75,-319.25 911.81,-310.5 890.37,-293 869.58,-276.02 791.85,-117.54 760.06,-51.59"/>
<polygon fill="black" stroke="black" points="763.03,-49.69 755.54,-42.19 756.72,-52.72 763.03,-49.69"/>
<text text-anchor="middle" x="826.87" y="-163.3" font-family="Sans Not-Rotated 14" font-size="14.00"> </text>
</g>
<!-- Release E&#45;&gt;Release A -->
<g id="edge11" class="edge">
<title>Release E&#45;&gt;Release A</title>
<path fill="none" stroke="black" stroke-width="1.01" d="M1173.55,-40.1C1173.99,-50.76 1174.04,-64.74 1172.37,-77 1162.16,-151.93 1153.88,-171.21 1120.37,-239 1107.59,-264.86 1106.3,-274.26 1084.37,-293 1077.08,-299.23 1068.49,-304.58 1059.76,-309.08"/>
<polygon fill="black" stroke="black" stroke-width="1.01" points="1058.14,-305.98 1050.65,-313.47 1061.18,-312.28 1058.14,-305.98"/>
<text text-anchor="middle" x="1160.87" y="-163.3" font-family="Sans Not-Rotated 14" font-size="14.00"> </text>
</g>
<!-- Admission NC -->
<g id="node9" class="node">
<title>Admission NC</title>
<polygon fill="#a09dde" stroke="black" points="1310.37,-347 1200.37,-347 1200.37,-311 1310.37,-311 1310.37,-347"/>
<text text-anchor="middle" x="1255.37" y="-325.3" font-family="Sans Not-Rotated 14" font-size="14.00">Admission NC</text>
</g>
<!-- Admission NC&#45;&gt;Admission NC -->
<g id="edge46" class="edge">
<title>Admission NC&#45;&gt;Admission NC</title>
<path fill="none" stroke="black" stroke-width="3.25" d="M1310.45,-336.5C1320.95,-335.6 1328.37,-333.1 1328.37,-329 1328.37,-326.37 1325.32,-324.4 1320.37,-323.09"/>
<polygon fill="black" stroke="black" stroke-width="3.25" points="1320.87,-319.63 1310.45,-321.5 1319.77,-326.54 1320.87,-319.63"/>
<text text-anchor="middle" x="1364.87" y="-325.3" font-family="Sans Not-Rotated 14" font-size="14.00"> &#160;&#160;&#160;&#160;&#160;&#160;&#160;&#160;&#160;&#160;&#160;&#160;&#160;&#160;&#160;</text>
</g>
<!-- Admission IC -->
<g id="node12" class="node">
<title>Admission IC</title>
<polygon fill="#ffffff" stroke="black" points="1363.37,-239 1259.37,-239 1259.37,-203 1363.37,-203 1363.37,-239"/>
<text text-anchor="middle" x="1311.37" y="-217.3" font-family="Sans Not-Rotated 14" font-size="14.00">Admission IC</text>
</g>
<!-- Admission NC&#45;&gt;Admission IC -->
<g id="edge2" class="edge">
<title>Admission NC&#45;&gt;Admission IC</title>
<path fill="none" stroke="black" stroke-width="1.03" d="M1277.5,-310.84C1283.03,-305.63 1288.48,-299.53 1292.37,-293 1300.33,-279.63 1305.02,-262.9 1307.75,-249.03"/>
<polygon fill="black" stroke="black" stroke-width="1.03" points="1311.21,-249.54 1309.47,-239.09 1304.32,-248.34 1311.21,-249.54"/>
<text text-anchor="middle" x="1314.87" y="-271.3" font-family="Sans Not-Rotated 14" font-size="14.00"> &#160;&#160;&#160;</text>
</g>
<!-- Admission NC&#45;&gt;end -->
<g id="edge41" class="edge">
<title>Admission NC&#45;&gt;end</title>
<path fill="none" stroke="black" stroke-dasharray="5,2" d="M1204.97,-310.89C1159.77,-295.82 1091.51,-273.72 1031.37,-257 998.35,-247.82 983.02,-260.56 956.37,-239 921.91,-211.11 941.42,-183.33 913.37,-149 873.4,-100.08 810.64,-59.46 774.52,-38.45"/>
<polygon fill="black" stroke="black" points="775.93,-35.23 765.51,-33.3 772.45,-41.3 775.93,-35.23"/>
<text text-anchor="middle" x="938.87" y="-163.3" font-family="Sans Not-Rotated 14" font-size="14.00"> &#160;&#160;&#160;</text>
</g>
<!-- Release D&#45;&gt;Release A -->
<g id="edge21" class="edge">
<title>Release D&#45;&gt;Release A</title>
<path fill="none" stroke="black" stroke-width="1.04" d="M996.3,-239.03C993.07,-244.51 990.02,-250.78 988.37,-257 984.27,-272.46 984.27,-277.54 988.37,-293 989.17,-296.01 990.3,-299.04 991.62,-301.98"/>
<polygon fill="black" stroke="black" stroke-width="1.04" points="988.58,-303.72 996.3,-310.97 994.79,-300.49 988.58,-303.72"/>
<text text-anchor="middle" x="997.87" y="-271.3" font-family="Sans Not-Rotated 14" font-size="14.00"> &#160;&#160;&#160;</text>
</g>
<!-- Release D&#45;&gt;Release E -->
<g id="edge25" class="edge">
<title>Release D&#45;&gt;Release E</title>
<path fill="none" stroke="black" d="M1045.12,-202.91C1054.97,-197.7 1065.37,-191.59 1074.37,-185 1102.01,-164.76 1110.41,-159.53 1129.37,-131 1146.23,-105.64 1158.16,-72.66 1165.1,-49.84"/>
<polygon fill="black" stroke="black" points="1168.49,-50.72 1167.95,-40.14 1161.78,-48.76 1168.49,-50.72"/>
<text text-anchor="middle" x="1150.87" y="-109.3" font-family="Sans Not-Rotated 14" font-size="14.00"> </text>
</g>
<!-- Release D&#45;&gt;Release C -->
<g id="edge32" class="edge">
<title>Release D&#45;&gt;Release C</title>
<path fill="none" stroke="black" d="M1008.07,-202.87C1007.41,-173.81 1005.38,-113.03 999.37,-62 998.92,-58.15 998.33,-54.11 997.68,-50.15"/>
<polygon fill="black" stroke="black" points="1001.07,-49.26 995.89,-40.02 994.18,-50.48 1001.07,-49.26"/>
<text text-anchor="middle" x="1006.87" y="-109.3" font-family="Sans Not-Rotated 14" font-size="14.00"> </text>
</g>
<!-- Release D&#45;&gt;Release B -->
<g id="edge40" class="edge">
<title>Release D&#45;&gt;Release B</title>
<path fill="none" stroke="black" stroke-width="1" d="M1015.67,-202.89C1022.38,-188.02 1033.13,-166.22 1045.37,-149 1047.82,-145.55 1050.59,-142.1 1053.46,-138.78"/>
<polygon fill="black" stroke="black" stroke-width="1" points="1056.1,-141.09 1060.23,-131.34 1050.92,-136.38 1056.1,-141.09"/>
<text text-anchor="middle" x="1047.87" y="-163.3" font-family="Sans Not-Rotated 14" font-size="14.00"> </text>
</g>
<!-- CRP&#45;&gt;Leucocytes -->
<g id="edge5" class="edge">
<title>CRP&#45;&gt;Leucocytes</title>
<path fill="none" stroke="black" stroke-width="4.61" d="M577.43,-131.03C582.67,-136.17 587.52,-142.26 590.37,-149 615.28,-207.95 615.28,-234.05 590.37,-293 588.81,-296.69 586.66,-300.18 584.16,-303.43"/>
<polygon fill="black" stroke="black" stroke-width="4.61" points="581.08,-300.82 577.43,-310.97 587.1,-306.19 581.08,-300.82"/>
<text text-anchor="middle" x="644.87" y="-217.3" font-family="Sans Not-Rotated 14" font-size="14.00"> &#160;&#160;&#160;&#160;&#160;&#160;&#160;&#160;&#160;&#160;&#160;&#160;&#160;&#160;&#160;</text>
</g>
<!-- CRP&#45;&gt;LacticAcid -->
<g id="edge6" class="edge">
<title>CRP&#45;&gt;LacticAcid</title>
<path fill="none" stroke="black" stroke-width="2.51" d="M527.35,-121.78C514.02,-127.14 499.18,-135.74 491.37,-149 483.26,-162.79 484.76,-170.43 491.37,-185 493.04,-188.68 495.31,-192.12 497.92,-195.3"/>
<polygon fill="black" stroke="black" stroke-width="2.51" points="495.52,-197.86 504.97,-202.65 500.57,-193.01 495.52,-197.86"/>
<text text-anchor="middle" x="511.87" y="-163.3" font-family="Sans Not-Rotated 14" font-size="14.00"> &#160;&#160;&#160;&#160;&#160;&#160;&#160;&#160;</text>
</g>
<!-- CRP&#45;&gt;end -->
<g id="edge45" class="edge">
<title>CRP&#45;&gt;end</title>
<path fill="none" stroke="black" stroke-dasharray="5,2" d="M581.47,-99.44C617.44,-82.77 680.66,-53.46 717.5,-36.38"/>
<polygon fill="black" stroke="black" points="719.1,-39.5 726.7,-32.12 716.16,-33.15 719.1,-39.5"/>
<text text-anchor="middle" x="663.87" y="-65.8" font-family="Sans Not-Rotated 14" font-size="14.00"> </text>
</g>
<!-- Admission IC&#45;&gt;Admission NC -->
<g id="edge3" class="edge">
<title>Admission IC&#45;&gt;Admission NC</title>
<path fill="none" stroke="black" stroke-width="1.03" d="M1285.04,-239.25C1279.08,-244.31 1273.34,-250.31 1269.37,-257 1261.56,-270.17 1258.01,-286.9 1256.44,-300.81"/>
<polygon fill="black" stroke="black" stroke-width="1.03" points="1252.95,-300.54 1255.58,-310.8 1259.92,-301.13 1252.95,-300.54"/>
<text text-anchor="middle" x="1278.87" y="-271.3" font-family="Sans Not-Rotated 14" font-size="14.00"> &#160;&#160;&#160;</text>
</g>
<!-- Release C&#45;&gt;Release A -->
<g id="edge20" class="edge">
<title>Release C&#45;&gt;Release A</title>
<path fill="none" stroke="black" stroke-width="1.04" d="M970.35,-40.06C937.25,-67.94 880,-126.08 894.37,-185 906.47,-234.62 948.38,-278.35 977.86,-304"/>
<polygon fill="black" stroke="black" stroke-width="1.04" points="975.92,-306.94 985.81,-310.74 980.45,-301.6 975.92,-306.94"/>
<text text-anchor="middle" x="903.87" y="-163.3" font-family="Sans Not-Rotated 14" font-size="14.00"> &#160;&#160;&#160;</text>
</g>
<!-- Release C&#45;&gt;Release D -->
<g id="edge29" class="edge">
<title>Release C&#45;&gt;Release D</title>
<path fill="none" stroke="black" stroke-width="1" d="M989.59,-40.42C985.42,-70.54 979.43,-134 993.37,-185 994.14,-187.81 995.09,-190.69 996.13,-193.53"/>
<polygon fill="black" stroke="black" stroke-width="1" points="992.92,-194.94 999.92,-202.89 999.41,-192.31 992.92,-194.94"/>
<text text-anchor="middle" x="986.87" y="-109.3" font-family="Sans Not-Rotated 14" font-size="14.00"> </text>
</g>
<!-- Release C&#45;&gt;Release B -->
<g id="edge39" class="edge">
<title>Release C&#45;&gt;Release B</title>
<path fill="none" stroke="black" d="M1008.9,-40.11C1021.86,-53.51 1040.06,-72.35 1054.58,-87.38"/>
<polygon fill="black" stroke="black" points="1052.32,-90.08 1061.79,-94.84 1057.36,-85.22 1052.32,-90.08"/>
<text text-anchor="middle" x="1044.87" y="-65.8" font-family="Sans Not-Rotated 14" font-size="14.00"> </text>
</g>
<!-- ER Registration&#45;&gt;IV Liquid -->
<g id="edge15" class="edge">
<title>ER Registration&#45;&gt;IV Liquid</title>
<path fill="none" stroke="black" stroke-width="1.08" d="M202.33,-347.26C206.81,-352.48 210.98,-358.54 213.37,-365 227.05,-401.98 216.61,-417.14 199.37,-452.6 191.52,-468.74 178.84,-484.08 167.24,-496.1"/>
<polygon fill="black" stroke="black" stroke-width="1.08" points="164.45,-493.94 159.84,-503.48 169.39,-498.9 164.45,-493.94"/>
<text text-anchor="middle" x="229.87" y="-421.6" font-family="Sans Not-Rotated 14" font-size="14.00"> &#160;&#160;&#160;</text>
</g>
<!-- ER Registration&#45;&gt;ER Sepsis Triage -->
<g id="edge37" class="edge">
<title>ER Registration&#45;&gt;ER Sepsis Triage</title>
<path fill="none" stroke="black" stroke-width="2.96" d="M156.66,-347.3C150.55,-352.36 144.62,-358.35 140.37,-365 134.29,-374.54 130.67,-386.4 128.52,-397"/>
<polygon fill="black" stroke="black" stroke-width="2.96" points="125.04,-396.61 126.82,-407.06 131.94,-397.78 125.04,-396.61"/>
<text text-anchor="middle" x="176.87" y="-368.8" font-family="Sans Not-Rotated 14" font-size="14.00"> &#160;&#160;&#160;&#160;&#160;&#160;&#160;&#160;&#160;&#160;&#160;&#160;&#160;&#160;&#160;</text>
</g>
<!-- ER Sepsis Triage&#45;&gt;IV Antibiotics -->
<g id="edge14" class="edge">
<title>ER Sepsis Triage&#45;&gt;IV Antibiotics</title>
<path fill="none" stroke="black" stroke-width="1.41" d="M139.97,-443.39C146.86,-451.55 155.13,-461.5 162.37,-470.6 173.83,-484.99 177.9,-487.82 187.37,-503.6 200.99,-526.27 203.22,-532.78 212.37,-557.6 215.07,-564.92 217.55,-573.01 219.64,-580.52"/>
<polygon fill="black" stroke="black" stroke-width="1.41" points="216.28,-581.5 222.25,-590.25 223.05,-579.69 216.28,-581.5"/>
<text text-anchor="middle" x="226.87" y="-517.9" font-family="Sans Not-Rotated 14" font-size="14.00"> &#160;&#160;&#160;&#160;&#160;&#160;&#160;&#160;</text>
</g>
<!-- ER Sepsis Triage&#45;&gt;IV Liquid -->
<g id="edge7" class="edge">
<title>ER Sepsis Triage&#45;&gt;IV Liquid</title>
<path fill="none" stroke="black" stroke-width="2.2" d="M105.87,-443.5C95.02,-455.24 85.06,-471.21 92.37,-485.6 94.43,-489.63 97.19,-493.32 100.36,-496.65"/>
<polygon fill="black" stroke="black" stroke-width="2.2" points="98.05,-499.28 107.82,-503.38 102.74,-494.08 98.05,-499.28"/>
<text text-anchor="middle" x="112.87" y="-474.4" font-family="Sans Not-Rotated 14" font-size="14.00"> &#160;&#160;&#160;&#160;&#160;&#160;&#160;&#160;</text>
</g>
<!-- ER Sepsis Triage&#45;&gt;ER Registration -->
<g id="edge33" class="edge">
<title>ER Sepsis Triage&#45;&gt;ER Registration</title>
<path fill="none" stroke="black" stroke-width="1.43" d="M96.14,-407.12C80.21,-395.52 65.71,-379.7 76.37,-365 84.99,-353.11 97.78,-345.18 111.53,-339.92"/>
<polygon fill="black" stroke="black" stroke-width="1.43" points="112.8,-343.18 121.17,-336.68 110.58,-336.55 112.8,-343.18"/>
<text text-anchor="middle" x="96.87" y="-368.8" font-family="Sans Not-Rotated 14" font-size="14.00"> &#160;&#160;&#160;&#160;&#160;&#160;&#160;&#160;</text>
</g>
<!-- Release B&#45;&gt;Release A -->
<g id="edge19" class="edge">
<title>Release B&#45;&gt;Release A</title>
<path fill="none" stroke="black" stroke-width="1.08" d="M1078.35,-131.03C1078.11,-145.47 1077.23,-166.7 1074.37,-185 1066.4,-236.05 1057.81,-248.61 1031.37,-293 1029.57,-296.03 1027.62,-299.16 1025.66,-302.26"/>
<polygon fill="black" stroke="black" stroke-width="1.08" points="1022.65,-300.45 1020.14,-310.75 1028.53,-304.26 1022.65,-300.45"/>
<text text-anchor="middle" x="1079.87" y="-217.3" font-family="Sans Not-Rotated 14" font-size="14.00"> &#160;&#160;&#160;</text>
</g>
<!-- Release B&#45;&gt;Release E -->
<g id="edge24" class="edge">
<title>Release B&#45;&gt;Release E</title>
<path fill="none" stroke="black" d="M1096.5,-94.84C1110.8,-81.3 1130.93,-62.24 1146.86,-47.15"/>
<polygon fill="black" stroke="black" points="1149.45,-49.52 1154.3,-40.11 1144.64,-44.44 1149.45,-49.52"/>
<text text-anchor="middle" x="1132.87" y="-65.8" font-family="Sans Not-Rotated 14" font-size="14.00"> </text>
</g>
<!-- Release B&#45;&gt;Release D -->
<g id="edge28" class="edge">
<title>Release B&#45;&gt;Release D</title>
<path fill="none" stroke="black" stroke-width="1" d="M1072.88,-131.08C1067.54,-146.14 1058.47,-168.22 1046.37,-185 1043.7,-188.7 1040.59,-192.31 1037.32,-195.73"/>
<polygon fill="black" stroke="black" stroke-width="1" points="1034.75,-193.35 1030.02,-202.83 1039.63,-198.37 1034.75,-193.35"/>
<text text-anchor="middle" x="1067.87" y="-163.3" font-family="Sans Not-Rotated 14" font-size="14.00"> </text>
</g>
<!-- Release B&#45;&gt;Release C -->
<g id="edge31" class="edge">
<title>Release B&#45;&gt;Release C</title>
<path fill="none" stroke="black" stroke-width="1.01" d="M1072.89,-94.85C1068.95,-84.48 1062.83,-71.48 1054.37,-62 1049.01,-56 1042.52,-50.58 1035.77,-45.82"/>
<polygon fill="black" stroke="black" stroke-width="1.01" points="1037.44,-42.73 1027.16,-40.16 1033.59,-48.58 1037.44,-42.73"/>
<text text-anchor="middle" x="1066.87" y="-65.8" font-family="Sans Not-Rotated 14" font-size="14.00"> </text>
</g>
<!-- start -->
<g id="node17" class="node">
<title>start</title>
<ellipse fill="#95d600" stroke="black" cx="727.37" cy="-425.3" rx="27.1" ry="27.1"/>
<text text-anchor="middle" x="727.37" y="-421.6" font-family="Sans Not-Rotated 14" font-size="14.00">start</text>
</g>
<!-- start&#45;&gt;ER Triage -->
<g id="edge16" class="edge">
<title>start&#45;&gt;ER Triage</title>
<path fill="none" stroke="black" stroke-dasharray="5,2" d="M734.42,-398.8C741.81,-372.07 753.38,-330.24 760.91,-302.97"/>
<polygon fill="black" stroke="black" points="764.3,-303.87 763.59,-293.3 757.55,-302 764.3,-303.87"/>
<text text-anchor="middle" x="745.87" y="-368.8" font-family="Sans Not-Rotated 14" font-size="14.00"> </text>
</g>
<!-- start&#45;&gt;Leucocytes -->
<g id="edge17" class="edge">
<title>start&#45;&gt;Leucocytes</title>
<path fill="none" stroke="black" stroke-dasharray="5,2" d="M703.68,-411.38C675.68,-396.12 628.64,-370.48 594.83,-352.05"/>
<polygon fill="black" stroke="black" points="596.13,-348.77 585.67,-347.06 592.78,-354.92 596.13,-348.77"/>
<text text-anchor="middle" x="647.87" y="-368.8" font-family="Sans Not-Rotated 14" font-size="14.00"> </text>
</g>
<!-- start&#45;&gt;Return ER -->
<g id="edge18" class="edge">
<title>start&#45;&gt;Return ER</title>
<path fill="none" stroke="black" stroke-dasharray="5,2" d="M725,-397.83C720.6,-348.86 711.25,-244.59 706.81,-195.13"/>
<polygon fill="black" stroke="black" points="710.29,-194.81 705.91,-185.17 703.32,-195.44 710.29,-194.81"/>
<text text-anchor="middle" x="721.87" y="-325.3" font-family="Sans Not-Rotated 14" font-size="14.00"> </text>
</g>
<!-- start&#45;&gt;Release A -->
<g id="edge22" class="edge">
<title>start&#45;&gt;Release A</title>
<path fill="none" stroke="black" stroke-dasharray="5,2" d="M753.3,-415.6C799.38,-400.13 896.32,-367.6 956.53,-347.4"/>
<polygon fill="black" stroke="black" points="957.86,-350.64 966.23,-344.14 955.63,-344.01 957.86,-350.64"/>
<text text-anchor="middle" x="902.87" y="-368.8" font-family="Sans Not-Rotated 14" font-size="14.00"> </text>
</g>
<!-- start&#45;&gt;Admission NC -->
<g id="edge26" class="edge">
<title>start&#45;&gt;Admission NC</title>
<path fill="none" stroke="black" stroke-dasharray="5,2" d="M754.28,-419.49C834.53,-405.16 1073.82,-362.42 1190.27,-341.63"/>
<polygon fill="black" stroke="black" points="1190.9,-345.07 1200.13,-339.87 1189.67,-338.18 1190.9,-345.07"/>
<text text-anchor="middle" x="1062.87" y="-368.8" font-family="Sans Not-Rotated 14" font-size="14.00"> &#160;&#160;&#160;</text>
</g>
<!-- start&#45;&gt;ER Registration -->
<g id="edge36" class="edge">
<title>start&#45;&gt;ER Registration</title>
<path fill="none" stroke="black" stroke-dasharray="5,2" d="M700.39,-419.62C619.59,-405.61 377.58,-363.66 255.49,-342.5"/>
<polygon fill="black" stroke="black" points="255.93,-339.03 245.48,-340.77 254.74,-345.92 255.93,-339.03"/>
<text text-anchor="middle" x="473.87" y="-368.8" font-family="Sans Not-Rotated 14" font-size="14.00"> </text>
</g>
</g>
</svg>
