<?xml version="1.0" encoding="UTF-8" standalone="no"?>
<!DOCTYPE svg PUBLIC "-//W3C//DTD SVG 1.1//EN"
 "http://www.w3.org/Graphics/SVG/1.1/DTD/svg11.dtd">
<!-- Generated by graphviz version 3.0.0 (20220226.1711)
 -->
<!-- Pages: 1 -->
<svg width="785pt" height="593pt"
 viewBox="0.00 0.00 785.00 592.60" xmlns="http://www.w3.org/2000/svg" xmlns:xlink="http://www.w3.org/1999/xlink">
<g id="graph0" class="graph" transform="scale(1 1) rotate(0) translate(4 588.6)">
<polygon fill="white" stroke="transparent" points="-4,4 -4,-588.6 781,-588.6 781,4 -4,4"/>
<!-- RELEASE -->
<g id="node1" class="node">
<title>RELEASE</title>
<polygon fill="#e0ddf4" stroke="black" points="460,-392 380,-392 380,-356 460,-356 460,-392"/>
<text text-anchor="middle" x="420" y="-370.3" font-family="Sans Not-Rotated 14" font-size="14.00">RELEASE</text>
</g>
<!-- RELEASE&#45;&gt;RELEASE -->
<g id="edge14" class="edge">
<title>RELEASE&#45;&gt;RELEASE</title>
<path fill="none" stroke="black" stroke-width="1.01" d="M460.12,-381.78C470.33,-381.27 478,-378.68 478,-374 478,-371.08 475,-368.97 470.26,-367.67"/>
<polygon fill="black" stroke="black" stroke-width="1.01" points="470.51,-364.17 460.12,-366.22 469.52,-371.1 470.51,-364.17"/>
<text text-anchor="middle" x="487.5" y="-370.3" font-family="Sans Not-Rotated 14" font-size="14.00"> &#160;&#160;&#160;</text>
</g>
<!-- BILLED -->
<g id="node2" class="node">
<title>BILLED</title>
<polygon fill="#ffffff" stroke="black" points="547,-305 479,-305 479,-269 547,-269 547,-305"/>
<text text-anchor="middle" x="513" y="-283.3" font-family="Sans Not-Rotated 14" font-size="14.00">BILLED</text>
</g>
<!-- RELEASE&#45;&gt;BILLED -->
<g id="edge13" class="edge">
<title>RELEASE&#45;&gt;BILLED</title>
<path fill="none" stroke="black" stroke-width="1.03" d="M438.82,-355.8C452.56,-343.24 471.37,-326.05 486.61,-312.12"/>
<polygon fill="black" stroke="black" stroke-width="1.03" points="489.19,-314.51 494.21,-305.18 484.47,-309.34 489.19,-314.51"/>
<text text-anchor="middle" x="492.5" y="-326.8" font-family="Sans Not-Rotated 14" font-size="14.00"> &#160;&#160;&#160;&#160;&#160;&#160;&#160;&#160;</text>
</g>
<!-- CODE OK -->
<g id="node3" class="node">
<title>CODE OK</title>
<polygon fill="#ffffff" stroke="black" points="422.5,-218 339.5,-218 339.5,-182 422.5,-182 422.5,-218"/>
<text text-anchor="middle" x="381" y="-196.3" font-family="Sans Not-Rotated 14" font-size="14.00">CODE OK</text>
</g>
<!-- RELEASE&#45;&gt;CODE OK -->
<g id="edge11" class="edge">
<title>RELEASE&#45;&gt;CODE OK</title>
<path fill="none" stroke="black" stroke-width="3.95" d="M379.71,-364.74C347.88,-355.87 305.51,-338.29 285,-305 265.54,-273.41 302.44,-242.9 335.98,-223.19"/>
<polygon fill="black" stroke="black" stroke-width="3.95" points="337.87,-226.14 344.85,-218.17 334.42,-220.05 337.87,-226.14"/>
<text text-anchor="middle" x="341.5" y="-283.3" font-family="Sans Not-Rotated 14" font-size="14.00"> &#160;&#160;&#160;&#160;&#160;&#160;&#160;&#160;&#160;&#160;&#160;&#160;&#160;&#160;&#160;&#160;&#160;&#160;&#160;&#160;&#160;&#160;&#160;&#160;</text>
</g>
<!-- FIN -->
<g id="node5" class="node">
<title>FIN</title>
<polygon fill="#e0ddf4" stroke="black" points="293,-131 239,-131 239,-95 293,-95 293,-131"/>
<text text-anchor="middle" x="266" y="-109.3" font-family="Sans Not-Rotated 14" font-size="14.00">FIN</text>
</g>
<!-- RELEASE&#45;&gt;FIN -->
<g id="edge12" class="edge">
<title>RELEASE&#45;&gt;FIN</title>
<path fill="none" stroke="black" stroke-width="1" d="M379.93,-368.99C354.16,-364.73 321.12,-355.98 297,-338 283.06,-327.61 281.3,-321.56 276,-305 258.1,-249.01 260.17,-179.12 263.16,-141.33"/>
<polygon fill="black" stroke="black" stroke-width="1" points="266.66,-141.39 264.05,-131.12 259.69,-140.78 266.66,-141.39"/>
<text text-anchor="middle" x="274.5" y="-239.8" font-family="Sans Not-Rotated 14" font-size="14.00"> &#160;&#160;&#160;</text>
</g>
<!-- end -->
<g id="node7" class="node">
<title>end</title>
<ellipse fill="#ea4126" stroke="black" cx="529" cy="-22" rx="18" ry="18"/>
<ellipse fill="none" stroke="black" cx="529" cy="-22" rx="22" ry="22"/>
</g>
<!-- RELEASE&#45;&gt;end -->
<g id="edge15" class="edge">
<title>RELEASE&#45;&gt;end</title>
<path fill="none" stroke="black" stroke-dasharray="5,2" d="M460.24,-367.34C499.36,-359.77 557.88,-342.63 593,-305 638.37,-256.39 631.73,-229.53 643,-164 652.52,-108.66 593.42,-61.98 556.71,-38.76"/>
<polygon fill="black" stroke="black" points="558.27,-35.61 547.91,-33.37 554.61,-41.58 558.27,-35.61"/>
<text text-anchor="middle" x="649.5" y="-196.3" font-family="Sans Not-Rotated 14" font-size="14.00"> &#160;&#160;&#160;</text>
</g>
<!-- BILLED&#45;&gt;BILLED -->
<g id="edge22" class="edge">
<title>BILLED&#45;&gt;BILLED</title>
<path fill="none" stroke="black" stroke-width="1.01" d="M547.01,-294.86C557.13,-294.62 565,-292 565,-287 565,-283.87 561.92,-281.68 557.15,-280.41"/>
<polygon fill="black" stroke="black" stroke-width="1.01" points="557.37,-276.91 547.01,-279.14 556.5,-283.86 557.37,-276.91"/>
<text text-anchor="middle" x="574.5" y="-283.3" font-family="Sans Not-Rotated 14" font-size="14.00"> &#160;&#160;&#160;</text>
</g>
<!-- BILLED&#45;&gt;CODE OK -->
<g id="edge21" class="edge">
<title>BILLED&#45;&gt;CODE OK</title>
<path fill="none" stroke="black" stroke-width="1.01" d="M478.76,-273.51C474.15,-271.93 469.47,-270.39 465,-269 435.56,-259.85 420.5,-272.08 398,-251 391.53,-244.94 387.52,-236.32 385.04,-227.95"/>
<polygon fill="black" stroke="black" stroke-width="1.01" points="388.41,-226.97 382.71,-218.04 381.59,-228.58 388.41,-226.97"/>
<text text-anchor="middle" x="407.5" y="-239.8" font-family="Sans Not-Rotated 14" font-size="14.00"> &#160;&#160;&#160;</text>
</g>
<!-- BILLED&#45;&gt;end -->
<g id="edge23" class="edge">
<title>BILLED&#45;&gt;end</title>
<path fill="none" stroke="black" stroke-dasharray="5,2" d="M540.04,-268.76C545.68,-263.77 550.86,-257.8 554,-251 563.05,-231.38 541.66,-234.28 530,-164 523.82,-126.74 524.72,-83.18 526.42,-54.44"/>
<polygon fill="black" stroke="black" points="529.93,-54.41 527.1,-44.2 522.95,-53.95 529.93,-54.41"/>
<text text-anchor="middle" x="586.5" y="-152.8" font-family="Sans Not-Rotated 14" font-size="14.00"> &#160;&#160;&#160;&#160;&#160;&#160;&#160;&#160;&#160;&#160;&#160;&#160;&#160;&#160;&#160;&#160;&#160;&#160;&#160;&#160;&#160;&#160;&#160;&#160;</text>
</g>
<!-- CODE OK&#45;&gt;RELEASE -->
<g id="edge17" class="edge">
<title>CODE OK&#45;&gt;RELEASE</title>
<path fill="none" stroke="black" stroke-width="1.03" d="M379.56,-218.19C379.32,-228.08 380.07,-240.58 384,-251 387.57,-260.48 393.73,-259.81 398,-269 409.37,-293.49 414.93,-323.95 417.61,-345.56"/>
<polygon fill="black" stroke="black" stroke-width="1.03" points="414.15,-346.13 418.73,-355.68 421.11,-345.36 414.15,-346.13"/>
<text text-anchor="middle" x="430.5" y="-283.3" font-family="Sans Not-Rotated 14" font-size="14.00"> &#160;&#160;&#160;&#160;&#160;&#160;&#160;&#160;</text>
</g>
<!-- CODE OK&#45;&gt;BILLED -->
<g id="edge16" class="edge">
<title>CODE OK&#45;&gt;BILLED</title>
<path fill="none" stroke="black" stroke-width="3.74" d="M399.27,-218.23C410.72,-228.49 426.08,-241.36 441,-251 449.94,-256.77 459.96,-262.22 469.63,-267.03"/>
<polygon fill="black" stroke="black" stroke-width="3.74" points="468.22,-270.23 478.75,-271.42 471.26,-263.92 468.22,-270.23"/>
<text text-anchor="middle" x="497.5" y="-239.8" font-family="Sans Not-Rotated 14" font-size="14.00"> &#160;&#160;&#160;&#160;&#160;&#160;&#160;&#160;&#160;&#160;&#160;&#160;&#160;&#160;&#160;&#160;&#160;&#160;&#160;&#160;&#160;&#160;&#160;&#160;</text>
</g>
<!-- CODE OK&#45;&gt;CODE OK -->
<g id="edge18" class="edge">
<title>CODE OK&#45;&gt;CODE OK</title>
<path fill="none" stroke="black" stroke-width="1.01" d="M422.71,-207.75C432.91,-207.18 440.5,-204.59 440.5,-200 440.5,-197.13 437.53,-195.04 432.82,-193.74"/>
<polygon fill="black" stroke="black" stroke-width="1.01" points="433.11,-190.25 422.71,-192.25 432.09,-197.17 433.11,-190.25"/>
<text text-anchor="middle" x="450" y="-196.3" font-family="Sans Not-Rotated 14" font-size="14.00"> &#160;&#160;&#160;</text>
</g>
<!-- CODE OK&#45;&gt;FIN -->
<g id="edge19" class="edge">
<title>CODE OK&#45;&gt;FIN</title>
<path fill="none" stroke="black" stroke-width="1" d="M348.76,-181.85C339.54,-176.51 329.65,-170.35 321,-164 310.43,-156.25 299.59,-146.78 290.36,-138.17"/>
<polygon fill="black" stroke="black" stroke-width="1" points="292.69,-135.55 283.03,-131.2 287.87,-140.63 292.69,-135.55"/>
<text text-anchor="middle" x="323.5" y="-152.8" font-family="Sans Not-Rotated 14" font-size="14.00"> </text>
</g>
<!-- CODE OK&#45;&gt;end -->
<g id="edge20" class="edge">
<title>CODE OK&#45;&gt;end</title>
<path fill="none" stroke="black" stroke-dasharray="5,2" d="M395.46,-181.8C421.86,-150.41 477.92,-83.74 508.34,-47.57"/>
<polygon fill="black" stroke="black" points="511.37,-49.4 515.13,-39.49 506.02,-44.89 511.37,-49.4"/>
<text text-anchor="middle" x="476.5" y="-109.3" font-family="Sans Not-Rotated 14" font-size="14.00"> &#160;&#160;&#160;</text>
</g>
<!-- NEW -->
<g id="node4" class="node">
<title>NEW</title>
<polygon fill="#1d2559" stroke="black" points="644,-479 590,-479 590,-443 644,-443 644,-479"/>
<text text-anchor="middle" x="617" y="-457.3" font-family="Sans Not-Rotated 14" font-size="14.00" fill="white">NEW</text>
</g>
<!-- NEW&#45;&gt;RELEASE -->
<g id="edge3" class="edge">
<title>NEW&#45;&gt;RELEASE</title>
<path fill="none" stroke="black" stroke-width="1" d="M589.61,-448.18C558.52,-434.77 507.19,-412.62 469.13,-396.2"/>
<polygon fill="black" stroke="black" stroke-width="1" points="470.32,-392.9 459.75,-392.15 467.55,-399.33 470.32,-392.9"/>
<text text-anchor="middle" x="532.5" y="-413.8" font-family="Sans Not-Rotated 14" font-size="14.00"> </text>
</g>
<!-- NEW&#45;&gt;BILLED -->
<g id="edge4" class="edge">
<title>NEW&#45;&gt;BILLED</title>
<path fill="none" stroke="black" d="M606.65,-442.88C588.35,-412.61 550.19,-349.51 528.66,-313.9"/>
<polygon fill="black" stroke="black" points="531.48,-311.8 523.31,-305.05 525.49,-315.42 531.48,-311.8"/>
<text text-anchor="middle" x="577.5" y="-370.3" font-family="Sans Not-Rotated 14" font-size="14.00"> </text>
</g>
<!-- NEW&#45;&gt;CODE OK -->
<g id="edge5" class="edge">
<title>NEW&#45;&gt;CODE OK</title>
<path fill="none" stroke="black" d="M618.57,-442.8C620.98,-407.92 622.58,-327.26 593,-269 583.32,-249.94 577.01,-245.79 558,-236 518.93,-215.88 469.52,-207.3 432.83,-203.65"/>
<polygon fill="black" stroke="black" points="433.12,-200.17 422.85,-202.75 432.49,-207.14 433.12,-200.17"/>
<text text-anchor="middle" x="616.5" y="-326.8" font-family="Sans Not-Rotated 14" font-size="14.00"> </text>
</g>
<!-- NEW&#45;&gt;NEW -->
<g id="edge2" class="edge">
<title>NEW&#45;&gt;NEW</title>
<path fill="none" stroke="black" stroke-width="1.25" d="M644.24,-468.87C654.02,-469.04 662,-466.41 662,-461 662,-457.7 659.04,-455.44 654.51,-454.21"/>
<polygon fill="black" stroke="black" stroke-width="1.25" points="654.55,-450.7 644.24,-453.13 653.82,-457.66 654.55,-450.7"/>
<text text-anchor="middle" x="698.5" y="-457.3" font-family="Sans Not-Rotated 14" font-size="14.00"> &#160;&#160;&#160;&#160;&#160;&#160;&#160;&#160;&#160;&#160;&#160;&#160;&#160;&#160;&#160;</text>
</g>
<!-- NEW&#45;&gt;FIN -->
<g id="edge1" class="edge">
<title>NEW&#45;&gt;FIN</title>
<path fill="none" stroke="black" stroke-width="2.19" d="M589.69,-459.16C470.28,-455.13 0,-435.42 0,-375 0,-375 0,-375 0,-199 0,-151.64 154.96,-127.06 228.33,-118.07"/>
<polygon fill="black" stroke="black" stroke-width="2.19" points="229.02,-121.52 238.54,-116.86 228.19,-114.56 229.02,-121.52"/>
<text text-anchor="middle" x="36.5" y="-283.3" font-family="Sans Not-Rotated 14" font-size="14.00"> &#160;&#160;&#160;&#160;&#160;&#160;&#160;&#160;&#160;&#160;&#160;&#160;&#160;&#160;&#160;</text>
</g>
<!-- NEW&#45;&gt;end -->
<g id="edge6" class="edge">
<title>NEW&#45;&gt;end</title>
<path fill="none" stroke="black" stroke-dasharray="5,2" d="M644.05,-447.62C669.59,-433.85 704,-409 704,-375 704,-375 704,-375 704,-112 704,-48.67 611.83,-30.39 561.27,-25.12"/>
<polygon fill="black" stroke="black" points="561.44,-21.62 551.16,-24.18 560.8,-28.59 561.44,-21.62"/>
<text text-anchor="middle" x="740.5" y="-239.8" font-family="Sans Not-Rotated 14" font-size="14.00"> &#160;&#160;&#160;&#160;&#160;&#160;&#160;&#160;&#160;&#160;&#160;&#160;&#160;&#160;&#160;</text>
</g>
<!-- FIN&#45;&gt;RELEASE -->
<g id="edge7" class="edge">
<title>FIN&#45;&gt;RELEASE</title>
<path fill="none" stroke="black" stroke-width="4.05" d="M238.83,-121.98C184.51,-139.52 70.3,-185.14 102,-251 149.09,-348.83 292.22,-369.09 369.4,-372.72"/>
<polygon fill="black" stroke="black" stroke-width="4.05" points="369.7,-376.28 379.83,-373.13 369.98,-369.2 369.7,-376.28"/>
<text text-anchor="middle" x="158.5" y="-239.8" font-family="Sans Not-Rotated 14" font-size="14.00"> &#160;&#160;&#160;&#160;&#160;&#160;&#160;&#160;&#160;&#160;&#160;&#160;&#160;&#160;&#160;&#160;&#160;&#160;&#160;&#160;&#160;&#160;&#160;&#160;</text>
</g>
<!-- FIN&#45;&gt;CODE OK -->
<g id="edge9" class="edge">
<title>FIN&#45;&gt;CODE OK</title>
<path fill="none" stroke="black" stroke-width="1" d="M293.13,-128.62C303.4,-134.53 315.01,-141.68 325,-149 335.68,-156.82 346.7,-166.31 356.11,-174.9"/>
<polygon fill="black" stroke="black" stroke-width="1" points="353.88,-177.62 363.59,-181.86 358.65,-172.49 353.88,-177.62"/>
<text text-anchor="middle" x="344.5" y="-152.8" font-family="Sans Not-Rotated 14" font-size="14.00"> </text>
</g>
<!-- FIN&#45;&gt;FIN -->
<g id="edge8" class="edge">
<title>FIN&#45;&gt;FIN</title>
<path fill="none" stroke="black" stroke-width="1.01" d="M293.24,-120.87C303.02,-121.04 311,-118.41 311,-113 311,-109.7 308.04,-107.44 303.51,-106.21"/>
<polygon fill="black" stroke="black" stroke-width="1.01" points="303.55,-102.7 293.24,-105.13 302.82,-109.66 303.55,-102.7"/>
<text text-anchor="middle" x="320.5" y="-109.3" font-family="Sans Not-Rotated 14" font-size="14.00"> &#160;&#160;&#160;</text>
</g>
<!-- FIN&#45;&gt;end -->
<g id="edge10" class="edge">
<title>FIN&#45;&gt;end</title>
<path fill="none" stroke="black" stroke-dasharray="5,2" d="M293.1,-97.56C314.37,-86.66 344.98,-71.94 373,-62 415.07,-47.07 465.46,-35.57 497.35,-29.05"/>
<polygon fill="black" stroke="black" points="498.3,-32.43 507.42,-27.03 496.93,-25.56 498.3,-32.43"/>
<text text-anchor="middle" x="393.5" y="-65.8" font-family="Sans Not-Rotated 14" font-size="14.00"> &#160;&#160;&#160;&#160;&#160;&#160;&#160;&#160;</text>
</g>
<!-- start -->
<g id="node6" class="node">
<title>start</title>
<ellipse fill="#95d600" stroke="black" cx="617" cy="-557.3" rx="27.1" ry="27.1"/>
<text text-anchor="middle" x="617" y="-553.6" font-family="Sans Not-Rotated 14" font-size="14.00">start</text>
</g>
<!-- start&#45;&gt;NEW -->
<g id="edge24" class="edge">
<title>start&#45;&gt;NEW</title>
<path fill="none" stroke="black" stroke-dasharray="5,2" d="M617,-529.78C617,-517.1 617,-501.93 617,-489.17"/>
<polygon fill="black" stroke="black" points="620.5,-489.12 617,-479.12 613.5,-489.12 620.5,-489.12"/>
<text text-anchor="middle" x="673.5" y="-500.8" font-family="Sans Not-Rotated 14" font-size="14.00"> &#160;&#160;&#160;&#160;&#160;&#160;&#160;&#160;&#160;&#160;&#160;&#160;&#160;&#160;&#160;&#160;&#160;&#160;&#160;&#160;&#160;&#160;&#160;&#160;</text>
</g>
</g>
</svg>
