<?xml version="1.0" encoding="UTF-8" standalone="no"?>
<!DOCTYPE svg PUBLIC "-//W3C//DTD SVG 1.1//EN"
 "http://www.w3.org/Graphics/SVG/1.1/DTD/svg11.dtd">
<!-- Generated by graphviz version 3.0.0 (20220226.1711)
 -->
<!-- Pages: 1 -->
<svg width="257pt" height="593pt"
 viewBox="0.00 0.00 256.50 592.60" xmlns="http://www.w3.org/2000/svg" xmlns:xlink="http://www.w3.org/1999/xlink">
<g id="graph0" class="graph" transform="scale(1 1) rotate(0) translate(4 588.6)">
<polygon fill="white" stroke="transparent" points="-4,4 -4,-588.6 252.5,-588.6 252.5,4 -4,4"/>
<!-- RELEASE -->
<g id="node1" class="node">
<title>RELEASE</title>
<polygon fill="#e0ddf4" stroke="black" points="83.5,-305 3.5,-305 3.5,-269 83.5,-269 83.5,-305"/>
<text text-anchor="middle" x="43.5" y="-283.3" font-family="Sans Not-Rotated 14" font-size="14.00">RELEASE</text>
</g>
<!-- CODE OK -->
<g id="node3" class="node">
<title>CODE OK</title>
<polygon fill="#ffffff" stroke="black" points="83,-218 0,-218 0,-182 83,-182 83,-218"/>
<text text-anchor="middle" x="41.5" y="-196.3" font-family="Sans Not-Rotated 14" font-size="14.00">CODE OK</text>
</g>
<!-- RELEASE&#45;&gt;CODE OK -->
<g id="edge3" class="edge">
<title>RELEASE&#45;&gt;CODE OK</title>
<path fill="none" stroke="black" stroke-width="3.87" d="M41.74,-268.93C41.23,-263.23 40.75,-256.85 40.5,-251 40.19,-243.66 40.19,-235.7 40.33,-228.34"/>
<polygon fill="black" stroke="black" stroke-width="3.87" points="43.84,-228.23 40.63,-218.13 36.84,-228.03 43.84,-228.23"/>
<text text-anchor="middle" x="97" y="-239.8" font-family="Sans Not-Rotated 14" font-size="14.00"> &#160;&#160;&#160;&#160;&#160;&#160;&#160;&#160;&#160;&#160;&#160;&#160;&#160;&#160;&#160;&#160;&#160;&#160;&#160;&#160;&#160;&#160;&#160;&#160;</text>
</g>
<!-- BILLED -->
<g id="node2" class="node">
<title>BILLED</title>
<polygon fill="#ffffff" stroke="black" points="81.5,-131 13.5,-131 13.5,-95 81.5,-95 81.5,-131"/>
<text text-anchor="middle" x="47.5" y="-109.3" font-family="Sans Not-Rotated 14" font-size="14.00">BILLED</text>
</g>
<!-- end -->
<g id="node7" class="node">
<title>end</title>
<ellipse fill="#ea4126" stroke="black" cx="111.5" cy="-22" rx="18" ry="18"/>
<ellipse fill="none" stroke="black" cx="111.5" cy="-22" rx="22" ry="22"/>
</g>
<!-- BILLED&#45;&gt;end -->
<g id="edge6" class="edge">
<title>BILLED&#45;&gt;end</title>
<path fill="none" stroke="black" stroke-dasharray="5,2" d="M43.93,-94.71C42.74,-84.55 42.91,-71.8 48.5,-62 55.76,-49.27 69.04,-40.14 81.54,-33.94"/>
<polygon fill="black" stroke="black" points="83.16,-37.05 90.84,-29.75 80.28,-30.66 83.16,-37.05"/>
<text text-anchor="middle" x="105" y="-65.8" font-family="Sans Not-Rotated 14" font-size="14.00"> &#160;&#160;&#160;&#160;&#160;&#160;&#160;&#160;&#160;&#160;&#160;&#160;&#160;&#160;&#160;&#160;&#160;&#160;&#160;&#160;&#160;&#160;&#160;&#160;</text>
</g>
<!-- CODE OK&#45;&gt;BILLED -->
<g id="edge1" class="edge">
<title>CODE OK&#45;&gt;BILLED</title>
<path fill="none" stroke="black" stroke-width="3.66" d="M42.71,-181.8C43.54,-170.16 44.64,-154.55 45.58,-141.24"/>
<polygon fill="black" stroke="black" stroke-width="3.66" points="49.07,-141.4 46.29,-131.18 42.09,-140.9 49.07,-141.4"/>
<text text-anchor="middle" x="102" y="-152.8" font-family="Sans Not-Rotated 14" font-size="14.00"> &#160;&#160;&#160;&#160;&#160;&#160;&#160;&#160;&#160;&#160;&#160;&#160;&#160;&#160;&#160;&#160;&#160;&#160;&#160;&#160;&#160;&#160;&#160;&#160;</text>
</g>
<!-- NEW -->
<g id="node4" class="node">
<title>NEW</title>
<polygon fill="#1d2559" stroke="black" points="147.5,-479 93.5,-479 93.5,-443 147.5,-443 147.5,-479"/>
<text text-anchor="middle" x="120.5" y="-457.3" font-family="Sans Not-Rotated 14" font-size="14.00" fill="white">NEW</text>
</g>
<!-- NEW&#45;&gt;NEW -->
<g id="edge8" class="edge">
<title>NEW&#45;&gt;NEW</title>
<path fill="none" stroke="black" d="M147.74,-468.87C157.52,-469.04 165.5,-466.41 165.5,-461 165.5,-457.7 162.54,-455.44 158.01,-454.21"/>
<polygon fill="black" stroke="black" points="158.05,-450.7 147.74,-453.13 157.32,-457.66 158.05,-450.7"/>
<text text-anchor="middle" x="202" y="-457.3" font-family="Sans Not-Rotated 14" font-size="14.00"> &#160;&#160;&#160;&#160;&#160;&#160;&#160;&#160;&#160;&#160;&#160;&#160;&#160;&#160;&#160;</text>
</g>
<!-- FIN -->
<g id="node5" class="node">
<title>FIN</title>
<polygon fill="#e0ddf4" stroke="black" points="92.5,-392 38.5,-392 38.5,-356 92.5,-356 92.5,-392"/>
<text text-anchor="middle" x="65.5" y="-370.3" font-family="Sans Not-Rotated 14" font-size="14.00">FIN</text>
</g>
<!-- NEW&#45;&gt;FIN -->
<g id="edge5" class="edge">
<title>NEW&#45;&gt;FIN</title>
<path fill="none" stroke="black" stroke-width="2" d="M102.75,-442.72C97.77,-437.33 92.6,-431.17 88.5,-425 83.74,-417.83 79.49,-409.53 75.97,-401.77"/>
<polygon fill="black" stroke="black" stroke-width="2" points="79.09,-400.16 71.93,-392.36 72.66,-402.93 79.09,-400.16"/>
<text text-anchor="middle" x="125" y="-413.8" font-family="Sans Not-Rotated 14" font-size="14.00"> &#160;&#160;&#160;&#160;&#160;&#160;&#160;&#160;&#160;&#160;&#160;&#160;&#160;&#160;&#160;</text>
</g>
<!-- NEW&#45;&gt;end -->
<g id="edge7" class="edge">
<title>NEW&#45;&gt;end</title>
<path fill="none" stroke="black" stroke-dasharray="5,2" d="M145.42,-442.8C151.4,-437.67 157.27,-431.62 161.5,-425 173.93,-405.55 175.5,-398.08 175.5,-375 175.5,-375 175.5,-375 175.5,-112 175.5,-88.92 174.35,-81.17 161.5,-62 155.68,-53.31 147.29,-45.7 139.04,-39.57"/>
<polygon fill="black" stroke="black" points="140.83,-36.54 130.61,-33.72 136.84,-42.3 140.83,-36.54"/>
<text text-anchor="middle" x="212" y="-239.8" font-family="Sans Not-Rotated 14" font-size="14.00"> &#160;&#160;&#160;&#160;&#160;&#160;&#160;&#160;&#160;&#160;&#160;&#160;&#160;&#160;&#160;</text>
</g>
<!-- FIN&#45;&gt;RELEASE -->
<g id="edge2" class="edge">
<title>FIN&#45;&gt;RELEASE</title>
<path fill="none" stroke="black" stroke-width="3.98" d="M55.59,-355.67C52.86,-350.18 50.19,-343.98 48.5,-338 46.46,-330.81 45.23,-322.84 44.49,-315.41"/>
<polygon fill="black" stroke="black" stroke-width="3.98" points="47.98,-315.11 43.74,-305.4 41,-315.64 47.98,-315.11"/>
<text text-anchor="middle" x="105" y="-326.8" font-family="Sans Not-Rotated 14" font-size="14.00"> &#160;&#160;&#160;&#160;&#160;&#160;&#160;&#160;&#160;&#160;&#160;&#160;&#160;&#160;&#160;&#160;&#160;&#160;&#160;&#160;&#160;&#160;&#160;&#160;</text>
</g>
<!-- start -->
<g id="node6" class="node">
<title>start</title>
<ellipse fill="#95d600" stroke="black" cx="120.5" cy="-557.3" rx="27.1" ry="27.1"/>
<text text-anchor="middle" x="120.5" y="-553.6" font-family="Sans Not-Rotated 14" font-size="14.00">start</text>
</g>
<!-- start&#45;&gt;NEW -->
<g id="edge4" class="edge">
<title>start&#45;&gt;NEW</title>
<path fill="none" stroke="black" stroke-dasharray="5,2" d="M120.5,-529.78C120.5,-517.1 120.5,-501.93 120.5,-489.17"/>
<polygon fill="black" stroke="black" points="124,-489.12 120.5,-479.12 117,-489.12 124,-489.12"/>
<text text-anchor="middle" x="177" y="-500.8" font-family="Sans Not-Rotated 14" font-size="14.00"> &#160;&#160;&#160;&#160;&#160;&#160;&#160;&#160;&#160;&#160;&#160;&#160;&#160;&#160;&#160;&#160;&#160;&#160;&#160;&#160;&#160;&#160;&#160;&#160;</text>
</g>
</g>
</svg>
