<?xml version="1.0" encoding="UTF-8" standalone="no"?>
<!DOCTYPE svg PUBLIC "-//W3C//DTD SVG 1.1//EN"
 "http://www.w3.org/Graphics/SVG/1.1/DTD/svg11.dtd">
<!-- Generated by graphviz version 3.0.0 (20220226.1711)
 -->
<!-- Pages: 1 -->
<svg width="168pt" height="593pt"
 viewBox="0.00 0.00 167.50 592.60" xmlns="http://www.w3.org/2000/svg" xmlns:xlink="http://www.w3.org/1999/xlink">
<g id="graph0" class="graph" transform="scale(1 1) rotate(0) translate(4 588.6)">
<polygon fill="white" stroke="transparent" points="-4,4 -4,-588.6 163.5,-588.6 163.5,4 -4,4"/>
<!-- RELEASE -->
<g id="node1" class="node">
<title>RELEASE</title>
<polygon fill="#e0ddf4" stroke="black" points="81.5,-305 1.5,-305 1.5,-269 81.5,-269 81.5,-305"/>
<text text-anchor="middle" x="41.5" y="-283.3" font-family="Sans Not-Rotated 14" font-size="14.00">RELEASE</text>
</g>
<!-- CODE OK -->
<g id="node3" class="node">
<title>CODE OK</title>
<polygon fill="#ffffff" stroke="black" points="83,-218 0,-218 0,-182 83,-182 83,-218"/>
<text text-anchor="middle" x="41.5" y="-196.3" font-family="Sans Not-Rotated 14" font-size="14.00">CODE OK</text>
</g>
<!-- RELEASE&#45;&gt;CODE OK -->
<g id="edge3" class="edge">
<title>RELEASE&#45;&gt;CODE OK</title>
<path fill="none" stroke="black" stroke-width="3.87" d="M41.5,-268.8C41.5,-257.16 41.5,-241.55 41.5,-228.24"/>
<polygon fill="black" stroke="black" stroke-width="3.87" points="45,-228.18 41.5,-218.18 38,-228.18 45,-228.18"/>
<text text-anchor="middle" x="98" y="-239.8" font-family="Sans Not-Rotated 14" font-size="14.00"> &#160;&#160;&#160;&#160;&#160;&#160;&#160;&#160;&#160;&#160;&#160;&#160;&#160;&#160;&#160;&#160;&#160;&#160;&#160;&#160;&#160;&#160;&#160;&#160;</text>
</g>
<!-- BILLED -->
<g id="node2" class="node">
<title>BILLED</title>
<polygon fill="#ffffff" stroke="black" points="75.5,-131 7.5,-131 7.5,-95 75.5,-95 75.5,-131"/>
<text text-anchor="middle" x="41.5" y="-109.3" font-family="Sans Not-Rotated 14" font-size="14.00">BILLED</text>
</g>
<!-- end -->
<g id="node7" class="node">
<title>end</title>
<ellipse fill="#ea4126" stroke="black" cx="41.5" cy="-22" rx="18" ry="18"/>
<ellipse fill="none" stroke="black" cx="41.5" cy="-22" rx="22" ry="22"/>
</g>
<!-- BILLED&#45;&gt;end -->
<g id="edge6" class="edge">
<title>BILLED&#45;&gt;end</title>
<path fill="none" stroke="black" stroke-dasharray="5,2" d="M41.5,-94.84C41.5,-83.44 41.5,-68.13 41.5,-54.58"/>
<polygon fill="black" stroke="black" points="45,-54.19 41.5,-44.19 38,-54.19 45,-54.19"/>
<text text-anchor="middle" x="98" y="-65.8" font-family="Sans Not-Rotated 14" font-size="14.00"> &#160;&#160;&#160;&#160;&#160;&#160;&#160;&#160;&#160;&#160;&#160;&#160;&#160;&#160;&#160;&#160;&#160;&#160;&#160;&#160;&#160;&#160;&#160;&#160;</text>
</g>
<!-- CODE OK&#45;&gt;BILLED -->
<g id="edge1" class="edge">
<title>CODE OK&#45;&gt;BILLED</title>
<path fill="none" stroke="black" stroke-width="3.66" d="M41.5,-181.8C41.5,-170.16 41.5,-154.55 41.5,-141.24"/>
<polygon fill="black" stroke="black" stroke-width="3.66" points="45,-141.18 41.5,-131.18 38,-141.18 45,-141.18"/>
<text text-anchor="middle" x="98" y="-152.8" font-family="Sans Not-Rotated 14" font-size="14.00"> &#160;&#160;&#160;&#160;&#160;&#160;&#160;&#160;&#160;&#160;&#160;&#160;&#160;&#160;&#160;&#160;&#160;&#160;&#160;&#160;&#160;&#160;&#160;&#160;</text>
</g>
<!-- NEW -->
<g id="node4" class="node">
<title>NEW</title>
<polygon fill="#1d2559" stroke="black" points="68.5,-479 14.5,-479 14.5,-443 68.5,-443 68.5,-479"/>
<text text-anchor="middle" x="41.5" y="-457.3" font-family="Sans Not-Rotated 14" font-size="14.00" fill="white">NEW</text>
</g>
<!-- NEW&#45;&gt;NEW -->
<g id="edge7" class="edge">
<title>NEW&#45;&gt;NEW</title>
<path fill="none" stroke="black" d="M68.74,-468.87C78.52,-469.04 86.5,-466.41 86.5,-461 86.5,-457.7 83.54,-455.44 79.01,-454.21"/>
<polygon fill="black" stroke="black" points="79.05,-450.7 68.74,-453.13 78.32,-457.66 79.05,-450.7"/>
<text text-anchor="middle" x="123" y="-457.3" font-family="Sans Not-Rotated 14" font-size="14.00"> &#160;&#160;&#160;&#160;&#160;&#160;&#160;&#160;&#160;&#160;&#160;&#160;&#160;&#160;&#160;</text>
</g>
<!-- FIN -->
<g id="node5" class="node">
<title>FIN</title>
<polygon fill="#e0ddf4" stroke="black" points="68.5,-392 14.5,-392 14.5,-356 68.5,-356 68.5,-392"/>
<text text-anchor="middle" x="41.5" y="-370.3" font-family="Sans Not-Rotated 14" font-size="14.00">FIN</text>
</g>
<!-- NEW&#45;&gt;FIN -->
<g id="edge5" class="edge">
<title>NEW&#45;&gt;FIN</title>
<path fill="none" stroke="black" stroke-width="2" d="M41.5,-442.8C41.5,-431.16 41.5,-415.55 41.5,-402.24"/>
<polygon fill="black" stroke="black" stroke-width="2" points="45,-402.18 41.5,-392.18 38,-402.18 45,-402.18"/>
<text text-anchor="middle" x="78" y="-413.8" font-family="Sans Not-Rotated 14" font-size="14.00"> &#160;&#160;&#160;&#160;&#160;&#160;&#160;&#160;&#160;&#160;&#160;&#160;&#160;&#160;&#160;</text>
</g>
<!-- FIN&#45;&gt;RELEASE -->
<g id="edge2" class="edge">
<title>FIN&#45;&gt;RELEASE</title>
<path fill="none" stroke="black" stroke-width="3.98" d="M41.5,-355.8C41.5,-344.16 41.5,-328.55 41.5,-315.24"/>
<polygon fill="black" stroke="black" stroke-width="3.98" points="45,-315.18 41.5,-305.18 38,-315.18 45,-315.18"/>
<text text-anchor="middle" x="98" y="-326.8" font-family="Sans Not-Rotated 14" font-size="14.00"> &#160;&#160;&#160;&#160;&#160;&#160;&#160;&#160;&#160;&#160;&#160;&#160;&#160;&#160;&#160;&#160;&#160;&#160;&#160;&#160;&#160;&#160;&#160;&#160;</text>
</g>
<!-- start -->
<g id="node6" class="node">
<title>start</title>
<ellipse fill="#95d600" stroke="black" cx="41.5" cy="-557.3" rx="27.1" ry="27.1"/>
<text text-anchor="middle" x="41.5" y="-553.6" font-family="Sans Not-Rotated 14" font-size="14.00">start</text>
</g>
<!-- start&#45;&gt;NEW -->
<g id="edge4" class="edge">
<title>start&#45;&gt;NEW</title>
<path fill="none" stroke="black" stroke-dasharray="5,2" d="M41.5,-529.78C41.5,-517.1 41.5,-501.93 41.5,-489.17"/>
<polygon fill="black" stroke="black" points="45,-489.12 41.5,-479.12 38,-489.12 45,-489.12"/>
<text text-anchor="middle" x="98" y="-500.8" font-family="Sans Not-Rotated 14" font-size="14.00"> &#160;&#160;&#160;&#160;&#160;&#160;&#160;&#160;&#160;&#160;&#160;&#160;&#160;&#160;&#160;&#160;&#160;&#160;&#160;&#160;&#160;&#160;&#160;&#160;</text>
</g>
</g>
</svg>
