<?xml version="1.0" encoding="UTF-8" standalone="no"?>
<!DOCTYPE svg PUBLIC "-//W3C//DTD SVG 1.1//EN"
 "http://www.w3.org/Graphics/SVG/1.1/DTD/svg11.dtd">
<!-- Generated by graphviz version 3.0.0 (20220226.1711)
 -->
<!-- Pages: 1 -->
<svg width="584pt" height="767pt"
 viewBox="0.00 0.00 583.71 766.60" xmlns="http://www.w3.org/2000/svg" xmlns:xlink="http://www.w3.org/1999/xlink">
<g id="graph0" class="graph" transform="scale(1 1) rotate(0) translate(4 762.6)">
<polygon fill="white" stroke="transparent" points="-4,4 -4,-762.6 579.71,-762.6 579.71,4 -4,4"/>
<!-- Triage -->
<g id="node1" class="node">
<title>Triage</title>
<polygon fill="#ffffff" stroke="black" points="304.71,-653 244.71,-653 244.71,-617 304.71,-617 304.71,-653"/>
<text text-anchor="middle" x="274.71" y="-631.3" font-family="Sans Not-Rotated 14" font-size="14.00">Triage</text>
</g>
<!-- Register -->
<g id="node4" class="node">
<title>Register</title>
<polygon fill="#ffffff" stroke="black" points="311.71,-566 237.71,-566 237.71,-530 311.71,-530 311.71,-566"/>
<text text-anchor="middle" x="274.71" y="-544.3" font-family="Sans Not-Rotated 14" font-size="14.00">Register</text>
</g>
<!-- Triage&#45;&gt;Register -->
<g id="edge8" class="edge">
<title>Triage&#45;&gt;Register</title>
<path fill="none" stroke="black" stroke-width="5" d="M274.71,-616.8C274.71,-605.16 274.71,-589.55 274.71,-576.24"/>
<polygon fill="black" stroke="black" stroke-width="5" points="279.09,-576.18 274.71,-566.18 270.34,-576.18 279.09,-576.18"/>
<text text-anchor="middle" x="331.21" y="-587.8" font-family="Sans Not-Rotated 14" font-size="14.00"> &#160;&#160;&#160;&#160;&#160;&#160;&#160;&#160;&#160;&#160;&#160;&#160;&#160;&#160;&#160;&#160;&#160;&#160;&#160;&#160;&#160;&#160;&#160;&#160;</text>
</g>
<!-- Final Visit -->
<g id="node2" class="node">
<title>Final Visit</title>
<polygon fill="#ffffff" stroke="black" points="175.71,-218 91.71,-218 91.71,-182 175.71,-182 175.71,-218"/>
<text text-anchor="middle" x="133.71" y="-196.3" font-family="Sans Not-Rotated 14" font-size="14.00">Final Visit</text>
</g>
<!-- Prepare -->
<g id="node6" class="node">
<title>Prepare</title>
<polygon fill="#ffffff" stroke="black" points="378.21,-131 307.21,-131 307.21,-95 378.21,-95 378.21,-131"/>
<text text-anchor="middle" x="342.71" y="-109.3" font-family="Sans Not-Rotated 14" font-size="14.00">Prepare</text>
</g>
<!-- Final Visit&#45;&gt;Prepare -->
<g id="edge10" class="edge">
<title>Final Visit&#45;&gt;Prepare</title>
<path fill="none" stroke="black" stroke-width="2.99" d="M164,-181.9C183.06,-171.55 208.38,-158.55 231.71,-149 252.93,-140.32 277.13,-132.45 297.52,-126.39"/>
<polygon fill="black" stroke="black" stroke-width="2.99" points="298.57,-129.73 307.19,-123.57 296.61,-123.01 298.57,-129.73"/>
<text text-anchor="middle" x="268.21" y="-152.8" font-family="Sans Not-Rotated 14" font-size="14.00"> &#160;&#160;&#160;&#160;&#160;&#160;&#160;&#160;&#160;&#160;&#160;&#160;&#160;&#160;&#160;</text>
</g>
<!-- Check -->
<g id="node7" class="node">
<title>Check</title>
<polygon fill="#1d2559" stroke="black" points="260.21,-392 201.21,-392 201.21,-356 260.21,-356 260.21,-392"/>
<text text-anchor="middle" x="230.71" y="-370.3" font-family="Sans Not-Rotated 14" font-size="14.00" fill="white">Check</text>
</g>
<!-- Final Visit&#45;&gt;Check -->
<g id="edge12" class="edge">
<title>Final Visit&#45;&gt;Check</title>
<path fill="none" stroke="black" stroke-width="1.73" d="M124.92,-218.04C115.4,-238.73 102.6,-274.63 110.71,-305 115.08,-321.35 116.67,-327.21 129.71,-338 147.21,-352.47 171.05,-361.1 191.17,-366.17"/>
<polygon fill="black" stroke="black" stroke-width="1.73" points="190.47,-369.6 201,-368.45 192.05,-362.78 190.47,-369.6"/>
<text text-anchor="middle" x="147.21" y="-283.3" font-family="Sans Not-Rotated 14" font-size="14.00"> &#160;&#160;&#160;&#160;&#160;&#160;&#160;&#160;&#160;&#160;&#160;&#160;&#160;&#160;&#160;</text>
</g>
<!-- Visit -->
<g id="node3" class="node">
<title>Visit</title>
<polygon fill="#ffffff" stroke="black" points="246.71,-305 192.71,-305 192.71,-269 246.71,-269 246.71,-305"/>
<text text-anchor="middle" x="219.71" y="-283.3" font-family="Sans Not-Rotated 14" font-size="14.00">Visit</text>
</g>
<!-- Visit&#45;&gt;Final Visit -->
<g id="edge7" class="edge">
<title>Visit&#45;&gt;Final Visit</title>
<path fill="none" stroke="black" stroke-width="1.58" d="M202.31,-268.8C189.72,-256.36 172.53,-239.36 158.51,-225.5"/>
<polygon fill="black" stroke="black" stroke-width="1.58" points="160.66,-222.72 151.09,-218.18 155.74,-227.69 160.66,-222.72"/>
<text text-anchor="middle" x="219.21" y="-239.8" font-family="Sans Not-Rotated 14" font-size="14.00"> &#160;&#160;&#160;&#160;&#160;&#160;&#160;&#160;&#160;&#160;&#160;&#160;&#160;&#160;&#160;</text>
</g>
<!-- Visit&#45;&gt;Check -->
<g id="edge2" class="edge">
<title>Visit&#45;&gt;Check</title>
<path fill="none" stroke="black" stroke-width="2.9" d="M221.94,-305.18C223.44,-316.81 225.46,-332.42 227.19,-345.73"/>
<polygon fill="black" stroke="black" stroke-width="2.9" points="223.73,-346.33 228.49,-355.8 230.68,-345.43 223.73,-346.33"/>
<text text-anchor="middle" x="263.21" y="-326.8" font-family="Sans Not-Rotated 14" font-size="14.00"> &#160;&#160;&#160;&#160;&#160;&#160;&#160;&#160;&#160;&#160;&#160;&#160;&#160;&#160;&#160;</text>
</g>
<!-- X&#45;Ray -->
<g id="node5" class="node">
<title>X&#45;Ray</title>
<polygon fill="#ffffff" stroke="black" points="260.21,-479 201.21,-479 201.21,-443 260.21,-443 260.21,-479"/>
<text text-anchor="middle" x="230.71" y="-457.3" font-family="Sans Not-Rotated 14" font-size="14.00">X&#45;Ray</text>
</g>
<!-- Register&#45;&gt;X&#45;Ray -->
<g id="edge9" class="edge">
<title>Register&#45;&gt;X&#45;Ray</title>
<path fill="none" stroke="black" stroke-width="1.86" d="M246.47,-529.93C240.55,-524.93 235.09,-518.92 231.71,-512 228.31,-505.03 227.16,-496.83 227.11,-489.11"/>
<polygon fill="black" stroke="black" stroke-width="1.86" points="230.61,-489.2 227.61,-479.04 223.62,-488.86 230.61,-489.2"/>
<text text-anchor="middle" x="268.21" y="-500.8" font-family="Sans Not-Rotated 14" font-size="14.00"> &#160;&#160;&#160;&#160;&#160;&#160;&#160;&#160;&#160;&#160;&#160;&#160;&#160;&#160;&#160;</text>
</g>
<!-- Register&#45;&gt;Check -->
<g id="edge11" class="edge">
<title>Register&#45;&gt;Check</title>
<path fill="none" stroke="black" stroke-width="2.36" d="M293.67,-529.74C298.16,-524.52 302.33,-518.46 304.71,-512 320.44,-469.48 328.97,-448.3 304.71,-410 296.88,-397.63 283.37,-389.55 270.02,-384.31"/>
<polygon fill="black" stroke="black" stroke-width="2.36" points="271.01,-380.95 260.41,-380.97 268.71,-387.56 271.01,-380.95"/>
<text text-anchor="middle" x="357.21" y="-457.3" font-family="Sans Not-Rotated 14" font-size="14.00"> &#160;&#160;&#160;&#160;&#160;&#160;&#160;&#160;&#160;&#160;&#160;&#160;&#160;&#160;&#160;</text>
</g>
<!-- X&#45;Ray&#45;&gt;Check -->
<g id="edge3" class="edge">
<title>X&#45;Ray&#45;&gt;Check</title>
<path fill="none" stroke="black" stroke-width="3.46" d="M201.12,-455.93C166.85,-449.91 117.32,-436.37 135.71,-410 148.18,-392.12 170.87,-383.35 190.95,-379.06"/>
<polygon fill="black" stroke="black" stroke-width="3.46" points="191.64,-382.49 200.84,-377.24 190.38,-375.6 191.64,-382.49"/>
<text text-anchor="middle" x="172.21" y="-413.8" font-family="Sans Not-Rotated 14" font-size="14.00"> &#160;&#160;&#160;&#160;&#160;&#160;&#160;&#160;&#160;&#160;&#160;&#160;&#160;&#160;&#160;</text>
</g>
<!-- Prepare&#45;&gt;Check -->
<g id="edge13" class="edge">
<title>Prepare&#45;&gt;Check</title>
<path fill="none" stroke="black" stroke-width="1.02" d="M356.58,-131.12C375.7,-156.88 406.34,-207.24 392.71,-251 378.75,-295.85 370.14,-309.62 332.71,-338 314.46,-351.84 290.37,-360.44 270.17,-365.66"/>
<polygon fill="black" stroke="black" stroke-width="1.02" points="269.23,-362.28 260.32,-368.02 270.86,-369.09 269.23,-362.28"/>
<text text-anchor="middle" x="431.21" y="-239.8" font-family="Sans Not-Rotated 14" font-size="14.00"> &#160;&#160;&#160;&#160;&#160;&#160;&#160;&#160;&#160;&#160;&#160;&#160;&#160;&#160;&#160;</text>
</g>
<!-- end -->
<g id="node9" class="node">
<title>end</title>
<ellipse fill="#ea4126" stroke="black" cx="410.71" cy="-22" rx="18" ry="18"/>
<ellipse fill="none" stroke="black" cx="410.71" cy="-22" rx="22" ry="22"/>
</g>
<!-- Prepare&#45;&gt;end -->
<g id="edge14" class="edge">
<title>Prepare&#45;&gt;end</title>
<path fill="none" stroke="black" stroke-dasharray="5,2" d="M355.83,-94.84C365.89,-81.67 379.94,-63.27 391.31,-48.39"/>
<polygon fill="black" stroke="black" points="394.35,-50.18 397.64,-40.11 388.79,-45.93 394.35,-50.18"/>
<text text-anchor="middle" x="417.21" y="-65.8" font-family="Sans Not-Rotated 14" font-size="14.00"> &#160;&#160;&#160;&#160;&#160;&#160;&#160;&#160;&#160;&#160;&#160;&#160;&#160;&#160;&#160;</text>
</g>
<!-- Check&#45;&gt;Final Visit -->
<g id="edge6" class="edge">
<title>Check&#45;&gt;Final Visit</title>
<path fill="none" stroke="black" stroke-width="2.73" d="M201.1,-368.65C145.4,-359.78 28.65,-337.63 6.71,-305 -18.6,-267.36 36.67,-236.32 82.09,-218.22"/>
<polygon fill="black" stroke="black" stroke-width="2.73" points="83.53,-221.42 91.6,-214.56 81.02,-214.89 83.53,-221.42"/>
<text text-anchor="middle" x="43.21" y="-283.3" font-family="Sans Not-Rotated 14" font-size="14.00"> &#160;&#160;&#160;&#160;&#160;&#160;&#160;&#160;&#160;&#160;&#160;&#160;&#160;&#160;&#160;</text>
</g>
<!-- Check&#45;&gt;Visit -->
<g id="edge1" class="edge">
<title>Check&#45;&gt;Visit</title>
<path fill="none" stroke="black" stroke-width="3.36" d="M200.84,-370.76C178.83,-367.36 150.29,-358.91 135.71,-338 131.9,-332.53 132.02,-328.55 135.71,-323 135.81,-322.86 160.3,-312.66 182.81,-303.31"/>
<polygon fill="black" stroke="black" stroke-width="3.36" points="184.36,-306.46 192.26,-299.39 181.68,-299.99 184.36,-306.46"/>
<text text-anchor="middle" x="172.21" y="-326.8" font-family="Sans Not-Rotated 14" font-size="14.00"> &#160;&#160;&#160;&#160;&#160;&#160;&#160;&#160;&#160;&#160;&#160;&#160;&#160;&#160;&#160;</text>
</g>
<!-- Check&#45;&gt;X&#45;Ray -->
<g id="edge4" class="edge">
<title>Check&#45;&gt;X&#45;Ray</title>
<path fill="none" stroke="black" stroke-width="2.62" d="M230.71,-392.18C230.71,-403.81 230.71,-419.42 230.71,-432.73"/>
<polygon fill="black" stroke="black" stroke-width="2.62" points="227.21,-432.8 230.71,-442.8 234.21,-432.8 227.21,-432.8"/>
<text text-anchor="middle" x="267.21" y="-413.8" font-family="Sans Not-Rotated 14" font-size="14.00"> &#160;&#160;&#160;&#160;&#160;&#160;&#160;&#160;&#160;&#160;&#160;&#160;&#160;&#160;&#160;</text>
</g>
<!-- Check&#45;&gt;Prepare -->
<g id="edge16" class="edge">
<title>Check&#45;&gt;Prepare</title>
<path fill="none" stroke="black" stroke-width="1.73" d="M260.47,-366.11C275.86,-360.97 293.5,-352.29 303.71,-338 330.25,-300.86 308.11,-281.01 315.71,-236 321.28,-203.06 329.92,-165.6 335.92,-140.98"/>
<polygon fill="black" stroke="black" stroke-width="1.73" points="339.32,-141.81 338.32,-131.27 332.53,-140.14 339.32,-141.81"/>
<text text-anchor="middle" x="352.21" y="-239.8" font-family="Sans Not-Rotated 14" font-size="14.00"> &#160;&#160;&#160;&#160;&#160;&#160;&#160;&#160;&#160;&#160;&#160;&#160;&#160;&#160;&#160;</text>
</g>
<!-- Check&#45;&gt;Check -->
<g id="edge17" class="edge">
<title>Check&#45;&gt;Check</title>
<path fill="none" stroke="black" stroke-width="2.76" d="M260.4,-381.88C270.3,-381.88 278.21,-379.25 278.21,-374 278.21,-370.72 275.12,-368.46 270.39,-367.23"/>
<polygon fill="black" stroke="black" stroke-width="2.76" points="270.73,-363.75 260.4,-366.12 269.95,-370.71 270.73,-363.75"/>
<text text-anchor="middle" x="314.71" y="-370.3" font-family="Sans Not-Rotated 14" font-size="14.00"> &#160;&#160;&#160;&#160;&#160;&#160;&#160;&#160;&#160;&#160;&#160;&#160;&#160;&#160;&#160;</text>
</g>
<!-- Check&#45;&gt;end -->
<g id="edge15" class="edge">
<title>Check&#45;&gt;end</title>
<path fill="none" stroke="black" stroke-dasharray="5,2" d="M260.34,-370.09C330.84,-362.36 502.71,-338.34 502.71,-288 502.71,-288 502.71,-288 502.71,-112 502.71,-76.42 466.72,-50.53 439.76,-36.13"/>
<polygon fill="black" stroke="black" points="441.18,-32.92 430.68,-31.52 438.01,-39.16 441.18,-32.92"/>
<text text-anchor="middle" x="539.21" y="-196.3" font-family="Sans Not-Rotated 14" font-size="14.00"> &#160;&#160;&#160;&#160;&#160;&#160;&#160;&#160;&#160;&#160;&#160;&#160;&#160;&#160;&#160;</text>
</g>
<!-- start -->
<g id="node8" class="node">
<title>start</title>
<ellipse fill="#95d600" stroke="black" cx="274.71" cy="-731.3" rx="27.1" ry="27.1"/>
<text text-anchor="middle" x="274.71" y="-727.6" font-family="Sans Not-Rotated 14" font-size="14.00">start</text>
</g>
<!-- start&#45;&gt;Triage -->
<g id="edge5" class="edge">
<title>start&#45;&gt;Triage</title>
<path fill="none" stroke="black" stroke-dasharray="5,2" d="M274.71,-703.78C274.71,-691.1 274.71,-675.93 274.71,-663.17"/>
<polygon fill="black" stroke="black" points="278.21,-663.12 274.71,-653.12 271.21,-663.12 278.21,-663.12"/>
<text text-anchor="middle" x="331.21" y="-674.8" font-family="Sans Not-Rotated 14" font-size="14.00"> &#160;&#160;&#160;&#160;&#160;&#160;&#160;&#160;&#160;&#160;&#160;&#160;&#160;&#160;&#160;&#160;&#160;&#160;&#160;&#160;&#160;&#160;&#160;&#160;</text>
</g>
</g>
</svg>
