<?xml version="1.0" encoding="UTF-8" standalone="no"?>
<!DOCTYPE svg PUBLIC "-//W3C//DTD SVG 1.1//EN"
 "http://www.w3.org/Graphics/SVG/1.1/DTD/svg11.dtd">
<!-- Generated by graphviz version 3.0.0 (20220226.1711)
 -->
<!-- Pages: 1 -->
<svg width="827pt" height="680pt"
 viewBox="0.00 0.00 827.00 679.60" xmlns="http://www.w3.org/2000/svg" xmlns:xlink="http://www.w3.org/1999/xlink">
<g id="graph0" class="graph" transform="scale(1 1) rotate(0) translate(4 675.6)">
<polygon fill="white" stroke="transparent" points="-4,4 -4,-675.6 823,-675.6 823,4 -4,4"/>
<!-- Triage -->
<g id="node1" class="node">
<title>Triage</title>
<polygon fill="#ffffff" stroke="black" points="225,-566 165,-566 165,-530 225,-530 225,-566"/>
<text text-anchor="middle" x="195" y="-544.3" font-family="Sans Not-Rotated 14" font-size="14.00">Triage</text>
</g>
<!-- Register -->
<g id="node4" class="node">
<title>Register</title>
<polygon fill="#ffffff" stroke="black" points="431,-479 357,-479 357,-443 431,-443 431,-479"/>
<text text-anchor="middle" x="394" y="-457.3" font-family="Sans Not-Rotated 14" font-size="14.00">Register</text>
</g>
<!-- Triage&#45;&gt;Register -->
<g id="edge1" class="edge">
<title>Triage&#45;&gt;Register</title>
<path fill="none" stroke="black" stroke-width="5" d="M214.59,-529.81C227.77,-519.03 245.97,-505.6 264,-497 290.14,-484.53 321.44,-475.93 346.77,-470.38"/>
<polygon fill="black" stroke="black" stroke-width="5" points="347.99,-474.59 356.88,-468.25 346.19,-466.03 347.99,-474.59"/>
<text text-anchor="middle" x="320.5" y="-500.8" font-family="Sans Not-Rotated 14" font-size="14.00"> &#160;&#160;&#160;&#160;&#160;&#160;&#160;&#160;&#160;&#160;&#160;&#160;&#160;&#160;&#160;&#160;&#160;&#160;&#160;&#160;&#160;&#160;&#160;&#160;</text>
</g>
<!-- Check -->
<g id="node7" class="node">
<title>Check</title>
<polygon fill="#1d2559" stroke="black" points="268.5,-218 209.5,-218 209.5,-182 268.5,-182 268.5,-218"/>
<text text-anchor="middle" x="239" y="-196.3" font-family="Sans Not-Rotated 14" font-size="14.00" fill="white">Check</text>
</g>
<!-- Triage&#45;&gt;Check -->
<g id="edge2" class="edge">
<title>Triage&#45;&gt;Check</title>
<path fill="none" stroke="black" stroke-width="1" d="M164.96,-547.03C110.26,-545.33 0,-533.09 0,-462 0,-462 0,-462 0,-286 0,-260.74 6.24,-250.39 27,-236 75.3,-202.52 100.1,-228.04 158,-218 171.52,-215.66 186.22,-212.7 199.34,-209.9"/>
<polygon fill="black" stroke="black" stroke-width="1" points="200.44,-213.25 209.47,-207.72 198.96,-206.41 200.44,-213.25"/>
<text text-anchor="middle" x="2.5" y="-370.3" font-family="Sans Not-Rotated 14" font-size="14.00"> </text>
</g>
<!-- Final Visit -->
<g id="node2" class="node">
<title>Final Visit</title>
<polygon fill="#ffffff" stroke="black" points="237,-305 153,-305 153,-269 237,-269 237,-305"/>
<text text-anchor="middle" x="195" y="-283.3" font-family="Sans Not-Rotated 14" font-size="14.00">Final Visit</text>
</g>
<!-- Final Visit&#45;&gt;Triage -->
<g id="edge22" class="edge">
<title>Final Visit&#45;&gt;Triage</title>
<path fill="none" stroke="black" d="M195,-305.32C195,-349.38 195,-466.01 195,-519.49"/>
<polygon fill="black" stroke="black" points="191.5,-519.6 195,-529.6 198.5,-519.6 191.5,-519.6"/>
<text text-anchor="middle" x="197.5" y="-413.8" font-family="Sans Not-Rotated 14" font-size="14.00"> </text>
</g>
<!-- Prepare -->
<g id="node6" class="node">
<title>Prepare</title>
<polygon fill="#ffffff" stroke="black" points="158.5,-131 87.5,-131 87.5,-95 158.5,-95 158.5,-131"/>
<text text-anchor="middle" x="123" y="-109.3" font-family="Sans Not-Rotated 14" font-size="14.00">Prepare</text>
</g>
<!-- Final Visit&#45;&gt;Prepare -->
<g id="edge21" class="edge">
<title>Final Visit&#45;&gt;Prepare</title>
<path fill="none" stroke="black" stroke-width="3.46" d="M152.75,-283.01C130.83,-279.06 105.8,-270.27 92,-251 82.58,-237.85 39.78,-290.37 93,-149 94.25,-145.68 95.97,-142.46 97.95,-139.4"/>
<polygon fill="black" stroke="black" stroke-width="3.46" points="100.85,-141.37 104.09,-131.28 95.27,-137.15 100.85,-141.37"/>
<text text-anchor="middle" x="117.5" y="-196.3" font-family="Sans Not-Rotated 14" font-size="14.00"> &#160;&#160;&#160;&#160;&#160;&#160;&#160;&#160;&#160;&#160;&#160;&#160;&#160;&#160;&#160;</text>
</g>
<!-- Final Visit&#45;&gt;Check -->
<g id="edge20" class="edge">
<title>Final Visit&#45;&gt;Check</title>
<path fill="none" stroke="black" stroke-width="2.49" d="M191.89,-268.96C190.87,-258.88 191.05,-246.14 196,-236 197.9,-232.11 200.46,-228.5 203.39,-225.2"/>
<polygon fill="black" stroke="black" stroke-width="2.49" points="206.01,-227.54 210.76,-218.07 201.14,-222.51 206.01,-227.54"/>
<text text-anchor="middle" x="232.5" y="-239.8" font-family="Sans Not-Rotated 14" font-size="14.00"> &#160;&#160;&#160;&#160;&#160;&#160;&#160;&#160;&#160;&#160;&#160;&#160;&#160;&#160;&#160;</text>
</g>
<!-- Visit -->
<g id="node3" class="node">
<title>Visit</title>
<polygon fill="#ffffff" stroke="black" points="471,-392 417,-392 417,-356 471,-356 471,-392"/>
<text text-anchor="middle" x="444" y="-370.3" font-family="Sans Not-Rotated 14" font-size="14.00">Visit</text>
</g>
<!-- Visit&#45;&gt;Final Visit -->
<g id="edge18" class="edge">
<title>Visit&#45;&gt;Final Visit</title>
<path fill="none" stroke="black" stroke-width="2.37" d="M416.68,-366.09C394.81,-360.06 363.67,-350.35 338,-338 327,-332.71 326.09,-328.1 315,-323 293.55,-313.14 268.67,-305.34 247.14,-299.63"/>
<polygon fill="black" stroke="black" stroke-width="2.37" points="247.74,-296.17 237.19,-297.08 246,-302.95 247.74,-296.17"/>
<text text-anchor="middle" x="374.5" y="-326.8" font-family="Sans Not-Rotated 14" font-size="14.00"> &#160;&#160;&#160;&#160;&#160;&#160;&#160;&#160;&#160;&#160;&#160;&#160;&#160;&#160;&#160;</text>
</g>
<!-- X&#45;Ray -->
<g id="node5" class="node">
<title>X&#45;Ray</title>
<polygon fill="#ffffff" stroke="black" points="541.5,-131 482.5,-131 482.5,-95 541.5,-95 541.5,-131"/>
<text text-anchor="middle" x="512" y="-109.3" font-family="Sans Not-Rotated 14" font-size="14.00">X&#45;Ray</text>
</g>
<!-- Visit&#45;&gt;X&#45;Ray -->
<g id="edge19" class="edge">
<title>Visit&#45;&gt;X&#45;Ray</title>
<path fill="none" stroke="black" stroke-width="1.18" d="M471.2,-357.19C488.72,-345.32 510.03,-327.3 520,-305 544.21,-250.86 530.72,-179.23 520.37,-140.92"/>
<polygon fill="black" stroke="black" stroke-width="1.18" points="523.66,-139.7 517.57,-131.04 516.93,-141.61 523.66,-139.7"/>
<text text-anchor="middle" x="553.5" y="-239.8" font-family="Sans Not-Rotated 14" font-size="14.00"> &#160;&#160;&#160;&#160;&#160;&#160;&#160;&#160;</text>
</g>
<!-- Visit&#45;&gt;Check -->
<g id="edge17" class="edge">
<title>Visit&#45;&gt;Check</title>
<path fill="none" stroke="black" stroke-width="3.39" d="M446.31,-355.76C448.34,-333.21 448.33,-293.68 428,-269 391.05,-224.15 322.12,-208.87 278.5,-203.68"/>
<polygon fill="black" stroke="black" stroke-width="3.39" points="278.85,-200.19 268.53,-202.61 278.1,-207.15 278.85,-200.19"/>
<text text-anchor="middle" x="479.5" y="-283.3" font-family="Sans Not-Rotated 14" font-size="14.00"> &#160;&#160;&#160;&#160;&#160;&#160;&#160;&#160;&#160;&#160;&#160;&#160;&#160;&#160;&#160;</text>
</g>
<!-- Register&#45;&gt;Visit -->
<g id="edge4" class="edge">
<title>Register&#45;&gt;Visit</title>
<path fill="none" stroke="black" stroke-width="1.39" d="M404.12,-442.8C411.17,-430.82 420.7,-414.62 428.67,-401.06"/>
<polygon fill="black" stroke="black" stroke-width="1.39" points="431.84,-402.57 433.9,-392.18 425.81,-399.02 431.84,-402.57"/>
<text text-anchor="middle" x="457.5" y="-413.8" font-family="Sans Not-Rotated 14" font-size="14.00"> &#160;&#160;&#160;&#160;&#160;&#160;&#160;&#160;&#160;&#160;&#160;&#160;&#160;&#160;&#160;</text>
</g>
<!-- Register&#45;&gt;X&#45;Ray -->
<g id="edge5" class="edge">
<title>Register&#45;&gt;X&#45;Ray</title>
<path fill="none" stroke="black" stroke-width="2.59" d="M431.29,-456.68C508.14,-448.8 677,-425.72 677,-375 677,-375 677,-375 677,-199 677,-142.89 600.67,-123.79 551.84,-117.31"/>
<polygon fill="black" stroke="black" stroke-width="2.59" points="552.23,-113.83 541.88,-116.1 551.39,-120.78 552.23,-113.83"/>
<text text-anchor="middle" x="713.5" y="-283.3" font-family="Sans Not-Rotated 14" font-size="14.00"> &#160;&#160;&#160;&#160;&#160;&#160;&#160;&#160;&#160;&#160;&#160;&#160;&#160;&#160;&#160;</text>
</g>
<!-- Register&#45;&gt;Check -->
<g id="edge3" class="edge">
<title>Register&#45;&gt;Check</title>
<path fill="none" stroke="black" stroke-width="2.97" d="M356.92,-443.34C319.09,-424.06 262.56,-388.38 238,-338 235.08,-332.01 236.62,-329.52 238,-323 239.82,-314.44 242.51,-313.03 246,-305 256.41,-281.08 263.78,-276.56 269,-251 270.33,-244.47 271.31,-242.25 269,-236 267.77,-232.67 266.06,-229.45 264.09,-226.39"/>
<polygon fill="black" stroke="black" stroke-width="2.97" points="266.78,-224.14 257.96,-218.26 261.19,-228.36 266.78,-224.14"/>
<text text-anchor="middle" x="274.5" y="-326.8" font-family="Sans Not-Rotated 14" font-size="14.00"> &#160;&#160;&#160;&#160;&#160;&#160;&#160;&#160;&#160;&#160;&#160;&#160;&#160;&#160;&#160;</text>
</g>
<!-- end -->
<g id="node9" class="node">
<title>end</title>
<ellipse fill="#ea4126" stroke="black" cx="283" cy="-22" rx="18" ry="18"/>
<ellipse fill="none" stroke="black" cx="283" cy="-22" rx="22" ry="22"/>
</g>
<!-- Register&#45;&gt;end -->
<g id="edge6" class="edge">
<title>Register&#45;&gt;end</title>
<path fill="none" stroke="black" stroke-dasharray="5,2" d="M431.17,-459.61C527.54,-457.6 778,-445.58 778,-375 778,-375 778,-375 778,-112 778,-64.78 424.63,-33.82 315.02,-25.35"/>
<polygon fill="black" stroke="black" points="315.15,-21.85 304.91,-24.58 314.61,-28.83 315.15,-21.85"/>
<text text-anchor="middle" x="798.5" y="-239.8" font-family="Sans Not-Rotated 14" font-size="14.00"> &#160;&#160;&#160;&#160;&#160;&#160;&#160;&#160;</text>
</g>
<!-- X&#45;Ray&#45;&gt;Final Visit -->
<g id="edge16" class="edge">
<title>X&#45;Ray&#45;&gt;Final Visit</title>
<path fill="none" stroke="black" stroke-width="1.32" d="M506.38,-131.08C502.17,-141.68 495.49,-154.95 486,-164 417.99,-228.88 310.43,-261.59 246.89,-276.11"/>
<polygon fill="black" stroke="black" stroke-width="1.32" points="246.08,-272.71 237.08,-278.29 247.6,-279.54 246.08,-272.71"/>
<text text-anchor="middle" x="484.5" y="-196.3" font-family="Sans Not-Rotated 14" font-size="14.00"> &#160;&#160;&#160;&#160;&#160;&#160;&#160;&#160;</text>
</g>
<!-- X&#45;Ray&#45;&gt;Visit -->
<g id="edge14" class="edge">
<title>X&#45;Ray&#45;&gt;Visit</title>
<path fill="none" stroke="black" stroke-width="1.81" d="M527.28,-131.35C531.49,-136.75 535.78,-142.89 539,-149 578.47,-224.04 616.73,-270.81 565,-338 545.6,-363.2 509.2,-371.06 481.37,-373.16"/>
<polygon fill="black" stroke="black" stroke-width="1.81" points="480.97,-369.67 471.17,-373.7 481.35,-376.66 480.97,-369.67"/>
<text text-anchor="middle" x="623.5" y="-239.8" font-family="Sans Not-Rotated 14" font-size="14.00"> &#160;&#160;&#160;&#160;&#160;&#160;&#160;&#160;&#160;&#160;&#160;&#160;&#160;&#160;&#160;</text>
</g>
<!-- X&#45;Ray&#45;&gt;Check -->
<g id="edge15" class="edge">
<title>X&#45;Ray&#45;&gt;Check</title>
<path fill="none" stroke="black" stroke-width="3.82" d="M482.23,-122.49C462.17,-128.69 435.39,-137.94 413,-149 402.06,-154.41 401.23,-159.22 390,-164 353.86,-179.4 309.83,-188.62 278.66,-193.7"/>
<polygon fill="black" stroke="black" stroke-width="3.82" points="277.96,-190.27 268.62,-195.26 279.04,-197.18 277.96,-190.27"/>
<text text-anchor="middle" x="449.5" y="-152.8" font-family="Sans Not-Rotated 14" font-size="14.00"> &#160;&#160;&#160;&#160;&#160;&#160;&#160;&#160;&#160;&#160;&#160;&#160;&#160;&#160;&#160;</text>
</g>
<!-- Prepare&#45;&gt;Check -->
<g id="edge23" class="edge">
<title>Prepare&#45;&gt;Check</title>
<path fill="none" stroke="black" stroke-width="1.94" d="M147.8,-131.09C155.88,-136.73 164.86,-143.07 173,-149 184.76,-157.57 197.54,-167.17 208.69,-175.66"/>
<polygon fill="black" stroke="black" stroke-width="1.94" points="206.78,-178.61 216.85,-181.9 211.03,-173.04 206.78,-178.61"/>
<text text-anchor="middle" x="230.5" y="-152.8" font-family="Sans Not-Rotated 14" font-size="14.00"> &#160;&#160;&#160;&#160;&#160;&#160;&#160;&#160;&#160;&#160;&#160;&#160;&#160;&#160;&#160;</text>
</g>
<!-- Prepare&#45;&gt;end -->
<g id="edge24" class="edge">
<title>Prepare&#45;&gt;end</title>
<path fill="none" stroke="black" stroke-dasharray="5,2" d="M145.66,-94.92C159.74,-84.7 178.45,-71.84 196,-62 214.47,-51.65 236.2,-41.9 253.32,-34.75"/>
<polygon fill="black" stroke="black" points="254.89,-37.88 262.81,-30.85 252.23,-31.41 254.89,-37.88"/>
<text text-anchor="middle" x="232.5" y="-65.8" font-family="Sans Not-Rotated 14" font-size="14.00"> &#160;&#160;&#160;&#160;&#160;&#160;&#160;&#160;&#160;&#160;&#160;&#160;&#160;&#160;&#160;</text>
</g>
<!-- Check&#45;&gt;Triage -->
<g id="edge12" class="edge">
<title>Check&#45;&gt;Triage</title>
<path fill="none" stroke="black" d="M209.22,-207.2C169.3,-215.64 102.22,-230.36 92,-236 64.21,-251.35 41,-254.26 41,-286 41,-462 41,-462 41,-462 41,-514.1 109.39,-534.51 155.02,-542.33"/>
<polygon fill="black" stroke="black" points="154.52,-545.79 164.94,-543.89 155.61,-538.88 154.52,-545.79"/>
<text text-anchor="middle" x="43.5" y="-370.3" font-family="Sans Not-Rotated 14" font-size="14.00"> </text>
</g>
<!-- Check&#45;&gt;Final Visit -->
<g id="edge8" class="edge">
<title>Check&#45;&gt;Final Visit</title>
<path fill="none" stroke="black" stroke-width="3.26" d="M209.39,-206.46C170.63,-213.91 106.77,-227.31 100,-236 84.25,-256.21 112.81,-269.13 142.63,-276.76"/>
<polygon fill="black" stroke="black" stroke-width="3.26" points="142.19,-280.26 152.73,-279.15 143.8,-273.45 142.19,-280.26"/>
<text text-anchor="middle" x="136.5" y="-239.8" font-family="Sans Not-Rotated 14" font-size="14.00"> &#160;&#160;&#160;&#160;&#160;&#160;&#160;&#160;&#160;&#160;&#160;&#160;&#160;&#160;&#160;</text>
</g>
<!-- Check&#45;&gt;Visit -->
<g id="edge10" class="edge">
<title>Check&#45;&gt;Visit</title>
<path fill="none" stroke="black" stroke-width="3.74" d="M268.59,-216.33C278.12,-221.91 288.42,-228.66 297,-236 327.45,-262.03 321.74,-282.66 355,-305 376.7,-319.58 390.18,-307.2 411,-323 419.36,-329.35 426.26,-338.46 431.55,-347.18"/>
<polygon fill="black" stroke="black" stroke-width="3.74" points="428.54,-348.96 436.47,-355.98 434.65,-345.54 428.54,-348.96"/>
<text text-anchor="middle" x="391.5" y="-283.3" font-family="Sans Not-Rotated 14" font-size="14.00"> &#160;&#160;&#160;&#160;&#160;&#160;&#160;&#160;&#160;&#160;&#160;&#160;&#160;&#160;&#160;</text>
</g>
<!-- Check&#45;&gt;X&#45;Ray -->
<g id="edge7" class="edge">
<title>Check&#45;&gt;X&#45;Ray</title>
<path fill="none" stroke="black" stroke-width="3.17" d="M265.89,-181.97C274.85,-176.28 284.87,-169.88 294,-164 304.26,-157.39 305.66,-153.5 317,-149 368.32,-128.64 431.95,-120.05 472.28,-116.48"/>
<polygon fill="black" stroke="black" stroke-width="3.17" points="472.58,-119.96 482.26,-115.65 472,-112.99 472.58,-119.96"/>
<text text-anchor="middle" x="353.5" y="-152.8" font-family="Sans Not-Rotated 14" font-size="14.00"> &#160;&#160;&#160;&#160;&#160;&#160;&#160;&#160;&#160;&#160;&#160;&#160;&#160;&#160;&#160;</text>
</g>
<!-- Check&#45;&gt;Prepare -->
<g id="edge9" class="edge">
<title>Check&#45;&gt;Prepare</title>
<path fill="none" stroke="black" stroke-width="2.49" d="M209.39,-193.54C170.63,-186.09 106.77,-172.69 100,-164 94.39,-156.81 96.17,-148.02 100.6,-139.84"/>
<polygon fill="black" stroke="black" stroke-width="2.49" points="103.64,-141.57 106.22,-131.29 97.8,-137.72 103.64,-141.57"/>
<text text-anchor="middle" x="136.5" y="-152.8" font-family="Sans Not-Rotated 14" font-size="14.00"> &#160;&#160;&#160;&#160;&#160;&#160;&#160;&#160;&#160;&#160;&#160;&#160;&#160;&#160;&#160;</text>
</g>
<!-- Check&#45;&gt;Check -->
<g id="edge11" class="edge">
<title>Check&#45;&gt;Check</title>
<path fill="none" stroke="black" stroke-width="3.28" d="M268.69,-207.88C278.58,-207.88 286.5,-205.25 286.5,-200 286.5,-196.72 283.41,-194.46 278.67,-193.23"/>
<polygon fill="black" stroke="black" stroke-width="3.28" points="279.01,-189.75 268.69,-192.12 278.24,-196.71 279.01,-189.75"/>
<text text-anchor="middle" x="323" y="-196.3" font-family="Sans Not-Rotated 14" font-size="14.00"> &#160;&#160;&#160;&#160;&#160;&#160;&#160;&#160;&#160;&#160;&#160;&#160;&#160;&#160;&#160;</text>
</g>
<!-- Check&#45;&gt;end -->
<g id="edge13" class="edge">
<title>Check&#45;&gt;end</title>
<path fill="none" stroke="black" stroke-dasharray="5,2" d="M257.23,-181.93C261.82,-176.64 266.23,-170.48 269,-164 284.15,-128.54 286,-83.64 285.15,-54.16"/>
<polygon fill="black" stroke="black" points="288.64,-53.89 284.74,-44.04 281.65,-54.17 288.64,-53.89"/>
<text text-anchor="middle" x="320.5" y="-109.3" font-family="Sans Not-Rotated 14" font-size="14.00"> &#160;&#160;&#160;&#160;&#160;&#160;&#160;&#160;&#160;&#160;&#160;&#160;&#160;&#160;&#160;</text>
</g>
<!-- start -->
<g id="node8" class="node">
<title>start</title>
<ellipse fill="#95d600" stroke="black" cx="311" cy="-644.3" rx="27.1" ry="27.1"/>
<text text-anchor="middle" x="311" y="-640.6" font-family="Sans Not-Rotated 14" font-size="14.00">start</text>
</g>
<!-- start&#45;&gt;Triage -->
<g id="edge25" class="edge">
<title>start&#45;&gt;Triage</title>
<path fill="none" stroke="black" stroke-dasharray="5,2" d="M290.26,-626.44C271.74,-611.38 244.42,-589.17 223.78,-572.39"/>
<polygon fill="black" stroke="black" points="225.92,-569.62 215.95,-566.03 221.5,-575.05 225.92,-569.62"/>
<text text-anchor="middle" x="313.5" y="-587.8" font-family="Sans Not-Rotated 14" font-size="14.00"> &#160;&#160;&#160;&#160;&#160;&#160;&#160;&#160;&#160;&#160;&#160;&#160;&#160;&#160;&#160;&#160;&#160;&#160;&#160;&#160;&#160;&#160;&#160;&#160;</text>
</g>
<!-- start&#45;&gt;Register -->
<g id="edge26" class="edge">
<title>start&#45;&gt;Register</title>
<path fill="none" stroke="black" stroke-dasharray="5,2" d="M335.77,-632.08C349.28,-624.65 365.03,-613.58 374,-599 394.66,-565.41 397.05,-518.62 396.11,-489.33"/>
<polygon fill="black" stroke="black" points="399.59,-488.85 395.61,-479.03 392.6,-489.18 399.59,-488.85"/>
<text text-anchor="middle" x="396.5" y="-544.3" font-family="Sans Not-Rotated 14" font-size="14.00"> </text>
</g>
</g>
</svg>
