<?xml version="1.0" encoding="UTF-8" standalone="no"?>
<!DOCTYPE svg PUBLIC "-//W3C//DTD SVG 1.1//EN"
 "http://www.w3.org/Graphics/SVG/1.1/DTD/svg11.dtd">
<!-- Generated by graphviz version 3.0.0 (20220226.1711)
 -->
<!-- Pages: 1 -->
<svg width="393pt" height="767pt"
 viewBox="0.00 0.00 392.92 766.60" xmlns="http://www.w3.org/2000/svg" xmlns:xlink="http://www.w3.org/1999/xlink">
<g id="graph0" class="graph" transform="scale(1 1) rotate(0) translate(4 762.6)">
<polygon fill="white" stroke="transparent" points="-4,4 -4,-762.6 388.92,-762.6 388.92,4 -4,4"/>
<!-- Triage -->
<g id="node1" class="node">
<title>Triage</title>
<polygon fill="#ffffff" stroke="black" points="207.92,-653 147.92,-653 147.92,-617 207.92,-617 207.92,-653"/>
<text text-anchor="middle" x="177.92" y="-631.3" font-family="Sans Not-Rotated 14" font-size="14.00">Triage</text>
</g>
<!-- Register -->
<g id="node4" class="node">
<title>Register</title>
<polygon fill="#ffffff" stroke="black" points="214.92,-566 140.92,-566 140.92,-530 214.92,-530 214.92,-566"/>
<text text-anchor="middle" x="177.92" y="-544.3" font-family="Sans Not-Rotated 14" font-size="14.00">Register</text>
</g>
<!-- Triage&#45;&gt;Register -->
<g id="edge8" class="edge">
<title>Triage&#45;&gt;Register</title>
<path fill="none" stroke="black" stroke-width="5" d="M177.92,-616.8C177.92,-605.16 177.92,-589.55 177.92,-576.24"/>
<polygon fill="black" stroke="black" stroke-width="5" points="182.3,-576.18 177.92,-566.18 173.55,-576.18 182.3,-576.18"/>
<text text-anchor="middle" x="234.42" y="-587.8" font-family="Sans Not-Rotated 14" font-size="14.00"> &#160;&#160;&#160;&#160;&#160;&#160;&#160;&#160;&#160;&#160;&#160;&#160;&#160;&#160;&#160;&#160;&#160;&#160;&#160;&#160;&#160;&#160;&#160;&#160;</text>
</g>
<!-- Final Visit -->
<g id="node2" class="node">
<title>Final Visit</title>
<polygon fill="#ffffff" stroke="black" points="174.92,-218 90.92,-218 90.92,-182 174.92,-182 174.92,-218"/>
<text text-anchor="middle" x="132.92" y="-196.3" font-family="Sans Not-Rotated 14" font-size="14.00">Final Visit</text>
</g>
<!-- Prepare -->
<g id="node6" class="node">
<title>Prepare</title>
<polygon fill="#ffffff" stroke="black" points="245.42,-131 174.42,-131 174.42,-95 245.42,-95 245.42,-131"/>
<text text-anchor="middle" x="209.92" y="-109.3" font-family="Sans Not-Rotated 14" font-size="14.00">Prepare</text>
</g>
<!-- Final Visit&#45;&gt;Prepare -->
<g id="edge10" class="edge">
<title>Final Visit&#45;&gt;Prepare</title>
<path fill="none" stroke="black" stroke-width="2.65" d="M148.5,-181.8C159.67,-169.47 174.88,-152.68 187.37,-138.89"/>
<polygon fill="black" stroke="black" stroke-width="2.65" points="190.24,-140.94 194.36,-131.18 185.05,-136.24 190.24,-140.94"/>
<text text-anchor="middle" x="213.42" y="-152.8" font-family="Sans Not-Rotated 14" font-size="14.00"> &#160;&#160;&#160;&#160;&#160;&#160;&#160;&#160;&#160;&#160;&#160;&#160;&#160;&#160;&#160;</text>
</g>
<!-- Check -->
<g id="node7" class="node">
<title>Check</title>
<polygon fill="#1d2559" stroke="black" points="163.42,-392 104.42,-392 104.42,-356 163.42,-356 163.42,-392"/>
<text text-anchor="middle" x="133.92" y="-370.3" font-family="Sans Not-Rotated 14" font-size="14.00" fill="white">Check</text>
</g>
<!-- Final Visit&#45;&gt;Check -->
<g id="edge12" class="edge">
<title>Final Visit&#45;&gt;Check</title>
<path fill="none" stroke="black" stroke-width="1.17" d="M125.35,-218.21C119.84,-231.72 112.85,-251.17 109.92,-269 107.32,-284.79 107.22,-289.23 109.92,-305 112.34,-319.12 117.39,-334.2 122.24,-346.56"/>
<polygon fill="black" stroke="black" stroke-width="1.17" points="119,-347.89 126.03,-355.83 125.48,-345.24 119,-347.89"/>
<text text-anchor="middle" x="146.42" y="-283.3" font-family="Sans Not-Rotated 14" font-size="14.00"> &#160;&#160;&#160;&#160;&#160;&#160;&#160;&#160;&#160;&#160;&#160;&#160;&#160;&#160;&#160;</text>
</g>
<!-- Visit -->
<g id="node3" class="node">
<title>Visit</title>
<polygon fill="#ffffff" stroke="black" points="245.92,-305 191.92,-305 191.92,-269 245.92,-269 245.92,-305"/>
<text text-anchor="middle" x="218.92" y="-283.3" font-family="Sans Not-Rotated 14" font-size="14.00">Visit</text>
</g>
<!-- Visit&#45;&gt;Final Visit -->
<g id="edge7" class="edge">
<title>Visit&#45;&gt;Final Visit</title>
<path fill="none" stroke="black" d="M201.52,-268.8C188.93,-256.36 171.74,-239.36 157.71,-225.5"/>
<polygon fill="black" stroke="black" points="159.87,-222.72 150.3,-218.18 154.95,-227.69 159.87,-222.72"/>
<text text-anchor="middle" x="218.42" y="-239.8" font-family="Sans Not-Rotated 14" font-size="14.00"> &#160;&#160;&#160;&#160;&#160;&#160;&#160;&#160;&#160;&#160;&#160;&#160;&#160;&#160;&#160;</text>
</g>
<!-- Visit&#45;&gt;Check -->
<g id="edge2" class="edge">
<title>Visit&#45;&gt;Check</title>
<path fill="none" stroke="black" stroke-width="2.55" d="M218.82,-305.37C217.93,-315.82 215.23,-328.82 207.92,-338 199.1,-349.07 185.94,-356.83 173.15,-362.17"/>
<polygon fill="black" stroke="black" stroke-width="2.55" points="171.65,-359 163.52,-365.8 174.12,-365.55 171.65,-359"/>
<text text-anchor="middle" x="252.42" y="-326.8" font-family="Sans Not-Rotated 14" font-size="14.00"> &#160;&#160;&#160;&#160;&#160;&#160;&#160;&#160;&#160;&#160;&#160;&#160;&#160;&#160;&#160;</text>
</g>
<!-- X&#45;Ray -->
<g id="node5" class="node">
<title>X&#45;Ray</title>
<polygon fill="#ffffff" stroke="black" points="163.42,-479 104.42,-479 104.42,-443 163.42,-443 163.42,-479"/>
<text text-anchor="middle" x="133.92" y="-457.3" font-family="Sans Not-Rotated 14" font-size="14.00">X&#45;Ray</text>
</g>
<!-- Register&#45;&gt;X&#45;Ray -->
<g id="edge9" class="edge">
<title>Register&#45;&gt;X&#45;Ray</title>
<path fill="none" stroke="black" stroke-width="1.33" d="M149.68,-529.93C143.76,-524.93 138.3,-518.92 134.92,-512 131.52,-505.03 130.37,-496.83 130.32,-489.11"/>
<polygon fill="black" stroke="black" stroke-width="1.33" points="133.82,-489.2 130.81,-479.04 126.82,-488.86 133.82,-489.2"/>
<text text-anchor="middle" x="171.42" y="-500.8" font-family="Sans Not-Rotated 14" font-size="14.00"> &#160;&#160;&#160;&#160;&#160;&#160;&#160;&#160;&#160;&#160;&#160;&#160;&#160;&#160;&#160;</text>
</g>
<!-- Register&#45;&gt;Check -->
<g id="edge11" class="edge">
<title>Register&#45;&gt;Check</title>
<path fill="none" stroke="black" stroke-width="1.91" d="M196.88,-529.74C201.36,-524.52 205.53,-518.46 207.92,-512 223.65,-469.48 232.17,-448.3 207.92,-410 200.09,-397.63 186.58,-389.55 173.23,-384.31"/>
<polygon fill="black" stroke="black" stroke-width="1.91" points="174.22,-380.95 163.62,-380.97 171.92,-387.56 174.22,-380.95"/>
<text text-anchor="middle" x="260.42" y="-457.3" font-family="Sans Not-Rotated 14" font-size="14.00"> &#160;&#160;&#160;&#160;&#160;&#160;&#160;&#160;&#160;&#160;&#160;&#160;&#160;&#160;&#160;</text>
</g>
<!-- X&#45;Ray&#45;&gt;Check -->
<g id="edge3" class="edge">
<title>X&#45;Ray&#45;&gt;Check</title>
<path fill="none" stroke="black" stroke-width="3.2" d="M104.32,-455.93C70.06,-449.91 20.53,-436.37 38.92,-410 51.39,-392.12 74.08,-383.35 94.16,-379.06"/>
<polygon fill="black" stroke="black" stroke-width="3.2" points="94.84,-382.49 104.05,-377.24 93.58,-375.6 94.84,-382.49"/>
<text text-anchor="middle" x="75.42" y="-413.8" font-family="Sans Not-Rotated 14" font-size="14.00"> &#160;&#160;&#160;&#160;&#160;&#160;&#160;&#160;&#160;&#160;&#160;&#160;&#160;&#160;&#160;</text>
</g>
<!-- end -->
<g id="node9" class="node">
<title>end</title>
<ellipse fill="#ea4126" stroke="black" cx="209.92" cy="-22" rx="18" ry="18"/>
<ellipse fill="none" stroke="black" cx="209.92" cy="-22" rx="22" ry="22"/>
</g>
<!-- Prepare&#45;&gt;end -->
<g id="edge13" class="edge">
<title>Prepare&#45;&gt;end</title>
<path fill="none" stroke="black" stroke-dasharray="5,2" d="M209.92,-94.84C209.92,-83.44 209.92,-68.13 209.92,-54.58"/>
<polygon fill="black" stroke="black" points="213.42,-54.19 209.92,-44.19 206.42,-54.19 213.42,-54.19"/>
<text text-anchor="middle" x="246.42" y="-65.8" font-family="Sans Not-Rotated 14" font-size="14.00"> &#160;&#160;&#160;&#160;&#160;&#160;&#160;&#160;&#160;&#160;&#160;&#160;&#160;&#160;&#160;</text>
</g>
<!-- Check&#45;&gt;Final Visit -->
<g id="edge6" class="edge">
<title>Check&#45;&gt;Final Visit</title>
<path fill="none" stroke="black" stroke-width="2.34" d="M104.16,-366.59C73.45,-358.22 27.12,-340.26 5.92,-305 -17.31,-266.35 36.7,-235.74 81.34,-218.01"/>
<polygon fill="black" stroke="black" stroke-width="2.34" points="82.61,-221.27 90.7,-214.42 80.11,-214.73 82.61,-221.27"/>
<text text-anchor="middle" x="42.42" y="-283.3" font-family="Sans Not-Rotated 14" font-size="14.00"> &#160;&#160;&#160;&#160;&#160;&#160;&#160;&#160;&#160;&#160;&#160;&#160;&#160;&#160;&#160;</text>
</g>
<!-- Check&#45;&gt;Visit -->
<g id="edge1" class="edge">
<title>Check&#45;&gt;Visit</title>
<path fill="none" stroke="black" stroke-width="3.09" d="M129.86,-355.84C128.4,-345.47 128.47,-332.47 134.92,-323 135.02,-322.86 159.51,-312.66 182.02,-303.31"/>
<polygon fill="black" stroke="black" stroke-width="3.09" points="183.57,-306.46 191.46,-299.39 180.89,-299.99 183.57,-306.46"/>
<text text-anchor="middle" x="171.42" y="-326.8" font-family="Sans Not-Rotated 14" font-size="14.00"> &#160;&#160;&#160;&#160;&#160;&#160;&#160;&#160;&#160;&#160;&#160;&#160;&#160;&#160;&#160;</text>
</g>
<!-- Check&#45;&gt;X&#45;Ray -->
<g id="edge4" class="edge">
<title>Check&#45;&gt;X&#45;Ray</title>
<path fill="none" stroke="black" stroke-width="2.22" d="M133.92,-392.18C133.92,-403.81 133.92,-419.42 133.92,-432.73"/>
<polygon fill="black" stroke="black" stroke-width="2.22" points="130.42,-432.8 133.92,-442.8 137.42,-432.8 130.42,-432.8"/>
<text text-anchor="middle" x="170.42" y="-413.8" font-family="Sans Not-Rotated 14" font-size="14.00"> &#160;&#160;&#160;&#160;&#160;&#160;&#160;&#160;&#160;&#160;&#160;&#160;&#160;&#160;&#160;</text>
</g>
<!-- Check&#45;&gt;Prepare -->
<g id="edge14" class="edge">
<title>Check&#45;&gt;Prepare</title>
<path fill="none" stroke="black" stroke-width="1.17" d="M163.43,-370.82C204.85,-367.08 276.98,-357.83 292.92,-338 308.12,-319.09 407.93,-394.84 253.92,-149 251.46,-145.08 248.41,-141.41 245.06,-138.03"/>
<polygon fill="black" stroke="black" stroke-width="1.17" points="247.16,-135.21 237.38,-131.13 242.47,-140.42 247.16,-135.21"/>
<text text-anchor="middle" x="348.42" y="-239.8" font-family="Sans Not-Rotated 14" font-size="14.00"> &#160;&#160;&#160;&#160;&#160;&#160;&#160;&#160;&#160;&#160;&#160;&#160;&#160;&#160;&#160;</text>
</g>
<!-- Check&#45;&gt;Check -->
<g id="edge15" class="edge">
<title>Check&#45;&gt;Check</title>
<path fill="none" stroke="black" stroke-width="2.38" d="M163.61,-381.88C173.5,-381.88 181.42,-379.25 181.42,-374 181.42,-370.72 178.33,-368.46 173.59,-367.23"/>
<polygon fill="black" stroke="black" stroke-width="2.38" points="173.93,-363.75 163.61,-366.12 173.16,-370.71 173.93,-363.75"/>
<text text-anchor="middle" x="217.92" y="-370.3" font-family="Sans Not-Rotated 14" font-size="14.00"> &#160;&#160;&#160;&#160;&#160;&#160;&#160;&#160;&#160;&#160;&#160;&#160;&#160;&#160;&#160;</text>
</g>
<!-- start -->
<g id="node8" class="node">
<title>start</title>
<ellipse fill="#95d600" stroke="black" cx="177.92" cy="-731.3" rx="27.1" ry="27.1"/>
<text text-anchor="middle" x="177.92" y="-727.6" font-family="Sans Not-Rotated 14" font-size="14.00">start</text>
</g>
<!-- start&#45;&gt;Triage -->
<g id="edge5" class="edge">
<title>start&#45;&gt;Triage</title>
<path fill="none" stroke="black" stroke-dasharray="5,2" d="M177.92,-703.78C177.92,-691.1 177.92,-675.93 177.92,-663.17"/>
<polygon fill="black" stroke="black" points="181.42,-663.12 177.92,-653.12 174.42,-663.12 181.42,-663.12"/>
<text text-anchor="middle" x="234.42" y="-674.8" font-family="Sans Not-Rotated 14" font-size="14.00"> &#160;&#160;&#160;&#160;&#160;&#160;&#160;&#160;&#160;&#160;&#160;&#160;&#160;&#160;&#160;&#160;&#160;&#160;&#160;&#160;&#160;&#160;&#160;&#160;</text>
</g>
</g>
</svg>
