<?xml version="1.0" encoding="UTF-8" standalone="no"?>
<!DOCTYPE svg PUBLIC "-//W3C//DTD SVG 1.1//EN"
 "http://www.w3.org/Graphics/SVG/1.1/DTD/svg11.dtd">
<!-- Generated by graphviz version 3.0.0 (20220226.1711)
 -->
<!-- Pages: 1 -->
<svg width="196pt" height="680pt"
 viewBox="0.00 0.00 196.00 679.60" xmlns="http://www.w3.org/2000/svg" xmlns:xlink="http://www.w3.org/1999/xlink">
<g id="graph0" class="graph" transform="scale(1 1) rotate(0) translate(4 675.6)">
<polygon fill="white" stroke="transparent" points="-4,4 -4,-675.6 192,-675.6 192,4 -4,4"/>
<!-- RELEASE -->
<g id="node1" class="node">
<title>RELEASE</title>
<polygon fill="#7d7fd2" stroke="black" points="104.5,-305 24.5,-305 24.5,-269 104.5,-269 104.5,-305"/>
<text text-anchor="middle" x="64.5" y="-283.3" font-family="Sans Not-Rotated 14" font-size="14.00">RELEASE</text>
</g>
<!-- CODE OK -->
<g id="node3" class="node">
<title>CODE OK</title>
<polygon fill="#7d7fd2" stroke="black" points="106,-218 23,-218 23,-182 106,-182 106,-218"/>
<text text-anchor="middle" x="64.5" y="-196.3" font-family="Sans Not-Rotated 14" font-size="14.00">CODE OK</text>
</g>
<!-- RELEASE&#45;&gt;CODE OK -->
<g id="edge3" class="edge">
<title>RELEASE&#45;&gt;CODE OK</title>
<path fill="none" stroke="black" stroke-width="3.91" d="M64.5,-268.8C64.5,-257.16 64.5,-241.55 64.5,-228.24"/>
<polygon fill="black" stroke="black" stroke-width="3.91" points="68,-228.18 64.5,-218.18 61,-228.18 68,-228.18"/>
<text text-anchor="middle" x="121" y="-239.8" font-family="Sans Not-Rotated 14" font-size="14.00"> &#160;&#160;&#160;&#160;&#160;&#160;&#160;&#160;&#160;&#160;&#160;&#160;&#160;&#160;&#160;&#160;&#160;&#160;&#160;&#160;&#160;&#160;&#160;&#160;</text>
</g>
<!-- BILLED -->
<g id="node2" class="node">
<title>BILLED</title>
<polygon fill="#7d7fd2" stroke="black" points="98.5,-131 30.5,-131 30.5,-95 98.5,-95 98.5,-131"/>
<text text-anchor="middle" x="64.5" y="-109.3" font-family="Sans Not-Rotated 14" font-size="14.00">BILLED</text>
</g>
<!-- end -->
<g id="node8" class="node">
<title>end</title>
<ellipse fill="#ea4126" stroke="black" cx="64.5" cy="-22" rx="18" ry="18"/>
<ellipse fill="none" stroke="black" cx="64.5" cy="-22" rx="22" ry="22"/>
</g>
<!-- BILLED&#45;&gt;end -->
<g id="edge7" class="edge">
<title>BILLED&#45;&gt;end</title>
<path fill="none" stroke="black" stroke-dasharray="5,2" d="M64.5,-94.84C64.5,-83.44 64.5,-68.13 64.5,-54.58"/>
<polygon fill="black" stroke="black" points="68,-54.19 64.5,-44.19 61,-54.19 68,-54.19"/>
<text text-anchor="middle" x="121" y="-65.8" font-family="Sans Not-Rotated 14" font-size="14.00"> &#160;&#160;&#160;&#160;&#160;&#160;&#160;&#160;&#160;&#160;&#160;&#160;&#160;&#160;&#160;&#160;&#160;&#160;&#160;&#160;&#160;&#160;&#160;&#160;</text>
</g>
<!-- CODE OK&#45;&gt;BILLED -->
<g id="edge1" class="edge">
<title>CODE OK&#45;&gt;BILLED</title>
<path fill="none" stroke="black" stroke-width="3.7" d="M64.5,-181.8C64.5,-170.16 64.5,-154.55 64.5,-141.24"/>
<polygon fill="black" stroke="black" stroke-width="3.7" points="68,-141.18 64.5,-131.18 61,-141.18 68,-141.18"/>
<text text-anchor="middle" x="121" y="-152.8" font-family="Sans Not-Rotated 14" font-size="14.00"> &#160;&#160;&#160;&#160;&#160;&#160;&#160;&#160;&#160;&#160;&#160;&#160;&#160;&#160;&#160;&#160;&#160;&#160;&#160;&#160;&#160;&#160;&#160;&#160;</text>
</g>
<!-- NEW -->
<g id="node4" class="node">
<title>NEW</title>
<polygon fill="#1d2559" stroke="black" points="91.5,-566 37.5,-566 37.5,-530 91.5,-530 91.5,-566"/>
<text text-anchor="middle" x="64.5" y="-544.3" font-family="Sans Not-Rotated 14" font-size="14.00" fill="white">NEW</text>
</g>
<!-- CHANGE DIAGN -->
<g id="node5" class="node">
<title>CHANGE DIAGN</title>
<polygon fill="#ffffff" stroke="black" points="129,-479 0,-479 0,-443 129,-443 129,-479"/>
<text text-anchor="middle" x="64.5" y="-457.3" font-family="Sans Not-Rotated 14" font-size="14.00">CHANGE DIAGN</text>
</g>
<!-- NEW&#45;&gt;CHANGE DIAGN -->
<g id="edge5" class="edge">
<title>NEW&#45;&gt;CHANGE DIAGN</title>
<path fill="none" stroke="black" stroke-width="2.77" d="M64.5,-529.8C64.5,-518.16 64.5,-502.55 64.5,-489.24"/>
<polygon fill="black" stroke="black" stroke-width="2.77" points="68,-489.18 64.5,-479.18 61,-489.18 68,-489.18"/>
<text text-anchor="middle" x="101" y="-500.8" font-family="Sans Not-Rotated 14" font-size="14.00"> &#160;&#160;&#160;&#160;&#160;&#160;&#160;&#160;&#160;&#160;&#160;&#160;&#160;&#160;&#160;</text>
</g>
<!-- CHANGE DIAGN&#45;&gt;CHANGE DIAGN -->
<g id="edge8" class="edge">
<title>CHANGE DIAGN&#45;&gt;CHANGE DIAGN</title>
<path fill="none" stroke="black" d="M129.18,-468.29C139.74,-467.24 147,-464.81 147,-461 147,-458.56 144.02,-456.68 139.1,-455.38"/>
<polygon fill="black" stroke="black" points="139.62,-451.91 129.18,-453.71 138.46,-458.82 139.62,-451.91"/>
<text text-anchor="middle" x="167.5" y="-457.3" font-family="Sans Not-Rotated 14" font-size="14.00"> &#160;&#160;&#160;&#160;&#160;&#160;&#160;&#160;</text>
</g>
<!-- FIN -->
<g id="node6" class="node">
<title>FIN</title>
<polygon fill="#5661c6" stroke="black" points="91.5,-392 37.5,-392 37.5,-356 91.5,-356 91.5,-392"/>
<text text-anchor="middle" x="64.5" y="-370.3" font-family="Sans Not-Rotated 14" font-size="14.00" fill="white">FIN</text>
</g>
<!-- CHANGE DIAGN&#45;&gt;FIN -->
<g id="edge6" class="edge">
<title>CHANGE DIAGN&#45;&gt;FIN</title>
<path fill="none" stroke="black" stroke-width="2.71" d="M64.5,-442.8C64.5,-431.16 64.5,-415.55 64.5,-402.24"/>
<polygon fill="black" stroke="black" stroke-width="2.71" points="68,-402.18 64.5,-392.18 61,-402.18 68,-402.18"/>
<text text-anchor="middle" x="101" y="-413.8" font-family="Sans Not-Rotated 14" font-size="14.00"> &#160;&#160;&#160;&#160;&#160;&#160;&#160;&#160;&#160;&#160;&#160;&#160;&#160;&#160;&#160;</text>
</g>
<!-- FIN&#45;&gt;RELEASE -->
<g id="edge2" class="edge">
<title>FIN&#45;&gt;RELEASE</title>
<path fill="none" stroke="black" stroke-width="4.02" d="M64.5,-355.8C64.5,-344.16 64.5,-328.55 64.5,-315.24"/>
<polygon fill="black" stroke="black" stroke-width="4.02" points="68.02,-315.18 64.5,-305.18 60.98,-315.18 68.02,-315.18"/>
<text text-anchor="middle" x="121" y="-326.8" font-family="Sans Not-Rotated 14" font-size="14.00"> &#160;&#160;&#160;&#160;&#160;&#160;&#160;&#160;&#160;&#160;&#160;&#160;&#160;&#160;&#160;&#160;&#160;&#160;&#160;&#160;&#160;&#160;&#160;&#160;</text>
</g>
<!-- start -->
<g id="node7" class="node">
<title>start</title>
<ellipse fill="#95d600" stroke="black" cx="64.5" cy="-644.3" rx="27.1" ry="27.1"/>
<text text-anchor="middle" x="64.5" y="-640.6" font-family="Sans Not-Rotated 14" font-size="14.00">start</text>
</g>
<!-- start&#45;&gt;NEW -->
<g id="edge4" class="edge">
<title>start&#45;&gt;NEW</title>
<path fill="none" stroke="black" stroke-dasharray="5,2" d="M64.5,-616.78C64.5,-604.1 64.5,-588.93 64.5,-576.17"/>
<polygon fill="black" stroke="black" points="68,-576.12 64.5,-566.12 61,-576.12 68,-576.12"/>
<text text-anchor="middle" x="121" y="-587.8" font-family="Sans Not-Rotated 14" font-size="14.00"> &#160;&#160;&#160;&#160;&#160;&#160;&#160;&#160;&#160;&#160;&#160;&#160;&#160;&#160;&#160;&#160;&#160;&#160;&#160;&#160;&#160;&#160;&#160;&#160;</text>
</g>
</g>
</svg>
