<?xml version="1.0" encoding="UTF-8" standalone="no"?>
<!DOCTYPE svg PUBLIC "-//W3C//DTD SVG 1.1//EN"
 "http://www.w3.org/Graphics/SVG/1.1/DTD/svg11.dtd">
<!-- Generated by graphviz version 3.0.0 (20220226.1711)
 -->
<!-- Pages: 1 -->
<svg width="407pt" height="680pt"
 viewBox="0.00 0.00 406.50 679.60" xmlns="http://www.w3.org/2000/svg" xmlns:xlink="http://www.w3.org/1999/xlink">
<g id="graph0" class="graph" transform="scale(1 1) rotate(0) translate(4 675.6)">
<polygon fill="white" stroke="transparent" points="-4,4 -4,-675.6 402.5,-675.6 402.5,4 -4,4"/>
<!-- RELEASE -->
<g id="node1" class="node">
<title>RELEASE</title>
<polygon fill="#7d7fd2" stroke="black" points="237.5,-305 157.5,-305 157.5,-269 237.5,-269 237.5,-305"/>
<text text-anchor="middle" x="197.5" y="-283.3" font-family="Sans Not-Rotated 14" font-size="14.00">RELEASE</text>
</g>
<!-- CODE OK -->
<g id="node3" class="node">
<title>CODE OK</title>
<polygon fill="#7d7fd2" stroke="black" points="239,-218 156,-218 156,-182 239,-182 239,-218"/>
<text text-anchor="middle" x="197.5" y="-196.3" font-family="Sans Not-Rotated 14" font-size="14.00">CODE OK</text>
</g>
<!-- RELEASE&#45;&gt;CODE OK -->
<g id="edge3" class="edge">
<title>RELEASE&#45;&gt;CODE OK</title>
<path fill="none" stroke="black" stroke-width="3.91" d="M197.5,-268.8C197.5,-257.16 197.5,-241.55 197.5,-228.24"/>
<polygon fill="black" stroke="black" stroke-width="3.91" points="201,-228.18 197.5,-218.18 194,-228.18 201,-228.18"/>
<text text-anchor="middle" x="254" y="-239.8" font-family="Sans Not-Rotated 14" font-size="14.00"> &#160;&#160;&#160;&#160;&#160;&#160;&#160;&#160;&#160;&#160;&#160;&#160;&#160;&#160;&#160;&#160;&#160;&#160;&#160;&#160;&#160;&#160;&#160;&#160;</text>
</g>
<!-- BILLED -->
<g id="node2" class="node">
<title>BILLED</title>
<polygon fill="#7d7fd2" stroke="black" points="231.5,-131 163.5,-131 163.5,-95 231.5,-95 231.5,-131"/>
<text text-anchor="middle" x="197.5" y="-109.3" font-family="Sans Not-Rotated 14" font-size="14.00">BILLED</text>
</g>
<!-- end -->
<g id="node8" class="node">
<title>end</title>
<ellipse fill="#ea4126" stroke="black" cx="261.5" cy="-22" rx="18" ry="18"/>
<ellipse fill="none" stroke="black" cx="261.5" cy="-22" rx="22" ry="22"/>
</g>
<!-- BILLED&#45;&gt;end -->
<g id="edge8" class="edge">
<title>BILLED&#45;&gt;end</title>
<path fill="none" stroke="black" stroke-dasharray="5,2" d="M193.93,-94.71C192.74,-84.55 192.91,-71.8 198.5,-62 205.76,-49.27 219.04,-40.14 231.54,-33.94"/>
<polygon fill="black" stroke="black" points="233.16,-37.05 240.84,-29.75 230.28,-30.66 233.16,-37.05"/>
<text text-anchor="middle" x="255" y="-65.8" font-family="Sans Not-Rotated 14" font-size="14.00"> &#160;&#160;&#160;&#160;&#160;&#160;&#160;&#160;&#160;&#160;&#160;&#160;&#160;&#160;&#160;&#160;&#160;&#160;&#160;&#160;&#160;&#160;&#160;&#160;</text>
</g>
<!-- CODE OK&#45;&gt;BILLED -->
<g id="edge1" class="edge">
<title>CODE OK&#45;&gt;BILLED</title>
<path fill="none" stroke="black" stroke-width="3.7" d="M197.5,-181.8C197.5,-170.16 197.5,-154.55 197.5,-141.24"/>
<polygon fill="black" stroke="black" stroke-width="3.7" points="201,-141.18 197.5,-131.18 194,-141.18 201,-141.18"/>
<text text-anchor="middle" x="254" y="-152.8" font-family="Sans Not-Rotated 14" font-size="14.00"> &#160;&#160;&#160;&#160;&#160;&#160;&#160;&#160;&#160;&#160;&#160;&#160;&#160;&#160;&#160;&#160;&#160;&#160;&#160;&#160;&#160;&#160;&#160;&#160;</text>
</g>
<!-- NEW -->
<g id="node4" class="node">
<title>NEW</title>
<polygon fill="#1d2559" stroke="black" points="251.5,-566 197.5,-566 197.5,-530 251.5,-530 251.5,-566"/>
<text text-anchor="middle" x="224.5" y="-544.3" font-family="Sans Not-Rotated 14" font-size="14.00" fill="white">NEW</text>
</g>
<!-- CHANGE DIAGN -->
<g id="node5" class="node">
<title>CHANGE DIAGN</title>
<polygon fill="#ffffff" stroke="black" points="129,-479 0,-479 0,-443 129,-443 129,-479"/>
<text text-anchor="middle" x="64.5" y="-457.3" font-family="Sans Not-Rotated 14" font-size="14.00">CHANGE DIAGN</text>
</g>
<!-- NEW&#45;&gt;CHANGE DIAGN -->
<g id="edge5" class="edge">
<title>NEW&#45;&gt;CHANGE DIAGN</title>
<path fill="none" stroke="black" stroke-width="2.77" d="M197.16,-537.74C179.67,-531.4 156.73,-522.3 137.5,-512 122.98,-504.22 107.81,-494.19 95.09,-485.15"/>
<polygon fill="black" stroke="black" stroke-width="2.77" points="96.86,-482.11 86.71,-479.09 92.76,-487.79 96.86,-482.11"/>
<text text-anchor="middle" x="174" y="-500.8" font-family="Sans Not-Rotated 14" font-size="14.00"> &#160;&#160;&#160;&#160;&#160;&#160;&#160;&#160;&#160;&#160;&#160;&#160;&#160;&#160;&#160;</text>
</g>
<!-- FIN -->
<g id="node6" class="node">
<title>FIN</title>
<polygon fill="#5661c6" stroke="black" points="224.5,-392 170.5,-392 170.5,-356 224.5,-356 224.5,-392"/>
<text text-anchor="middle" x="197.5" y="-370.3" font-family="Sans Not-Rotated 14" font-size="14.00" fill="white">FIN</text>
</g>
<!-- NEW&#45;&gt;FIN -->
<g id="edge7" class="edge">
<title>NEW&#45;&gt;FIN</title>
<path fill="none" stroke="black" stroke-width="2.1" d="M224.14,-529.9C223.28,-503.75 220.37,-452.38 210.5,-410 209.87,-407.31 209.1,-404.55 208.23,-401.81"/>
<polygon fill="black" stroke="black" stroke-width="2.1" points="211.47,-400.46 204.87,-392.18 204.86,-402.77 211.47,-400.46"/>
<text text-anchor="middle" x="258" y="-457.3" font-family="Sans Not-Rotated 14" font-size="14.00"> &#160;&#160;&#160;&#160;&#160;&#160;&#160;&#160;&#160;&#160;&#160;&#160;&#160;&#160;&#160;</text>
</g>
<!-- NEW&#45;&gt;end -->
<g id="edge9" class="edge">
<title>NEW&#45;&gt;end</title>
<path fill="none" stroke="black" stroke-dasharray="5,2" d="M251.57,-537.64C281.48,-525.37 325.5,-500.73 325.5,-462 325.5,-462 325.5,-462 325.5,-112 325.5,-88.92 324.35,-81.17 311.5,-62 305.68,-53.31 297.29,-45.7 289.04,-39.57"/>
<polygon fill="black" stroke="black" points="290.83,-36.54 280.61,-33.72 286.84,-42.3 290.83,-36.54"/>
<text text-anchor="middle" x="362" y="-283.3" font-family="Sans Not-Rotated 14" font-size="14.00"> &#160;&#160;&#160;&#160;&#160;&#160;&#160;&#160;&#160;&#160;&#160;&#160;&#160;&#160;&#160;</text>
</g>
<!-- CHANGE DIAGN&#45;&gt;CHANGE DIAGN -->
<g id="edge10" class="edge">
<title>CHANGE DIAGN&#45;&gt;CHANGE DIAGN</title>
<path fill="none" stroke="black" d="M129.18,-468.29C139.74,-467.24 147,-464.81 147,-461 147,-458.56 144.02,-456.68 139.1,-455.38"/>
<polygon fill="black" stroke="black" points="139.62,-451.91 129.18,-453.71 138.46,-458.82 139.62,-451.91"/>
<text text-anchor="middle" x="167.5" y="-457.3" font-family="Sans Not-Rotated 14" font-size="14.00"> &#160;&#160;&#160;&#160;&#160;&#160;&#160;&#160;</text>
</g>
<!-- CHANGE DIAGN&#45;&gt;FIN -->
<g id="edge6" class="edge">
<title>CHANGE DIAGN&#45;&gt;FIN</title>
<path fill="none" stroke="black" stroke-width="2.71" d="M88.54,-442.89C102.64,-433.02 120.89,-420.52 137.5,-410 145.2,-405.13 153.58,-400.08 161.57,-395.39"/>
<polygon fill="black" stroke="black" stroke-width="2.71" points="163.49,-398.32 170.37,-390.27 159.97,-392.27 163.49,-398.32"/>
<text text-anchor="middle" x="174" y="-413.8" font-family="Sans Not-Rotated 14" font-size="14.00"> &#160;&#160;&#160;&#160;&#160;&#160;&#160;&#160;&#160;&#160;&#160;&#160;&#160;&#160;&#160;</text>
</g>
<!-- FIN&#45;&gt;RELEASE -->
<g id="edge2" class="edge">
<title>FIN&#45;&gt;RELEASE</title>
<path fill="none" stroke="black" stroke-width="4.02" d="M197.5,-355.8C197.5,-344.16 197.5,-328.55 197.5,-315.24"/>
<polygon fill="black" stroke="black" stroke-width="4.02" points="201.02,-315.18 197.5,-305.18 193.98,-315.18 201.02,-315.18"/>
<text text-anchor="middle" x="254" y="-326.8" font-family="Sans Not-Rotated 14" font-size="14.00"> &#160;&#160;&#160;&#160;&#160;&#160;&#160;&#160;&#160;&#160;&#160;&#160;&#160;&#160;&#160;&#160;&#160;&#160;&#160;&#160;&#160;&#160;&#160;&#160;</text>
</g>
<!-- start -->
<g id="node7" class="node">
<title>start</title>
<ellipse fill="#95d600" stroke="black" cx="224.5" cy="-644.3" rx="27.1" ry="27.1"/>
<text text-anchor="middle" x="224.5" y="-640.6" font-family="Sans Not-Rotated 14" font-size="14.00">start</text>
</g>
<!-- start&#45;&gt;NEW -->
<g id="edge4" class="edge">
<title>start&#45;&gt;NEW</title>
<path fill="none" stroke="black" stroke-dasharray="5,2" d="M224.5,-616.78C224.5,-604.1 224.5,-588.93 224.5,-576.17"/>
<polygon fill="black" stroke="black" points="228,-576.12 224.5,-566.12 221,-576.12 228,-576.12"/>
<text text-anchor="middle" x="281" y="-587.8" font-family="Sans Not-Rotated 14" font-size="14.00"> &#160;&#160;&#160;&#160;&#160;&#160;&#160;&#160;&#160;&#160;&#160;&#160;&#160;&#160;&#160;&#160;&#160;&#160;&#160;&#160;&#160;&#160;&#160;&#160;</text>
</g>
</g>
</svg>
