<?xml version="1.0" encoding="UTF-8" standalone="no"?>
<!DOCTYPE svg PUBLIC "-//W3C//DTD SVG 1.1//EN"
 "http://www.w3.org/Graphics/SVG/1.1/DTD/svg11.dtd">
<!-- Generated by graphviz version 3.0.0 (20220226.1711)
 -->
<!-- Pages: 1 -->
<svg width="227pt" height="332pt"
 viewBox="0.00 0.00 227.00 331.60" xmlns="http://www.w3.org/2000/svg" xmlns:xlink="http://www.w3.org/1999/xlink">
<g id="graph0" class="graph" transform="scale(1 1) rotate(0) translate(4 327.6)">
<polygon fill="white" stroke="transparent" points="-4,4 -4,-327.6 223,-327.6 223,4 -4,4"/>
<!-- Admission NC -->
<g id="node1" class="node">
<title>Admission NC</title>
<polygon fill="#1d2559" stroke="black" points="110,-218 0,-218 0,-182 110,-182 110,-218"/>
<text text-anchor="middle" x="55" y="-196.3" font-family="Sans Not-Rotated 14" font-size="14.00" fill="white">Admission NC</text>
</g>
<!-- Admission NC&#45;&gt;Admission NC -->
<g id="edge1" class="edge">
<title>Admission NC&#45;&gt;Admission NC</title>
<path fill="none" stroke="black" stroke-width="5" d="M110.07,-207.5C120.57,-206.6 128,-204.1 128,-200 128,-197.37 124.95,-195.4 120,-194.09"/>
<polygon fill="black" stroke="black" stroke-width="5" points="120.64,-189.76 110.07,-192.5 119.26,-198.4 120.64,-189.76"/>
<text text-anchor="middle" x="164.5" y="-196.3" font-family="Sans Not-Rotated 14" font-size="14.00"> &#160;&#160;&#160;&#160;&#160;&#160;&#160;&#160;&#160;&#160;&#160;&#160;&#160;&#160;&#160;</text>
</g>
<!-- Admission IC -->
<g id="node2" class="node">
<title>Admission IC</title>
<polygon fill="#ffffff" stroke="black" points="173,-131 69,-131 69,-95 173,-95 173,-131"/>
<text text-anchor="middle" x="121" y="-109.3" font-family="Sans Not-Rotated 14" font-size="14.00">Admission IC</text>
</g>
<!-- Admission NC&#45;&gt;Admission IC -->
<g id="edge2" class="edge">
<title>Admission NC&#45;&gt;Admission IC</title>
<path fill="none" stroke="black" stroke-width="1.05" d="M75.27,-181.81C81.02,-176.42 87.06,-170.24 92,-164 97.73,-156.76 103.09,-148.27 107.6,-140.35"/>
<polygon fill="black" stroke="black" stroke-width="1.05" points="110.74,-141.9 112.48,-131.45 104.6,-138.53 110.74,-141.9"/>
<text text-anchor="middle" x="110.5" y="-152.8" font-family="Sans Not-Rotated 14" font-size="14.00"> &#160;&#160;&#160;</text>
</g>
<!-- end -->
<g id="node4" class="node">
<title>end</title>
<ellipse fill="#ea4126" stroke="black" cx="48" cy="-22" rx="18" ry="18"/>
<ellipse fill="none" stroke="black" cx="48" cy="-22" rx="22" ry="22"/>
</g>
<!-- Admission NC&#45;&gt;end -->
<g id="edge3" class="edge">
<title>Admission NC&#45;&gt;end</title>
<path fill="none" stroke="black" stroke-dasharray="5,2" d="M50.45,-181.82C47.09,-168.16 42.78,-148.51 41,-131 38.35,-104.98 40.65,-75.32 43.3,-53.67"/>
<polygon fill="black" stroke="black" points="46.78,-54.11 44.61,-43.74 39.84,-53.2 46.78,-54.11"/>
<text text-anchor="middle" x="50.5" y="-109.3" font-family="Sans Not-Rotated 14" font-size="14.00"> &#160;&#160;&#160;</text>
</g>
<!-- Admission IC&#45;&gt;Admission NC -->
<g id="edge4" class="edge">
<title>Admission IC&#45;&gt;Admission NC</title>
<path fill="none" stroke="black" stroke-width="1.05" d="M88.02,-131.06C80.91,-136.03 74.03,-142.03 69,-149 64.15,-155.71 60.98,-164.03 58.91,-171.95"/>
<polygon fill="black" stroke="black" stroke-width="1.05" points="55.44,-171.45 56.77,-181.96 62.28,-172.91 55.44,-171.45"/>
<text text-anchor="middle" x="78.5" y="-152.8" font-family="Sans Not-Rotated 14" font-size="14.00"> &#160;&#160;&#160;</text>
</g>
<!-- Admission IC&#45;&gt;Admission IC -->
<g id="edge5" class="edge">
<title>Admission IC&#45;&gt;Admission IC</title>
<path fill="none" stroke="black" stroke-width="1.33" d="M173.2,-120.55C183.59,-119.7 191,-117.18 191,-113 191,-110.39 188.11,-108.42 183.4,-107.11"/>
<polygon fill="black" stroke="black" stroke-width="1.33" points="183.63,-103.6 173.2,-105.45 182.51,-110.51 183.63,-103.6"/>
<text text-anchor="middle" x="200.5" y="-109.3" font-family="Sans Not-Rotated 14" font-size="14.00"> &#160;&#160;&#160;</text>
</g>
<!-- Admission IC&#45;&gt;end -->
<g id="edge6" class="edge">
<title>Admission IC&#45;&gt;end</title>
<path fill="none" stroke="black" stroke-dasharray="5,2" d="M106.92,-94.84C95.88,-81.37 80.36,-62.45 68.02,-47.41"/>
<polygon fill="black" stroke="black" points="70.59,-45.02 61.54,-39.51 65.17,-49.46 70.59,-45.02"/>
<text text-anchor="middle" x="93.5" y="-65.8" font-family="Sans Not-Rotated 14" font-size="14.00"> </text>
</g>
<!-- start -->
<g id="node3" class="node">
<title>start</title>
<ellipse fill="#95d600" stroke="black" cx="146" cy="-296.3" rx="27.1" ry="27.1"/>
<text text-anchor="middle" x="146" y="-292.6" font-family="Sans Not-Rotated 14" font-size="14.00">start</text>
</g>
<!-- start&#45;&gt;Admission NC -->
<g id="edge7" class="edge">
<title>start&#45;&gt;Admission NC</title>
<path fill="none" stroke="black" stroke-dasharray="5,2" d="M127.14,-275.76C113.1,-261.2 93.82,-241.22 78.72,-225.58"/>
<polygon fill="black" stroke="black" points="81.15,-223.06 71.69,-218.29 76.11,-227.92 81.15,-223.06"/>
<text text-anchor="middle" x="112.5" y="-239.8" font-family="Sans Not-Rotated 14" font-size="14.00"> &#160;&#160;&#160;</text>
</g>
<!-- start&#45;&gt;Admission IC -->
<g id="edge8" class="edge">
<title>start&#45;&gt;Admission IC</title>
<path fill="none" stroke="black" stroke-dasharray="5,2" d="M167.28,-278.34C192,-256.46 227.32,-217.03 210,-182 200.61,-163 183.08,-147.85 166.04,-136.72"/>
<polygon fill="black" stroke="black" points="167.57,-133.55 157.23,-131.27 163.89,-139.5 167.57,-133.55"/>
<text text-anchor="middle" x="216.5" y="-196.3" font-family="Sans Not-Rotated 14" font-size="14.00"> </text>
</g>
</g>
</svg>
