<?xml version="1.0" encoding="UTF-8" standalone="no"?>
<!DOCTYPE svg PUBLIC "-//W3C//DTD SVG 1.1//EN"
 "http://www.w3.org/Graphics/SVG/1.1/DTD/svg11.dtd">
<!-- Generated by graphviz version 3.0.0 (20220226.1711)
 -->
<!-- Pages: 1 -->
<svg width="248pt" height="245pt"
 viewBox="0.00 0.00 248.00 244.60" xmlns="http://www.w3.org/2000/svg" xmlns:xlink="http://www.w3.org/1999/xlink">
<g id="graph0" class="graph" transform="scale(1 1) rotate(0) translate(4 240.6)">
<polygon fill="white" stroke="transparent" points="-4,4 -4,-240.6 244,-240.6 244,4 -4,4"/>
<!-- Admission NC -->
<g id="node1" class="node">
<title>Admission NC</title>
<polygon fill="#1d2559" stroke="black" points="149,-131 39,-131 39,-95 149,-95 149,-131"/>
<text text-anchor="middle" x="94" y="-109.3" font-family="Sans Not-Rotated 14" font-size="14.00" fill="white">Admission NC</text>
</g>
<!-- Admission NC&#45;&gt;Admission NC -->
<g id="edge5" class="edge">
<title>Admission NC&#45;&gt;Admission NC</title>
<path fill="none" stroke="black" stroke-width="5" d="M149.07,-120.5C159.57,-119.6 167,-117.1 167,-113 167,-110.37 163.95,-108.4 159,-107.09"/>
<polygon fill="black" stroke="black" stroke-width="5" points="159.64,-102.76 149.07,-105.5 158.26,-111.4 159.64,-102.76"/>
<text text-anchor="middle" x="203.5" y="-109.3" font-family="Sans Not-Rotated 14" font-size="14.00"> &#160;&#160;&#160;&#160;&#160;&#160;&#160;&#160;&#160;&#160;&#160;&#160;&#160;&#160;&#160;</text>
</g>
<!-- Admission IC -->
<g id="node2" class="node">
<title>Admission IC</title>
<polygon fill="#ffffff" stroke="black" points="104,-40 0,-40 0,-4 104,-4 104,-40"/>
<text text-anchor="middle" x="52" y="-18.3" font-family="Sans Not-Rotated 14" font-size="14.00">Admission IC</text>
</g>
<!-- Admission NC&#45;&gt;Admission IC -->
<g id="edge1" class="edge">
<title>Admission NC&#45;&gt;Admission IC</title>
<path fill="none" stroke="black" d="M67.04,-94.72C61.4,-89.73 56.2,-83.77 53,-77 49.18,-68.92 48.07,-59.38 48.17,-50.58"/>
<polygon fill="black" stroke="black" points="51.68,-50.56 48.81,-40.36 44.7,-50.13 51.68,-50.56"/>
<text text-anchor="middle" x="62.5" y="-65.8" font-family="Sans Not-Rotated 14" font-size="14.00"> &#160;&#160;&#160;</text>
</g>
<!-- end -->
<g id="node4" class="node">
<title>end</title>
<ellipse fill="#ea4126" stroke="black" cx="144" cy="-22" rx="18" ry="18"/>
<ellipse fill="none" stroke="black" cx="144" cy="-22" rx="22" ry="22"/>
</g>
<!-- Admission NC&#45;&gt;end -->
<g id="edge4" class="edge">
<title>Admission NC&#45;&gt;end</title>
<path fill="none" stroke="black" stroke-dasharray="5,2" d="M103.64,-94.84C110.67,-82.33 120.35,-65.1 128.46,-50.66"/>
<polygon fill="black" stroke="black" points="131.68,-52.08 133.53,-41.64 125.58,-48.65 131.68,-52.08"/>
<text text-anchor="middle" x="130.5" y="-65.8" font-family="Sans Not-Rotated 14" font-size="14.00"> &#160;&#160;&#160;</text>
</g>
<!-- Admission IC&#45;&gt;Admission NC -->
<g id="edge2" class="edge">
<title>Admission IC&#45;&gt;Admission NC</title>
<path fill="none" stroke="black" d="M61.18,-40.36C64.66,-47.08 68.6,-54.85 72,-62 75.61,-69.59 79.36,-77.91 82.71,-85.55"/>
<polygon fill="black" stroke="black" points="79.52,-86.99 86.71,-94.76 85.94,-84.2 79.52,-86.99"/>
<text text-anchor="middle" x="88.5" y="-65.8" font-family="Sans Not-Rotated 14" font-size="14.00"> &#160;&#160;&#160;</text>
</g>
<!-- start -->
<g id="node3" class="node">
<title>start</title>
<ellipse fill="#95d600" stroke="black" cx="94" cy="-209.3" rx="27.1" ry="27.1"/>
<text text-anchor="middle" x="94" y="-205.6" font-family="Sans Not-Rotated 14" font-size="14.00">start</text>
</g>
<!-- start&#45;&gt;Admission NC -->
<g id="edge3" class="edge">
<title>start&#45;&gt;Admission NC</title>
<path fill="none" stroke="black" stroke-dasharray="5,2" d="M94,-181.78C94,-169.1 94,-153.93 94,-141.17"/>
<polygon fill="black" stroke="black" points="97.5,-141.12 94,-131.12 90.5,-141.12 97.5,-141.12"/>
<text text-anchor="middle" x="103.5" y="-152.8" font-family="Sans Not-Rotated 14" font-size="14.00"> &#160;&#160;&#160;</text>
</g>
</g>
</svg>
