<?xml version="1.0" encoding="UTF-8" standalone="no"?>
<!DOCTYPE svg PUBLIC "-//W3C//DTD SVG 1.1//EN"
 "http://www.w3.org/Graphics/SVG/1.1/DTD/svg11.dtd">
<!-- Generated by graphviz version 3.0.0 (20220226.1711)
 -->
<!-- Pages: 1 -->
<svg width="1019pt" height="593pt"
 viewBox="0.00 0.00 1018.98 592.60" xmlns="http://www.w3.org/2000/svg" xmlns:xlink="http://www.w3.org/1999/xlink">
<g id="graph0" class="graph" transform="scale(1 1) rotate(0) translate(4 588.6)">
<polygon fill="white" stroke="transparent" points="-4,4 -4,-588.6 1014.98,-588.6 1014.98,4 -4,4"/>
<!-- Red zone operator -->
<g id="node1" class="node">
<title>Red zone operator</title>
<polygon fill="#1d2559" stroke="black" points="574.48,-479 429.48,-479 429.48,-443 574.48,-443 574.48,-479"/>
<text text-anchor="middle" x="501.98" y="-457.3" font-family="Sans Not-Rotated 14" font-size="14.00" fill="white">Red zone operator</text>
</g>
<!-- Red zone operator&#45;&gt;Red zone operator -->
<g id="edge35" class="edge">
<title>Red zone operator&#45;&gt;Red zone operator</title>
<path fill="none" stroke="black" stroke-width="1.51" d="M574.76,-468.11C585.35,-466.98 592.48,-464.61 592.48,-461 592.48,-458.69 589.55,-456.88 584.67,-455.59"/>
<polygon fill="black" stroke="black" stroke-width="1.51" points="585.21,-452.13 574.76,-453.89 584.03,-459.03 585.21,-452.13"/>
<text text-anchor="middle" x="612.98" y="-457.3" font-family="Sans Not-Rotated 14" font-size="14.00"> &#160;&#160;&#160;&#160;&#160;&#160;&#160;&#160;</text>
</g>
<!-- Red zone doctor FD -->
<g id="node2" class="node">
<title>Red zone doctor FD</title>
<polygon fill="#1d2559" stroke="black" points="482.48,-392 329.48,-392 329.48,-356 482.48,-356 482.48,-392"/>
<text text-anchor="middle" x="405.98" y="-370.3" font-family="Sans Not-Rotated 14" font-size="14.00" fill="white">Red zone doctor FD</text>
</g>
<!-- Red zone operator&#45;&gt;Red zone doctor FD -->
<g id="edge6" class="edge">
<title>Red zone operator&#45;&gt;Red zone doctor FD</title>
<path fill="none" stroke="black" stroke-width="3.34" d="M429.32,-446.31C418.97,-441.26 409.61,-434.38 402.98,-425 398.37,-418.48 397.45,-410.21 398.17,-402.28"/>
<polygon fill="black" stroke="black" stroke-width="3.34" points="401.65,-402.68 399.88,-392.23 394.75,-401.5 401.65,-402.68"/>
<text text-anchor="middle" x="439.48" y="-413.8" font-family="Sans Not-Rotated 14" font-size="14.00"> &#160;&#160;&#160;&#160;&#160;&#160;&#160;&#160;&#160;&#160;&#160;&#160;&#160;&#160;&#160;</text>
</g>
<!-- Yellow zone doctor FD -->
<g id="node3" class="node">
<title>Yellow zone doctor FD</title>
<polygon fill="#ffffff" stroke="black" points="689.48,-305 516.48,-305 516.48,-269 689.48,-269 689.48,-305"/>
<text text-anchor="middle" x="602.98" y="-283.3" font-family="Sans Not-Rotated 14" font-size="14.00">Yellow zone doctor FD</text>
</g>
<!-- Red zone operator&#45;&gt;Yellow zone doctor FD -->
<g id="edge14" class="edge">
<title>Red zone operator&#45;&gt;Yellow zone doctor FD</title>
<path fill="none" stroke="black" stroke-width="1.06" d="M544.31,-442.88C552.89,-438.02 561.31,-432.08 567.98,-425 595.99,-395.22 602.37,-346.21 603.4,-315.59"/>
<polygon fill="black" stroke="black" stroke-width="1.06" points="606.91,-315.26 603.57,-305.21 599.91,-315.15 606.91,-315.26"/>
<text text-anchor="middle" x="607.48" y="-370.3" font-family="Sans Not-Rotated 14" font-size="14.00"> &#160;&#160;&#160;</text>
</g>
<!-- Red zone doctor -->
<g id="node4" class="node">
<title>Red zone doctor</title>
<polygon fill="#5661c6" stroke="black" points="756.48,-40 627.48,-40 627.48,-4 756.48,-4 756.48,-40"/>
<text text-anchor="middle" x="691.98" y="-18.3" font-family="Sans Not-Rotated 14" font-size="14.00" fill="white">Red zone doctor</text>
</g>
<!-- Red zone operator&#45;&gt;Red zone doctor -->
<g id="edge15" class="edge">
<title>Red zone operator&#45;&gt;Red zone doctor</title>
<path fill="none" stroke="black" stroke-width="5" d="M574.54,-447.83C597.12,-442.51 621.67,-435.12 642.98,-425 748.75,-374.76 771.38,-329.87 805.98,-218 826.78,-150.74 762.34,-81.91 721.98,-46.8"/>
<polygon fill="black" stroke="black" stroke-width="5" points="724.72,-43.38 714.27,-40.24 719.05,-50.05 724.72,-43.38"/>
<text text-anchor="middle" x="836.48" y="-239.8" font-family="Sans Not-Rotated 14" font-size="14.00"> &#160;&#160;&#160;&#160;&#160;&#160;&#160;&#160;&#160;&#160;&#160;&#160;&#160;&#160;&#160;</text>
</g>
<!-- Notification operator -->
<g id="node5" class="node">
<title>Notification operator</title>
<polygon fill="#a09dde" stroke="black" points="390.48,-131 231.48,-131 231.48,-95 390.48,-95 390.48,-131"/>
<text text-anchor="middle" x="310.98" y="-109.3" font-family="Sans Not-Rotated 14" font-size="14.00">Notification operator</text>
</g>
<!-- Red zone operator&#45;&gt;Notification operator -->
<g id="edge22" class="edge">
<title>Red zone operator&#45;&gt;Notification operator</title>
<path fill="none" stroke="black" stroke-width="1.02" d="M429.03,-458.91C310.21,-456.46 85.33,-448.71 57.98,-425 11.63,-384.83 12.83,-190.51 57.98,-149 81.4,-127.46 158.07,-119.07 220.92,-115.86"/>
<polygon fill="black" stroke="black" stroke-width="1.02" points="221.46,-119.34 231.28,-115.37 221.13,-112.35 221.46,-119.34"/>
<text text-anchor="middle" x="34.48" y="-283.3" font-family="Sans Not-Rotated 14" font-size="14.00"> &#160;&#160;&#160;</text>
</g>
<!-- Yellow zone doctor -->
<g id="node6" class="node">
<title>Yellow zone doctor</title>
<polygon fill="#ffffff" stroke="black" points="318.48,-218 169.48,-218 169.48,-182 318.48,-182 318.48,-218"/>
<text text-anchor="middle" x="243.98" y="-196.3" font-family="Sans Not-Rotated 14" font-size="14.00">Yellow zone doctor</text>
</g>
<!-- Red zone operator&#45;&gt;Yellow zone doctor -->
<g id="edge28" class="edge">
<title>Red zone operator&#45;&gt;Yellow zone doctor</title>
<path fill="none" stroke="black" stroke-width="1.2" d="M429.31,-450.54C364.42,-437.65 273.96,-407.57 235.98,-338 217.27,-303.73 225.79,-257.2 234.35,-228.14"/>
<polygon fill="black" stroke="black" stroke-width="1.2" points="237.78,-228.87 237.45,-218.28 231.11,-226.77 237.78,-228.87"/>
<text text-anchor="middle" x="256.48" y="-326.8" font-family="Sans Not-Rotated 14" font-size="14.00"> &#160;&#160;&#160;&#160;&#160;&#160;&#160;&#160;</text>
</g>
<!-- Red zone doctor FD&#45;&gt;Red zone operator -->
<g id="edge2" class="edge">
<title>Red zone doctor FD&#45;&gt;Red zone operator</title>
<path fill="none" stroke="black" stroke-width="3.43" d="M455.03,-392.09C464.11,-396.86 472.94,-402.77 479.98,-410 486.35,-416.55 491.04,-425.24 494.41,-433.55"/>
<polygon fill="black" stroke="black" stroke-width="3.43" points="491.12,-434.73 497.79,-442.96 497.71,-432.37 491.12,-434.73"/>
<text text-anchor="middle" x="527.48" y="-413.8" font-family="Sans Not-Rotated 14" font-size="14.00"> &#160;&#160;&#160;&#160;&#160;&#160;&#160;&#160;&#160;&#160;&#160;&#160;&#160;&#160;&#160;</text>
</g>
<!-- Red zone doctor FD&#45;&gt;Red zone doctor FD -->
<g id="edge36" class="edge">
<title>Red zone doctor FD&#45;&gt;Red zone doctor FD</title>
<path fill="none" stroke="black" stroke-width="2.54" d="M482.73,-381.03C493.37,-379.87 500.48,-377.53 500.48,-374 500.48,-371.74 497.56,-369.97 492.66,-368.68"/>
<polygon fill="black" stroke="black" stroke-width="2.54" points="493.18,-365.22 482.73,-366.97 491.99,-372.12 493.18,-365.22"/>
<text text-anchor="middle" x="536.98" y="-370.3" font-family="Sans Not-Rotated 14" font-size="14.00"> &#160;&#160;&#160;&#160;&#160;&#160;&#160;&#160;&#160;&#160;&#160;&#160;&#160;&#160;&#160;</text>
</g>
<!-- Red zone doctor FD&#45;&gt;Yellow zone doctor FD -->
<g id="edge11" class="edge">
<title>Red zone doctor FD&#45;&gt;Yellow zone doctor FD</title>
<path fill="none" stroke="black" stroke-width="1.48" d="M482.79,-356.18C499.4,-351.31 516.59,-345.29 531.98,-338 536.36,-335.93 554.25,-323.32 570.98,-311.29"/>
<polygon fill="black" stroke="black" stroke-width="1.48" points="573.48,-313.8 579.54,-305.1 569.38,-308.12 573.48,-313.8"/>
<text text-anchor="middle" x="573.48" y="-326.8" font-family="Sans Not-Rotated 14" font-size="14.00"> &#160;&#160;&#160;&#160;&#160;&#160;&#160;&#160;</text>
</g>
<!-- Red zone doctor FD&#45;&gt;Red zone doctor -->
<g id="edge16" class="edge">
<title>Red zone doctor FD&#45;&gt;Red zone doctor</title>
<path fill="none" stroke="black" stroke-width="1.71" d="M482.62,-363.95C558.6,-353.49 668.01,-333.91 698.98,-305 752.93,-254.62 771.42,-221.18 755.98,-149 747.98,-111.61 726,-73.04 710.02,-48.59"/>
<polygon fill="black" stroke="black" stroke-width="1.71" points="712.91,-46.62 704.45,-40.25 707.09,-50.51 712.91,-46.62"/>
<text text-anchor="middle" x="781.48" y="-196.3" font-family="Sans Not-Rotated 14" font-size="14.00"> &#160;&#160;&#160;&#160;&#160;&#160;&#160;&#160;</text>
</g>
<!-- Red zone doctor FD&#45;&gt;Notification operator -->
<g id="edge20" class="edge">
<title>Red zone doctor FD&#45;&gt;Notification operator</title>
<path fill="none" stroke="black" stroke-width="1.56" d="M403.89,-355.93C401.2,-335.22 396.01,-299.3 388.98,-269 385.51,-254.07 384.96,-250.11 378.98,-236 364.28,-201.36 342.41,-163.89 327.47,-139.75"/>
<polygon fill="black" stroke="black" stroke-width="1.56" points="330.38,-137.8 322.11,-131.18 324.45,-141.51 330.38,-137.8"/>
<text text-anchor="middle" x="405.48" y="-239.8" font-family="Sans Not-Rotated 14" font-size="14.00"> &#160;&#160;&#160;&#160;&#160;&#160;&#160;&#160;</text>
</g>
<!-- Red zone doctor FD&#45;&gt;Yellow zone doctor -->
<g id="edge24" class="edge">
<title>Red zone doctor FD&#45;&gt;Yellow zone doctor</title>
<path fill="none" stroke="black" stroke-width="2.04" d="M339.28,-355.99C311.68,-345.65 281.79,-329.55 262.98,-305 246.21,-283.12 242.58,-251.11 242.44,-228.39"/>
<polygon fill="black" stroke="black" stroke-width="2.04" points="245.94,-228.43 242.6,-218.37 238.94,-228.32 245.94,-228.43"/>
<text text-anchor="middle" x="283.48" y="-283.3" font-family="Sans Not-Rotated 14" font-size="14.00"> &#160;&#160;&#160;&#160;&#160;&#160;&#160;&#160;</text>
</g>
<!-- end -->
<g id="node8" class="node">
<title>end</title>
<ellipse fill="#ea4126" stroke="black" cx="310.98" cy="-22" rx="18" ry="18"/>
<ellipse fill="none" stroke="black" cx="310.98" cy="-22" rx="22" ry="22"/>
</g>
<!-- Red zone doctor FD&#45;&gt;end -->
<g id="edge31" class="edge">
<title>Red zone doctor FD&#45;&gt;end</title>
<path fill="none" stroke="black" stroke-dasharray="5,2" d="M329.22,-369.16C235.68,-362.72 85.64,-346.12 49.98,-305 3.71,-251.66 -18.78,-208.02 19.98,-149 78.83,-59.39 216.53,-33.2 279.07,-25.8"/>
<polygon fill="black" stroke="black" points="279.58,-29.26 289.13,-24.69 278.81,-22.31 279.58,-29.26"/>
<text text-anchor="middle" x="13.48" y="-196.3" font-family="Sans Not-Rotated 14" font-size="14.00"> &#160;&#160;&#160;</text>
</g>
<!-- Yellow zone doctor FD&#45;&gt;Red zone operator -->
<g id="edge4" class="edge">
<title>Yellow zone doctor FD&#45;&gt;Red zone operator</title>
<path fill="none" stroke="black" stroke-width="1.68" d="M614.64,-305.31C617.99,-310.8 621.42,-317 623.98,-323 641.77,-364.7 655.82,-392.73 623.98,-425 613.12,-436 599.06,-443.6 584.35,-448.84"/>
<polygon fill="black" stroke="black" stroke-width="1.68" points="583.09,-445.57 574.63,-451.95 585.22,-452.23 583.09,-445.57"/>
<text text-anchor="middle" x="662.48" y="-370.3" font-family="Sans Not-Rotated 14" font-size="14.00"> &#160;&#160;&#160;&#160;&#160;&#160;&#160;&#160;</text>
</g>
<!-- Yellow zone doctor FD&#45;&gt;Red zone doctor FD -->
<g id="edge7" class="edge">
<title>Yellow zone doctor FD&#45;&gt;Red zone doctor FD</title>
<path fill="none" stroke="black" stroke-width="1.31" d="M537.86,-305.03C522.18,-310.03 505.72,-316.05 490.98,-323 479.94,-328.2 478.41,-331.66 467.98,-338 460.99,-342.24 453.48,-346.63 446.19,-350.8"/>
<polygon fill="black" stroke="black" stroke-width="1.31" points="444.08,-347.96 437.11,-355.94 447.53,-354.06 444.08,-347.96"/>
<text text-anchor="middle" x="511.48" y="-326.8" font-family="Sans Not-Rotated 14" font-size="14.00"> &#160;&#160;&#160;&#160;&#160;&#160;&#160;&#160;</text>
</g>
<!-- Yellow zone doctor FD&#45;&gt;Red zone doctor -->
<g id="edge17" class="edge">
<title>Yellow zone doctor FD&#45;&gt;Red zone doctor</title>
<path fill="none" stroke="black" stroke-width="1.27" d="M656.23,-268.91C664.77,-264.22 672.81,-258.34 678.98,-251 727.23,-193.57 711.26,-96.5 699.64,-49.75"/>
<polygon fill="black" stroke="black" stroke-width="1.27" points="703.02,-48.83 697.11,-40.04 696.25,-50.6 703.02,-48.83"/>
<text text-anchor="middle" x="731.48" y="-152.8" font-family="Sans Not-Rotated 14" font-size="14.00"> &#160;&#160;&#160;&#160;&#160;&#160;&#160;&#160;</text>
</g>
<!-- Yellow zone doctor FD&#45;&gt;Notification operator -->
<g id="edge19" class="edge">
<title>Yellow zone doctor FD&#45;&gt;Notification operator</title>
<path fill="none" stroke="black" stroke-width="1.93" d="M598.86,-268.77C592.24,-245.08 576.83,-203 546.98,-182 503.83,-151.66 447.28,-134.76 400.35,-125.4"/>
<polygon fill="black" stroke="black" stroke-width="1.93" points="400.97,-121.96 390.49,-123.52 399.66,-128.83 400.97,-121.96"/>
<text text-anchor="middle" x="598.48" y="-196.3" font-family="Sans Not-Rotated 14" font-size="14.00"> &#160;&#160;&#160;&#160;&#160;&#160;&#160;&#160;</text>
</g>
<!-- Yellow zone doctor FD&#45;&gt;Yellow zone doctor -->
<g id="edge25" class="edge">
<title>Yellow zone doctor FD&#45;&gt;Yellow zone doctor</title>
<path fill="none" stroke="black" stroke-width="2.15" d="M516.29,-281.11C442.5,-275.98 342.77,-266.47 305.98,-251 298.16,-247.72 283.62,-236.12 270.58,-224.92"/>
<polygon fill="black" stroke="black" stroke-width="2.15" points="272.57,-222 262.73,-218.07 267.97,-227.28 272.57,-222"/>
<text text-anchor="middle" x="342.48" y="-239.8" font-family="Sans Not-Rotated 14" font-size="14.00"> &#160;&#160;&#160;&#160;&#160;&#160;&#160;&#160;&#160;&#160;&#160;&#160;&#160;&#160;&#160;</text>
</g>
<!-- Yellow zone doctor FD&#45;&gt;end -->
<g id="edge30" class="edge">
<title>Yellow zone doctor FD&#45;&gt;end</title>
<path fill="none" stroke="black" stroke-dasharray="5,2" d="M611.57,-268.72C620.78,-247.79 632.83,-211.66 622.98,-182 607.76,-136.2 599.83,-119.04 557.98,-95 496.69,-59.8 466.85,-99.86 399.98,-77 376.82,-69.08 353.26,-54.44 336.21,-42.39"/>
<polygon fill="black" stroke="black" points="338.07,-39.42 327.91,-36.38 333.96,-45.08 338.07,-39.42"/>
<text text-anchor="middle" x="625.48" y="-152.8" font-family="Sans Not-Rotated 14" font-size="14.00"> &#160;&#160;&#160;</text>
</g>
<!-- Red zone doctor&#45;&gt;Red zone operator -->
<g id="edge1" class="edge">
<title>Red zone doctor&#45;&gt;Red zone operator</title>
<path fill="none" stroke="black" stroke-width="3.46" d="M756.74,-24.03C819.08,-28.87 903.98,-47.33 903.98,-112 903.98,-375 903.98,-375 903.98,-375 903.98,-439.64 702.53,-455.36 584.85,-459.02"/>
<polygon fill="black" stroke="black" stroke-width="3.46" points="584.67,-455.53 574.78,-459.32 584.87,-462.52 584.67,-455.53"/>
<text text-anchor="middle" x="940.48" y="-239.8" font-family="Sans Not-Rotated 14" font-size="14.00"> &#160;&#160;&#160;&#160;&#160;&#160;&#160;&#160;&#160;&#160;&#160;&#160;&#160;&#160;&#160;</text>
</g>
<!-- Red zone doctor&#45;&gt;Red zone doctor FD -->
<g id="edge5" class="edge">
<title>Red zone doctor&#45;&gt;Red zone doctor FD</title>
<path fill="none" stroke="black" stroke-width="3.5" d="M672.73,-40.08C647.34,-62.25 600.83,-101.57 557.98,-131 520.71,-156.59 498.56,-146.98 469.98,-182 459.32,-195.06 428.42,-296.77 413.81,-346.2"/>
<polygon fill="black" stroke="black" stroke-width="3.5" points="410.42,-345.33 410.95,-355.91 417.13,-347.3 410.42,-345.33"/>
<text text-anchor="middle" x="506.48" y="-196.3" font-family="Sans Not-Rotated 14" font-size="14.00"> &#160;&#160;&#160;&#160;&#160;&#160;&#160;&#160;&#160;&#160;&#160;&#160;&#160;&#160;&#160;</text>
</g>
<!-- Red zone doctor&#45;&gt;Yellow zone doctor FD -->
<g id="edge13" class="edge">
<title>Red zone doctor&#45;&gt;Yellow zone doctor FD</title>
<path fill="none" stroke="black" stroke-width="1.09" d="M686.31,-40.28C678.76,-64.34 665.77,-109.42 660.98,-149 655.52,-194.01 684.41,-211.61 661.98,-251 659.53,-255.3 656.32,-259.13 652.66,-262.52"/>
<polygon fill="black" stroke="black" stroke-width="1.09" points="650.28,-259.94 644.62,-268.89 654.63,-265.42 650.28,-259.94"/>
<text text-anchor="middle" x="681.48" y="-152.8" font-family="Sans Not-Rotated 14" font-size="14.00"> &#160;&#160;&#160;&#160;&#160;&#160;&#160;&#160;</text>
</g>
<!-- Red zone doctor&#45;&gt;Red zone doctor -->
<g id="edge37" class="edge">
<title>Red zone doctor&#45;&gt;Red zone doctor</title>
<path fill="none" stroke="black" stroke-width="1.23" d="M756.66,-29.98C767.22,-28.84 774.48,-26.18 774.48,-22 774.48,-19.32 771.5,-17.27 766.58,-15.84"/>
<polygon fill="black" stroke="black" stroke-width="1.23" points="767.12,-12.38 756.66,-14.02 765.86,-19.27 767.12,-12.38"/>
<text text-anchor="middle" x="794.98" y="-18.3" font-family="Sans Not-Rotated 14" font-size="14.00"> &#160;&#160;&#160;&#160;&#160;&#160;&#160;&#160;</text>
</g>
<!-- Red zone doctor&#45;&gt;Notification operator -->
<g id="edge23" class="edge">
<title>Red zone doctor&#45;&gt;Notification operator</title>
<path fill="none" stroke="black" stroke-width="1.01" d="M627.35,-28.52C585.33,-33.69 530.01,-43.53 483.98,-62 472.65,-66.55 472.2,-72.21 460.98,-77 442.06,-85.08 420.97,-91.46 400.72,-96.44"/>
<polygon fill="black" stroke="black" stroke-width="1.01" points="399.79,-93.06 390.86,-98.77 401.4,-99.87 399.79,-93.06"/>
<text text-anchor="middle" x="493.48" y="-65.8" font-family="Sans Not-Rotated 14" font-size="14.00"> &#160;&#160;&#160;</text>
</g>
<!-- Red zone doctor&#45;&gt;Yellow zone doctor -->
<g id="edge27" class="edge">
<title>Red zone doctor&#45;&gt;Yellow zone doctor</title>
<path fill="none" stroke="black" stroke-width="1.25" d="M627.28,-39.4C607.21,-45.44 585.3,-53.04 565.98,-62 514.31,-85.97 509.56,-106.84 457.98,-131 414.84,-151.21 364.12,-167.62 322.89,-179.25"/>
<polygon fill="black" stroke="black" stroke-width="1.25" points="321.86,-175.91 313.16,-181.96 323.74,-182.65 321.86,-175.91"/>
<text text-anchor="middle" x="533.48" y="-109.3" font-family="Sans Not-Rotated 14" font-size="14.00"> &#160;&#160;&#160;&#160;&#160;&#160;&#160;&#160;</text>
</g>
<!-- Notification operator&#45;&gt;Red zone operator -->
<g id="edge32" class="edge">
<title>Notification operator&#45;&gt;Red zone operator</title>
<path fill="none" stroke="black" stroke-width="1.35" d="M231.39,-126.79C161.87,-140.29 71.98,-164.43 71.98,-199 71.98,-375 71.98,-375 71.98,-375 71.98,-444.95 293.71,-458.27 418.73,-460.22"/>
<polygon fill="black" stroke="black" stroke-width="1.35" points="418.99,-463.72 429.03,-460.36 419.08,-456.72 418.99,-463.72"/>
<text text-anchor="middle" x="92.48" y="-283.3" font-family="Sans Not-Rotated 14" font-size="14.00"> &#160;&#160;&#160;&#160;&#160;&#160;&#160;&#160;</text>
</g>
<!-- Notification operator&#45;&gt;Red zone doctor FD -->
<g id="edge9" class="edge">
<title>Notification operator&#45;&gt;Red zone doctor FD</title>
<path fill="none" stroke="black" stroke-width="1.07" d="M238.37,-131.03C209.91,-141.26 179.47,-157.28 159.98,-182 117.03,-236.47 106.8,-288.09 154.98,-338 177.31,-361.14 255.98,-369.26 319.36,-371.98"/>
<polygon fill="black" stroke="black" stroke-width="1.07" points="319.27,-375.48 329.39,-372.37 319.54,-368.48 319.27,-375.48"/>
<text text-anchor="middle" x="138.48" y="-239.8" font-family="Sans Not-Rotated 14" font-size="14.00"> &#160;&#160;&#160;</text>
</g>
<!-- Notification operator&#45;&gt;Yellow zone doctor FD -->
<g id="edge12" class="edge">
<title>Notification operator&#45;&gt;Yellow zone doctor FD</title>
<path fill="none" stroke="black" stroke-width="1.29" d="M339.15,-131C346.69,-136.25 354.53,-142.41 360.98,-149 386.74,-175.36 375.53,-198.78 406.98,-218 466.91,-254.62 502.72,-201.64 563.98,-236 574.02,-241.63 582.36,-251.01 588.72,-260.13"/>
<polygon fill="black" stroke="black" stroke-width="1.29" points="585.85,-262.14 594.2,-268.66 591.74,-258.36 585.85,-262.14"/>
<text text-anchor="middle" x="427.48" y="-196.3" font-family="Sans Not-Rotated 14" font-size="14.00"> &#160;&#160;&#160;&#160;&#160;&#160;&#160;&#160;</text>
</g>
<!-- Notification operator&#45;&gt;Red zone doctor -->
<g id="edge33" class="edge">
<title>Notification operator&#45;&gt;Red zone doctor</title>
<path fill="none" stroke="black" stroke-width="1.13" d="M340.78,-94.8C361.28,-83.73 389.49,-69.97 415.98,-62 482.28,-42.04 560.7,-32.21 616.97,-27.42"/>
<polygon fill="black" stroke="black" stroke-width="1.13" points="617.53,-30.89 627.21,-26.58 616.96,-23.91 617.53,-30.89"/>
<text text-anchor="middle" x="436.48" y="-65.8" font-family="Sans Not-Rotated 14" font-size="14.00"> &#160;&#160;&#160;&#160;&#160;&#160;&#160;&#160;</text>
</g>
<!-- Notification operator&#45;&gt;Notification operator -->
<g id="edge38" class="edge">
<title>Notification operator&#45;&gt;Notification operator</title>
<path fill="none" stroke="black" stroke-width="2.05" d="M390.55,-119.99C401.31,-118.82 408.48,-116.49 408.48,-113 408.48,-110.77 405.54,-109.01 400.59,-107.72"/>
<polygon fill="black" stroke="black" stroke-width="2.05" points="400.99,-104.24 390.55,-106.01 399.82,-111.14 400.99,-104.24"/>
<text text-anchor="middle" x="428.98" y="-109.3" font-family="Sans Not-Rotated 14" font-size="14.00"> &#160;&#160;&#160;&#160;&#160;&#160;&#160;&#160;</text>
</g>
<!-- Notification operator&#45;&gt;Yellow zone doctor -->
<g id="edge26" class="edge">
<title>Notification operator&#45;&gt;Yellow zone doctor</title>
<path fill="none" stroke="black" stroke-width="1.67" d="M248.18,-131.22C240.6,-135.82 233.84,-141.64 228.98,-149 224.36,-155.99 225.03,-164.45 227.78,-172.41"/>
<polygon fill="black" stroke="black" stroke-width="1.67" points="224.66,-174.02 231.93,-181.73 231.06,-171.17 224.66,-174.02"/>
<text text-anchor="middle" x="249.48" y="-152.8" font-family="Sans Not-Rotated 14" font-size="14.00"> &#160;&#160;&#160;&#160;&#160;&#160;&#160;&#160;</text>
</g>
<!-- Notification operator&#45;&gt;end -->
<g id="edge29" class="edge">
<title>Notification operator&#45;&gt;end</title>
<path fill="none" stroke="black" stroke-dasharray="5,2" d="M310.98,-94.84C310.98,-83.44 310.98,-68.13 310.98,-54.58"/>
<polygon fill="black" stroke="black" points="314.48,-54.19 310.98,-44.19 307.48,-54.19 314.48,-54.19"/>
<text text-anchor="middle" x="331.48" y="-65.8" font-family="Sans Not-Rotated 14" font-size="14.00"> &#160;&#160;&#160;&#160;&#160;&#160;&#160;&#160;</text>
</g>
<!-- Yellow zone doctor&#45;&gt;Red zone operator -->
<g id="edge34" class="edge">
<title>Yellow zone doctor&#45;&gt;Red zone operator</title>
<path fill="none" stroke="black" stroke-width="1.19" d="M226.8,-218.38C203.19,-244.47 165.73,-295.26 184.98,-338 223.93,-424.5 339.1,-450.46 419.32,-457.81"/>
<polygon fill="black" stroke="black" stroke-width="1.19" points="419.16,-461.31 429.42,-458.66 419.74,-454.34 419.16,-461.31"/>
<text text-anchor="middle" x="205.48" y="-326.8" font-family="Sans Not-Rotated 14" font-size="14.00"> &#160;&#160;&#160;&#160;&#160;&#160;&#160;&#160;</text>
</g>
<!-- Yellow zone doctor&#45;&gt;Red zone doctor FD -->
<g id="edge8" class="edge">
<title>Yellow zone doctor&#45;&gt;Red zone doctor FD</title>
<path fill="none" stroke="black" stroke-width="1.26" d="M257.23,-218.35C265.15,-228.31 275.65,-240.81 285.98,-251 294.97,-259.88 298.74,-260.38 307.98,-269 335.49,-294.65 364.79,-326.4 384.11,-348.03"/>
<polygon fill="black" stroke="black" stroke-width="1.26" points="381.74,-350.63 391,-355.79 386.98,-345.98 381.74,-350.63"/>
<text text-anchor="middle" x="364.48" y="-283.3" font-family="Sans Not-Rotated 14" font-size="14.00"> &#160;&#160;&#160;&#160;&#160;&#160;&#160;&#160;</text>
</g>
<!-- Yellow zone doctor&#45;&gt;Yellow zone doctor FD -->
<g id="edge10" class="edge">
<title>Yellow zone doctor&#45;&gt;Yellow zone doctor FD</title>
<path fill="none" stroke="black" stroke-width="3.62" d="M318.89,-211.24C357.19,-217.16 404.39,-225.53 445.98,-236 466.42,-241.15 470.91,-244.52 490.98,-251 506.08,-255.88 522.37,-261.03 537.72,-265.84"/>
<polygon fill="black" stroke="black" stroke-width="3.62" points="537.06,-269.3 547.65,-268.94 539.15,-262.62 537.06,-269.3"/>
<text text-anchor="middle" x="527.48" y="-239.8" font-family="Sans Not-Rotated 14" font-size="14.00"> &#160;&#160;&#160;&#160;&#160;&#160;&#160;&#160;&#160;&#160;&#160;&#160;&#160;&#160;&#160;</text>
</g>
<!-- Yellow zone doctor&#45;&gt;Notification operator -->
<g id="edge21" class="edge">
<title>Yellow zone doctor&#45;&gt;Notification operator</title>
<path fill="none" stroke="black" stroke-width="1.35" d="M257.53,-181.8C267.16,-169.59 280.24,-152.99 291.05,-139.28"/>
<polygon fill="black" stroke="black" stroke-width="1.35" points="294,-141.2 297.44,-131.18 288.5,-136.86 294,-141.2"/>
<text text-anchor="middle" x="302.48" y="-152.8" font-family="Sans Not-Rotated 14" font-size="14.00"> &#160;&#160;&#160;&#160;&#160;&#160;&#160;&#160;</text>
</g>
<!-- start -->
<g id="node7" class="node">
<title>start</title>
<ellipse fill="#95d600" stroke="black" cx="748.98" cy="-557.3" rx="27.1" ry="27.1"/>
<text text-anchor="middle" x="748.98" y="-553.6" font-family="Sans Not-Rotated 14" font-size="14.00">start</text>
</g>
<!-- start&#45;&gt;Red zone operator -->
<g id="edge3" class="edge">
<title>start&#45;&gt;Red zone operator</title>
<path fill="none" stroke="black" stroke-dasharray="5,2" d="M723.47,-546.56C684.25,-531.59 608.23,-502.57 556.3,-482.74"/>
<polygon fill="black" stroke="black" points="557.49,-479.45 546.9,-479.15 554.99,-485.99 557.49,-479.45"/>
<text text-anchor="middle" x="652.48" y="-500.8" font-family="Sans Not-Rotated 14" font-size="14.00"> &#160;&#160;&#160;&#160;&#160;&#160;&#160;&#160;</text>
</g>
<!-- start&#45;&gt;Red zone doctor -->
<g id="edge18" class="edge">
<title>start&#45;&gt;Red zone doctor</title>
<path fill="none" stroke="black" stroke-dasharray="5,2" d="M775.91,-551.75C839.18,-540.31 991.98,-507.93 991.98,-462 991.98,-462 991.98,-462 991.98,-112 991.98,-65.12 855.61,-41 766.75,-30.26"/>
<polygon fill="black" stroke="black" points="767.04,-26.77 756.7,-29.07 766.23,-33.72 767.04,-26.77"/>
<text text-anchor="middle" x="1001.48" y="-283.3" font-family="Sans Not-Rotated 14" font-size="14.00"> &#160;&#160;&#160;</text>
</g>
</g>
</svg>
