<?xml version="1.0" encoding="UTF-8" standalone="no"?>
<!DOCTYPE svg PUBLIC "-//W3C//DTD SVG 1.1//EN"
 "http://www.w3.org/Graphics/SVG/1.1/DTD/svg11.dtd">
<!-- Generated by graphviz version 3.0.0 (20220226.1711)
 -->
<!-- Pages: 1 -->
<svg width="996pt" height="593pt"
 viewBox="0.00 0.00 996.00 592.60" xmlns="http://www.w3.org/2000/svg" xmlns:xlink="http://www.w3.org/1999/xlink">
<g id="graph0" class="graph" transform="scale(1 1) rotate(0) translate(4 588.6)">
<polygon fill="white" stroke="transparent" points="-4,4 -4,-588.6 992,-588.6 992,4 -4,4"/>
<!-- Red zone operator -->
<g id="node1" class="node">
<title>Red zone operator</title>
<polygon fill="#1d2559" stroke="black" points="760.5,-479 615.5,-479 615.5,-443 760.5,-443 760.5,-479"/>
<text text-anchor="middle" x="688" y="-457.3" font-family="Sans Not-Rotated 14" font-size="14.00" fill="white">Red zone operator</text>
</g>
<!-- Red zone operator&#45;&gt;Red zone operator -->
<g id="edge26" class="edge">
<title>Red zone operator&#45;&gt;Red zone operator</title>
<path fill="none" stroke="black" stroke-width="1.46" d="M760.79,-468.11C771.37,-466.98 778.5,-464.61 778.5,-461 778.5,-458.69 775.57,-456.88 770.69,-455.59"/>
<polygon fill="black" stroke="black" stroke-width="1.46" points="771.24,-452.13 760.79,-453.89 770.05,-459.03 771.24,-452.13"/>
<text text-anchor="middle" x="799" y="-457.3" font-family="Sans Not-Rotated 14" font-size="14.00"> &#160;&#160;&#160;&#160;&#160;&#160;&#160;&#160;</text>
</g>
<!-- Red zone doctor FD -->
<g id="node2" class="node">
<title>Red zone doctor FD</title>
<polygon fill="#1d2559" stroke="black" points="421.5,-392 268.5,-392 268.5,-356 421.5,-356 421.5,-392"/>
<text text-anchor="middle" x="345" y="-370.3" font-family="Sans Not-Rotated 14" font-size="14.00" fill="white">Red zone doctor FD</text>
</g>
<!-- Red zone operator&#45;&gt;Red zone doctor FD -->
<g id="edge6" class="edge">
<title>Red zone operator&#45;&gt;Red zone doctor FD</title>
<path fill="none" stroke="black" stroke-width="3.32" d="M615.16,-449.39C581.05,-443.6 540.07,-435.45 504,-425 486.56,-419.95 483.18,-415.86 466,-410 450.57,-404.74 433.87,-399.57 417.95,-394.89"/>
<polygon fill="black" stroke="black" stroke-width="3.32" points="418.73,-391.48 408.15,-392.05 416.78,-398.2 418.73,-391.48"/>
<text text-anchor="middle" x="540.5" y="-413.8" font-family="Sans Not-Rotated 14" font-size="14.00"> &#160;&#160;&#160;&#160;&#160;&#160;&#160;&#160;&#160;&#160;&#160;&#160;&#160;&#160;&#160;</text>
</g>
<!-- Red zone doctor -->
<g id="node4" class="node">
<title>Red zone doctor</title>
<polygon fill="#5661c6" stroke="black" points="473.5,-36 344.5,-36 344.5,0 473.5,0 473.5,-36"/>
<text text-anchor="middle" x="409" y="-14.3" font-family="Sans Not-Rotated 14" font-size="14.00" fill="white">Red zone doctor</text>
</g>
<!-- Red zone operator&#45;&gt;Red zone doctor -->
<g id="edge12" class="edge">
<title>Red zone operator&#45;&gt;Red zone doctor</title>
<path fill="none" stroke="black" stroke-width="5" d="M760.69,-456.49C815.4,-449.46 881,-429.64 881,-375 881,-375 881,-375 881,-108 881,-43.79 809.32,-69.46 747,-54 658.36,-32.01 553.33,-23.82 484.14,-20.78"/>
<polygon fill="black" stroke="black" stroke-width="5" points="483.95,-16.39 473.78,-20.35 483.59,-25.13 483.95,-16.39"/>
<text text-anchor="middle" x="917.5" y="-239.8" font-family="Sans Not-Rotated 14" font-size="14.00"> &#160;&#160;&#160;&#160;&#160;&#160;&#160;&#160;&#160;&#160;&#160;&#160;&#160;&#160;&#160;</text>
</g>
<!-- Yellow zone doctor -->
<g id="node6" class="node">
<title>Yellow zone doctor</title>
<polygon fill="#ffffff" stroke="black" points="483.5,-305 334.5,-305 334.5,-269 483.5,-269 483.5,-305"/>
<text text-anchor="middle" x="409" y="-283.3" font-family="Sans Not-Rotated 14" font-size="14.00">Yellow zone doctor</text>
</g>
<!-- Red zone operator&#45;&gt;Yellow zone doctor -->
<g id="edge22" class="edge">
<title>Red zone operator&#45;&gt;Yellow zone doctor</title>
<path fill="none" stroke="black" stroke-width="1.14" d="M661.07,-442.92C628.3,-422.19 571.27,-386.25 522,-356 496.96,-340.63 468.63,-323.58 446.6,-310.4"/>
<polygon fill="black" stroke="black" stroke-width="1.14" points="448.26,-307.31 437.88,-305.19 444.67,-313.32 448.26,-307.31"/>
<text text-anchor="middle" x="597.5" y="-370.3" font-family="Sans Not-Rotated 14" font-size="14.00"> &#160;&#160;&#160;&#160;&#160;&#160;&#160;&#160;</text>
</g>
<!-- Red zone doctor FD&#45;&gt;Red zone operator -->
<g id="edge2" class="edge">
<title>Red zone doctor FD&#45;&gt;Red zone operator</title>
<path fill="none" stroke="black" stroke-width="3.41" d="M356.72,-392.36C365.35,-403.65 378.13,-417.6 393,-425 429.1,-442.97 531.19,-452.05 605.17,-456.39"/>
<polygon fill="black" stroke="black" stroke-width="3.41" points="605.23,-459.9 615.41,-456.97 605.63,-452.91 605.23,-459.9"/>
<text text-anchor="middle" x="429.5" y="-413.8" font-family="Sans Not-Rotated 14" font-size="14.00"> &#160;&#160;&#160;&#160;&#160;&#160;&#160;&#160;&#160;&#160;&#160;&#160;&#160;&#160;&#160;</text>
</g>
<!-- Red zone doctor FD&#45;&gt;Red zone doctor FD -->
<g id="edge27" class="edge">
<title>Red zone doctor FD&#45;&gt;Red zone doctor FD</title>
<path fill="none" stroke="black" stroke-width="2.51" d="M421.75,-381.03C432.39,-379.87 439.5,-377.53 439.5,-374 439.5,-371.74 436.58,-369.97 431.69,-368.68"/>
<polygon fill="black" stroke="black" stroke-width="2.51" points="432.2,-365.22 421.75,-366.97 431.02,-372.12 432.2,-365.22"/>
<text text-anchor="middle" x="476" y="-370.3" font-family="Sans Not-Rotated 14" font-size="14.00"> &#160;&#160;&#160;&#160;&#160;&#160;&#160;&#160;&#160;&#160;&#160;&#160;&#160;&#160;&#160;</text>
</g>
<!-- Yellow zone doctor FD -->
<g id="node3" class="node">
<title>Yellow zone doctor FD</title>
<polygon fill="#ffffff" stroke="black" points="495.5,-127 322.5,-127 322.5,-91 495.5,-91 495.5,-127"/>
<text text-anchor="middle" x="409" y="-105.3" font-family="Sans Not-Rotated 14" font-size="14.00">Yellow zone doctor FD</text>
</g>
<!-- Red zone doctor FD&#45;&gt;Yellow zone doctor FD -->
<g id="edge10" class="edge">
<title>Red zone doctor FD&#45;&gt;Yellow zone doctor FD</title>
<path fill="none" stroke="black" stroke-width="1.43" d="M328.44,-355.78C308.42,-333.63 275.8,-292.99 263,-251 253.47,-219.72 240.71,-190.24 277,-149 286.68,-137.99 299.3,-130.02 312.9,-124.27"/>
<polygon fill="black" stroke="black" stroke-width="1.43" points="314.35,-127.46 322.44,-120.62 311.85,-120.92 314.35,-127.46"/>
<text text-anchor="middle" x="283.5" y="-239.8" font-family="Sans Not-Rotated 14" font-size="14.00"> &#160;&#160;&#160;&#160;&#160;&#160;&#160;&#160;</text>
</g>
<!-- Red zone doctor FD&#45;&gt;Red zone doctor -->
<g id="edge13" class="edge">
<title>Red zone doctor FD&#45;&gt;Red zone doctor</title>
<path fill="none" stroke="black" stroke-width="1.67" d="M268.38,-360.42C199.47,-346.87 109,-322.51 109,-288 109,-288 109,-288 109,-108 109,-61.12 245.37,-37 334.22,-26.26"/>
<polygon fill="black" stroke="black" stroke-width="1.67" points="334.75,-29.72 344.27,-25.07 333.93,-22.77 334.75,-29.72"/>
<text text-anchor="middle" x="129.5" y="-196.3" font-family="Sans Not-Rotated 14" font-size="14.00"> &#160;&#160;&#160;&#160;&#160;&#160;&#160;&#160;</text>
</g>
<!-- Notification operator -->
<g id="node5" class="node">
<title>Notification operator</title>
<polygon fill="#a09dde" stroke="black" points="659.5,-218 500.5,-218 500.5,-182 659.5,-182 659.5,-218"/>
<text text-anchor="middle" x="580" y="-196.3" font-family="Sans Not-Rotated 14" font-size="14.00">Notification operator</text>
</g>
<!-- Red zone doctor FD&#45;&gt;Notification operator -->
<g id="edge16" class="edge">
<title>Red zone doctor FD&#45;&gt;Notification operator</title>
<path fill="none" stroke="black" stroke-width="1.51" d="M397.08,-355.98C411.24,-350.77 426.42,-344.64 440,-338 496.62,-310.3 512.86,-300.4 552,-251 557.77,-243.71 563.06,-235.09 567.45,-227.07"/>
<polygon fill="black" stroke="black" stroke-width="1.51" points="570.63,-228.53 572.17,-218.05 564.43,-225.29 570.63,-228.53"/>
<text text-anchor="middle" x="556.5" y="-283.3" font-family="Sans Not-Rotated 14" font-size="14.00"> &#160;&#160;&#160;&#160;&#160;&#160;&#160;&#160;</text>
</g>
<!-- Red zone doctor FD&#45;&gt;Yellow zone doctor -->
<g id="edge18" class="edge">
<title>Red zone doctor FD&#45;&gt;Yellow zone doctor</title>
<path fill="none" stroke="black" stroke-width="2" d="M369.47,-355.82C375.74,-350.61 382.09,-344.52 387,-338 392.27,-331 396.6,-322.53 399.99,-314.58"/>
<polygon fill="black" stroke="black" stroke-width="2" points="403.25,-315.84 403.65,-305.26 396.74,-313.29 403.25,-315.84"/>
<text text-anchor="middle" x="415.5" y="-326.8" font-family="Sans Not-Rotated 14" font-size="14.00"> &#160;&#160;&#160;&#160;&#160;&#160;&#160;&#160;</text>
</g>
<!-- Yellow zone doctor FD&#45;&gt;Red zone operator -->
<g id="edge4" class="edge">
<title>Yellow zone doctor FD&#45;&gt;Red zone operator</title>
<path fill="none" stroke="black" stroke-width="1.63" d="M495.63,-123.59C585.28,-138.57 714.17,-163.05 728,-182 742.67,-202.1 708.51,-366.91 694.07,-432.87"/>
<polygon fill="black" stroke="black" stroke-width="1.63" points="690.58,-432.4 691.85,-442.92 697.42,-433.91 690.58,-432.4"/>
<text text-anchor="middle" x="745.5" y="-283.3" font-family="Sans Not-Rotated 14" font-size="14.00"> &#160;&#160;&#160;&#160;&#160;&#160;&#160;&#160;</text>
</g>
<!-- Yellow zone doctor FD&#45;&gt;Red zone doctor FD -->
<g id="edge7" class="edge">
<title>Yellow zone doctor FD&#45;&gt;Red zone doctor FD</title>
<path fill="none" stroke="black" stroke-width="1.26" d="M322.24,-118.94C274.6,-125.27 221.36,-135.12 202,-149 165.93,-174.86 164.26,-193.07 153,-236 140.24,-284.65 161.93,-307.61 202,-338 218.36,-350.41 238.54,-358.48 258.53,-363.71"/>
<polygon fill="black" stroke="black" stroke-width="1.26" points="257.77,-367.13 268.31,-366.05 259.4,-360.32 257.77,-367.13"/>
<text text-anchor="middle" x="173.5" y="-239.8" font-family="Sans Not-Rotated 14" font-size="14.00"> &#160;&#160;&#160;&#160;&#160;&#160;&#160;&#160;</text>
</g>
<!-- Yellow zone doctor FD&#45;&gt;Red zone doctor -->
<g id="edge14" class="edge">
<title>Yellow zone doctor FD&#45;&gt;Red zone doctor</title>
<path fill="none" stroke="black" stroke-width="1.21" d="M409,-90.84C409,-78.28 409,-60.98 409,-46.5"/>
<polygon fill="black" stroke="black" stroke-width="1.21" points="412.5,-46.11 409,-36.11 405.5,-46.11 412.5,-46.11"/>
<text text-anchor="middle" x="429.5" y="-57.8" font-family="Sans Not-Rotated 14" font-size="14.00"> &#160;&#160;&#160;&#160;&#160;&#160;&#160;&#160;</text>
</g>
<!-- Yellow zone doctor FD&#45;&gt;Notification operator -->
<g id="edge15" class="edge">
<title>Yellow zone doctor FD&#45;&gt;Notification operator</title>
<path fill="none" stroke="black" stroke-width="1.89" d="M446.9,-127.06C461.16,-133.67 477.44,-141.46 492,-149 508.82,-157.72 527.09,-167.96 542.6,-176.9"/>
<polygon fill="black" stroke="black" stroke-width="1.89" points="540.97,-180 551.38,-181.99 544.48,-173.95 540.97,-180"/>
<text text-anchor="middle" x="538.5" y="-152.8" font-family="Sans Not-Rotated 14" font-size="14.00"> &#160;&#160;&#160;&#160;&#160;&#160;&#160;&#160;</text>
</g>
<!-- Yellow zone doctor FD&#45;&gt;Yellow zone doctor -->
<g id="edge19" class="edge">
<title>Yellow zone doctor FD&#45;&gt;Yellow zone doctor</title>
<path fill="none" stroke="black" stroke-width="2.11" d="M409,-127.01C409,-157.57 409,-222.02 409,-258.78"/>
<polygon fill="black" stroke="black" stroke-width="2.11" points="405.5,-258.8 409,-268.8 412.5,-258.8 405.5,-258.8"/>
<text text-anchor="middle" x="445.5" y="-196.3" font-family="Sans Not-Rotated 14" font-size="14.00"> &#160;&#160;&#160;&#160;&#160;&#160;&#160;&#160;&#160;&#160;&#160;&#160;&#160;&#160;&#160;</text>
</g>
<!-- Red zone doctor&#45;&gt;Red zone operator -->
<g id="edge1" class="edge">
<title>Red zone doctor&#45;&gt;Red zone operator</title>
<path fill="none" stroke="black" stroke-width="3.44" d="M473.64,-21.11C581.14,-26.41 785,-44.78 785,-108 785,-375 785,-375 785,-375 785,-402.9 762.03,-423.77 738.44,-437.85"/>
<polygon fill="black" stroke="black" stroke-width="3.44" points="736.43,-434.97 729.42,-442.92 739.85,-441.07 736.43,-434.97"/>
<text text-anchor="middle" x="821.5" y="-239.8" font-family="Sans Not-Rotated 14" font-size="14.00"> &#160;&#160;&#160;&#160;&#160;&#160;&#160;&#160;&#160;&#160;&#160;&#160;&#160;&#160;&#160;</text>
</g>
<!-- Red zone doctor&#45;&gt;Red zone doctor FD -->
<g id="edge5" class="edge">
<title>Red zone doctor&#45;&gt;Red zone doctor FD</title>
<path fill="none" stroke="black" stroke-width="3.48" d="M344.19,-19.85C228.87,-23.14 0,-38.42 0,-108 0,-288 0,-288 0,-288 0,-341.13 156.22,-361.25 258.41,-368.72"/>
<polygon fill="black" stroke="black" stroke-width="3.48" points="258.21,-372.22 268.43,-369.43 258.7,-365.23 258.21,-372.22"/>
<text text-anchor="middle" x="36.5" y="-196.3" font-family="Sans Not-Rotated 14" font-size="14.00"> &#160;&#160;&#160;&#160;&#160;&#160;&#160;&#160;&#160;&#160;&#160;&#160;&#160;&#160;&#160;</text>
</g>
<!-- Red zone doctor&#45;&gt;Red zone doctor -->
<g id="edge28" class="edge">
<title>Red zone doctor&#45;&gt;Red zone doctor</title>
<path fill="none" stroke="black" stroke-width="1.18" d="M473.68,-25.29C484.24,-24.24 491.5,-21.81 491.5,-18 491.5,-15.56 488.52,-13.68 483.6,-12.38"/>
<polygon fill="black" stroke="black" stroke-width="1.18" points="484.12,-8.91 473.68,-10.71 482.96,-15.82 484.12,-8.91"/>
<text text-anchor="middle" x="512" y="-14.3" font-family="Sans Not-Rotated 14" font-size="14.00"> &#160;&#160;&#160;&#160;&#160;&#160;&#160;&#160;</text>
</g>
<!-- Red zone doctor&#45;&gt;Yellow zone doctor -->
<g id="edge21" class="edge">
<title>Red zone doctor&#45;&gt;Yellow zone doctor</title>
<path fill="none" stroke="black" stroke-width="1.2" d="M376.87,-36.11C356.54,-48.2 330.82,-65.96 313,-87 293.22,-110.36 289.84,-119.16 283,-149 272.12,-196.46 287.07,-218.14 323,-251 328.48,-256.01 334.77,-260.35 341.41,-264.1"/>
<polygon fill="black" stroke="black" stroke-width="1.2" points="340.13,-267.38 350.62,-268.86 343.34,-261.16 340.13,-267.38"/>
<text text-anchor="middle" x="303.5" y="-152.8" font-family="Sans Not-Rotated 14" font-size="14.00"> &#160;&#160;&#160;&#160;&#160;&#160;&#160;&#160;</text>
</g>
<!-- Notification operator&#45;&gt;Red zone operator -->
<g id="edge24" class="edge">
<title>Notification operator&#45;&gt;Red zone operator</title>
<path fill="none" stroke="black" stroke-width="1.3" d="M587.22,-218.32C605.67,-262.56 654.63,-379.98 676.81,-433.16"/>
<polygon fill="black" stroke="black" stroke-width="1.3" points="673.67,-434.72 680.75,-442.6 680.13,-432.03 673.67,-434.72"/>
<text text-anchor="middle" x="656.5" y="-326.8" font-family="Sans Not-Rotated 14" font-size="14.00"> &#160;&#160;&#160;&#160;&#160;&#160;&#160;&#160;</text>
</g>
<!-- Notification operator&#45;&gt;Yellow zone doctor FD -->
<g id="edge11" class="edge">
<title>Notification operator&#45;&gt;Yellow zone doctor FD</title>
<path fill="none" stroke="black" stroke-width="1.24" d="M500.47,-186.02C483.24,-180.92 465.78,-173.84 451,-164 440.14,-156.77 430.87,-145.81 423.82,-135.64"/>
<polygon fill="black" stroke="black" stroke-width="1.24" points="426.6,-133.5 418.22,-127.03 420.74,-137.32 426.6,-133.5"/>
<text text-anchor="middle" x="471.5" y="-152.8" font-family="Sans Not-Rotated 14" font-size="14.00"> &#160;&#160;&#160;&#160;&#160;&#160;&#160;&#160;</text>
</g>
<!-- Notification operator&#45;&gt;Notification operator -->
<g id="edge29" class="edge">
<title>Notification operator&#45;&gt;Notification operator</title>
<path fill="none" stroke="black" stroke-width="2.01" d="M659.57,-206.99C670.33,-205.82 677.5,-203.49 677.5,-200 677.5,-197.77 674.56,-196.01 669.62,-194.72"/>
<polygon fill="black" stroke="black" stroke-width="2.01" points="670.02,-191.24 659.57,-193.01 668.84,-198.14 670.02,-191.24"/>
<text text-anchor="middle" x="698" y="-196.3" font-family="Sans Not-Rotated 14" font-size="14.00"> &#160;&#160;&#160;&#160;&#160;&#160;&#160;&#160;</text>
</g>
<!-- Notification operator&#45;&gt;Yellow zone doctor -->
<g id="edge20" class="edge">
<title>Notification operator&#45;&gt;Yellow zone doctor</title>
<path fill="none" stroke="black" stroke-width="1.62" d="M544.93,-218.03C533.96,-223.56 521.88,-229.86 511,-236 500.05,-242.18 498.1,-245.08 487,-251 478.16,-255.72 468.56,-260.38 459.21,-264.69"/>
<polygon fill="black" stroke="black" stroke-width="1.62" points="457.65,-261.55 449.99,-268.87 460.54,-267.93 457.65,-261.55"/>
<text text-anchor="middle" x="531.5" y="-239.8" font-family="Sans Not-Rotated 14" font-size="14.00"> &#160;&#160;&#160;&#160;&#160;&#160;&#160;&#160;</text>
</g>
<!-- end -->
<g id="node8" class="node">
<title>end</title>
<ellipse fill="#ea4126" stroke="black" cx="580" cy="-109" rx="18" ry="18"/>
<ellipse fill="none" stroke="black" cx="580" cy="-109" rx="22" ry="22"/>
</g>
<!-- Notification operator&#45;&gt;end -->
<g id="edge23" class="edge">
<title>Notification operator&#45;&gt;end</title>
<path fill="none" stroke="black" stroke-dasharray="5,2" d="M580,-181.84C580,-170.44 580,-155.13 580,-141.58"/>
<polygon fill="black" stroke="black" points="583.5,-141.19 580,-131.19 576.5,-141.19 583.5,-141.19"/>
<text text-anchor="middle" x="600.5" y="-152.8" font-family="Sans Not-Rotated 14" font-size="14.00"> &#160;&#160;&#160;&#160;&#160;&#160;&#160;&#160;</text>
</g>
<!-- Yellow zone doctor&#45;&gt;Red zone doctor FD -->
<g id="edge8" class="edge">
<title>Yellow zone doctor&#45;&gt;Red zone doctor FD</title>
<path fill="none" stroke="black" stroke-width="1.21" d="M364.07,-305.11C356.89,-309.82 350.39,-315.71 346,-323 342,-329.65 340.67,-337.75 340.63,-345.48"/>
<polygon fill="black" stroke="black" stroke-width="1.21" points="337.15,-345.85 341.26,-355.61 344.14,-345.42 337.15,-345.85"/>
<text text-anchor="middle" x="366.5" y="-326.8" font-family="Sans Not-Rotated 14" font-size="14.00"> &#160;&#160;&#160;&#160;&#160;&#160;&#160;&#160;</text>
</g>
<!-- Yellow zone doctor&#45;&gt;Yellow zone doctor FD -->
<g id="edge9" class="edge">
<title>Yellow zone doctor&#45;&gt;Yellow zone doctor FD</title>
<path fill="none" stroke="black" stroke-width="3.6" d="M369.42,-268.79C348.88,-257.56 325.68,-240.73 314,-218 296.66,-184.26 333.36,-152.53 366.06,-132.31"/>
<polygon fill="black" stroke="black" stroke-width="3.6" points="367.89,-135.29 374.69,-127.17 364.31,-129.28 367.89,-135.29"/>
<text text-anchor="middle" x="350.5" y="-196.3" font-family="Sans Not-Rotated 14" font-size="14.00"> &#160;&#160;&#160;&#160;&#160;&#160;&#160;&#160;&#160;&#160;&#160;&#160;&#160;&#160;&#160;</text>
</g>
<!-- Yellow zone doctor&#45;&gt;Notification operator -->
<g id="edge17" class="edge">
<title>Yellow zone doctor&#45;&gt;Notification operator</title>
<path fill="none" stroke="black" stroke-width="1.3" d="M417.75,-268.76C424.15,-257.82 433.83,-244.23 446,-236 454.26,-230.41 471.25,-224.77 490.43,-219.69"/>
<polygon fill="black" stroke="black" stroke-width="1.3" points="491.49,-223.04 500.32,-217.17 489.76,-216.25 491.49,-223.04"/>
<text text-anchor="middle" x="466.5" y="-239.8" font-family="Sans Not-Rotated 14" font-size="14.00"> &#160;&#160;&#160;&#160;&#160;&#160;&#160;&#160;</text>
</g>
<!-- start -->
<g id="node7" class="node">
<title>start</title>
<ellipse fill="#95d600" stroke="black" cx="843" cy="-557.3" rx="27.1" ry="27.1"/>
<text text-anchor="middle" x="843" y="-553.6" font-family="Sans Not-Rotated 14" font-size="14.00">start</text>
</g>
<!-- start&#45;&gt;Red zone operator -->
<g id="edge3" class="edge">
<title>start&#45;&gt;Red zone operator</title>
<path fill="none" stroke="black" stroke-dasharray="5,2" d="M820.13,-542.38C795.02,-527.11 754.35,-502.36 724.75,-484.36"/>
<polygon fill="black" stroke="black" points="726.32,-481.21 715.95,-479.01 722.68,-487.19 726.32,-481.21"/>
<text text-anchor="middle" x="790.5" y="-500.8" font-family="Sans Not-Rotated 14" font-size="14.00"> &#160;&#160;&#160;&#160;&#160;&#160;&#160;&#160;</text>
</g>
<!-- start&#45;&gt;Red zone doctor -->
<g id="edge25" class="edge">
<title>start&#45;&gt;Red zone doctor</title>
<path fill="none" stroke="black" stroke-dasharray="5,2" d="M869.41,-549.4C906.36,-537.97 969,-511.32 969,-462 969,-462 969,-462 969,-108 969,-36.31 887.06,-69.19 817,-54 702.45,-29.17 566.21,-21.8 483.74,-19.71"/>
<polygon fill="black" stroke="black" points="483.79,-16.21 473.71,-19.47 483.62,-23.21 483.79,-16.21"/>
<text text-anchor="middle" x="978.5" y="-283.3" font-family="Sans Not-Rotated 14" font-size="14.00"> &#160;&#160;&#160;</text>
</g>
</g>
</svg>
