<?xml version="1.0" encoding="UTF-8" standalone="no"?>
<!DOCTYPE svg PUBLIC "-//W3C//DTD SVG 1.1//EN"
 "http://www.w3.org/Graphics/SVG/1.1/DTD/svg11.dtd">
<!-- Generated by graphviz version 3.0.0 (20220226.1711)
 -->
<!-- Pages: 1 -->
<svg width="627pt" height="593pt"
 viewBox="0.00 0.00 627.48 592.60" xmlns="http://www.w3.org/2000/svg" xmlns:xlink="http://www.w3.org/1999/xlink">
<g id="graph0" class="graph" transform="scale(1 1) rotate(0) translate(4 588.6)">
<polygon fill="white" stroke="transparent" points="-4,4 -4,-588.6 623.48,-588.6 623.48,4 -4,4"/>
<!-- Red zone operator -->
<g id="node1" class="node">
<title>Red zone operator</title>
<polygon fill="#1d2559" stroke="black" points="438.98,-479 293.98,-479 293.98,-443 438.98,-443 438.98,-479"/>
<text text-anchor="middle" x="366.48" y="-457.3" font-family="Sans Not-Rotated 14" font-size="14.00" fill="white">Red zone operator</text>
</g>
<!-- Red zone operator&#45;&gt;Red zone operator -->
<g id="edge21" class="edge">
<title>Red zone operator&#45;&gt;Red zone operator</title>
<path fill="none" stroke="black" stroke-width="1.41" d="M439.27,-468.11C449.85,-466.98 456.98,-464.61 456.98,-461 456.98,-458.69 454.05,-456.88 449.17,-455.59"/>
<polygon fill="black" stroke="black" stroke-width="1.41" points="449.72,-452.13 439.27,-453.89 448.53,-459.03 449.72,-452.13"/>
<text text-anchor="middle" x="477.48" y="-457.3" font-family="Sans Not-Rotated 14" font-size="14.00"> &#160;&#160;&#160;&#160;&#160;&#160;&#160;&#160;</text>
</g>
<!-- Red zone doctor FD -->
<g id="node2" class="node">
<title>Red zone doctor FD</title>
<polygon fill="#1d2559" stroke="black" points="184.98,-392 31.98,-392 31.98,-356 184.98,-356 184.98,-392"/>
<text text-anchor="middle" x="108.48" y="-370.3" font-family="Sans Not-Rotated 14" font-size="14.00" fill="white">Red zone doctor FD</text>
</g>
<!-- Red zone operator&#45;&gt;Red zone doctor FD -->
<g id="edge5" class="edge">
<title>Red zone operator&#45;&gt;Red zone doctor FD</title>
<path fill="none" stroke="black" stroke-width="3.29" d="M293.69,-459.61C227.88,-457.6 137.7,-450.15 113.48,-425 107.69,-418.99 105.53,-410.49 105.1,-402.21"/>
<polygon fill="black" stroke="black" stroke-width="3.29" points="108.6,-402.1 105.32,-392.03 101.6,-401.95 108.6,-402.1"/>
<text text-anchor="middle" x="149.98" y="-413.8" font-family="Sans Not-Rotated 14" font-size="14.00"> &#160;&#160;&#160;&#160;&#160;&#160;&#160;&#160;&#160;&#160;&#160;&#160;&#160;&#160;&#160;</text>
</g>
<!-- Red zone doctor -->
<g id="node4" class="node">
<title>Red zone doctor</title>
<polygon fill="#5661c6" stroke="black" points="430.98,-305 301.98,-305 301.98,-269 430.98,-269 430.98,-305"/>
<text text-anchor="middle" x="366.48" y="-283.3" font-family="Sans Not-Rotated 14" font-size="14.00" fill="white">Red zone doctor</text>
</g>
<!-- Red zone operator&#45;&gt;Red zone doctor -->
<g id="edge8" class="edge">
<title>Red zone operator&#45;&gt;Red zone doctor</title>
<path fill="none" stroke="black" stroke-width="5" d="M347.28,-442.77C334.71,-430.13 319.38,-411.79 312.48,-392 307.21,-376.89 307.21,-371.11 312.48,-356 318.14,-339.77 329.47,-324.51 340.3,-312.57"/>
<polygon fill="black" stroke="black" stroke-width="5" points="343.56,-315.49 347.28,-305.23 337.22,-309.46 343.56,-315.49"/>
<text text-anchor="middle" x="348.98" y="-370.3" font-family="Sans Not-Rotated 14" font-size="14.00"> &#160;&#160;&#160;&#160;&#160;&#160;&#160;&#160;&#160;&#160;&#160;&#160;&#160;&#160;&#160;</text>
</g>
<!-- Red zone doctor FD&#45;&gt;Red zone operator -->
<g id="edge2" class="edge">
<title>Red zone doctor FD&#45;&gt;Red zone operator</title>
<path fill="none" stroke="black" stroke-width="3.39" d="M148.52,-392.08C161.87,-397.77 176.82,-404.16 190.48,-410 206.04,-416.66 209.44,-419.61 225.48,-425 244.19,-431.29 264.65,-437 284.03,-441.91"/>
<polygon fill="black" stroke="black" stroke-width="3.39" points="283.19,-445.31 293.74,-444.32 284.88,-438.51 283.19,-445.31"/>
<text text-anchor="middle" x="261.98" y="-413.8" font-family="Sans Not-Rotated 14" font-size="14.00"> &#160;&#160;&#160;&#160;&#160;&#160;&#160;&#160;&#160;&#160;&#160;&#160;&#160;&#160;&#160;</text>
</g>
<!-- Red zone doctor FD&#45;&gt;Red zone doctor FD -->
<g id="edge22" class="edge">
<title>Red zone doctor FD&#45;&gt;Red zone doctor FD</title>
<path fill="none" stroke="black" stroke-width="2.47" d="M185.23,-381.03C195.87,-379.87 202.98,-377.53 202.98,-374 202.98,-371.74 200.06,-369.97 195.17,-368.68"/>
<polygon fill="black" stroke="black" stroke-width="2.47" points="195.68,-365.22 185.23,-366.97 194.5,-372.12 195.68,-365.22"/>
<text text-anchor="middle" x="239.48" y="-370.3" font-family="Sans Not-Rotated 14" font-size="14.00"> &#160;&#160;&#160;&#160;&#160;&#160;&#160;&#160;&#160;&#160;&#160;&#160;&#160;&#160;&#160;</text>
</g>
<!-- Yellow zone doctor FD -->
<g id="node3" class="node">
<title>Yellow zone doctor FD</title>
<polygon fill="#ffffff" stroke="black" points="255.98,-218 82.98,-218 82.98,-182 255.98,-182 255.98,-218"/>
<text text-anchor="middle" x="169.48" y="-196.3" font-family="Sans Not-Rotated 14" font-size="14.00">Yellow zone doctor FD</text>
</g>
<!-- Red zone doctor FD&#45;&gt;Yellow zone doctor FD -->
<g id="edge7" class="edge">
<title>Red zone doctor FD&#45;&gt;Yellow zone doctor FD</title>
<path fill="none" stroke="black" stroke-width="1.38" d="M99.42,-355.98C89.6,-335.31 76.35,-299.43 84.48,-269 88.85,-252.65 91.31,-247.76 103.48,-236 108.37,-231.28 114.02,-227.02 119.92,-223.24"/>
<polygon fill="black" stroke="black" stroke-width="1.38" points="121.87,-226.15 128.68,-218.04 118.3,-220.14 121.87,-226.15"/>
<text text-anchor="middle" x="104.98" y="-283.3" font-family="Sans Not-Rotated 14" font-size="14.00"> &#160;&#160;&#160;&#160;&#160;&#160;&#160;&#160;</text>
</g>
<!-- Red zone doctor FD&#45;&gt;Red zone doctor -->
<g id="edge16" class="edge">
<title>Red zone doctor FD&#45;&gt;Red zone doctor</title>
<path fill="none" stroke="black" stroke-width="1.61" d="M129.24,-355.77C146.44,-341.52 168.27,-323.53 169.48,-323 217.25,-301.9 236.1,-313.72 291.9,-304.89"/>
<polygon fill="black" stroke="black" stroke-width="1.61" points="292.72,-308.3 301.97,-303.14 291.52,-301.4 292.72,-308.3"/>
<text text-anchor="middle" x="189.98" y="-326.8" font-family="Sans Not-Rotated 14" font-size="14.00"> &#160;&#160;&#160;&#160;&#160;&#160;&#160;&#160;</text>
</g>
<!-- Notification operator -->
<g id="node5" class="node">
<title>Notification operator</title>
<polygon fill="#a09dde" stroke="black" points="343.98,-131 184.98,-131 184.98,-95 343.98,-95 343.98,-131"/>
<text text-anchor="middle" x="264.48" y="-109.3" font-family="Sans Not-Rotated 14" font-size="14.00">Notification operator</text>
</g>
<!-- Red zone doctor FD&#45;&gt;Notification operator -->
<g id="edge10" class="edge">
<title>Red zone doctor FD&#45;&gt;Notification operator</title>
<path fill="none" stroke="black" stroke-width="1.46" d="M68.86,-355.86C60.44,-350.95 52.1,-345 45.48,-338 12.24,-302.85 -13.24,-279.72 7.48,-236 37.54,-172.56 113.46,-141.95 175.03,-127.28"/>
<polygon fill="black" stroke="black" stroke-width="1.46" points="175.81,-130.7 184.78,-125.06 174.26,-123.87 175.81,-130.7"/>
<text text-anchor="middle" x="27.98" y="-239.8" font-family="Sans Not-Rotated 14" font-size="14.00"> &#160;&#160;&#160;&#160;&#160;&#160;&#160;&#160;</text>
</g>
<!-- Yellow zone doctor -->
<g id="node6" class="node">
<title>Yellow zone doctor</title>
<polygon fill="#ffffff" stroke="black" points="283.98,-305 134.98,-305 134.98,-269 283.98,-269 283.98,-305"/>
<text text-anchor="middle" x="209.48" y="-283.3" font-family="Sans Not-Rotated 14" font-size="14.00">Yellow zone doctor</text>
</g>
<!-- Red zone doctor FD&#45;&gt;Yellow zone doctor -->
<g id="edge12" class="edge">
<title>Red zone doctor FD&#45;&gt;Yellow zone doctor</title>
<path fill="none" stroke="black" stroke-width="1.95" d="M104.22,-355.7C102.7,-345.28 102.76,-332.28 109.48,-323 113.93,-316.86 119.55,-311.78 125.83,-307.6"/>
<polygon fill="black" stroke="black" stroke-width="1.95" points="127.87,-310.46 134.77,-302.42 124.36,-304.4 127.87,-310.46"/>
<text text-anchor="middle" x="129.98" y="-326.8" font-family="Sans Not-Rotated 14" font-size="14.00"> &#160;&#160;&#160;&#160;&#160;&#160;&#160;&#160;</text>
</g>
<!-- Yellow zone doctor FD&#45;&gt;Red zone operator -->
<g id="edge17" class="edge">
<title>Yellow zone doctor FD&#45;&gt;Red zone operator</title>
<path fill="none" stroke="black" stroke-width="1.58" d="M253.85,-218C327.8,-233.59 425.61,-256.14 439.48,-269 444.21,-273.39 487.5,-356.46 468.48,-392 457.73,-412.09 438.14,-427.26 418.97,-438.13"/>
<polygon fill="black" stroke="black" stroke-width="1.58" points="417.1,-435.16 409.94,-442.97 420.41,-441.33 417.1,-435.16"/>
<text text-anchor="middle" x="489.98" y="-326.8" font-family="Sans Not-Rotated 14" font-size="14.00"> &#160;&#160;&#160;&#160;&#160;&#160;&#160;&#160;</text>
</g>
<!-- Yellow zone doctor FD&#45;&gt;Red zone doctor FD -->
<g id="edge18" class="edge">
<title>Yellow zone doctor FD&#45;&gt;Red zone doctor FD</title>
<path fill="none" stroke="black" stroke-width="1.2" d="M102.06,-218.04C76.7,-228.26 50.8,-244.26 37.48,-269 21.87,-298.01 49.24,-328.9 74.4,-349.41"/>
<polygon fill="black" stroke="black" stroke-width="1.2" points="72.39,-352.29 82.43,-355.69 76.7,-346.77 72.39,-352.29"/>
<text text-anchor="middle" x="57.98" y="-283.3" font-family="Sans Not-Rotated 14" font-size="14.00"> &#160;&#160;&#160;&#160;&#160;&#160;&#160;&#160;</text>
</g>
<!-- Yellow zone doctor FD&#45;&gt;Notification operator -->
<g id="edge9" class="edge">
<title>Yellow zone doctor FD&#45;&gt;Notification operator</title>
<path fill="none" stroke="black" stroke-width="1.84" d="M166.13,-181.68C165.1,-171.26 165.68,-158.25 172.48,-149 175.89,-144.35 180.01,-140.32 184.58,-136.83"/>
<polygon fill="black" stroke="black" stroke-width="1.84" points="186.83,-139.53 193.24,-131.09 182.97,-133.69 186.83,-139.53"/>
<text text-anchor="middle" x="192.98" y="-152.8" font-family="Sans Not-Rotated 14" font-size="14.00"> &#160;&#160;&#160;&#160;&#160;&#160;&#160;&#160;</text>
</g>
<!-- Yellow zone doctor FD&#45;&gt;Yellow zone doctor -->
<g id="edge13" class="edge">
<title>Yellow zone doctor FD&#45;&gt;Yellow zone doctor</title>
<path fill="none" stroke="black" stroke-width="2.06" d="M127.78,-218.1C112.76,-226.82 101.49,-238.28 110.48,-251 114.75,-257.04 120.15,-262.04 126.22,-266.19"/>
<polygon fill="black" stroke="black" stroke-width="2.06" points="124.48,-269.22 134.86,-271.32 128.05,-263.2 124.48,-269.22"/>
<text text-anchor="middle" x="146.98" y="-239.8" font-family="Sans Not-Rotated 14" font-size="14.00"> &#160;&#160;&#160;&#160;&#160;&#160;&#160;&#160;&#160;&#160;&#160;&#160;&#160;&#160;&#160;</text>
</g>
<!-- Red zone doctor&#45;&gt;Red zone operator -->
<g id="edge1" class="edge">
<title>Red zone doctor&#45;&gt;Red zone operator</title>
<path fill="none" stroke="black" stroke-width="3.42" d="M374.05,-305.21C379.56,-318.72 386.55,-338.17 389.48,-356 392.08,-371.79 392.08,-376.21 389.48,-392 387.19,-405.93 382.42,-420.85 377.82,-433.15"/>
<polygon fill="black" stroke="black" stroke-width="3.42" points="374.43,-432.2 374.05,-442.79 380.95,-434.75 374.43,-432.2"/>
<text text-anchor="middle" x="427.98" y="-370.3" font-family="Sans Not-Rotated 14" font-size="14.00"> &#160;&#160;&#160;&#160;&#160;&#160;&#160;&#160;&#160;&#160;&#160;&#160;&#160;&#160;&#160;</text>
</g>
<!-- Red zone doctor&#45;&gt;Red zone doctor FD -->
<g id="edge4" class="edge">
<title>Red zone doctor&#45;&gt;Red zone doctor FD</title>
<path fill="none" stroke="black" stroke-width="3.46" d="M301.89,-303.54C275.98,-310.19 249.44,-317.64 237.48,-323 226.34,-327.99 225.48,-332.71 214.48,-338 203.25,-343.4 190.97,-348.3 178.88,-352.6"/>
<polygon fill="black" stroke="black" stroke-width="3.46" points="177.56,-349.36 169.25,-355.93 179.85,-355.97 177.56,-349.36"/>
<text text-anchor="middle" x="273.98" y="-326.8" font-family="Sans Not-Rotated 14" font-size="14.00"> &#160;&#160;&#160;&#160;&#160;&#160;&#160;&#160;&#160;&#160;&#160;&#160;&#160;&#160;&#160;</text>
</g>
<!-- Notification operator&#45;&gt;Red zone operator -->
<g id="edge20" class="edge">
<title>Notification operator&#45;&gt;Red zone operator</title>
<path fill="none" stroke="black" stroke-width="1.24" d="M344.12,-119.8C437.15,-128.82 578.48,-150.5 578.48,-199 578.48,-375 578.48,-375 578.48,-375 578.48,-433.2 508.81,-452.6 449.34,-458.57"/>
<polygon fill="black" stroke="black" stroke-width="1.24" points="448.79,-455.1 439.14,-459.47 449.41,-462.07 448.79,-455.1"/>
<text text-anchor="middle" x="598.98" y="-283.3" font-family="Sans Not-Rotated 14" font-size="14.00"> &#160;&#160;&#160;&#160;&#160;&#160;&#160;&#160;</text>
</g>
<!-- Notification operator&#45;&gt;Yellow zone doctor FD -->
<g id="edge19" class="edge">
<title>Notification operator&#45;&gt;Yellow zone doctor FD</title>
<path fill="none" stroke="black" stroke-width="1.18" d="M247.9,-131.12C238.12,-140.99 225.37,-153.49 213.48,-164 209.08,-167.89 204.31,-171.89 199.59,-175.73"/>
<polygon fill="black" stroke="black" stroke-width="1.18" points="197.39,-173.01 191.78,-181.99 201.77,-178.47 197.39,-173.01"/>
<text text-anchor="middle" x="249.98" y="-152.8" font-family="Sans Not-Rotated 14" font-size="14.00"> &#160;&#160;&#160;&#160;&#160;&#160;&#160;&#160;</text>
</g>
<!-- Notification operator&#45;&gt;Notification operator -->
<g id="edge23" class="edge">
<title>Notification operator&#45;&gt;Notification operator</title>
<path fill="none" stroke="black" stroke-width="1.96" d="M344.05,-119.99C354.81,-118.82 361.98,-116.49 361.98,-113 361.98,-110.77 359.04,-109.01 354.1,-107.72"/>
<polygon fill="black" stroke="black" stroke-width="1.96" points="354.5,-104.24 344.05,-106.01 353.32,-111.14 354.5,-104.24"/>
<text text-anchor="middle" x="382.48" y="-109.3" font-family="Sans Not-Rotated 14" font-size="14.00"> &#160;&#160;&#160;&#160;&#160;&#160;&#160;&#160;</text>
</g>
<!-- Notification operator&#45;&gt;Yellow zone doctor -->
<g id="edge14" class="edge">
<title>Notification operator&#45;&gt;Yellow zone doctor</title>
<path fill="none" stroke="black" stroke-width="1.57" d="M287.06,-131.05C310.74,-151.16 342.6,-185.92 327.48,-218 317.47,-239.24 297.47,-254.23 276.73,-264.63"/>
<polygon fill="black" stroke="black" stroke-width="1.57" points="275.08,-261.54 267.51,-268.95 278.05,-267.88 275.08,-261.54"/>
<text text-anchor="middle" x="351.98" y="-196.3" font-family="Sans Not-Rotated 14" font-size="14.00"> &#160;&#160;&#160;&#160;&#160;&#160;&#160;&#160;</text>
</g>
<!-- end -->
<g id="node8" class="node">
<title>end</title>
<ellipse fill="#ea4126" stroke="black" cx="264.48" cy="-22" rx="18" ry="18"/>
<ellipse fill="none" stroke="black" cx="264.48" cy="-22" rx="22" ry="22"/>
</g>
<!-- Notification operator&#45;&gt;end -->
<g id="edge15" class="edge">
<title>Notification operator&#45;&gt;end</title>
<path fill="none" stroke="black" stroke-dasharray="5,2" d="M264.48,-94.84C264.48,-83.44 264.48,-68.13 264.48,-54.58"/>
<polygon fill="black" stroke="black" points="267.98,-54.19 264.48,-44.19 260.98,-54.19 267.98,-54.19"/>
<text text-anchor="middle" x="284.98" y="-65.8" font-family="Sans Not-Rotated 14" font-size="14.00"> &#160;&#160;&#160;&#160;&#160;&#160;&#160;&#160;</text>
</g>
<!-- Yellow zone doctor&#45;&gt;Yellow zone doctor FD -->
<g id="edge6" class="edge">
<title>Yellow zone doctor&#45;&gt;Yellow zone doctor FD</title>
<path fill="none" stroke="black" stroke-width="3.58" d="M201.39,-268.8C195.8,-256.93 188.27,-240.93 181.93,-227.45"/>
<polygon fill="black" stroke="black" stroke-width="3.58" points="184.99,-225.73 177.56,-218.18 178.65,-228.71 184.99,-225.73"/>
<text text-anchor="middle" x="228.98" y="-239.8" font-family="Sans Not-Rotated 14" font-size="14.00"> &#160;&#160;&#160;&#160;&#160;&#160;&#160;&#160;&#160;&#160;&#160;&#160;&#160;&#160;&#160;</text>
</g>
<!-- Yellow zone doctor&#45;&gt;Notification operator -->
<g id="edge11" class="edge">
<title>Yellow zone doctor&#45;&gt;Notification operator</title>
<path fill="none" stroke="black" stroke-width="1.24" d="M251.49,-268.82C258.58,-264.07 265.07,-258.2 269.48,-251 289.98,-217.57 282.02,-170.42 273.74,-141.06"/>
<polygon fill="black" stroke="black" stroke-width="1.24" points="276.98,-139.66 270.73,-131.11 270.28,-141.69 276.98,-139.66"/>
<text text-anchor="middle" x="302.98" y="-196.3" font-family="Sans Not-Rotated 14" font-size="14.00"> &#160;&#160;&#160;&#160;&#160;&#160;&#160;&#160;</text>
</g>
<!-- start -->
<g id="node7" class="node">
<title>start</title>
<ellipse fill="#95d600" stroke="black" cx="366.48" cy="-557.3" rx="27.1" ry="27.1"/>
<text text-anchor="middle" x="366.48" y="-553.6" font-family="Sans Not-Rotated 14" font-size="14.00">start</text>
</g>
<!-- start&#45;&gt;Red zone operator -->
<g id="edge3" class="edge">
<title>start&#45;&gt;Red zone operator</title>
<path fill="none" stroke="black" stroke-dasharray="5,2" d="M366.48,-529.78C366.48,-517.1 366.48,-501.93 366.48,-489.17"/>
<polygon fill="black" stroke="black" points="369.98,-489.12 366.48,-479.12 362.98,-489.12 369.98,-489.12"/>
<text text-anchor="middle" x="386.98" y="-500.8" font-family="Sans Not-Rotated 14" font-size="14.00"> &#160;&#160;&#160;&#160;&#160;&#160;&#160;&#160;</text>
</g>
</g>
</svg>
