<?xml version="1.0" encoding="UTF-8" standalone="no"?>
<!DOCTYPE svg PUBLIC "-//W3C//DTD SVG 1.1//EN"
 "http://www.w3.org/Graphics/SVG/1.1/DTD/svg11.dtd">
<!-- Generated by graphviz version 3.0.0 (20220226.1711)
 -->
<!-- Pages: 1 -->
<svg width="1170pt" height="680pt"
 viewBox="0.00 0.00 1169.59 679.60" xmlns="http://www.w3.org/2000/svg" xmlns:xlink="http://www.w3.org/1999/xlink">
<g id="graph0" class="graph" transform="scale(1 1) rotate(0) translate(4 675.6)">
<polygon fill="white" stroke="transparent" points="-4,4 -4,-675.6 1165.59,-675.6 1165.59,4 -4,4"/>
<!-- Red zone operator -->
<g id="node1" class="node">
<title>Red zone operator</title>
<polygon fill="#1d2559" stroke="black" points="517.09,-566 372.09,-566 372.09,-530 517.09,-530 517.09,-566"/>
<text text-anchor="middle" x="444.59" y="-544.3" font-family="Sans Not-Rotated 14" font-size="14.00" fill="white">Red zone operator</text>
</g>
<!-- Red zone operator&#45;&gt;Red zone operator -->
<g id="edge3" class="edge">
<title>Red zone operator&#45;&gt;Red zone operator</title>
<path fill="none" stroke="black" stroke-width="1.53" d="M517.37,-555.11C527.96,-553.98 535.09,-551.61 535.09,-548 535.09,-545.69 532.16,-543.88 527.28,-542.59"/>
<polygon fill="black" stroke="black" stroke-width="1.53" points="527.82,-539.13 517.37,-540.89 526.64,-546.03 527.82,-539.13"/>
<text text-anchor="middle" x="555.59" y="-544.3" font-family="Sans Not-Rotated 14" font-size="14.00"> &#160;&#160;&#160;&#160;&#160;&#160;&#160;&#160;</text>
</g>
<!-- Red zone doctor FD -->
<g id="node2" class="node">
<title>Red zone doctor FD</title>
<polygon fill="#1d2559" stroke="black" points="700.09,-479 547.09,-479 547.09,-443 700.09,-443 700.09,-479"/>
<text text-anchor="middle" x="623.59" y="-457.3" font-family="Sans Not-Rotated 14" font-size="14.00" fill="white">Red zone doctor FD</text>
</g>
<!-- Red zone operator&#45;&gt;Red zone doctor FD -->
<g id="edge1" class="edge">
<title>Red zone operator&#45;&gt;Red zone doctor FD</title>
<path fill="none" stroke="black" stroke-width="3.35" d="M494.53,-529.96C508.1,-524.75 522.62,-518.63 535.59,-512 546.45,-506.45 548.09,-503.23 558.59,-497 565.95,-492.63 573.9,-488.15 581.63,-483.92"/>
<polygon fill="black" stroke="black" stroke-width="3.35" points="583.42,-486.93 590.55,-479.1 580.09,-480.78 583.42,-486.93"/>
<text text-anchor="middle" x="595.09" y="-500.8" font-family="Sans Not-Rotated 14" font-size="14.00"> &#160;&#160;&#160;&#160;&#160;&#160;&#160;&#160;&#160;&#160;&#160;&#160;&#160;&#160;&#160;</text>
</g>
<!-- Yellow zone doctor FD -->
<g id="node3" class="node">
<title>Yellow zone doctor FD</title>
<polygon fill="#ffffff" stroke="black" points="535.09,-392 362.09,-392 362.09,-356 535.09,-356 535.09,-392"/>
<text text-anchor="middle" x="448.59" y="-370.3" font-family="Sans Not-Rotated 14" font-size="14.00">Yellow zone doctor FD</text>
</g>
<!-- Red zone operator&#45;&gt;Yellow zone doctor FD -->
<g id="edge4" class="edge">
<title>Red zone operator&#45;&gt;Yellow zone doctor FD</title>
<path fill="none" stroke="black" stroke-width="1.08" d="M444.91,-529.88C445.1,-520.22 445.34,-507.94 445.59,-497 446.31,-464.53 447.24,-427.19 447.88,-402.47"/>
<polygon fill="black" stroke="black" stroke-width="1.08" points="451.38,-402.46 448.13,-392.37 444.38,-402.28 451.38,-402.46"/>
<text text-anchor="middle" x="457.09" y="-457.3" font-family="Sans Not-Rotated 14" font-size="14.00"> &#160;&#160;&#160;</text>
</g>
<!-- Red zone doctor -->
<g id="node4" class="node">
<title>Red zone doctor</title>
<polygon fill="#5661c6" stroke="black" points="771.09,-131 642.09,-131 642.09,-95 771.09,-95 771.09,-131"/>
<text text-anchor="middle" x="706.59" y="-109.3" font-family="Sans Not-Rotated 14" font-size="14.00" fill="white">Red zone doctor</text>
</g>
<!-- Red zone operator&#45;&gt;Red zone doctor -->
<g id="edge2" class="edge">
<title>Red zone operator&#45;&gt;Red zone doctor</title>
<path fill="none" stroke="black" stroke-width="5" d="M392.13,-529.93C377.22,-524.63 361.11,-518.47 346.59,-512 248.41,-468.22 212.87,-439.88 178.59,-338 159.54,-281.4 109.48,-287.99 229.59,-182 287.87,-130.57 512.89,-117.98 631.86,-114.93"/>
<polygon fill="black" stroke="black" stroke-width="5" points="632.1,-119.31 641.99,-114.69 631.89,-110.56 632.1,-119.31"/>
<text text-anchor="middle" x="215.09" y="-326.8" font-family="Sans Not-Rotated 14" font-size="14.00"> &#160;&#160;&#160;&#160;&#160;&#160;&#160;&#160;&#160;&#160;&#160;&#160;&#160;&#160;&#160;</text>
</g>
<!-- Notification operator -->
<g id="node5" class="node">
<title>Notification operator</title>
<polygon fill="#a09dde" stroke="black" points="428.09,-218 269.09,-218 269.09,-182 428.09,-182 428.09,-218"/>
<text text-anchor="middle" x="348.59" y="-196.3" font-family="Sans Not-Rotated 14" font-size="14.00">Notification operator</text>
</g>
<!-- Red zone operator&#45;&gt;Notification operator -->
<g id="edge6" class="edge">
<title>Red zone operator&#45;&gt;Notification operator</title>
<path fill="none" stroke="black" stroke-width="1.05" d="M421.46,-529.9C389.01,-504.25 331.57,-452.31 310.59,-392 287.62,-325.98 307.14,-301.85 330.59,-236 331.63,-233.07 332.87,-230.07 334.21,-227.13"/>
<polygon fill="black" stroke="black" stroke-width="1.05" points="337.41,-228.56 338.67,-218.04 331.12,-225.47 337.41,-228.56"/>
<text text-anchor="middle" x="320.09" y="-370.3" font-family="Sans Not-Rotated 14" font-size="14.00"> &#160;&#160;&#160;</text>
</g>
<!-- Yellow zone doctor -->
<g id="node6" class="node">
<title>Yellow zone doctor</title>
<polygon fill="#ffffff" stroke="black" points="727.09,-305 578.09,-305 578.09,-269 727.09,-269 727.09,-305"/>
<text text-anchor="middle" x="652.59" y="-283.3" font-family="Sans Not-Rotated 14" font-size="14.00">Yellow zone doctor</text>
</g>
<!-- Red zone operator&#45;&gt;Yellow zone doctor -->
<g id="edge5" class="edge">
<title>Red zone operator&#45;&gt;Yellow zone doctor</title>
<path fill="none" stroke="black" stroke-width="1.22" d="M517.43,-537.41C606.46,-524.95 751.36,-502.05 800.59,-479 835.22,-462.78 851.08,-459.5 867.59,-425 897.6,-362.27 809.79,-324.94 737.48,-305.45"/>
<polygon fill="black" stroke="black" stroke-width="1.22" points="737.95,-301.96 727.39,-302.82 736.19,-308.73 737.95,-301.96"/>
<text text-anchor="middle" x="892.09" y="-413.8" font-family="Sans Not-Rotated 14" font-size="14.00"> &#160;&#160;&#160;&#160;&#160;&#160;&#160;&#160;</text>
</g>
<!-- end -->
<g id="node8" class="node">
<title>end</title>
<ellipse fill="#ea4126" stroke="black" cx="348.59" cy="-22" rx="18" ry="18"/>
<ellipse fill="none" stroke="black" cx="348.59" cy="-22" rx="22" ry="22"/>
</g>
<!-- Red zone operator&#45;&gt;end -->
<g id="edge7" class="edge">
<title>Red zone operator&#45;&gt;end</title>
<path fill="none" stroke="black" stroke-dasharray="5,2" d="M371.74,-543.79C335.88,-539.67 293.06,-530.8 258.59,-512 161.57,-459.1 87.59,-442.01 87.59,-331.5 87.59,-331.5 87.59,-331.5 87.59,-112 87.59,-64.07 247.24,-36.67 316.81,-27.01"/>
<polygon fill="black" stroke="black" points="317.34,-30.47 326.78,-25.66 316.4,-23.53 317.34,-30.47"/>
<text text-anchor="middle" x="90.09" y="-283.3" font-family="Sans Not-Rotated 14" font-size="14.00"> </text>
</g>
<!-- Red zone doctor FD&#45;&gt;Red zone operator -->
<g id="edge8" class="edge">
<title>Red zone doctor FD&#45;&gt;Red zone operator</title>
<path fill="none" stroke="black" stroke-width="3.45" d="M546.89,-470.55C510.33,-476.12 471.72,-484.68 458.59,-497 452.23,-502.96 448.68,-511.55 446.72,-519.94"/>
<polygon fill="black" stroke="black" stroke-width="3.45" points="443.26,-519.43 445.04,-529.87 450.16,-520.59 443.26,-519.43"/>
<text text-anchor="middle" x="495.09" y="-500.8" font-family="Sans Not-Rotated 14" font-size="14.00"> &#160;&#160;&#160;&#160;&#160;&#160;&#160;&#160;&#160;&#160;&#160;&#160;&#160;&#160;&#160;</text>
</g>
<!-- Red zone doctor FD&#45;&gt;Red zone doctor FD -->
<g id="edge11" class="edge">
<title>Red zone doctor FD&#45;&gt;Red zone doctor FD</title>
<path fill="none" stroke="black" stroke-width="2.56" d="M700.34,-468.03C710.98,-466.87 718.09,-464.53 718.09,-461 718.09,-458.74 715.17,-456.97 710.27,-455.68"/>
<polygon fill="black" stroke="black" stroke-width="2.56" points="710.79,-452.22 700.34,-453.97 709.6,-459.12 710.79,-452.22"/>
<text text-anchor="middle" x="754.59" y="-457.3" font-family="Sans Not-Rotated 14" font-size="14.00"> &#160;&#160;&#160;&#160;&#160;&#160;&#160;&#160;&#160;&#160;&#160;&#160;&#160;&#160;&#160;</text>
</g>
<!-- Red zone doctor FD&#45;&gt;Yellow zone doctor FD -->
<g id="edge10" class="edge">
<title>Red zone doctor FD&#45;&gt;Yellow zone doctor FD</title>
<path fill="none" stroke="black" stroke-width="1.51" d="M584.51,-442.96C572.01,-437.38 558.16,-431.05 545.59,-425 527.15,-416.12 507.01,-405.83 489.88,-396.91"/>
<polygon fill="black" stroke="black" stroke-width="1.51" points="491.18,-393.64 480.7,-392.11 487.94,-399.84 491.18,-393.64"/>
<text text-anchor="middle" x="566.09" y="-413.8" font-family="Sans Not-Rotated 14" font-size="14.00"> &#160;&#160;&#160;&#160;&#160;&#160;&#160;&#160;</text>
</g>
<!-- Red zone doctor FD&#45;&gt;Red zone doctor -->
<g id="edge13" class="edge">
<title>Red zone doctor FD&#45;&gt;Red zone doctor</title>
<path fill="none" stroke="black" stroke-width="1.73" d="M700.16,-448.51C735.46,-439.2 774.73,-422.38 798.59,-392 838.4,-341.3 824.98,-315.01 832.59,-251 838.62,-200.2 789.01,-159.84 750.27,-136.43"/>
<polygon fill="black" stroke="black" stroke-width="1.73" points="751.59,-133.15 741.19,-131.13 748.06,-139.2 751.59,-133.15"/>
<text text-anchor="middle" x="851.09" y="-283.3" font-family="Sans Not-Rotated 14" font-size="14.00"> &#160;&#160;&#160;&#160;&#160;&#160;&#160;&#160;</text>
</g>
<!-- Red zone doctor FD&#45;&gt;Notification operator -->
<g id="edge9" class="edge">
<title>Red zone doctor FD&#45;&gt;Notification operator</title>
<path fill="none" stroke="black" stroke-width="1.58" d="M546.88,-450.63C475.93,-440.28 377.77,-421.12 352.59,-392 312.97,-346.19 327.84,-268.55 339.62,-227.8"/>
<polygon fill="black" stroke="black" stroke-width="1.58" points="343.02,-228.63 342.58,-218.04 336.33,-226.59 343.02,-228.63"/>
<text text-anchor="middle" x="350.09" y="-326.8" font-family="Sans Not-Rotated 14" font-size="14.00"> &#160;&#160;&#160;&#160;&#160;&#160;&#160;&#160;</text>
</g>
<!-- Red zone doctor FD&#45;&gt;Yellow zone doctor -->
<g id="edge12" class="edge">
<title>Red zone doctor FD&#45;&gt;Yellow zone doctor</title>
<path fill="none" stroke="black" stroke-width="2.06" d="M636.25,-442.78C651.72,-421.91 678.9,-385.84 703.59,-356 710.41,-347.75 715.78,-348 719.59,-338 721.96,-331.77 723.04,-328.7 719.59,-323 716.89,-318.55 713.43,-314.65 709.5,-311.22"/>
<polygon fill="black" stroke="black" stroke-width="2.06" points="711.55,-308.38 701.44,-305.19 707.35,-313.98 711.55,-308.38"/>
<text text-anchor="middle" x="724.09" y="-370.3" font-family="Sans Not-Rotated 14" font-size="14.00"> &#160;&#160;&#160;&#160;&#160;&#160;&#160;&#160;</text>
</g>
<!-- Red zone doctor FD&#45;&gt;end -->
<g id="edge14" class="edge">
<title>Red zone doctor FD&#45;&gt;end</title>
<path fill="none" stroke="black" stroke-dasharray="5,2" d="M700.29,-456.45C794.96,-451.41 946.04,-440.99 966.59,-425 1017.74,-385.19 1016.59,-352.82 1016.59,-288 1016.59,-288 1016.59,-288 1016.59,-112 1016.59,-47.07 514.29,-27.82 380.83,-23.86"/>
<polygon fill="black" stroke="black" points="380.91,-20.36 370.81,-23.57 380.71,-27.36 380.91,-20.36"/>
<text text-anchor="middle" x="1026.09" y="-239.8" font-family="Sans Not-Rotated 14" font-size="14.00"> &#160;&#160;&#160;</text>
</g>
<!-- Yellow zone doctor FD&#45;&gt;Red zone operator -->
<g id="edge30" class="edge">
<title>Yellow zone doctor FD&#45;&gt;Red zone operator</title>
<path fill="none" stroke="black" stroke-width="1.7" d="M432.3,-392.14C421.26,-405.02 407.61,-423.68 401.59,-443 396.82,-458.27 397.14,-463.63 401.59,-479 406.03,-494.33 415.07,-509.52 423.72,-521.65"/>
<polygon fill="black" stroke="black" stroke-width="1.7" points="421.09,-523.97 429.88,-529.89 426.7,-519.78 421.09,-523.97"/>
<text text-anchor="middle" x="422.09" y="-457.3" font-family="Sans Not-Rotated 14" font-size="14.00"> &#160;&#160;&#160;&#160;&#160;&#160;&#160;&#160;</text>
</g>
<!-- Yellow zone doctor FD&#45;&gt;Red zone doctor FD -->
<g id="edge32" class="edge">
<title>Yellow zone doctor FD&#45;&gt;Red zone doctor FD</title>
<path fill="none" stroke="black" stroke-width="1.34" d="M452,-392.24C455.06,-403.19 460.64,-416.78 470.59,-425 489.24,-440.42 513.37,-449.35 536.92,-454.44"/>
<polygon fill="black" stroke="black" stroke-width="1.34" points="536.48,-457.92 546.97,-456.39 537.82,-451.05 536.48,-457.92"/>
<text text-anchor="middle" x="491.09" y="-413.8" font-family="Sans Not-Rotated 14" font-size="14.00"> &#160;&#160;&#160;&#160;&#160;&#160;&#160;&#160;</text>
</g>
<!-- Yellow zone doctor FD&#45;&gt;Yellow zone doctor FD -->
<g id="edge34" class="edge">
<title>Yellow zone doctor FD&#45;&gt;Yellow zone doctor FD</title>
<path fill="none" stroke="black" stroke-width="1.07" d="M535.47,-380.81C546.11,-379.59 553.09,-377.32 553.09,-374 553.09,-371.87 550.22,-370.17 545.37,-368.91"/>
<polygon fill="black" stroke="black" stroke-width="1.07" points="545.93,-365.45 535.47,-367.19 544.72,-372.35 545.93,-365.45"/>
<text text-anchor="middle" x="562.59" y="-370.3" font-family="Sans Not-Rotated 14" font-size="14.00"> &#160;&#160;&#160;</text>
</g>
<!-- Yellow zone doctor FD&#45;&gt;Red zone doctor -->
<g id="edge33" class="edge">
<title>Yellow zone doctor FD&#45;&gt;Red zone doctor</title>
<path fill="none" stroke="black" stroke-width="1.29" d="M535.38,-368.94C623.59,-362.54 750.46,-346.23 773.59,-305 808.44,-242.85 774.13,-209.56 736.59,-149 734.57,-145.75 732.26,-142.49 729.84,-139.34"/>
<polygon fill="black" stroke="black" stroke-width="1.29" points="732.33,-136.86 723.28,-131.34 726.91,-141.29 732.33,-136.86"/>
<text text-anchor="middle" x="808.09" y="-239.8" font-family="Sans Not-Rotated 14" font-size="14.00"> &#160;&#160;&#160;&#160;&#160;&#160;&#160;&#160;</text>
</g>
<!-- Yellow zone doctor FD&#45;&gt;Notification operator -->
<g id="edge29" class="edge">
<title>Yellow zone doctor FD&#45;&gt;Notification operator</title>
<path fill="none" stroke="black" stroke-width="1.95" d="M427.11,-355.71C402.85,-336.14 366.58,-306.71 365.59,-305 352,-281.44 348.46,-250.17 347.88,-228.09"/>
<polygon fill="black" stroke="black" stroke-width="1.95" points="351.38,-228.03 347.8,-218.06 344.38,-228.09 351.38,-228.03"/>
<text text-anchor="middle" x="386.09" y="-283.3" font-family="Sans Not-Rotated 14" font-size="14.00"> &#160;&#160;&#160;&#160;&#160;&#160;&#160;&#160;</text>
</g>
<!-- Yellow zone doctor FD&#45;&gt;Yellow zone doctor -->
<g id="edge31" class="edge">
<title>Yellow zone doctor FD&#45;&gt;Yellow zone doctor</title>
<path fill="none" stroke="black" stroke-width="2.17" d="M495.85,-355.93C508.95,-350.68 523.02,-344.54 535.59,-338 546.41,-332.36 547.69,-328.5 558.59,-323 568.81,-317.84 579.98,-313.03 590.94,-308.72"/>
<polygon fill="black" stroke="black" stroke-width="2.17" points="592.4,-311.91 600.48,-305.06 589.89,-305.37 592.4,-311.91"/>
<text text-anchor="middle" x="595.09" y="-326.8" font-family="Sans Not-Rotated 14" font-size="14.00"> &#160;&#160;&#160;&#160;&#160;&#160;&#160;&#160;&#160;&#160;&#160;&#160;&#160;&#160;&#160;</text>
</g>
<!-- Yellow zone doctor FD&#45;&gt;end -->
<g id="edge35" class="edge">
<title>Yellow zone doctor FD&#45;&gt;end</title>
<path fill="none" stroke="black" stroke-dasharray="5,2" d="M417.75,-355.82C408.52,-350.39 398.49,-344.18 389.59,-338 351.71,-311.72 249.13,-235.85 240.59,-218 209.09,-152.19 282.55,-77.56 323.46,-42.79"/>
<polygon fill="black" stroke="black" points="325.95,-45.27 331.41,-36.19 321.48,-39.89 325.95,-45.27"/>
<text text-anchor="middle" x="250.09" y="-196.3" font-family="Sans Not-Rotated 14" font-size="14.00"> &#160;&#160;&#160;</text>
</g>
<!-- Red zone doctor&#45;&gt;Red zone operator -->
<g id="edge17" class="edge">
<title>Red zone doctor&#45;&gt;Red zone operator</title>
<path fill="none" stroke="black" stroke-width="3.47" d="M771.34,-116.53C850.1,-123.52 979.91,-148.52 1039.59,-236 1063.37,-270.87 1046.13,-391.39 1020.59,-425 981.99,-475.8 947.86,-458.1 887.59,-479 837.75,-496.28 825.35,-501.84 773.59,-512 750.05,-516.62 617.12,-530.12 527.6,-538.94"/>
<polygon fill="black" stroke="black" stroke-width="3.47" points="527.06,-535.47 517.45,-539.93 527.75,-542.44 527.06,-535.47"/>
<text text-anchor="middle" x="1085.09" y="-326.8" font-family="Sans Not-Rotated 14" font-size="14.00"> &#160;&#160;&#160;&#160;&#160;&#160;&#160;&#160;&#160;&#160;&#160;&#160;&#160;&#160;&#160;</text>
</g>
<!-- Red zone doctor&#45;&gt;Red zone doctor FD -->
<g id="edge15" class="edge">
<title>Red zone doctor&#45;&gt;Red zone doctor FD</title>
<path fill="none" stroke="black" stroke-width="3.51" d="M756.1,-131.04C768.39,-136.1 781.28,-142.15 792.59,-149 859.77,-189.67 896.81,-229.38 875.59,-305 857.43,-369.7 843.84,-395.24 783.59,-425 760.96,-436.18 734.78,-443.81 710.24,-449.02"/>
<polygon fill="black" stroke="black" stroke-width="3.51" points="709.32,-445.63 700.21,-451.03 710.7,-452.5 709.32,-445.63"/>
<text text-anchor="middle" x="917.09" y="-283.3" font-family="Sans Not-Rotated 14" font-size="14.00"> &#160;&#160;&#160;&#160;&#160;&#160;&#160;&#160;&#160;&#160;&#160;&#160;&#160;&#160;&#160;</text>
</g>
<!-- Red zone doctor&#45;&gt;Yellow zone doctor FD -->
<g id="edge19" class="edge">
<title>Red zone doctor&#45;&gt;Yellow zone doctor FD</title>
<path fill="none" stroke="black" stroke-width="1.12" d="M667.34,-131.11C625.26,-151.1 558.68,-187.71 515.59,-236 500.06,-253.4 474.19,-311.7 459.55,-346.39"/>
<polygon fill="black" stroke="black" stroke-width="1.12" points="456.2,-345.33 455.57,-355.91 462.66,-348.03 456.2,-345.33"/>
<text text-anchor="middle" x="536.09" y="-239.8" font-family="Sans Not-Rotated 14" font-size="14.00"> &#160;&#160;&#160;&#160;&#160;&#160;&#160;&#160;</text>
</g>
<!-- Red zone doctor&#45;&gt;Red zone doctor -->
<g id="edge18" class="edge">
<title>Red zone doctor&#45;&gt;Red zone doctor</title>
<path fill="none" stroke="black" stroke-width="1.26" d="M771.27,-120.29C781.83,-119.24 789.09,-116.81 789.09,-113 789.09,-110.56 786.11,-108.68 781.19,-107.38"/>
<polygon fill="black" stroke="black" stroke-width="1.26" points="781.71,-103.91 771.27,-105.71 780.55,-110.82 781.71,-103.91"/>
<text text-anchor="middle" x="809.59" y="-109.3" font-family="Sans Not-Rotated 14" font-size="14.00"> &#160;&#160;&#160;&#160;&#160;&#160;&#160;&#160;</text>
</g>
<!-- Red zone doctor&#45;&gt;Notification operator -->
<g id="edge20" class="edge">
<title>Red zone doctor&#45;&gt;Notification operator</title>
<path fill="none" stroke="black" stroke-width="1.04" d="M642.07,-120.25C596.88,-125.56 535.38,-134.65 482.59,-149 465.07,-153.76 461.56,-157.56 444.59,-164 432.03,-168.77 418.51,-173.77 405.68,-178.46"/>
<polygon fill="black" stroke="black" stroke-width="1.04" points="404.24,-175.27 396.04,-181.98 406.64,-181.84 404.24,-175.27"/>
<text text-anchor="middle" x="492.09" y="-152.8" font-family="Sans Not-Rotated 14" font-size="14.00"> &#160;&#160;&#160;</text>
</g>
<!-- Red zone doctor&#45;&gt;Yellow zone doctor -->
<g id="edge16" class="edge">
<title>Red zone doctor&#45;&gt;Yellow zone doctor</title>
<path fill="none" stroke="black" stroke-width="1.27" d="M698.69,-131.17C692.94,-144.67 685.65,-164.11 682.59,-182 682.59,-182 682.59,-251 682.59,-251 681.36,-254.33 679.65,-257.55 677.67,-260.61"/>
<polygon fill="black" stroke="black" stroke-width="1.27" points="674.77,-258.64 671.55,-268.74 680.36,-262.86 674.77,-258.64"/>
<text text-anchor="middle" x="703.09" y="-196.3" font-family="Sans Not-Rotated 14" font-size="14.00"> &#160;&#160;&#160;&#160;&#160;&#160;&#160;&#160;</text>
</g>
<!-- Red zone doctor&#45;&gt;end -->
<g id="edge21" class="edge">
<title>Red zone doctor&#45;&gt;end</title>
<path fill="none" stroke="black" stroke-dasharray="5,2" d="M641.76,-95.88C564.36,-76.64 438.1,-45.25 379.84,-30.77"/>
<polygon fill="black" stroke="black" points="380.33,-27.29 369.78,-28.27 378.65,-34.08 380.33,-27.29"/>
<text text-anchor="middle" x="562.09" y="-65.8" font-family="Sans Not-Rotated 14" font-size="14.00"> </text>
</g>
<!-- Notification operator&#45;&gt;Red zone operator -->
<g id="edge23" class="edge">
<title>Notification operator&#45;&gt;Red zone operator</title>
<path fill="none" stroke="black" stroke-width="1.38" d="M329.94,-218.22C296.61,-251.2 232.53,-325.88 257.59,-392 281.75,-455.77 350.01,-500.82 397.01,-525.36"/>
<polygon fill="black" stroke="black" stroke-width="1.38" points="395.61,-528.58 406.11,-530 398.79,-522.34 395.61,-528.58"/>
<text text-anchor="middle" x="278.09" y="-370.3" font-family="Sans Not-Rotated 14" font-size="14.00"> &#160;&#160;&#160;&#160;&#160;&#160;&#160;&#160;</text>
</g>
<!-- Notification operator&#45;&gt;Red zone doctor FD -->
<g id="edge27" class="edge">
<title>Notification operator&#45;&gt;Red zone doctor FD</title>
<path fill="none" stroke="black" stroke-width="1.09" d="M428.16,-205.9C472.57,-210.48 521.69,-219.26 535.59,-236 565.27,-271.76 484.17,-301.23 512.59,-338 531.96,-363.08 557.78,-335.08 581.59,-356 604.04,-375.73 614.66,-409.19 619.58,-432.82"/>
<polygon fill="black" stroke="black" stroke-width="1.09" points="616.18,-433.71 621.45,-442.9 623.06,-432.43 616.18,-433.71"/>
<text text-anchor="middle" x="522.09" y="-326.8" font-family="Sans Not-Rotated 14" font-size="14.00"> &#160;&#160;&#160;</text>
</g>
<!-- Notification operator&#45;&gt;Yellow zone doctor FD -->
<g id="edge22" class="edge">
<title>Notification operator&#45;&gt;Yellow zone doctor FD</title>
<path fill="none" stroke="black" stroke-width="1.32" d="M367.81,-218.18C381.29,-231.06 398.91,-249.73 410.59,-269 425.31,-293.3 435.7,-324.21 441.85,-346"/>
<polygon fill="black" stroke="black" stroke-width="1.32" points="438.54,-347.15 444.53,-355.89 445.3,-345.32 438.54,-347.15"/>
<text text-anchor="middle" x="449.09" y="-283.3" font-family="Sans Not-Rotated 14" font-size="14.00"> &#160;&#160;&#160;&#160;&#160;&#160;&#160;&#160;</text>
</g>
<!-- Notification operator&#45;&gt;Red zone doctor -->
<g id="edge25" class="edge">
<title>Notification operator&#45;&gt;Red zone doctor</title>
<path fill="none" stroke="black" stroke-width="1.16" d="M361.26,-181.61C370.53,-170.31 384.14,-156.36 399.59,-149 439.33,-130.07 554.31,-121.03 631.71,-116.97"/>
<polygon fill="black" stroke="black" stroke-width="1.16" points="632.09,-120.46 641.9,-116.46 631.73,-113.47 632.09,-120.46"/>
<text text-anchor="middle" x="420.09" y="-152.8" font-family="Sans Not-Rotated 14" font-size="14.00"> &#160;&#160;&#160;&#160;&#160;&#160;&#160;&#160;</text>
</g>
<!-- Notification operator&#45;&gt;Notification operator -->
<g id="edge24" class="edge">
<title>Notification operator&#45;&gt;Notification operator</title>
<path fill="none" stroke="black" stroke-width="2.07" d="M428.16,-206.99C438.92,-205.82 446.09,-203.49 446.09,-200 446.09,-197.77 443.15,-196.01 438.2,-194.72"/>
<polygon fill="black" stroke="black" stroke-width="2.07" points="438.6,-191.24 428.16,-193.01 437.43,-198.14 438.6,-191.24"/>
<text text-anchor="middle" x="466.59" y="-196.3" font-family="Sans Not-Rotated 14" font-size="14.00"> &#160;&#160;&#160;&#160;&#160;&#160;&#160;&#160;</text>
</g>
<!-- Notification operator&#45;&gt;Yellow zone doctor -->
<g id="edge26" class="edge">
<title>Notification operator&#45;&gt;Yellow zone doctor</title>
<path fill="none" stroke="black" stroke-width="1.69" d="M428.4,-203.24C498.31,-206.6 593.45,-215.01 624.59,-236 632.95,-241.64 639.08,-250.65 643.43,-259.47"/>
<polygon fill="black" stroke="black" stroke-width="1.69" points="640.29,-261.03 647.48,-268.82 646.71,-258.25 640.29,-261.03"/>
<text text-anchor="middle" x="658.09" y="-239.8" font-family="Sans Not-Rotated 14" font-size="14.00"> &#160;&#160;&#160;&#160;&#160;&#160;&#160;&#160;</text>
</g>
<!-- Notification operator&#45;&gt;end -->
<g id="edge28" class="edge">
<title>Notification operator&#45;&gt;end</title>
<path fill="none" stroke="black" stroke-dasharray="5,2" d="M348.59,-181.8C348.59,-152.28 348.59,-91.55 348.59,-54.34"/>
<polygon fill="black" stroke="black" points="352.09,-54.06 348.59,-44.06 345.09,-54.06 352.09,-54.06"/>
<text text-anchor="middle" x="369.09" y="-109.3" font-family="Sans Not-Rotated 14" font-size="14.00"> &#160;&#160;&#160;&#160;&#160;&#160;&#160;&#160;</text>
</g>
<!-- Yellow zone doctor&#45;&gt;Red zone operator -->
<g id="edge39" class="edge">
<title>Yellow zone doctor&#45;&gt;Red zone operator</title>
<path fill="none" stroke="black" stroke-width="1.21" d="M727.45,-296.27C819.13,-310 957.53,-344.44 916.59,-425 898.14,-461.3 879.26,-461.31 842.59,-479 792.77,-503.03 776.83,-501.18 722.59,-512 657.58,-524.96 583.01,-534.04 527.48,-539.7"/>
<polygon fill="black" stroke="black" stroke-width="1.21" points="526.94,-536.24 517.34,-540.72 527.63,-543.2 526.94,-536.24"/>
<text text-anchor="middle" x="942.09" y="-413.8" font-family="Sans Not-Rotated 14" font-size="14.00"> &#160;&#160;&#160;&#160;&#160;&#160;&#160;&#160;</text>
</g>
<!-- Yellow zone doctor&#45;&gt;Red zone doctor FD -->
<g id="edge37" class="edge">
<title>Yellow zone doctor&#45;&gt;Red zone doctor FD</title>
<path fill="none" stroke="black" stroke-width="1.29" d="M710.62,-305.08C719.54,-309.75 727.97,-315.62 734.59,-323 755.27,-346.07 760.24,-365.25 744.59,-392 732.23,-413.11 710.66,-428.17 689.11,-438.66"/>
<polygon fill="black" stroke="black" stroke-width="1.29" points="687.54,-435.53 679.9,-442.88 690.45,-441.89 687.54,-435.53"/>
<text text-anchor="middle" x="774.09" y="-370.3" font-family="Sans Not-Rotated 14" font-size="14.00"> &#160;&#160;&#160;&#160;&#160;&#160;&#160;&#160;</text>
</g>
<!-- Yellow zone doctor&#45;&gt;Yellow zone doctor FD -->
<g id="edge36" class="edge">
<title>Yellow zone doctor&#45;&gt;Yellow zone doctor FD</title>
<path fill="none" stroke="black" stroke-width="3.63" d="M649.63,-305.34C646.84,-316.33 641.53,-329.94 631.59,-338 617.75,-349.22 581.94,-357.26 545.63,-362.78"/>
<polygon fill="black" stroke="black" stroke-width="3.63" points="544.78,-359.37 535.39,-364.28 545.79,-366.3 544.78,-359.37"/>
<text text-anchor="middle" x="679.09" y="-326.8" font-family="Sans Not-Rotated 14" font-size="14.00"> &#160;&#160;&#160;&#160;&#160;&#160;&#160;&#160;&#160;&#160;&#160;&#160;&#160;&#160;&#160;</text>
</g>
<!-- Yellow zone doctor&#45;&gt;Red zone doctor -->
<g id="edge40" class="edge">
<title>Yellow zone doctor&#45;&gt;Red zone doctor</title>
<path fill="none" stroke="black" stroke-width="1.08" d="M680.72,-268.8C697.09,-256.9 715.96,-239.38 723.59,-218 732.67,-192.56 725.62,-161.88 718.03,-140.46"/>
<polygon fill="black" stroke="black" stroke-width="1.08" points="721.27,-139.14 714.44,-131.04 714.73,-141.63 721.27,-139.14"/>
<text text-anchor="middle" x="737.09" y="-196.3" font-family="Sans Not-Rotated 14" font-size="14.00"> &#160;&#160;&#160;</text>
</g>
<!-- Yellow zone doctor&#45;&gt;Notification operator -->
<g id="edge38" class="edge">
<title>Yellow zone doctor&#45;&gt;Notification operator</title>
<path fill="none" stroke="black" stroke-width="1.38" d="M612.71,-268.84C601.72,-263.59 589.96,-257.47 579.59,-251 570.46,-245.31 570.43,-240.35 560.59,-236 522.53,-219.19 477.39,-210.38 438.57,-205.8"/>
<polygon fill="black" stroke="black" stroke-width="1.38" points="438.64,-202.28 428.32,-204.67 437.88,-209.24 438.64,-202.28"/>
<text text-anchor="middle" x="600.09" y="-239.8" font-family="Sans Not-Rotated 14" font-size="14.00"> &#160;&#160;&#160;&#160;&#160;&#160;&#160;&#160;</text>
</g>
<!-- Yellow zone doctor&#45;&gt;Yellow zone doctor -->
<g id="edge41" class="edge">
<title>Yellow zone doctor&#45;&gt;Yellow zone doctor</title>
<path fill="none" stroke="black" stroke-width="1.02" d="M727.35,-294.07C737.96,-292.92 745.09,-290.57 745.09,-287 745.09,-284.71 742.16,-282.93 737.27,-281.64"/>
<polygon fill="black" stroke="black" stroke-width="1.02" points="737.8,-278.17 727.35,-279.93 736.62,-285.07 737.8,-278.17"/>
<text text-anchor="middle" x="754.59" y="-283.3" font-family="Sans Not-Rotated 14" font-size="14.00"> &#160;&#160;&#160;</text>
</g>
<!-- start -->
<g id="node7" class="node">
<title>start</title>
<ellipse fill="#95d600" stroke="black" cx="598.59" cy="-644.3" rx="27.1" ry="27.1"/>
<text text-anchor="middle" x="598.59" y="-640.6" font-family="Sans Not-Rotated 14" font-size="14.00">start</text>
</g>
<!-- start&#45;&gt;Red zone operator -->
<g id="edge42" class="edge">
<title>start&#45;&gt;Red zone operator</title>
<path fill="none" stroke="black" stroke-dasharray="5,2" d="M575.53,-629.18C550.59,-613.91 510.47,-589.34 481.21,-571.42"/>
<polygon fill="black" stroke="black" points="482.86,-568.33 472.5,-566.09 479.2,-574.3 482.86,-568.33"/>
<text text-anchor="middle" x="546.09" y="-587.8" font-family="Sans Not-Rotated 14" font-size="14.00"> &#160;&#160;&#160;&#160;&#160;&#160;&#160;&#160;</text>
</g>
<!-- start&#45;&gt;Red zone doctor FD -->
<g id="edge46" class="edge">
<title>start&#45;&gt;Red zone doctor FD</title>
<path fill="none" stroke="black" stroke-dasharray="5,2" d="M606.93,-617.99C615.09,-591.8 626.94,-549.55 631.59,-512 632.51,-504.53 631.92,-496.46 630.73,-489.03"/>
<polygon fill="black" stroke="black" points="634.13,-488.2 628.73,-479.08 627.27,-489.57 634.13,-488.2"/>
<text text-anchor="middle" x="631.09" y="-544.3" font-family="Sans Not-Rotated 14" font-size="14.00"> </text>
</g>
<!-- start&#45;&gt;Yellow zone doctor FD -->
<g id="edge45" class="edge">
<title>start&#45;&gt;Yellow zone doctor FD</title>
<path fill="none" stroke="black" stroke-dasharray="5,2" d="M571.01,-642.74C503.54,-639.66 331.01,-621.01 267.59,-512 235.87,-457.49 314.54,-417.59 377.98,-395.34"/>
<polygon fill="black" stroke="black" points="379.28,-398.6 387.61,-392.05 377.02,-391.97 379.28,-398.6"/>
<text text-anchor="middle" x="270.09" y="-500.8" font-family="Sans Not-Rotated 14" font-size="14.00"> </text>
</g>
<!-- start&#45;&gt;Red zone doctor -->
<g id="edge43" class="edge">
<title>start&#45;&gt;Red zone doctor</title>
<path fill="none" stroke="black" stroke-dasharray="5,2" d="M625.94,-641.49C736.25,-633.83 1142.59,-602.02 1142.59,-549 1142.59,-549 1142.59,-549 1142.59,-199 1142.59,-126.33 906.32,-114.59 781.63,-113.45"/>
<polygon fill="black" stroke="black" points="781.41,-109.95 771.39,-113.38 781.36,-116.95 781.41,-109.95"/>
<text text-anchor="middle" x="1152.09" y="-370.3" font-family="Sans Not-Rotated 14" font-size="14.00"> &#160;&#160;&#160;</text>
</g>
<!-- start&#45;&gt;Notification operator -->
<g id="edge44" class="edge">
<title>start&#45;&gt;Notification operator</title>
<path fill="none" stroke="black" stroke-dasharray="5,2" d="M571.38,-640.35C477.94,-629.57 172.97,-588.91 120.59,-512 93.74,-472.58 -147.59,-765.57 139.59,-323 172.39,-272.45 234.05,-240.24 281.93,-221.7"/>
<polygon fill="black" stroke="black" points="283.18,-224.97 291.31,-218.17 280.71,-218.41 283.18,-224.97"/>
<text text-anchor="middle" x="86.09" y="-413.8" font-family="Sans Not-Rotated 14" font-size="14.00"> </text>
</g>
<!-- start&#45;&gt;Yellow zone doctor -->
<g id="edge47" class="edge">
<title>start&#45;&gt;Yellow zone doctor</title>
<path fill="none" stroke="black" stroke-dasharray="5,2" d="M625.44,-639.27C711.54,-625.73 978.02,-579 1027.59,-512 1092.19,-424.66 974.52,-360.57 872.59,-323 829.51,-307.12 779.07,-298.44 737.37,-293.7"/>
<polygon fill="black" stroke="black" points="737.56,-290.2 727.24,-292.61 736.81,-297.16 737.56,-290.2"/>
<text text-anchor="middle" x="1048.09" y="-457.3" font-family="Sans Not-Rotated 14" font-size="14.00"> </text>
</g>
</g>
</svg>
