<?xml version="1.0" encoding="UTF-8" standalone="no"?>
<!DOCTYPE svg PUBLIC "-//W3C//DTD SVG 1.1//EN"
 "http://www.w3.org/Graphics/SVG/1.1/DTD/svg11.dtd">
<!-- Generated by graphviz version 3.0.0 (20220226.1711)
 -->
<!-- Pages: 1 -->
<svg width="301pt" height="680pt"
 viewBox="0.00 0.00 300.92 679.60" xmlns="http://www.w3.org/2000/svg" xmlns:xlink="http://www.w3.org/1999/xlink">
<g id="graph0" class="graph" transform="scale(1 1) rotate(0) translate(4 675.6)">
<polygon fill="white" stroke="transparent" points="-4,4 -4,-675.6 296.92,-675.6 296.92,4 -4,4"/>
<!-- Red zone operator -->
<g id="node1" class="node">
<title>Red zone operator</title>
<polygon fill="#1d2559" stroke="black" points="159.92,-566 14.92,-566 14.92,-530 159.92,-530 159.92,-566"/>
<text text-anchor="middle" x="87.42" y="-544.3" font-family="Sans Not-Rotated 14" font-size="14.00" fill="white">Red zone operator</text>
</g>
<!-- Red zone doctor -->
<g id="node4" class="node">
<title>Red zone doctor</title>
<polygon fill="#5661c6" stroke="black" points="138.92,-479 9.92,-479 9.92,-443 138.92,-443 138.92,-479"/>
<text text-anchor="middle" x="74.42" y="-457.3" font-family="Sans Not-Rotated 14" font-size="14.00" fill="white">Red zone doctor</text>
</g>
<!-- Red zone operator&#45;&gt;Red zone doctor -->
<g id="edge4" class="edge">
<title>Red zone operator&#45;&gt;Red zone doctor</title>
<path fill="none" stroke="black" stroke-width="5" d="M22.71,-529.77C15.11,-525.18 8.33,-519.36 3.42,-512 -3.92,-501 2.11,-491.66 13.2,-484.15"/>
<polygon fill="black" stroke="black" stroke-width="5" points="15.61,-487.81 22.06,-479 11.21,-480.25 15.61,-487.81"/>
<text text-anchor="middle" x="39.92" y="-500.8" font-family="Sans Not-Rotated 14" font-size="14.00"> &#160;&#160;&#160;&#160;&#160;&#160;&#160;&#160;&#160;&#160;&#160;&#160;&#160;&#160;&#160;</text>
</g>
<!-- Red zone doctor FD -->
<g id="node2" class="node">
<title>Red zone doctor FD</title>
<polygon fill="#1d2559" stroke="black" points="201.92,-392 48.92,-392 48.92,-356 201.92,-356 201.92,-392"/>
<text text-anchor="middle" x="125.42" y="-370.3" font-family="Sans Not-Rotated 14" font-size="14.00" fill="white">Red zone doctor FD</text>
</g>
<!-- Red zone doctor FD&#45;&gt;Red zone operator -->
<g id="edge8" class="edge">
<title>Red zone doctor FD&#45;&gt;Red zone operator</title>
<path fill="none" stroke="black" stroke-width="3.39" d="M148.48,-392.03C153.71,-397.17 158.57,-403.26 161.42,-410 179.07,-451.77 183.91,-473.84 159.42,-512 156.54,-516.49 152.9,-520.42 148.8,-523.86"/>
<polygon fill="black" stroke="black" stroke-width="3.39" points="146.5,-521.2 140.42,-529.88 150.58,-526.89 146.5,-521.2"/>
<text text-anchor="middle" x="212.92" y="-457.3" font-family="Sans Not-Rotated 14" font-size="14.00"> &#160;&#160;&#160;&#160;&#160;&#160;&#160;&#160;&#160;&#160;&#160;&#160;&#160;&#160;&#160;</text>
</g>
<!-- Red zone doctor FD&#45;&gt;Red zone doctor FD -->
<g id="edge12" class="edge">
<title>Red zone doctor FD&#45;&gt;Red zone doctor FD</title>
<path fill="none" stroke="black" stroke-width="2.47" d="M202.17,-381.03C212.81,-379.87 219.92,-377.53 219.92,-374 219.92,-371.74 217,-369.97 212.11,-368.68"/>
<polygon fill="black" stroke="black" stroke-width="2.47" points="212.62,-365.22 202.17,-366.97 211.44,-372.12 212.62,-365.22"/>
<text text-anchor="middle" x="256.42" y="-370.3" font-family="Sans Not-Rotated 14" font-size="14.00"> &#160;&#160;&#160;&#160;&#160;&#160;&#160;&#160;&#160;&#160;&#160;&#160;&#160;&#160;&#160;</text>
</g>
<!-- Yellow zone doctor -->
<g id="node6" class="node">
<title>Yellow zone doctor</title>
<polygon fill="#ffffff" stroke="black" points="199.92,-305 50.92,-305 50.92,-269 199.92,-269 199.92,-305"/>
<text text-anchor="middle" x="125.42" y="-283.3" font-family="Sans Not-Rotated 14" font-size="14.00">Yellow zone doctor</text>
</g>
<!-- Red zone doctor FD&#45;&gt;Yellow zone doctor -->
<g id="edge6" class="edge">
<title>Red zone doctor FD&#45;&gt;Yellow zone doctor</title>
<path fill="none" stroke="black" stroke-width="1.95" d="M125.42,-355.8C125.42,-344.16 125.42,-328.55 125.42,-315.24"/>
<polygon fill="black" stroke="black" stroke-width="1.95" points="128.92,-315.18 125.42,-305.18 121.92,-315.18 128.92,-315.18"/>
<text text-anchor="middle" x="145.92" y="-326.8" font-family="Sans Not-Rotated 14" font-size="14.00"> &#160;&#160;&#160;&#160;&#160;&#160;&#160;&#160;</text>
</g>
<!-- Yellow zone doctor FD -->
<g id="node3" class="node">
<title>Yellow zone doctor FD</title>
<polygon fill="#ffffff" stroke="black" points="176.92,-218 3.92,-218 3.92,-182 176.92,-182 176.92,-218"/>
<text text-anchor="middle" x="90.42" y="-196.3" font-family="Sans Not-Rotated 14" font-size="14.00">Yellow zone doctor FD</text>
</g>
<!-- Notification operator -->
<g id="node5" class="node">
<title>Notification operator</title>
<polygon fill="#a09dde" stroke="black" points="231.92,-131 72.92,-131 72.92,-95 231.92,-95 231.92,-131"/>
<text text-anchor="middle" x="152.42" y="-109.3" font-family="Sans Not-Rotated 14" font-size="14.00">Notification operator</text>
</g>
<!-- Yellow zone doctor FD&#45;&gt;Notification operator -->
<g id="edge5" class="edge">
<title>Yellow zone doctor FD&#45;&gt;Notification operator</title>
<path fill="none" stroke="black" stroke-width="1.84" d="M102.97,-181.8C111.87,-169.59 123.98,-152.99 133.98,-139.28"/>
<polygon fill="black" stroke="black" stroke-width="1.84" points="136.83,-141.32 139.89,-131.18 131.17,-137.19 136.83,-141.32"/>
<text text-anchor="middle" x="145.92" y="-152.8" font-family="Sans Not-Rotated 14" font-size="14.00"> &#160;&#160;&#160;&#160;&#160;&#160;&#160;&#160;</text>
</g>
<!-- Yellow zone doctor FD&#45;&gt;Yellow zone doctor -->
<g id="edge9" class="edge">
<title>Yellow zone doctor FD&#45;&gt;Yellow zone doctor</title>
<path fill="none" stroke="black" stroke-width="2.06" d="M97.49,-218.18C102.38,-230.04 108.96,-246.04 114.52,-259.52"/>
<polygon fill="black" stroke="black" stroke-width="2.06" points="111.29,-260.88 118.34,-268.8 117.77,-258.22 111.29,-260.88"/>
<text text-anchor="middle" x="146.92" y="-239.8" font-family="Sans Not-Rotated 14" font-size="14.00"> &#160;&#160;&#160;&#160;&#160;&#160;&#160;&#160;&#160;&#160;&#160;&#160;&#160;&#160;&#160;</text>
</g>
<!-- Red zone doctor&#45;&gt;Red zone operator -->
<g id="edge1" class="edge">
<title>Red zone doctor&#45;&gt;Red zone operator</title>
<path fill="none" stroke="black" stroke-width="3.42" d="M77.05,-479.18C78.82,-490.81 81.21,-506.42 83.25,-519.73"/>
<polygon fill="black" stroke="black" stroke-width="3.42" points="79.82,-520.44 84.79,-529.8 86.74,-519.38 79.82,-520.44"/>
<text text-anchor="middle" x="118.92" y="-500.8" font-family="Sans Not-Rotated 14" font-size="14.00"> &#160;&#160;&#160;&#160;&#160;&#160;&#160;&#160;&#160;&#160;&#160;&#160;&#160;&#160;&#160;</text>
</g>
<!-- Red zone doctor&#45;&gt;Red zone doctor FD -->
<g id="edge2" class="edge">
<title>Red zone doctor&#45;&gt;Red zone doctor FD</title>
<path fill="none" stroke="black" stroke-width="3.46" d="M76.85,-442.88C78.85,-432.77 82.36,-420.03 88.42,-410 90.63,-406.34 93.33,-402.81 96.25,-399.5"/>
<polygon fill="black" stroke="black" stroke-width="3.46" points="98.88,-401.8 103.34,-392.19 93.86,-396.93 98.88,-401.8"/>
<text text-anchor="middle" x="124.92" y="-413.8" font-family="Sans Not-Rotated 14" font-size="14.00"> &#160;&#160;&#160;&#160;&#160;&#160;&#160;&#160;&#160;&#160;&#160;&#160;&#160;&#160;&#160;</text>
</g>
<!-- Notification operator&#45;&gt;Yellow zone doctor -->
<g id="edge10" class="edge">
<title>Notification operator&#45;&gt;Yellow zone doctor</title>
<path fill="none" stroke="black" stroke-width="1.57" d="M164.57,-131.16C182.15,-158.28 210.19,-211.99 187.42,-251 184.9,-255.31 181.64,-259.13 177.92,-262.51"/>
<polygon fill="black" stroke="black" stroke-width="1.57" points="175.52,-259.95 169.76,-268.84 179.81,-265.48 175.52,-259.95"/>
<text text-anchor="middle" x="215.92" y="-196.3" font-family="Sans Not-Rotated 14" font-size="14.00"> &#160;&#160;&#160;&#160;&#160;&#160;&#160;&#160;</text>
</g>
<!-- end -->
<g id="node8" class="node">
<title>end</title>
<ellipse fill="#ea4126" stroke="black" cx="152.42" cy="-22" rx="18" ry="18"/>
<ellipse fill="none" stroke="black" cx="152.42" cy="-22" rx="22" ry="22"/>
</g>
<!-- Notification operator&#45;&gt;end -->
<g id="edge7" class="edge">
<title>Notification operator&#45;&gt;end</title>
<path fill="none" stroke="black" stroke-dasharray="5,2" d="M152.42,-94.84C152.42,-83.44 152.42,-68.13 152.42,-54.58"/>
<polygon fill="black" stroke="black" points="155.92,-54.19 152.42,-44.19 148.92,-54.19 155.92,-54.19"/>
<text text-anchor="middle" x="172.92" y="-65.8" font-family="Sans Not-Rotated 14" font-size="14.00"> &#160;&#160;&#160;&#160;&#160;&#160;&#160;&#160;</text>
</g>
<!-- Yellow zone doctor&#45;&gt;Yellow zone doctor FD -->
<g id="edge3" class="edge">
<title>Yellow zone doctor&#45;&gt;Yellow zone doctor FD</title>
<path fill="none" stroke="black" stroke-width="3.58" d="M50.54,-269.03C42.67,-264.39 35.65,-258.5 30.42,-251 23.31,-240.81 28.98,-231.5 39.19,-223.76"/>
<polygon fill="black" stroke="black" stroke-width="3.58" points="41.3,-226.56 47.75,-218.15 37.46,-220.71 41.3,-226.56"/>
<text text-anchor="middle" x="66.92" y="-239.8" font-family="Sans Not-Rotated 14" font-size="14.00"> &#160;&#160;&#160;&#160;&#160;&#160;&#160;&#160;&#160;&#160;&#160;&#160;&#160;&#160;&#160;</text>
</g>
<!-- start -->
<g id="node7" class="node">
<title>start</title>
<ellipse fill="#95d600" stroke="black" cx="87.42" cy="-644.3" rx="27.1" ry="27.1"/>
<text text-anchor="middle" x="87.42" y="-640.6" font-family="Sans Not-Rotated 14" font-size="14.00">start</text>
</g>
<!-- start&#45;&gt;Red zone operator -->
<g id="edge11" class="edge">
<title>start&#45;&gt;Red zone operator</title>
<path fill="none" stroke="black" stroke-dasharray="5,2" d="M87.42,-616.78C87.42,-604.1 87.42,-588.93 87.42,-576.17"/>
<polygon fill="black" stroke="black" points="90.92,-576.12 87.42,-566.12 83.92,-576.12 90.92,-576.12"/>
<text text-anchor="middle" x="107.92" y="-587.8" font-family="Sans Not-Rotated 14" font-size="14.00"> &#160;&#160;&#160;&#160;&#160;&#160;&#160;&#160;</text>
</g>
</g>
</svg>
