<?xml version="1.0" encoding="UTF-8" standalone="no"?>
<!DOCTYPE svg PUBLIC "-//W3C//DTD SVG 1.1//EN"
 "http://www.w3.org/Graphics/SVG/1.1/DTD/svg11.dtd">
<!-- Generated by graphviz version 3.0.0 (20220226.1711)
 -->
<!-- Pages: 1 -->
<svg width="1001pt" height="593pt"
 viewBox="0.00 0.00 1001.00 592.60" xmlns="http://www.w3.org/2000/svg" xmlns:xlink="http://www.w3.org/1999/xlink">
<g id="graph0" class="graph" transform="scale(1 1) rotate(0) translate(4 588.6)">
<polygon fill="white" stroke="transparent" points="-4,4 -4,-588.6 997,-588.6 997,4 -4,4"/>
<!-- Red zone operator -->
<g id="node1" class="node">
<title>Red zone operator</title>
<polygon fill="#1d2559" stroke="black" points="387.5,-479 242.5,-479 242.5,-443 387.5,-443 387.5,-479"/>
<text text-anchor="middle" x="315" y="-457.3" font-family="Sans Not-Rotated 14" font-size="14.00" fill="white">Red zone operator</text>
</g>
<!-- Red zone operator&#45;&gt;Red zone operator -->
<g id="edge30" class="edge">
<title>Red zone operator&#45;&gt;Red zone operator</title>
<path fill="none" stroke="black" stroke-width="1.5" d="M387.79,-468.11C398.37,-466.98 405.5,-464.61 405.5,-461 405.5,-458.69 402.57,-456.88 397.69,-455.59"/>
<polygon fill="black" stroke="black" stroke-width="1.5" points="398.24,-452.13 387.79,-453.89 397.05,-459.03 398.24,-452.13"/>
<text text-anchor="middle" x="426" y="-457.3" font-family="Sans Not-Rotated 14" font-size="14.00"> &#160;&#160;&#160;&#160;&#160;&#160;&#160;&#160;</text>
</g>
<!-- Red zone doctor FD -->
<g id="node2" class="node">
<title>Red zone doctor FD</title>
<polygon fill="#1d2559" stroke="black" points="512.5,-392 359.5,-392 359.5,-356 512.5,-356 512.5,-392"/>
<text text-anchor="middle" x="436" y="-370.3" font-family="Sans Not-Rotated 14" font-size="14.00" fill="white">Red zone doctor FD</text>
</g>
<!-- Red zone operator&#45;&gt;Red zone doctor FD -->
<g id="edge6" class="edge">
<title>Red zone operator&#45;&gt;Red zone doctor FD</title>
<path fill="none" stroke="black" stroke-width="3.33" d="M317.74,-442.65C320.27,-431.95 325.06,-418.65 334,-410 339.27,-404.9 345.32,-400.54 351.78,-396.81"/>
<polygon fill="black" stroke="black" stroke-width="3.33" points="353.56,-399.83 360.82,-392.11 350.33,-393.62 353.56,-399.83"/>
<text text-anchor="middle" x="370.5" y="-413.8" font-family="Sans Not-Rotated 14" font-size="14.00"> &#160;&#160;&#160;&#160;&#160;&#160;&#160;&#160;&#160;&#160;&#160;&#160;&#160;&#160;&#160;</text>
</g>
<!-- Yellow zone doctor FD -->
<g id="node3" class="node">
<title>Yellow zone doctor FD</title>
<polygon fill="#ffffff" stroke="black" points="351.5,-131 178.5,-131 178.5,-95 351.5,-95 351.5,-131"/>
<text text-anchor="middle" x="265" y="-109.3" font-family="Sans Not-Rotated 14" font-size="14.00">Yellow zone doctor FD</text>
</g>
<!-- Red zone operator&#45;&gt;Yellow zone doctor FD -->
<g id="edge13" class="edge">
<title>Red zone operator&#45;&gt;Yellow zone doctor FD</title>
<path fill="none" stroke="black" stroke-width="1.05" d="M242.34,-454.93C149.31,-446.39 0,-424.92 0,-375 0,-375 0,-375 0,-199 0,-157.82 39.72,-164.18 78,-149 79.19,-148.53 123.37,-140.25 168.47,-131.87"/>
<polygon fill="black" stroke="black" stroke-width="1.05" points="169.21,-135.29 178.4,-130.02 167.93,-128.41 169.21,-135.29"/>
<text text-anchor="middle" x="9.5" y="-283.3" font-family="Sans Not-Rotated 14" font-size="14.00"> &#160;&#160;&#160;</text>
</g>
<!-- Red zone doctor -->
<g id="node4" class="node">
<title>Red zone doctor</title>
<polygon fill="#5661c6" stroke="black" points="777.5,-40 648.5,-40 648.5,-4 777.5,-4 777.5,-40"/>
<text text-anchor="middle" x="713" y="-18.3" font-family="Sans Not-Rotated 14" font-size="14.00" fill="white">Red zone doctor</text>
</g>
<!-- Red zone operator&#45;&gt;Red zone doctor -->
<g id="edge14" class="edge">
<title>Red zone operator&#45;&gt;Red zone doctor</title>
<path fill="none" stroke="black" stroke-width="5" d="M387.61,-456.64C541.4,-448.54 886,-424.83 886,-375 886,-375 886,-375 886,-112 886,-64.86 834.58,-42.66 787.8,-32.23"/>
<polygon fill="black" stroke="black" stroke-width="5" points="788.59,-27.92 777.91,-30.18 786.81,-36.49 788.59,-27.92"/>
<text text-anchor="middle" x="922.5" y="-239.8" font-family="Sans Not-Rotated 14" font-size="14.00"> &#160;&#160;&#160;&#160;&#160;&#160;&#160;&#160;&#160;&#160;&#160;&#160;&#160;&#160;&#160;</text>
</g>
<!-- Yellow zone doctor -->
<g id="node6" class="node">
<title>Yellow zone doctor</title>
<polygon fill="#ffffff" stroke="black" points="446.5,-305 297.5,-305 297.5,-269 446.5,-269 446.5,-305"/>
<text text-anchor="middle" x="372" y="-283.3" font-family="Sans Not-Rotated 14" font-size="14.00">Yellow zone doctor</text>
</g>
<!-- Red zone operator&#45;&gt;Yellow zone doctor -->
<g id="edge24" class="edge">
<title>Red zone operator&#45;&gt;Yellow zone doctor</title>
<path fill="none" stroke="black" stroke-width="1.19" d="M286.59,-442.92C257.65,-423.19 219.35,-389.17 237,-356 248.59,-334.21 269.89,-319.26 292.19,-309.05"/>
<polygon fill="black" stroke="black" stroke-width="1.19" points="293.62,-312.25 301.44,-305.1 290.87,-305.81 293.62,-312.25"/>
<text text-anchor="middle" x="257.5" y="-370.3" font-family="Sans Not-Rotated 14" font-size="14.00"> &#160;&#160;&#160;&#160;&#160;&#160;&#160;&#160;</text>
</g>
<!-- Red zone doctor FD&#45;&gt;Red zone operator -->
<g id="edge2" class="edge">
<title>Red zone doctor FD&#45;&gt;Red zone operator</title>
<path fill="none" stroke="black" stroke-width="3.43" d="M430.99,-392.35C427.1,-403.05 420.7,-416.34 411,-425 405.23,-430.15 398.64,-434.56 391.68,-438.33"/>
<polygon fill="black" stroke="black" stroke-width="3.43" points="390.1,-435.2 382.69,-442.78 393.21,-441.48 390.1,-435.2"/>
<text text-anchor="middle" x="459.5" y="-413.8" font-family="Sans Not-Rotated 14" font-size="14.00"> &#160;&#160;&#160;&#160;&#160;&#160;&#160;&#160;&#160;&#160;&#160;&#160;&#160;&#160;&#160;</text>
</g>
<!-- Red zone doctor FD&#45;&gt;Red zone doctor FD -->
<g id="edge31" class="edge">
<title>Red zone doctor FD&#45;&gt;Red zone doctor FD</title>
<path fill="none" stroke="black" stroke-width="2.53" d="M512.75,-381.03C523.39,-379.87 530.5,-377.53 530.5,-374 530.5,-371.74 527.58,-369.97 522.69,-368.68"/>
<polygon fill="black" stroke="black" stroke-width="2.53" points="523.2,-365.22 512.75,-366.97 522.02,-372.12 523.2,-365.22"/>
<text text-anchor="middle" x="567" y="-370.3" font-family="Sans Not-Rotated 14" font-size="14.00"> &#160;&#160;&#160;&#160;&#160;&#160;&#160;&#160;&#160;&#160;&#160;&#160;&#160;&#160;&#160;</text>
</g>
<!-- Red zone doctor FD&#45;&gt;Yellow zone doctor FD -->
<g id="edge10" class="edge">
<title>Red zone doctor FD&#45;&gt;Yellow zone doctor FD</title>
<path fill="none" stroke="black" stroke-width="1.47" d="M359.18,-356.73C320.24,-348.4 280.24,-339.65 276,-338 191.8,-305.33 150.8,-299.56 112,-218 105.13,-203.55 103.28,-195.42 112,-182 126.4,-159.85 149.86,-144.85 174.13,-134.73"/>
<polygon fill="black" stroke="black" stroke-width="1.47" points="175.42,-137.98 183.45,-131.08 172.87,-131.46 175.42,-137.98"/>
<text text-anchor="middle" x="151.5" y="-239.8" font-family="Sans Not-Rotated 14" font-size="14.00"> &#160;&#160;&#160;&#160;&#160;&#160;&#160;&#160;</text>
</g>
<!-- Red zone doctor FD&#45;&gt;Red zone doctor -->
<g id="edge15" class="edge">
<title>Red zone doctor FD&#45;&gt;Red zone doctor</title>
<path fill="none" stroke="black" stroke-width="1.7" d="M468.21,-355.9C477.19,-350.61 486.74,-344.45 495,-338 574.1,-276.19 587.76,-250.32 639,-164 662.1,-125.08 685.91,-78.28 700.09,-49.59"/>
<polygon fill="black" stroke="black" stroke-width="1.7" points="703.41,-50.76 704.68,-40.24 697.13,-47.68 703.41,-50.76"/>
<text text-anchor="middle" x="647.5" y="-196.3" font-family="Sans Not-Rotated 14" font-size="14.00"> &#160;&#160;&#160;&#160;&#160;&#160;&#160;&#160;</text>
</g>
<!-- Notification operator -->
<g id="node5" class="node">
<title>Notification operator</title>
<polygon fill="#a09dde" stroke="black" points="280.5,-218 121.5,-218 121.5,-182 280.5,-182 280.5,-218"/>
<text text-anchor="middle" x="201" y="-196.3" font-family="Sans Not-Rotated 14" font-size="14.00">Notification operator</text>
</g>
<!-- Red zone doctor FD&#45;&gt;Notification operator -->
<g id="edge18" class="edge">
<title>Red zone doctor FD&#45;&gt;Notification operator</title>
<path fill="none" stroke="black" stroke-width="1.55" d="M372.1,-355.87C324.89,-342.16 265.69,-322.41 247,-305 224.95,-284.46 212.84,-251.45 206.66,-228.13"/>
<polygon fill="black" stroke="black" stroke-width="1.55" points="210,-227.06 204.22,-218.18 203.2,-228.73 210,-227.06"/>
<text text-anchor="middle" x="267.5" y="-283.3" font-family="Sans Not-Rotated 14" font-size="14.00"> &#160;&#160;&#160;&#160;&#160;&#160;&#160;&#160;</text>
</g>
<!-- Red zone doctor FD&#45;&gt;Yellow zone doctor -->
<g id="edge20" class="edge">
<title>Red zone doctor FD&#45;&gt;Yellow zone doctor</title>
<path fill="none" stroke="black" stroke-width="2.03" d="M387.15,-355.81C379.91,-351.14 373.42,-345.3 369,-338 364.97,-331.35 364.12,-323.25 364.72,-315.52"/>
<polygon fill="black" stroke="black" stroke-width="2.03" points="368.22,-315.8 366.28,-305.39 361.3,-314.74 368.22,-315.8"/>
<text text-anchor="middle" x="389.5" y="-326.8" font-family="Sans Not-Rotated 14" font-size="14.00"> &#160;&#160;&#160;&#160;&#160;&#160;&#160;&#160;</text>
</g>
<!-- Yellow zone doctor FD&#45;&gt;Red zone operator -->
<g id="edge4" class="edge">
<title>Yellow zone doctor FD&#45;&gt;Red zone operator</title>
<path fill="none" stroke="black" stroke-width="1.67" d="M178.2,-129.99C159.85,-134.89 140.92,-141.13 124,-149 89.66,-164.97 55,-161.13 55,-199 55,-375 55,-375 55,-375 55,-412.89 156.04,-436.57 232.14,-449.04"/>
<polygon fill="black" stroke="black" stroke-width="1.67" points="231.8,-452.53 242.23,-450.65 232.91,-445.61 231.8,-452.53"/>
<text text-anchor="middle" x="75.5" y="-283.3" font-family="Sans Not-Rotated 14" font-size="14.00"> &#160;&#160;&#160;&#160;&#160;&#160;&#160;&#160;</text>
</g>
<!-- Yellow zone doctor FD&#45;&gt;Red zone doctor FD -->
<g id="edge7" class="edge">
<title>Yellow zone doctor FD&#45;&gt;Red zone doctor FD</title>
<path fill="none" stroke="black" stroke-width="1.3" d="M351.72,-124.71C419.23,-135.1 504.75,-153.53 525,-182 563.86,-236.64 501.46,-310.94 462.87,-348.75"/>
<polygon fill="black" stroke="black" stroke-width="1.3" points="460.31,-346.36 455.51,-355.8 465.15,-351.41 460.31,-346.36"/>
<text text-anchor="middle" x="556.5" y="-239.8" font-family="Sans Not-Rotated 14" font-size="14.00"> &#160;&#160;&#160;&#160;&#160;&#160;&#160;&#160;</text>
</g>
<!-- Yellow zone doctor FD&#45;&gt;Red zone doctor -->
<g id="edge16" class="edge">
<title>Yellow zone doctor FD&#45;&gt;Red zone doctor</title>
<path fill="none" stroke="black" stroke-width="1.26" d="M305.03,-94.94C332.43,-83.94 369.83,-70.2 404,-62 482.7,-43.12 574.99,-32.99 638.09,-27.83"/>
<polygon fill="black" stroke="black" stroke-width="1.26" points="638.65,-31.29 648.35,-27.01 638.1,-24.31 638.65,-31.29"/>
<text text-anchor="middle" x="424.5" y="-65.8" font-family="Sans Not-Rotated 14" font-size="14.00"> &#160;&#160;&#160;&#160;&#160;&#160;&#160;&#160;</text>
</g>
<!-- Yellow zone doctor FD&#45;&gt;Notification operator -->
<g id="edge17" class="edge">
<title>Yellow zone doctor FD&#45;&gt;Notification operator</title>
<path fill="none" stroke="black" stroke-width="1.92" d="M259.65,-131.26C255.97,-141.41 250.41,-154.15 243,-164 240.09,-167.87 236.66,-171.59 233.05,-175.07"/>
<polygon fill="black" stroke="black" stroke-width="1.92" points="230.61,-172.56 225.47,-181.82 235.26,-177.78 230.61,-172.56"/>
<text text-anchor="middle" x="272.5" y="-152.8" font-family="Sans Not-Rotated 14" font-size="14.00"> &#160;&#160;&#160;&#160;&#160;&#160;&#160;&#160;</text>
</g>
<!-- Yellow zone doctor FD&#45;&gt;Yellow zone doctor -->
<g id="edge21" class="edge">
<title>Yellow zone doctor FD&#45;&gt;Yellow zone doctor</title>
<path fill="none" stroke="black" stroke-width="2.14" d="M351.56,-126.13C385.26,-135.55 420.62,-152.28 441,-182 459.88,-209.53 431.04,-241.59 405.09,-262.76"/>
<polygon fill="black" stroke="black" stroke-width="2.14" points="402.89,-260.03 397.18,-268.96 407.21,-265.54 402.89,-260.03"/>
<text text-anchor="middle" x="484.5" y="-196.3" font-family="Sans Not-Rotated 14" font-size="14.00"> &#160;&#160;&#160;&#160;&#160;&#160;&#160;&#160;&#160;&#160;&#160;&#160;&#160;&#160;&#160;</text>
</g>
<!-- end -->
<g id="node8" class="node">
<title>end</title>
<ellipse fill="#ea4126" stroke="black" cx="148" cy="-22" rx="18" ry="18"/>
<ellipse fill="none" stroke="black" cx="148" cy="-22" rx="22" ry="22"/>
</g>
<!-- Yellow zone doctor FD&#45;&gt;end -->
<g id="edge26" class="edge">
<title>Yellow zone doctor FD&#45;&gt;end</title>
<path fill="none" stroke="black" stroke-dasharray="5,2" d="M242.44,-94.84C222.6,-79.75 193.75,-57.8 173.16,-42.14"/>
<polygon fill="black" stroke="black" points="175.25,-39.33 165.17,-36.06 171.01,-44.9 175.25,-39.33"/>
<text text-anchor="middle" x="226.5" y="-65.8" font-family="Sans Not-Rotated 14" font-size="14.00"> &#160;&#160;&#160;</text>
</g>
<!-- Red zone doctor&#45;&gt;Red zone operator -->
<g id="edge1" class="edge">
<title>Red zone doctor&#45;&gt;Red zone operator</title>
<path fill="none" stroke="black" stroke-width="3.46" d="M731.32,-40.39C758.34,-67.53 807.46,-123 824,-182 828.32,-197.41 832.17,-204.24 824,-218 815.47,-232.37 802.42,-223.81 791,-236 767.89,-260.67 779.98,-278.49 759,-305 671.47,-415.59 499.89,-447.51 397.56,-456.57"/>
<polygon fill="black" stroke="black" stroke-width="3.46" points="397.24,-453.09 387.57,-457.4 397.83,-460.06 397.24,-453.09"/>
<text text-anchor="middle" x="827.5" y="-239.8" font-family="Sans Not-Rotated 14" font-size="14.00"> &#160;&#160;&#160;&#160;&#160;&#160;&#160;&#160;&#160;&#160;&#160;&#160;&#160;&#160;&#160;</text>
</g>
<!-- Red zone doctor&#45;&gt;Red zone doctor FD -->
<g id="edge5" class="edge">
<title>Red zone doctor&#45;&gt;Red zone doctor FD</title>
<path fill="none" stroke="black" stroke-width="3.5" d="M723.94,-40.32C733.88,-57.74 747,-85.7 747,-112 747,-288 747,-288 747,-288 747,-323.75 716.85,-323.9 684,-338 633.27,-359.78 571.86,-368.57 522.83,-371.89"/>
<polygon fill="black" stroke="black" stroke-width="3.5" points="522.34,-368.41 512.57,-372.52 522.77,-375.4 522.34,-368.41"/>
<text text-anchor="middle" x="783.5" y="-196.3" font-family="Sans Not-Rotated 14" font-size="14.00"> &#160;&#160;&#160;&#160;&#160;&#160;&#160;&#160;&#160;&#160;&#160;&#160;&#160;&#160;&#160;</text>
</g>
<!-- Red zone doctor&#45;&gt;Yellow zone doctor FD -->
<g id="edge12" class="edge">
<title>Red zone doctor&#45;&gt;Yellow zone doctor FD</title>
<path fill="none" stroke="black" stroke-width="1.08" d="M648.4,-35.83C572.88,-50.84 447.2,-75.8 360.44,-93.04"/>
<polygon fill="black" stroke="black" stroke-width="1.08" points="359.71,-89.62 350.58,-95 361.07,-96.48 359.71,-89.62"/>
<text text-anchor="middle" x="536.5" y="-65.8" font-family="Sans Not-Rotated 14" font-size="14.00"> &#160;&#160;&#160;&#160;&#160;&#160;&#160;&#160;</text>
</g>
<!-- Red zone doctor&#45;&gt;Red zone doctor -->
<g id="edge32" class="edge">
<title>Red zone doctor&#45;&gt;Red zone doctor</title>
<path fill="none" stroke="black" stroke-width="1.22" d="M777.68,-29.98C788.24,-28.84 795.5,-26.18 795.5,-22 795.5,-19.32 792.52,-17.27 787.6,-15.84"/>
<polygon fill="black" stroke="black" stroke-width="1.22" points="788.15,-12.38 777.68,-14.02 786.88,-19.27 788.15,-12.38"/>
<text text-anchor="middle" x="816" y="-18.3" font-family="Sans Not-Rotated 14" font-size="14.00"> &#160;&#160;&#160;&#160;&#160;&#160;&#160;&#160;</text>
</g>
<!-- Red zone doctor&#45;&gt;Yellow zone doctor -->
<g id="edge23" class="edge">
<title>Red zone doctor&#45;&gt;Yellow zone doctor</title>
<path fill="none" stroke="black" stroke-width="1.24" d="M690.91,-40.23C682.85,-46.8 673.81,-54.52 666,-62 598.53,-126.67 600.68,-163.16 525,-218 497.51,-237.92 463.25,-253.82 434.13,-265.22"/>
<polygon fill="black" stroke="black" stroke-width="1.24" points="432.56,-262.07 424.47,-268.91 435.06,-268.61 432.56,-262.07"/>
<text text-anchor="middle" x="614.5" y="-152.8" font-family="Sans Not-Rotated 14" font-size="14.00"> &#160;&#160;&#160;&#160;&#160;&#160;&#160;&#160;</text>
</g>
<!-- Notification operator&#45;&gt;Red zone operator -->
<g id="edge27" class="edge">
<title>Notification operator&#45;&gt;Red zone operator</title>
<path fill="none" stroke="black" stroke-width="1.34" d="M198.64,-218.16C193.95,-259.92 188.32,-367.62 245,-425 249.75,-429.81 255.29,-434.07 261.14,-437.81"/>
<polygon fill="black" stroke="black" stroke-width="1.34" points="259.48,-440.89 269.88,-442.93 263.02,-434.85 259.48,-440.89"/>
<text text-anchor="middle" x="223.5" y="-326.8" font-family="Sans Not-Rotated 14" font-size="14.00"> &#160;&#160;&#160;&#160;&#160;&#160;&#160;&#160;</text>
</g>
<!-- Notification operator&#45;&gt;Yellow zone doctor FD -->
<g id="edge11" class="edge">
<title>Notification operator&#45;&gt;Yellow zone doctor FD</title>
<path fill="none" stroke="black" stroke-width="1.28" d="M197.26,-181.61C196.01,-171.41 196.18,-158.67 202,-149 204.67,-144.56 208.13,-140.64 212.05,-137.18"/>
<polygon fill="black" stroke="black" stroke-width="1.28" points="214.21,-139.94 220.07,-131.11 209.99,-134.36 214.21,-139.94"/>
<text text-anchor="middle" x="222.5" y="-152.8" font-family="Sans Not-Rotated 14" font-size="14.00"> &#160;&#160;&#160;&#160;&#160;&#160;&#160;&#160;</text>
</g>
<!-- Notification operator&#45;&gt;Notification operator -->
<g id="edge33" class="edge">
<title>Notification operator&#45;&gt;Notification operator</title>
<path fill="none" stroke="black" stroke-width="2.04" d="M280.57,-206.99C291.33,-205.82 298.5,-203.49 298.5,-200 298.5,-197.77 295.56,-196.01 290.62,-194.72"/>
<polygon fill="black" stroke="black" stroke-width="2.04" points="291.02,-191.24 280.57,-193.01 289.84,-198.14 291.02,-191.24"/>
<text text-anchor="middle" x="319" y="-196.3" font-family="Sans Not-Rotated 14" font-size="14.00"> &#160;&#160;&#160;&#160;&#160;&#160;&#160;&#160;</text>
</g>
<!-- Notification operator&#45;&gt;Yellow zone doctor -->
<g id="edge22" class="edge">
<title>Notification operator&#45;&gt;Yellow zone doctor</title>
<path fill="none" stroke="black" stroke-width="1.66" d="M255.62,-218.03C269.72,-223.15 284.67,-229.23 298,-236 300.29,-237.17 320.09,-250.55 338.62,-263.18"/>
<polygon fill="black" stroke="black" stroke-width="1.66" points="336.75,-266.14 346.99,-268.88 340.7,-260.36 336.75,-266.14"/>
<text text-anchor="middle" x="340.5" y="-239.8" font-family="Sans Not-Rotated 14" font-size="14.00"> &#160;&#160;&#160;&#160;&#160;&#160;&#160;&#160;</text>
</g>
<!-- Notification operator&#45;&gt;end -->
<g id="edge25" class="edge">
<title>Notification operator&#45;&gt;end</title>
<path fill="none" stroke="black" stroke-dasharray="5,2" d="M173.37,-181.89C156.83,-169.92 137.26,-152.28 128,-131 116.8,-105.26 125.09,-73.41 134.17,-50.99"/>
<polygon fill="black" stroke="black" points="137.43,-52.27 138.19,-41.7 131,-49.49 137.43,-52.27"/>
<text text-anchor="middle" x="148.5" y="-109.3" font-family="Sans Not-Rotated 14" font-size="14.00"> &#160;&#160;&#160;&#160;&#160;&#160;&#160;&#160;</text>
</g>
<!-- Yellow zone doctor&#45;&gt;Red zone operator -->
<g id="edge28" class="edge">
<title>Yellow zone doctor&#45;&gt;Red zone operator</title>
<path fill="none" stroke="black" stroke-width="1.18" d="M349.03,-305.11C334.52,-317.44 317.05,-335.47 309,-356 299.3,-380.74 302.71,-411.35 307.38,-432.93"/>
<polygon fill="black" stroke="black" stroke-width="1.18" points="304,-433.83 309.72,-442.74 310.8,-432.2 304,-433.83"/>
<text text-anchor="middle" x="329.5" y="-370.3" font-family="Sans Not-Rotated 14" font-size="14.00"> &#160;&#160;&#160;&#160;&#160;&#160;&#160;&#160;</text>
</g>
<!-- Yellow zone doctor&#45;&gt;Red zone doctor FD -->
<g id="edge8" class="edge">
<title>Yellow zone doctor&#45;&gt;Red zone doctor FD</title>
<path fill="none" stroke="black" stroke-width="1.25" d="M396.47,-305.18C402.74,-310.39 409.09,-316.48 414,-323 419.27,-330 423.6,-338.47 426.99,-346.42"/>
<polygon fill="black" stroke="black" stroke-width="1.25" points="423.74,-347.71 430.65,-355.74 430.25,-345.16 423.74,-347.71"/>
<text text-anchor="middle" x="443.5" y="-326.8" font-family="Sans Not-Rotated 14" font-size="14.00"> &#160;&#160;&#160;&#160;&#160;&#160;&#160;&#160;</text>
</g>
<!-- Yellow zone doctor&#45;&gt;Yellow zone doctor FD -->
<g id="edge9" class="edge">
<title>Yellow zone doctor&#45;&gt;Yellow zone doctor FD</title>
<path fill="none" stroke="black" stroke-width="3.62" d="M371.51,-268.81C370.16,-247.01 365.27,-209.01 348,-182 336.46,-163.96 318.55,-148.41 302.31,-136.75"/>
<polygon fill="black" stroke="black" stroke-width="3.62" points="304.23,-133.82 294.02,-131.02 300.25,-139.58 304.23,-133.82"/>
<text text-anchor="middle" x="400.5" y="-196.3" font-family="Sans Not-Rotated 14" font-size="14.00"> &#160;&#160;&#160;&#160;&#160;&#160;&#160;&#160;&#160;&#160;&#160;&#160;&#160;&#160;&#160;</text>
</g>
<!-- Yellow zone doctor&#45;&gt;Notification operator -->
<g id="edge19" class="edge">
<title>Yellow zone doctor&#45;&gt;Notification operator</title>
<path fill="none" stroke="black" stroke-width="1.34" d="M298.87,-268.96C284.51,-264.19 269.92,-258.26 257,-251 244.99,-244.25 233.34,-234.54 223.82,-225.48"/>
<polygon fill="black" stroke="black" stroke-width="1.34" points="226.24,-222.95 216.66,-218.41 221.32,-227.93 226.24,-222.95"/>
<text text-anchor="middle" x="277.5" y="-239.8" font-family="Sans Not-Rotated 14" font-size="14.00"> &#160;&#160;&#160;&#160;&#160;&#160;&#160;&#160;</text>
</g>
<!-- start -->
<g id="node7" class="node">
<title>start</title>
<ellipse fill="#95d600" stroke="black" cx="649" cy="-557.3" rx="27.1" ry="27.1"/>
<text text-anchor="middle" x="649" y="-553.6" font-family="Sans Not-Rotated 14" font-size="14.00">start</text>
</g>
<!-- start&#45;&gt;Red zone operator -->
<g id="edge3" class="edge">
<title>start&#45;&gt;Red zone operator</title>
<path fill="none" stroke="black" stroke-dasharray="5,2" d="M622.79,-548.9C572.09,-534.58 459.06,-502.67 384.99,-481.76"/>
<polygon fill="black" stroke="black" points="385.84,-478.36 375.26,-479.01 383.93,-485.1 385.84,-478.36"/>
<text text-anchor="middle" x="513.5" y="-500.8" font-family="Sans Not-Rotated 14" font-size="14.00"> &#160;&#160;&#160;&#160;&#160;&#160;&#160;&#160;</text>
</g>
<!-- start&#45;&gt;Red zone doctor -->
<g id="edge29" class="edge">
<title>start&#45;&gt;Red zone doctor</title>
<path fill="none" stroke="black" stroke-dasharray="5,2" d="M676.15,-554.28C754.26,-547.74 974,-523.84 974,-462 974,-462 974,-462 974,-112 974,-72.37 864.83,-46.77 787.7,-33.64"/>
<polygon fill="black" stroke="black" points="787.96,-30.13 777.52,-31.94 786.81,-37.03 787.96,-30.13"/>
<text text-anchor="middle" x="983.5" y="-283.3" font-family="Sans Not-Rotated 14" font-size="14.00"> &#160;&#160;&#160;</text>
</g>
</g>
</svg>
