<?xml version="1.0" encoding="UTF-8" standalone="no"?>
<!DOCTYPE svg PUBLIC "-//W3C//DTD SVG 1.1//EN"
 "http://www.w3.org/Graphics/SVG/1.1/DTD/svg11.dtd">
<!-- Generated by graphviz version 3.0.0 (20220226.1711)
 -->
<!-- Pages: 1 -->
<svg width="887pt" height="593pt"
 viewBox="0.00 0.00 887.00 592.60" xmlns="http://www.w3.org/2000/svg" xmlns:xlink="http://www.w3.org/1999/xlink">
<g id="graph0" class="graph" transform="scale(1 1) rotate(0) translate(4 588.6)">
<polygon fill="white" stroke="transparent" points="-4,4 -4,-588.6 883,-588.6 883,4 -4,4"/>
<!-- Red zone operator -->
<g id="node1" class="node">
<title>Red zone operator</title>
<polygon fill="#1d2559" stroke="black" points="523.5,-479 378.5,-479 378.5,-443 523.5,-443 523.5,-479"/>
<text text-anchor="middle" x="451" y="-457.3" font-family="Sans Not-Rotated 14" font-size="14.00" fill="white">Red zone operator</text>
</g>
<!-- Red zone operator&#45;&gt;Red zone operator -->
<g id="edge23" class="edge">
<title>Red zone operator&#45;&gt;Red zone operator</title>
<path fill="none" stroke="black" stroke-width="1.41" d="M523.79,-468.11C534.37,-466.98 541.5,-464.61 541.5,-461 541.5,-458.69 538.57,-456.88 533.69,-455.59"/>
<polygon fill="black" stroke="black" stroke-width="1.41" points="534.24,-452.13 523.79,-453.89 533.05,-459.03 534.24,-452.13"/>
<text text-anchor="middle" x="562" y="-457.3" font-family="Sans Not-Rotated 14" font-size="14.00"> &#160;&#160;&#160;&#160;&#160;&#160;&#160;&#160;</text>
</g>
<!-- Red zone doctor FD -->
<g id="node2" class="node">
<title>Red zone doctor FD</title>
<polygon fill="#1d2559" stroke="black" points="527.5,-392 374.5,-392 374.5,-356 527.5,-356 527.5,-392"/>
<text text-anchor="middle" x="451" y="-370.3" font-family="Sans Not-Rotated 14" font-size="14.00" fill="white">Red zone doctor FD</text>
</g>
<!-- Red zone operator&#45;&gt;Red zone doctor FD -->
<g id="edge5" class="edge">
<title>Red zone operator&#45;&gt;Red zone doctor FD</title>
<path fill="none" stroke="black" stroke-width="3.29" d="M416.19,-442.94C409.68,-438.08 403.75,-432.13 400,-425 394.82,-415.16 399.53,-406.07 407.84,-398.42"/>
<polygon fill="black" stroke="black" stroke-width="3.29" points="410.21,-401.01 415.91,-392.09 405.88,-395.51 410.21,-401.01"/>
<text text-anchor="middle" x="436.5" y="-413.8" font-family="Sans Not-Rotated 14" font-size="14.00"> &#160;&#160;&#160;&#160;&#160;&#160;&#160;&#160;&#160;&#160;&#160;&#160;&#160;&#160;&#160;</text>
</g>
<!-- Red zone doctor -->
<g id="node4" class="node">
<title>Red zone doctor</title>
<polygon fill="#5661c6" stroke="black" points="659.5,-131 530.5,-131 530.5,-95 659.5,-95 659.5,-131"/>
<text text-anchor="middle" x="595" y="-109.3" font-family="Sans Not-Rotated 14" font-size="14.00" fill="white">Red zone doctor</text>
</g>
<!-- Red zone operator&#45;&gt;Red zone doctor -->
<g id="edge8" class="edge">
<title>Red zone operator&#45;&gt;Red zone doctor</title>
<path fill="none" stroke="black" stroke-width="5" d="M523.81,-449.25C596.35,-436.44 697,-412 697,-375 697,-375 697,-375 697,-199 697,-170.57 673.32,-149.8 648.78,-135.91"/>
<polygon fill="black" stroke="black" stroke-width="5" points="650.62,-131.94 639.74,-131.11 646.51,-139.66 650.62,-131.94"/>
<text text-anchor="middle" x="733.5" y="-283.3" font-family="Sans Not-Rotated 14" font-size="14.00"> &#160;&#160;&#160;&#160;&#160;&#160;&#160;&#160;&#160;&#160;&#160;&#160;&#160;&#160;&#160;</text>
</g>
<!-- Red zone doctor FD&#45;&gt;Red zone operator -->
<g id="edge2" class="edge">
<title>Red zone doctor FD&#45;&gt;Red zone operator</title>
<path fill="none" stroke="black" stroke-width="3.39" d="M467.99,-392.44C475.02,-401.78 480.75,-413.67 477,-425 475.95,-428.16 474.5,-431.27 472.81,-434.25"/>
<polygon fill="black" stroke="black" stroke-width="3.39" points="469.79,-432.46 467.19,-442.73 475.63,-436.33 469.79,-432.46"/>
<text text-anchor="middle" x="515.5" y="-413.8" font-family="Sans Not-Rotated 14" font-size="14.00"> &#160;&#160;&#160;&#160;&#160;&#160;&#160;&#160;&#160;&#160;&#160;&#160;&#160;&#160;&#160;</text>
</g>
<!-- Red zone doctor FD&#45;&gt;Red zone doctor FD -->
<g id="edge24" class="edge">
<title>Red zone doctor FD&#45;&gt;Red zone doctor FD</title>
<path fill="none" stroke="black" stroke-width="2.47" d="M527.75,-381.03C538.39,-379.87 545.5,-377.53 545.5,-374 545.5,-371.74 542.58,-369.97 537.69,-368.68"/>
<polygon fill="black" stroke="black" stroke-width="2.47" points="538.2,-365.22 527.75,-366.97 537.02,-372.12 538.2,-365.22"/>
<text text-anchor="middle" x="582" y="-370.3" font-family="Sans Not-Rotated 14" font-size="14.00"> &#160;&#160;&#160;&#160;&#160;&#160;&#160;&#160;&#160;&#160;&#160;&#160;&#160;&#160;&#160;</text>
</g>
<!-- Yellow zone doctor FD -->
<g id="node3" class="node">
<title>Yellow zone doctor FD</title>
<polygon fill="#ffffff" stroke="black" points="252.5,-218 79.5,-218 79.5,-182 252.5,-182 252.5,-218"/>
<text text-anchor="middle" x="166" y="-196.3" font-family="Sans Not-Rotated 14" font-size="14.00">Yellow zone doctor FD</text>
</g>
<!-- Red zone doctor FD&#45;&gt;Yellow zone doctor FD -->
<g id="edge7" class="edge">
<title>Red zone doctor FD&#45;&gt;Yellow zone doctor FD</title>
<path fill="none" stroke="black" stroke-width="1.38" d="M380.77,-355.98C338.52,-344.4 284.31,-327.17 239,-305 200.8,-286.31 179.85,-288.61 160,-251 156.31,-244.01 155.98,-235.72 157.08,-227.93"/>
<polygon fill="black" stroke="black" stroke-width="1.38" points="160.52,-228.62 159.22,-218.11 153.67,-227.14 160.52,-228.62"/>
<text text-anchor="middle" x="259.5" y="-283.3" font-family="Sans Not-Rotated 14" font-size="14.00"> &#160;&#160;&#160;&#160;&#160;&#160;&#160;&#160;</text>
</g>
<!-- Red zone doctor FD&#45;&gt;Red zone doctor -->
<g id="edge17" class="edge">
<title>Red zone doctor FD&#45;&gt;Red zone doctor</title>
<path fill="none" stroke="black" stroke-width="1.61" d="M494.97,-355.89C536.09,-337.15 594.69,-302.7 619,-251 635.82,-215.23 621.31,-169.19 608.67,-140.64"/>
<polygon fill="black" stroke="black" stroke-width="1.61" points="611.72,-138.9 604.33,-131.31 605.38,-141.85 611.72,-138.9"/>
<text text-anchor="middle" x="644.5" y="-239.8" font-family="Sans Not-Rotated 14" font-size="14.00"> &#160;&#160;&#160;&#160;&#160;&#160;&#160;&#160;</text>
</g>
<!-- Notification operator -->
<g id="node5" class="node">
<title>Notification operator</title>
<polygon fill="#a09dde" stroke="black" points="340.5,-131 181.5,-131 181.5,-95 340.5,-95 340.5,-131"/>
<text text-anchor="middle" x="261" y="-109.3" font-family="Sans Not-Rotated 14" font-size="14.00">Notification operator</text>
</g>
<!-- Red zone doctor FD&#45;&gt;Notification operator -->
<g id="edge10" class="edge">
<title>Red zone doctor FD&#45;&gt;Notification operator</title>
<path fill="none" stroke="black" stroke-width="1.46" d="M456.23,-355.98C468.37,-316.46 497.48,-221.52 498,-218 500.35,-202.17 506.09,-195.8 498,-182 482.59,-155.72 411.06,-137.65 350.57,-126.77"/>
<polygon fill="black" stroke="black" stroke-width="1.46" points="351.04,-123.3 340.59,-125.02 349.83,-130.2 351.04,-123.3"/>
<text text-anchor="middle" x="513.5" y="-239.8" font-family="Sans Not-Rotated 14" font-size="14.00"> &#160;&#160;&#160;&#160;&#160;&#160;&#160;&#160;</text>
</g>
<!-- Yellow zone doctor -->
<g id="node6" class="node">
<title>Yellow zone doctor</title>
<polygon fill="#ffffff" stroke="black" points="438.5,-305 289.5,-305 289.5,-269 438.5,-269 438.5,-305"/>
<text text-anchor="middle" x="364" y="-283.3" font-family="Sans Not-Rotated 14" font-size="14.00">Yellow zone doctor</text>
</g>
<!-- Red zone doctor FD&#45;&gt;Yellow zone doctor -->
<g id="edge12" class="edge">
<title>Red zone doctor FD&#45;&gt;Yellow zone doctor</title>
<path fill="none" stroke="black" stroke-width="1.95" d="M433.39,-355.8C420.66,-343.36 403.27,-326.36 389.08,-312.5"/>
<polygon fill="black" stroke="black" stroke-width="1.95" points="391.18,-309.66 381.58,-305.18 386.29,-314.67 391.18,-309.66"/>
<text text-anchor="middle" x="433.5" y="-326.8" font-family="Sans Not-Rotated 14" font-size="14.00"> &#160;&#160;&#160;&#160;&#160;&#160;&#160;&#160;</text>
</g>
<!-- Yellow zone doctor FD&#45;&gt;Red zone operator -->
<g id="edge18" class="edge">
<title>Yellow zone doctor FD&#45;&gt;Red zone operator</title>
<path fill="none" stroke="black" stroke-width="1.58" d="M140.92,-218.1C134.94,-223.23 129.12,-229.3 125,-236 101.01,-275.04 83.62,-300.54 110,-338 168.07,-420.45 287.23,-447.48 368.14,-456.16"/>
<polygon fill="black" stroke="black" stroke-width="1.58" points="368,-459.67 378.3,-457.18 368.7,-452.7 368,-459.67"/>
<text text-anchor="middle" x="130.5" y="-326.8" font-family="Sans Not-Rotated 14" font-size="14.00"> &#160;&#160;&#160;&#160;&#160;&#160;&#160;&#160;</text>
</g>
<!-- Yellow zone doctor FD&#45;&gt;Red zone doctor FD -->
<g id="edge19" class="edge">
<title>Yellow zone doctor FD&#45;&gt;Red zone doctor FD</title>
<path fill="none" stroke="black" stroke-width="1.2" d="M150.35,-218.16C132.12,-240.26 107.02,-278.95 128,-305 157.12,-341.18 278.85,-358.8 364.24,-366.87"/>
<polygon fill="black" stroke="black" stroke-width="1.2" points="363.92,-370.35 374.2,-367.78 364.56,-363.38 363.92,-370.35"/>
<text text-anchor="middle" x="148.5" y="-283.3" font-family="Sans Not-Rotated 14" font-size="14.00"> &#160;&#160;&#160;&#160;&#160;&#160;&#160;&#160;</text>
</g>
<!-- Yellow zone doctor FD&#45;&gt;Red zone doctor -->
<g id="edge20" class="edge">
<title>Yellow zone doctor FD&#45;&gt;Red zone doctor</title>
<path fill="none" stroke="black" stroke-width="1.16" d="M239.76,-181.97C284.32,-171.9 342.31,-159.16 394,-149 435.64,-140.81 482.32,-132.62 520.21,-126.23"/>
<polygon fill="black" stroke="black" stroke-width="1.16" points="520.86,-129.67 530.15,-124.56 519.7,-122.76 520.86,-129.67"/>
<text text-anchor="middle" x="414.5" y="-152.8" font-family="Sans Not-Rotated 14" font-size="14.00"> &#160;&#160;&#160;&#160;&#160;&#160;&#160;&#160;</text>
</g>
<!-- Yellow zone doctor FD&#45;&gt;Notification operator -->
<g id="edge9" class="edge">
<title>Yellow zone doctor FD&#45;&gt;Notification operator</title>
<path fill="none" stroke="black" stroke-width="1.84" d="M188.3,-181.99C195.37,-176.41 203.12,-170.08 210,-164 219.11,-155.95 228.71,-146.74 237.1,-138.43"/>
<polygon fill="black" stroke="black" stroke-width="1.84" points="239.82,-140.66 244.42,-131.12 234.87,-135.71 239.82,-140.66"/>
<text text-anchor="middle" x="246.5" y="-152.8" font-family="Sans Not-Rotated 14" font-size="14.00"> &#160;&#160;&#160;&#160;&#160;&#160;&#160;&#160;</text>
</g>
<!-- Yellow zone doctor FD&#45;&gt;Yellow zone doctor -->
<g id="edge13" class="edge">
<title>Yellow zone doctor FD&#45;&gt;Yellow zone doctor</title>
<path fill="none" stroke="black" stroke-width="2.06" d="M162.52,-218.35C161.44,-229.06 162.17,-242.35 170,-251 173.92,-255.33 228.93,-265.01 279.37,-273.09"/>
<polygon fill="black" stroke="black" stroke-width="2.06" points="278.95,-276.57 289.38,-274.69 280.05,-269.66 278.95,-276.57"/>
<text text-anchor="middle" x="206.5" y="-239.8" font-family="Sans Not-Rotated 14" font-size="14.00"> &#160;&#160;&#160;&#160;&#160;&#160;&#160;&#160;&#160;&#160;&#160;&#160;&#160;&#160;&#160;</text>
</g>
<!-- Red zone doctor&#45;&gt;Red zone operator -->
<g id="edge1" class="edge">
<title>Red zone doctor&#45;&gt;Red zone operator</title>
<path fill="none" stroke="black" stroke-width="3.42" d="M659.74,-114.1C721.77,-118.03 806,-135.12 806,-199 806,-375 806,-375 806,-375 806,-430.66 638.87,-449.95 533.96,-456.58"/>
<polygon fill="black" stroke="black" stroke-width="3.42" points="533.47,-453.11 523.7,-457.21 533.89,-460.1 533.47,-453.11"/>
<text text-anchor="middle" x="842.5" y="-283.3" font-family="Sans Not-Rotated 14" font-size="14.00"> &#160;&#160;&#160;&#160;&#160;&#160;&#160;&#160;&#160;&#160;&#160;&#160;&#160;&#160;&#160;</text>
</g>
<!-- Red zone doctor&#45;&gt;Red zone doctor FD -->
<g id="edge4" class="edge">
<title>Red zone doctor&#45;&gt;Red zone doctor FD</title>
<path fill="none" stroke="black" stroke-width="3.46" d="M587.95,-131.03C567.49,-180.25 508.73,-320.29 495,-338 491.87,-342.04 488.17,-345.9 484.28,-349.47"/>
<polygon fill="black" stroke="black" stroke-width="3.46" points="481.98,-346.83 476.64,-355.97 486.52,-352.16 481.98,-346.83"/>
<text text-anchor="middle" x="579.5" y="-239.8" font-family="Sans Not-Rotated 14" font-size="14.00"> &#160;&#160;&#160;&#160;&#160;&#160;&#160;&#160;&#160;&#160;&#160;&#160;&#160;&#160;&#160;</text>
</g>
<!-- Red zone doctor&#45;&gt;Yellow zone doctor -->
<g id="edge15" class="edge">
<title>Red zone doctor&#45;&gt;Yellow zone doctor</title>
<path fill="none" stroke="black" stroke-width="1.14" d="M564.49,-131.03C555.17,-136.51 545.02,-142.78 536,-149 482.85,-185.68 424.84,-233.7 391.6,-262.07"/>
<polygon fill="black" stroke="black" stroke-width="1.14" points="389.02,-259.67 383.7,-268.83 393.57,-264.98 389.02,-259.67"/>
<text text-anchor="middle" x="510.5" y="-196.3" font-family="Sans Not-Rotated 14" font-size="14.00"> &#160;&#160;&#160;&#160;&#160;&#160;&#160;&#160;</text>
</g>
<!-- Notification operator&#45;&gt;Red zone operator -->
<g id="edge22" class="edge">
<title>Notification operator&#45;&gt;Red zone operator</title>
<path fill="none" stroke="black" stroke-width="1.24" d="M181.27,-124.35C104.52,-136.61 0,-160.4 0,-199 0,-375 0,-375 0,-375 0,-412.02 237.68,-440.08 367.95,-452.69"/>
<polygon fill="black" stroke="black" stroke-width="1.24" points="368,-456.21 378.29,-453.68 368.67,-449.24 368,-456.21"/>
<text text-anchor="middle" x="20.5" y="-283.3" font-family="Sans Not-Rotated 14" font-size="14.00"> &#160;&#160;&#160;&#160;&#160;&#160;&#160;&#160;</text>
</g>
<!-- Notification operator&#45;&gt;Yellow zone doctor FD -->
<g id="edge21" class="edge">
<title>Notification operator&#45;&gt;Yellow zone doctor FD</title>
<path fill="none" stroke="black" stroke-width="1.18" d="M184.89,-131.13C177.12,-135.74 170.19,-141.59 165,-149 160.43,-155.53 159.27,-163.8 159.65,-171.73"/>
<polygon fill="black" stroke="black" stroke-width="1.18" points="156.2,-172.29 160.9,-181.78 163.14,-171.43 156.2,-172.29"/>
<text text-anchor="middle" x="185.5" y="-152.8" font-family="Sans Not-Rotated 14" font-size="14.00"> &#160;&#160;&#160;&#160;&#160;&#160;&#160;&#160;</text>
</g>
<!-- Notification operator&#45;&gt;Notification operator -->
<g id="edge25" class="edge">
<title>Notification operator&#45;&gt;Notification operator</title>
<path fill="none" stroke="black" stroke-width="1.96" d="M340.57,-119.99C351.33,-118.82 358.5,-116.49 358.5,-113 358.5,-110.77 355.56,-109.01 350.62,-107.72"/>
<polygon fill="black" stroke="black" stroke-width="1.96" points="351.02,-104.24 340.57,-106.01 349.84,-111.14 351.02,-104.24"/>
<text text-anchor="middle" x="379" y="-109.3" font-family="Sans Not-Rotated 14" font-size="14.00"> &#160;&#160;&#160;&#160;&#160;&#160;&#160;&#160;</text>
</g>
<!-- Notification operator&#45;&gt;Yellow zone doctor -->
<g id="edge14" class="edge">
<title>Notification operator&#45;&gt;Yellow zone doctor</title>
<path fill="none" stroke="black" stroke-width="1.57" d="M266.27,-131.43C275.02,-160.2 291.91,-214.78 295,-218 310.76,-234.45 326.58,-220.21 343,-236 349.46,-242.22 354.03,-250.73 357.21,-258.97"/>
<polygon fill="black" stroke="black" stroke-width="1.57" points="353.97,-260.32 360.43,-268.72 360.61,-258.12 353.97,-260.32"/>
<text text-anchor="middle" x="315.5" y="-196.3" font-family="Sans Not-Rotated 14" font-size="14.00"> &#160;&#160;&#160;&#160;&#160;&#160;&#160;&#160;</text>
</g>
<!-- end -->
<g id="node8" class="node">
<title>end</title>
<ellipse fill="#ea4126" stroke="black" cx="261" cy="-22" rx="18" ry="18"/>
<ellipse fill="none" stroke="black" cx="261" cy="-22" rx="22" ry="22"/>
</g>
<!-- Notification operator&#45;&gt;end -->
<g id="edge16" class="edge">
<title>Notification operator&#45;&gt;end</title>
<path fill="none" stroke="black" stroke-dasharray="5,2" d="M261,-94.84C261,-83.44 261,-68.13 261,-54.58"/>
<polygon fill="black" stroke="black" points="264.5,-54.19 261,-44.19 257.5,-54.19 264.5,-54.19"/>
<text text-anchor="middle" x="281.5" y="-65.8" font-family="Sans Not-Rotated 14" font-size="14.00"> &#160;&#160;&#160;&#160;&#160;&#160;&#160;&#160;</text>
</g>
<!-- Yellow zone doctor&#45;&gt;Yellow zone doctor FD -->
<g id="edge6" class="edge">
<title>Yellow zone doctor&#45;&gt;Yellow zone doctor FD</title>
<path fill="none" stroke="black" stroke-width="3.58" d="M311.9,-268.94C298.02,-263.76 283.22,-257.67 270,-251 259.1,-245.5 257.75,-241.77 247,-236 237.9,-231.11 227.97,-226.37 218.28,-222.04"/>
<polygon fill="black" stroke="black" stroke-width="3.58" points="219.67,-218.82 209.1,-218.01 216.86,-225.23 219.67,-218.82"/>
<text text-anchor="middle" x="306.5" y="-239.8" font-family="Sans Not-Rotated 14" font-size="14.00"> &#160;&#160;&#160;&#160;&#160;&#160;&#160;&#160;&#160;&#160;&#160;&#160;&#160;&#160;&#160;</text>
</g>
<!-- Yellow zone doctor&#45;&gt;Notification operator -->
<g id="edge11" class="edge">
<title>Yellow zone doctor&#45;&gt;Notification operator</title>
<path fill="none" stroke="black" stroke-width="1.24" d="M368.4,-268.57C370.12,-258.82 371.04,-246.54 368,-236 356.11,-194.79 320.51,-159.45 293.62,-137.57"/>
<polygon fill="black" stroke="black" stroke-width="1.24" points="295.6,-134.67 285.59,-131.22 291.26,-140.16 295.6,-134.67"/>
<text text-anchor="middle" x="382.5" y="-196.3" font-family="Sans Not-Rotated 14" font-size="14.00"> &#160;&#160;&#160;&#160;&#160;&#160;&#160;&#160;</text>
</g>
<!-- start -->
<g id="node7" class="node">
<title>start</title>
<ellipse fill="#95d600" stroke="black" cx="451" cy="-557.3" rx="27.1" ry="27.1"/>
<text text-anchor="middle" x="451" y="-553.6" font-family="Sans Not-Rotated 14" font-size="14.00">start</text>
</g>
<!-- start&#45;&gt;Red zone operator -->
<g id="edge3" class="edge">
<title>start&#45;&gt;Red zone operator</title>
<path fill="none" stroke="black" stroke-dasharray="5,2" d="M451,-529.78C451,-517.1 451,-501.93 451,-489.17"/>
<polygon fill="black" stroke="black" points="454.5,-489.12 451,-479.12 447.5,-489.12 454.5,-489.12"/>
<text text-anchor="middle" x="471.5" y="-500.8" font-family="Sans Not-Rotated 14" font-size="14.00"> &#160;&#160;&#160;&#160;&#160;&#160;&#160;&#160;</text>
</g>
</g>
</svg>
