<?xml version="1.0" encoding="UTF-8" standalone="no"?>
<!DOCTYPE svg PUBLIC "-//W3C//DTD SVG 1.1//EN"
 "http://www.w3.org/Graphics/SVG/1.1/DTD/svg11.dtd">
<!-- Generated by graphviz version 3.0.0 (20220226.1711)
 -->
<!-- Pages: 1 -->
<svg width="954pt" height="593pt"
 viewBox="0.00 0.00 954.00 592.60" xmlns="http://www.w3.org/2000/svg" xmlns:xlink="http://www.w3.org/1999/xlink">
<g id="graph0" class="graph" transform="scale(1 1) rotate(0) translate(4 588.6)">
<polygon fill="white" stroke="transparent" points="-4,4 -4,-588.6 950,-588.6 950,4 -4,4"/>
<!-- Red zone operator -->
<g id="node1" class="node">
<title>Red zone operator</title>
<polygon fill="#1d2559" stroke="black" points="546.5,-479 401.5,-479 401.5,-443 546.5,-443 546.5,-479"/>
<text text-anchor="middle" x="474" y="-457.3" font-family="Sans Not-Rotated 14" font-size="14.00" fill="white">Red zone operator</text>
</g>
<!-- Red zone operator&#45;&gt;Red zone operator -->
<g id="edge25" class="edge">
<title>Red zone operator&#45;&gt;Red zone operator</title>
<path fill="none" stroke="black" stroke-width="1.41" d="M546.79,-468.11C557.37,-466.98 564.5,-464.61 564.5,-461 564.5,-458.69 561.57,-456.88 556.69,-455.59"/>
<polygon fill="black" stroke="black" stroke-width="1.41" points="557.24,-452.13 546.79,-453.89 556.05,-459.03 557.24,-452.13"/>
<text text-anchor="middle" x="585" y="-457.3" font-family="Sans Not-Rotated 14" font-size="14.00"> &#160;&#160;&#160;&#160;&#160;&#160;&#160;&#160;</text>
</g>
<!-- Red zone doctor FD -->
<g id="node2" class="node">
<title>Red zone doctor FD</title>
<polygon fill="#1d2559" stroke="black" points="454.5,-392 301.5,-392 301.5,-356 454.5,-356 454.5,-392"/>
<text text-anchor="middle" x="378" y="-370.3" font-family="Sans Not-Rotated 14" font-size="14.00" fill="white">Red zone doctor FD</text>
</g>
<!-- Red zone operator&#45;&gt;Red zone doctor FD -->
<g id="edge6" class="edge">
<title>Red zone operator&#45;&gt;Red zone doctor FD</title>
<path fill="none" stroke="black" stroke-width="3.29" d="M469.81,-442.96C466.47,-432.38 460.86,-419.11 452,-410 447.27,-405.14 441.74,-400.88 435.86,-397.16"/>
<polygon fill="black" stroke="black" stroke-width="3.29" points="437.47,-394.05 427.06,-392.09 433.97,-400.11 437.47,-394.05"/>
<text text-anchor="middle" x="499.5" y="-413.8" font-family="Sans Not-Rotated 14" font-size="14.00"> &#160;&#160;&#160;&#160;&#160;&#160;&#160;&#160;&#160;&#160;&#160;&#160;&#160;&#160;&#160;</text>
</g>
<!-- Red zone doctor -->
<g id="node4" class="node">
<title>Red zone doctor</title>
<polygon fill="#5661c6" stroke="black" points="350.5,-36 221.5,-36 221.5,0 350.5,0 350.5,-36"/>
<text text-anchor="middle" x="286" y="-14.3" font-family="Sans Not-Rotated 14" font-size="14.00" fill="white">Red zone doctor</text>
</g>
<!-- Red zone operator&#45;&gt;Red zone doctor -->
<g id="edge12" class="edge">
<title>Red zone operator&#45;&gt;Red zone doctor</title>
<path fill="none" stroke="black" stroke-width="5" d="M401.49,-454.38C268.71,-443.09 0,-415.29 0,-375 0,-375 0,-375 0,-108 0,-63.71 126.6,-38.96 211.34,-27.35"/>
<polygon fill="black" stroke="black" stroke-width="5" points="212.13,-31.66 221.46,-26 210.97,-22.99 212.13,-31.66"/>
<text text-anchor="middle" x="36.5" y="-239.8" font-family="Sans Not-Rotated 14" font-size="14.00"> &#160;&#160;&#160;&#160;&#160;&#160;&#160;&#160;&#160;&#160;&#160;&#160;&#160;&#160;&#160;</text>
</g>
<!-- Yellow zone doctor -->
<g id="node6" class="node">
<title>Yellow zone doctor</title>
<polygon fill="#ffffff" stroke="black" points="549.5,-305 400.5,-305 400.5,-269 549.5,-269 549.5,-305"/>
<text text-anchor="middle" x="475" y="-283.3" font-family="Sans Not-Rotated 14" font-size="14.00">Yellow zone doctor</text>
</g>
<!-- Red zone operator&#45;&gt;Yellow zone doctor -->
<g id="edge21" class="edge">
<title>Red zone operator&#45;&gt;Yellow zone doctor</title>
<path fill="none" stroke="black" stroke-width="1.08" d="M516.33,-442.88C524.91,-438.02 533.33,-432.08 540,-425 551.04,-413.27 551.59,-407.75 555,-392 558.39,-376.36 561.72,-370.52 555,-356 546.48,-337.57 530.23,-322.31 514.59,-310.94"/>
<polygon fill="black" stroke="black" stroke-width="1.08" points="516.24,-307.83 506.02,-305.04 512.26,-313.59 516.24,-307.83"/>
<text text-anchor="middle" x="578.5" y="-370.3" font-family="Sans Not-Rotated 14" font-size="14.00"> &#160;&#160;&#160;&#160;&#160;&#160;&#160;&#160;</text>
</g>
<!-- Red zone doctor FD&#45;&gt;Red zone operator -->
<g id="edge2" class="edge">
<title>Red zone doctor FD&#45;&gt;Red zone operator</title>
<path fill="none" stroke="black" stroke-width="3.39" d="M373.8,-392.26C372.29,-402.66 372.35,-415.67 379,-425 382.75,-430.26 387.38,-434.73 392.56,-438.53"/>
<polygon fill="black" stroke="black" stroke-width="3.39" points="390.79,-441.56 401.1,-443.97 394.55,-435.65 390.79,-441.56"/>
<text text-anchor="middle" x="415.5" y="-413.8" font-family="Sans Not-Rotated 14" font-size="14.00"> &#160;&#160;&#160;&#160;&#160;&#160;&#160;&#160;&#160;&#160;&#160;&#160;&#160;&#160;&#160;</text>
</g>
<!-- Red zone doctor FD&#45;&gt;Red zone doctor FD -->
<g id="edge26" class="edge">
<title>Red zone doctor FD&#45;&gt;Red zone doctor FD</title>
<path fill="none" stroke="black" stroke-width="2.47" d="M454.75,-381.03C465.39,-379.87 472.5,-377.53 472.5,-374 472.5,-371.74 469.58,-369.97 464.69,-368.68"/>
<polygon fill="black" stroke="black" stroke-width="2.47" points="465.2,-365.22 454.75,-366.97 464.02,-372.12 465.2,-365.22"/>
<text text-anchor="middle" x="509" y="-370.3" font-family="Sans Not-Rotated 14" font-size="14.00"> &#160;&#160;&#160;&#160;&#160;&#160;&#160;&#160;&#160;&#160;&#160;&#160;&#160;&#160;&#160;</text>
</g>
<!-- Yellow zone doctor FD -->
<g id="node3" class="node">
<title>Yellow zone doctor FD</title>
<polygon fill="#ffffff" stroke="black" points="576.5,-127 403.5,-127 403.5,-91 576.5,-91 576.5,-127"/>
<text text-anchor="middle" x="490" y="-105.3" font-family="Sans Not-Rotated 14" font-size="14.00">Yellow zone doctor FD</text>
</g>
<!-- Red zone doctor FD&#45;&gt;Yellow zone doctor FD -->
<g id="edge10" class="edge">
<title>Red zone doctor FD&#45;&gt;Yellow zone doctor FD</title>
<path fill="none" stroke="black" stroke-width="1.38" d="M353.9,-355.96C322.77,-331.65 274.15,-284.58 288,-236 300.48,-192.23 305.4,-176.05 342,-149 357.12,-137.82 375.2,-129.84 393.44,-124.15"/>
<polygon fill="black" stroke="black" stroke-width="1.38" points="394.64,-127.44 403.27,-121.3 392.69,-120.72 394.64,-127.44"/>
<text text-anchor="middle" x="308.5" y="-239.8" font-family="Sans Not-Rotated 14" font-size="14.00"> &#160;&#160;&#160;&#160;&#160;&#160;&#160;&#160;</text>
</g>
<!-- Red zone doctor FD&#45;&gt;Red zone doctor -->
<g id="edge13" class="edge">
<title>Red zone doctor FD&#45;&gt;Red zone doctor</title>
<path fill="none" stroke="black" stroke-width="1.61" d="M342.78,-355.94C333.38,-350.73 323.49,-344.61 315,-338 266.98,-300.59 260.57,-277.76 249,-218 237.04,-156.24 259.9,-83.55 274.73,-45.42"/>
<polygon fill="black" stroke="black" stroke-width="1.61" points="278.01,-46.64 278.48,-36.05 271.51,-44.03 278.01,-46.64"/>
<text text-anchor="middle" x="269.5" y="-196.3" font-family="Sans Not-Rotated 14" font-size="14.00"> &#160;&#160;&#160;&#160;&#160;&#160;&#160;&#160;</text>
</g>
<!-- Notification operator -->
<g id="node5" class="node">
<title>Notification operator</title>
<polygon fill="#a09dde" stroke="black" points="785.5,-218 626.5,-218 626.5,-182 785.5,-182 785.5,-218"/>
<text text-anchor="middle" x="706" y="-196.3" font-family="Sans Not-Rotated 14" font-size="14.00">Notification operator</text>
</g>
<!-- Red zone doctor FD&#45;&gt;Notification operator -->
<g id="edge15" class="edge">
<title>Red zone doctor FD&#45;&gt;Notification operator</title>
<path fill="none" stroke="black" stroke-width="1.46" d="M445.99,-355.96C508.26,-337.79 600.43,-304.21 666,-251 674.55,-244.07 682.46,-235.02 688.96,-226.53"/>
<polygon fill="black" stroke="black" stroke-width="1.46" points="691.88,-228.46 694.96,-218.32 686.23,-224.33 691.88,-228.46"/>
<text text-anchor="middle" x="659.5" y="-283.3" font-family="Sans Not-Rotated 14" font-size="14.00"> &#160;&#160;&#160;&#160;&#160;&#160;&#160;&#160;</text>
</g>
<!-- Red zone doctor FD&#45;&gt;Yellow zone doctor -->
<g id="edge17" class="edge">
<title>Red zone doctor FD&#45;&gt;Yellow zone doctor</title>
<path fill="none" stroke="black" stroke-width="1.95" d="M377.09,-355.99C377.41,-345.42 379.52,-332.15 387,-323 390.87,-318.27 395.46,-314.18 400.5,-310.63"/>
<polygon fill="black" stroke="black" stroke-width="1.95" points="402.67,-313.41 409.33,-305.17 398.99,-307.45 402.67,-313.41"/>
<text text-anchor="middle" x="407.5" y="-326.8" font-family="Sans Not-Rotated 14" font-size="14.00"> &#160;&#160;&#160;&#160;&#160;&#160;&#160;&#160;</text>
</g>
<!-- Yellow zone doctor FD&#45;&gt;Red zone operator -->
<g id="edge4" class="edge">
<title>Yellow zone doctor FD&#45;&gt;Red zone operator</title>
<path fill="none" stroke="black" stroke-width="1.58" d="M403.41,-119.87C375.78,-125.6 345.93,-134.67 321,-149 265.85,-180.7 258.59,-207.33 243,-269 228.58,-326.05 248.11,-352.8 292,-392 319.82,-416.85 357.56,-432.92 391.47,-443.16"/>
<polygon fill="black" stroke="black" stroke-width="1.58" points="390.81,-446.61 401.39,-446.02 392.75,-439.88 390.81,-446.61"/>
<text text-anchor="middle" x="263.5" y="-283.3" font-family="Sans Not-Rotated 14" font-size="14.00"> &#160;&#160;&#160;&#160;&#160;&#160;&#160;&#160;</text>
</g>
<!-- Yellow zone doctor FD&#45;&gt;Red zone doctor FD -->
<g id="edge7" class="edge">
<title>Yellow zone doctor FD&#45;&gt;Red zone doctor FD</title>
<path fill="none" stroke="black" stroke-width="1.2" d="M403.42,-119.4C385.39,-125.3 368.19,-134.56 356,-149 308.33,-205.48 343.1,-300.76 364.52,-346.69"/>
<polygon fill="black" stroke="black" stroke-width="1.2" points="361.49,-348.47 368.98,-355.97 367.8,-345.44 361.49,-348.47"/>
<text text-anchor="middle" x="355.5" y="-239.8" font-family="Sans Not-Rotated 14" font-size="14.00"> &#160;&#160;&#160;&#160;&#160;&#160;&#160;&#160;</text>
</g>
<!-- Yellow zone doctor FD&#45;&gt;Red zone doctor -->
<g id="edge23" class="edge">
<title>Yellow zone doctor FD&#45;&gt;Red zone doctor</title>
<path fill="none" stroke="black" stroke-width="1.16" d="M461.02,-90.87C441.16,-79.54 413.99,-64.84 389,-54 376.99,-48.79 363.93,-43.83 351.27,-39.38"/>
<polygon fill="black" stroke="black" stroke-width="1.16" points="352.28,-36.03 341.69,-36.07 350,-42.64 352.28,-36.03"/>
<text text-anchor="middle" x="441.5" y="-57.8" font-family="Sans Not-Rotated 14" font-size="14.00"> &#160;&#160;&#160;&#160;&#160;&#160;&#160;&#160;</text>
</g>
<!-- Yellow zone doctor FD&#45;&gt;Notification operator -->
<g id="edge14" class="edge">
<title>Yellow zone doctor FD&#45;&gt;Notification operator</title>
<path fill="none" stroke="black" stroke-width="1.84" d="M555.79,-127.01C576.07,-133.06 598.26,-140.51 618,-149 635.95,-156.72 654.9,-167.16 670.61,-176.51"/>
<polygon fill="black" stroke="black" stroke-width="1.84" points="669.08,-179.68 679.44,-181.86 672.7,-173.69 669.08,-179.68"/>
<text text-anchor="middle" x="667.5" y="-152.8" font-family="Sans Not-Rotated 14" font-size="14.00"> &#160;&#160;&#160;&#160;&#160;&#160;&#160;&#160;</text>
</g>
<!-- Yellow zone doctor FD&#45;&gt;Yellow zone doctor -->
<g id="edge18" class="edge">
<title>Yellow zone doctor FD&#45;&gt;Yellow zone doctor</title>
<path fill="none" stroke="black" stroke-width="2.06" d="M467.93,-127.19C452.94,-140.35 434.38,-159.96 426,-182 415.48,-209.67 433.6,-240.19 450.7,-260.96"/>
<polygon fill="black" stroke="black" stroke-width="2.06" points="448.2,-263.42 457.39,-268.69 453.49,-258.84 448.2,-263.42"/>
<text text-anchor="middle" x="462.5" y="-196.3" font-family="Sans Not-Rotated 14" font-size="14.00"> &#160;&#160;&#160;&#160;&#160;&#160;&#160;&#160;&#160;&#160;&#160;&#160;&#160;&#160;&#160;</text>
</g>
<!-- Red zone doctor&#45;&gt;Red zone operator -->
<g id="edge1" class="edge">
<title>Red zone doctor&#45;&gt;Red zone operator</title>
<path fill="none" stroke="black" stroke-width="3.42" d="M350.78,-22.12C503.44,-30.35 873,-55.66 873,-108 873,-375 873,-375 873,-375 873,-439.09 673.6,-455.04 556.72,-458.89"/>
<polygon fill="black" stroke="black" stroke-width="3.42" points="556.61,-455.39 546.72,-459.2 556.82,-462.39 556.61,-455.39"/>
<text text-anchor="middle" x="909.5" y="-239.8" font-family="Sans Not-Rotated 14" font-size="14.00"> &#160;&#160;&#160;&#160;&#160;&#160;&#160;&#160;&#160;&#160;&#160;&#160;&#160;&#160;&#160;</text>
</g>
<!-- Red zone doctor&#45;&gt;Red zone doctor FD -->
<g id="edge5" class="edge">
<title>Red zone doctor&#45;&gt;Red zone doctor FD</title>
<path fill="none" stroke="black" stroke-width="3.46" d="M221.44,-21.93C163.66,-28.44 88,-48.36 88,-108 88,-288 88,-288 88,-288 88,-330.83 205.98,-353.61 291.44,-364.48"/>
<polygon fill="black" stroke="black" stroke-width="3.46" points="291.07,-367.96 301.43,-365.72 291.93,-361.02 291.07,-367.96"/>
<text text-anchor="middle" x="124.5" y="-196.3" font-family="Sans Not-Rotated 14" font-size="14.00"> &#160;&#160;&#160;&#160;&#160;&#160;&#160;&#160;&#160;&#160;&#160;&#160;&#160;&#160;&#160;</text>
</g>
<!-- Red zone doctor&#45;&gt;Red zone doctor -->
<g id="edge27" class="edge">
<title>Red zone doctor&#45;&gt;Red zone doctor</title>
<path fill="none" stroke="black" stroke-width="1.12" d="M350.68,-25.29C361.24,-24.24 368.5,-21.81 368.5,-18 368.5,-15.56 365.52,-13.68 360.6,-12.38"/>
<polygon fill="black" stroke="black" stroke-width="1.12" points="361.12,-8.91 350.68,-10.71 359.96,-15.82 361.12,-8.91"/>
<text text-anchor="middle" x="389" y="-14.3" font-family="Sans Not-Rotated 14" font-size="14.00"> &#160;&#160;&#160;&#160;&#160;&#160;&#160;&#160;</text>
</g>
<!-- Red zone doctor&#45;&gt;Yellow zone doctor -->
<g id="edge20" class="edge">
<title>Red zone doctor&#45;&gt;Yellow zone doctor</title>
<path fill="none" stroke="black" stroke-width="1.14" d="M293.97,-36.11C313.32,-76.52 365.95,-179.81 430,-251 433.55,-254.95 437.59,-258.77 441.75,-262.36"/>
<polygon fill="black" stroke="black" stroke-width="1.14" points="439.86,-265.33 449.82,-268.93 444.28,-259.9 439.86,-265.33"/>
<text text-anchor="middle" x="385.5" y="-152.8" font-family="Sans Not-Rotated 14" font-size="14.00"> &#160;&#160;&#160;&#160;&#160;&#160;&#160;&#160;</text>
</g>
<!-- Notification operator&#45;&gt;Red zone operator -->
<g id="edge24" class="edge">
<title>Notification operator&#45;&gt;Red zone operator</title>
<path fill="none" stroke="black" stroke-width="1.24" d="M705.17,-218.15C703.53,-239.57 698.63,-276.83 684,-305 648.5,-373.34 625.95,-386.93 559,-425 550.06,-430.08 540.24,-434.82 530.55,-439.07"/>
<polygon fill="black" stroke="black" stroke-width="1.24" points="529.16,-435.86 521.33,-442.99 531.9,-442.3 529.16,-435.86"/>
<text text-anchor="middle" x="693.5" y="-326.8" font-family="Sans Not-Rotated 14" font-size="14.00"> &#160;&#160;&#160;&#160;&#160;&#160;&#160;&#160;</text>
</g>
<!-- Notification operator&#45;&gt;Yellow zone doctor FD -->
<g id="edge11" class="edge">
<title>Notification operator&#45;&gt;Yellow zone doctor FD</title>
<path fill="none" stroke="black" stroke-width="1.18" d="M628.68,-181.95C611.35,-177.05 593.28,-171.08 577,-164 566.28,-159.34 543.61,-145.21 524.1,-132.58"/>
<polygon fill="black" stroke="black" stroke-width="1.18" points="525.98,-129.63 515.69,-127.1 522.16,-135.49 525.98,-129.63"/>
<text text-anchor="middle" x="597.5" y="-152.8" font-family="Sans Not-Rotated 14" font-size="14.00"> &#160;&#160;&#160;&#160;&#160;&#160;&#160;&#160;</text>
</g>
<!-- Notification operator&#45;&gt;Notification operator -->
<g id="edge28" class="edge">
<title>Notification operator&#45;&gt;Notification operator</title>
<path fill="none" stroke="black" stroke-width="1.96" d="M785.57,-206.99C796.33,-205.82 803.5,-203.49 803.5,-200 803.5,-197.77 800.56,-196.01 795.62,-194.72"/>
<polygon fill="black" stroke="black" stroke-width="1.96" points="796.02,-191.24 785.57,-193.01 794.84,-198.14 796.02,-191.24"/>
<text text-anchor="middle" x="824" y="-196.3" font-family="Sans Not-Rotated 14" font-size="14.00"> &#160;&#160;&#160;&#160;&#160;&#160;&#160;&#160;</text>
</g>
<!-- Notification operator&#45;&gt;Yellow zone doctor -->
<g id="edge19" class="edge">
<title>Notification operator&#45;&gt;Yellow zone doctor</title>
<path fill="none" stroke="black" stroke-width="1.57" d="M662.9,-218.01C650.46,-223.35 637.01,-229.55 625,-236 614.25,-241.77 613.13,-245.99 602,-251 588.62,-257.03 573.96,-262.24 559.51,-266.66"/>
<polygon fill="black" stroke="black" stroke-width="1.57" points="558.16,-263.4 549.56,-269.59 560.14,-270.12 558.16,-263.4"/>
<text text-anchor="middle" x="645.5" y="-239.8" font-family="Sans Not-Rotated 14" font-size="14.00"> &#160;&#160;&#160;&#160;&#160;&#160;&#160;&#160;</text>
</g>
<!-- end -->
<g id="node8" class="node">
<title>end</title>
<ellipse fill="#ea4126" stroke="black" cx="706" cy="-109" rx="18" ry="18"/>
<ellipse fill="none" stroke="black" cx="706" cy="-109" rx="22" ry="22"/>
</g>
<!-- Notification operator&#45;&gt;end -->
<g id="edge22" class="edge">
<title>Notification operator&#45;&gt;end</title>
<path fill="none" stroke="black" stroke-dasharray="5,2" d="M706,-181.84C706,-170.44 706,-155.13 706,-141.58"/>
<polygon fill="black" stroke="black" points="709.5,-141.19 706,-131.19 702.5,-141.19 709.5,-141.19"/>
<text text-anchor="middle" x="726.5" y="-152.8" font-family="Sans Not-Rotated 14" font-size="14.00"> &#160;&#160;&#160;&#160;&#160;&#160;&#160;&#160;</text>
</g>
<!-- Yellow zone doctor&#45;&gt;Red zone doctor FD -->
<g id="edge8" class="edge">
<title>Yellow zone doctor&#45;&gt;Red zone doctor FD</title>
<path fill="none" stroke="black" stroke-width="1.15" d="M462.15,-305.3C454.12,-315.47 443.21,-328.21 432,-338 427.14,-342.24 421.72,-346.35 416.25,-350.17"/>
<polygon fill="black" stroke="black" stroke-width="1.15" points="414.04,-347.45 407.68,-355.92 417.93,-353.26 414.04,-347.45"/>
<text text-anchor="middle" x="467.5" y="-326.8" font-family="Sans Not-Rotated 14" font-size="14.00"> &#160;&#160;&#160;&#160;&#160;&#160;&#160;&#160;</text>
</g>
<!-- Yellow zone doctor&#45;&gt;Yellow zone doctor FD -->
<g id="edge9" class="edge">
<title>Yellow zone doctor&#45;&gt;Yellow zone doctor FD</title>
<path fill="none" stroke="black" stroke-width="3.58" d="M484.2,-268.98C490.9,-255.56 499.41,-236.16 503,-218 508.39,-190.78 503.3,-159.22 498,-137.27"/>
<polygon fill="black" stroke="black" stroke-width="3.58" points="501.32,-136.14 495.42,-127.34 494.54,-137.89 501.32,-136.14"/>
<text text-anchor="middle" x="542.5" y="-196.3" font-family="Sans Not-Rotated 14" font-size="14.00"> &#160;&#160;&#160;&#160;&#160;&#160;&#160;&#160;&#160;&#160;&#160;&#160;&#160;&#160;&#160;</text>
</g>
<!-- Yellow zone doctor&#45;&gt;Notification operator -->
<g id="edge16" class="edge">
<title>Yellow zone doctor&#45;&gt;Notification operator</title>
<path fill="none" stroke="black" stroke-width="1.24" d="M506.65,-268.99C516.76,-263.4 527.93,-257.07 538,-251 548.45,-244.7 549.79,-240.84 561,-236 578.41,-228.49 597.73,-222.41 616.44,-217.56"/>
<polygon fill="black" stroke="black" stroke-width="1.24" points="617.3,-220.95 626.15,-215.13 615.6,-214.16 617.3,-220.95"/>
<text text-anchor="middle" x="581.5" y="-239.8" font-family="Sans Not-Rotated 14" font-size="14.00"> &#160;&#160;&#160;&#160;&#160;&#160;&#160;&#160;</text>
</g>
<!-- start -->
<g id="node7" class="node">
<title>start</title>
<ellipse fill="#95d600" stroke="black" cx="474" cy="-557.3" rx="27.1" ry="27.1"/>
<text text-anchor="middle" x="474" y="-553.6" font-family="Sans Not-Rotated 14" font-size="14.00">start</text>
</g>
<!-- start&#45;&gt;Red zone operator -->
<g id="edge3" class="edge">
<title>start&#45;&gt;Red zone operator</title>
<path fill="none" stroke="black" stroke-dasharray="5,2" d="M474,-529.78C474,-517.1 474,-501.93 474,-489.17"/>
<polygon fill="black" stroke="black" points="477.5,-489.12 474,-479.12 470.5,-489.12 477.5,-489.12"/>
<text text-anchor="middle" x="494.5" y="-500.8" font-family="Sans Not-Rotated 14" font-size="14.00"> &#160;&#160;&#160;&#160;&#160;&#160;&#160;&#160;</text>
</g>
</g>
</svg>
