<?xml version="1.0" encoding="UTF-8" standalone="no"?>
<!DOCTYPE svg PUBLIC "-//W3C//DTD SVG 1.1//EN"
 "http://www.w3.org/Graphics/SVG/1.1/DTD/svg11.dtd">
<!-- Generated by graphviz version 3.0.0 (20220226.1711)
 -->
<!-- Pages: 1 -->
<svg width="1523pt" height="941pt"
 viewBox="0.00 0.00 1522.54 940.60" xmlns="http://www.w3.org/2000/svg" xmlns:xlink="http://www.w3.org/1999/xlink">
<g id="graph0" class="graph" transform="scale(1 1) rotate(0) translate(4 936.6)">
<polygon fill="white" stroke="transparent" points="-4,4 -4,-936.6 1518.54,-936.6 1518.54,4 -4,4"/>
<!-- Program change operator -->
<g id="node1" class="node">
<title>Program change operator</title>
<polygon fill="#ffffff" stroke="black" points="833.04,-932.6 640.04,-932.6 640.04,-896.6 833.04,-896.6 833.04,-932.6"/>
<text text-anchor="middle" x="736.54" y="-910.9" font-family="Sans Not-Rotated 14" font-size="14.00">Program change operator</text>
</g>
<!-- Yellow zone Therapy control operator -->
<g id="node7" class="node">
<title>Yellow zone Therapy control operator</title>
<polygon fill="#e0ddf4" stroke="black" points="875.54,-836.3 597.54,-836.3 597.54,-800.3 875.54,-800.3 875.54,-836.3"/>
<text text-anchor="middle" x="736.54" y="-814.6" font-family="Sans Not-Rotated 14" font-size="14.00">Yellow zone Therapy control operator</text>
</g>
<!-- Program change operator&#45;&gt;Yellow zone Therapy control operator -->
<g id="edge1" class="edge">
<title>Program change operator&#45;&gt;Yellow zone Therapy control operator</title>
<path fill="none" stroke="black" stroke-width="1.03" d="M736.54,-896.3C736.54,-882.48 736.54,-862.83 736.54,-846.85"/>
<polygon fill="black" stroke="black" stroke-width="1.03" points="740.04,-846.48 736.54,-836.48 733.04,-846.48 740.04,-846.48"/>
<text text-anchor="middle" x="746.04" y="-867.4" font-family="Sans Not-Rotated 14" font-size="14.00"> &#160;&#160;&#160;</text>
</g>
<!-- Notification operator -->
<g id="node9" class="node">
<title>Notification operator</title>
<polygon fill="#1946ba" stroke="black" points="385.04,-479 226.04,-479 226.04,-443 385.04,-443 385.04,-479"/>
<text text-anchor="middle" x="305.54" y="-457.3" font-family="Sans Not-Rotated 14" font-size="14.00" fill="white">Notification operator</text>
</g>
<!-- Program change operator&#45;&gt;Notification operator -->
<g id="edge49" class="edge">
<title>Program change operator&#45;&gt;Notification operator</title>
<path fill="none" stroke="black" stroke-width="1" d="M639.97,-911.51C490.85,-902.59 221.54,-861.32 221.54,-679.5 221.54,-679.5 221.54,-679.5 221.54,-547 221.54,-520.56 242.35,-499.38 263.26,-484.77"/>
<polygon fill="black" stroke="black" stroke-width="1" points="265.43,-487.54 271.85,-479.12 261.58,-481.69 265.43,-487.54"/>
<text text-anchor="middle" x="231.04" y="-674.8" font-family="Sans Not-Rotated 14" font-size="14.00"> &#160;&#160;&#160;</text>
</g>
<!-- Red zone operator -->
<g id="node2" class="node">
<title>Red zone operator</title>
<polygon fill="#1d2559" stroke="black" points="901.04,-740 756.04,-740 756.04,-704 901.04,-704 901.04,-740"/>
<text text-anchor="middle" x="828.54" y="-718.3" font-family="Sans Not-Rotated 14" font-size="14.00" fill="white">Red zone operator</text>
</g>
<!-- Red zone operator&#45;&gt;Red zone operator -->
<g id="edge62" class="edge">
<title>Red zone operator&#45;&gt;Red zone operator</title>
<path fill="none" stroke="black" stroke-width="1.53" d="M901.33,-729.11C911.91,-727.98 919.04,-725.61 919.04,-722 919.04,-719.69 916.11,-717.88 911.23,-716.59"/>
<polygon fill="black" stroke="black" stroke-width="1.53" points="911.77,-713.13 901.33,-714.89 910.59,-720.03 911.77,-713.13"/>
<text text-anchor="middle" x="939.54" y="-718.3" font-family="Sans Not-Rotated 14" font-size="14.00"> &#160;&#160;&#160;&#160;&#160;&#160;&#160;&#160;</text>
</g>
<!-- Red zone doctor FD -->
<g id="node3" class="node">
<title>Red zone doctor FD</title>
<polygon fill="#1d2559" stroke="black" points="984.04,-653 831.04,-653 831.04,-617 984.04,-617 984.04,-653"/>
<text text-anchor="middle" x="907.54" y="-631.3" font-family="Sans Not-Rotated 14" font-size="14.00" fill="white">Red zone doctor FD</text>
</g>
<!-- Red zone operator&#45;&gt;Red zone doctor FD -->
<g id="edge13" class="edge">
<title>Red zone operator&#45;&gt;Red zone doctor FD</title>
<path fill="none" stroke="black" stroke-width="3.35" d="M863.95,-703.86C871.77,-698.89 879.51,-692.91 885.54,-686 891.39,-679.29 895.9,-670.78 899.28,-662.7"/>
<polygon fill="black" stroke="black" stroke-width="3.35" points="902.61,-663.78 902.84,-653.19 896.06,-661.32 902.61,-663.78"/>
<text text-anchor="middle" x="931.04" y="-674.8" font-family="Sans Not-Rotated 14" font-size="14.00"> &#160;&#160;&#160;&#160;&#160;&#160;&#160;&#160;&#160;&#160;&#160;&#160;&#160;&#160;&#160;</text>
</g>
<!-- Red zone doctor -->
<g id="node6" class="node">
<title>Red zone doctor</title>
<polygon fill="#1f3b98" stroke="black" points="1382.04,-305 1253.04,-305 1253.04,-269 1382.04,-269 1382.04,-305"/>
<text text-anchor="middle" x="1317.54" y="-283.3" font-family="Sans Not-Rotated 14" font-size="14.00" fill="white">Red zone doctor</text>
</g>
<!-- Red zone operator&#45;&gt;Red zone doctor -->
<g id="edge22" class="edge">
<title>Red zone operator&#45;&gt;Red zone doctor</title>
<path fill="none" stroke="black" stroke-width="5" d="M901.35,-711.68C973.34,-702.35 1073.97,-688.98 1082.54,-686 1165.78,-657.05 1303.11,-539.11 1317.54,-512 1353.97,-443.54 1327.65,-415.49 1330.54,-338 1330.79,-331.34 1331.72,-329.56 1330.54,-323 1330.05,-320.28 1329.36,-317.5 1328.56,-314.75"/>
<polygon fill="black" stroke="black" stroke-width="5" points="1332.64,-313.16 1325.27,-305.1 1324.36,-315.98 1332.64,-313.16"/>
<text text-anchor="middle" x="1361.04" y="-500.8" font-family="Sans Not-Rotated 14" font-size="14.00"> &#160;&#160;&#160;&#160;&#160;&#160;&#160;&#160;&#160;&#160;&#160;&#160;&#160;&#160;&#160;</text>
</g>
<!-- Red zone operator&#45;&gt;Yellow zone Therapy control operator -->
<g id="edge26" class="edge">
<title>Red zone operator&#45;&gt;Yellow zone Therapy control operator</title>
<path fill="none" stroke="black" stroke-width="1.05" d="M821.19,-740.46C816.32,-750.69 809.24,-763.43 800.54,-773 793.3,-780.96 784.38,-788.24 775.52,-794.51"/>
<polygon fill="black" stroke="black" stroke-width="1.05" points="773.43,-791.7 767.11,-800.2 777.35,-797.5 773.43,-791.7"/>
<text text-anchor="middle" x="821.04" y="-761.8" font-family="Sans Not-Rotated 14" font-size="14.00"> &#160;&#160;&#160;</text>
</g>
<!-- Yellow zone doctor -->
<g id="node12" class="node">
<title>Yellow zone doctor</title>
<polygon fill="#7d7fd2" stroke="black" points="769.04,-566 620.04,-566 620.04,-530 769.04,-530 769.04,-566"/>
<text text-anchor="middle" x="694.54" y="-544.3" font-family="Sans Not-Rotated 14" font-size="14.00">Yellow zone doctor</text>
</g>
<!-- Red zone operator&#45;&gt;Yellow zone doctor -->
<g id="edge46" class="edge">
<title>Red zone operator&#45;&gt;Yellow zone doctor</title>
<path fill="none" stroke="black" stroke-width="1.21" d="M815.2,-703.88C791.42,-673.36 741.62,-609.43 714.01,-573.99"/>
<polygon fill="black" stroke="black" stroke-width="1.21" points="716.73,-571.79 707.82,-566.05 711.21,-576.09 716.73,-571.79"/>
<text text-anchor="middle" x="796.04" y="-631.3" font-family="Sans Not-Rotated 14" font-size="14.00"> &#160;&#160;&#160;&#160;&#160;&#160;&#160;&#160;</text>
</g>
<!-- Red zone doctor FD&#45;&gt;Program change operator -->
<g id="edge4" class="edge">
<title>Red zone doctor FD&#45;&gt;Program change operator</title>
<path fill="none" stroke="black" stroke-width="1" d="M984.18,-650.95C1111.01,-678.93 1342.32,-745.54 1254.54,-845.6 1227.87,-876 986.95,-897.04 843.25,-907.01"/>
<polygon fill="black" stroke="black" stroke-width="1" points="842.81,-903.53 833.08,-907.71 843.29,-910.52 842.81,-903.53"/>
<text text-anchor="middle" x="1273.04" y="-761.8" font-family="Sans Not-Rotated 14" font-size="14.00"> &#160;&#160;&#160;</text>
</g>
<!-- Red zone doctor FD&#45;&gt;Red zone operator -->
<g id="edge7" class="edge">
<title>Red zone doctor FD&#45;&gt;Red zone operator</title>
<path fill="none" stroke="black" stroke-width="3.44" d="M832.21,-653.24C824.52,-657.83 817.66,-663.65 812.54,-671 807.67,-677.99 808.48,-686.53 811.48,-694.57"/>
<polygon fill="black" stroke="black" stroke-width="3.44" points="808.34,-696.12 815.8,-703.65 814.67,-693.12 808.34,-696.12"/>
<text text-anchor="middle" x="849.04" y="-674.8" font-family="Sans Not-Rotated 14" font-size="14.00"> &#160;&#160;&#160;&#160;&#160;&#160;&#160;&#160;&#160;&#160;&#160;&#160;&#160;&#160;&#160;</text>
</g>
<!-- Red zone doctor FD&#45;&gt;Red zone doctor FD -->
<g id="edge63" class="edge">
<title>Red zone doctor FD&#45;&gt;Red zone doctor FD</title>
<path fill="none" stroke="black" stroke-width="2.55" d="M984.29,-642.03C994.93,-640.87 1002.04,-638.53 1002.04,-635 1002.04,-632.74 999.12,-630.97 994.23,-629.68"/>
<polygon fill="black" stroke="black" stroke-width="2.55" points="994.74,-626.22 984.29,-627.97 993.55,-633.12 994.74,-626.22"/>
<text text-anchor="middle" x="1038.54" y="-631.3" font-family="Sans Not-Rotated 14" font-size="14.00"> &#160;&#160;&#160;&#160;&#160;&#160;&#160;&#160;&#160;&#160;&#160;&#160;&#160;&#160;&#160;</text>
</g>
<!-- Yellow zone doctor FD -->
<g id="node4" class="node">
<title>Yellow zone doctor FD</title>
<polygon fill="#5661c6" stroke="black" points="1029.04,-392 856.04,-392 856.04,-356 1029.04,-356 1029.04,-392"/>
<text text-anchor="middle" x="942.54" y="-370.3" font-family="Sans Not-Rotated 14" font-size="14.00" fill="white">Yellow zone doctor FD</text>
</g>
<!-- Red zone doctor FD&#45;&gt;Yellow zone doctor FD -->
<g id="edge17" class="edge">
<title>Red zone doctor FD&#45;&gt;Yellow zone doctor FD</title>
<path fill="none" stroke="black" stroke-width="1.5" d="M914.84,-616.74C926.34,-588.54 948.23,-530.55 956.54,-479 960.38,-455.16 961.2,-449.11 962.54,-425 962.91,-418.34 964.25,-416.44 962.54,-410 961.74,-406.99 960.61,-403.96 959.29,-401.02"/>
<polygon fill="black" stroke="black" stroke-width="1.5" points="962.33,-399.28 954.61,-392.03 956.12,-402.51 962.33,-399.28"/>
<text text-anchor="middle" x="973.04" y="-500.8" font-family="Sans Not-Rotated 14" font-size="14.00"> &#160;&#160;&#160;&#160;&#160;&#160;&#160;&#160;</text>
</g>
<!-- Red zone doctor FD&#45;&gt;Red zone doctor -->
<g id="edge23" class="edge">
<title>Red zone doctor FD&#45;&gt;Red zone doctor</title>
<path fill="none" stroke="black" stroke-width="1.73" d="M984.12,-627.21C1034.34,-621.62 1094.61,-612.42 1116.54,-599 1173.17,-564.33 1168.91,-534.39 1205.54,-479 1243.3,-421.9 1282.72,-351.81 1303.22,-314.44"/>
<polygon fill="black" stroke="black" stroke-width="1.73" points="1306.53,-315.69 1308.25,-305.24 1300.38,-312.33 1306.53,-315.69"/>
<text text-anchor="middle" x="1249.04" y="-457.3" font-family="Sans Not-Rotated 14" font-size="14.00"> &#160;&#160;&#160;&#160;&#160;&#160;&#160;&#160;</text>
</g>
<!-- Red zone doctor FD&#45;&gt;Yellow zone Therapy control operator -->
<g id="edge25" class="edge">
<title>Red zone doctor FD&#45;&gt;Yellow zone Therapy control operator</title>
<path fill="none" stroke="black" stroke-width="1.21" d="M953.6,-653.13C960.76,-657.83 967.21,-663.7 971.54,-671 987.18,-697.39 987.95,-715.46 969.54,-740 948.82,-767.61 917.88,-785.49 885.27,-797.03"/>
<polygon fill="black" stroke="black" stroke-width="1.21" points="883.95,-793.78 875.57,-800.26 886.16,-800.42 883.95,-793.78"/>
<text text-anchor="middle" x="1003.04" y="-718.3" font-family="Sans Not-Rotated 14" font-size="14.00"> &#160;&#160;&#160;&#160;&#160;&#160;&#160;&#160;</text>
</g>
<!-- Meas missing operator -->
<g id="node8" class="node">
<title>Meas missing operator</title>
<polygon fill="#a09dde" stroke="black" points="510.04,-305 339.04,-305 339.04,-269 510.04,-269 510.04,-305"/>
<text text-anchor="middle" x="424.54" y="-283.3" font-family="Sans Not-Rotated 14" font-size="14.00">Meas missing operator</text>
</g>
<!-- Red zone doctor FD&#45;&gt;Meas missing operator -->
<g id="edge33" class="edge">
<title>Red zone doctor FD&#45;&gt;Meas missing operator</title>
<path fill="none" stroke="black" stroke-width="1.08" d="M984.13,-622.39C1017.77,-613.06 1054.18,-596.26 1074.54,-566 1092.52,-539.25 1101.7,-413.5 1038.54,-356 1001.01,-321.83 683.29,-301.02 520.25,-292.49"/>
<polygon fill="black" stroke="black" stroke-width="1.08" points="520.39,-288.99 510.22,-291.97 520.02,-295.98 520.39,-288.99"/>
<text text-anchor="middle" x="1096.04" y="-457.3" font-family="Sans Not-Rotated 14" font-size="14.00"> &#160;&#160;&#160;</text>
</g>
<!-- Red zone doctor FD&#45;&gt;Notification operator -->
<g id="edge35" class="edge">
<title>Red zone doctor FD&#45;&gt;Notification operator</title>
<path fill="none" stroke="black" stroke-width="1.58" d="M830.71,-618.82C827.28,-618.19 823.87,-617.58 820.54,-617 673.91,-591.39 615.03,-646.05 489.54,-566 458.46,-546.18 473.63,-518.28 443.54,-497 429.2,-486.86 412.19,-479.65 395.09,-474.53"/>
<polygon fill="black" stroke="black" stroke-width="1.58" points="395.61,-471.04 385.04,-471.75 393.74,-477.79 395.61,-471.04"/>
<text text-anchor="middle" x="510.04" y="-544.3" font-family="Sans Not-Rotated 14" font-size="14.00"> &#160;&#160;&#160;&#160;&#160;&#160;&#160;&#160;</text>
</g>
<!-- Red zone doctor FD&#45;&gt;Yellow zone doctor -->
<g id="edge42" class="edge">
<title>Red zone doctor FD&#45;&gt;Yellow zone doctor</title>
<path fill="none" stroke="black" stroke-width="2.06" d="M879.39,-616.86C861.32,-606.37 837.1,-593.24 814.54,-584 801.07,-578.49 786.43,-573.46 772.16,-569.05"/>
<polygon fill="black" stroke="black" stroke-width="2.06" points="772.93,-565.63 762.35,-566.09 770.91,-572.33 772.93,-565.63"/>
<text text-anchor="middle" x="867.04" y="-587.8" font-family="Sans Not-Rotated 14" font-size="14.00"> &#160;&#160;&#160;&#160;&#160;&#160;&#160;&#160;</text>
</g>
<!-- Yellow zone doctor FD&#45;&gt;Program change operator -->
<g id="edge3" class="edge">
<title>Yellow zone doctor FD&#45;&gt;Program change operator</title>
<path fill="none" stroke="black" stroke-width="1.02" d="M1029.36,-385.12C1113.7,-396.29 1234.58,-416.31 1273.54,-443 1276.73,-445.19 1424.54,-673.63 1424.54,-677.5 1424.54,-819.3 1424.54,-819.3 1424.54,-819.3 1424.54,-877.22 1036.79,-901.32 843.47,-909.74"/>
<polygon fill="black" stroke="black" stroke-width="1.02" points="843.13,-906.25 833.29,-910.17 843.43,-913.24 843.13,-906.25"/>
<text text-anchor="middle" x="1418.04" y="-631.3" font-family="Sans Not-Rotated 14" font-size="14.00"> &#160;&#160;&#160;</text>
</g>
<!-- Yellow zone doctor FD&#45;&gt;Red zone operator -->
<g id="edge9" class="edge">
<title>Yellow zone doctor FD&#45;&gt;Red zone operator</title>
<path fill="none" stroke="black" stroke-width="1.69" d="M963.94,-392.12C1018.1,-437.49 1151.67,-563.46 1084.54,-653 1063.64,-680.87 977.85,-699.56 911.27,-710.18"/>
<polygon fill="black" stroke="black" stroke-width="1.69" points="910.52,-706.76 901.18,-711.76 911.6,-713.68 910.52,-706.76"/>
<text text-anchor="middle" x="1118.04" y="-544.3" font-family="Sans Not-Rotated 14" font-size="14.00"> &#160;&#160;&#160;&#160;&#160;&#160;&#160;&#160;</text>
</g>
<!-- Yellow zone doctor FD&#45;&gt;Red zone doctor FD -->
<g id="edge14" class="edge">
<title>Yellow zone doctor FD&#45;&gt;Red zone doctor FD</title>
<path fill="none" stroke="black" stroke-width="1.33" d="M946.3,-392.21C950.1,-414.03 953.39,-452.04 937.54,-479 929.85,-492.08 915.96,-483.77 908.54,-497 889.46,-530.99 894.4,-577.61 900.42,-606.75"/>
<polygon fill="black" stroke="black" stroke-width="1.33" points="897.04,-607.65 902.65,-616.64 903.87,-606.12 897.04,-607.65"/>
<text text-anchor="middle" x="929.04" y="-500.8" font-family="Sans Not-Rotated 14" font-size="14.00"> &#160;&#160;&#160;&#160;&#160;&#160;&#160;&#160;</text>
</g>
<!-- Yellow zone doctor FD&#45;&gt;Red zone doctor -->
<g id="edge24" class="edge">
<title>Yellow zone doctor FD&#45;&gt;Red zone doctor</title>
<path fill="none" stroke="black" stroke-width="1.28" d="M980.49,-355.94C1006.26,-345 1041.37,-331.33 1073.54,-323 1129.33,-308.54 1193.94,-299.61 1242.66,-294.39"/>
<polygon fill="black" stroke="black" stroke-width="1.28" points="1243.22,-297.85 1252.81,-293.33 1242.5,-290.89 1243.22,-297.85"/>
<text text-anchor="middle" x="1094.04" y="-326.8" font-family="Sans Not-Rotated 14" font-size="14.00"> &#160;&#160;&#160;&#160;&#160;&#160;&#160;&#160;</text>
</g>
<!-- Yellow zone doctor FD&#45;&gt;Meas missing operator -->
<g id="edge31" class="edge">
<title>Yellow zone doctor FD&#45;&gt;Meas missing operator</title>
<path fill="none" stroke="black" stroke-width="1.16" d="M855.75,-365.87C790.45,-359.72 706.89,-349.95 674.54,-338 663.09,-333.77 662.94,-327.36 651.54,-323 610.08,-307.14 561.75,-298.45 520.37,-293.7"/>
<polygon fill="black" stroke="black" stroke-width="1.16" points="520.6,-290.21 510.28,-292.6 519.85,-297.16 520.6,-290.21"/>
<text text-anchor="middle" x="695.04" y="-326.8" font-family="Sans Not-Rotated 14" font-size="14.00"> &#160;&#160;&#160;&#160;&#160;&#160;&#160;&#160;</text>
</g>
<!-- Yellow zone doctor FD&#45;&gt;Notification operator -->
<g id="edge34" class="edge">
<title>Yellow zone doctor FD&#45;&gt;Notification operator</title>
<path fill="none" stroke="black" stroke-width="1.94" d="M855.73,-382.89C821.69,-385.88 782.29,-389.24 746.54,-392 687.47,-396.56 535.82,-388.69 480.54,-410 470.5,-413.87 471.25,-420.37 461.54,-425 440.91,-434.83 417.42,-441.95 395.03,-447.1"/>
<polygon fill="black" stroke="black" stroke-width="1.94" points="394.2,-443.7 385.18,-449.25 395.7,-450.53 394.2,-443.7"/>
<text text-anchor="middle" x="501.04" y="-413.8" font-family="Sans Not-Rotated 14" font-size="14.00"> &#160;&#160;&#160;&#160;&#160;&#160;&#160;&#160;</text>
</g>
<!-- Yellow zone doctor FD&#45;&gt;Yellow zone doctor -->
<g id="edge43" class="edge">
<title>Yellow zone doctor FD&#45;&gt;Yellow zone doctor</title>
<path fill="none" stroke="black" stroke-width="2.16" d="M873.62,-392.01C823.61,-405.5 761.4,-425 741.54,-443 738.44,-445.81 718.97,-490.19 706.08,-520.05"/>
<polygon fill="black" stroke="black" stroke-width="2.16" points="702.73,-518.98 701.99,-529.55 709.16,-521.74 702.73,-518.98"/>
<text text-anchor="middle" x="778.04" y="-457.3" font-family="Sans Not-Rotated 14" font-size="14.00"> &#160;&#160;&#160;&#160;&#160;&#160;&#160;&#160;&#160;&#160;&#160;&#160;&#160;&#160;&#160;</text>
</g>
<!-- Monitoring completed doctor -->
<g id="node5" class="node">
<title>Monitoring completed doctor</title>
<polygon fill="#ffffff" stroke="black" points="280.54,-218 66.54,-218 66.54,-182 280.54,-182 280.54,-218"/>
<text text-anchor="middle" x="173.54" y="-196.3" font-family="Sans Not-Rotated 14" font-size="14.00">Monitoring completed doctor</text>
</g>
<!-- Monitoring completed doctor&#45;&gt;Notification operator -->
<g id="edge50" class="edge">
<title>Monitoring completed doctor&#45;&gt;Notification operator</title>
<path fill="none" stroke="black" d="M167.79,-218.27C166.15,-223.87 164.54,-230.14 163.54,-236 151.84,-304.38 141.79,-328 168.54,-392 175.43,-408.49 177.09,-414.47 191.54,-425 199.17,-430.57 207.71,-435.26 216.58,-439.22"/>
<polygon fill="black" stroke="black" points="215.35,-442.5 225.93,-443.08 218.02,-436.03 215.35,-442.5"/>
<text text-anchor="middle" x="156.04" y="-326.8" font-family="Sans Not-Rotated 14" font-size="14.00"> </text>
</g>
<!-- Monitoring completed doctor FD -->
<g id="node10" class="node">
<title>Monitoring completed doctor FD</title>
<polygon fill="#ffffff" stroke="black" points="304.54,-131 66.54,-131 66.54,-95 304.54,-95 304.54,-131"/>
<text text-anchor="middle" x="185.54" y="-109.3" font-family="Sans Not-Rotated 14" font-size="14.00">Monitoring completed doctor FD</text>
</g>
<!-- Monitoring completed doctor&#45;&gt;Monitoring completed doctor FD -->
<g id="edge39" class="edge">
<title>Monitoring completed doctor&#45;&gt;Monitoring completed doctor FD</title>
<path fill="none" stroke="black" stroke-width="1.02" d="M175.97,-181.8C177.61,-170.16 179.81,-154.55 181.69,-141.24"/>
<polygon fill="black" stroke="black" stroke-width="1.02" points="185.18,-141.57 183.11,-131.18 178.25,-140.59 185.18,-141.57"/>
<text text-anchor="middle" x="190.04" y="-152.8" font-family="Sans Not-Rotated 14" font-size="14.00"> &#160;&#160;&#160;</text>
</g>
<!-- Red zone doctor&#45;&gt;Red zone operator -->
<g id="edge6" class="edge">
<title>Red zone doctor&#45;&gt;Red zone operator</title>
<path fill="none" stroke="black" stroke-width="3.47" d="M1317.86,-305.1C1317.7,-340.85 1312.81,-424.67 1273.54,-479 1264.65,-491.29 1256.13,-487.22 1244.54,-497 1173.8,-556.71 1176.98,-592.94 1106.54,-653 1085.71,-670.76 1080.16,-676.37 1054.54,-686 1041.03,-691.08 970.02,-701.67 911.14,-709.88"/>
<polygon fill="black" stroke="black" stroke-width="3.47" points="910.49,-706.44 901.06,-711.28 911.45,-713.37 910.49,-706.44"/>
<text text-anchor="middle" x="1281.04" y="-500.8" font-family="Sans Not-Rotated 14" font-size="14.00"> &#160;&#160;&#160;&#160;&#160;&#160;&#160;&#160;&#160;&#160;&#160;&#160;&#160;&#160;&#160;</text>
</g>
<!-- Red zone doctor&#45;&gt;Red zone doctor FD -->
<g id="edge12" class="edge">
<title>Red zone doctor&#45;&gt;Red zone doctor FD</title>
<path fill="none" stroke="black" stroke-width="3.51" d="M1253.02,-291.15C1198.27,-297.71 1128.54,-317.05 1128.54,-373 1128.54,-549 1128.54,-549 1128.54,-549 1128.54,-576.38 1115.64,-584.3 1092.54,-599 1063.55,-617.45 1027.17,-626.65 994.36,-631.09"/>
<polygon fill="black" stroke="black" stroke-width="3.51" points="993.81,-627.63 984.31,-632.32 994.66,-634.58 993.81,-627.63"/>
<text text-anchor="middle" x="1165.04" y="-457.3" font-family="Sans Not-Rotated 14" font-size="14.00"> &#160;&#160;&#160;&#160;&#160;&#160;&#160;&#160;&#160;&#160;&#160;&#160;&#160;&#160;&#160;</text>
</g>
<!-- Red zone doctor&#45;&gt;Red zone doctor -->
<g id="edge64" class="edge">
<title>Red zone doctor&#45;&gt;Red zone doctor</title>
<path fill="none" stroke="black" stroke-width="1.25" d="M1382.22,-294.29C1392.78,-293.24 1400.04,-290.81 1400.04,-287 1400.04,-284.56 1397.06,-282.68 1392.14,-281.38"/>
<polygon fill="black" stroke="black" stroke-width="1.25" points="1392.66,-277.91 1382.22,-279.71 1391.5,-284.82 1392.66,-277.91"/>
<text text-anchor="middle" x="1420.54" y="-283.3" font-family="Sans Not-Rotated 14" font-size="14.00"> &#160;&#160;&#160;&#160;&#160;&#160;&#160;&#160;</text>
</g>
<!-- Red zone doctor&#45;&gt;Yellow zone Therapy control operator -->
<g id="edge28" class="edge">
<title>Red zone doctor&#45;&gt;Yellow zone Therapy control operator</title>
<path fill="none" stroke="black" stroke-width="1.04" d="M1382.28,-292.93C1402.07,-297.8 1421.92,-306.76 1434.54,-323 1515.37,-427.12 1448.91,-482.55 1441.54,-512 1430.88,-554.53 1371.64,-648.74 1348.54,-686 1323.52,-726.35 1327.84,-749.57 1286.54,-773 1269.24,-782.81 1042.84,-798.54 885.97,-808.38"/>
<polygon fill="black" stroke="black" stroke-width="1.04" points="885.5,-804.9 875.74,-809.02 885.94,-811.89 885.5,-804.9"/>
<text text-anchor="middle" x="1444.04" y="-544.3" font-family="Sans Not-Rotated 14" font-size="14.00"> &#160;&#160;&#160;</text>
</g>
<!-- Red zone doctor&#45;&gt;Yellow zone doctor -->
<g id="edge45" class="edge">
<title>Red zone doctor&#45;&gt;Yellow zone doctor</title>
<path fill="none" stroke="black" stroke-width="1.27" d="M1252.83,-290.7C1160.66,-296.02 987.15,-311.54 846.54,-356 791.55,-373.39 765.36,-365.61 728.54,-410 702.62,-441.25 696.01,-489.42 694.57,-519.53"/>
<polygon fill="black" stroke="black" stroke-width="1.27" points="691.06,-519.64 694.25,-529.74 698.06,-519.86 691.06,-519.64"/>
<text text-anchor="middle" x="749.04" y="-413.8" font-family="Sans Not-Rotated 14" font-size="14.00"> &#160;&#160;&#160;&#160;&#160;&#160;&#160;&#160;</text>
</g>
<!-- Yellow zone Therapy control operator&#45;&gt;Red zone operator -->
<g id="edge51" class="edge">
<title>Yellow zone Therapy control operator&#45;&gt;Red zone operator</title>
<path fill="none" stroke="black" stroke-width="1.16" d="M738.35,-800.19C740.51,-787.27 745.24,-769.82 755.54,-758 759.72,-753.2 764.7,-749.01 770.08,-745.35"/>
<polygon fill="black" stroke="black" stroke-width="1.16" points="772.07,-748.24 778.79,-740.04 768.43,-742.26 772.07,-748.24"/>
<text text-anchor="middle" x="776.04" y="-761.8" font-family="Sans Not-Rotated 14" font-size="14.00"> &#160;&#160;&#160;&#160;&#160;&#160;&#160;&#160;</text>
</g>
<!-- Yellow zone Therapy control operator&#45;&gt;Red zone doctor FD -->
<g id="edge53" class="edge">
<title>Yellow zone Therapy control operator&#45;&gt;Red zone doctor FD</title>
<path fill="none" stroke="black" stroke-width="1.09" d="M728.98,-799.91C719.93,-776.13 708.24,-733.11 727.54,-704 739.59,-685.81 786.2,-668.48 828.97,-655.87"/>
<polygon fill="black" stroke="black" stroke-width="1.09" points="829.96,-659.23 838.6,-653.09 828.02,-652.5 829.96,-659.23"/>
<text text-anchor="middle" x="737.04" y="-718.3" font-family="Sans Not-Rotated 14" font-size="14.00"> &#160;&#160;&#160;</text>
</g>
<!-- Yellow zone Therapy control operator&#45;&gt;Red zone doctor -->
<g id="edge54" class="edge">
<title>Yellow zone Therapy control operator&#45;&gt;Red zone doctor</title>
<path fill="none" stroke="black" stroke-width="1.05" d="M875.7,-807.05C954.08,-799.77 1043.32,-788.52 1079.54,-773 1248.87,-700.45 1322.27,-678.29 1401.54,-512 1434.88,-442.05 1375.01,-355.09 1340.08,-313.06"/>
<polygon fill="black" stroke="black" stroke-width="1.05" points="1342.61,-310.63 1333.47,-305.27 1337.27,-315.16 1342.61,-310.63"/>
<text text-anchor="middle" x="1401.04" y="-544.3" font-family="Sans Not-Rotated 14" font-size="14.00"> &#160;&#160;&#160;</text>
</g>
<!-- Yellow zone Therapy control operator&#45;&gt;Yellow zone Therapy control operator -->
<g id="edge66" class="edge">
<title>Yellow zone Therapy control operator&#45;&gt;Yellow zone Therapy control operator</title>
<path fill="none" stroke="black" stroke-width="1.7" d="M875.61,-825.72C886.69,-824.1 893.54,-821.62 893.54,-818.3 893.54,-816.11 890.59,-814.3 885.43,-812.85"/>
<polygon fill="black" stroke="black" stroke-width="1.7" points="886.11,-809.41 875.61,-810.87 884.72,-816.28 886.11,-809.41"/>
<text text-anchor="middle" x="914.04" y="-814.6" font-family="Sans Not-Rotated 14" font-size="14.00"> &#160;&#160;&#160;&#160;&#160;&#160;&#160;&#160;</text>
</g>
<!-- Yellow zone Therapy control operator&#45;&gt;Notification operator -->
<g id="edge52" class="edge">
<title>Yellow zone Therapy control operator&#45;&gt;Notification operator</title>
<path fill="none" stroke="black" stroke-width="1.12" d="M597.33,-808.23C490.27,-797.29 360.54,-773.6 360.54,-723 360.54,-723 360.54,-723 360.54,-547 360.54,-524.1 346.29,-502.49 332.3,-486.79"/>
<polygon fill="black" stroke="black" stroke-width="1.12" points="334.49,-484.02 325.08,-479.15 329.4,-488.82 334.49,-484.02"/>
<text text-anchor="middle" x="381.04" y="-631.3" font-family="Sans Not-Rotated 14" font-size="14.00"> &#160;&#160;&#160;&#160;&#160;&#160;&#160;&#160;</text>
</g>
<!-- end -->
<g id="node14" class="node">
<title>end</title>
<ellipse fill="#ea4126" stroke="black" cx="38.54" cy="-22" rx="18" ry="18"/>
<ellipse fill="none" stroke="black" cx="38.54" cy="-22" rx="22" ry="22"/>
</g>
<!-- Yellow zone Therapy control operator&#45;&gt;end -->
<g id="edge55" class="edge">
<title>Yellow zone Therapy control operator&#45;&gt;end</title>
<path fill="none" stroke="black" stroke-dasharray="5,2" d="M597.5,-811.1C450.89,-802.4 231.37,-782.58 159.54,-740 -8.05,-640.65 0.54,-526.32 0.54,-331.5 0.54,-331.5 0.54,-331.5 0.54,-112 0.54,-89.6 10.84,-66.4 20.72,-49.3"/>
<polygon fill="black" stroke="black" points="23.88,-50.83 26.09,-40.47 17.9,-47.19 23.88,-50.83"/>
<text text-anchor="middle" x="11.04" y="-413.8" font-family="Sans Not-Rotated 14" font-size="14.00"> &#160;&#160;&#160;</text>
</g>
<!-- Meas missing operator&#45;&gt;Red zone operator -->
<g id="edge56" class="edge">
<title>Meas missing operator&#45;&gt;Red zone operator</title>
<path fill="none" stroke="black" stroke-width="1.11" d="M357.87,-305.04C341.45,-310.07 324.12,-316.1 308.54,-323 206.04,-368.37 98.46,-408.52 141.54,-512 175.72,-594.11 203.97,-613.27 283.54,-653 467.32,-744.77 541.53,-676.18 745.8,-703.41"/>
<polygon fill="black" stroke="black" stroke-width="1.11" points="745.55,-706.91 755.94,-704.83 746.52,-699.98 745.55,-706.91"/>
<text text-anchor="middle" x="162.04" y="-500.8" font-family="Sans Not-Rotated 14" font-size="14.00"> &#160;&#160;&#160;&#160;&#160;&#160;&#160;&#160;</text>
</g>
<!-- Meas missing operator&#45;&gt;Monitoring completed doctor -->
<g id="edge20" class="edge">
<title>Meas missing operator&#45;&gt;Monitoring completed doctor</title>
<path fill="none" stroke="black" stroke-width="1" d="M391.01,-268.82C369.55,-258.31 340.89,-245.17 314.54,-236 298.11,-230.28 280.3,-225.1 263.05,-220.59"/>
<polygon fill="black" stroke="black" stroke-width="1" points="263.52,-217.1 252.96,-218.01 261.79,-223.88 263.52,-217.1"/>
<text text-anchor="middle" x="362.04" y="-239.8" font-family="Sans Not-Rotated 14" font-size="14.00"> &#160;&#160;&#160;</text>
</g>
<!-- Meas missing operator&#45;&gt;Yellow zone Therapy control operator -->
<g id="edge29" class="edge">
<title>Meas missing operator&#45;&gt;Yellow zone Therapy control operator</title>
<path fill="none" stroke="black" stroke-width="1.03" d="M343.58,-305.03C320.22,-310.34 294.77,-316.53 271.54,-323 226.45,-335.57 207.6,-326.16 171.54,-356 57.03,-450.74 35.72,-561.93 117.54,-686 128.72,-702.95 140.89,-695.96 159.54,-704 230.27,-734.51 244.04,-753.38 318.54,-773 405.84,-795.99 506.38,-807.11 586.97,-812.45"/>
<polygon fill="black" stroke="black" stroke-width="1.03" points="587,-815.96 597.2,-813.11 587.44,-808.98 587,-815.96"/>
<text text-anchor="middle" x="80.04" y="-544.3" font-family="Sans Not-Rotated 14" font-size="14.00"> &#160;&#160;&#160;</text>
</g>
<!-- Meas missing operator&#45;&gt;Notification operator -->
<g id="edge38" class="edge">
<title>Meas missing operator&#45;&gt;Notification operator</title>
<path fill="none" stroke="black" stroke-width="1.47" d="M416.1,-305.32C402.88,-331.8 377.18,-380.5 361.54,-392 334.61,-411.79 309.14,-383.69 288.54,-410 283.11,-416.92 284.14,-425.68 287.54,-433.92"/>
<polygon fill="black" stroke="black" stroke-width="1.47" points="284.48,-435.6 292.18,-442.88 290.69,-432.39 284.48,-435.6"/>
<text text-anchor="middle" x="409.04" y="-370.3" font-family="Sans Not-Rotated 14" font-size="14.00"> &#160;&#160;&#160;&#160;&#160;&#160;&#160;&#160;</text>
</g>
<!-- Meas missing doctor -->
<g id="node11" class="node">
<title>Meas missing doctor</title>
<polygon fill="#c0bde9" stroke="black" points="598.04,-392 443.04,-392 443.04,-356 598.04,-356 598.04,-392"/>
<text text-anchor="middle" x="520.54" y="-370.3" font-family="Sans Not-Rotated 14" font-size="14.00">Meas missing doctor</text>
</g>
<!-- Meas missing operator&#45;&gt;Meas missing doctor -->
<g id="edge2" class="edge">
<title>Meas missing operator&#45;&gt;Meas missing doctor</title>
<path fill="none" stroke="black" stroke-width="2.59" d="M420.33,-305.26C418.83,-315.66 418.89,-328.67 425.54,-338 428.85,-342.65 432.85,-346.69 437.32,-350.19"/>
<polygon fill="black" stroke="black" stroke-width="2.59" points="435.56,-353.22 445.8,-355.93 439.48,-347.43 435.56,-353.22"/>
<text text-anchor="middle" x="462.04" y="-326.8" font-family="Sans Not-Rotated 14" font-size="14.00"> &#160;&#160;&#160;&#160;&#160;&#160;&#160;&#160;&#160;&#160;&#160;&#160;&#160;&#160;&#160;</text>
</g>
<!-- Meas missing operator&#45;&gt;Yellow zone doctor -->
<g id="edge47" class="edge">
<title>Meas missing operator&#45;&gt;Yellow zone doctor</title>
<path fill="none" stroke="black" stroke-width="1.11" d="M510.08,-301.94C544.47,-311.67 581.76,-328.15 606.54,-356 629.54,-381.86 666.74,-474.17 684.49,-520.33"/>
<polygon fill="black" stroke="black" stroke-width="1.11" points="681.23,-521.61 688.07,-529.7 687.77,-519.11 681.23,-521.61"/>
<text text-anchor="middle" x="666.04" y="-413.8" font-family="Sans Not-Rotated 14" font-size="14.00"> &#160;&#160;&#160;&#160;&#160;&#160;&#160;&#160;</text>
</g>
<!-- Notification operator&#45;&gt;Program change operator -->
<g id="edge5" class="edge">
<title>Notification operator&#45;&gt;Program change operator</title>
<path fill="none" stroke="black" stroke-width="1" d="M235.51,-479.11C226.23,-483.73 217.53,-489.58 210.54,-497 158.52,-552.18 55.08,-797.59 131.54,-878.6 148.33,-896.39 460.34,-906.81 629.54,-911.17"/>
<polygon fill="black" stroke="black" stroke-width="1" points="629.64,-914.67 639.72,-911.43 629.82,-907.68 629.64,-914.67"/>
<text text-anchor="middle" x="135.04" y="-674.8" font-family="Sans Not-Rotated 14" font-size="14.00"> &#160;&#160;&#160;</text>
</g>
<!-- Notification operator&#45;&gt;Red zone operator -->
<g id="edge10" class="edge">
<title>Notification operator&#45;&gt;Red zone operator</title>
<path fill="none" stroke="black" stroke-width="1.37" d="M345.8,-479.13C355.65,-484.2 365.85,-490.22 374.54,-497 462.21,-565.43 439.4,-635.59 538.54,-686 578.13,-706.13 689.17,-698.1 745.72,-703.61"/>
<polygon fill="black" stroke="black" stroke-width="1.37" points="745.59,-707.12 755.94,-704.85 746.43,-700.17 745.59,-707.12"/>
<text text-anchor="middle" x="473.04" y="-587.8" font-family="Sans Not-Rotated 14" font-size="14.00"> &#160;&#160;&#160;&#160;&#160;&#160;&#160;&#160;</text>
</g>
<!-- Notification operator&#45;&gt;Yellow zone doctor FD -->
<g id="edge18" class="edge">
<title>Notification operator&#45;&gt;Yellow zone doctor FD</title>
<path fill="none" stroke="black" stroke-width="1.31" d="M385.11,-448.22C426.98,-441.8 479.12,-433.46 525.54,-425 558.12,-419.06 565.8,-415.02 598.54,-410 644.51,-402.96 760.86,-391.62 845.55,-383.76"/>
<polygon fill="black" stroke="black" stroke-width="1.31" points="846.07,-387.23 855.71,-382.82 845.43,-380.26 846.07,-387.23"/>
<text text-anchor="middle" x="619.04" y="-413.8" font-family="Sans Not-Rotated 14" font-size="14.00"> &#160;&#160;&#160;&#160;&#160;&#160;&#160;&#160;</text>
</g>
<!-- Notification operator&#45;&gt;Monitoring completed doctor -->
<g id="edge21" class="edge">
<title>Notification operator&#45;&gt;Monitoring completed doctor</title>
<path fill="none" stroke="black" stroke-width="1" d="M227.01,-442.95C218.46,-438.33 210.66,-432.46 204.54,-425 157.84,-368.11 162.91,-274.42 168.97,-228.33"/>
<polygon fill="black" stroke="black" stroke-width="1" points="172.47,-228.6 170.42,-218.21 165.54,-227.61 172.47,-228.6"/>
<text text-anchor="middle" x="179.04" y="-326.8" font-family="Sans Not-Rotated 14" font-size="14.00"> &#160;&#160;&#160;</text>
</g>
<!-- Notification operator&#45;&gt;Red zone doctor -->
<g id="edge57" class="edge">
<title>Notification operator&#45;&gt;Red zone doctor</title>
<path fill="none" stroke="black" stroke-width="1.15" d="M381.32,-442.93C399.66,-437.94 419.02,-431.92 436.54,-425 449.67,-419.81 451.09,-414.29 464.54,-410 525.14,-390.66 545.13,-408.62 606.54,-392 682.08,-371.55 692.4,-341.08 768.54,-323 856.41,-302.13 1114.09,-293 1242.71,-289.65"/>
<polygon fill="black" stroke="black" stroke-width="1.15" points="1242.97,-293.14 1252.87,-289.39 1242.79,-286.14 1242.97,-293.14"/>
<text text-anchor="middle" x="708.04" y="-370.3" font-family="Sans Not-Rotated 14" font-size="14.00"> &#160;&#160;&#160;&#160;&#160;&#160;&#160;&#160;</text>
</g>
<!-- Notification operator&#45;&gt;Yellow zone Therapy control operator -->
<g id="edge27" class="edge">
<title>Notification operator&#45;&gt;Yellow zone Therapy control operator</title>
<path fill="none" stroke="black" stroke-width="1.07" d="M305.54,-479.26C305.54,-496.43 305.54,-523.54 305.54,-547 305.54,-723 305.54,-723 305.54,-723 305.54,-751.74 321.3,-759.26 346.54,-773 387.32,-795.2 495.21,-806.32 587.2,-811.86"/>
<polygon fill="black" stroke="black" stroke-width="1.07" points="587,-815.36 597.19,-812.45 587.41,-808.37 587,-815.36"/>
<text text-anchor="middle" x="315.04" y="-631.3" font-family="Sans Not-Rotated 14" font-size="14.00"> &#160;&#160;&#160;</text>
</g>
<!-- Notification operator&#45;&gt;Meas missing operator -->
<g id="edge30" class="edge">
<title>Notification operator&#45;&gt;Meas missing operator</title>
<path fill="none" stroke="black" stroke-width="2.77" d="M270.73,-442.94C264.22,-438.08 258.29,-432.13 254.54,-425 240.09,-397.57 275.97,-367.39 288.54,-356 310.75,-335.87 340.01,-320.22 365.71,-309.03"/>
<polygon fill="black" stroke="black" stroke-width="2.77" points="367.14,-312.23 374.99,-305.12 364.42,-305.78 367.14,-312.23"/>
<text text-anchor="middle" x="325.04" y="-370.3" font-family="Sans Not-Rotated 14" font-size="14.00"> &#160;&#160;&#160;&#160;&#160;&#160;&#160;&#160;&#160;&#160;&#160;&#160;&#160;&#160;&#160;</text>
</g>
<!-- Notification operator&#45;&gt;Notification operator -->
<g id="edge65" class="edge">
<title>Notification operator&#45;&gt;Notification operator</title>
<path fill="none" stroke="black" stroke-width="2.06" d="M385.11,-467.99C395.87,-466.82 403.04,-464.49 403.04,-461 403.04,-458.77 400.1,-457.01 395.15,-455.72"/>
<polygon fill="black" stroke="black" stroke-width="2.06" points="395.55,-452.24 385.11,-454.01 394.38,-459.14 395.55,-452.24"/>
<text text-anchor="middle" x="423.54" y="-457.3" font-family="Sans Not-Rotated 14" font-size="14.00"> &#160;&#160;&#160;&#160;&#160;&#160;&#160;&#160;</text>
</g>
<!-- Notification operator&#45;&gt;Monitoring completed doctor FD -->
<g id="edge40" class="edge">
<title>Notification operator&#45;&gt;Monitoring completed doctor FD</title>
<path fill="none" stroke="black" d="M264.88,-442.98C257.93,-438.2 251.64,-432.27 247.54,-425 244.26,-419.19 247.35,-416.66 247.54,-410 249.32,-347.26 235.65,-328.53 255.54,-269 264.17,-243.16 281.64,-244.07 289.54,-218 294.17,-202.69 297.15,-196.07 289.54,-182 278.59,-161.76 258.71,-146.58 239.24,-135.76"/>
<polygon fill="black" stroke="black" points="240.84,-132.65 230.36,-131.09 237.58,-138.84 240.84,-132.65"/>
<text text-anchor="middle" x="258.04" y="-283.3" font-family="Sans Not-Rotated 14" font-size="14.00"> </text>
</g>
<!-- Notification operator&#45;&gt;Meas missing doctor -->
<g id="edge41" class="edge">
<title>Notification operator&#45;&gt;Meas missing doctor</title>
<path fill="none" stroke="black" stroke-width="1.1" d="M296.06,-442.82C291.59,-432.19 288.76,-418.9 296.54,-410 316.01,-387.7 399.31,-396.69 428.54,-392 429.84,-391.79 431.16,-391.58 432.49,-391.36"/>
<polygon fill="black" stroke="black" stroke-width="1.1" points="433.5,-394.74 442.78,-389.63 432.34,-387.84 433.5,-394.74"/>
<text text-anchor="middle" x="317.04" y="-413.8" font-family="Sans Not-Rotated 14" font-size="14.00"> &#160;&#160;&#160;&#160;&#160;&#160;&#160;&#160;</text>
</g>
<!-- Notification operator&#45;&gt;Yellow zone doctor -->
<g id="edge44" class="edge">
<title>Notification operator&#45;&gt;Yellow zone doctor</title>
<path fill="none" stroke="black" stroke-width="1.68" d="M385.31,-471.88C414.18,-477.16 446.54,-485.12 474.54,-497 485.43,-501.62 485.58,-507.54 496.54,-512 507.37,-516.41 561.12,-525.8 609.89,-533.74"/>
<polygon fill="black" stroke="black" stroke-width="1.68" points="609.45,-537.21 619.88,-535.36 610.57,-530.3 609.45,-537.21"/>
<text text-anchor="middle" x="517.04" y="-500.8" font-family="Sans Not-Rotated 14" font-size="14.00"> &#160;&#160;&#160;&#160;&#160;&#160;&#160;&#160;</text>
</g>
<!-- Notification operator&#45;&gt;end -->
<g id="edge48" class="edge">
<title>Notification operator&#45;&gt;end</title>
<path fill="none" stroke="black" stroke-dasharray="5,2" d="M225.79,-450.25C147.11,-438.34 38.54,-414.71 38.54,-375 38.54,-375 38.54,-375 38.54,-112 38.54,-92.99 38.54,-71.69 38.54,-54.7"/>
<polygon fill="black" stroke="black" points="42.04,-54.22 38.54,-44.22 35.04,-54.22 42.04,-54.22"/>
<text text-anchor="middle" x="59.04" y="-239.8" font-family="Sans Not-Rotated 14" font-size="14.00"> &#160;&#160;&#160;&#160;&#160;&#160;&#160;&#160;</text>
</g>
<!-- Monitoring completed doctor FD&#45;&gt;end -->
<g id="edge58" class="edge">
<title>Monitoring completed doctor FD&#45;&gt;end</title>
<path fill="none" stroke="black" stroke-dasharray="5,2" d="M157.19,-94.84C130.77,-78.84 91.65,-55.15 65.64,-39.41"/>
<polygon fill="black" stroke="black" points="67.39,-36.38 57.02,-34.19 63.77,-42.37 67.39,-36.38"/>
<text text-anchor="middle" x="135.04" y="-65.8" font-family="Sans Not-Rotated 14" font-size="14.00"> &#160;&#160;&#160;</text>
</g>
<!-- Meas missing doctor&#45;&gt;Red zone operator -->
<g id="edge60" class="edge">
<title>Meas missing doctor&#45;&gt;Red zone operator</title>
<path fill="none" stroke="black" stroke-width="1.06" d="M571.16,-392.17C578.48,-396.82 585.04,-402.67 589.54,-410 613.85,-449.6 557.67,-466.38 566.54,-512 586.31,-613.66 607.77,-661.72 643.54,-686 680.79,-711.28 700.47,-697.08 745.82,-703.37"/>
<polygon fill="black" stroke="black" stroke-width="1.06" points="745.46,-706.86 755.9,-705.05 746.61,-699.96 745.46,-706.86"/>
<text text-anchor="middle" x="588.04" y="-544.3" font-family="Sans Not-Rotated 14" font-size="14.00"> &#160;&#160;&#160;</text>
</g>
<!-- Meas missing doctor&#45;&gt;Monitoring completed doctor -->
<g id="edge19" class="edge">
<title>Meas missing doctor&#45;&gt;Monitoring completed doctor</title>
<path fill="none" stroke="black" stroke-width="1.01" d="M447.66,-355.9C406.11,-344.57 353.85,-327.62 310.54,-305 299.03,-298.99 239.97,-253.18 203.25,-224.4"/>
<polygon fill="black" stroke="black" stroke-width="1.01" points="205.36,-221.61 195.33,-218.18 201.04,-227.11 205.36,-221.61"/>
<text text-anchor="middle" x="320.04" y="-283.3" font-family="Sans Not-Rotated 14" font-size="14.00"> &#160;&#160;&#160;</text>
</g>
<!-- Meas missing doctor&#45;&gt;Meas missing operator -->
<g id="edge32" class="edge">
<title>Meas missing doctor&#45;&gt;Meas missing operator</title>
<path fill="none" stroke="black" stroke-width="1.36" d="M516.35,-355.96C513.01,-345.38 507.4,-332.11 498.54,-323 493.81,-318.14 488.27,-313.88 482.4,-310.16"/>
<polygon fill="black" stroke="black" stroke-width="1.36" points="484.01,-307.05 473.59,-305.09 480.51,-313.11 484.01,-307.05"/>
<text text-anchor="middle" x="530.04" y="-326.8" font-family="Sans Not-Rotated 14" font-size="14.00"> &#160;&#160;&#160;&#160;&#160;&#160;&#160;&#160;</text>
</g>
<!-- Meas missing doctor&#45;&gt;Notification operator -->
<g id="edge36" class="edge">
<title>Meas missing doctor&#45;&gt;Notification operator</title>
<path fill="none" stroke="black" stroke-width="2.15" d="M442.78,-390.59C407.16,-398.05 371.15,-406.18 363.54,-410 350.79,-416.4 338.54,-426.22 328.6,-435.47"/>
<polygon fill="black" stroke="black" stroke-width="2.15" points="325.91,-433.21 321.17,-442.69 330.78,-438.23 325.91,-433.21"/>
<text text-anchor="middle" x="400.04" y="-413.8" font-family="Sans Not-Rotated 14" font-size="14.00"> &#160;&#160;&#160;&#160;&#160;&#160;&#160;&#160;&#160;&#160;&#160;&#160;&#160;&#160;&#160;</text>
</g>
<!-- Meas missing doctor&#45;&gt;Yellow zone doctor -->
<g id="edge59" class="edge">
<title>Meas missing doctor&#45;&gt;Yellow zone doctor</title>
<path fill="none" stroke="black" stroke-width="1.07" d="M592.26,-392.06C600.75,-396.68 608.52,-402.55 614.54,-410 634,-434.11 611.09,-451.08 624.54,-479 632.9,-496.35 647.64,-511.7 661.44,-523.41"/>
<polygon fill="black" stroke="black" stroke-width="1.07" points="659.44,-526.29 669.41,-529.87 663.84,-520.85 659.44,-526.29"/>
<text text-anchor="middle" x="634.04" y="-457.3" font-family="Sans Not-Rotated 14" font-size="14.00"> &#160;&#160;&#160;</text>
</g>
<!-- Yellow zone doctor&#45;&gt;Red zone operator -->
<g id="edge11" class="edge">
<title>Yellow zone doctor&#45;&gt;Red zone operator</title>
<path fill="none" stroke="black" stroke-width="1.21" d="M671.42,-566.32C647.21,-586.69 614.88,-621.69 631.54,-653 643.87,-676.18 656.48,-675.47 680.54,-686 692.92,-691.42 719.09,-698.11 746.03,-704.18"/>
<polygon fill="black" stroke="black" stroke-width="1.21" points="745.44,-707.63 755.96,-706.38 746.96,-700.8 745.44,-707.63"/>
<text text-anchor="middle" x="652.04" y="-631.3" font-family="Sans Not-Rotated 14" font-size="14.00"> &#160;&#160;&#160;&#160;&#160;&#160;&#160;&#160;</text>
</g>
<!-- Yellow zone doctor&#45;&gt;Red zone doctor FD -->
<g id="edge15" class="edge">
<title>Yellow zone doctor&#45;&gt;Red zone doctor FD</title>
<path fill="none" stroke="black" stroke-width="1.28" d="M717.33,-566.1C732.57,-576.84 753.44,-590.27 773.54,-599 788.51,-605.51 804.97,-611.02 821.07,-615.62"/>
<polygon fill="black" stroke="black" stroke-width="1.28" points="820.47,-619.08 831.04,-618.36 822.32,-612.33 820.47,-619.08"/>
<text text-anchor="middle" x="794.04" y="-587.8" font-family="Sans Not-Rotated 14" font-size="14.00"> &#160;&#160;&#160;&#160;&#160;&#160;&#160;&#160;</text>
</g>
<!-- Yellow zone doctor&#45;&gt;Yellow zone doctor FD -->
<g id="edge16" class="edge">
<title>Yellow zone doctor&#45;&gt;Yellow zone doctor FD</title>
<path fill="none" stroke="black" stroke-width="3.63" d="M729.82,-529.99C755.25,-517.18 789.96,-498.54 818.54,-479 838.02,-465.68 885.33,-425.06 915.55,-398.7"/>
<polygon fill="black" stroke="black" stroke-width="3.63" points="917.99,-401.22 923.22,-392.01 913.38,-395.95 917.99,-401.22"/>
<text text-anchor="middle" x="900.04" y="-457.3" font-family="Sans Not-Rotated 14" font-size="14.00"> &#160;&#160;&#160;&#160;&#160;&#160;&#160;&#160;&#160;&#160;&#160;&#160;&#160;&#160;&#160;</text>
</g>
<!-- Yellow zone doctor&#45;&gt;Notification operator -->
<g id="edge37" class="edge">
<title>Yellow zone doctor&#45;&gt;Notification operator</title>
<path fill="none" stroke="black" stroke-width="1.37" d="M641.77,-530C624.19,-524.31 604.51,-517.91 586.54,-512 566.51,-505.42 562.04,-501.9 541.54,-497 493.79,-485.59 439.67,-477.25 395.31,-471.57"/>
<polygon fill="black" stroke="black" stroke-width="1.37" points="395.49,-468.07 385.13,-470.29 394.62,-475.01 395.49,-468.07"/>
<text text-anchor="middle" x="607.04" y="-500.8" font-family="Sans Not-Rotated 14" font-size="14.00"> &#160;&#160;&#160;&#160;&#160;&#160;&#160;&#160;</text>
</g>
<!-- start -->
<g id="node13" class="node">
<title>start</title>
<ellipse fill="#95d600" stroke="black" cx="1218.54" cy="-818.3" rx="27.1" ry="27.1"/>
<text text-anchor="middle" x="1218.54" y="-814.6" font-family="Sans Not-Rotated 14" font-size="14.00">start</text>
</g>
<!-- start&#45;&gt;Red zone operator -->
<g id="edge8" class="edge">
<title>start&#45;&gt;Red zone operator</title>
<path fill="none" stroke="black" stroke-dasharray="5,2" d="M1192.04,-810.89C1134.7,-797.03 997.15,-763.77 908.66,-742.37"/>
<polygon fill="black" stroke="black" points="909.47,-738.97 898.92,-740.02 907.82,-745.77 909.47,-738.97"/>
<text text-anchor="middle" x="1055.04" y="-761.8" font-family="Sans Not-Rotated 14" font-size="14.00"> &#160;&#160;&#160;&#160;&#160;&#160;&#160;&#160;</text>
</g>
<!-- start&#45;&gt;Red zone doctor -->
<g id="edge61" class="edge">
<title>start&#45;&gt;Red zone doctor</title>
<path fill="none" stroke="black" stroke-dasharray="5,2" d="M1244.36,-809.08C1266,-801.53 1297.17,-789.09 1321.54,-773 1440.09,-694.72 1496.54,-647.57 1496.54,-505.5 1496.54,-505.5 1496.54,-505.5 1496.54,-373 1496.54,-348.35 1491.82,-338.36 1472.54,-323 1449.96,-305.01 1419.94,-295.88 1392.33,-291.37"/>
<polygon fill="black" stroke="black" points="1392.69,-287.89 1382.29,-289.91 1391.68,-294.82 1392.69,-287.89"/>
<text text-anchor="middle" x="1505.04" y="-544.3" font-family="Sans Not-Rotated 14" font-size="14.00"> &#160;&#160;&#160;</text>
</g>
</g>
</svg>
