<?xml version="1.0" encoding="UTF-8" standalone="no"?>
<!DOCTYPE svg PUBLIC "-//W3C//DTD SVG 1.1//EN"
 "http://www.w3.org/Graphics/SVG/1.1/DTD/svg11.dtd">
<!-- Generated by graphviz version 3.0.0 (20220226.1711)
 -->
<!-- Pages: 1 -->
<svg width="1041pt" height="1028pt"
 viewBox="0.00 0.00 1040.50 1027.60" xmlns="http://www.w3.org/2000/svg" xmlns:xlink="http://www.w3.org/1999/xlink">
<g id="graph0" class="graph" transform="scale(1 1) rotate(0) translate(4 1023.6)">
<polygon fill="white" stroke="transparent" points="-4,4 -4,-1023.6 1036.5,-1023.6 1036.5,4 -4,4"/>
<!-- Program change operator -->
<g id="node1" class="node">
<title>Program change operator</title>
<polygon fill="#ffffff" stroke="black" points="193,-1019.6 0,-1019.6 0,-983.6 193,-983.6 193,-1019.6"/>
<text text-anchor="middle" x="96.5" y="-997.9" font-family="Sans Not-Rotated 14" font-size="14.00">Program change operator</text>
</g>
<!-- Yellow zone Therapy control operator -->
<g id="node7" class="node">
<title>Yellow zone Therapy control operator</title>
<polygon fill="#e0ddf4" stroke="black" points="585.5,-923.3 307.5,-923.3 307.5,-887.3 585.5,-887.3 585.5,-923.3"/>
<text text-anchor="middle" x="446.5" y="-901.6" font-family="Sans Not-Rotated 14" font-size="14.00">Yellow zone Therapy control operator</text>
</g>
<!-- Program change operator&#45;&gt;Yellow zone Therapy control operator -->
<g id="edge1" class="edge">
<title>Program change operator&#45;&gt;Yellow zone Therapy control operator</title>
<path fill="none" stroke="black" stroke-width="1.03" d="M159.88,-983.52C220,-967.32 310.28,-943 373.4,-925.99"/>
<polygon fill="black" stroke="black" stroke-width="1.03" points="374.55,-929.31 383.29,-923.33 372.73,-922.55 374.55,-929.31"/>
<text text-anchor="middle" x="292" y="-954.4" font-family="Sans Not-Rotated 14" font-size="14.00"> &#160;&#160;&#160;</text>
</g>
<!-- Red zone operator -->
<g id="node2" class="node">
<title>Red zone operator</title>
<polygon fill="#1d2559" stroke="black" points="651,-827 506,-827 506,-791 651,-791 651,-827"/>
<text text-anchor="middle" x="578.5" y="-805.3" font-family="Sans Not-Rotated 14" font-size="14.00" fill="white">Red zone operator</text>
</g>
<!-- Red zone operator&#45;&gt;Red zone operator -->
<g id="edge42" class="edge">
<title>Red zone operator&#45;&gt;Red zone operator</title>
<path fill="none" stroke="black" stroke-width="1.52" d="M651.29,-816.11C661.87,-814.98 669,-812.61 669,-809 669,-806.69 666.07,-804.88 661.19,-803.59"/>
<polygon fill="black" stroke="black" stroke-width="1.52" points="661.74,-800.13 651.29,-801.89 660.55,-807.03 661.74,-800.13"/>
<text text-anchor="middle" x="689.5" y="-805.3" font-family="Sans Not-Rotated 14" font-size="14.00"> &#160;&#160;&#160;&#160;&#160;&#160;&#160;&#160;</text>
</g>
<!-- Red zone doctor FD -->
<g id="node3" class="node">
<title>Red zone doctor FD</title>
<polygon fill="#1d2559" stroke="black" points="547,-740 394,-740 394,-704 547,-704 547,-740"/>
<text text-anchor="middle" x="470.5" y="-718.3" font-family="Sans Not-Rotated 14" font-size="14.00" fill="white">Red zone doctor FD</text>
</g>
<!-- Red zone operator&#45;&gt;Red zone doctor FD -->
<g id="edge9" class="edge">
<title>Red zone operator&#45;&gt;Red zone doctor FD</title>
<path fill="none" stroke="black" stroke-width="3.35" d="M505.86,-793.24C495.45,-788.31 485.82,-781.75 478.5,-773 473.25,-766.72 470.76,-758.38 469.72,-750.33"/>
<polygon fill="black" stroke="black" stroke-width="3.35" points="473.19,-749.85 469.07,-740.09 466.21,-750.29 473.19,-749.85"/>
<text text-anchor="middle" x="515" y="-761.8" font-family="Sans Not-Rotated 14" font-size="14.00"> &#160;&#160;&#160;&#160;&#160;&#160;&#160;&#160;&#160;&#160;&#160;&#160;&#160;&#160;&#160;</text>
</g>
<!-- Red zone doctor -->
<g id="node6" class="node">
<title>Red zone doctor</title>
<polygon fill="#1f3b98" stroke="black" points="731,-479 602,-479 602,-443 731,-443 731,-479"/>
<text text-anchor="middle" x="666.5" y="-457.3" font-family="Sans Not-Rotated 14" font-size="14.00" fill="white">Red zone doctor</text>
</g>
<!-- Red zone operator&#45;&gt;Red zone doctor -->
<g id="edge15" class="edge">
<title>Red zone operator&#45;&gt;Red zone doctor</title>
<path fill="none" stroke="black" stroke-width="5" d="M651.2,-801.07C699.28,-792.02 753.5,-771.13 753.5,-723 753.5,-723 753.5,-723 753.5,-547 753.5,-520.16 732.05,-499.01 710.45,-484.53"/>
<polygon fill="black" stroke="black" stroke-width="5" points="712.68,-480.76 701.89,-479.11 708,-488.16 712.68,-480.76"/>
<text text-anchor="middle" x="790" y="-631.3" font-family="Sans Not-Rotated 14" font-size="14.00"> &#160;&#160;&#160;&#160;&#160;&#160;&#160;&#160;&#160;&#160;&#160;&#160;&#160;&#160;&#160;</text>
</g>
<!-- Red zone operator&#45;&gt;Yellow zone Therapy control operator -->
<g id="edge18" class="edge">
<title>Red zone operator&#45;&gt;Yellow zone Therapy control operator</title>
<path fill="none" stroke="black" stroke-width="1.05" d="M565.66,-827.22C557.31,-837.62 545.73,-850.62 533.5,-860 522.35,-868.55 509.31,-876.21 496.76,-882.66"/>
<polygon fill="black" stroke="black" stroke-width="1.05" points="495.14,-879.55 487.74,-887.13 498.25,-885.82 495.14,-879.55"/>
<text text-anchor="middle" x="560" y="-848.8" font-family="Sans Not-Rotated 14" font-size="14.00"> &#160;&#160;&#160;</text>
</g>
<!-- Red zone doctor FD&#45;&gt;Red zone operator -->
<g id="edge5" class="edge">
<title>Red zone doctor FD&#45;&gt;Red zone operator</title>
<path fill="none" stroke="black" stroke-width="3.44" d="M528.91,-740.16C538.57,-744.84 547.9,-750.7 555.5,-758 562.14,-764.37 567.04,-773.03 570.57,-781.35"/>
<polygon fill="black" stroke="black" stroke-width="3.44" points="567.32,-782.66 574.1,-790.8 573.88,-780.21 567.32,-782.66"/>
<text text-anchor="middle" x="603" y="-761.8" font-family="Sans Not-Rotated 14" font-size="14.00"> &#160;&#160;&#160;&#160;&#160;&#160;&#160;&#160;&#160;&#160;&#160;&#160;&#160;&#160;&#160;</text>
</g>
<!-- Red zone doctor FD&#45;&gt;Red zone doctor FD -->
<g id="edge43" class="edge">
<title>Red zone doctor FD&#45;&gt;Red zone doctor FD</title>
<path fill="none" stroke="black" stroke-width="2.55" d="M547.25,-729.03C557.89,-727.87 565,-725.53 565,-722 565,-719.74 562.08,-717.97 557.19,-716.68"/>
<polygon fill="black" stroke="black" stroke-width="2.55" points="557.7,-713.22 547.25,-714.97 556.52,-720.12 557.7,-713.22"/>
<text text-anchor="middle" x="601.5" y="-718.3" font-family="Sans Not-Rotated 14" font-size="14.00"> &#160;&#160;&#160;&#160;&#160;&#160;&#160;&#160;&#160;&#160;&#160;&#160;&#160;&#160;&#160;</text>
</g>
<!-- Yellow zone doctor FD -->
<g id="node4" class="node">
<title>Yellow zone doctor FD</title>
<polygon fill="#5661c6" stroke="black" points="502,-566 329,-566 329,-530 502,-530 502,-566"/>
<text text-anchor="middle" x="415.5" y="-544.3" font-family="Sans Not-Rotated 14" font-size="14.00" fill="white">Yellow zone doctor FD</text>
</g>
<!-- Red zone doctor FD&#45;&gt;Yellow zone doctor FD -->
<g id="edge11" class="edge">
<title>Red zone doctor FD&#45;&gt;Yellow zone doctor FD</title>
<path fill="none" stroke="black" stroke-width="1.5" d="M467.25,-703.75C464.84,-690.05 461.77,-670.38 460.5,-653 459.33,-637.04 457.55,-632.73 460.5,-617 462.08,-608.56 465.92,-607.44 467.5,-599 468.73,-592.45 470.63,-589.88 467.5,-584 465.31,-579.89 462.4,-576.18 459.08,-572.84"/>
<polygon fill="black" stroke="black" stroke-width="1.5" points="461.11,-569.98 451.24,-566.14 456.56,-575.3 461.11,-569.98"/>
<text text-anchor="middle" x="481" y="-631.3" font-family="Sans Not-Rotated 14" font-size="14.00"> &#160;&#160;&#160;&#160;&#160;&#160;&#160;&#160;</text>
</g>
<!-- Red zone doctor FD&#45;&gt;Red zone doctor -->
<g id="edge16" class="edge">
<title>Red zone doctor FD&#45;&gt;Red zone doctor</title>
<path fill="none" stroke="black" stroke-width="1.73" d="M513.69,-703.9C555.13,-684.98 615.55,-650.23 644.5,-599 663.83,-564.78 667.46,-518.53 667.55,-489.49"/>
<polygon fill="black" stroke="black" stroke-width="1.73" points="671.04,-489.22 667.43,-479.26 664.05,-489.3 671.04,-489.22"/>
<text text-anchor="middle" x="672" y="-587.8" font-family="Sans Not-Rotated 14" font-size="14.00"> &#160;&#160;&#160;&#160;&#160;&#160;&#160;&#160;</text>
</g>
<!-- Red zone doctor FD&#45;&gt;Yellow zone Therapy control operator -->
<g id="edge17" class="edge">
<title>Red zone doctor FD&#45;&gt;Yellow zone Therapy control operator</title>
<path fill="none" stroke="black" stroke-width="1.21" d="M466.02,-740.21C462.62,-753.88 458.11,-773.54 455.5,-791 451.15,-820.15 448.81,-853.84 447.62,-876.87"/>
<polygon fill="black" stroke="black" stroke-width="1.21" points="444.12,-876.78 447.14,-886.94 451.11,-877.12 444.12,-876.78"/>
<text text-anchor="middle" x="476" y="-805.3" font-family="Sans Not-Rotated 14" font-size="14.00"> &#160;&#160;&#160;&#160;&#160;&#160;&#160;&#160;</text>
</g>
<!-- Notification operator -->
<g id="node9" class="node">
<title>Notification operator</title>
<polygon fill="#1946ba" stroke="black" points="349,-479 190,-479 190,-443 349,-443 349,-479"/>
<text text-anchor="middle" x="269.5" y="-457.3" font-family="Sans Not-Rotated 14" font-size="14.00" fill="white">Notification operator</text>
</g>
<!-- Red zone doctor FD&#45;&gt;Notification operator -->
<g id="edge22" class="edge">
<title>Red zone doctor FD&#45;&gt;Notification operator</title>
<path fill="none" stroke="black" stroke-width="1.58" d="M394.95,-703.99C351.64,-692.67 297.01,-675.69 251.5,-653 214.74,-634.67 195.23,-635.56 176.5,-599 160.07,-566.93 157.95,-559.91 211.5,-497 215.31,-492.52 219.84,-488.46 224.67,-484.82"/>
<polygon fill="black" stroke="black" stroke-width="1.58" points="226.74,-487.65 233,-479.1 222.77,-481.88 226.74,-487.65"/>
<text text-anchor="middle" x="197" y="-587.8" font-family="Sans Not-Rotated 14" font-size="14.00"> &#160;&#160;&#160;&#160;&#160;&#160;&#160;&#160;</text>
</g>
<!-- Yellow zone doctor -->
<g id="node12" class="node">
<title>Yellow zone doctor</title>
<polygon fill="#7d7fd2" stroke="black" points="410,-653 261,-653 261,-617 410,-617 410,-653"/>
<text text-anchor="middle" x="335.5" y="-631.3" font-family="Sans Not-Rotated 14" font-size="14.00">Yellow zone doctor</text>
</g>
<!-- Red zone doctor FD&#45;&gt;Yellow zone doctor -->
<g id="edge27" class="edge">
<title>Red zone doctor FD&#45;&gt;Yellow zone doctor</title>
<path fill="none" stroke="black" stroke-width="2.06" d="M425.36,-703.9C413.95,-698.8 401.96,-692.75 391.5,-686 380.21,-678.71 368.92,-669.18 359.48,-660.4"/>
<polygon fill="black" stroke="black" stroke-width="2.06" points="361.66,-657.65 352.01,-653.26 356.82,-662.7 361.66,-657.65"/>
<text text-anchor="middle" x="412" y="-674.8" font-family="Sans Not-Rotated 14" font-size="14.00"> &#160;&#160;&#160;&#160;&#160;&#160;&#160;&#160;</text>
</g>
<!-- Yellow zone doctor FD&#45;&gt;Program change operator -->
<g id="edge3" class="edge">
<title>Yellow zone doctor FD&#45;&gt;Program change operator</title>
<path fill="none" stroke="black" stroke-width="1.02" d="M329.2,-566.05C302.09,-572.02 275.98,-578.58 263.5,-584 200.07,-611.55 181.67,-620.43 134.5,-671 101.77,-706.09 80.5,-716.51 80.5,-764.5 80.5,-906.3 80.5,-906.3 80.5,-906.3 80.5,-929.17 85.13,-954.73 89.41,-973.46"/>
<polygon fill="black" stroke="black" stroke-width="1.02" points="86.05,-974.46 91.79,-983.36 92.86,-972.82 86.05,-974.46"/>
<text text-anchor="middle" x="90" y="-761.8" font-family="Sans Not-Rotated 14" font-size="14.00"> &#160;&#160;&#160;</text>
</g>
<!-- Yellow zone doctor FD&#45;&gt;Red zone operator -->
<g id="edge7" class="edge">
<title>Yellow zone doctor FD&#45;&gt;Red zone operator</title>
<path fill="none" stroke="black" stroke-width="1.69" d="M337.99,-566.04C284.91,-581.87 228.04,-609.63 251.5,-653 303.74,-749.6 364.04,-736.18 467.5,-773 481.87,-778.11 497.41,-783.25 512.19,-787.96"/>
<polygon fill="black" stroke="black" stroke-width="1.69" points="511.18,-791.31 521.77,-790.99 513.28,-784.64 511.18,-791.31"/>
<text text-anchor="middle" x="293" y="-674.8" font-family="Sans Not-Rotated 14" font-size="14.00"> &#160;&#160;&#160;&#160;&#160;&#160;&#160;&#160;</text>
</g>
<!-- Yellow zone doctor FD&#45;&gt;Red zone doctor FD -->
<g id="edge32" class="edge">
<title>Yellow zone doctor FD&#45;&gt;Red zone doctor FD</title>
<path fill="none" stroke="black" stroke-width="1.33" d="M457.27,-566.14C466.24,-571.05 475.21,-577 482.5,-584 494.71,-595.72 497.13,-600.65 501.5,-617 508.63,-643.68 497.44,-673.89 486.56,-694.85"/>
<polygon fill="black" stroke="black" stroke-width="1.33" points="483.4,-693.34 481.66,-703.79 489.54,-696.71 483.4,-693.34"/>
<text text-anchor="middle" x="525" y="-631.3" font-family="Sans Not-Rotated 14" font-size="14.00"> &#160;&#160;&#160;&#160;&#160;&#160;&#160;&#160;</text>
</g>
<!-- Yellow zone doctor FD&#45;&gt;Red zone doctor -->
<g id="edge33" class="edge">
<title>Yellow zone doctor FD&#45;&gt;Red zone doctor</title>
<path fill="none" stroke="black" stroke-width="1.28" d="M433.99,-529.84C446.92,-518.78 465.1,-505.03 483.5,-497 517.35,-482.23 557.41,-473.67 591.41,-468.72"/>
<polygon fill="black" stroke="black" stroke-width="1.28" points="592.32,-472.13 601.75,-467.3 591.37,-465.19 592.32,-472.13"/>
<text text-anchor="middle" x="504" y="-500.8" font-family="Sans Not-Rotated 14" font-size="14.00"> &#160;&#160;&#160;&#160;&#160;&#160;&#160;&#160;</text>
</g>
<!-- Yellow zone doctor FD&#45;&gt;Notification operator -->
<g id="edge21" class="edge">
<title>Yellow zone doctor FD&#45;&gt;Notification operator</title>
<path fill="none" stroke="black" stroke-width="1.94" d="M374.55,-529.85C362.99,-524.56 350.56,-518.42 339.5,-512 325.75,-504.02 311.34,-494.03 299.18,-485.09"/>
<polygon fill="black" stroke="black" stroke-width="1.94" points="301.27,-482.28 291.17,-479.1 297.08,-487.89 301.27,-482.28"/>
<text text-anchor="middle" x="360" y="-500.8" font-family="Sans Not-Rotated 14" font-size="14.00"> &#160;&#160;&#160;&#160;&#160;&#160;&#160;&#160;</text>
</g>
<!-- Yellow zone doctor FD&#45;&gt;Yellow zone doctor -->
<g id="edge28" class="edge">
<title>Yellow zone doctor FD&#45;&gt;Yellow zone doctor</title>
<path fill="none" stroke="black" stroke-width="2.16" d="M328.75,-561.84C317.72,-567.04 307.77,-574.19 300.5,-584 294.54,-592.05 297.75,-600.96 304.17,-609.02"/>
<polygon fill="black" stroke="black" stroke-width="2.16" points="302.03,-611.85 311.44,-616.71 307.12,-607.04 302.03,-611.85"/>
<text text-anchor="middle" x="337" y="-587.8" font-family="Sans Not-Rotated 14" font-size="14.00"> &#160;&#160;&#160;&#160;&#160;&#160;&#160;&#160;&#160;&#160;&#160;&#160;&#160;&#160;&#160;</text>
</g>
<!-- Monitoring completed doctor -->
<g id="node5" class="node">
<title>Monitoring completed doctor</title>
<polygon fill="#ffffff" stroke="black" points="565.5,-218 351.5,-218 351.5,-182 565.5,-182 565.5,-218"/>
<text text-anchor="middle" x="458.5" y="-196.3" font-family="Sans Not-Rotated 14" font-size="14.00">Monitoring completed doctor</text>
</g>
<!-- Monitoring completed doctor FD -->
<g id="node10" class="node">
<title>Monitoring completed doctor FD</title>
<polygon fill="#ffffff" stroke="black" points="577.5,-131 339.5,-131 339.5,-95 577.5,-95 577.5,-131"/>
<text text-anchor="middle" x="458.5" y="-109.3" font-family="Sans Not-Rotated 14" font-size="14.00">Monitoring completed doctor FD</text>
</g>
<!-- Monitoring completed doctor&#45;&gt;Monitoring completed doctor FD -->
<g id="edge26" class="edge">
<title>Monitoring completed doctor&#45;&gt;Monitoring completed doctor FD</title>
<path fill="none" stroke="black" stroke-width="1.02" d="M458.5,-181.8C458.5,-170.16 458.5,-154.55 458.5,-141.24"/>
<polygon fill="black" stroke="black" stroke-width="1.02" points="462,-141.18 458.5,-131.18 455,-141.18 462,-141.18"/>
<text text-anchor="middle" x="468" y="-152.8" font-family="Sans Not-Rotated 14" font-size="14.00"> &#160;&#160;&#160;</text>
</g>
<!-- Red zone doctor&#45;&gt;Red zone operator -->
<g id="edge4" class="edge">
<title>Red zone doctor&#45;&gt;Red zone operator</title>
<path fill="none" stroke="black" stroke-width="3.47" d="M731.22,-464.12C788.31,-469.87 862.5,-488.58 862.5,-547 862.5,-723 862.5,-723 862.5,-723 862.5,-765.35 745.15,-788.37 661.32,-799.42"/>
<polygon fill="black" stroke="black" stroke-width="3.47" points="660.74,-795.97 651.27,-800.71 661.63,-802.91 660.74,-795.97"/>
<text text-anchor="middle" x="899" y="-631.3" font-family="Sans Not-Rotated 14" font-size="14.00"> &#160;&#160;&#160;&#160;&#160;&#160;&#160;&#160;&#160;&#160;&#160;&#160;&#160;&#160;&#160;</text>
</g>
<!-- Red zone doctor&#45;&gt;Red zone doctor FD -->
<g id="edge8" class="edge">
<title>Red zone doctor&#45;&gt;Red zone doctor FD</title>
<path fill="none" stroke="black" stroke-width="3.51" d="M656.42,-479.26C643.4,-500.81 619.32,-538.2 593.5,-566 584.9,-575.26 578.6,-573.55 571.5,-584 553.41,-610.62 567.26,-626.15 549.5,-653 537.96,-670.45 520.73,-686 505.31,-697.82"/>
<polygon fill="black" stroke="black" stroke-width="3.51" points="502.93,-695.22 496.97,-703.98 507.1,-700.85 502.93,-695.22"/>
<text text-anchor="middle" x="608" y="-587.8" font-family="Sans Not-Rotated 14" font-size="14.00"> &#160;&#160;&#160;&#160;&#160;&#160;&#160;&#160;&#160;&#160;&#160;&#160;&#160;&#160;&#160;</text>
</g>
<!-- Red zone doctor&#45;&gt;Yellow zone doctor -->
<g id="edge30" class="edge">
<title>Red zone doctor&#45;&gt;Yellow zone doctor</title>
<path fill="none" stroke="black" stroke-width="1.26" d="M626.59,-479.1C615.59,-484.35 603.84,-490.48 593.5,-497 532.55,-535.42 532.16,-567.22 467.5,-599 452.79,-606.23 436.39,-612.11 420.3,-616.84"/>
<polygon fill="black" stroke="black" stroke-width="1.26" points="419.01,-613.56 410.33,-619.64 420.91,-620.3 419.01,-613.56"/>
<text text-anchor="middle" x="571" y="-544.3" font-family="Sans Not-Rotated 14" font-size="14.00"> &#160;&#160;&#160;&#160;&#160;&#160;&#160;&#160;</text>
</g>
<!-- Yellow zone Therapy control operator&#45;&gt;Red zone operator -->
<g id="edge34" class="edge">
<title>Yellow zone Therapy control operator&#45;&gt;Red zone operator</title>
<path fill="none" stroke="black" stroke-width="1.16" d="M455.06,-887.14C462.36,-874.03 473.98,-856.33 488.5,-845 495.15,-839.81 502.66,-835.31 510.44,-831.43"/>
<polygon fill="black" stroke="black" stroke-width="1.16" points="512.06,-834.53 519.66,-827.15 509.11,-828.18 512.06,-834.53"/>
<text text-anchor="middle" x="509" y="-848.8" font-family="Sans Not-Rotated 14" font-size="14.00"> &#160;&#160;&#160;&#160;&#160;&#160;&#160;&#160;</text>
</g>
<!-- Yellow zone Therapy control operator&#45;&gt;Red zone doctor FD -->
<g id="edge36" class="edge">
<title>Yellow zone Therapy control operator&#45;&gt;Red zone doctor FD</title>
<path fill="none" stroke="black" stroke-width="1.09" d="M439.23,-887.13C430.75,-864.7 419.03,-824.34 428.5,-791 432.83,-775.75 441.66,-760.56 450.12,-748.43"/>
<polygon fill="black" stroke="black" stroke-width="1.09" points="453.07,-750.31 456.13,-740.17 447.41,-746.19 453.07,-750.31"/>
<text text-anchor="middle" x="438" y="-805.3" font-family="Sans Not-Rotated 14" font-size="14.00"> &#160;&#160;&#160;</text>
</g>
<!-- Yellow zone Therapy control operator&#45;&gt;Red zone doctor -->
<g id="edge37" class="edge">
<title>Yellow zone Therapy control operator&#45;&gt;Red zone doctor</title>
<path fill="none" stroke="black" stroke-width="1.05" d="M577.24,-887.27C706.04,-862.09 890.42,-800.69 939.5,-653 964.14,-578.86 923.9,-539.73 858.5,-497 839.31,-484.47 786.8,-475.41 741.53,-469.65"/>
<polygon fill="black" stroke="black" stroke-width="1.05" points="741.75,-466.15 731.4,-468.4 740.9,-473.1 741.75,-466.15"/>
<text text-anchor="middle" x="942" y="-674.8" font-family="Sans Not-Rotated 14" font-size="14.00"> &#160;&#160;&#160;</text>
</g>
<!-- Yellow zone Therapy control operator&#45;&gt;Notification operator -->
<g id="edge35" class="edge">
<title>Yellow zone Therapy control operator&#45;&gt;Notification operator</title>
<path fill="none" stroke="black" stroke-width="1.12" d="M307.24,-888.94C256.26,-881.62 205.64,-871.86 183.5,-860 106.75,-818.89 110.64,-771.36 93.5,-686 75.64,-597.07 98.35,-551.96 170.5,-497 177.51,-491.66 185.4,-487.09 193.58,-483.19"/>
<polygon fill="black" stroke="black" stroke-width="1.12" points="195.19,-486.31 202.92,-479.07 192.36,-479.91 195.19,-486.31"/>
<text text-anchor="middle" x="114" y="-674.8" font-family="Sans Not-Rotated 14" font-size="14.00"> &#160;&#160;&#160;&#160;&#160;&#160;&#160;&#160;</text>
</g>
<!-- end -->
<g id="node14" class="node">
<title>end</title>
<ellipse fill="#ea4126" stroke="black" cx="458.5" cy="-22" rx="18" ry="18"/>
<ellipse fill="none" stroke="black" cx="458.5" cy="-22" rx="22" ry="22"/>
</g>
<!-- Yellow zone Therapy control operator&#45;&gt;end -->
<g id="edge38" class="edge">
<title>Yellow zone Therapy control operator&#45;&gt;end</title>
<path fill="none" stroke="black" stroke-dasharray="5,2" d="M585.57,-894.69C753.44,-881.17 1013.5,-853.25 1013.5,-810 1013.5,-810 1013.5,-810 1013.5,-112 1013.5,-58.71 609.44,-31.56 490.85,-24.74"/>
<polygon fill="black" stroke="black" points="490.78,-21.24 480.6,-24.17 490.39,-28.22 490.78,-21.24"/>
<text text-anchor="middle" x="1023" y="-457.3" font-family="Sans Not-Rotated 14" font-size="14.00"> &#160;&#160;&#160;</text>
</g>
<!-- Meas missing operator -->
<g id="node8" class="node">
<title>Meas missing operator</title>
<polygon fill="#a09dde" stroke="black" points="510,-392 339,-392 339,-356 510,-356 510,-392"/>
<text text-anchor="middle" x="424.5" y="-370.3" font-family="Sans Not-Rotated 14" font-size="14.00">Meas missing operator</text>
</g>
<!-- Meas missing operator&#45;&gt;Monitoring completed doctor -->
<g id="edge13" class="edge">
<title>Meas missing operator&#45;&gt;Monitoring completed doctor</title>
<path fill="none" stroke="black" d="M436.19,-355.86C439.4,-350.38 442.53,-344.13 444.5,-338 456.24,-301.42 458.76,-256.79 459,-228.63"/>
<polygon fill="black" stroke="black" points="462.5,-228.34 459,-218.34 455.5,-228.34 462.5,-228.34"/>
<text text-anchor="middle" x="467" y="-283.3" font-family="Sans Not-Rotated 14" font-size="14.00"> &#160;&#160;&#160;</text>
</g>
<!-- Meas missing operator&#45;&gt;Notification operator -->
<g id="edge25" class="edge">
<title>Meas missing operator&#45;&gt;Notification operator</title>
<path fill="none" stroke="black" stroke-width="1.47" d="M412.19,-392.44C403.8,-403.19 391.82,-416.49 378.5,-425 369.81,-430.56 360.16,-435.3 350.3,-439.33"/>
<polygon fill="black" stroke="black" stroke-width="1.47" points="348.88,-436.12 340.8,-442.98 351.39,-442.66 348.88,-436.12"/>
<text text-anchor="middle" x="417" y="-413.8" font-family="Sans Not-Rotated 14" font-size="14.00"> &#160;&#160;&#160;&#160;&#160;&#160;&#160;&#160;</text>
</g>
<!-- Meas missing doctor -->
<g id="node11" class="node">
<title>Meas missing doctor</title>
<polygon fill="#c0bde9" stroke="black" points="422,-305 267,-305 267,-269 422,-269 422,-305"/>
<text text-anchor="middle" x="344.5" y="-283.3" font-family="Sans Not-Rotated 14" font-size="14.00">Meas missing doctor</text>
</g>
<!-- Meas missing operator&#45;&gt;Meas missing doctor -->
<g id="edge2" class="edge">
<title>Meas missing operator&#45;&gt;Meas missing doctor</title>
<path fill="none" stroke="black" stroke-width="2.59" d="M393.07,-355.9C385.42,-350.8 377.68,-344.75 371.5,-338 365.18,-331.1 359.84,-322.44 355.61,-314.28"/>
<polygon fill="black" stroke="black" stroke-width="2.59" points="358.67,-312.56 351.18,-305.07 352.36,-315.6 358.67,-312.56"/>
<text text-anchor="middle" x="408" y="-326.8" font-family="Sans Not-Rotated 14" font-size="14.00"> &#160;&#160;&#160;&#160;&#160;&#160;&#160;&#160;&#160;&#160;&#160;&#160;&#160;&#160;&#160;</text>
</g>
<!-- Notification operator&#45;&gt;Red zone operator -->
<g id="edge40" class="edge">
<title>Notification operator&#45;&gt;Red zone operator</title>
<path fill="none" stroke="black" stroke-width="1.37" d="M349.12,-466.09C401.09,-470.38 469.91,-479.13 528.5,-497 560.25,-506.68 565.97,-514.84 595.5,-530 640.78,-553.25 670.33,-540.34 696.5,-584 704.16,-596.79 695.01,-602.79 690.5,-617 668.6,-686.02 689.3,-716.91 643.5,-773 639.76,-777.58 635.26,-781.64 630.39,-785.23"/>
<polygon fill="black" stroke="black" stroke-width="1.37" points="628.34,-782.39 621.92,-790.83 632.2,-788.24 628.34,-782.39"/>
<text text-anchor="middle" x="711" y="-631.3" font-family="Sans Not-Rotated 14" font-size="14.00"> &#160;&#160;&#160;&#160;&#160;&#160;&#160;&#160;</text>
</g>
<!-- Notification operator&#45;&gt;Yellow zone doctor FD -->
<g id="edge39" class="edge">
<title>Notification operator&#45;&gt;Yellow zone doctor FD</title>
<path fill="none" stroke="black" stroke-width="1.31" d="M346.72,-479.07C358.68,-483.72 370.4,-489.59 380.5,-497 389.12,-503.32 396.39,-512.44 402.03,-521.15"/>
<polygon fill="black" stroke="black" stroke-width="1.31" points="399.16,-523.18 407.3,-529.96 405.16,-519.58 399.16,-523.18"/>
<text text-anchor="middle" x="416" y="-500.8" font-family="Sans Not-Rotated 14" font-size="14.00"> &#160;&#160;&#160;&#160;&#160;&#160;&#160;&#160;</text>
</g>
<!-- Notification operator&#45;&gt;Monitoring completed doctor -->
<g id="edge14" class="edge">
<title>Notification operator&#45;&gt;Monitoring completed doctor</title>
<path fill="none" stroke="black" d="M349.15,-449.68C414.65,-439.26 499.66,-420.57 518.5,-392 553.37,-339.13 508.2,-264.75 479.27,-226.27"/>
<polygon fill="black" stroke="black" points="481.9,-223.96 473.02,-218.19 476.36,-228.24 481.9,-223.96"/>
<text text-anchor="middle" x="541" y="-326.8" font-family="Sans Not-Rotated 14" font-size="14.00"> &#160;&#160;&#160;</text>
</g>
<!-- Notification operator&#45;&gt;Yellow zone Therapy control operator -->
<g id="edge19" class="edge">
<title>Notification operator&#45;&gt;Yellow zone Therapy control operator</title>
<path fill="none" stroke="black" stroke-width="1.06" d="M219.12,-479.1C196.67,-489.77 172.97,-506.11 162.5,-530 136.17,-590.09 156.5,-611.89 156.5,-677.5 156.5,-810 156.5,-810 156.5,-810 156.5,-846.11 238.85,-870.51 315.78,-885.43"/>
<polygon fill="black" stroke="black" stroke-width="1.06" points="315.14,-888.87 325.61,-887.29 316.44,-881.99 315.14,-888.87"/>
<text text-anchor="middle" x="166" y="-674.8" font-family="Sans Not-Rotated 14" font-size="14.00"> &#160;&#160;&#160;</text>
</g>
<!-- Notification operator&#45;&gt;Meas missing operator -->
<g id="edge20" class="edge">
<title>Notification operator&#45;&gt;Meas missing operator</title>
<path fill="none" stroke="black" stroke-width="2.77" d="M277.99,-442.88C284.21,-432 293.63,-418.41 305.5,-410 313.26,-404.5 321.88,-399.86 330.84,-395.94"/>
<polygon fill="black" stroke="black" stroke-width="2.77" points="332.33,-399.12 340.28,-392.11 329.69,-392.63 332.33,-399.12"/>
<text text-anchor="middle" x="342" y="-413.8" font-family="Sans Not-Rotated 14" font-size="14.00"> &#160;&#160;&#160;&#160;&#160;&#160;&#160;&#160;&#160;&#160;&#160;&#160;&#160;&#160;&#160;</text>
</g>
<!-- Notification operator&#45;&gt;Notification operator -->
<g id="edge44" class="edge">
<title>Notification operator&#45;&gt;Notification operator</title>
<path fill="none" stroke="black" stroke-width="2.06" d="M349.07,-467.99C359.83,-466.82 367,-464.49 367,-461 367,-458.77 364.06,-457.01 359.12,-455.72"/>
<polygon fill="black" stroke="black" stroke-width="2.06" points="359.52,-452.24 349.07,-454.01 358.34,-459.14 359.52,-452.24"/>
<text text-anchor="middle" x="387.5" y="-457.3" font-family="Sans Not-Rotated 14" font-size="14.00"> &#160;&#160;&#160;&#160;&#160;&#160;&#160;&#160;</text>
</g>
<!-- Notification operator&#45;&gt;Yellow zone doctor -->
<g id="edge29" class="edge">
<title>Notification operator&#45;&gt;Yellow zone doctor</title>
<path fill="none" stroke="black" stroke-width="1.68" d="M267.79,-479.12C265.94,-507.15 266.27,-563.28 293.5,-599 296.44,-602.85 299.88,-606.56 303.5,-610.03"/>
<polygon fill="black" stroke="black" stroke-width="1.68" points="301.28,-612.75 311.08,-616.78 305.94,-607.52 301.28,-612.75"/>
<text text-anchor="middle" x="298" y="-544.3" font-family="Sans Not-Rotated 14" font-size="14.00"> &#160;&#160;&#160;&#160;&#160;&#160;&#160;&#160;</text>
</g>
<!-- Notification operator&#45;&gt;end -->
<g id="edge31" class="edge">
<title>Notification operator&#45;&gt;end</title>
<path fill="none" stroke="black" stroke-dasharray="5,2" d="M244.18,-442.93C224.85,-427.66 201.5,-403.35 201.5,-375 201.5,-375 201.5,-375 201.5,-112 201.5,-64.94 357.32,-37.21 426.3,-27.23"/>
<polygon fill="black" stroke="black" points="427.17,-30.65 436.59,-25.79 426.2,-23.71 427.17,-30.65"/>
<text text-anchor="middle" x="222" y="-239.8" font-family="Sans Not-Rotated 14" font-size="14.00"> &#160;&#160;&#160;&#160;&#160;&#160;&#160;&#160;</text>
</g>
<!-- Monitoring completed doctor FD&#45;&gt;end -->
<g id="edge41" class="edge">
<title>Monitoring completed doctor FD&#45;&gt;end</title>
<path fill="none" stroke="black" stroke-dasharray="5,2" d="M458.5,-94.84C458.5,-83.44 458.5,-68.13 458.5,-54.58"/>
<polygon fill="black" stroke="black" points="462,-54.19 458.5,-44.19 455,-54.19 462,-54.19"/>
<text text-anchor="middle" x="468" y="-65.8" font-family="Sans Not-Rotated 14" font-size="14.00"> &#160;&#160;&#160;</text>
</g>
<!-- Meas missing doctor&#45;&gt;Monitoring completed doctor -->
<g id="edge12" class="edge">
<title>Meas missing doctor&#45;&gt;Monitoring completed doctor</title>
<path fill="none" stroke="black" stroke-width="1.01" d="M367.57,-268.8C384.8,-255.95 408.53,-238.26 427.43,-224.17"/>
<polygon fill="black" stroke="black" stroke-width="1.01" points="429.54,-226.96 435.46,-218.18 425.36,-221.35 429.54,-226.96"/>
<text text-anchor="middle" x="418" y="-239.8" font-family="Sans Not-Rotated 14" font-size="14.00"> &#160;&#160;&#160;</text>
</g>
<!-- Meas missing doctor&#45;&gt;Notification operator -->
<g id="edge23" class="edge">
<title>Meas missing doctor&#45;&gt;Notification operator</title>
<path fill="none" stroke="black" stroke-width="2.14" d="M309.12,-305.09C289.74,-316.55 267.48,-333.64 256.5,-356 244.59,-380.25 250.87,-411.36 258.25,-433.21"/>
<polygon fill="black" stroke="black" stroke-width="2.14" points="255.04,-434.64 261.76,-442.83 261.62,-432.24 255.04,-434.64"/>
<text text-anchor="middle" x="293" y="-370.3" font-family="Sans Not-Rotated 14" font-size="14.00"> &#160;&#160;&#160;&#160;&#160;&#160;&#160;&#160;&#160;&#160;&#160;&#160;&#160;&#160;&#160;</text>
</g>
<!-- Yellow zone doctor&#45;&gt;Yellow zone doctor FD -->
<g id="edge10" class="edge">
<title>Yellow zone doctor&#45;&gt;Yellow zone doctor FD</title>
<path fill="none" stroke="black" stroke-width="3.63" d="M358.13,-616.72C364.65,-611.33 371.6,-605.17 377.5,-599 384.66,-591.51 391.74,-582.7 397.81,-574.57"/>
<polygon fill="black" stroke="black" stroke-width="3.63" points="400.68,-576.58 403.73,-566.43 395.02,-572.46 400.68,-576.58"/>
<text text-anchor="middle" x="427" y="-587.8" font-family="Sans Not-Rotated 14" font-size="14.00"> &#160;&#160;&#160;&#160;&#160;&#160;&#160;&#160;&#160;&#160;&#160;&#160;&#160;&#160;&#160;</text>
</g>
<!-- Yellow zone doctor&#45;&gt;Notification operator -->
<g id="edge24" class="edge">
<title>Yellow zone doctor&#45;&gt;Notification operator</title>
<path fill="none" stroke="black" stroke-width="1.37" d="M271.36,-616.91C246.21,-606.61 220.14,-590.57 206.5,-566 190.94,-537.98 216,-506.61 238.97,-485.73"/>
<polygon fill="black" stroke="black" stroke-width="1.37" points="241.37,-488.27 246.62,-479.06 236.78,-482.99 241.37,-488.27"/>
<text text-anchor="middle" x="227" y="-544.3" font-family="Sans Not-Rotated 14" font-size="14.00"> &#160;&#160;&#160;&#160;&#160;&#160;&#160;&#160;</text>
</g>
<!-- start -->
<g id="node13" class="node">
<title>start</title>
<ellipse fill="#95d600" stroke="black" cx="957.5" cy="-905.3" rx="27.1" ry="27.1"/>
<text text-anchor="middle" x="957.5" y="-901.6" font-family="Sans Not-Rotated 14" font-size="14.00">start</text>
</g>
<!-- start&#45;&gt;Red zone operator -->
<g id="edge6" class="edge">
<title>start&#45;&gt;Red zone operator</title>
<path fill="none" stroke="black" stroke-dasharray="5,2" d="M931.15,-897.74C875.2,-883.82 742.65,-850.84 656.94,-829.52"/>
<polygon fill="black" stroke="black" points="657.54,-826.06 646.99,-827.04 655.85,-832.85 657.54,-826.06"/>
<text text-anchor="middle" x="800" y="-848.8" font-family="Sans Not-Rotated 14" font-size="14.00"> &#160;&#160;&#160;&#160;&#160;&#160;&#160;&#160;</text>
</g>
</g>
</svg>
