<?xml version="1.0" encoding="UTF-8" standalone="no"?>
<!DOCTYPE svg PUBLIC "-//W3C//DTD SVG 1.1//EN"
 "http://www.w3.org/Graphics/SVG/1.1/DTD/svg11.dtd">
<!-- Generated by graphviz version 3.0.0 (20220226.1711)
 -->
<!-- Pages: 1 -->
<svg width="714pt" height="1028pt"
 viewBox="0.00 0.00 714.00 1027.60" xmlns="http://www.w3.org/2000/svg" xmlns:xlink="http://www.w3.org/1999/xlink">
<g id="graph0" class="graph" transform="scale(1 1) rotate(0) translate(4 1023.6)">
<polygon fill="white" stroke="transparent" points="-4,4 -4,-1023.6 710,-1023.6 710,4 -4,4"/>
<!-- Program change operator -->
<g id="node1" class="node">
<title>Program change operator</title>
<polygon fill="#ffffff" stroke="black" points="588.5,-1019.6 395.5,-1019.6 395.5,-983.6 588.5,-983.6 588.5,-1019.6"/>
<text text-anchor="middle" x="492" y="-997.9" font-family="Sans Not-Rotated 14" font-size="14.00">Program change operator</text>
</g>
<!-- Yellow zone Therapy control operator -->
<g id="node7" class="node">
<title>Yellow zone Therapy control operator</title>
<polygon fill="#e0ddf4" stroke="black" points="361,-923.3 83,-923.3 83,-887.3 361,-887.3 361,-923.3"/>
<text text-anchor="middle" x="222" y="-901.6" font-family="Sans Not-Rotated 14" font-size="14.00">Yellow zone Therapy control operator</text>
</g>
<!-- Program change operator&#45;&gt;Yellow zone Therapy control operator -->
<g id="edge1" class="edge">
<title>Program change operator&#45;&gt;Yellow zone Therapy control operator</title>
<path fill="none" stroke="black" stroke-width="1.03" d="M443.11,-983.52C397.37,-967.55 329.01,-943.67 280.43,-926.7"/>
<polygon fill="black" stroke="black" stroke-width="1.03" points="281.58,-923.4 270.99,-923.41 279.27,-930.01 281.58,-923.4"/>
<text text-anchor="middle" x="399.5" y="-954.4" font-family="Sans Not-Rotated 14" font-size="14.00"> &#160;&#160;&#160;</text>
</g>
<!-- Red zone operator -->
<g id="node2" class="node">
<title>Red zone operator</title>
<polygon fill="#1d2559" stroke="black" points="368.5,-827 223.5,-827 223.5,-791 368.5,-791 368.5,-827"/>
<text text-anchor="middle" x="296" y="-805.3" font-family="Sans Not-Rotated 14" font-size="14.00" fill="white">Red zone operator</text>
</g>
<!-- Red zone operator&#45;&gt;Red zone operator -->
<g id="edge30" class="edge">
<title>Red zone operator&#45;&gt;Red zone operator</title>
<path fill="none" stroke="black" stroke-width="1.52" d="M368.79,-816.11C379.37,-814.98 386.5,-812.61 386.5,-809 386.5,-806.69 383.57,-804.88 378.69,-803.59"/>
<polygon fill="black" stroke="black" stroke-width="1.52" points="379.24,-800.13 368.79,-801.89 378.05,-807.03 379.24,-800.13"/>
<text text-anchor="middle" x="407" y="-805.3" font-family="Sans Not-Rotated 14" font-size="14.00"> &#160;&#160;&#160;&#160;&#160;&#160;&#160;&#160;</text>
</g>
<!-- Red zone doctor FD -->
<g id="node3" class="node">
<title>Red zone doctor FD</title>
<polygon fill="#1d2559" stroke="black" points="455.5,-740 302.5,-740 302.5,-704 455.5,-704 455.5,-740"/>
<text text-anchor="middle" x="379" y="-718.3" font-family="Sans Not-Rotated 14" font-size="14.00" fill="white">Red zone doctor FD</text>
</g>
<!-- Red zone operator&#45;&gt;Red zone doctor FD -->
<g id="edge8" class="edge">
<title>Red zone operator&#45;&gt;Red zone doctor FD</title>
<path fill="none" stroke="black" stroke-width="3.34" d="M340.65,-790.95C348.95,-786.16 356.92,-780.23 363,-773 368.45,-766.53 372.05,-758.18 374.42,-750.16"/>
<polygon fill="black" stroke="black" stroke-width="3.34" points="377.85,-750.9 376.83,-740.35 371.05,-749.23 377.85,-750.9"/>
<text text-anchor="middle" x="408.5" y="-761.8" font-family="Sans Not-Rotated 14" font-size="14.00"> &#160;&#160;&#160;&#160;&#160;&#160;&#160;&#160;&#160;&#160;&#160;&#160;&#160;&#160;&#160;</text>
</g>
<!-- Red zone doctor -->
<g id="node6" class="node">
<title>Red zone doctor</title>
<polygon fill="#1f3b98" stroke="black" points="258.5,-653 129.5,-653 129.5,-617 258.5,-617 258.5,-653"/>
<text text-anchor="middle" x="194" y="-631.3" font-family="Sans Not-Rotated 14" font-size="14.00" fill="white">Red zone doctor</text>
</g>
<!-- Red zone operator&#45;&gt;Red zone doctor -->
<g id="edge11" class="edge">
<title>Red zone operator&#45;&gt;Red zone doctor</title>
<path fill="none" stroke="black" stroke-width="5" d="M269.76,-790.77C253.11,-778.52 232.44,-760.62 220,-740 205.7,-716.31 199.24,-685.06 196.34,-663.02"/>
<polygon fill="black" stroke="black" stroke-width="5" points="200.68,-662.44 195.18,-653.01 191.99,-663.45 200.68,-662.44"/>
<text text-anchor="middle" x="256.5" y="-718.3" font-family="Sans Not-Rotated 14" font-size="14.00"> &#160;&#160;&#160;&#160;&#160;&#160;&#160;&#160;&#160;&#160;&#160;&#160;&#160;&#160;&#160;</text>
</g>
<!-- Red zone doctor FD&#45;&gt;Red zone operator -->
<g id="edge5" class="edge">
<title>Red zone doctor FD&#45;&gt;Red zone operator</title>
<path fill="none" stroke="black" stroke-width="3.44" d="M309.64,-740.15C301.93,-744.75 295.05,-750.59 290,-758 285.43,-764.71 284.96,-773.12 286.22,-781.13"/>
<polygon fill="black" stroke="black" stroke-width="3.44" points="282.83,-781.98 288.57,-790.88 289.64,-780.34 282.83,-781.98"/>
<text text-anchor="middle" x="326.5" y="-761.8" font-family="Sans Not-Rotated 14" font-size="14.00"> &#160;&#160;&#160;&#160;&#160;&#160;&#160;&#160;&#160;&#160;&#160;&#160;&#160;&#160;&#160;</text>
</g>
<!-- Red zone doctor FD&#45;&gt;Red zone doctor FD -->
<g id="edge31" class="edge">
<title>Red zone doctor FD&#45;&gt;Red zone doctor FD</title>
<path fill="none" stroke="black" stroke-width="2.55" d="M455.75,-729.03C466.39,-727.87 473.5,-725.53 473.5,-722 473.5,-719.74 470.58,-717.97 465.69,-716.68"/>
<polygon fill="black" stroke="black" stroke-width="2.55" points="466.2,-713.22 455.75,-714.97 465.02,-720.12 466.2,-713.22"/>
<text text-anchor="middle" x="510" y="-718.3" font-family="Sans Not-Rotated 14" font-size="14.00"> &#160;&#160;&#160;&#160;&#160;&#160;&#160;&#160;&#160;&#160;&#160;&#160;&#160;&#160;&#160;</text>
</g>
<!-- Red zone doctor FD&#45;&gt;Red zone doctor -->
<g id="edge21" class="edge">
<title>Red zone doctor FD&#45;&gt;Red zone doctor</title>
<path fill="none" stroke="black" stroke-width="1.72" d="M302.09,-706.41C266.63,-699.18 230.85,-690.95 224,-686 215.81,-680.07 209.44,-671.16 204.72,-662.5"/>
<polygon fill="black" stroke="black" stroke-width="1.72" points="207.78,-660.78 200.24,-653.34 201.5,-663.86 207.78,-660.78"/>
<text text-anchor="middle" x="244.5" y="-674.8" font-family="Sans Not-Rotated 14" font-size="14.00"> &#160;&#160;&#160;&#160;&#160;&#160;&#160;&#160;</text>
</g>
<!-- Red zone doctor FD&#45;&gt;Yellow zone Therapy control operator -->
<g id="edge12" class="edge">
<title>Red zone doctor FD&#45;&gt;Yellow zone Therapy control operator</title>
<path fill="none" stroke="black" stroke-width="1.21" d="M430.35,-740.05C437.77,-744.72 444.43,-750.6 449,-758 465.41,-784.55 456.82,-803.75 436,-827 410.95,-854.98 375,-872.84 339.69,-884.23"/>
<polygon fill="black" stroke="black" stroke-width="1.21" points="338.29,-881 329.76,-887.28 340.35,-887.69 338.29,-881"/>
<text text-anchor="middle" x="477.5" y="-805.3" font-family="Sans Not-Rotated 14" font-size="14.00"> &#160;&#160;&#160;&#160;&#160;&#160;&#160;&#160;</text>
</g>
<!-- Notification operator -->
<g id="node9" class="node">
<title>Notification operator</title>
<polygon fill="#1946ba" stroke="black" points="517.5,-479 358.5,-479 358.5,-443 517.5,-443 517.5,-479"/>
<text text-anchor="middle" x="438" y="-457.3" font-family="Sans Not-Rotated 14" font-size="14.00" fill="white">Notification operator</text>
</g>
<!-- Red zone doctor FD&#45;&gt;Notification operator -->
<g id="edge15" class="edge">
<title>Red zone doctor FD&#45;&gt;Notification operator</title>
<path fill="none" stroke="black" stroke-width="1.57" d="M455.56,-720.22C517.03,-717.78 596.36,-709.9 617,-686 629.76,-671.22 718.74,-683.97 606,-530 587.21,-504.34 557.08,-488.35 527.48,-478.38"/>
<polygon fill="black" stroke="black" stroke-width="1.57" points="528.5,-475.03 517.91,-475.35 526.38,-481.7 528.5,-475.03"/>
<text text-anchor="middle" x="669.5" y="-587.8" font-family="Sans Not-Rotated 14" font-size="14.00"> &#160;&#160;&#160;&#160;&#160;&#160;&#160;&#160;</text>
</g>
<!-- Yellow zone doctor -->
<g id="node12" class="node">
<title>Yellow zone doctor</title>
<polygon fill="#7d7fd2" stroke="black" points="548.5,-653 399.5,-653 399.5,-617 548.5,-617 548.5,-653"/>
<text text-anchor="middle" x="474" y="-631.3" font-family="Sans Not-Rotated 14" font-size="14.00">Yellow zone doctor</text>
</g>
<!-- Red zone doctor FD&#45;&gt;Yellow zone doctor -->
<g id="edge18" class="edge">
<title>Red zone doctor FD&#45;&gt;Yellow zone doctor</title>
<path fill="none" stroke="black" stroke-width="2.05" d="M398.22,-703.8C412.26,-691.24 431.47,-674.05 447.04,-660.12"/>
<polygon fill="black" stroke="black" stroke-width="2.05" points="449.69,-662.45 454.8,-653.18 445.02,-657.24 449.69,-662.45"/>
<text text-anchor="middle" x="453.5" y="-674.8" font-family="Sans Not-Rotated 14" font-size="14.00"> &#160;&#160;&#160;&#160;&#160;&#160;&#160;&#160;</text>
</g>
<!-- Yellow zone doctor FD -->
<g id="node4" class="node">
<title>Yellow zone doctor FD</title>
<polygon fill="#5661c6" stroke="black" points="597.5,-566 424.5,-566 424.5,-530 597.5,-530 597.5,-566"/>
<text text-anchor="middle" x="511" y="-544.3" font-family="Sans Not-Rotated 14" font-size="14.00" fill="white">Yellow zone doctor FD</text>
</g>
<!-- Yellow zone doctor FD&#45;&gt;Program change operator -->
<g id="edge3" class="edge">
<title>Yellow zone doctor FD&#45;&gt;Program change operator</title>
<path fill="none" stroke="black" stroke-width="1.02" d="M597.73,-559.58C629.95,-565.16 661.48,-573.15 673,-584 689.8,-599.82 687,-610.92 687,-634 687,-906.3 687,-906.3 687,-906.3 687,-951.5 644.01,-975.04 598.4,-987.3"/>
<polygon fill="black" stroke="black" stroke-width="1.02" points="597.49,-983.92 588.64,-989.75 599.19,-990.71 597.49,-983.92"/>
<text text-anchor="middle" x="696.5" y="-761.8" font-family="Sans Not-Rotated 14" font-size="14.00"> &#160;&#160;&#160;</text>
</g>
<!-- Yellow zone doctor FD&#45;&gt;Red zone operator -->
<g id="edge22" class="edge">
<title>Yellow zone doctor FD&#45;&gt;Red zone operator</title>
<path fill="none" stroke="black" stroke-width="1.69" d="M550.97,-566.14C557.8,-570.91 563.97,-576.8 568,-584 601.97,-644.72 598.77,-685.92 555,-740 532.81,-767.41 445.96,-786.21 378.88,-796.99"/>
<polygon fill="black" stroke="black" stroke-width="1.69" points="378.05,-793.57 368.72,-798.58 379.14,-800.49 378.05,-793.57"/>
<text text-anchor="middle" x="610.5" y="-674.8" font-family="Sans Not-Rotated 14" font-size="14.00"> &#160;&#160;&#160;&#160;&#160;&#160;&#160;&#160;</text>
</g>
<!-- Yellow zone doctor FD&#45;&gt;Red zone doctor FD -->
<g id="edge23" class="edge">
<title>Yellow zone doctor FD&#45;&gt;Red zone doctor FD</title>
<path fill="none" stroke="black" stroke-width="1.32" d="M450.54,-566.01C409.17,-579.1 359.89,-598.11 349,-617 341.01,-630.86 343.31,-638.04 349,-653 352.8,-663 359.87,-661.61 365,-671 368.8,-677.96 371.64,-686.05 373.74,-693.66"/>
<polygon fill="black" stroke="black" stroke-width="1.32" points="370.39,-694.7 376.15,-703.6 377.19,-693.05 370.39,-694.7"/>
<text text-anchor="middle" x="369.5" y="-631.3" font-family="Sans Not-Rotated 14" font-size="14.00"> &#160;&#160;&#160;&#160;&#160;&#160;&#160;&#160;</text>
</g>
<!-- Yellow zone doctor FD&#45;&gt;Notification operator -->
<g id="edge14" class="edge">
<title>Yellow zone doctor FD&#45;&gt;Notification operator</title>
<path fill="none" stroke="black" stroke-width="1.94" d="M496.23,-529.8C485.64,-517.47 471.22,-500.68 459.38,-486.89"/>
<polygon fill="black" stroke="black" stroke-width="1.94" points="461.92,-484.48 452.75,-479.18 456.61,-489.04 461.92,-484.48"/>
<text text-anchor="middle" x="499.5" y="-500.8" font-family="Sans Not-Rotated 14" font-size="14.00"> &#160;&#160;&#160;&#160;&#160;&#160;&#160;&#160;</text>
</g>
<!-- Yellow zone doctor FD&#45;&gt;Yellow zone doctor -->
<g id="edge19" class="edge">
<title>Yellow zone doctor FD&#45;&gt;Yellow zone doctor</title>
<path fill="none" stroke="black" stroke-width="2.16" d="M432.86,-566.17C425.11,-570.78 418.2,-576.62 413,-584 405.77,-594.26 411.53,-603.58 421.91,-611.32"/>
<polygon fill="black" stroke="black" stroke-width="2.16" points="420.31,-614.45 430.61,-616.92 424.1,-608.56 420.31,-614.45"/>
<text text-anchor="middle" x="449.5" y="-587.8" font-family="Sans Not-Rotated 14" font-size="14.00"> &#160;&#160;&#160;&#160;&#160;&#160;&#160;&#160;&#160;&#160;&#160;&#160;&#160;&#160;&#160;</text>
</g>
<!-- Monitoring completed doctor -->
<g id="node5" class="node">
<title>Monitoring completed doctor</title>
<polygon fill="#ffffff" stroke="black" points="499,-218 285,-218 285,-182 499,-182 499,-218"/>
<text text-anchor="middle" x="392" y="-196.3" font-family="Sans Not-Rotated 14" font-size="14.00">Monitoring completed doctor</text>
</g>
<!-- Monitoring completed doctor FD -->
<g id="node10" class="node">
<title>Monitoring completed doctor FD</title>
<polygon fill="#ffffff" stroke="black" points="511,-131 273,-131 273,-95 511,-95 511,-131"/>
<text text-anchor="middle" x="392" y="-109.3" font-family="Sans Not-Rotated 14" font-size="14.00">Monitoring completed doctor FD</text>
</g>
<!-- Monitoring completed doctor&#45;&gt;Monitoring completed doctor FD -->
<g id="edge17" class="edge">
<title>Monitoring completed doctor&#45;&gt;Monitoring completed doctor FD</title>
<path fill="none" stroke="black" stroke-width="1.01" d="M392,-181.8C392,-170.16 392,-154.55 392,-141.24"/>
<polygon fill="black" stroke="black" stroke-width="1.01" points="395.5,-141.18 392,-131.18 388.5,-141.18 395.5,-141.18"/>
<text text-anchor="middle" x="401.5" y="-152.8" font-family="Sans Not-Rotated 14" font-size="14.00"> &#160;&#160;&#160;</text>
</g>
<!-- Red zone doctor&#45;&gt;Red zone operator -->
<g id="edge4" class="edge">
<title>Red zone doctor&#45;&gt;Red zone operator</title>
<path fill="none" stroke="black" stroke-width="3.47" d="M165.45,-653.08C135.29,-673.37 94.78,-708.44 116,-740 128.22,-758.17 175.12,-775.56 217.98,-788.21"/>
<polygon fill="black" stroke="black" stroke-width="3.47" points="217.04,-791.58 227.62,-790.99 218.98,-784.85 217.04,-791.58"/>
<text text-anchor="middle" x="152.5" y="-718.3" font-family="Sans Not-Rotated 14" font-size="14.00"> &#160;&#160;&#160;&#160;&#160;&#160;&#160;&#160;&#160;&#160;&#160;&#160;&#160;&#160;&#160;</text>
</g>
<!-- Red zone doctor&#45;&gt;Red zone doctor FD -->
<g id="edge7" class="edge">
<title>Red zone doctor&#45;&gt;Red zone doctor FD</title>
<path fill="none" stroke="black" stroke-width="3.5" d="M233.45,-653.14C245.07,-658.53 257.7,-664.72 269,-671 279.67,-676.93 281.18,-680.36 292,-686 301.62,-691.01 312.12,-695.78 322.4,-700.1"/>
<polygon fill="black" stroke="black" stroke-width="3.5" points="321.16,-703.38 331.74,-703.93 323.82,-696.9 321.16,-703.38"/>
<text text-anchor="middle" x="328.5" y="-674.8" font-family="Sans Not-Rotated 14" font-size="14.00"> &#160;&#160;&#160;&#160;&#160;&#160;&#160;&#160;&#160;&#160;&#160;&#160;&#160;&#160;&#160;</text>
</g>
<!-- Yellow zone Therapy control operator&#45;&gt;Red zone operator -->
<g id="edge24" class="edge">
<title>Yellow zone Therapy control operator&#45;&gt;Red zone operator</title>
<path fill="none" stroke="black" stroke-width="1.16" d="M235.57,-887C246.94,-872.51 263.33,-851.64 276.17,-835.27"/>
<polygon fill="black" stroke="black" stroke-width="1.16" points="279.09,-837.21 282.51,-827.19 273.59,-832.89 279.09,-837.21"/>
<text text-anchor="middle" x="288.5" y="-848.8" font-family="Sans Not-Rotated 14" font-size="14.00"> &#160;&#160;&#160;&#160;&#160;&#160;&#160;&#160;</text>
</g>
<!-- Yellow zone Therapy control operator&#45;&gt;Red zone doctor FD -->
<g id="edge26" class="edge">
<title>Yellow zone Therapy control operator&#45;&gt;Red zone doctor FD</title>
<path fill="none" stroke="black" stroke-width="1.08" d="M210.07,-887C195.36,-863.34 174.67,-820.46 195,-791 207.63,-772.69 255.28,-755.37 298.92,-742.78"/>
<polygon fill="black" stroke="black" stroke-width="1.08" points="300.06,-746.1 308.73,-740.01 298.16,-739.36 300.06,-746.1"/>
<text text-anchor="middle" x="204.5" y="-805.3" font-family="Sans Not-Rotated 14" font-size="14.00"> &#160;&#160;&#160;</text>
</g>
<!-- Yellow zone Therapy control operator&#45;&gt;Red zone doctor -->
<g id="edge27" class="edge">
<title>Yellow zone Therapy control operator&#45;&gt;Red zone doctor</title>
<path fill="none" stroke="black" stroke-width="1.05" d="M201.56,-887.21C171.09,-859.9 116.34,-803.03 107,-740 102.39,-708.86 100.81,-693.33 123,-671 127.75,-666.22 133.29,-661.98 139.13,-658.26"/>
<polygon fill="black" stroke="black" stroke-width="1.05" points="140.99,-661.23 147.87,-653.17 137.46,-655.19 140.99,-661.23"/>
<text text-anchor="middle" x="125.5" y="-761.8" font-family="Sans Not-Rotated 14" font-size="14.00"> &#160;&#160;&#160;</text>
</g>
<!-- Yellow zone Therapy control operator&#45;&gt;Notification operator -->
<g id="edge25" class="edge">
<title>Yellow zone Therapy control operator&#45;&gt;Notification operator</title>
<path fill="none" stroke="black" stroke-width="1.11" d="M82.98,-890.92C38.24,-878.3 0,-854.49 0,-810 0,-810 0,-810 0,-547 0,-476.72 220.07,-463.37 348.22,-461.55"/>
<polygon fill="black" stroke="black" stroke-width="1.11" points="348.47,-465.04 358.43,-461.42 348.39,-458.05 348.47,-465.04"/>
<text text-anchor="middle" x="20.5" y="-674.8" font-family="Sans Not-Rotated 14" font-size="14.00"> &#160;&#160;&#160;&#160;&#160;&#160;&#160;&#160;</text>
</g>
<!-- Meas missing operator -->
<g id="node8" class="node">
<title>Meas missing operator</title>
<polygon fill="#a09dde" stroke="black" points="401.5,-392 230.5,-392 230.5,-356 401.5,-356 401.5,-392"/>
<text text-anchor="middle" x="316" y="-370.3" font-family="Sans Not-Rotated 14" font-size="14.00">Meas missing operator</text>
</g>
<!-- Meas missing doctor -->
<g id="node11" class="node">
<title>Meas missing doctor</title>
<polygon fill="#c0bde9" stroke="black" points="469.5,-305 314.5,-305 314.5,-269 469.5,-269 469.5,-305"/>
<text text-anchor="middle" x="392" y="-283.3" font-family="Sans Not-Rotated 14" font-size="14.00">Meas missing doctor</text>
</g>
<!-- Meas missing operator&#45;&gt;Meas missing doctor -->
<g id="edge2" class="edge">
<title>Meas missing operator&#45;&gt;Meas missing doctor</title>
<path fill="none" stroke="black" stroke-width="2.59" d="M326.36,-356C332.86,-345.93 341.74,-333.2 351,-323 354.45,-319.2 358.31,-315.42 362.23,-311.83"/>
<polygon fill="black" stroke="black" stroke-width="2.59" points="364.58,-314.43 369.78,-305.2 359.96,-309.17 364.58,-314.43"/>
<text text-anchor="middle" x="387.5" y="-326.8" font-family="Sans Not-Rotated 14" font-size="14.00"> &#160;&#160;&#160;&#160;&#160;&#160;&#160;&#160;&#160;&#160;&#160;&#160;&#160;&#160;&#160;</text>
</g>
<!-- Notification operator&#45;&gt;Meas missing operator -->
<g id="edge13" class="edge">
<title>Notification operator&#45;&gt;Meas missing operator</title>
<path fill="none" stroke="black" stroke-width="2.77" d="M381.54,-442.85C370.77,-438.08 360.05,-432.19 351,-425 342.75,-418.45 335.63,-409.44 330,-400.87"/>
<polygon fill="black" stroke="black" stroke-width="2.77" points="332.91,-398.92 324.7,-392.23 326.94,-402.58 332.91,-398.92"/>
<text text-anchor="middle" x="387.5" y="-413.8" font-family="Sans Not-Rotated 14" font-size="14.00"> &#160;&#160;&#160;&#160;&#160;&#160;&#160;&#160;&#160;&#160;&#160;&#160;&#160;&#160;&#160;</text>
</g>
<!-- Notification operator&#45;&gt;Notification operator -->
<g id="edge32" class="edge">
<title>Notification operator&#45;&gt;Notification operator</title>
<path fill="none" stroke="black" stroke-width="2.06" d="M517.57,-467.99C528.33,-466.82 535.5,-464.49 535.5,-461 535.5,-458.77 532.56,-457.01 527.62,-455.72"/>
<polygon fill="black" stroke="black" stroke-width="2.06" points="528.02,-452.24 517.57,-454.01 526.84,-459.14 528.02,-452.24"/>
<text text-anchor="middle" x="556" y="-457.3" font-family="Sans Not-Rotated 14" font-size="14.00"> &#160;&#160;&#160;&#160;&#160;&#160;&#160;&#160;</text>
</g>
<!-- Notification operator&#45;&gt;Yellow zone doctor -->
<g id="edge28" class="edge">
<title>Notification operator&#45;&gt;Yellow zone doctor</title>
<path fill="none" stroke="black" stroke-width="1.68" d="M414.68,-479.04C399.94,-491.33 382.19,-509.35 374,-530 368.1,-544.87 367.99,-551.17 374,-566 382.27,-586.41 400.55,-601.51 419.25,-612.22"/>
<polygon fill="black" stroke="black" stroke-width="1.68" points="417.66,-615.34 428.13,-616.99 420.97,-609.18 417.66,-615.34"/>
<text text-anchor="middle" x="394.5" y="-544.3" font-family="Sans Not-Rotated 14" font-size="14.00"> &#160;&#160;&#160;&#160;&#160;&#160;&#160;&#160;</text>
</g>
<!-- end -->
<g id="node14" class="node">
<title>end</title>
<ellipse fill="#ea4126" stroke="black" cx="466" cy="-22" rx="18" ry="18"/>
<ellipse fill="none" stroke="black" cx="466" cy="-22" rx="22" ry="22"/>
</g>
<!-- Notification operator&#45;&gt;end -->
<g id="edge20" class="edge">
<title>Notification operator&#45;&gt;end</title>
<path fill="none" stroke="black" stroke-dasharray="5,2" d="M482.01,-442.93C509.22,-429.18 539,-406.86 539,-375 539,-375 539,-375 539,-112 539,-81.79 513.54,-56.22 492.7,-40.35"/>
<polygon fill="black" stroke="black" points="494.57,-37.39 484.42,-34.36 490.47,-43.06 494.57,-37.39"/>
<text text-anchor="middle" x="559.5" y="-239.8" font-family="Sans Not-Rotated 14" font-size="14.00"> &#160;&#160;&#160;&#160;&#160;&#160;&#160;&#160;</text>
</g>
<!-- Monitoring completed doctor FD&#45;&gt;end -->
<g id="edge29" class="edge">
<title>Monitoring completed doctor FD&#45;&gt;end</title>
<path fill="none" stroke="black" stroke-dasharray="5,2" d="M406.27,-94.84C417.47,-81.37 433.2,-62.45 445.71,-47.41"/>
<polygon fill="black" stroke="black" points="448.57,-49.43 452.28,-39.51 443.19,-44.96 448.57,-49.43"/>
<text text-anchor="middle" x="443.5" y="-65.8" font-family="Sans Not-Rotated 14" font-size="14.00"> &#160;&#160;&#160;</text>
</g>
<!-- Meas missing doctor&#45;&gt;Monitoring completed doctor -->
<g id="edge10" class="edge">
<title>Meas missing doctor&#45;&gt;Monitoring completed doctor</title>
<path fill="none" stroke="black" d="M392,-268.8C392,-257.16 392,-241.55 392,-228.24"/>
<polygon fill="black" stroke="black" points="395.5,-228.18 392,-218.18 388.5,-228.18 395.5,-228.18"/>
<text text-anchor="middle" x="401.5" y="-239.8" font-family="Sans Not-Rotated 14" font-size="14.00"> &#160;&#160;&#160;</text>
</g>
<!-- Meas missing doctor&#45;&gt;Notification operator -->
<g id="edge16" class="edge">
<title>Meas missing doctor&#45;&gt;Notification operator</title>
<path fill="none" stroke="black" stroke-width="2.14" d="M411.76,-305.26C416.54,-310.47 421.1,-316.54 424,-323 439.86,-358.4 441.24,-403.97 440.12,-432.59"/>
<polygon fill="black" stroke="black" stroke-width="2.14" points="436.62,-432.5 439.6,-442.67 443.61,-432.87 436.62,-432.5"/>
<text text-anchor="middle" x="476.5" y="-370.3" font-family="Sans Not-Rotated 14" font-size="14.00"> &#160;&#160;&#160;&#160;&#160;&#160;&#160;&#160;&#160;&#160;&#160;&#160;&#160;&#160;&#160;</text>
</g>
<!-- Yellow zone doctor&#45;&gt;Yellow zone doctor FD -->
<g id="edge9" class="edge">
<title>Yellow zone doctor&#45;&gt;Yellow zone doctor FD</title>
<path fill="none" stroke="black" stroke-width="3.63" d="M481.06,-616.82C485.07,-607.15 490.24,-594.86 495,-584 496.25,-581.15 497.57,-578.19 498.9,-575.24"/>
<polygon fill="black" stroke="black" stroke-width="3.63" points="502.13,-576.59 503.08,-566.04 495.75,-573.7 502.13,-576.59"/>
<text text-anchor="middle" x="531.5" y="-587.8" font-family="Sans Not-Rotated 14" font-size="14.00"> &#160;&#160;&#160;&#160;&#160;&#160;&#160;&#160;&#160;&#160;&#160;&#160;&#160;&#160;&#160;</text>
</g>
<!-- start -->
<g id="node13" class="node">
<title>start</title>
<ellipse fill="#95d600" stroke="black" cx="584" cy="-905.3" rx="27.1" ry="27.1"/>
<text text-anchor="middle" x="584" y="-901.6" font-family="Sans Not-Rotated 14" font-size="14.00">start</text>
</g>
<!-- start&#45;&gt;Red zone operator -->
<g id="edge6" class="edge">
<title>start&#45;&gt;Red zone operator</title>
<path fill="none" stroke="black" stroke-dasharray="5,2" d="M558.19,-895.85C513.43,-881.19 420.25,-850.68 357.9,-830.27"/>
<polygon fill="black" stroke="black" points="358.77,-826.87 348.18,-827.08 356.59,-833.52 358.77,-826.87"/>
<text text-anchor="middle" x="469.5" y="-848.8" font-family="Sans Not-Rotated 14" font-size="14.00"> &#160;&#160;&#160;&#160;&#160;&#160;&#160;&#160;</text>
</g>
</g>
</svg>
