<?xml version="1.0" encoding="UTF-8" standalone="no"?>
<!DOCTYPE svg PUBLIC "-//W3C//DTD SVG 1.1//EN"
 "http://www.w3.org/Graphics/SVG/1.1/DTD/svg11.dtd">
<!-- Generated by graphviz version 3.0.0 (20220226.1711)
 -->
<!-- Pages: 1 -->
<svg width="907pt" height="1028pt"
 viewBox="0.00 0.00 906.50 1027.60" xmlns="http://www.w3.org/2000/svg" xmlns:xlink="http://www.w3.org/1999/xlink">
<g id="graph0" class="graph" transform="scale(1 1) rotate(0) translate(4 1023.6)">
<polygon fill="white" stroke="transparent" points="-4,4 -4,-1023.6 902.5,-1023.6 902.5,4 -4,4"/>
<!-- Program change operator -->
<g id="node1" class="node">
<title>Program change operator</title>
<polygon fill="#ffffff" stroke="black" points="193,-1019.6 0,-1019.6 0,-983.6 193,-983.6 193,-1019.6"/>
<text text-anchor="middle" x="96.5" y="-997.9" font-family="Sans Not-Rotated 14" font-size="14.00">Program change operator</text>
</g>
<!-- Yellow zone Therapy control operator -->
<g id="node7" class="node">
<title>Yellow zone Therapy control operator</title>
<polygon fill="#e0ddf4" stroke="black" points="853.5,-923.3 575.5,-923.3 575.5,-887.3 853.5,-887.3 853.5,-923.3"/>
<text text-anchor="middle" x="714.5" y="-901.6" font-family="Sans Not-Rotated 14" font-size="14.00">Yellow zone Therapy control operator</text>
</g>
<!-- Program change operator&#45;&gt;Yellow zone Therapy control operator -->
<g id="edge1" class="edge">
<title>Program change operator&#45;&gt;Yellow zone Therapy control operator</title>
<path fill="none" stroke="black" stroke-width="1.03" d="M193.06,-985.86C300.93,-969.4 475.73,-942.73 592.85,-924.86"/>
<polygon fill="black" stroke="black" stroke-width="1.03" points="593.59,-928.29 602.94,-923.32 592.53,-921.37 593.59,-928.29"/>
<text text-anchor="middle" x="433" y="-954.4" font-family="Sans Not-Rotated 14" font-size="14.00"> &#160;&#160;&#160;</text>
</g>
<!-- Red zone operator -->
<g id="node2" class="node">
<title>Red zone operator</title>
<polygon fill="#1d2559" stroke="black" points="578,-827 433,-827 433,-791 578,-791 578,-827"/>
<text text-anchor="middle" x="505.5" y="-805.3" font-family="Sans Not-Rotated 14" font-size="14.00" fill="white">Red zone operator</text>
</g>
<!-- Red zone operator&#45;&gt;Red zone operator -->
<g id="edge38" class="edge">
<title>Red zone operator&#45;&gt;Red zone operator</title>
<path fill="none" stroke="black" stroke-width="1.52" d="M578.29,-816.11C588.87,-814.98 596,-812.61 596,-809 596,-806.69 593.07,-804.88 588.19,-803.59"/>
<polygon fill="black" stroke="black" stroke-width="1.52" points="588.74,-800.13 578.29,-801.89 587.55,-807.03 588.74,-800.13"/>
<text text-anchor="middle" x="616.5" y="-805.3" font-family="Sans Not-Rotated 14" font-size="14.00"> &#160;&#160;&#160;&#160;&#160;&#160;&#160;&#160;</text>
</g>
<!-- Red zone doctor FD -->
<g id="node3" class="node">
<title>Red zone doctor FD</title>
<polygon fill="#1d2559" stroke="black" points="486,-740 333,-740 333,-704 486,-704 486,-740"/>
<text text-anchor="middle" x="409.5" y="-718.3" font-family="Sans Not-Rotated 14" font-size="14.00" fill="white">Red zone doctor FD</text>
</g>
<!-- Red zone operator&#45;&gt;Red zone doctor FD -->
<g id="edge9" class="edge">
<title>Red zone operator&#45;&gt;Red zone doctor FD</title>
<path fill="none" stroke="black" stroke-width="3.35" d="M501.31,-790.96C497.97,-780.38 492.36,-767.11 483.5,-758 478.77,-753.14 473.24,-748.88 467.36,-745.16"/>
<polygon fill="black" stroke="black" stroke-width="3.35" points="468.97,-742.05 458.56,-740.09 465.47,-748.11 468.97,-742.05"/>
<text text-anchor="middle" x="530" y="-761.8" font-family="Sans Not-Rotated 14" font-size="14.00"> &#160;&#160;&#160;&#160;&#160;&#160;&#160;&#160;&#160;&#160;&#160;&#160;&#160;&#160;&#160;</text>
</g>
<!-- Red zone doctor -->
<g id="node6" class="node">
<title>Red zone doctor</title>
<polygon fill="#1f3b98" stroke="black" points="683,-479 554,-479 554,-443 683,-443 683,-479"/>
<text text-anchor="middle" x="618.5" y="-457.3" font-family="Sans Not-Rotated 14" font-size="14.00" fill="white">Red zone doctor</text>
</g>
<!-- Red zone operator&#45;&gt;Red zone doctor -->
<g id="edge15" class="edge">
<title>Red zone operator&#45;&gt;Red zone doctor</title>
<path fill="none" stroke="black" stroke-width="5" d="M578.01,-792.78C638.38,-777.95 714.5,-753.26 714.5,-723 714.5,-723 714.5,-723 714.5,-547 714.5,-519.17 691.6,-498.25 668.17,-484.13"/>
<polygon fill="black" stroke="black" stroke-width="5" points="670.07,-480.17 659.21,-479.05 665.75,-487.78 670.07,-480.17"/>
<text text-anchor="middle" x="751" y="-631.3" font-family="Sans Not-Rotated 14" font-size="14.00"> &#160;&#160;&#160;&#160;&#160;&#160;&#160;&#160;&#160;&#160;&#160;&#160;&#160;&#160;&#160;</text>
</g>
<!-- Red zone doctor FD&#45;&gt;Red zone operator -->
<g id="edge5" class="edge">
<title>Red zone doctor FD&#45;&gt;Red zone operator</title>
<path fill="none" stroke="black" stroke-width="3.44" d="M405.3,-740.26C403.79,-750.66 403.85,-763.67 410.5,-773 414.25,-778.26 418.88,-782.73 424.06,-786.53"/>
<polygon fill="black" stroke="black" stroke-width="3.44" points="422.29,-789.56 432.6,-791.97 426.05,-783.65 422.29,-789.56"/>
<text text-anchor="middle" x="447" y="-761.8" font-family="Sans Not-Rotated 14" font-size="14.00"> &#160;&#160;&#160;&#160;&#160;&#160;&#160;&#160;&#160;&#160;&#160;&#160;&#160;&#160;&#160;</text>
</g>
<!-- Red zone doctor FD&#45;&gt;Red zone doctor FD -->
<g id="edge39" class="edge">
<title>Red zone doctor FD&#45;&gt;Red zone doctor FD</title>
<path fill="none" stroke="black" stroke-width="2.55" d="M486.25,-729.03C496.89,-727.87 504,-725.53 504,-722 504,-719.74 501.08,-717.97 496.19,-716.68"/>
<polygon fill="black" stroke="black" stroke-width="2.55" points="496.7,-713.22 486.25,-714.97 495.52,-720.12 496.7,-713.22"/>
<text text-anchor="middle" x="540.5" y="-718.3" font-family="Sans Not-Rotated 14" font-size="14.00"> &#160;&#160;&#160;&#160;&#160;&#160;&#160;&#160;&#160;&#160;&#160;&#160;&#160;&#160;&#160;</text>
</g>
<!-- Yellow zone doctor FD -->
<g id="node4" class="node">
<title>Yellow zone doctor FD</title>
<polygon fill="#5661c6" stroke="black" points="402,-566 229,-566 229,-530 402,-530 402,-566"/>
<text text-anchor="middle" x="315.5" y="-544.3" font-family="Sans Not-Rotated 14" font-size="14.00" fill="white">Yellow zone doctor FD</text>
</g>
<!-- Red zone doctor FD&#45;&gt;Yellow zone doctor FD -->
<g id="edge11" class="edge">
<title>Red zone doctor FD&#45;&gt;Yellow zone doctor FD</title>
<path fill="none" stroke="black" stroke-width="1.5" d="M386.53,-703.89C372.02,-691.56 354.55,-673.53 346.5,-653 340.66,-638.1 340.38,-631.78 346.5,-617 350.83,-606.55 360.17,-609.45 364.5,-599 367.05,-592.84 367.55,-589.93 364.5,-584 362.4,-579.92 359.57,-576.2 356.34,-572.85"/>
<polygon fill="black" stroke="black" stroke-width="1.5" points="358.52,-570.11 348.72,-566.1 353.88,-575.35 358.52,-570.11"/>
<text text-anchor="middle" x="367" y="-631.3" font-family="Sans Not-Rotated 14" font-size="14.00"> &#160;&#160;&#160;&#160;&#160;&#160;&#160;&#160;</text>
</g>
<!-- Red zone doctor FD&#45;&gt;Red zone doctor -->
<g id="edge28" class="edge">
<title>Red zone doctor FD&#45;&gt;Red zone doctor</title>
<path fill="none" stroke="black" stroke-width="1.73" d="M433.94,-703.71C440.64,-698.41 447.67,-692.3 453.5,-686 490.68,-645.83 490.22,-628.2 522.5,-584 547.52,-549.73 578.08,-511.47 597.89,-487.09"/>
<polygon fill="black" stroke="black" stroke-width="1.73" points="600.82,-489.03 604.43,-479.07 595.4,-484.61 600.82,-489.03"/>
<text text-anchor="middle" x="543" y="-587.8" font-family="Sans Not-Rotated 14" font-size="14.00"> &#160;&#160;&#160;&#160;&#160;&#160;&#160;&#160;</text>
</g>
<!-- Red zone doctor FD&#45;&gt;Yellow zone Therapy control operator -->
<g id="edge16" class="edge">
<title>Red zone doctor FD&#45;&gt;Yellow zone Therapy control operator</title>
<path fill="none" stroke="black" stroke-width="1.21" d="M397.18,-740.23C382.97,-762.43 363.93,-801.2 383.5,-827 397.1,-844.93 512,-868.93 602.66,-885.41"/>
<polygon fill="black" stroke="black" stroke-width="1.21" points="602.29,-888.9 612.75,-887.23 603.53,-882.01 602.29,-888.9"/>
<text text-anchor="middle" x="404" y="-805.3" font-family="Sans Not-Rotated 14" font-size="14.00"> &#160;&#160;&#160;&#160;&#160;&#160;&#160;&#160;</text>
</g>
<!-- Notification operator -->
<g id="node9" class="node">
<title>Notification operator</title>
<polygon fill="#1946ba" stroke="black" points="331,-479 172,-479 172,-443 331,-443 331,-479"/>
<text text-anchor="middle" x="251.5" y="-457.3" font-family="Sans Not-Rotated 14" font-size="14.00" fill="white">Notification operator</text>
</g>
<!-- Red zone doctor FD&#45;&gt;Notification operator -->
<g id="edge19" class="edge">
<title>Red zone doctor FD&#45;&gt;Notification operator</title>
<path fill="none" stroke="black" stroke-width="1.58" d="M423.53,-703.78C433.21,-690.72 445.25,-671.86 450.5,-653 454.79,-637.59 451.82,-632.95 450.5,-617 449.83,-608.92 448.76,-607.01 447.5,-599 440.4,-553.73 464.16,-530.12 432.5,-497 419.51,-483.41 380.31,-474.92 341.7,-469.71"/>
<polygon fill="black" stroke="black" stroke-width="1.58" points="341.75,-466.19 331.38,-468.4 340.86,-473.13 341.75,-466.19"/>
<text text-anchor="middle" x="468" y="-587.8" font-family="Sans Not-Rotated 14" font-size="14.00"> &#160;&#160;&#160;&#160;&#160;&#160;&#160;&#160;</text>
</g>
<!-- Yellow zone doctor -->
<g id="node12" class="node">
<title>Yellow zone doctor</title>
<polygon fill="#7d7fd2" stroke="black" points="296,-653 147,-653 147,-617 296,-617 296,-653"/>
<text text-anchor="middle" x="221.5" y="-631.3" font-family="Sans Not-Rotated 14" font-size="14.00">Yellow zone doctor</text>
</g>
<!-- Red zone doctor FD&#45;&gt;Yellow zone doctor -->
<g id="edge24" class="edge">
<title>Red zone doctor FD&#45;&gt;Yellow zone doctor</title>
<path fill="none" stroke="black" stroke-width="2.06" d="M332.83,-707.15C314.07,-702.04 294.51,-695.16 277.5,-686 265.19,-679.37 253.36,-669.51 243.77,-660.3"/>
<polygon fill="black" stroke="black" stroke-width="2.06" points="246.14,-657.72 236.59,-653.12 241.19,-662.67 246.14,-657.72"/>
<text text-anchor="middle" x="298" y="-674.8" font-family="Sans Not-Rotated 14" font-size="14.00"> &#160;&#160;&#160;&#160;&#160;&#160;&#160;&#160;</text>
</g>
<!-- Yellow zone doctor FD&#45;&gt;Program change operator -->
<g id="edge3" class="edge">
<title>Yellow zone doctor FD&#45;&gt;Program change operator</title>
<path fill="none" stroke="black" stroke-width="1.02" d="M228.66,-565.4C191.83,-572.67 155.51,-580.39 147.5,-584 113.62,-599.26 80.5,-596.84 80.5,-634 80.5,-906.3 80.5,-906.3 80.5,-906.3 80.5,-929.17 85.13,-954.73 89.41,-973.46"/>
<polygon fill="black" stroke="black" stroke-width="1.02" points="86.05,-974.46 91.79,-983.36 92.86,-972.82 86.05,-974.46"/>
<text text-anchor="middle" x="90" y="-761.8" font-family="Sans Not-Rotated 14" font-size="14.00"> &#160;&#160;&#160;</text>
</g>
<!-- Yellow zone doctor FD&#45;&gt;Red zone operator -->
<g id="edge7" class="edge">
<title>Yellow zone doctor FD&#45;&gt;Red zone operator</title>
<path fill="none" stroke="black" stroke-width="1.69" d="M229.18,-566.03C171.44,-581.73 110.71,-609.32 138.5,-653 171.57,-704.97 336.31,-759.67 433.47,-788.13"/>
<polygon fill="black" stroke="black" stroke-width="1.69" points="432.65,-791.54 443.23,-790.97 434.61,-784.81 432.65,-791.54"/>
<text text-anchor="middle" x="195" y="-674.8" font-family="Sans Not-Rotated 14" font-size="14.00"> &#160;&#160;&#160;&#160;&#160;&#160;&#160;&#160;</text>
</g>
<!-- Yellow zone doctor FD&#45;&gt;Red zone doctor FD -->
<g id="edge29" class="edge">
<title>Yellow zone doctor FD&#45;&gt;Red zone doctor FD</title>
<path fill="none" stroke="black" stroke-width="1.33" d="M358.56,-566.04C366.46,-570.83 373.95,-576.76 379.5,-584 404.04,-616.01 409.38,-663.96 410.1,-693.82"/>
<polygon fill="black" stroke="black" stroke-width="1.33" points="406.6,-693.96 410.18,-703.93 413.6,-693.91 406.6,-693.96"/>
<text text-anchor="middle" x="426" y="-631.3" font-family="Sans Not-Rotated 14" font-size="14.00"> &#160;&#160;&#160;&#160;&#160;&#160;&#160;&#160;</text>
</g>
<!-- Yellow zone doctor FD&#45;&gt;Red zone doctor -->
<g id="edge30" class="edge">
<title>Yellow zone doctor FD&#45;&gt;Red zone doctor</title>
<path fill="none" stroke="black" stroke-width="1.28" d="M358.54,-529.97C385.99,-519.52 422.48,-506.4 455.5,-497 484.01,-488.89 515.8,-481.66 543.68,-475.91"/>
<polygon fill="black" stroke="black" stroke-width="1.28" points="544.66,-479.29 553.76,-473.86 543.27,-472.43 544.66,-479.29"/>
<text text-anchor="middle" x="476" y="-500.8" font-family="Sans Not-Rotated 14" font-size="14.00"> &#160;&#160;&#160;&#160;&#160;&#160;&#160;&#160;</text>
</g>
<!-- Yellow zone doctor FD&#45;&gt;Notification operator -->
<g id="edge18" class="edge">
<title>Yellow zone doctor FD&#45;&gt;Notification operator</title>
<path fill="none" stroke="black" stroke-width="1.94" d="M310.15,-529.74C306.47,-519.59 300.91,-506.85 293.5,-497 290.59,-493.13 287.16,-489.41 283.55,-485.93"/>
<polygon fill="black" stroke="black" stroke-width="1.94" points="285.76,-483.22 275.97,-479.18 281.11,-488.44 285.76,-483.22"/>
<text text-anchor="middle" x="322" y="-500.8" font-family="Sans Not-Rotated 14" font-size="14.00"> &#160;&#160;&#160;&#160;&#160;&#160;&#160;&#160;</text>
</g>
<!-- Yellow zone doctor FD&#45;&gt;Yellow zone doctor -->
<g id="edge25" class="edge">
<title>Yellow zone doctor FD&#45;&gt;Yellow zone doctor</title>
<path fill="none" stroke="black" stroke-width="2.16" d="M303.36,-566.31C295.74,-576.49 285.34,-589.23 274.5,-599 269.77,-603.26 264.48,-607.39 259.12,-611.21"/>
<polygon fill="black" stroke="black" stroke-width="2.16" points="256.99,-608.43 250.71,-616.96 260.94,-614.21 256.99,-608.43"/>
<text text-anchor="middle" x="324" y="-587.8" font-family="Sans Not-Rotated 14" font-size="14.00"> &#160;&#160;&#160;&#160;&#160;&#160;&#160;&#160;&#160;&#160;&#160;&#160;&#160;&#160;&#160;</text>
</g>
<!-- Monitoring completed doctor -->
<g id="node5" class="node">
<title>Monitoring completed doctor</title>
<polygon fill="#ffffff" stroke="black" points="337.5,-218 123.5,-218 123.5,-182 337.5,-182 337.5,-218"/>
<text text-anchor="middle" x="230.5" y="-196.3" font-family="Sans Not-Rotated 14" font-size="14.00">Monitoring completed doctor</text>
</g>
<!-- Monitoring completed doctor FD -->
<g id="node10" class="node">
<title>Monitoring completed doctor FD</title>
<polygon fill="#ffffff" stroke="black" points="349.5,-131 111.5,-131 111.5,-95 349.5,-95 349.5,-131"/>
<text text-anchor="middle" x="230.5" y="-109.3" font-family="Sans Not-Rotated 14" font-size="14.00">Monitoring completed doctor FD</text>
</g>
<!-- Monitoring completed doctor&#45;&gt;Monitoring completed doctor FD -->
<g id="edge23" class="edge">
<title>Monitoring completed doctor&#45;&gt;Monitoring completed doctor FD</title>
<path fill="none" stroke="black" stroke-width="1.02" d="M230.5,-181.8C230.5,-170.16 230.5,-154.55 230.5,-141.24"/>
<polygon fill="black" stroke="black" stroke-width="1.02" points="234,-141.18 230.5,-131.18 227,-141.18 234,-141.18"/>
<text text-anchor="middle" x="240" y="-152.8" font-family="Sans Not-Rotated 14" font-size="14.00"> &#160;&#160;&#160;</text>
</g>
<!-- Red zone doctor&#45;&gt;Red zone operator -->
<g id="edge4" class="edge">
<title>Red zone doctor&#45;&gt;Red zone operator</title>
<path fill="none" stroke="black" stroke-width="3.47" d="M629.45,-479.12C645.25,-506.2 670.28,-559.85 648.5,-599 641.13,-612.26 628.54,-604.82 619.5,-617 585.76,-662.44 606.27,-686.96 586.5,-740 580.81,-755.27 581.78,-761.23 570.5,-773 566.08,-777.62 560.91,-781.76 555.46,-785.44"/>
<polygon fill="black" stroke="black" stroke-width="3.47" points="553.38,-782.61 546.72,-790.85 557.06,-788.57 553.38,-782.61"/>
<text text-anchor="middle" x="656" y="-631.3" font-family="Sans Not-Rotated 14" font-size="14.00"> &#160;&#160;&#160;&#160;&#160;&#160;&#160;&#160;&#160;&#160;&#160;&#160;&#160;&#160;&#160;</text>
</g>
<!-- Red zone doctor&#45;&gt;Red zone doctor FD -->
<g id="edge8" class="edge">
<title>Red zone doctor&#45;&gt;Red zone doctor FD</title>
<path fill="none" stroke="black" stroke-width="3.51" d="M612.19,-479.28C593.4,-530.52 538.66,-678.56 530.5,-686 520.65,-694.98 508.62,-701.67 496.03,-706.64"/>
<polygon fill="black" stroke="black" stroke-width="3.51" points="494.54,-703.46 486.31,-710.13 496.9,-710.05 494.54,-703.46"/>
<text text-anchor="middle" x="608" y="-587.8" font-family="Sans Not-Rotated 14" font-size="14.00"> &#160;&#160;&#160;&#160;&#160;&#160;&#160;&#160;&#160;&#160;&#160;&#160;&#160;&#160;&#160;</text>
</g>
<!-- Yellow zone Therapy control operator&#45;&gt;Red zone operator -->
<g id="edge31" class="edge">
<title>Yellow zone Therapy control operator&#45;&gt;Red zone operator</title>
<path fill="none" stroke="black" stroke-width="1.16" d="M676.65,-887.22C641.84,-871.52 590.1,-848.17 552.62,-831.26"/>
<polygon fill="black" stroke="black" stroke-width="1.16" points="553.97,-828.03 543.42,-827.11 551.1,-834.41 553.97,-828.03"/>
<text text-anchor="middle" x="636" y="-848.8" font-family="Sans Not-Rotated 14" font-size="14.00"> &#160;&#160;&#160;&#160;&#160;&#160;&#160;&#160;</text>
</g>
<!-- Yellow zone Therapy control operator&#45;&gt;Red zone doctor FD -->
<g id="edge33" class="edge">
<title>Yellow zone Therapy control operator&#45;&gt;Red zone doctor FD</title>
<path fill="none" stroke="black" stroke-width="1.09" d="M708.12,-887.06C698.32,-862.68 677.37,-818.07 646.5,-791 605.02,-754.63 545.25,-737.64 496.11,-729.74"/>
<polygon fill="black" stroke="black" stroke-width="1.09" points="496.52,-726.27 486.11,-728.24 495.48,-733.19 496.52,-726.27"/>
<text text-anchor="middle" x="685" y="-805.3" font-family="Sans Not-Rotated 14" font-size="14.00"> &#160;&#160;&#160;</text>
</g>
<!-- Yellow zone Therapy control operator&#45;&gt;Red zone doctor -->
<g id="edge34" class="edge">
<title>Yellow zone Therapy control operator&#45;&gt;Red zone doctor</title>
<path fill="none" stroke="black" stroke-width="1.05" d="M801.83,-887.25C841.41,-873.94 879.5,-850.58 879.5,-810 879.5,-810 879.5,-810 879.5,-547 879.5,-507.55 770.33,-483.57 693.2,-471.56"/>
<polygon fill="black" stroke="black" stroke-width="1.05" points="693.43,-468.05 683.02,-470.01 692.38,-474.97 693.43,-468.05"/>
<text text-anchor="middle" x="889" y="-674.8" font-family="Sans Not-Rotated 14" font-size="14.00"> &#160;&#160;&#160;</text>
</g>
<!-- Yellow zone Therapy control operator&#45;&gt;Notification operator -->
<g id="edge32" class="edge">
<title>Yellow zone Therapy control operator&#45;&gt;Notification operator</title>
<path fill="none" stroke="black" stroke-width="1.12" d="M752.97,-887.22C781.51,-871.65 815.5,-845.62 815.5,-810 815.5,-810 815.5,-810 815.5,-677.5 815.5,-479.63 475.49,-503.29 451.5,-497 415.96,-487.69 376.22,-480.16 341.58,-474.5"/>
<polygon fill="black" stroke="black" stroke-width="1.12" points="341.91,-471.01 331.48,-472.88 340.8,-477.92 341.91,-471.01"/>
<text text-anchor="middle" x="836" y="-674.8" font-family="Sans Not-Rotated 14" font-size="14.00"> &#160;&#160;&#160;&#160;&#160;&#160;&#160;&#160;</text>
</g>
<!-- Meas missing operator -->
<g id="node8" class="node">
<title>Meas missing operator</title>
<polygon fill="#a09dde" stroke="black" points="311,-392 140,-392 140,-356 311,-356 311,-392"/>
<text text-anchor="middle" x="225.5" y="-370.3" font-family="Sans Not-Rotated 14" font-size="14.00">Meas missing operator</text>
</g>
<!-- Meas missing operator&#45;&gt;Monitoring completed doctor -->
<g id="edge13" class="edge">
<title>Meas missing operator&#45;&gt;Monitoring completed doctor</title>
<path fill="none" stroke="black" d="M226,-355.88C226.87,-326 228.67,-264.11 229.71,-228.27"/>
<polygon fill="black" stroke="black" points="233.21,-228.15 230,-218.05 226.22,-227.95 233.21,-228.15"/>
<text text-anchor="middle" x="237" y="-283.3" font-family="Sans Not-Rotated 14" font-size="14.00"> &#160;&#160;&#160;</text>
</g>
<!-- Meas missing operator&#45;&gt;Notification operator -->
<g id="edge22" class="edge">
<title>Meas missing operator&#45;&gt;Notification operator</title>
<path fill="none" stroke="black" stroke-width="1.47" d="M202.53,-392.17C192.79,-401.63 185.02,-413.71 191.5,-425 193.96,-429.28 197.17,-433.09 200.83,-436.47"/>
<polygon fill="black" stroke="black" stroke-width="1.47" points="198.84,-439.36 208.86,-442.81 203.18,-433.87 198.84,-439.36"/>
<text text-anchor="middle" x="212" y="-413.8" font-family="Sans Not-Rotated 14" font-size="14.00"> &#160;&#160;&#160;&#160;&#160;&#160;&#160;&#160;</text>
</g>
<!-- Meas missing doctor -->
<g id="node11" class="node">
<title>Meas missing doctor</title>
<polygon fill="#c0bde9" stroke="black" points="194,-305 39,-305 39,-269 194,-269 194,-305"/>
<text text-anchor="middle" x="116.5" y="-283.3" font-family="Sans Not-Rotated 14" font-size="14.00">Meas missing doctor</text>
</g>
<!-- Meas missing operator&#45;&gt;Meas missing doctor -->
<g id="edge2" class="edge">
<title>Meas missing operator&#45;&gt;Meas missing doctor</title>
<path fill="none" stroke="black" stroke-width="2.59" d="M171.22,-355.98C161.26,-351.23 151.5,-345.3 143.5,-338 136.4,-331.53 130.8,-322.75 126.58,-314.35"/>
<polygon fill="black" stroke="black" stroke-width="2.59" points="129.73,-312.82 122.4,-305.17 123.36,-315.72 129.73,-312.82"/>
<text text-anchor="middle" x="180" y="-326.8" font-family="Sans Not-Rotated 14" font-size="14.00"> &#160;&#160;&#160;&#160;&#160;&#160;&#160;&#160;&#160;&#160;&#160;&#160;&#160;&#160;&#160;</text>
</g>
<!-- Notification operator&#45;&gt;Red zone operator -->
<g id="edge36" class="edge">
<title>Notification operator&#45;&gt;Red zone operator</title>
<path fill="none" stroke="black" stroke-width="1.37" d="M172.69,-479.1C161.51,-483.72 150.71,-489.58 141.5,-497 84.37,-543.03 54.69,-587.38 87.5,-653 159.12,-796.24 264,-759.46 422.91,-789.93"/>
<polygon fill="black" stroke="black" stroke-width="1.37" points="422.47,-793.41 432.97,-791.93 423.84,-786.54 422.47,-793.41"/>
<text text-anchor="middle" x="108" y="-631.3" font-family="Sans Not-Rotated 14" font-size="14.00"> &#160;&#160;&#160;&#160;&#160;&#160;&#160;&#160;</text>
</g>
<!-- Notification operator&#45;&gt;Yellow zone doctor FD -->
<g id="edge35" class="edge">
<title>Notification operator&#45;&gt;Yellow zone doctor FD</title>
<path fill="none" stroke="black" stroke-width="1.31" d="M245.78,-479.39C243.51,-489.59 242.64,-502.33 248.5,-512 251.19,-516.45 254.66,-520.35 258.59,-523.78"/>
<polygon fill="black" stroke="black" stroke-width="1.31" points="256.54,-526.62 266.65,-529.81 260.73,-521.02 256.54,-526.62"/>
<text text-anchor="middle" x="269" y="-500.8" font-family="Sans Not-Rotated 14" font-size="14.00"> &#160;&#160;&#160;&#160;&#160;&#160;&#160;&#160;</text>
</g>
<!-- Notification operator&#45;&gt;Monitoring completed doctor -->
<g id="edge14" class="edge">
<title>Notification operator&#45;&gt;Monitoring completed doctor</title>
<path fill="none" stroke="black" d="M296.9,-442.95C304.5,-438.22 311.52,-432.31 316.5,-425 333.81,-399.63 328.49,-385.66 320.5,-356 307.02,-305.95 272.99,-255.42 250.85,-226.21"/>
<polygon fill="black" stroke="black" points="253.55,-223.99 244.67,-218.21 248.01,-228.26 253.55,-223.99"/>
<text text-anchor="middle" x="323" y="-326.8" font-family="Sans Not-Rotated 14" font-size="14.00"> &#160;&#160;&#160;</text>
</g>
<!-- Notification operator&#45;&gt;Meas missing operator -->
<g id="edge17" class="edge">
<title>Notification operator&#45;&gt;Meas missing operator</title>
<path fill="none" stroke="black" stroke-width="2.77" d="M246.24,-442.8C242.64,-431.05 237.81,-415.24 233.71,-401.84"/>
<polygon fill="black" stroke="black" stroke-width="2.77" points="237.03,-400.71 230.75,-392.18 230.33,-402.76 237.03,-400.71"/>
<text text-anchor="middle" x="276" y="-413.8" font-family="Sans Not-Rotated 14" font-size="14.00"> &#160;&#160;&#160;&#160;&#160;&#160;&#160;&#160;&#160;&#160;&#160;&#160;&#160;&#160;&#160;</text>
</g>
<!-- Notification operator&#45;&gt;Notification operator -->
<g id="edge40" class="edge">
<title>Notification operator&#45;&gt;Notification operator</title>
<path fill="none" stroke="black" stroke-width="2.06" d="M331.07,-467.99C341.83,-466.82 349,-464.49 349,-461 349,-458.77 346.06,-457.01 341.12,-455.72"/>
<polygon fill="black" stroke="black" stroke-width="2.06" points="341.52,-452.24 331.07,-454.01 340.34,-459.14 341.52,-452.24"/>
<text text-anchor="middle" x="369.5" y="-457.3" font-family="Sans Not-Rotated 14" font-size="14.00"> &#160;&#160;&#160;&#160;&#160;&#160;&#160;&#160;</text>
</g>
<!-- Notification operator&#45;&gt;Yellow zone doctor -->
<g id="edge26" class="edge">
<title>Notification operator&#45;&gt;Yellow zone doctor</title>
<path fill="none" stroke="black" stroke-width="1.68" d="M194.64,-479.13C170.29,-489.63 144.31,-505.84 130.5,-530 112.55,-561.42 147.33,-591.91 178.95,-611.67"/>
<polygon fill="black" stroke="black" stroke-width="1.68" points="177.36,-614.8 187.73,-616.95 180.96,-608.8 177.36,-614.8"/>
<text text-anchor="middle" x="151" y="-544.3" font-family="Sans Not-Rotated 14" font-size="14.00"> &#160;&#160;&#160;&#160;&#160;&#160;&#160;&#160;</text>
</g>
<!-- end -->
<g id="node14" class="node">
<title>end</title>
<ellipse fill="#ea4126" stroke="black" cx="304.5" cy="-22" rx="18" ry="18"/>
<ellipse fill="none" stroke="black" cx="304.5" cy="-22" rx="22" ry="22"/>
</g>
<!-- Notification operator&#45;&gt;end -->
<g id="edge27" class="edge">
<title>Notification operator&#45;&gt;end</title>
<path fill="none" stroke="black" stroke-dasharray="5,2" d="M314.13,-442.98C345.75,-430.19 377.5,-408.91 377.5,-375 377.5,-375 377.5,-375 377.5,-112 377.5,-81.79 352.04,-56.22 331.2,-40.35"/>
<polygon fill="black" stroke="black" points="333.07,-37.39 322.92,-34.36 328.97,-43.06 333.07,-37.39"/>
<text text-anchor="middle" x="398" y="-239.8" font-family="Sans Not-Rotated 14" font-size="14.00"> &#160;&#160;&#160;&#160;&#160;&#160;&#160;&#160;</text>
</g>
<!-- Monitoring completed doctor FD&#45;&gt;end -->
<g id="edge37" class="edge">
<title>Monitoring completed doctor FD&#45;&gt;end</title>
<path fill="none" stroke="black" stroke-dasharray="5,2" d="M244.77,-94.84C255.97,-81.37 271.7,-62.45 284.21,-47.41"/>
<polygon fill="black" stroke="black" points="287.07,-49.43 290.78,-39.51 281.69,-44.96 287.07,-49.43"/>
<text text-anchor="middle" x="281" y="-65.8" font-family="Sans Not-Rotated 14" font-size="14.00"> &#160;&#160;&#160;</text>
</g>
<!-- Meas missing doctor&#45;&gt;Monitoring completed doctor -->
<g id="edge12" class="edge">
<title>Meas missing doctor&#45;&gt;Monitoring completed doctor</title>
<path fill="none" stroke="black" stroke-width="1.01" d="M139.57,-268.8C156.8,-255.95 180.53,-238.26 199.43,-224.17"/>
<polygon fill="black" stroke="black" stroke-width="1.01" points="201.54,-226.96 207.46,-218.18 197.36,-221.35 201.54,-226.96"/>
<text text-anchor="middle" x="189" y="-239.8" font-family="Sans Not-Rotated 14" font-size="14.00"> &#160;&#160;&#160;</text>
</g>
<!-- Meas missing doctor&#45;&gt;Notification operator -->
<g id="edge20" class="edge">
<title>Meas missing doctor&#45;&gt;Notification operator</title>
<path fill="none" stroke="black" stroke-width="2.14" d="M94.51,-305.21C70.19,-326.37 36.97,-363.04 57.5,-392 81.28,-425.54 122.95,-442.66 161.59,-451.35"/>
<polygon fill="black" stroke="black" stroke-width="2.14" points="161.35,-454.88 171.86,-453.49 162.78,-448.03 161.35,-454.88"/>
<text text-anchor="middle" x="94" y="-370.3" font-family="Sans Not-Rotated 14" font-size="14.00"> &#160;&#160;&#160;&#160;&#160;&#160;&#160;&#160;&#160;&#160;&#160;&#160;&#160;&#160;&#160;</text>
</g>
<!-- Yellow zone doctor&#45;&gt;Yellow zone doctor FD -->
<g id="edge10" class="edge">
<title>Yellow zone doctor&#45;&gt;Yellow zone doctor FD</title>
<path fill="none" stroke="black" stroke-width="3.63" d="M206.48,-616.69C199.55,-606.52 194.28,-593.77 201.5,-584 206.47,-577.27 212.72,-571.79 219.71,-567.34"/>
<polygon fill="black" stroke="black" stroke-width="3.63" points="221.88,-570.14 228.93,-562.23 218.49,-564.02 221.88,-570.14"/>
<text text-anchor="middle" x="238" y="-587.8" font-family="Sans Not-Rotated 14" font-size="14.00"> &#160;&#160;&#160;&#160;&#160;&#160;&#160;&#160;&#160;&#160;&#160;&#160;&#160;&#160;&#160;</text>
</g>
<!-- Yellow zone doctor&#45;&gt;Notification operator -->
<g id="edge21" class="edge">
<title>Yellow zone doctor&#45;&gt;Notification operator</title>
<path fill="none" stroke="black" stroke-width="1.37" d="M206.03,-616.97C189.22,-596.29 166.4,-560.4 179.5,-530 187.12,-512.31 201.86,-497.09 216.03,-485.55"/>
<polygon fill="black" stroke="black" stroke-width="1.37" points="218.47,-488.08 224.24,-479.2 214.19,-482.55 218.47,-488.08"/>
<text text-anchor="middle" x="200" y="-544.3" font-family="Sans Not-Rotated 14" font-size="14.00"> &#160;&#160;&#160;&#160;&#160;&#160;&#160;&#160;</text>
</g>
<!-- start -->
<g id="node13" class="node">
<title>start</title>
<ellipse fill="#95d600" stroke="black" cx="505.5" cy="-905.3" rx="27.1" ry="27.1"/>
<text text-anchor="middle" x="505.5" y="-901.6" font-family="Sans Not-Rotated 14" font-size="14.00">start</text>
</g>
<!-- start&#45;&gt;Red zone operator -->
<g id="edge6" class="edge">
<title>start&#45;&gt;Red zone operator</title>
<path fill="none" stroke="black" stroke-dasharray="5,2" d="M505.5,-877.78C505.5,-865.1 505.5,-849.93 505.5,-837.17"/>
<polygon fill="black" stroke="black" points="509,-837.12 505.5,-827.12 502,-837.12 509,-837.12"/>
<text text-anchor="middle" x="526" y="-848.8" font-family="Sans Not-Rotated 14" font-size="14.00"> &#160;&#160;&#160;&#160;&#160;&#160;&#160;&#160;</text>
</g>
</g>
</svg>
