<?xml version="1.0" encoding="UTF-8" standalone="no"?>
<!DOCTYPE svg PUBLIC "-//W3C//DTD SVG 1.1//EN"
 "http://www.w3.org/Graphics/SVG/1.1/DTD/svg11.dtd">
<!-- Generated by graphviz version 3.0.0 (20220226.1711)
 -->
<!-- Pages: 1 -->
<svg width="1158pt" height="1028pt"
 viewBox="0.00 0.00 1157.55 1027.60" xmlns="http://www.w3.org/2000/svg" xmlns:xlink="http://www.w3.org/1999/xlink">
<g id="graph0" class="graph" transform="scale(1 1) rotate(0) translate(4 1023.6)">
<polygon fill="white" stroke="transparent" points="-4,4 -4,-1023.6 1153.55,-1023.6 1153.55,4 -4,4"/>
<!-- Program change operator -->
<g id="node1" class="node">
<title>Program change operator</title>
<polygon fill="#ffffff" stroke="black" points="1078.5,-1019.6 885.5,-1019.6 885.5,-983.6 1078.5,-983.6 1078.5,-1019.6"/>
<text text-anchor="middle" x="982" y="-997.9" font-family="Sans Not-Rotated 14" font-size="14.00">Program change operator</text>
</g>
<!-- Yellow zone Therapy control operator -->
<g id="node7" class="node">
<title>Yellow zone Therapy control operator</title>
<polygon fill="#e0ddf4" stroke="black" points="667,-923.3 389,-923.3 389,-887.3 667,-887.3 667,-923.3"/>
<text text-anchor="middle" x="528" y="-901.6" font-family="Sans Not-Rotated 14" font-size="14.00">Yellow zone Therapy control operator</text>
</g>
<!-- Program change operator&#45;&gt;Yellow zone Therapy control operator -->
<g id="edge1" class="edge">
<title>Program change operator&#45;&gt;Yellow zone Therapy control operator</title>
<path fill="none" stroke="black" stroke-width="1.03" d="M900.05,-983.57C821.14,-967.18 702,-942.44 619.91,-925.39"/>
<polygon fill="black" stroke="black" stroke-width="1.03" points="620.59,-921.95 610.08,-923.35 619.16,-928.81 620.59,-921.95"/>
<text text-anchor="middle" x="819.5" y="-954.4" font-family="Sans Not-Rotated 14" font-size="14.00"> &#160;&#160;&#160;</text>
</g>
<!-- Red zone operator -->
<g id="node2" class="node">
<title>Red zone operator</title>
<polygon fill="#1d2559" stroke="black" points="642.5,-827 497.5,-827 497.5,-791 642.5,-791 642.5,-827"/>
<text text-anchor="middle" x="570" y="-805.3" font-family="Sans Not-Rotated 14" font-size="14.00" fill="white">Red zone operator</text>
</g>
<!-- Red zone operator&#45;&gt;Red zone operator -->
<g id="edge50" class="edge">
<title>Red zone operator&#45;&gt;Red zone operator</title>
<path fill="none" stroke="black" stroke-width="1.52" d="M642.79,-816.11C653.37,-814.98 660.5,-812.61 660.5,-809 660.5,-806.69 657.57,-804.88 652.69,-803.59"/>
<polygon fill="black" stroke="black" stroke-width="1.52" points="653.24,-800.13 642.79,-801.89 652.05,-807.03 653.24,-800.13"/>
<text text-anchor="middle" x="681" y="-805.3" font-family="Sans Not-Rotated 14" font-size="14.00"> &#160;&#160;&#160;&#160;&#160;&#160;&#160;&#160;</text>
</g>
<!-- Red zone doctor FD -->
<g id="node3" class="node">
<title>Red zone doctor FD</title>
<polygon fill="#1d2559" stroke="black" points="672.5,-740 519.5,-740 519.5,-704 672.5,-704 672.5,-740"/>
<text text-anchor="middle" x="596" y="-718.3" font-family="Sans Not-Rotated 14" font-size="14.00" fill="white">Red zone doctor FD</text>
</g>
<!-- Red zone operator&#45;&gt;Red zone doctor FD -->
<g id="edge12" class="edge">
<title>Red zone operator&#45;&gt;Red zone doctor FD</title>
<path fill="none" stroke="black" stroke-width="3.35" d="M595.35,-790.91C600.87,-785.85 605.96,-779.81 609,-773 612.25,-765.71 611.67,-757.45 609.53,-749.77"/>
<polygon fill="black" stroke="black" stroke-width="3.35" points="612.73,-748.33 606.01,-740.14 606.16,-750.73 612.73,-748.33"/>
<text text-anchor="middle" x="648.5" y="-761.8" font-family="Sans Not-Rotated 14" font-size="14.00"> &#160;&#160;&#160;&#160;&#160;&#160;&#160;&#160;&#160;&#160;&#160;&#160;&#160;&#160;&#160;</text>
</g>
<!-- Red zone doctor -->
<g id="node6" class="node">
<title>Red zone doctor</title>
<polygon fill="#1f3b98" stroke="black" points="1002.5,-392 873.5,-392 873.5,-356 1002.5,-356 1002.5,-392"/>
<text text-anchor="middle" x="938" y="-370.3" font-family="Sans Not-Rotated 14" font-size="14.00" fill="white">Red zone doctor</text>
</g>
<!-- Red zone operator&#45;&gt;Red zone doctor -->
<g id="edge21" class="edge">
<title>Red zone operator&#45;&gt;Red zone doctor</title>
<path fill="none" stroke="black" stroke-width="5" d="M642.59,-801.47C679.07,-796.51 723.38,-787.89 761,-773 845.98,-739.37 871.33,-724.7 928,-653 950.55,-624.47 943.74,-606.9 972,-584 989.7,-569.66 1007.02,-584.73 1020,-566 1057.52,-511.86 999.86,-437.83 963.66,-399.8"/>
<polygon fill="black" stroke="black" stroke-width="5" points="966.42,-396.36 956.31,-392.24 960.15,-402.46 966.42,-396.36"/>
<text text-anchor="middle" x="1008.5" y="-587.8" font-family="Sans Not-Rotated 14" font-size="14.00"> &#160;&#160;&#160;&#160;&#160;&#160;&#160;&#160;&#160;&#160;&#160;&#160;&#160;&#160;&#160;</text>
</g>
<!-- Red zone operator&#45;&gt;Yellow zone Therapy control operator -->
<g id="edge25" class="edge">
<title>Red zone operator&#45;&gt;Yellow zone Therapy control operator</title>
<path fill="none" stroke="black" stroke-width="1.05" d="M543.04,-827.28C537.39,-832.27 532.19,-838.23 529,-845 524.41,-854.75 523.4,-866.43 523.82,-876.85"/>
<polygon fill="black" stroke="black" stroke-width="1.05" points="520.35,-877.43 524.68,-887.1 527.33,-876.84 520.35,-877.43"/>
<text text-anchor="middle" x="538.5" y="-848.8" font-family="Sans Not-Rotated 14" font-size="14.00"> &#160;&#160;&#160;</text>
</g>
<!-- Yellow zone doctor -->
<g id="node12" class="node">
<title>Yellow zone doctor</title>
<polygon fill="#7d7fd2" stroke="black" points="519.5,-653 370.5,-653 370.5,-617 519.5,-617 519.5,-653"/>
<text text-anchor="middle" x="445" y="-631.3" font-family="Sans Not-Rotated 14" font-size="14.00">Yellow zone doctor</text>
</g>
<!-- Red zone operator&#45;&gt;Yellow zone doctor -->
<g id="edge39" class="edge">
<title>Red zone operator&#45;&gt;Yellow zone doctor</title>
<path fill="none" stroke="black" stroke-width="1.21" d="M531.5,-790.99C509.98,-779.56 484.45,-762.47 469,-740 453.39,-717.3 447.81,-685.89 445.89,-663.54"/>
<polygon fill="black" stroke="black" stroke-width="1.21" points="449.37,-663.12 445.2,-653.38 442.38,-663.59 449.37,-663.12"/>
<text text-anchor="middle" x="489.5" y="-718.3" font-family="Sans Not-Rotated 14" font-size="14.00"> &#160;&#160;&#160;&#160;&#160;&#160;&#160;&#160;</text>
</g>
<!-- Red zone doctor FD&#45;&gt;Program change operator -->
<g id="edge4" class="edge">
<title>Red zone doctor FD&#45;&gt;Program change operator</title>
<path fill="none" stroke="black" stroke-width="1" d="M672.7,-726.22C756.36,-734.13 887.7,-760.27 958,-845 988.08,-881.25 988.54,-939.22 985.62,-973.22"/>
<polygon fill="black" stroke="black" stroke-width="1" points="982.12,-973.06 984.59,-983.37 989.08,-973.77 982.12,-973.06"/>
<text text-anchor="middle" x="976.5" y="-848.8" font-family="Sans Not-Rotated 14" font-size="14.00"> &#160;&#160;&#160;</text>
</g>
<!-- Red zone doctor FD&#45;&gt;Red zone operator -->
<g id="edge6" class="edge">
<title>Red zone doctor FD&#45;&gt;Red zone operator</title>
<path fill="none" stroke="black" stroke-width="3.44" d="M553.36,-740.19C546.41,-744.92 540.14,-750.78 536,-758 531.14,-766.47 534.3,-775.38 540.29,-783.3"/>
<polygon fill="black" stroke="black" stroke-width="3.44" points="537.75,-785.72 547.03,-790.83 542.97,-781.05 537.75,-785.72"/>
<text text-anchor="middle" x="572.5" y="-761.8" font-family="Sans Not-Rotated 14" font-size="14.00"> &#160;&#160;&#160;&#160;&#160;&#160;&#160;&#160;&#160;&#160;&#160;&#160;&#160;&#160;&#160;</text>
</g>
<!-- Red zone doctor FD&#45;&gt;Red zone doctor FD -->
<g id="edge51" class="edge">
<title>Red zone doctor FD&#45;&gt;Red zone doctor FD</title>
<path fill="none" stroke="black" stroke-width="2.55" d="M672.75,-729.03C683.39,-727.87 690.5,-725.53 690.5,-722 690.5,-719.74 687.58,-717.97 682.69,-716.68"/>
<polygon fill="black" stroke="black" stroke-width="2.55" points="683.2,-713.22 672.75,-714.97 682.02,-720.12 683.2,-713.22"/>
<text text-anchor="middle" x="727" y="-718.3" font-family="Sans Not-Rotated 14" font-size="14.00"> &#160;&#160;&#160;&#160;&#160;&#160;&#160;&#160;&#160;&#160;&#160;&#160;&#160;&#160;&#160;</text>
</g>
<!-- Yellow zone doctor FD -->
<g id="node4" class="node">
<title>Yellow zone doctor FD</title>
<polygon fill="#5661c6" stroke="black" points="761.5,-479 588.5,-479 588.5,-443 761.5,-443 761.5,-479"/>
<text text-anchor="middle" x="675" y="-457.3" font-family="Sans Not-Rotated 14" font-size="14.00" fill="white">Yellow zone doctor FD</text>
</g>
<!-- Red zone doctor FD&#45;&gt;Yellow zone doctor FD -->
<g id="edge16" class="edge">
<title>Red zone doctor FD&#45;&gt;Yellow zone doctor FD</title>
<path fill="none" stroke="black" stroke-width="1.5" d="M611.79,-703.93C616.4,-698.45 621.21,-692.19 625,-686 650.79,-643.9 641.27,-624.85 669,-584 675.35,-574.64 682.67,-576.45 687,-566 697.27,-541.21 691.7,-510.43 685.15,-488.81"/>
<polygon fill="black" stroke="black" stroke-width="1.5" points="688.47,-487.69 682.02,-479.29 681.82,-489.88 688.47,-487.69"/>
<text text-anchor="middle" x="689.5" y="-587.8" font-family="Sans Not-Rotated 14" font-size="14.00"> &#160;&#160;&#160;&#160;&#160;&#160;&#160;&#160;</text>
</g>
<!-- Red zone doctor FD&#45;&gt;Red zone doctor -->
<g id="edge22" class="edge">
<title>Red zone doctor FD&#45;&gt;Red zone doctor</title>
<path fill="none" stroke="black" stroke-width="1.73" d="M672.65,-711.52C750.91,-699.65 861,-675.86 861,-636 861,-636 861,-636 861,-460 861,-434.39 880.44,-413.06 899.78,-398.17"/>
<polygon fill="black" stroke="black" stroke-width="1.73" points="901.98,-400.9 908.01,-392.19 897.86,-395.24 901.98,-400.9"/>
<text text-anchor="middle" x="881.5" y="-544.3" font-family="Sans Not-Rotated 14" font-size="14.00"> &#160;&#160;&#160;&#160;&#160;&#160;&#160;&#160;</text>
</g>
<!-- Red zone doctor FD&#45;&gt;Yellow zone Therapy control operator -->
<g id="edge24" class="edge">
<title>Red zone doctor FD&#45;&gt;Yellow zone Therapy control operator</title>
<path fill="none" stroke="black" stroke-width="1.21" d="M658.55,-740.15C669.38,-744.84 680.03,-750.71 689,-758 713.88,-778.21 727.69,-800.27 710,-827 691.72,-854.63 661.35,-872.41 630.61,-883.85"/>
<polygon fill="black" stroke="black" stroke-width="1.21" points="629.35,-880.58 621.07,-887.2 631.66,-887.19 629.35,-880.58"/>
<text text-anchor="middle" x="738.5" y="-805.3" font-family="Sans Not-Rotated 14" font-size="14.00"> &#160;&#160;&#160;&#160;&#160;&#160;&#160;&#160;</text>
</g>
<!-- Notification operator -->
<g id="node9" class="node">
<title>Notification operator</title>
<polygon fill="#1946ba" stroke="black" points="281.5,-566 122.5,-566 122.5,-530 281.5,-530 281.5,-566"/>
<text text-anchor="middle" x="202" y="-544.3" font-family="Sans Not-Rotated 14" font-size="14.00" fill="white">Notification operator</text>
</g>
<!-- Red zone doctor FD&#45;&gt;Notification operator -->
<g id="edge30" class="edge">
<title>Red zone doctor FD&#45;&gt;Notification operator</title>
<path fill="none" stroke="black" stroke-width="1.58" d="M519.24,-703.98C443.93,-686.97 337.84,-662.09 320,-653 281.31,-633.29 245.15,-597.93 223.31,-573.98"/>
<polygon fill="black" stroke="black" stroke-width="1.58" points="225.75,-571.45 216.47,-566.33 220.53,-576.12 225.75,-571.45"/>
<text text-anchor="middle" x="340.5" y="-631.3" font-family="Sans Not-Rotated 14" font-size="14.00"> &#160;&#160;&#160;&#160;&#160;&#160;&#160;&#160;</text>
</g>
<!-- Red zone doctor FD&#45;&gt;Yellow zone doctor -->
<g id="edge35" class="edge">
<title>Red zone doctor FD&#45;&gt;Yellow zone doctor</title>
<path fill="none" stroke="black" stroke-width="2.06" d="M589.95,-703.87C585.27,-692.98 577.76,-679.39 567,-671 555.95,-662.39 542.87,-655.89 529.44,-651"/>
<polygon fill="black" stroke="black" stroke-width="2.06" points="530.22,-647.57 519.63,-647.71 528,-654.2 530.22,-647.57"/>
<text text-anchor="middle" x="600.5" y="-674.8" font-family="Sans Not-Rotated 14" font-size="14.00"> &#160;&#160;&#160;&#160;&#160;&#160;&#160;&#160;</text>
</g>
<!-- Yellow zone doctor FD&#45;&gt;Program change operator -->
<g id="edge3" class="edge">
<title>Yellow zone doctor FD&#45;&gt;Program change operator</title>
<path fill="none" stroke="black" stroke-width="1.02" d="M718.54,-479.06C729.26,-484.12 740.4,-490.17 750,-497 766.64,-508.85 768.63,-514.55 782,-530 891.75,-656.89 932.14,-687.53 990,-845 1008.55,-895.48 1012.65,-913.32 1000,-965.6 999.31,-968.46 998.34,-971.35 997.2,-974.18"/>
<polygon fill="black" stroke="black" stroke-width="1.02" points="993.94,-972.89 992.88,-983.43 1000.28,-975.85 993.94,-972.89"/>
<text text-anchor="middle" x="953.5" y="-718.3" font-family="Sans Not-Rotated 14" font-size="14.00"> &#160;&#160;&#160;</text>
</g>
<!-- Yellow zone doctor FD&#45;&gt;Red zone operator -->
<g id="edge8" class="edge">
<title>Yellow zone doctor FD&#45;&gt;Red zone operator</title>
<path fill="none" stroke="black" stroke-width="1.69" d="M709.52,-479.03C717.05,-484 724.43,-490.01 730,-497 798.33,-582.69 833.54,-649.31 772,-740 745.74,-778.7 696.16,-795.77 652.7,-803.12"/>
<polygon fill="black" stroke="black" stroke-width="1.69" points="652.02,-799.68 642.67,-804.67 653.08,-806.6 652.02,-799.68"/>
<text text-anchor="middle" x="824.5" y="-631.3" font-family="Sans Not-Rotated 14" font-size="14.00"> &#160;&#160;&#160;&#160;&#160;&#160;&#160;&#160;</text>
</g>
<!-- Yellow zone doctor FD&#45;&gt;Red zone doctor FD -->
<g id="edge13" class="edge">
<title>Yellow zone doctor FD&#45;&gt;Red zone doctor FD</title>
<path fill="none" stroke="black" stroke-width="1.33" d="M701.4,-479.35C706.9,-484.34 711.95,-490.28 715,-497 717.74,-503.04 717.57,-578.28 714,-599 707.09,-639.03 713.86,-656.44 686,-686 681.29,-691 675.78,-695.3 669.85,-698.99"/>
<polygon fill="black" stroke="black" stroke-width="1.33" points="667.93,-696.05 660.9,-703.97 671.34,-702.16 667.93,-696.05"/>
<text text-anchor="middle" x="736.5" y="-587.8" font-family="Sans Not-Rotated 14" font-size="14.00"> &#160;&#160;&#160;&#160;&#160;&#160;&#160;&#160;</text>
</g>
<!-- Yellow zone doctor FD&#45;&gt;Red zone doctor -->
<g id="edge23" class="edge">
<title>Yellow zone doctor FD&#45;&gt;Red zone doctor</title>
<path fill="none" stroke="black" stroke-width="1.28" d="M716.2,-443C741.8,-432.75 775.53,-419.82 806,-410 824.54,-404.02 844.78,-398.27 863.72,-393.23"/>
<polygon fill="black" stroke="black" stroke-width="1.28" points="864.71,-396.59 873.49,-390.65 862.93,-389.82 864.71,-396.59"/>
<text text-anchor="middle" x="826.5" y="-413.8" font-family="Sans Not-Rotated 14" font-size="14.00"> &#160;&#160;&#160;&#160;&#160;&#160;&#160;&#160;</text>
</g>
<!-- Meas missing operator -->
<g id="node8" class="node">
<title>Meas missing operator</title>
<polygon fill="#a09dde" stroke="black" points="308.5,-392 137.5,-392 137.5,-356 308.5,-356 308.5,-392"/>
<text text-anchor="middle" x="223" y="-370.3" font-family="Sans Not-Rotated 14" font-size="14.00">Meas missing operator</text>
</g>
<!-- Yellow zone doctor FD&#45;&gt;Meas missing operator -->
<g id="edge28" class="edge">
<title>Yellow zone doctor FD&#45;&gt;Meas missing operator</title>
<path fill="none" stroke="black" stroke-width="1.16" d="M588.38,-443.71C511.2,-429.2 398.42,-407.99 318.61,-392.98"/>
<polygon fill="black" stroke="black" stroke-width="1.16" points="319.03,-389.5 308.56,-391.09 317.74,-396.38 319.03,-389.5"/>
<text text-anchor="middle" x="497.5" y="-413.8" font-family="Sans Not-Rotated 14" font-size="14.00"> &#160;&#160;&#160;&#160;&#160;&#160;&#160;&#160;</text>
</g>
<!-- Yellow zone doctor FD&#45;&gt;Notification operator -->
<g id="edge29" class="edge">
<title>Yellow zone doctor FD&#45;&gt;Notification operator</title>
<path fill="none" stroke="black" stroke-width="1.94" d="M588.46,-471.31C544.03,-477 489.24,-485.45 441,-497 420.5,-501.91 416.43,-506.78 396,-512 362.34,-520.6 324.88,-527.88 291.92,-533.54"/>
<polygon fill="black" stroke="black" stroke-width="1.94" points="291.12,-530.12 281.84,-535.24 292.28,-537.03 291.12,-530.12"/>
<text text-anchor="middle" x="461.5" y="-500.8" font-family="Sans Not-Rotated 14" font-size="14.00"> &#160;&#160;&#160;&#160;&#160;&#160;&#160;&#160;</text>
</g>
<!-- Yellow zone doctor FD&#45;&gt;Yellow zone doctor -->
<g id="edge36" class="edge">
<title>Yellow zone doctor FD&#45;&gt;Yellow zone doctor</title>
<path fill="none" stroke="black" stroke-width="2.16" d="M662.42,-479.33C654.89,-489.27 644.89,-501.77 635,-512 626.46,-520.84 623.02,-521.65 614,-530 597.4,-545.37 596.3,-552.69 578,-566 552.51,-584.55 521.23,-600.82 495.42,-612.78"/>
<polygon fill="black" stroke="black" stroke-width="2.16" points="493.82,-609.66 486.17,-617 496.73,-616.03 493.82,-609.66"/>
<text text-anchor="middle" x="650.5" y="-544.3" font-family="Sans Not-Rotated 14" font-size="14.00"> &#160;&#160;&#160;&#160;&#160;&#160;&#160;&#160;&#160;&#160;&#160;&#160;&#160;&#160;&#160;</text>
</g>
<!-- Monitoring completed doctor -->
<g id="node5" class="node">
<title>Monitoring completed doctor</title>
<polygon fill="#ffffff" stroke="black" points="266,-218 52,-218 52,-182 266,-182 266,-218"/>
<text text-anchor="middle" x="159" y="-196.3" font-family="Sans Not-Rotated 14" font-size="14.00">Monitoring completed doctor</text>
</g>
<!-- Monitoring completed doctor FD -->
<g id="node10" class="node">
<title>Monitoring completed doctor FD</title>
<polygon fill="#ffffff" stroke="black" points="278,-131 40,-131 40,-95 278,-95 278,-131"/>
<text text-anchor="middle" x="159" y="-109.3" font-family="Sans Not-Rotated 14" font-size="14.00">Monitoring completed doctor FD</text>
</g>
<!-- Monitoring completed doctor&#45;&gt;Monitoring completed doctor FD -->
<g id="edge34" class="edge">
<title>Monitoring completed doctor&#45;&gt;Monitoring completed doctor FD</title>
<path fill="none" stroke="black" stroke-width="1.02" d="M159,-181.8C159,-170.16 159,-154.55 159,-141.24"/>
<polygon fill="black" stroke="black" stroke-width="1.02" points="162.5,-141.18 159,-131.18 155.5,-141.18 162.5,-141.18"/>
<text text-anchor="middle" x="168.5" y="-152.8" font-family="Sans Not-Rotated 14" font-size="14.00"> &#160;&#160;&#160;</text>
</g>
<!-- Red zone doctor&#45;&gt;Red zone operator -->
<g id="edge5" class="edge">
<title>Red zone doctor&#45;&gt;Red zone operator</title>
<path fill="none" stroke="black" stroke-width="3.47" d="M1002.64,-380.06C1021.92,-384.96 1041.07,-393.9 1053,-410 1104.37,-479.34 1073.62,-548.42 1049,-599 995.35,-709.22 949.47,-729.13 835,-773 830.68,-774.66 728.77,-787.85 652.61,-797.55"/>
<polygon fill="black" stroke="black" stroke-width="3.47" points="652,-794.1 642.52,-798.84 652.88,-801.04 652,-794.1"/>
<text text-anchor="middle" x="1092.5" y="-587.8" font-family="Sans Not-Rotated 14" font-size="14.00"> &#160;&#160;&#160;&#160;&#160;&#160;&#160;&#160;&#160;&#160;&#160;&#160;&#160;&#160;&#160;</text>
</g>
<!-- Red zone doctor&#45;&gt;Red zone doctor FD -->
<g id="edge11" class="edge">
<title>Red zone doctor&#45;&gt;Red zone doctor FD</title>
<path fill="none" stroke="black" stroke-width="3.51" d="M940.78,-392.19C948.28,-445.44 962.9,-608.69 875,-686 847.14,-710.51 753.98,-718.25 682.9,-720.5"/>
<polygon fill="black" stroke="black" stroke-width="3.51" points="682.48,-717.01 672.58,-720.79 682.68,-724 682.48,-717.01"/>
<text text-anchor="middle" x="979.5" y="-544.3" font-family="Sans Not-Rotated 14" font-size="14.00"> &#160;&#160;&#160;&#160;&#160;&#160;&#160;&#160;&#160;&#160;&#160;&#160;&#160;&#160;&#160;</text>
</g>
<!-- Red zone doctor&#45;&gt;Red zone doctor -->
<g id="edge52" class="edge">
<title>Red zone doctor&#45;&gt;Red zone doctor</title>
<path fill="none" stroke="black" stroke-width="1.25" d="M1002.68,-381.29C1013.24,-380.24 1020.5,-377.81 1020.5,-374 1020.5,-371.56 1017.52,-369.68 1012.6,-368.38"/>
<polygon fill="black" stroke="black" stroke-width="1.25" points="1013.12,-364.91 1002.68,-366.71 1011.96,-371.82 1013.12,-364.91"/>
<text text-anchor="middle" x="1041" y="-370.3" font-family="Sans Not-Rotated 14" font-size="14.00"> &#160;&#160;&#160;&#160;&#160;&#160;&#160;&#160;</text>
</g>
<!-- Red zone doctor&#45;&gt;Yellow zone doctor -->
<g id="edge38" class="edge">
<title>Red zone doctor&#45;&gt;Yellow zone doctor</title>
<path fill="none" stroke="black" stroke-width="1.26" d="M873.43,-379.11C799.72,-385.62 676.72,-402.1 579,-443 523.41,-466.27 502.7,-476.48 475,-530 462.3,-554.52 454.3,-585.16 449.78,-606.81"/>
<polygon fill="black" stroke="black" stroke-width="1.26" points="446.34,-606.17 447.84,-616.66 453.21,-607.52 446.34,-606.17"/>
<text text-anchor="middle" x="515.5" y="-500.8" font-family="Sans Not-Rotated 14" font-size="14.00"> &#160;&#160;&#160;&#160;&#160;&#160;&#160;&#160;</text>
</g>
<!-- Yellow zone Therapy control operator&#45;&gt;Red zone operator -->
<g id="edge41" class="edge">
<title>Yellow zone Therapy control operator&#45;&gt;Red zone operator</title>
<path fill="none" stroke="black" stroke-width="1.16" d="M535.83,-887.06C539.53,-878.87 544.02,-868.94 548,-860 551.42,-852.33 555.11,-843.98 558.47,-836.34"/>
<polygon fill="black" stroke="black" stroke-width="1.16" points="561.69,-837.71 562.51,-827.14 555.28,-834.89 561.69,-837.71"/>
<text text-anchor="middle" x="575.5" y="-848.8" font-family="Sans Not-Rotated 14" font-size="14.00"> &#160;&#160;&#160;&#160;&#160;&#160;&#160;&#160;</text>
</g>
<!-- Yellow zone Therapy control operator&#45;&gt;Red zone doctor FD -->
<g id="edge43" class="edge">
<title>Yellow zone Therapy control operator&#45;&gt;Red zone doctor FD</title>
<path fill="none" stroke="black" stroke-width="1.09" d="M507.64,-887.07C483.6,-864.58 449.24,-824.15 469,-791 481.77,-769.57 503.88,-754.51 526.1,-744.12"/>
<polygon fill="black" stroke="black" stroke-width="1.09" points="527.52,-747.32 535.26,-740.09 524.7,-740.91 527.52,-747.32"/>
<text text-anchor="middle" x="478.5" y="-805.3" font-family="Sans Not-Rotated 14" font-size="14.00"> &#160;&#160;&#160;</text>
</g>
<!-- Yellow zone Therapy control operator&#45;&gt;Red zone doctor -->
<g id="edge44" class="edge">
<title>Yellow zone Therapy control operator&#45;&gt;Red zone doctor</title>
<path fill="none" stroke="black" stroke-width="1.05" d="M667.12,-889.74C704.27,-883.17 743.85,-873.69 779,-860 961.15,-789.06 1050.92,-776.41 1133,-599 1170.12,-518.77 1141.22,-463.7 1071,-410 1054.21,-397.16 1033.13,-389.02 1012.74,-383.86"/>
<polygon fill="black" stroke="black" stroke-width="1.05" points="1013.33,-380.4 1002.8,-381.55 1011.75,-387.22 1013.33,-380.4"/>
<text text-anchor="middle" x="1133.5" y="-631.3" font-family="Sans Not-Rotated 14" font-size="14.00"> &#160;&#160;&#160;</text>
</g>
<!-- Yellow zone Therapy control operator&#45;&gt;Notification operator -->
<g id="edge42" class="edge">
<title>Yellow zone Therapy control operator&#45;&gt;Notification operator</title>
<path fill="none" stroke="black" stroke-width="1.12" d="M388.91,-890.65C296.47,-877.58 192,-853.24 192,-810 192,-810 192,-810 192,-634 192,-614.62 194.6,-592.92 197.14,-576.3"/>
<polygon fill="black" stroke="black" stroke-width="1.12" points="200.64,-576.62 198.78,-566.19 193.73,-575.5 200.64,-576.62"/>
<text text-anchor="middle" x="212.5" y="-718.3" font-family="Sans Not-Rotated 14" font-size="14.00"> &#160;&#160;&#160;&#160;&#160;&#160;&#160;&#160;</text>
</g>
<!-- end -->
<g id="node14" class="node">
<title>end</title>
<ellipse fill="#ea4126" stroke="black" cx="159" cy="-22" rx="18" ry="18"/>
<ellipse fill="none" stroke="black" cx="159" cy="-22" rx="22" ry="22"/>
</g>
<!-- Yellow zone Therapy control operator&#45;&gt;end -->
<g id="edge45" class="edge">
<title>Yellow zone Therapy control operator&#45;&gt;end</title>
<path fill="none" stroke="black" stroke-dasharray="5,2" d="M388.93,-892.89C232.49,-878.13 0,-849.55 0,-810 0,-810 0,-810 0,-112 0,-54.48 80.22,-33.77 126.7,-26.6"/>
<polygon fill="black" stroke="black" points="127.48,-30.02 136.89,-25.16 126.5,-23.09 127.48,-30.02"/>
<text text-anchor="middle" x="9.5" y="-457.3" font-family="Sans Not-Rotated 14" font-size="14.00"> &#160;&#160;&#160;</text>
</g>
<!-- Meas missing operator&#45;&gt;Monitoring completed doctor -->
<g id="edge19" class="edge">
<title>Meas missing operator&#45;&gt;Monitoring completed doctor</title>
<path fill="none" stroke="black" d="M243.2,-355.93C247.99,-350.72 252.44,-344.6 255,-338 261.98,-320.03 256,-287.24 245,-269 233.96,-250.68 216.03,-235.33 199.39,-223.89"/>
<polygon fill="black" stroke="black" points="201.13,-220.84 190.86,-218.26 197.28,-226.69 201.13,-220.84"/>
<text text-anchor="middle" x="266.5" y="-283.3" font-family="Sans Not-Rotated 14" font-size="14.00"> &#160;&#160;&#160;</text>
</g>
<!-- Meas missing operator&#45;&gt;Notification operator -->
<g id="edge33" class="edge">
<title>Meas missing operator&#45;&gt;Notification operator</title>
<path fill="none" stroke="black" stroke-width="1.47" d="M224.27,-392.05C225.48,-412.74 226.52,-448.64 222,-479 219.93,-492.88 215.74,-507.89 211.72,-520.27"/>
<polygon fill="black" stroke="black" stroke-width="1.47" points="208.33,-519.37 208.44,-529.97 214.96,-521.62 208.33,-519.37"/>
<text text-anchor="middle" x="246.5" y="-457.3" font-family="Sans Not-Rotated 14" font-size="14.00"> &#160;&#160;&#160;&#160;&#160;&#160;&#160;&#160;</text>
</g>
<!-- Meas missing doctor -->
<g id="node11" class="node">
<title>Meas missing doctor</title>
<polygon fill="#c0bde9" stroke="black" points="236.5,-305 81.5,-305 81.5,-269 236.5,-269 236.5,-305"/>
<text text-anchor="middle" x="159" y="-283.3" font-family="Sans Not-Rotated 14" font-size="14.00">Meas missing doctor</text>
</g>
<!-- Meas missing operator&#45;&gt;Meas missing doctor -->
<g id="edge2" class="edge">
<title>Meas missing operator&#45;&gt;Meas missing doctor</title>
<path fill="none" stroke="black" stroke-width="2.59" d="M147.67,-355.76C139.98,-351.17 133.13,-345.35 128,-338 122.48,-330.08 125.26,-321.2 130.96,-313.14"/>
<polygon fill="black" stroke="black" stroke-width="2.59" points="133.69,-315.33 137.44,-305.42 128.33,-310.83 133.69,-315.33"/>
<text text-anchor="middle" x="164.5" y="-326.8" font-family="Sans Not-Rotated 14" font-size="14.00"> &#160;&#160;&#160;&#160;&#160;&#160;&#160;&#160;&#160;&#160;&#160;&#160;&#160;&#160;&#160;</text>
</g>
<!-- Meas missing operator&#45;&gt;Yellow zone doctor -->
<g id="edge46" class="edge">
<title>Meas missing operator&#45;&gt;Yellow zone doctor</title>
<path fill="none" stroke="black" stroke-width="1.11" d="M237.97,-392.24C258.32,-415.75 295.76,-459.27 327,-497 364.09,-541.8 369.85,-555.98 409,-599 412.27,-602.6 415.83,-606.29 419.39,-609.87"/>
<polygon fill="black" stroke="black" stroke-width="1.11" points="417.04,-612.46 426.62,-616.97 421.94,-607.47 417.04,-612.46"/>
<text text-anchor="middle" x="359.5" y="-500.8" font-family="Sans Not-Rotated 14" font-size="14.00"> &#160;&#160;&#160;&#160;&#160;&#160;&#160;&#160;</text>
</g>
<!-- Notification operator&#45;&gt;Red zone operator -->
<g id="edge9" class="edge">
<title>Notification operator&#45;&gt;Red zone operator</title>
<path fill="none" stroke="black" stroke-width="1.37" d="M211.78,-566.21C217.33,-575.9 224.46,-588.18 231,-599 288.23,-693.67 309.58,-724.47 409,-773 440.14,-788.2 452.97,-783.9 487.53,-790.2"/>
<polygon fill="black" stroke="black" stroke-width="1.37" points="486.85,-793.63 497.34,-792.16 488.22,-786.77 486.85,-793.63"/>
<text text-anchor="middle" x="309.5" y="-674.8" font-family="Sans Not-Rotated 14" font-size="14.00"> &#160;&#160;&#160;&#160;&#160;&#160;&#160;&#160;</text>
</g>
<!-- Notification operator&#45;&gt;Yellow zone doctor FD -->
<g id="edge17" class="edge">
<title>Notification operator&#45;&gt;Yellow zone doctor FD</title>
<path fill="none" stroke="black" stroke-width="1.31" d="M281.85,-543.24C367.93,-538.42 498.95,-528.62 546,-512 557.51,-507.93 558,-502.29 569,-497 580.23,-491.6 592.51,-486.7 604.6,-482.4"/>
<polygon fill="black" stroke="black" stroke-width="1.31" points="605.92,-485.64 614.23,-479.07 603.63,-479.03 605.92,-485.64"/>
<text text-anchor="middle" x="589.5" y="-500.8" font-family="Sans Not-Rotated 14" font-size="14.00"> &#160;&#160;&#160;&#160;&#160;&#160;&#160;&#160;</text>
</g>
<!-- Notification operator&#45;&gt;Monitoring completed doctor -->
<g id="edge20" class="edge">
<title>Notification operator&#45;&gt;Monitoring completed doctor</title>
<path fill="none" stroke="black" d="M122.23,-533.28C84.25,-521.7 47,-500.52 47,-462 47,-462 47,-462 47,-286 47,-256.63 71.74,-236.09 97.96,-222.57"/>
<polygon fill="black" stroke="black" points="99.78,-225.58 107.26,-218.08 96.74,-219.28 99.78,-225.58"/>
<text text-anchor="middle" x="56.5" y="-370.3" font-family="Sans Not-Rotated 14" font-size="14.00"> &#160;&#160;&#160;</text>
</g>
<!-- Notification operator&#45;&gt;Yellow zone Therapy control operator -->
<g id="edge26" class="edge">
<title>Notification operator&#45;&gt;Yellow zone Therapy control operator</title>
<path fill="none" stroke="black" stroke-width="1.06" d="M178.17,-566.01C159.61,-581.42 137,-605.95 137,-634 137,-810 137,-810 137,-810 137,-838.74 152.85,-846.1 178,-860 212.31,-878.97 299.84,-890.04 378.78,-896.37"/>
<polygon fill="black" stroke="black" stroke-width="1.06" points="378.61,-899.87 388.85,-897.16 379.15,-892.89 378.61,-899.87"/>
<text text-anchor="middle" x="146.5" y="-718.3" font-family="Sans Not-Rotated 14" font-size="14.00"> &#160;&#160;&#160;</text>
</g>
<!-- Notification operator&#45;&gt;Meas missing operator -->
<g id="edge27" class="edge">
<title>Notification operator&#45;&gt;Meas missing operator</title>
<path fill="none" stroke="black" stroke-width="2.77" d="M183.03,-529.99C162.74,-509.64 135.23,-474.36 149,-443 153.78,-432.13 174.4,-413.58 192.67,-398.61"/>
<polygon fill="black" stroke="black" stroke-width="2.77" points="195.25,-401.02 200.83,-392.02 190.85,-395.58 195.25,-401.02"/>
<text text-anchor="middle" x="185.5" y="-457.3" font-family="Sans Not-Rotated 14" font-size="14.00"> &#160;&#160;&#160;&#160;&#160;&#160;&#160;&#160;&#160;&#160;&#160;&#160;&#160;&#160;&#160;</text>
</g>
<!-- Notification operator&#45;&gt;Notification operator -->
<g id="edge53" class="edge">
<title>Notification operator&#45;&gt;Notification operator</title>
<path fill="none" stroke="black" stroke-width="2.06" d="M281.57,-554.99C292.33,-553.82 299.5,-551.49 299.5,-548 299.5,-545.77 296.56,-544.01 291.62,-542.72"/>
<polygon fill="black" stroke="black" stroke-width="2.06" points="292.02,-539.24 281.57,-541.01 290.84,-546.14 292.02,-539.24"/>
<text text-anchor="middle" x="320" y="-544.3" font-family="Sans Not-Rotated 14" font-size="14.00"> &#160;&#160;&#160;&#160;&#160;&#160;&#160;&#160;</text>
</g>
<!-- Notification operator&#45;&gt;Yellow zone doctor -->
<g id="edge37" class="edge">
<title>Notification operator&#45;&gt;Yellow zone doctor</title>
<path fill="none" stroke="black" stroke-width="1.68" d="M227.66,-566.12C235.84,-571.7 244.87,-578.01 253,-584 261.66,-590.38 262.24,-594.48 272,-599 280.55,-602.96 320.87,-611.21 360.42,-618.7"/>
<polygon fill="black" stroke="black" stroke-width="1.68" points="359.97,-622.17 370.45,-620.58 361.27,-615.29 359.97,-622.17"/>
<text text-anchor="middle" x="292.5" y="-587.8" font-family="Sans Not-Rotated 14" font-size="14.00"> &#160;&#160;&#160;&#160;&#160;&#160;&#160;&#160;</text>
</g>
<!-- Notification operator&#45;&gt;end -->
<g id="edge40" class="edge">
<title>Notification operator&#45;&gt;end</title>
<path fill="none" stroke="black" stroke-dasharray="5,2" d="M222.5,-529.75C260.27,-495.92 337,-416.71 337,-331.5 337,-331.5 337,-331.5 337,-112 337,-47.65 242.78,-29.83 191.44,-24.89"/>
<polygon fill="black" stroke="black" points="191.44,-21.38 181.18,-24.02 190.85,-28.35 191.44,-21.38"/>
<text text-anchor="middle" x="357.5" y="-283.3" font-family="Sans Not-Rotated 14" font-size="14.00"> &#160;&#160;&#160;&#160;&#160;&#160;&#160;&#160;</text>
</g>
<!-- Monitoring completed doctor FD&#45;&gt;end -->
<g id="edge47" class="edge">
<title>Monitoring completed doctor FD&#45;&gt;end</title>
<path fill="none" stroke="black" stroke-dasharray="5,2" d="M159,-94.84C159,-83.44 159,-68.13 159,-54.58"/>
<polygon fill="black" stroke="black" points="162.5,-54.19 159,-44.19 155.5,-54.19 162.5,-54.19"/>
<text text-anchor="middle" x="168.5" y="-65.8" font-family="Sans Not-Rotated 14" font-size="14.00"> &#160;&#160;&#160;</text>
</g>
<!-- Meas missing doctor&#45;&gt;Monitoring completed doctor -->
<g id="edge18" class="edge">
<title>Meas missing doctor&#45;&gt;Monitoring completed doctor</title>
<path fill="none" stroke="black" stroke-width="1.01" d="M159,-268.8C159,-257.16 159,-241.55 159,-228.24"/>
<polygon fill="black" stroke="black" stroke-width="1.01" points="162.5,-228.18 159,-218.18 155.5,-228.18 162.5,-228.18"/>
<text text-anchor="middle" x="168.5" y="-239.8" font-family="Sans Not-Rotated 14" font-size="14.00"> &#160;&#160;&#160;</text>
</g>
<!-- Meas missing doctor&#45;&gt;Meas missing operator -->
<g id="edge48" class="edge">
<title>Meas missing doctor&#45;&gt;Meas missing operator</title>
<path fill="none" stroke="black" stroke-width="1.36" d="M183.47,-305.18C189.74,-310.39 196.09,-316.48 201,-323 206.27,-330 210.6,-338.47 213.99,-346.42"/>
<polygon fill="black" stroke="black" stroke-width="1.36" points="210.74,-347.71 217.65,-355.74 217.25,-345.16 210.74,-347.71"/>
<text text-anchor="middle" x="230.5" y="-326.8" font-family="Sans Not-Rotated 14" font-size="14.00"> &#160;&#160;&#160;&#160;&#160;&#160;&#160;&#160;</text>
</g>
<!-- Meas missing doctor&#45;&gt;Notification operator -->
<g id="edge31" class="edge">
<title>Meas missing doctor&#45;&gt;Notification operator</title>
<path fill="none" stroke="black" stroke-width="2.14" d="M137.77,-305.13C132.12,-310.42 126.38,-316.57 122,-323 95.59,-361.78 74.91,-389.07 87,-425 101.15,-467.06 139.23,-502.29 167.72,-523.91"/>
<polygon fill="black" stroke="black" stroke-width="2.14" points="165.72,-526.78 175.84,-529.91 169.88,-521.15 165.72,-526.78"/>
<text text-anchor="middle" x="123.5" y="-413.8" font-family="Sans Not-Rotated 14" font-size="14.00"> &#160;&#160;&#160;&#160;&#160;&#160;&#160;&#160;&#160;&#160;&#160;&#160;&#160;&#160;&#160;</text>
</g>
<!-- Meas missing doctor&#45;&gt;Yellow zone doctor -->
<g id="edge49" class="edge">
<title>Meas missing doctor&#45;&gt;Yellow zone doctor</title>
<path fill="none" stroke="black" stroke-width="1.07" d="M209.41,-305.06C276.56,-328.91 389.63,-373.41 413,-410 437.47,-448.32 414.82,-466.95 421,-512 425.5,-544.79 433.21,-582.06 438.68,-606.69"/>
<polygon fill="black" stroke="black" stroke-width="1.07" points="435.33,-607.74 440.95,-616.73 442.16,-606.21 435.33,-607.74"/>
<text text-anchor="middle" x="434.5" y="-457.3" font-family="Sans Not-Rotated 14" font-size="14.00"> &#160;&#160;&#160;</text>
</g>
<!-- Yellow zone doctor&#45;&gt;Red zone operator -->
<g id="edge10" class="edge">
<title>Yellow zone doctor&#45;&gt;Red zone operator</title>
<path fill="none" stroke="black" stroke-width="1.2" d="M427.01,-653.22C407.5,-674.09 381.12,-710.16 397,-740 409.33,-763.18 422.18,-761.96 446,-773 459.11,-779.07 473.5,-784.31 487.69,-788.75"/>
<polygon fill="black" stroke="black" stroke-width="1.2" points="486.87,-792.16 497.46,-791.69 488.89,-785.46 486.87,-792.16"/>
<text text-anchor="middle" x="417.5" y="-718.3" font-family="Sans Not-Rotated 14" font-size="14.00"> &#160;&#160;&#160;&#160;&#160;&#160;&#160;&#160;</text>
</g>
<!-- Yellow zone doctor&#45;&gt;Red zone doctor FD -->
<g id="edge14" class="edge">
<title>Yellow zone doctor&#45;&gt;Red zone doctor FD</title>
<path fill="none" stroke="black" stroke-width="1.28" d="M471.28,-653.05C486.96,-663.01 507.38,-675.62 526,-686 534.11,-690.52 542.87,-695.11 551.36,-699.43"/>
<polygon fill="black" stroke="black" stroke-width="1.28" points="549.92,-702.62 560.43,-703.98 553.06,-696.37 549.92,-702.62"/>
<text text-anchor="middle" x="546.5" y="-674.8" font-family="Sans Not-Rotated 14" font-size="14.00"> &#160;&#160;&#160;&#160;&#160;&#160;&#160;&#160;</text>
</g>
<!-- Yellow zone doctor&#45;&gt;Yellow zone doctor FD -->
<g id="edge15" class="edge">
<title>Yellow zone doctor&#45;&gt;Yellow zone doctor FD</title>
<path fill="none" stroke="black" stroke-width="3.63" d="M452.64,-616.98C464.89,-590.43 489.18,-541.02 505,-530 543.84,-502.93 566.63,-530.99 610,-512 624.48,-505.66 638.63,-495.41 650.01,-485.84"/>
<polygon fill="black" stroke="black" stroke-width="3.63" points="652.55,-488.27 657.77,-479.05 647.94,-483 652.55,-488.27"/>
<text text-anchor="middle" x="541.5" y="-544.3" font-family="Sans Not-Rotated 14" font-size="14.00"> &#160;&#160;&#160;&#160;&#160;&#160;&#160;&#160;&#160;&#160;&#160;&#160;&#160;&#160;&#160;</text>
</g>
<!-- Yellow zone doctor&#45;&gt;Notification operator -->
<g id="edge32" class="edge">
<title>Yellow zone doctor&#45;&gt;Notification operator</title>
<path fill="none" stroke="black" stroke-width="1.37" d="M385.08,-616.97C370.06,-611.9 354.19,-605.85 340,-599 329.01,-593.69 328.06,-589.16 317,-584 305.09,-578.44 292.09,-573.5 279.25,-569.21"/>
<polygon fill="black" stroke="black" stroke-width="1.37" points="280.07,-565.8 269.48,-566.06 277.92,-572.46 280.07,-565.8"/>
<text text-anchor="middle" x="360.5" y="-587.8" font-family="Sans Not-Rotated 14" font-size="14.00"> &#160;&#160;&#160;&#160;&#160;&#160;&#160;&#160;</text>
</g>
<!-- start -->
<g id="node13" class="node">
<title>start</title>
<ellipse fill="#95d600" stroke="black" cx="879" cy="-905.3" rx="27.1" ry="27.1"/>
<text text-anchor="middle" x="879" y="-901.6" font-family="Sans Not-Rotated 14" font-size="14.00">start</text>
</g>
<!-- start&#45;&gt;Red zone operator -->
<g id="edge7" class="edge">
<title>start&#45;&gt;Red zone operator</title>
<path fill="none" stroke="black" stroke-dasharray="5,2" d="M852.92,-896.34C805.35,-881.82 703.18,-850.64 635.53,-830"/>
<polygon fill="black" stroke="black" points="636.4,-826.6 625.81,-827.03 634.36,-833.3 636.4,-826.6"/>
<text text-anchor="middle" x="754.5" y="-848.8" font-family="Sans Not-Rotated 14" font-size="14.00"> &#160;&#160;&#160;&#160;&#160;&#160;&#160;&#160;</text>
</g>
</g>
</svg>
