<?xml version="1.0" encoding="UTF-8" standalone="no"?>
<!DOCTYPE svg PUBLIC "-//W3C//DTD SVG 1.1//EN"
 "http://www.w3.org/Graphics/SVG/1.1/DTD/svg11.dtd">
<!-- Generated by graphviz version 3.0.0 (20220226.1711)
 -->
<!-- Pages: 1 -->
<svg width="676pt" height="1115pt"
 viewBox="0.00 0.00 675.50 1114.60" xmlns="http://www.w3.org/2000/svg" xmlns:xlink="http://www.w3.org/1999/xlink">
<g id="graph0" class="graph" transform="scale(1 1) rotate(0) translate(4 1110.6)">
<polygon fill="white" stroke="transparent" points="-4,4 -4,-1110.6 671.5,-1110.6 671.5,4 -4,4"/>
<!-- Program change operator -->
<g id="node1" class="node">
<title>Program change operator</title>
<polygon fill="#ffffff" stroke="black" points="193,-1106.6 0,-1106.6 0,-1070.6 193,-1070.6 193,-1106.6"/>
<text text-anchor="middle" x="96.5" y="-1084.9" font-family="Sans Not-Rotated 14" font-size="14.00">Program change operator</text>
</g>
<!-- Yellow zone Therapy control operator -->
<g id="node7" class="node">
<title>Yellow zone Therapy control operator</title>
<polygon fill="#e0ddf4" stroke="black" points="663.5,-1010.3 385.5,-1010.3 385.5,-974.3 663.5,-974.3 663.5,-1010.3"/>
<text text-anchor="middle" x="524.5" y="-988.6" font-family="Sans Not-Rotated 14" font-size="14.00">Yellow zone Therapy control operator</text>
</g>
<!-- Program change operator&#45;&gt;Yellow zone Therapy control operator -->
<g id="edge1" class="edge">
<title>Program change operator&#45;&gt;Yellow zone Therapy control operator</title>
<path fill="none" stroke="black" stroke-width="1.03" d="M174.01,-1070.52C248.13,-1054.19 359.74,-1029.6 437.01,-1012.57"/>
<polygon fill="black" stroke="black" stroke-width="1.03" points="438.2,-1015.9 447.21,-1010.33 436.69,-1009.06 438.2,-1015.9"/>
<text text-anchor="middle" x="333" y="-1041.4" font-family="Sans Not-Rotated 14" font-size="14.00"> &#160;&#160;&#160;</text>
</g>
<!-- Red zone operator -->
<g id="node2" class="node">
<title>Red zone operator</title>
<polygon fill="#1d2559" stroke="black" points="371,-914 226,-914 226,-878 371,-878 371,-914"/>
<text text-anchor="middle" x="298.5" y="-892.3" font-family="Sans Not-Rotated 14" font-size="14.00" fill="white">Red zone operator</text>
</g>
<!-- Red zone doctor FD -->
<g id="node3" class="node">
<title>Red zone doctor FD</title>
<polygon fill="#1d2559" stroke="black" points="496,-740 343,-740 343,-704 496,-704 496,-740"/>
<text text-anchor="middle" x="419.5" y="-718.3" font-family="Sans Not-Rotated 14" font-size="14.00" fill="white">Red zone doctor FD</text>
</g>
<!-- Red zone operator&#45;&gt;Red zone doctor FD -->
<g id="edge8" class="edge">
<title>Red zone operator&#45;&gt;Red zone doctor FD</title>
<path fill="none" stroke="black" stroke-width="3.34" d="M344.82,-877.94C367.83,-866.99 393.8,-850.38 408.5,-827 422.87,-804.15 424.26,-772.76 422.9,-750.46"/>
<polygon fill="black" stroke="black" stroke-width="3.34" points="426.37,-750 422.05,-740.32 419.39,-750.58 426.37,-750"/>
<text text-anchor="middle" x="458" y="-805.3" font-family="Sans Not-Rotated 14" font-size="14.00"> &#160;&#160;&#160;&#160;&#160;&#160;&#160;&#160;&#160;&#160;&#160;&#160;&#160;&#160;&#160;</text>
</g>
<!-- Red zone doctor -->
<g id="node6" class="node">
<title>Red zone doctor</title>
<polygon fill="#1f3b98" stroke="black" points="285,-827 156,-827 156,-791 285,-791 285,-827"/>
<text text-anchor="middle" x="220.5" y="-805.3" font-family="Sans Not-Rotated 14" font-size="14.00" fill="white">Red zone doctor</text>
</g>
<!-- Red zone operator&#45;&gt;Red zone doctor -->
<g id="edge11" class="edge">
<title>Red zone operator&#45;&gt;Red zone doctor</title>
<path fill="none" stroke="black" stroke-width="5" d="M225.73,-883.4C200.29,-877.74 176.14,-869.97 168.5,-860 161.15,-850.42 166.72,-840.96 176.51,-832.89"/>
<polygon fill="black" stroke="black" stroke-width="5" points="179.12,-836.41 184.68,-827.01 174.01,-829.3 179.12,-836.41"/>
<text text-anchor="middle" x="205" y="-848.8" font-family="Sans Not-Rotated 14" font-size="14.00"> &#160;&#160;&#160;&#160;&#160;&#160;&#160;&#160;&#160;&#160;&#160;&#160;&#160;&#160;&#160;</text>
</g>
<!-- Red zone doctor FD&#45;&gt;Red zone operator -->
<g id="edge5" class="edge">
<title>Red zone doctor FD&#45;&gt;Red zone operator</title>
<path fill="none" stroke="black" stroke-width="3.44" d="M387.11,-740.22C368.61,-751.92 346.88,-769.21 335.5,-791 321.27,-818.25 342.66,-831.76 330.5,-860 329.01,-863.46 327.04,-866.79 324.79,-869.94"/>
<polygon fill="black" stroke="black" stroke-width="3.44" points="321.99,-867.84 318.39,-877.8 327.42,-872.26 321.99,-867.84"/>
<text text-anchor="middle" x="372" y="-805.3" font-family="Sans Not-Rotated 14" font-size="14.00"> &#160;&#160;&#160;&#160;&#160;&#160;&#160;&#160;&#160;&#160;&#160;&#160;&#160;&#160;&#160;</text>
</g>
<!-- Red zone doctor FD&#45;&gt;Red zone doctor FD -->
<g id="edge27" class="edge">
<title>Red zone doctor FD&#45;&gt;Red zone doctor FD</title>
<path fill="none" stroke="black" stroke-width="2.55" d="M496.25,-729.03C506.89,-727.87 514,-725.53 514,-722 514,-719.74 511.08,-717.97 506.19,-716.68"/>
<polygon fill="black" stroke="black" stroke-width="2.55" points="506.7,-713.22 496.25,-714.97 505.52,-720.12 506.7,-713.22"/>
<text text-anchor="middle" x="550.5" y="-718.3" font-family="Sans Not-Rotated 14" font-size="14.00"> &#160;&#160;&#160;&#160;&#160;&#160;&#160;&#160;&#160;&#160;&#160;&#160;&#160;&#160;&#160;</text>
</g>
<!-- Red zone doctor FD&#45;&gt;Yellow zone Therapy control operator -->
<g id="edge12" class="edge">
<title>Red zone doctor FD&#45;&gt;Yellow zone Therapy control operator</title>
<path fill="none" stroke="black" stroke-width="1.21" d="M448.38,-740.07C465.88,-752.03 486.99,-769.66 498.5,-791 528.61,-846.84 529.15,-923.79 526.87,-964.12"/>
<polygon fill="black" stroke="black" stroke-width="1.21" points="523.37,-964.04 526.2,-974.25 530.36,-964.5 523.37,-964.04"/>
<text text-anchor="middle" x="542" y="-848.8" font-family="Sans Not-Rotated 14" font-size="14.00"> &#160;&#160;&#160;&#160;&#160;&#160;&#160;&#160;</text>
</g>
<!-- Notification operator -->
<g id="node9" class="node">
<title>Notification operator</title>
<polygon fill="#1946ba" stroke="black" points="470,-479 311,-479 311,-443 470,-443 470,-479"/>
<text text-anchor="middle" x="390.5" y="-457.3" font-family="Sans Not-Rotated 14" font-size="14.00" fill="white">Notification operator</text>
</g>
<!-- Red zone doctor FD&#45;&gt;Notification operator -->
<g id="edge15" class="edge">
<title>Red zone doctor FD&#45;&gt;Notification operator</title>
<path fill="none" stroke="black" stroke-width="1.57" d="M418.66,-703.76C416.64,-666.07 410.78,-573.55 398.5,-497 398.07,-494.32 397.56,-491.54 397,-488.78"/>
<polygon fill="black" stroke="black" stroke-width="1.57" points="400.42,-488.02 394.86,-479 393.58,-489.52 400.42,-488.02"/>
<text text-anchor="middle" x="432" y="-587.8" font-family="Sans Not-Rotated 14" font-size="14.00"> &#160;&#160;&#160;&#160;&#160;&#160;&#160;&#160;</text>
</g>
<!-- Yellow zone doctor -->
<g id="node12" class="node">
<title>Yellow zone doctor</title>
<polygon fill="#7d7fd2" stroke="black" points="348,-653 199,-653 199,-617 348,-617 348,-653"/>
<text text-anchor="middle" x="273.5" y="-631.3" font-family="Sans Not-Rotated 14" font-size="14.00">Yellow zone doctor</text>
</g>
<!-- Red zone doctor FD&#45;&gt;Yellow zone doctor -->
<g id="edge18" class="edge">
<title>Red zone doctor FD&#45;&gt;Yellow zone doctor</title>
<path fill="none" stroke="black" stroke-width="2.05" d="M389.95,-703.8C367.39,-690.66 336.13,-672.46 311.67,-658.22"/>
<polygon fill="black" stroke="black" stroke-width="2.05" points="313.4,-655.18 303,-653.18 309.88,-661.23 313.4,-655.18"/>
<text text-anchor="middle" x="376" y="-674.8" font-family="Sans Not-Rotated 14" font-size="14.00"> &#160;&#160;&#160;&#160;&#160;&#160;&#160;&#160;</text>
</g>
<!-- Yellow zone doctor FD -->
<g id="node4" class="node">
<title>Yellow zone doctor FD</title>
<polygon fill="#5661c6" stroke="black" points="391,-566 218,-566 218,-530 391,-530 391,-566"/>
<text text-anchor="middle" x="304.5" y="-544.3" font-family="Sans Not-Rotated 14" font-size="14.00" fill="white">Yellow zone doctor FD</text>
</g>
<!-- Yellow zone doctor FD&#45;&gt;Program change operator -->
<g id="edge3" class="edge">
<title>Yellow zone doctor FD&#45;&gt;Program change operator</title>
<path fill="none" stroke="black" stroke-width="1.02" d="M217.9,-565.33C154.86,-579.78 80.5,-603.32 80.5,-634 80.5,-993.3 80.5,-993.3 80.5,-993.3 80.5,-1016.17 85.13,-1041.73 89.41,-1060.46"/>
<polygon fill="black" stroke="black" stroke-width="1.02" points="86.05,-1061.46 91.79,-1070.36 92.86,-1059.82 86.05,-1061.46"/>
<text text-anchor="middle" x="90" y="-805.3" font-family="Sans Not-Rotated 14" font-size="14.00"> &#160;&#160;&#160;</text>
</g>
<!-- Yellow zone doctor FD&#45;&gt;Red zone operator -->
<g id="edge21" class="edge">
<title>Yellow zone doctor FD&#45;&gt;Red zone operator</title>
<path fill="none" stroke="black" stroke-width="1.69" d="M243.09,-566.07C191.97,-582.16 127.5,-607.67 127.5,-634 127.5,-810 127.5,-810 127.5,-810 127.5,-853.46 172.34,-874.7 216.09,-885.08"/>
<polygon fill="black" stroke="black" stroke-width="1.69" points="215.46,-888.52 225.98,-887.25 216.97,-881.69 215.46,-888.52"/>
<text text-anchor="middle" x="148" y="-718.3" font-family="Sans Not-Rotated 14" font-size="14.00"> &#160;&#160;&#160;&#160;&#160;&#160;&#160;&#160;</text>
</g>
<!-- Yellow zone doctor FD&#45;&gt;Notification operator -->
<g id="edge14" class="edge">
<title>Yellow zone doctor FD&#45;&gt;Notification operator</title>
<path fill="none" stroke="black" stroke-width="1.94" d="M321.9,-529.8C334.49,-517.36 351.68,-500.36 365.71,-486.5"/>
<polygon fill="black" stroke="black" stroke-width="1.94" points="368.47,-488.69 373.12,-479.18 363.55,-483.72 368.47,-488.69"/>
<text text-anchor="middle" x="374" y="-500.8" font-family="Sans Not-Rotated 14" font-size="14.00"> &#160;&#160;&#160;&#160;&#160;&#160;&#160;&#160;</text>
</g>
<!-- Yellow zone doctor FD&#45;&gt;Yellow zone doctor -->
<g id="edge19" class="edge">
<title>Yellow zone doctor FD&#45;&gt;Yellow zone doctor</title>
<path fill="none" stroke="black" stroke-width="2.16" d="M304.53,-566.17C304.05,-576.07 302.55,-588.57 298.5,-599 297.29,-602.13 295.73,-605.25 293.98,-608.25"/>
<polygon fill="black" stroke="black" stroke-width="2.16" points="290.9,-606.56 288.34,-616.84 296.75,-610.4 290.9,-606.56"/>
<text text-anchor="middle" x="339" y="-587.8" font-family="Sans Not-Rotated 14" font-size="14.00"> &#160;&#160;&#160;&#160;&#160;&#160;&#160;&#160;&#160;&#160;&#160;&#160;&#160;&#160;&#160;</text>
</g>
<!-- Monitoring completed doctor -->
<g id="node5" class="node">
<title>Monitoring completed doctor</title>
<polygon fill="#ffffff" stroke="black" points="451.5,-218 237.5,-218 237.5,-182 451.5,-182 451.5,-218"/>
<text text-anchor="middle" x="344.5" y="-196.3" font-family="Sans Not-Rotated 14" font-size="14.00">Monitoring completed doctor</text>
</g>
<!-- Monitoring completed doctor FD -->
<g id="node10" class="node">
<title>Monitoring completed doctor FD</title>
<polygon fill="#ffffff" stroke="black" points="463.5,-131 225.5,-131 225.5,-95 463.5,-95 463.5,-131"/>
<text text-anchor="middle" x="344.5" y="-109.3" font-family="Sans Not-Rotated 14" font-size="14.00">Monitoring completed doctor FD</text>
</g>
<!-- Monitoring completed doctor&#45;&gt;Monitoring completed doctor FD -->
<g id="edge17" class="edge">
<title>Monitoring completed doctor&#45;&gt;Monitoring completed doctor FD</title>
<path fill="none" stroke="black" stroke-width="1.01" d="M344.5,-181.8C344.5,-170.16 344.5,-154.55 344.5,-141.24"/>
<polygon fill="black" stroke="black" stroke-width="1.01" points="348,-141.18 344.5,-131.18 341,-141.18 348,-141.18"/>
<text text-anchor="middle" x="354" y="-152.8" font-family="Sans Not-Rotated 14" font-size="14.00"> &#160;&#160;&#160;</text>
</g>
<!-- Red zone doctor&#45;&gt;Red zone operator -->
<g id="edge4" class="edge">
<title>Red zone doctor&#45;&gt;Red zone operator</title>
<path fill="none" stroke="black" stroke-width="3.47" d="M231.93,-827.42C238.82,-837.39 248.07,-849.89 257.5,-860 261,-863.75 264.88,-867.5 268.82,-871.08"/>
<polygon fill="black" stroke="black" stroke-width="3.47" points="266.56,-873.75 276.39,-877.71 271.17,-868.48 266.56,-873.75"/>
<text text-anchor="middle" x="294" y="-848.8" font-family="Sans Not-Rotated 14" font-size="14.00"> &#160;&#160;&#160;&#160;&#160;&#160;&#160;&#160;&#160;&#160;&#160;&#160;&#160;&#160;&#160;</text>
</g>
<!-- Red zone doctor&#45;&gt;Red zone doctor FD -->
<g id="edge7" class="edge">
<title>Red zone doctor&#45;&gt;Red zone doctor FD</title>
<path fill="none" stroke="black" stroke-width="3.5" d="M220.89,-790.8C222.08,-779.88 225.47,-766.29 234.5,-758 249.19,-744.53 291.86,-735.95 332.52,-730.66"/>
<polygon fill="black" stroke="black" stroke-width="3.5" points="333.03,-734.12 342.52,-729.41 332.17,-727.17 333.03,-734.12"/>
<text text-anchor="middle" x="271" y="-761.8" font-family="Sans Not-Rotated 14" font-size="14.00"> &#160;&#160;&#160;&#160;&#160;&#160;&#160;&#160;&#160;&#160;&#160;&#160;&#160;&#160;&#160;</text>
</g>
<!-- Yellow zone Therapy control operator&#45;&gt;Red zone operator -->
<g id="edge22" class="edge">
<title>Yellow zone Therapy control operator&#45;&gt;Red zone operator</title>
<path fill="none" stroke="black" stroke-width="1.16" d="M483.57,-974.22C445.77,-958.45 389.5,-934.97 348.94,-918.05"/>
<polygon fill="black" stroke="black" stroke-width="1.16" points="350.08,-914.73 339.5,-914.11 347.38,-921.19 350.08,-914.73"/>
<text text-anchor="middle" x="439" y="-935.8" font-family="Sans Not-Rotated 14" font-size="14.00"> &#160;&#160;&#160;&#160;&#160;&#160;&#160;&#160;</text>
</g>
<!-- Yellow zone Therapy control operator&#45;&gt;Red zone doctor FD -->
<g id="edge24" class="edge">
<title>Yellow zone Therapy control operator&#45;&gt;Red zone doctor FD</title>
<path fill="none" stroke="black" stroke-width="1.08" d="M536.54,-973.93C554.16,-946.28 583.13,-890.69 566.5,-845 549.24,-797.57 533.46,-788.84 493.5,-758 487.17,-753.12 480.05,-748.69 472.79,-744.75"/>
<polygon fill="black" stroke="black" stroke-width="1.08" points="474.07,-741.48 463.57,-740.03 470.88,-747.71 474.07,-741.48"/>
<text text-anchor="middle" x="580" y="-848.8" font-family="Sans Not-Rotated 14" font-size="14.00"> &#160;&#160;&#160;</text>
</g>
<!-- Yellow zone Therapy control operator&#45;&gt;Notification operator -->
<g id="edge23" class="edge">
<title>Yellow zone Therapy control operator&#45;&gt;Notification operator</title>
<path fill="none" stroke="black" stroke-width="1.11" d="M563.64,-974.17C592.41,-958.63 626.5,-932.69 626.5,-897 626.5,-897 626.5,-897 626.5,-547 626.5,-514.64 546.96,-491.2 480.23,-477.24"/>
<polygon fill="black" stroke="black" stroke-width="1.11" points="480.57,-473.73 470.07,-475.16 479.17,-480.59 480.57,-473.73"/>
<text text-anchor="middle" x="647" y="-718.3" font-family="Sans Not-Rotated 14" font-size="14.00"> &#160;&#160;&#160;&#160;&#160;&#160;&#160;&#160;</text>
</g>
<!-- Meas missing operator -->
<g id="node8" class="node">
<title>Meas missing operator</title>
<polygon fill="#a09dde" stroke="black" points="354,-392 183,-392 183,-356 354,-356 354,-392"/>
<text text-anchor="middle" x="268.5" y="-370.3" font-family="Sans Not-Rotated 14" font-size="14.00">Meas missing operator</text>
</g>
<!-- Meas missing doctor -->
<g id="node11" class="node">
<title>Meas missing doctor</title>
<polygon fill="#c0bde9" stroke="black" points="422,-305 267,-305 267,-269 422,-269 422,-305"/>
<text text-anchor="middle" x="344.5" y="-283.3" font-family="Sans Not-Rotated 14" font-size="14.00">Meas missing doctor</text>
</g>
<!-- Meas missing operator&#45;&gt;Meas missing doctor -->
<g id="edge2" class="edge">
<title>Meas missing operator&#45;&gt;Meas missing doctor</title>
<path fill="none" stroke="black" stroke-width="2.59" d="M278.86,-356C285.36,-345.93 294.24,-333.2 303.5,-323 306.95,-319.2 310.81,-315.42 314.73,-311.83"/>
<polygon fill="black" stroke="black" stroke-width="2.59" points="317.08,-314.43 322.28,-305.2 312.46,-309.17 317.08,-314.43"/>
<text text-anchor="middle" x="340" y="-326.8" font-family="Sans Not-Rotated 14" font-size="14.00"> &#160;&#160;&#160;&#160;&#160;&#160;&#160;&#160;&#160;&#160;&#160;&#160;&#160;&#160;&#160;</text>
</g>
<!-- Notification operator&#45;&gt;Meas missing operator -->
<g id="edge13" class="edge">
<title>Notification operator&#45;&gt;Meas missing operator</title>
<path fill="none" stroke="black" stroke-width="2.77" d="M334.04,-442.85C323.27,-438.08 312.55,-432.19 303.5,-425 295.25,-418.45 288.13,-409.44 282.5,-400.87"/>
<polygon fill="black" stroke="black" stroke-width="2.77" points="285.41,-398.92 277.2,-392.23 279.44,-402.58 285.41,-398.92"/>
<text text-anchor="middle" x="340" y="-413.8" font-family="Sans Not-Rotated 14" font-size="14.00"> &#160;&#160;&#160;&#160;&#160;&#160;&#160;&#160;&#160;&#160;&#160;&#160;&#160;&#160;&#160;</text>
</g>
<!-- Notification operator&#45;&gt;Yellow zone doctor -->
<g id="edge25" class="edge">
<title>Notification operator&#45;&gt;Yellow zone doctor</title>
<path fill="none" stroke="black" stroke-width="1.68" d="M310.93,-475.97C254.19,-487.73 184.96,-506.42 167.5,-530 144.06,-561.65 186.34,-592.56 224.25,-612.34"/>
<polygon fill="black" stroke="black" stroke-width="1.68" points="222.74,-615.5 233.24,-616.88 225.89,-609.25 222.74,-615.5"/>
<text text-anchor="middle" x="188" y="-544.3" font-family="Sans Not-Rotated 14" font-size="14.00"> &#160;&#160;&#160;&#160;&#160;&#160;&#160;&#160;</text>
</g>
<!-- end -->
<g id="node14" class="node">
<title>end</title>
<ellipse fill="#ea4126" stroke="black" cx="418.5" cy="-22" rx="18" ry="18"/>
<ellipse fill="none" stroke="black" cx="418.5" cy="-22" rx="22" ry="22"/>
</g>
<!-- Notification operator&#45;&gt;end -->
<g id="edge20" class="edge">
<title>Notification operator&#45;&gt;end</title>
<path fill="none" stroke="black" stroke-dasharray="5,2" d="M434.51,-442.93C461.72,-429.18 491.5,-406.86 491.5,-375 491.5,-375 491.5,-375 491.5,-112 491.5,-81.79 466.04,-56.22 445.2,-40.35"/>
<polygon fill="black" stroke="black" points="447.07,-37.39 436.92,-34.36 442.97,-43.06 447.07,-37.39"/>
<text text-anchor="middle" x="512" y="-239.8" font-family="Sans Not-Rotated 14" font-size="14.00"> &#160;&#160;&#160;&#160;&#160;&#160;&#160;&#160;</text>
</g>
<!-- Monitoring completed doctor FD&#45;&gt;end -->
<g id="edge26" class="edge">
<title>Monitoring completed doctor FD&#45;&gt;end</title>
<path fill="none" stroke="black" stroke-dasharray="5,2" d="M358.77,-94.84C369.97,-81.37 385.7,-62.45 398.21,-47.41"/>
<polygon fill="black" stroke="black" points="401.07,-49.43 404.78,-39.51 395.69,-44.96 401.07,-49.43"/>
<text text-anchor="middle" x="396" y="-65.8" font-family="Sans Not-Rotated 14" font-size="14.00"> &#160;&#160;&#160;</text>
</g>
<!-- Meas missing doctor&#45;&gt;Monitoring completed doctor -->
<g id="edge10" class="edge">
<title>Meas missing doctor&#45;&gt;Monitoring completed doctor</title>
<path fill="none" stroke="black" d="M344.5,-268.8C344.5,-257.16 344.5,-241.55 344.5,-228.24"/>
<polygon fill="black" stroke="black" points="348,-228.18 344.5,-218.18 341,-228.18 348,-228.18"/>
<text text-anchor="middle" x="354" y="-239.8" font-family="Sans Not-Rotated 14" font-size="14.00"> &#160;&#160;&#160;</text>
</g>
<!-- Meas missing doctor&#45;&gt;Notification operator -->
<g id="edge16" class="edge">
<title>Meas missing doctor&#45;&gt;Notification operator</title>
<path fill="none" stroke="black" stroke-width="2.14" d="M364.26,-305.26C369.04,-310.47 373.6,-316.54 376.5,-323 392.36,-358.4 393.74,-403.97 392.62,-432.59"/>
<polygon fill="black" stroke="black" stroke-width="2.14" points="389.12,-432.5 392.1,-442.67 396.11,-432.87 389.12,-432.5"/>
<text text-anchor="middle" x="429" y="-370.3" font-family="Sans Not-Rotated 14" font-size="14.00"> &#160;&#160;&#160;&#160;&#160;&#160;&#160;&#160;&#160;&#160;&#160;&#160;&#160;&#160;&#160;</text>
</g>
<!-- Yellow zone doctor&#45;&gt;Yellow zone doctor FD -->
<g id="edge9" class="edge">
<title>Yellow zone doctor&#45;&gt;Yellow zone doctor FD</title>
<path fill="none" stroke="black" stroke-width="3.63" d="M240.58,-616.91C227.68,-607.85 217.62,-596.1 225.5,-584 228.44,-579.48 232.12,-575.54 236.26,-572.1"/>
<polygon fill="black" stroke="black" stroke-width="3.63" points="238.59,-574.74 244.73,-566.1 234.55,-569.03 238.59,-574.74"/>
<text text-anchor="middle" x="262" y="-587.8" font-family="Sans Not-Rotated 14" font-size="14.00"> &#160;&#160;&#160;&#160;&#160;&#160;&#160;&#160;&#160;&#160;&#160;&#160;&#160;&#160;&#160;</text>
</g>
<!-- start -->
<g id="node13" class="node">
<title>start</title>
<ellipse fill="#95d600" stroke="black" cx="298.5" cy="-992.3" rx="27.1" ry="27.1"/>
<text text-anchor="middle" x="298.5" y="-988.6" font-family="Sans Not-Rotated 14" font-size="14.00">start</text>
</g>
<!-- start&#45;&gt;Red zone operator -->
<g id="edge6" class="edge">
<title>start&#45;&gt;Red zone operator</title>
<path fill="none" stroke="black" stroke-dasharray="5,2" d="M298.5,-964.78C298.5,-952.1 298.5,-936.93 298.5,-924.17"/>
<polygon fill="black" stroke="black" points="302,-924.12 298.5,-914.12 295,-924.12 302,-924.12"/>
<text text-anchor="middle" x="319" y="-935.8" font-family="Sans Not-Rotated 14" font-size="14.00"> &#160;&#160;&#160;&#160;&#160;&#160;&#160;&#160;</text>
</g>
</g>
</svg>
