<?xml version="1.0" encoding="UTF-8" standalone="no"?>
<!DOCTYPE svg PUBLIC "-//W3C//DTD SVG 1.1//EN"
 "http://www.w3.org/Graphics/SVG/1.1/DTD/svg11.dtd">
<!-- Generated by graphviz version 3.0.0 (20220226.1711)
 -->
<!-- Pages: 1 -->
<svg width="510pt" height="1115pt"
 viewBox="0.00 0.00 510.00 1114.60" xmlns="http://www.w3.org/2000/svg" xmlns:xlink="http://www.w3.org/1999/xlink">
<g id="graph0" class="graph" transform="scale(1 1) rotate(0) translate(4 1110.6)">
<polygon fill="white" stroke="transparent" points="-4,4 -4,-1110.6 506,-1110.6 506,4 -4,4"/>
<!-- Program change operator -->
<g id="node1" class="node">
<title>Program change operator</title>
<polygon fill="#ffffff" stroke="black" points="496.5,-1106.6 303.5,-1106.6 303.5,-1070.6 496.5,-1070.6 496.5,-1106.6"/>
<text text-anchor="middle" x="400" y="-1084.9" font-family="Sans Not-Rotated 14" font-size="14.00">Program change operator</text>
</g>
<!-- Yellow zone Therapy control operator -->
<g id="node7" class="node">
<title>Yellow zone Therapy control operator</title>
<polygon fill="#e0ddf4" stroke="black" points="455,-1010.3 177,-1010.3 177,-974.3 455,-974.3 455,-1010.3"/>
<text text-anchor="middle" x="316" y="-988.6" font-family="Sans Not-Rotated 14" font-size="14.00">Yellow zone Therapy control operator</text>
</g>
<!-- Program change operator&#45;&gt;Yellow zone Therapy control operator -->
<g id="edge1" class="edge">
<title>Program change operator&#45;&gt;Yellow zone Therapy control operator</title>
<path fill="none" stroke="black" stroke-width="1.03" d="M384.59,-1070.3C371.57,-1055.68 352.75,-1034.55 338.11,-1018.12"/>
<polygon fill="black" stroke="black" stroke-width="1.03" points="340.57,-1015.62 331.31,-1010.48 335.35,-1020.28 340.57,-1015.62"/>
<text text-anchor="middle" x="377.5" y="-1041.4" font-family="Sans Not-Rotated 14" font-size="14.00"> &#160;&#160;&#160;</text>
</g>
<!-- Red zone operator -->
<g id="node2" class="node">
<title>Red zone operator</title>
<polygon fill="#1d2559" stroke="black" points="202.5,-914 57.5,-914 57.5,-878 202.5,-878 202.5,-914"/>
<text text-anchor="middle" x="130" y="-892.3" font-family="Sans Not-Rotated 14" font-size="14.00" fill="white">Red zone operator</text>
</g>
<!-- Red zone doctor FD -->
<g id="node3" class="node">
<title>Red zone doctor FD</title>
<polygon fill="#1d2559" stroke="black" points="328.5,-740 175.5,-740 175.5,-704 328.5,-704 328.5,-740"/>
<text text-anchor="middle" x="252" y="-718.3" font-family="Sans Not-Rotated 14" font-size="14.00" fill="white">Red zone doctor FD</text>
</g>
<!-- Red zone operator&#45;&gt;Red zone doctor FD -->
<g id="edge7" class="edge">
<title>Red zone operator&#45;&gt;Red zone doctor FD</title>
<path fill="none" stroke="black" stroke-width="3.34" d="M179.24,-877.94C187.46,-873.23 195.19,-867.32 201,-860 220.56,-835.33 206.16,-820.55 217,-791 222.28,-776.6 229.93,-761.34 236.73,-748.94"/>
<polygon fill="black" stroke="black" stroke-width="3.34" points="239.86,-750.51 241.71,-740.07 233.76,-747.08 239.86,-750.51"/>
<text text-anchor="middle" x="253.5" y="-805.3" font-family="Sans Not-Rotated 14" font-size="14.00"> &#160;&#160;&#160;&#160;&#160;&#160;&#160;&#160;&#160;&#160;&#160;&#160;&#160;&#160;&#160;</text>
</g>
<!-- Red zone doctor -->
<g id="node6" class="node">
<title>Red zone doctor</title>
<polygon fill="#1f3b98" stroke="black" points="180.5,-827 51.5,-827 51.5,-791 180.5,-791 180.5,-827"/>
<text text-anchor="middle" x="116" y="-805.3" font-family="Sans Not-Rotated 14" font-size="14.00" fill="white">Red zone doctor</text>
</g>
<!-- Red zone operator&#45;&gt;Red zone doctor -->
<g id="edge10" class="edge">
<title>Red zone operator&#45;&gt;Red zone doctor</title>
<path fill="none" stroke="black" stroke-width="5" d="M127.17,-877.8C125.25,-866.16 122.68,-850.55 120.49,-837.24"/>
<polygon fill="black" stroke="black" stroke-width="5" points="124.77,-836.33 118.83,-827.18 116.14,-837.75 124.77,-836.33"/>
<text text-anchor="middle" x="160.5" y="-848.8" font-family="Sans Not-Rotated 14" font-size="14.00"> &#160;&#160;&#160;&#160;&#160;&#160;&#160;&#160;&#160;&#160;&#160;&#160;&#160;&#160;&#160;</text>
</g>
<!-- Red zone doctor FD&#45;&gt;Red zone operator -->
<g id="edge5" class="edge">
<title>Red zone doctor FD&#45;&gt;Red zone operator</title>
<path fill="none" stroke="black" stroke-width="3.44" d="M268.52,-740.36C286.71,-761.68 311.24,-798.51 294,-827 276.5,-855.92 243.9,-872.54 212.35,-882.09"/>
<polygon fill="black" stroke="black" stroke-width="3.44" points="211.29,-878.75 202.61,-884.83 213.19,-885.49 211.29,-878.75"/>
<text text-anchor="middle" x="336.5" y="-805.3" font-family="Sans Not-Rotated 14" font-size="14.00"> &#160;&#160;&#160;&#160;&#160;&#160;&#160;&#160;&#160;&#160;&#160;&#160;&#160;&#160;&#160;</text>
</g>
<!-- Red zone doctor FD&#45;&gt;Red zone doctor FD -->
<g id="edge24" class="edge">
<title>Red zone doctor FD&#45;&gt;Red zone doctor FD</title>
<path fill="none" stroke="black" stroke-width="2.55" d="M328.75,-729.03C339.39,-727.87 346.5,-725.53 346.5,-722 346.5,-719.74 343.58,-717.97 338.69,-716.68"/>
<polygon fill="black" stroke="black" stroke-width="2.55" points="339.2,-713.22 328.75,-714.97 338.02,-720.12 339.2,-713.22"/>
<text text-anchor="middle" x="383" y="-718.3" font-family="Sans Not-Rotated 14" font-size="14.00"> &#160;&#160;&#160;&#160;&#160;&#160;&#160;&#160;&#160;&#160;&#160;&#160;&#160;&#160;&#160;</text>
</g>
<!-- Red zone doctor FD&#45;&gt;Yellow zone Therapy control operator -->
<g id="edge11" class="edge">
<title>Red zone doctor FD&#45;&gt;Yellow zone Therapy control operator</title>
<path fill="none" stroke="black" stroke-width="1.21" d="M311.1,-740.07C336.02,-750.52 362.55,-766.68 377,-791 411.02,-848.23 365.14,-926.09 336.27,-965.77"/>
<polygon fill="black" stroke="black" stroke-width="1.21" points="333.24,-963.99 330.06,-974.09 338.85,-968.18 333.24,-963.99"/>
<text text-anchor="middle" x="408.5" y="-848.8" font-family="Sans Not-Rotated 14" font-size="14.00"> &#160;&#160;&#160;&#160;&#160;&#160;&#160;&#160;</text>
</g>
<!-- Notification operator -->
<g id="node9" class="node">
<title>Notification operator</title>
<polygon fill="#1946ba" stroke="black" points="295.5,-479 136.5,-479 136.5,-443 295.5,-443 295.5,-479"/>
<text text-anchor="middle" x="216" y="-457.3" font-family="Sans Not-Rotated 14" font-size="14.00" fill="white">Notification operator</text>
</g>
<!-- Red zone doctor FD&#45;&gt;Notification operator -->
<g id="edge14" class="edge">
<title>Red zone doctor FD&#45;&gt;Notification operator</title>
<path fill="none" stroke="black" stroke-width="1.57" d="M241.09,-703.9C233.27,-690.6 223.38,-671.38 219,-653 205.44,-596.04 209.16,-526.79 212.77,-489.3"/>
<polygon fill="black" stroke="black" stroke-width="1.57" points="216.27,-489.48 213.82,-479.17 209.31,-488.76 216.27,-489.48"/>
<text text-anchor="middle" x="231.5" y="-587.8" font-family="Sans Not-Rotated 14" font-size="14.00"> &#160;&#160;&#160;&#160;&#160;&#160;&#160;&#160;</text>
</g>
<!-- Yellow zone doctor -->
<g id="node12" class="node">
<title>Yellow zone doctor</title>
<polygon fill="#7d7fd2" stroke="black" points="377.5,-653 228.5,-653 228.5,-617 377.5,-617 377.5,-653"/>
<text text-anchor="middle" x="303" y="-631.3" font-family="Sans Not-Rotated 14" font-size="14.00">Yellow zone doctor</text>
</g>
<!-- Red zone doctor FD&#45;&gt;Yellow zone doctor -->
<g id="edge16" class="edge">
<title>Red zone doctor FD&#45;&gt;Yellow zone doctor</title>
<path fill="none" stroke="black" stroke-width="2.05" d="M262.32,-703.8C269.51,-691.82 279.23,-675.62 287.37,-662.06"/>
<polygon fill="black" stroke="black" stroke-width="2.05" points="290.55,-663.55 292.69,-653.18 284.55,-659.95 290.55,-663.55"/>
<text text-anchor="middle" x="301.5" y="-674.8" font-family="Sans Not-Rotated 14" font-size="14.00"> &#160;&#160;&#160;&#160;&#160;&#160;&#160;&#160;</text>
</g>
<!-- Yellow zone doctor FD -->
<g id="node4" class="node">
<title>Yellow zone doctor FD</title>
<polygon fill="#5661c6" stroke="black" points="401.5,-566 228.5,-566 228.5,-530 401.5,-530 401.5,-566"/>
<text text-anchor="middle" x="315" y="-544.3" font-family="Sans Not-Rotated 14" font-size="14.00" fill="white">Yellow zone doctor FD</text>
</g>
<!-- Yellow zone doctor FD&#45;&gt;Program change operator -->
<g id="edge3" class="edge">
<title>Yellow zone doctor FD&#45;&gt;Program change operator</title>
<path fill="none" stroke="black" stroke-width="1.02" d="M401.95,-560.9C442.95,-571.92 483,-593.14 483,-634 483,-993.3 483,-993.3 483,-993.3 483,-1022.89 459.69,-1047.6 437.78,-1064.29"/>
<polygon fill="black" stroke="black" stroke-width="1.02" points="435.54,-1061.59 429.5,-1070.29 439.65,-1067.26 435.54,-1061.59"/>
<text text-anchor="middle" x="492.5" y="-805.3" font-family="Sans Not-Rotated 14" font-size="14.00"> &#160;&#160;&#160;</text>
</g>
<!-- Yellow zone doctor FD&#45;&gt;Red zone operator -->
<g id="edge19" class="edge">
<title>Yellow zone doctor FD&#45;&gt;Red zone operator</title>
<path fill="none" stroke="black" stroke-width="1.69" d="M228.09,-555.44C134.85,-564.81 0,-586.56 0,-634 0,-810 0,-810 0,-810 0,-835.26 7.71,-843.7 27,-860 33.38,-865.39 40.62,-869.96 48.25,-873.83"/>
<polygon fill="black" stroke="black" stroke-width="1.69" points="46.8,-877.02 57.34,-878.07 49.75,-870.68 46.8,-877.02"/>
<text text-anchor="middle" x="20.5" y="-718.3" font-family="Sans Not-Rotated 14" font-size="14.00"> &#160;&#160;&#160;&#160;&#160;&#160;&#160;&#160;</text>
</g>
<!-- Yellow zone doctor FD&#45;&gt;Notification operator -->
<g id="edge13" class="edge">
<title>Yellow zone doctor FD&#45;&gt;Notification operator</title>
<path fill="none" stroke="black" stroke-width="1.94" d="M294.97,-529.8C280.21,-517.13 259.95,-499.73 243.65,-485.74"/>
<polygon fill="black" stroke="black" stroke-width="1.94" points="245.87,-483.03 236,-479.18 241.31,-488.35 245.87,-483.03"/>
<text text-anchor="middle" x="292.5" y="-500.8" font-family="Sans Not-Rotated 14" font-size="14.00"> &#160;&#160;&#160;&#160;&#160;&#160;&#160;&#160;</text>
</g>
<!-- Yellow zone doctor FD&#45;&gt;Yellow zone doctor -->
<g id="edge18" class="edge">
<title>Yellow zone doctor FD&#45;&gt;Yellow zone doctor</title>
<path fill="none" stroke="black" stroke-width="2.16" d="M343.47,-566.22C354.67,-575.31 363.5,-587.05 357,-599 354.69,-603.25 351.61,-607.07 348.09,-610.48"/>
<polygon fill="black" stroke="black" stroke-width="2.16" points="345.82,-607.82 340.36,-616.9 350.29,-613.2 345.82,-607.82"/>
<text text-anchor="middle" x="396.5" y="-587.8" font-family="Sans Not-Rotated 14" font-size="14.00"> &#160;&#160;&#160;&#160;&#160;&#160;&#160;&#160;&#160;&#160;&#160;&#160;&#160;&#160;&#160;</text>
</g>
<!-- Monitoring completed doctor -->
<g id="node5" class="node">
<title>Monitoring completed doctor</title>
<polygon fill="#ffffff" stroke="black" points="424,-218 210,-218 210,-182 424,-182 424,-218"/>
<text text-anchor="middle" x="317" y="-196.3" font-family="Sans Not-Rotated 14" font-size="14.00">Monitoring completed doctor</text>
</g>
<!-- Monitoring completed doctor FD -->
<g id="node10" class="node">
<title>Monitoring completed doctor FD</title>
<polygon fill="#ffffff" stroke="black" points="436,-131 198,-131 198,-95 436,-95 436,-131"/>
<text text-anchor="middle" x="317" y="-109.3" font-family="Sans Not-Rotated 14" font-size="14.00">Monitoring completed doctor FD</text>
</g>
<!-- Monitoring completed doctor&#45;&gt;Monitoring completed doctor FD -->
<g id="edge15" class="edge">
<title>Monitoring completed doctor&#45;&gt;Monitoring completed doctor FD</title>
<path fill="none" stroke="black" stroke-width="1.01" d="M317,-181.8C317,-170.16 317,-154.55 317,-141.24"/>
<polygon fill="black" stroke="black" stroke-width="1.01" points="320.5,-141.18 317,-131.18 313.5,-141.18 320.5,-141.18"/>
<text text-anchor="middle" x="326.5" y="-152.8" font-family="Sans Not-Rotated 14" font-size="14.00"> &#160;&#160;&#160;</text>
</g>
<!-- Red zone doctor&#45;&gt;Red zone operator -->
<g id="edge4" class="edge">
<title>Red zone doctor&#45;&gt;Red zone operator</title>
<path fill="none" stroke="black" stroke-width="3.47" d="M52.59,-827.15C35.5,-835.09 24.15,-845.93 34,-860 37.96,-865.66 42.94,-870.41 48.54,-874.4"/>
<polygon fill="black" stroke="black" stroke-width="3.47" points="46.79,-877.43 57.14,-879.7 50.47,-871.47 46.79,-877.43"/>
<text text-anchor="middle" x="70.5" y="-848.8" font-family="Sans Not-Rotated 14" font-size="14.00"> &#160;&#160;&#160;&#160;&#160;&#160;&#160;&#160;&#160;&#160;&#160;&#160;&#160;&#160;&#160;</text>
</g>
<!-- Red zone doctor&#45;&gt;Red zone doctor FD -->
<g id="edge6" class="edge">
<title>Red zone doctor&#45;&gt;Red zone doctor FD</title>
<path fill="none" stroke="black" stroke-width="3.5" d="M116.71,-790.59C118.05,-779.87 121.49,-766.57 130,-758 139.87,-748.06 152.37,-740.9 165.57,-735.75"/>
<polygon fill="black" stroke="black" stroke-width="3.5" points="167,-738.96 175.28,-732.35 164.69,-732.36 167,-738.96"/>
<text text-anchor="middle" x="166.5" y="-761.8" font-family="Sans Not-Rotated 14" font-size="14.00"> &#160;&#160;&#160;&#160;&#160;&#160;&#160;&#160;&#160;&#160;&#160;&#160;&#160;&#160;&#160;</text>
</g>
<!-- Yellow zone Therapy control operator&#45;&gt;Red zone operator -->
<g id="edge20" class="edge">
<title>Yellow zone Therapy control operator&#45;&gt;Red zone operator</title>
<path fill="none" stroke="black" stroke-width="1.16" d="M282.32,-974.22C251.6,-958.65 206.07,-935.56 172.79,-918.69"/>
<polygon fill="black" stroke="black" stroke-width="1.16" points="174.25,-915.51 163.75,-914.11 171.08,-921.75 174.25,-915.51"/>
<text text-anchor="middle" x="249.5" y="-935.8" font-family="Sans Not-Rotated 14" font-size="14.00"> &#160;&#160;&#160;&#160;&#160;&#160;&#160;&#160;</text>
</g>
<!-- Meas missing operator -->
<g id="node8" class="node">
<title>Meas missing operator</title>
<polygon fill="#a09dde" stroke="black" points="478.5,-392 307.5,-392 307.5,-356 478.5,-356 478.5,-392"/>
<text text-anchor="middle" x="393" y="-370.3" font-family="Sans Not-Rotated 14" font-size="14.00">Meas missing operator</text>
</g>
<!-- Meas missing doctor -->
<g id="node11" class="node">
<title>Meas missing doctor</title>
<polygon fill="#c0bde9" stroke="black" points="394.5,-305 239.5,-305 239.5,-269 394.5,-269 394.5,-305"/>
<text text-anchor="middle" x="317" y="-283.3" font-family="Sans Not-Rotated 14" font-size="14.00">Meas missing doctor</text>
</g>
<!-- Meas missing operator&#45;&gt;Meas missing doctor -->
<g id="edge2" class="edge">
<title>Meas missing operator&#45;&gt;Meas missing doctor</title>
<path fill="none" stroke="black" stroke-width="2.59" d="M377.62,-355.8C366.6,-343.47 351.58,-326.68 339.25,-312.89"/>
<polygon fill="black" stroke="black" stroke-width="2.59" points="341.63,-310.3 332.36,-305.18 336.41,-314.96 341.63,-310.3"/>
<text text-anchor="middle" x="396.5" y="-326.8" font-family="Sans Not-Rotated 14" font-size="14.00"> &#160;&#160;&#160;&#160;&#160;&#160;&#160;&#160;&#160;&#160;&#160;&#160;&#160;&#160;&#160;</text>
</g>
<!-- Notification operator&#45;&gt;Meas missing operator -->
<g id="edge12" class="edge">
<title>Notification operator&#45;&gt;Meas missing operator</title>
<path fill="none" stroke="black" stroke-width="2.77" d="M251.82,-442.8C279.62,-429.45 318.33,-410.86 348.18,-396.52"/>
<polygon fill="black" stroke="black" stroke-width="2.77" points="350.04,-399.51 357.54,-392.03 347.01,-393.2 350.04,-399.51"/>
<text text-anchor="middle" x="352.5" y="-413.8" font-family="Sans Not-Rotated 14" font-size="14.00"> &#160;&#160;&#160;&#160;&#160;&#160;&#160;&#160;&#160;&#160;&#160;&#160;&#160;&#160;&#160;</text>
</g>
<!-- end -->
<g id="node14" class="node">
<title>end</title>
<ellipse fill="#ea4126" stroke="black" cx="186" cy="-22" rx="18" ry="18"/>
<ellipse fill="none" stroke="black" cx="186" cy="-22" rx="22" ry="22"/>
</g>
<!-- Notification operator&#45;&gt;end -->
<g id="edge17" class="edge">
<title>Notification operator&#45;&gt;end</title>
<path fill="none" stroke="black" stroke-dasharray="5,2" d="M200.17,-442.89C186.86,-426.68 170,-401.01 170,-375 170,-375 170,-375 170,-112 170,-92.24 173.87,-70.39 177.8,-53.29"/>
<polygon fill="black" stroke="black" points="181.26,-53.86 180.22,-43.32 174.46,-52.21 181.26,-53.86"/>
<text text-anchor="middle" x="190.5" y="-239.8" font-family="Sans Not-Rotated 14" font-size="14.00"> &#160;&#160;&#160;&#160;&#160;&#160;&#160;&#160;</text>
</g>
<!-- Monitoring completed doctor FD&#45;&gt;end -->
<g id="edge21" class="edge">
<title>Monitoring completed doctor FD&#45;&gt;end</title>
<path fill="none" stroke="black" stroke-dasharray="5,2" d="M291.74,-94.84C268.93,-79.34 235.49,-56.62 212.35,-40.9"/>
<polygon fill="black" stroke="black" points="214.26,-37.97 204.03,-35.25 210.33,-43.76 214.26,-37.97"/>
<text text-anchor="middle" x="273.5" y="-65.8" font-family="Sans Not-Rotated 14" font-size="14.00"> &#160;&#160;&#160;</text>
</g>
<!-- Meas missing doctor&#45;&gt;Monitoring completed doctor -->
<g id="edge9" class="edge">
<title>Meas missing doctor&#45;&gt;Monitoring completed doctor</title>
<path fill="none" stroke="black" d="M317,-268.8C317,-257.16 317,-241.55 317,-228.24"/>
<polygon fill="black" stroke="black" points="320.5,-228.18 317,-218.18 313.5,-228.18 320.5,-228.18"/>
<text text-anchor="middle" x="326.5" y="-239.8" font-family="Sans Not-Rotated 14" font-size="14.00"> &#160;&#160;&#160;</text>
</g>
<!-- Meas missing doctor&#45;&gt;Notification operator -->
<g id="edge22" class="edge">
<title>Meas missing doctor&#45;&gt;Notification operator</title>
<path fill="none" stroke="black" stroke-width="2.14" d="M280.78,-305.09C260.78,-316.55 237.51,-333.64 225,-356 211.84,-379.51 210.93,-410.79 212.48,-432.89"/>
<polygon fill="black" stroke="black" stroke-width="2.14" points="209,-433.28 213.4,-442.92 215.97,-432.64 209,-433.28"/>
<text text-anchor="middle" x="261.5" y="-370.3" font-family="Sans Not-Rotated 14" font-size="14.00"> &#160;&#160;&#160;&#160;&#160;&#160;&#160;&#160;&#160;&#160;&#160;&#160;&#160;&#160;&#160;</text>
</g>
<!-- Yellow zone doctor&#45;&gt;Yellow zone doctor FD -->
<g id="edge8" class="edge">
<title>Yellow zone doctor&#45;&gt;Yellow zone doctor FD</title>
<path fill="none" stroke="black" stroke-width="3.63" d="M290.07,-616.88C284.39,-607.22 279.85,-594.94 284,-584 285.28,-580.63 287.04,-577.38 289.09,-574.31"/>
<polygon fill="black" stroke="black" stroke-width="3.63" points="292.04,-576.21 295.42,-566.17 286.52,-571.91 292.04,-576.21"/>
<text text-anchor="middle" x="320.5" y="-587.8" font-family="Sans Not-Rotated 14" font-size="14.00"> &#160;&#160;&#160;&#160;&#160;&#160;&#160;&#160;&#160;&#160;&#160;&#160;&#160;&#160;&#160;</text>
</g>
<!-- start -->
<g id="node13" class="node">
<title>start</title>
<ellipse fill="#95d600" stroke="black" cx="130" cy="-992.3" rx="27.1" ry="27.1"/>
<text text-anchor="middle" x="130" y="-988.6" font-family="Sans Not-Rotated 14" font-size="14.00">start</text>
</g>
<!-- start&#45;&gt;Red zone operator -->
<g id="edge23" class="edge">
<title>start&#45;&gt;Red zone operator</title>
<path fill="none" stroke="black" stroke-dasharray="5,2" d="M130,-964.78C130,-952.1 130,-936.93 130,-924.17"/>
<polygon fill="black" stroke="black" points="133.5,-924.12 130,-914.12 126.5,-924.12 133.5,-924.12"/>
<text text-anchor="middle" x="150.5" y="-935.8" font-family="Sans Not-Rotated 14" font-size="14.00"> &#160;&#160;&#160;&#160;&#160;&#160;&#160;&#160;</text>
</g>
</g>
</svg>
