<?xml version="1.0" encoding="UTF-8" standalone="no"?>
<!DOCTYPE svg PUBLIC "-//W3C//DTD SVG 1.1//EN"
 "http://www.w3.org/Graphics/SVG/1.1/DTD/svg11.dtd">
<!-- Generated by graphviz version 3.0.0 (20220226.1711)
 -->
<!-- Pages: 1 -->
<svg width="570pt" height="1115pt"
 viewBox="0.00 0.00 569.50 1114.60" xmlns="http://www.w3.org/2000/svg" xmlns:xlink="http://www.w3.org/1999/xlink">
<g id="graph0" class="graph" transform="scale(1 1) rotate(0) translate(4 1110.6)">
<polygon fill="white" stroke="transparent" points="-4,4 -4,-1110.6 565.5,-1110.6 565.5,4 -4,4"/>
<!-- Program change operator -->
<g id="node1" class="node">
<title>Program change operator</title>
<polygon fill="#ffffff" stroke="black" points="267,-1106.6 74,-1106.6 74,-1070.6 267,-1070.6 267,-1106.6"/>
<text text-anchor="middle" x="170.5" y="-1084.9" font-family="Sans Not-Rotated 14" font-size="14.00">Program change operator</text>
</g>
<!-- Yellow zone Therapy control operator -->
<g id="node7" class="node">
<title>Yellow zone Therapy control operator</title>
<polygon fill="#e0ddf4" stroke="black" points="561.5,-1010.3 283.5,-1010.3 283.5,-974.3 561.5,-974.3 561.5,-1010.3"/>
<text text-anchor="middle" x="422.5" y="-988.6" font-family="Sans Not-Rotated 14" font-size="14.00">Yellow zone Therapy control operator</text>
</g>
<!-- Program change operator&#45;&gt;Yellow zone Therapy control operator -->
<g id="edge1" class="edge">
<title>Program change operator&#45;&gt;Yellow zone Therapy control operator</title>
<path fill="none" stroke="black" stroke-width="1.03" d="M216.14,-1070.52C258.64,-1054.61 322.09,-1030.87 367.4,-1013.92"/>
<polygon fill="black" stroke="black" stroke-width="1.03" points="368.64,-1017.19 376.78,-1010.41 366.19,-1010.63 368.64,-1017.19"/>
<text text-anchor="middle" x="313" y="-1041.4" font-family="Sans Not-Rotated 14" font-size="14.00"> &#160;&#160;&#160;</text>
</g>
<!-- Red zone operator -->
<g id="node2" class="node">
<title>Red zone operator</title>
<polygon fill="#1d2559" stroke="black" points="339,-914 194,-914 194,-878 339,-878 339,-914"/>
<text text-anchor="middle" x="266.5" y="-892.3" font-family="Sans Not-Rotated 14" font-size="14.00" fill="white">Red zone operator</text>
</g>
<!-- Red zone doctor -->
<g id="node6" class="node">
<title>Red zone doctor</title>
<polygon fill="#1f3b98" stroke="black" points="430,-827 301,-827 301,-791 430,-791 430,-827"/>
<text text-anchor="middle" x="365.5" y="-805.3" font-family="Sans Not-Rotated 14" font-size="14.00" fill="white">Red zone doctor</text>
</g>
<!-- Red zone operator&#45;&gt;Red zone doctor -->
<g id="edge8" class="edge">
<title>Red zone operator&#45;&gt;Red zone doctor</title>
<path fill="none" stroke="black" stroke-width="5" d="M260.37,-877.75C257.84,-867.34 256.83,-854.34 263.5,-845 267.61,-839.24 278.2,-833.82 291.08,-829.06"/>
<polygon fill="black" stroke="black" stroke-width="5" points="292.77,-833.1 300.8,-825.71 289.92,-824.83 292.77,-833.1"/>
<text text-anchor="middle" x="300" y="-848.8" font-family="Sans Not-Rotated 14" font-size="14.00"> &#160;&#160;&#160;&#160;&#160;&#160;&#160;&#160;&#160;&#160;&#160;&#160;&#160;&#160;&#160;</text>
</g>
<!-- Red zone doctor FD -->
<g id="node3" class="node">
<title>Red zone doctor FD</title>
<polygon fill="#1d2559" stroke="black" points="431,-740 278,-740 278,-704 431,-704 431,-740"/>
<text text-anchor="middle" x="354.5" y="-718.3" font-family="Sans Not-Rotated 14" font-size="14.00" fill="white">Red zone doctor FD</text>
</g>
<!-- Red zone doctor FD&#45;&gt;Red zone operator -->
<g id="edge15" class="edge">
<title>Red zone doctor FD&#45;&gt;Red zone operator</title>
<path fill="none" stroke="black" stroke-width="3.44" d="M287.98,-740C261.94,-750.27 234.71,-766.31 219.5,-791 203.67,-816.69 223.31,-848.62 241.82,-870.28"/>
<polygon fill="black" stroke="black" stroke-width="3.44" points="239.24,-872.64 248.52,-877.76 244.46,-867.97 239.24,-872.64"/>
<text text-anchor="middle" x="256" y="-805.3" font-family="Sans Not-Rotated 14" font-size="14.00"> &#160;&#160;&#160;&#160;&#160;&#160;&#160;&#160;&#160;&#160;&#160;&#160;&#160;&#160;&#160;</text>
</g>
<!-- Red zone doctor FD&#45;&gt;Red zone doctor FD -->
<g id="edge21" class="edge">
<title>Red zone doctor FD&#45;&gt;Red zone doctor FD</title>
<path fill="none" stroke="black" stroke-width="2.55" d="M431.25,-729.03C441.89,-727.87 449,-725.53 449,-722 449,-719.74 446.08,-717.97 441.19,-716.68"/>
<polygon fill="black" stroke="black" stroke-width="2.55" points="441.7,-713.22 431.25,-714.97 440.52,-720.12 441.7,-713.22"/>
<text text-anchor="middle" x="485.5" y="-718.3" font-family="Sans Not-Rotated 14" font-size="14.00"> &#160;&#160;&#160;&#160;&#160;&#160;&#160;&#160;&#160;&#160;&#160;&#160;&#160;&#160;&#160;</text>
</g>
<!-- Red zone doctor FD&#45;&gt;Yellow zone Therapy control operator -->
<g id="edge9" class="edge">
<title>Red zone doctor FD&#45;&gt;Yellow zone Therapy control operator</title>
<path fill="none" stroke="black" stroke-width="1.21" d="M417.24,-740.14C425.13,-744.75 432.26,-750.6 437.5,-758 481.86,-820.64 452.49,-918.06 434.12,-964.68"/>
<polygon fill="black" stroke="black" stroke-width="1.21" points="430.82,-963.5 430.28,-974.09 437.3,-966.15 430.82,-963.5"/>
<text text-anchor="middle" x="481" y="-848.8" font-family="Sans Not-Rotated 14" font-size="14.00"> &#160;&#160;&#160;&#160;&#160;&#160;&#160;&#160;</text>
</g>
<!-- Yellow zone doctor -->
<g id="node12" class="node">
<title>Yellow zone doctor</title>
<polygon fill="#7d7fd2" stroke="black" points="378,-653 229,-653 229,-617 378,-617 378,-653"/>
<text text-anchor="middle" x="303.5" y="-631.3" font-family="Sans Not-Rotated 14" font-size="14.00">Yellow zone doctor</text>
</g>
<!-- Red zone doctor FD&#45;&gt;Yellow zone doctor -->
<g id="edge13" class="edge">
<title>Red zone doctor FD&#45;&gt;Yellow zone doctor</title>
<path fill="none" stroke="black" stroke-width="2.05" d="M344.18,-703.8C336.99,-691.82 327.27,-675.62 319.13,-662.06"/>
<polygon fill="black" stroke="black" stroke-width="2.05" points="321.95,-659.95 313.81,-653.18 315.95,-663.55 321.95,-659.95"/>
<text text-anchor="middle" x="352" y="-674.8" font-family="Sans Not-Rotated 14" font-size="14.00"> &#160;&#160;&#160;&#160;&#160;&#160;&#160;&#160;</text>
</g>
<!-- Yellow zone doctor FD -->
<g id="node4" class="node">
<title>Yellow zone doctor FD</title>
<polygon fill="#5661c6" stroke="black" points="294,-566 121,-566 121,-530 294,-530 294,-566"/>
<text text-anchor="middle" x="207.5" y="-544.3" font-family="Sans Not-Rotated 14" font-size="14.00" fill="white">Yellow zone doctor FD</text>
</g>
<!-- Yellow zone doctor FD&#45;&gt;Program change operator -->
<g id="edge3" class="edge">
<title>Yellow zone doctor FD&#45;&gt;Program change operator</title>
<path fill="none" stroke="black" stroke-width="1.02" d="M188.66,-566.29C173.43,-582.23 154.5,-607.39 154.5,-634 154.5,-993.3 154.5,-993.3 154.5,-993.3 154.5,-1016.17 159.13,-1041.73 163.41,-1060.46"/>
<polygon fill="black" stroke="black" stroke-width="1.02" points="160.05,-1061.46 165.79,-1070.36 166.86,-1059.82 160.05,-1061.46"/>
<text text-anchor="middle" x="164" y="-805.3" font-family="Sans Not-Rotated 14" font-size="14.00"> &#160;&#160;&#160;</text>
</g>
<!-- Notification operator -->
<g id="node9" class="node">
<title>Notification operator</title>
<polygon fill="#1946ba" stroke="black" points="287,-479 128,-479 128,-443 287,-443 287,-479"/>
<text text-anchor="middle" x="207.5" y="-457.3" font-family="Sans Not-Rotated 14" font-size="14.00" fill="white">Notification operator</text>
</g>
<!-- Yellow zone doctor FD&#45;&gt;Notification operator -->
<g id="edge11" class="edge">
<title>Yellow zone doctor FD&#45;&gt;Notification operator</title>
<path fill="none" stroke="black" stroke-width="1.94" d="M207.5,-529.8C207.5,-518.16 207.5,-502.55 207.5,-489.24"/>
<polygon fill="black" stroke="black" stroke-width="1.94" points="211,-489.18 207.5,-479.18 204,-489.18 211,-489.18"/>
<text text-anchor="middle" x="228" y="-500.8" font-family="Sans Not-Rotated 14" font-size="14.00"> &#160;&#160;&#160;&#160;&#160;&#160;&#160;&#160;</text>
</g>
<!-- Yellow zone doctor FD&#45;&gt;Yellow zone doctor -->
<g id="edge16" class="edge">
<title>Yellow zone doctor FD&#45;&gt;Yellow zone doctor</title>
<path fill="none" stroke="black" stroke-width="2.16" d="M201.41,-566.23C198.88,-576.63 197.87,-589.63 204.5,-599 208.77,-605.04 214.17,-610.04 220.24,-614.19"/>
<polygon fill="black" stroke="black" stroke-width="2.16" points="218.5,-617.22 228.88,-619.32 222.07,-611.2 218.5,-617.22"/>
<text text-anchor="middle" x="241" y="-587.8" font-family="Sans Not-Rotated 14" font-size="14.00"> &#160;&#160;&#160;&#160;&#160;&#160;&#160;&#160;&#160;&#160;&#160;&#160;&#160;&#160;&#160;</text>
</g>
<!-- Monitoring completed doctor -->
<g id="node5" class="node">
<title>Monitoring completed doctor</title>
<polygon fill="#ffffff" stroke="black" points="268.5,-218 54.5,-218 54.5,-182 268.5,-182 268.5,-218"/>
<text text-anchor="middle" x="161.5" y="-196.3" font-family="Sans Not-Rotated 14" font-size="14.00">Monitoring completed doctor</text>
</g>
<!-- Monitoring completed doctor FD -->
<g id="node10" class="node">
<title>Monitoring completed doctor FD</title>
<polygon fill="#ffffff" stroke="black" points="280.5,-131 42.5,-131 42.5,-95 280.5,-95 280.5,-131"/>
<text text-anchor="middle" x="161.5" y="-109.3" font-family="Sans Not-Rotated 14" font-size="14.00">Monitoring completed doctor FD</text>
</g>
<!-- Monitoring completed doctor&#45;&gt;Monitoring completed doctor FD -->
<g id="edge12" class="edge">
<title>Monitoring completed doctor&#45;&gt;Monitoring completed doctor FD</title>
<path fill="none" stroke="black" stroke-width="1.01" d="M161.5,-181.8C161.5,-170.16 161.5,-154.55 161.5,-141.24"/>
<polygon fill="black" stroke="black" stroke-width="1.01" points="165,-141.18 161.5,-131.18 158,-141.18 165,-141.18"/>
<text text-anchor="middle" x="171" y="-152.8" font-family="Sans Not-Rotated 14" font-size="14.00"> &#160;&#160;&#160;</text>
</g>
<!-- Red zone doctor&#45;&gt;Red zone operator -->
<g id="edge4" class="edge">
<title>Red zone doctor&#45;&gt;Red zone operator</title>
<path fill="none" stroke="black" stroke-width="3.47" d="M360.21,-827.05C356.21,-837.63 349.8,-850.91 340.5,-860 335.59,-864.81 329.89,-869.05 323.87,-872.76"/>
<polygon fill="black" stroke="black" stroke-width="3.47" points="321.88,-869.87 314.9,-877.84 325.32,-875.97 321.88,-869.87"/>
<text text-anchor="middle" x="388" y="-848.8" font-family="Sans Not-Rotated 14" font-size="14.00"> &#160;&#160;&#160;&#160;&#160;&#160;&#160;&#160;&#160;&#160;&#160;&#160;&#160;&#160;&#160;</text>
</g>
<!-- Red zone doctor&#45;&gt;Red zone doctor FD -->
<g id="edge5" class="edge">
<title>Red zone doctor&#45;&gt;Red zone doctor FD</title>
<path fill="none" stroke="black" stroke-width="3.5" d="M363.27,-790.8C361.77,-779.16 359.75,-763.55 358.02,-750.24"/>
<polygon fill="black" stroke="black" stroke-width="3.5" points="361.48,-749.64 356.72,-740.18 354.54,-750.54 361.48,-749.64"/>
<text text-anchor="middle" x="397" y="-761.8" font-family="Sans Not-Rotated 14" font-size="14.00"> &#160;&#160;&#160;&#160;&#160;&#160;&#160;&#160;&#160;&#160;&#160;&#160;&#160;&#160;&#160;</text>
</g>
<!-- Yellow zone Therapy control operator&#45;&gt;Red zone operator -->
<g id="edge17" class="edge">
<title>Yellow zone Therapy control operator&#45;&gt;Red zone operator</title>
<path fill="none" stroke="black" stroke-width="1.16" d="M394.25,-974.22C368.82,-958.85 331.27,-936.15 303.46,-919.34"/>
<polygon fill="black" stroke="black" stroke-width="1.16" points="305.17,-916.29 294.8,-914.11 301.55,-922.28 305.17,-916.29"/>
<text text-anchor="middle" x="369" y="-935.8" font-family="Sans Not-Rotated 14" font-size="14.00"> &#160;&#160;&#160;&#160;&#160;&#160;&#160;&#160;</text>
</g>
<!-- Meas missing operator -->
<g id="node8" class="node">
<title>Meas missing operator</title>
<polygon fill="#a09dde" stroke="black" points="171,-392 0,-392 0,-356 171,-356 171,-392"/>
<text text-anchor="middle" x="85.5" y="-370.3" font-family="Sans Not-Rotated 14" font-size="14.00">Meas missing operator</text>
</g>
<!-- Meas missing doctor -->
<g id="node11" class="node">
<title>Meas missing doctor</title>
<polygon fill="#c0bde9" stroke="black" points="239,-305 84,-305 84,-269 239,-269 239,-305"/>
<text text-anchor="middle" x="161.5" y="-283.3" font-family="Sans Not-Rotated 14" font-size="14.00">Meas missing doctor</text>
</g>
<!-- Meas missing operator&#45;&gt;Meas missing doctor -->
<g id="edge2" class="edge">
<title>Meas missing operator&#45;&gt;Meas missing doctor</title>
<path fill="none" stroke="black" stroke-width="2.59" d="M95.86,-356C102.36,-345.93 111.24,-333.2 120.5,-323 123.95,-319.2 127.81,-315.42 131.73,-311.83"/>
<polygon fill="black" stroke="black" stroke-width="2.59" points="134.08,-314.43 139.28,-305.2 129.46,-309.17 134.08,-314.43"/>
<text text-anchor="middle" x="157" y="-326.8" font-family="Sans Not-Rotated 14" font-size="14.00"> &#160;&#160;&#160;&#160;&#160;&#160;&#160;&#160;&#160;&#160;&#160;&#160;&#160;&#160;&#160;</text>
</g>
<!-- Notification operator&#45;&gt;Meas missing operator -->
<g id="edge10" class="edge">
<title>Notification operator&#45;&gt;Meas missing operator</title>
<path fill="none" stroke="black" stroke-width="2.77" d="M151.04,-442.85C140.27,-438.08 129.55,-432.19 120.5,-425 112.25,-418.45 105.13,-409.44 99.5,-400.87"/>
<polygon fill="black" stroke="black" stroke-width="2.77" points="102.41,-398.92 94.2,-392.23 96.44,-402.58 102.41,-398.92"/>
<text text-anchor="middle" x="157" y="-413.8" font-family="Sans Not-Rotated 14" font-size="14.00"> &#160;&#160;&#160;&#160;&#160;&#160;&#160;&#160;&#160;&#160;&#160;&#160;&#160;&#160;&#160;</text>
</g>
<!-- end -->
<g id="node14" class="node">
<title>end</title>
<ellipse fill="#ea4126" stroke="black" cx="235.5" cy="-22" rx="18" ry="18"/>
<ellipse fill="none" stroke="black" cx="235.5" cy="-22" rx="22" ry="22"/>
</g>
<!-- Notification operator&#45;&gt;end -->
<g id="edge14" class="edge">
<title>Notification operator&#45;&gt;end</title>
<path fill="none" stroke="black" stroke-dasharray="5,2" d="M251.51,-442.93C278.72,-429.18 308.5,-406.86 308.5,-375 308.5,-375 308.5,-375 308.5,-112 308.5,-81.79 283.04,-56.22 262.2,-40.35"/>
<polygon fill="black" stroke="black" points="264.07,-37.39 253.92,-34.36 259.97,-43.06 264.07,-37.39"/>
<text text-anchor="middle" x="329" y="-239.8" font-family="Sans Not-Rotated 14" font-size="14.00"> &#160;&#160;&#160;&#160;&#160;&#160;&#160;&#160;</text>
</g>
<!-- Monitoring completed doctor FD&#45;&gt;end -->
<g id="edge18" class="edge">
<title>Monitoring completed doctor FD&#45;&gt;end</title>
<path fill="none" stroke="black" stroke-dasharray="5,2" d="M175.77,-94.84C186.97,-81.37 202.7,-62.45 215.21,-47.41"/>
<polygon fill="black" stroke="black" points="218.07,-49.43 221.78,-39.51 212.69,-44.96 218.07,-49.43"/>
<text text-anchor="middle" x="213" y="-65.8" font-family="Sans Not-Rotated 14" font-size="14.00"> &#160;&#160;&#160;</text>
</g>
<!-- Meas missing doctor&#45;&gt;Monitoring completed doctor -->
<g id="edge7" class="edge">
<title>Meas missing doctor&#45;&gt;Monitoring completed doctor</title>
<path fill="none" stroke="black" d="M161.5,-268.8C161.5,-257.16 161.5,-241.55 161.5,-228.24"/>
<polygon fill="black" stroke="black" points="165,-228.18 161.5,-218.18 158,-228.18 165,-228.18"/>
<text text-anchor="middle" x="171" y="-239.8" font-family="Sans Not-Rotated 14" font-size="14.00"> &#160;&#160;&#160;</text>
</g>
<!-- Meas missing doctor&#45;&gt;Notification operator -->
<g id="edge19" class="edge">
<title>Meas missing doctor&#45;&gt;Notification operator</title>
<path fill="none" stroke="black" stroke-width="2.14" d="M181.26,-305.26C186.04,-310.47 190.6,-316.54 193.5,-323 209.36,-358.4 210.74,-403.97 209.62,-432.59"/>
<polygon fill="black" stroke="black" stroke-width="2.14" points="206.12,-432.5 209.1,-442.67 213.11,-432.87 206.12,-432.5"/>
<text text-anchor="middle" x="246" y="-370.3" font-family="Sans Not-Rotated 14" font-size="14.00"> &#160;&#160;&#160;&#160;&#160;&#160;&#160;&#160;&#160;&#160;&#160;&#160;&#160;&#160;&#160;</text>
</g>
<!-- Yellow zone doctor&#45;&gt;Yellow zone doctor FD -->
<g id="edge6" class="edge">
<title>Yellow zone doctor&#45;&gt;Yellow zone doctor FD</title>
<path fill="none" stroke="black" stroke-width="3.63" d="M299.31,-616.96C295.97,-606.38 290.36,-593.11 281.5,-584 276.77,-579.14 271.24,-574.88 265.36,-571.16"/>
<polygon fill="black" stroke="black" stroke-width="3.63" points="266.97,-568.05 256.56,-566.09 263.47,-574.11 266.97,-568.05"/>
<text text-anchor="middle" x="328" y="-587.8" font-family="Sans Not-Rotated 14" font-size="14.00"> &#160;&#160;&#160;&#160;&#160;&#160;&#160;&#160;&#160;&#160;&#160;&#160;&#160;&#160;&#160;</text>
</g>
<!-- start -->
<g id="node13" class="node">
<title>start</title>
<ellipse fill="#95d600" stroke="black" cx="238.5" cy="-992.3" rx="27.1" ry="27.1"/>
<text text-anchor="middle" x="238.5" y="-988.6" font-family="Sans Not-Rotated 14" font-size="14.00">start</text>
</g>
<!-- start&#45;&gt;Red zone operator -->
<g id="edge20" class="edge">
<title>start&#45;&gt;Red zone operator</title>
<path fill="none" stroke="black" stroke-dasharray="5,2" d="M246,-966.03C249.84,-953.11 254.51,-937.39 258.42,-924.21"/>
<polygon fill="black" stroke="black" points="261.88,-924.87 261.37,-914.29 255.17,-922.88 261.88,-924.87"/>
<text text-anchor="middle" x="276" y="-935.8" font-family="Sans Not-Rotated 14" font-size="14.00"> &#160;&#160;&#160;&#160;&#160;&#160;&#160;&#160;</text>
</g>
</g>
</svg>
