<?xml version="1.0" encoding="UTF-8" standalone="no"?>
<!DOCTYPE svg PUBLIC "-//W3C//DTD SVG 1.1//EN"
 "http://www.w3.org/Graphics/SVG/1.1/DTD/svg11.dtd">
<!-- Generated by graphviz version 3.0.0 (20220226.1711)
 -->
<!-- Pages: 1 -->
<svg width="209pt" height="245pt"
 viewBox="0.00 0.00 209.00 244.60" xmlns="http://www.w3.org/2000/svg" xmlns:xlink="http://www.w3.org/1999/xlink">
<g id="graph0" class="graph" transform="scale(1 1) rotate(0) translate(4 240.6)">
<polygon fill="white" stroke="transparent" points="-4,4 -4,-240.6 205,-240.6 205,4 -4,4"/>
<!-- Admission NC -->
<g id="node1" class="node">
<title>Admission NC</title>
<polygon fill="#1d2559" stroke="black" points="110,-131 0,-131 0,-95 110,-95 110,-131"/>
<text text-anchor="middle" x="55" y="-109.3" font-family="Sans Not-Rotated 14" font-size="14.00" fill="white">Admission NC</text>
</g>
<!-- Admission NC&#45;&gt;Admission NC -->
<g id="edge1" class="edge">
<title>Admission NC&#45;&gt;Admission NC</title>
<path fill="none" stroke="black" stroke-width="5" d="M110.07,-120.5C120.57,-119.6 128,-117.1 128,-113 128,-110.37 124.95,-108.4 120,-107.09"/>
<polygon fill="black" stroke="black" stroke-width="5" points="120.64,-102.76 110.07,-105.5 119.26,-111.4 120.64,-102.76"/>
<text text-anchor="middle" x="164.5" y="-109.3" font-family="Sans Not-Rotated 14" font-size="14.00"> &#160;&#160;&#160;&#160;&#160;&#160;&#160;&#160;&#160;&#160;&#160;&#160;&#160;&#160;&#160;</text>
</g>
<!-- end -->
<g id="node3" class="node">
<title>end</title>
<ellipse fill="#ea4126" stroke="black" cx="55" cy="-22" rx="18" ry="18"/>
<ellipse fill="none" stroke="black" cx="55" cy="-22" rx="22" ry="22"/>
</g>
<!-- Admission NC&#45;&gt;end -->
<g id="edge2" class="edge">
<title>Admission NC&#45;&gt;end</title>
<path fill="none" stroke="black" stroke-dasharray="5,2" d="M55,-94.84C55,-83.44 55,-68.13 55,-54.58"/>
<polygon fill="black" stroke="black" points="58.5,-54.19 55,-44.19 51.5,-54.19 58.5,-54.19"/>
<text text-anchor="middle" x="64.5" y="-65.8" font-family="Sans Not-Rotated 14" font-size="14.00"> &#160;&#160;&#160;</text>
</g>
<!-- start -->
<g id="node2" class="node">
<title>start</title>
<ellipse fill="#95d600" stroke="black" cx="55" cy="-209.3" rx="27.1" ry="27.1"/>
<text text-anchor="middle" x="55" y="-205.6" font-family="Sans Not-Rotated 14" font-size="14.00">start</text>
</g>
<!-- start&#45;&gt;Admission NC -->
<g id="edge3" class="edge">
<title>start&#45;&gt;Admission NC</title>
<path fill="none" stroke="black" stroke-dasharray="5,2" d="M55,-181.78C55,-169.1 55,-153.93 55,-141.17"/>
<polygon fill="black" stroke="black" points="58.5,-141.12 55,-131.12 51.5,-141.12 58.5,-141.12"/>
<text text-anchor="middle" x="64.5" y="-152.8" font-family="Sans Not-Rotated 14" font-size="14.00"> &#160;&#160;&#160;</text>
</g>
</g>
</svg>
