<?xml version="1.0" encoding="UTF-8" standalone="no"?>
<!DOCTYPE svg PUBLIC "-//W3C//DTD SVG 1.1//EN"
 "http://www.w3.org/Graphics/SVG/1.1/DTD/svg11.dtd">
<!-- Generated by graphviz version 3.0.0 (20220226.1711)
 -->
<!-- Pages: 1 -->
<svg width="252pt" height="332pt"
 viewBox="0.00 0.00 252.00 331.60" xmlns="http://www.w3.org/2000/svg" xmlns:xlink="http://www.w3.org/1999/xlink">
<g id="graph0" class="graph" transform="scale(1 1) rotate(0) translate(4 327.6)">
<polygon fill="white" stroke="transparent" points="-4,4 -4,-327.6 248,-327.6 248,4 -4,4"/>
<!-- Red zone operator -->
<g id="node1" class="node">
<title>Red zone operator</title>
<polygon fill="#1d2559" stroke="black" points="149,-218 4,-218 4,-182 149,-182 149,-218"/>
<text text-anchor="middle" x="76.5" y="-196.3" font-family="Sans Not-Rotated 14" font-size="14.00" fill="white">Red zone operator</text>
</g>
<!-- Red zone doctor FD -->
<g id="node2" class="node">
<title>Red zone doctor FD</title>
<polygon fill="#ffffff" stroke="black" points="153,-131 0,-131 0,-95 153,-95 153,-131"/>
<text text-anchor="middle" x="76.5" y="-109.3" font-family="Sans Not-Rotated 14" font-size="14.00">Red zone doctor FD</text>
</g>
<!-- Red zone operator&#45;&gt;Red zone doctor FD -->
<g id="edge2" class="edge">
<title>Red zone operator&#45;&gt;Red zone doctor FD</title>
<path fill="none" stroke="black" stroke-width="4.84" d="M41.69,-181.94C35.18,-177.08 29.25,-171.13 25.5,-164 20.32,-154.16 25.03,-145.07 33.34,-137.42"/>
<polygon fill="black" stroke="black" stroke-width="4.84" points="36.16,-140.59 41.41,-131.09 30.93,-133.93 36.16,-140.59"/>
<text text-anchor="middle" x="62" y="-152.8" font-family="Sans Not-Rotated 14" font-size="14.00"> &#160;&#160;&#160;&#160;&#160;&#160;&#160;&#160;&#160;&#160;&#160;&#160;&#160;&#160;&#160;</text>
</g>
<!-- Red zone doctor FD&#45;&gt;Red zone operator -->
<g id="edge1" class="edge">
<title>Red zone doctor FD&#45;&gt;Red zone operator</title>
<path fill="none" stroke="black" stroke-width="5" d="M93.49,-131.44C100.52,-140.78 106.25,-152.67 102.5,-164 101.45,-167.16 100,-170.27 98.31,-173.25"/>
<polygon fill="black" stroke="black" stroke-width="5" points="94.56,-170.98 92.69,-181.73 101.86,-175.81 94.56,-170.98"/>
<text text-anchor="middle" x="140" y="-152.8" font-family="Sans Not-Rotated 14" font-size="14.00"> &#160;&#160;&#160;&#160;&#160;&#160;&#160;&#160;&#160;&#160;&#160;&#160;&#160;&#160;&#160;</text>
</g>
<!-- Red zone doctor FD&#45;&gt;Red zone doctor FD -->
<g id="edge5" class="edge">
<title>Red zone doctor FD&#45;&gt;Red zone doctor FD</title>
<path fill="none" stroke="black" stroke-width="3.53" d="M153.25,-120.03C163.89,-118.87 171,-116.53 171,-113 171,-110.74 168.08,-108.97 163.19,-107.68"/>
<polygon fill="black" stroke="black" stroke-width="3.53" points="163.7,-104.22 153.25,-105.97 162.52,-111.12 163.7,-104.22"/>
<text text-anchor="middle" x="207.5" y="-109.3" font-family="Sans Not-Rotated 14" font-size="14.00"> &#160;&#160;&#160;&#160;&#160;&#160;&#160;&#160;&#160;&#160;&#160;&#160;&#160;&#160;&#160;</text>
</g>
<!-- end -->
<g id="node4" class="node">
<title>end</title>
<ellipse fill="#ea4126" stroke="black" cx="76.5" cy="-22" rx="18" ry="18"/>
<ellipse fill="none" stroke="black" cx="76.5" cy="-22" rx="22" ry="22"/>
</g>
<!-- Red zone doctor FD&#45;&gt;end -->
<g id="edge3" class="edge">
<title>Red zone doctor FD&#45;&gt;end</title>
<path fill="none" stroke="black" stroke-dasharray="5,2" d="M76.5,-94.84C76.5,-83.44 76.5,-68.13 76.5,-54.58"/>
<polygon fill="black" stroke="black" points="80,-54.19 76.5,-44.19 73,-54.19 80,-54.19"/>
<text text-anchor="middle" x="86" y="-65.8" font-family="Sans Not-Rotated 14" font-size="14.00"> &#160;&#160;&#160;</text>
</g>
<!-- start -->
<g id="node3" class="node">
<title>start</title>
<ellipse fill="#95d600" stroke="black" cx="76.5" cy="-296.3" rx="27.1" ry="27.1"/>
<text text-anchor="middle" x="76.5" y="-292.6" font-family="Sans Not-Rotated 14" font-size="14.00">start</text>
</g>
<!-- start&#45;&gt;Red zone operator -->
<g id="edge4" class="edge">
<title>start&#45;&gt;Red zone operator</title>
<path fill="none" stroke="black" stroke-dasharray="5,2" d="M76.5,-268.78C76.5,-256.1 76.5,-240.93 76.5,-228.17"/>
<polygon fill="black" stroke="black" points="80,-228.12 76.5,-218.12 73,-228.12 80,-228.12"/>
<text text-anchor="middle" x="97" y="-239.8" font-family="Sans Not-Rotated 14" font-size="14.00"> &#160;&#160;&#160;&#160;&#160;&#160;&#160;&#160;</text>
</g>
</g>
</svg>
