<?xml version="1.0" encoding="UTF-8" standalone="no"?>
<!DOCTYPE svg PUBLIC "-//W3C//DTD SVG 1.1//EN"
 "http://www.w3.org/Graphics/SVG/1.1/DTD/svg11.dtd">
<!-- Generated by graphviz version 3.0.0 (20220226.1711)
 -->
<!-- Pages: 1 -->
<svg width="321pt" height="332pt"
 viewBox="0.00 0.00 321.00 331.60" xmlns="http://www.w3.org/2000/svg" xmlns:xlink="http://www.w3.org/1999/xlink">
<g id="graph0" class="graph" transform="scale(1 1) rotate(0) translate(4 327.6)">
<polygon fill="white" stroke="transparent" points="-4,4 -4,-327.6 317,-327.6 317,4 -4,4"/>
<!-- Red zone operator -->
<g id="node1" class="node">
<title>Red zone operator</title>
<polygon fill="#1d2559" stroke="black" points="145,-218 0,-218 0,-182 145,-182 145,-218"/>
<text text-anchor="middle" x="72.5" y="-196.3" font-family="Sans Not-Rotated 14" font-size="14.00" fill="white">Red zone operator</text>
</g>
<!-- Red zone operator&#45;&gt;Red zone operator -->
<g id="edge2" class="edge">
<title>Red zone operator&#45;&gt;Red zone operator</title>
<path fill="none" stroke="black" stroke-width="1.87" d="M145.29,-207.11C155.87,-205.98 163,-203.61 163,-200 163,-197.69 160.07,-195.88 155.19,-194.59"/>
<polygon fill="black" stroke="black" stroke-width="1.87" points="155.74,-191.13 145.29,-192.89 154.55,-198.03 155.74,-191.13"/>
<text text-anchor="middle" x="183.5" y="-196.3" font-family="Sans Not-Rotated 14" font-size="14.00"> &#160;&#160;&#160;&#160;&#160;&#160;&#160;&#160;</text>
</g>
<!-- Red zone doctor FD -->
<g id="node2" class="node">
<title>Red zone doctor FD</title>
<polygon fill="#ffffff" stroke="black" points="222,-131 69,-131 69,-95 222,-95 222,-131"/>
<text text-anchor="middle" x="145.5" y="-109.3" font-family="Sans Not-Rotated 14" font-size="14.00">Red zone doctor FD</text>
</g>
<!-- Red zone operator&#45;&gt;Red zone doctor FD -->
<g id="edge1" class="edge">
<title>Red zone operator&#45;&gt;Red zone doctor FD</title>
<path fill="none" stroke="black" stroke-width="4.84" d="M118.48,-181.99C126.2,-177.25 133.36,-171.33 138.5,-164 143.12,-157.41 145.32,-149.12 146.25,-141.19"/>
<polygon fill="black" stroke="black" stroke-width="4.84" points="150.49,-141.39 146.84,-131.16 142.02,-140.9 150.49,-141.39"/>
<text text-anchor="middle" x="181" y="-152.8" font-family="Sans Not-Rotated 14" font-size="14.00"> &#160;&#160;&#160;&#160;&#160;&#160;&#160;&#160;&#160;&#160;&#160;&#160;&#160;&#160;&#160;</text>
</g>
<!-- end -->
<g id="node4" class="node">
<title>end</title>
<ellipse fill="#ea4126" stroke="black" cx="47.5" cy="-22" rx="18" ry="18"/>
<ellipse fill="none" stroke="black" cx="47.5" cy="-22" rx="22" ry="22"/>
</g>
<!-- Red zone operator&#45;&gt;end -->
<g id="edge3" class="edge">
<title>Red zone operator&#45;&gt;end</title>
<path fill="none" stroke="black" stroke-dasharray="5,2" d="M61.81,-181.79C58.91,-176.3 56.13,-170.07 54.5,-164 44.64,-127.27 44.16,-83.26 45.31,-54.29"/>
<polygon fill="black" stroke="black" points="48.82,-54.13 45.82,-43.97 41.83,-53.79 48.82,-54.13"/>
<text text-anchor="middle" x="51" y="-109.3" font-family="Sans Not-Rotated 14" font-size="14.00"> </text>
</g>
<!-- Red zone doctor FD&#45;&gt;Red zone operator -->
<g id="edge4" class="edge">
<title>Red zone doctor FD&#45;&gt;Red zone operator</title>
<path fill="none" stroke="black" stroke-width="5" d="M80.79,-131.23C73.19,-135.82 66.41,-141.64 61.5,-149 56.99,-155.76 57.11,-164.07 59.12,-171.95"/>
<polygon fill="black" stroke="black" stroke-width="5" points="55.05,-173.57 62.47,-181.57 63.31,-170.69 55.05,-173.57"/>
<text text-anchor="middle" x="98" y="-152.8" font-family="Sans Not-Rotated 14" font-size="14.00"> &#160;&#160;&#160;&#160;&#160;&#160;&#160;&#160;&#160;&#160;&#160;&#160;&#160;&#160;&#160;</text>
</g>
<!-- Red zone doctor FD&#45;&gt;Red zone doctor FD -->
<g id="edge5" class="edge">
<title>Red zone doctor FD&#45;&gt;Red zone doctor FD</title>
<path fill="none" stroke="black" stroke-width="3.55" d="M222.25,-120.03C232.89,-118.87 240,-116.53 240,-113 240,-110.74 237.08,-108.97 232.19,-107.68"/>
<polygon fill="black" stroke="black" stroke-width="3.55" points="232.7,-104.22 222.25,-105.97 231.52,-111.12 232.7,-104.22"/>
<text text-anchor="middle" x="276.5" y="-109.3" font-family="Sans Not-Rotated 14" font-size="14.00"> &#160;&#160;&#160;&#160;&#160;&#160;&#160;&#160;&#160;&#160;&#160;&#160;&#160;&#160;&#160;</text>
</g>
<!-- Red zone doctor FD&#45;&gt;end -->
<g id="edge6" class="edge">
<title>Red zone doctor FD&#45;&gt;end</title>
<path fill="none" stroke="black" stroke-dasharray="5,2" d="M126.6,-94.84C110.83,-80.51 88.26,-60.02 71.26,-44.58"/>
<polygon fill="black" stroke="black" points="73.18,-41.59 63.42,-37.46 68.47,-46.77 73.18,-41.59"/>
<text text-anchor="middle" x="115" y="-65.8" font-family="Sans Not-Rotated 14" font-size="14.00"> &#160;&#160;&#160;</text>
</g>
<!-- start -->
<g id="node3" class="node">
<title>start</title>
<ellipse fill="#95d600" stroke="black" cx="164.5" cy="-296.3" rx="27.1" ry="27.1"/>
<text text-anchor="middle" x="164.5" y="-292.6" font-family="Sans Not-Rotated 14" font-size="14.00">start</text>
</g>
<!-- start&#45;&gt;Red zone operator -->
<g id="edge7" class="edge">
<title>start&#45;&gt;Red zone operator</title>
<path fill="none" stroke="black" stroke-dasharray="5,2" d="M145.88,-276.22C131.62,-261.6 111.85,-241.33 96.42,-225.51"/>
<polygon fill="black" stroke="black" points="98.72,-222.87 89.23,-218.15 93.71,-227.75 98.72,-222.87"/>
<text text-anchor="middle" x="142" y="-239.8" font-family="Sans Not-Rotated 14" font-size="14.00"> &#160;&#160;&#160;&#160;&#160;&#160;&#160;&#160;</text>
</g>
<!-- start&#45;&gt;Red zone doctor FD -->
<g id="edge8" class="edge">
<title>start&#45;&gt;Red zone doctor FD</title>
<path fill="none" stroke="black" stroke-dasharray="5,2" d="M183.16,-275.68C208.6,-246.48 248.11,-190.55 221.5,-149 218.64,-144.53 215.04,-140.62 210.98,-137.2"/>
<polygon fill="black" stroke="black" points="212.83,-134.22 202.67,-131.23 208.74,-139.91 212.83,-134.22"/>
<text text-anchor="middle" x="232" y="-196.3" font-family="Sans Not-Rotated 14" font-size="14.00"> </text>
</g>
</g>
</svg>
