<?xml version="1.0" encoding="UTF-8" standalone="no"?>
<!DOCTYPE svg PUBLIC "-//W3C//DTD SVG 1.1//EN"
 "http://www.w3.org/Graphics/SVG/1.1/DTD/svg11.dtd">
<!-- Generated by graphviz version 3.0.0 (20220226.1711)
 -->
<!-- Pages: 1 -->
<svg width="720pt" height="983pt"
 viewBox="0.00 0.00 720.00 982.60" xmlns="http://www.w3.org/2000/svg" xmlns:xlink="http://www.w3.org/1999/xlink">
<g id="graph0" class="graph" transform="scale(1 1) rotate(0) translate(4 978.6)">
<polygon fill="white" stroke="transparent" points="-4,4 -4,-978.6 716,-978.6 716,4 -4,4"/>
<!-- REOPEN -->
<g id="node1" class="node">
<title>REOPEN</title>
<polygon fill="#ffffff" stroke="black" points="178.5,-782 103.5,-782 103.5,-746 178.5,-746 178.5,-782"/>
<text text-anchor="middle" x="141" y="-760.3" font-family="Sans Not-Rotated 14" font-size="14.00">REOPEN</text>
</g>
<!-- CHANGE END -->
<g id="node15" class="node">
<title>CHANGE END</title>
<polygon fill="#ffffff" stroke="black" points="397.5,-695 284.5,-695 284.5,-659 397.5,-659 397.5,-695"/>
<text text-anchor="middle" x="341" y="-673.3" font-family="Sans Not-Rotated 14" font-size="14.00">CHANGE END</text>
</g>
<!-- REOPEN&#45;&gt;CHANGE END -->
<g id="edge19" class="edge">
<title>REOPEN&#45;&gt;CHANGE END</title>
<path fill="none" stroke="black" stroke-width="1" d="M170.2,-746C193.39,-732.56 222.92,-715.64 229,-713 243.41,-706.74 259.3,-701.08 274.47,-696.22"/>
<polygon fill="black" stroke="black" stroke-width="1" points="275.81,-699.47 284.31,-693.14 273.72,-692.78 275.81,-699.47"/>
<text text-anchor="middle" x="231.5" y="-716.8" font-family="Sans Not-Rotated 14" font-size="14.00"> </text>
</g>
<!-- FIN -->
<g id="node17" class="node">
<title>FIN</title>
<polygon fill="#1f3b98" stroke="black" points="329,-608 275,-608 275,-572 329,-572 329,-608"/>
<text text-anchor="middle" x="302" y="-586.3" font-family="Sans Not-Rotated 14" font-size="14.00" fill="white">FIN</text>
</g>
<!-- REOPEN&#45;&gt;FIN -->
<g id="edge2" class="edge">
<title>REOPEN&#45;&gt;FIN</title>
<path fill="none" stroke="black" stroke-width="1.17" d="M148.43,-745.93C158.39,-724.26 177.54,-686.39 201,-659 216.22,-641.23 222.73,-639.26 242,-626 249.58,-620.78 257.97,-615.57 266.01,-610.82"/>
<polygon fill="black" stroke="black" stroke-width="1.17" points="267.99,-613.71 274.89,-605.67 264.48,-607.66 267.99,-613.71"/>
<text text-anchor="middle" x="221.5" y="-673.3" font-family="Sans Not-Rotated 14" font-size="14.00"> &#160;&#160;&#160;&#160;&#160;&#160;&#160;&#160;</text>
</g>
<!-- RELEASE -->
<g id="node2" class="node">
<title>RELEASE</title>
<polygon fill="#1f3b98" stroke="black" points="331,-521 251,-521 251,-485 331,-485 331,-521"/>
<text text-anchor="middle" x="291" y="-499.3" font-family="Sans Not-Rotated 14" font-size="14.00" fill="white">RELEASE</text>
</g>
<!-- EMPTY -->
<g id="node4" class="node">
<title>EMPTY</title>
<polygon fill="#ffffff" stroke="black" points="651.5,-380 586.5,-380 586.5,-344 651.5,-344 651.5,-380"/>
<text text-anchor="middle" x="619" y="-358.3" font-family="Sans Not-Rotated 14" font-size="14.00">EMPTY</text>
</g>
<!-- RELEASE&#45;&gt;EMPTY -->
<g id="edge11" class="edge">
<title>RELEASE&#45;&gt;EMPTY</title>
<path fill="none" stroke="black" d="M331.13,-499.97C370.71,-496.76 432.17,-488.45 481,-467 525.31,-447.53 568.57,-411.3 594.51,-387.17"/>
<polygon fill="black" stroke="black" points="597.13,-389.51 601.99,-380.1 592.32,-384.43 597.13,-389.51"/>
<text text-anchor="middle" x="509.5" y="-455.8" font-family="Sans Not-Rotated 14" font-size="14.00"> </text>
</g>
<!-- CODE ERROR -->
<g id="node9" class="node">
<title>CODE ERROR</title>
<polygon fill="#ffffff" stroke="black" points="140,-434 28,-434 28,-398 140,-398 140,-434"/>
<text text-anchor="middle" x="84" y="-412.3" font-family="Sans Not-Rotated 14" font-size="14.00">CODE ERROR</text>
</g>
<!-- RELEASE&#45;&gt;CODE ERROR -->
<g id="edge7" class="edge">
<title>RELEASE&#45;&gt;CODE ERROR</title>
<path fill="none" stroke="black" stroke-width="1" d="M250.59,-499.63C200.73,-495.9 119.84,-486.89 98,-467 91.56,-461.13 87.98,-452.56 86.03,-444.17"/>
<polygon fill="black" stroke="black" stroke-width="1" points="89.47,-443.51 84.37,-434.22 82.56,-444.66 89.47,-443.51"/>
<text text-anchor="middle" x="100.5" y="-455.8" font-family="Sans Not-Rotated 14" font-size="14.00"> </text>
</g>
<!-- CODE NOK -->
<g id="node10" class="node">
<title>CODE NOK</title>
<polygon fill="#ffffff" stroke="black" points="251.5,-434 158.5,-434 158.5,-398 251.5,-398 251.5,-434"/>
<text text-anchor="middle" x="205" y="-412.3" font-family="Sans Not-Rotated 14" font-size="14.00">CODE NOK</text>
</g>
<!-- RELEASE&#45;&gt;CODE NOK -->
<g id="edge6" class="edge">
<title>RELEASE&#45;&gt;CODE NOK</title>
<path fill="none" stroke="black" stroke-width="1.08" d="M256.03,-484.89C247.87,-479.86 239.63,-473.84 233,-467 226.36,-460.14 220.77,-451.41 216.37,-443.16"/>
<polygon fill="black" stroke="black" stroke-width="1.08" points="219.5,-441.59 211.91,-434.19 213.22,-444.7 219.5,-441.59"/>
<text text-anchor="middle" x="253.5" y="-455.8" font-family="Sans Not-Rotated 14" font-size="14.00"> &#160;&#160;&#160;&#160;&#160;&#160;&#160;&#160;</text>
</g>
<!-- CODE OK -->
<g id="node11" class="node">
<title>CODE OK</title>
<polygon fill="#1f3b98" stroke="black" points="221.5,-326 138.5,-326 138.5,-290 221.5,-290 221.5,-326"/>
<text text-anchor="middle" x="180" y="-304.3" font-family="Sans Not-Rotated 14" font-size="14.00" fill="white">CODE OK</text>
</g>
<!-- RELEASE&#45;&gt;CODE OK -->
<g id="edge10" class="edge">
<title>RELEASE&#45;&gt;CODE OK</title>
<path fill="none" stroke="black" stroke-width="3.95" d="M289.76,-484.94C286.82,-448.71 278.32,-365.63 261,-344 253.29,-334.38 242.43,-327.35 231.15,-322.23"/>
<polygon fill="black" stroke="black" stroke-width="3.95" points="232.23,-318.89 221.64,-318.36 229.59,-325.37 232.23,-318.89"/>
<text text-anchor="middle" x="340.5" y="-412.3" font-family="Sans Not-Rotated 14" font-size="14.00"> &#160;&#160;&#160;&#160;&#160;&#160;&#160;&#160;&#160;&#160;&#160;&#160;&#160;&#160;&#160;&#160;&#160;&#160;&#160;&#160;&#160;&#160;&#160;&#160;</text>
</g>
<!-- ZDBC_BEHAN -->
<g id="node14" class="node">
<title>ZDBC_BEHAN</title>
<polygon fill="#ffffff" stroke="black" points="430,-380 316,-380 316,-344 430,-344 430,-380"/>
<text text-anchor="middle" x="373" y="-358.3" font-family="Sans Not-Rotated 14" font-size="14.00">ZDBC_BEHAN</text>
</g>
<!-- RELEASE&#45;&gt;ZDBC_BEHAN -->
<g id="edge16" class="edge">
<title>RELEASE&#45;&gt;ZDBC_BEHAN</title>
<path fill="none" stroke="black" d="M331.04,-489.71C357.16,-479.38 389.24,-461.75 405,-434 412.9,-420.09 410.79,-412.92 405,-398 403.64,-394.49 401.74,-391.12 399.55,-387.95"/>
<polygon fill="black" stroke="black" points="402.2,-385.67 393.2,-380.07 396.75,-390.06 402.2,-385.67"/>
<text text-anchor="middle" x="393.5" y="-455.8" font-family="Sans Not-Rotated 14" font-size="14.00"> </text>
</g>
<!-- BILLED -->
<g id="node3" class="node">
<title>BILLED</title>
<polygon fill="#1946ba" stroke="black" points="197,-218 129,-218 129,-182 197,-182 197,-218"/>
<text text-anchor="middle" x="163" y="-196.3" font-family="Sans Not-Rotated 14" font-size="14.00" fill="white">BILLED</text>
</g>
<!-- STORNO -->
<g id="node7" class="node">
<title>STORNO</title>
<polygon fill="#ffffff" stroke="black" points="201.5,-127 124.5,-127 124.5,-91 201.5,-91 201.5,-127"/>
<text text-anchor="middle" x="163" y="-105.3" font-family="Sans Not-Rotated 14" font-size="14.00">STORNO</text>
</g>
<!-- BILLED&#45;&gt;STORNO -->
<g id="edge1" class="edge">
<title>BILLED&#45;&gt;STORNO</title>
<path fill="none" stroke="black" stroke-width="1.15" d="M163,-181.84C163,-169.28 163,-151.98 163,-137.5"/>
<polygon fill="black" stroke="black" stroke-width="1.15" points="166.5,-137.11 163,-127.11 159.5,-137.11 166.5,-137.11"/>
<text text-anchor="middle" x="183.5" y="-152.8" font-family="Sans Not-Rotated 14" font-size="14.00"> &#160;&#160;&#160;&#160;&#160;&#160;&#160;&#160;</text>
</g>
<!-- end -->
<g id="node20" class="node">
<title>end</title>
<ellipse fill="#ea4126" stroke="black" cx="500" cy="-109" rx="18" ry="18"/>
<ellipse fill="none" stroke="black" cx="500" cy="-109" rx="22" ry="22"/>
</g>
<!-- BILLED&#45;&gt;end -->
<g id="edge24" class="edge">
<title>BILLED&#45;&gt;end</title>
<path fill="none" stroke="black" stroke-dasharray="5,2" d="M182.76,-182C198.08,-169.17 218.29,-153.09 228,-149 309.43,-114.66 415.43,-109.6 467.81,-109.42"/>
<polygon fill="black" stroke="black" points="467.83,-112.92 477.84,-109.45 467.85,-105.92 467.83,-112.92"/>
<text text-anchor="middle" x="284.5" y="-152.8" font-family="Sans Not-Rotated 14" font-size="14.00"> &#160;&#160;&#160;&#160;&#160;&#160;&#160;&#160;&#160;&#160;&#160;&#160;&#160;&#160;&#160;&#160;&#160;&#160;&#160;&#160;&#160;&#160;&#160;&#160;</text>
</g>
<!-- EMPTY&#45;&gt;end -->
<g id="edge25" class="edge">
<title>EMPTY&#45;&gt;end</title>
<path fill="none" stroke="black" stroke-dasharray="5,2" d="M620.57,-343.85C622.8,-310.28 623.7,-234.62 593,-182 578.03,-156.34 550.04,-136.6 528.67,-124.33"/>
<polygon fill="black" stroke="black" points="530.12,-121.13 519.68,-119.38 526.75,-127.26 530.12,-121.13"/>
<text text-anchor="middle" x="621.5" y="-250.3" font-family="Sans Not-Rotated 14" font-size="14.00"> </text>
</g>
<!-- SET STATUS -->
<g id="node5" class="node">
<title>SET STATUS</title>
<polygon fill="#ffffff" stroke="black" points="410,-272 306,-272 306,-236 410,-236 410,-272"/>
<text text-anchor="middle" x="358" y="-250.3" font-family="Sans Not-Rotated 14" font-size="14.00">SET STATUS</text>
</g>
<!-- SET STATUS&#45;&gt;end -->
<g id="edge26" class="edge">
<title>SET STATUS&#45;&gt;end</title>
<path fill="none" stroke="black" stroke-dasharray="5,2" d="M355.4,-235.72C354.02,-220.33 354.39,-197.85 365,-182 389.05,-146.04 437.15,-126.69 468.95,-117.38"/>
<polygon fill="black" stroke="black" points="469.95,-120.73 478.66,-114.69 468.08,-113.98 469.95,-120.73"/>
<text text-anchor="middle" x="385.5" y="-196.3" font-family="Sans Not-Rotated 14" font-size="14.00"> &#160;&#160;&#160;&#160;&#160;&#160;&#160;&#160;</text>
</g>
<!-- DELETE -->
<g id="node6" class="node">
<title>DELETE</title>
<polygon fill="#ffffff" stroke="black" points="567,-326 495,-326 495,-290 567,-290 567,-326"/>
<text text-anchor="middle" x="531" y="-304.3" font-family="Sans Not-Rotated 14" font-size="14.00">DELETE</text>
</g>
<!-- DELETE&#45;&gt;end -->
<g id="edge27" class="edge">
<title>DELETE&#45;&gt;end</title>
<path fill="none" stroke="black" stroke-dasharray="5,2" d="M528.3,-289.86C523.07,-256.64 511.49,-183.05 504.88,-141.02"/>
<polygon fill="black" stroke="black" points="508.33,-140.39 503.31,-131.06 501.41,-141.48 508.33,-140.39"/>
<text text-anchor="middle" x="552.5" y="-196.3" font-family="Sans Not-Rotated 14" font-size="14.00"> &#160;&#160;&#160;&#160;&#160;&#160;&#160;&#160;&#160;&#160;&#160;&#160;&#160;&#160;&#160;</text>
</g>
<!-- STORNO&#45;&gt;BILLED -->
<g id="edge28" class="edge">
<title>STORNO&#45;&gt;BILLED</title>
<path fill="none" stroke="black" stroke-width="1.07" d="M135.65,-127.25C128.57,-133.2 121.86,-140.54 118,-149 113.74,-158.32 117.69,-167.13 124.72,-174.68"/>
<polygon fill="black" stroke="black" stroke-width="1.07" points="122.82,-177.67 132.59,-181.78 127.51,-172.48 122.82,-177.67"/>
<text text-anchor="middle" x="138.5" y="-152.8" font-family="Sans Not-Rotated 14" font-size="14.00"> &#160;&#160;&#160;&#160;&#160;&#160;&#160;&#160;</text>
</g>
<!-- REJECT -->
<g id="node8" class="node">
<title>REJECT</title>
<polygon fill="#ffffff" stroke="black" points="115,-36 47,-36 47,0 115,0 115,-36"/>
<text text-anchor="middle" x="81" y="-14.3" font-family="Sans Not-Rotated 14" font-size="14.00">REJECT</text>
</g>
<!-- STORNO&#45;&gt;REJECT -->
<g id="edge13" class="edge">
<title>STORNO&#45;&gt;REJECT</title>
<path fill="none" stroke="black" stroke-width="1.08" d="M147.19,-90.84C134.82,-77.42 117.47,-58.58 103.63,-43.56"/>
<polygon fill="black" stroke="black" stroke-width="1.08" points="106.11,-41.09 96.76,-36.11 100.96,-45.83 106.11,-41.09"/>
<text text-anchor="middle" x="147.5" y="-57.8" font-family="Sans Not-Rotated 14" font-size="14.00"> &#160;&#160;&#160;&#160;&#160;&#160;&#160;&#160;</text>
</g>
<!-- REJECT&#45;&gt;BILLED -->
<g id="edge29" class="edge">
<title>REJECT&#45;&gt;BILLED</title>
<path fill="none" stroke="black" stroke-width="1.05" d="M75.03,-36.25C68.19,-59.09 59.65,-100.07 74,-131 83.35,-151.16 102.09,-166.88 119.98,-178.09"/>
<polygon fill="black" stroke="black" stroke-width="1.05" points="118.26,-181.14 128.64,-183.24 121.83,-175.12 118.26,-181.14"/>
<text text-anchor="middle" x="94.5" y="-105.3" font-family="Sans Not-Rotated 14" font-size="14.00"> &#160;&#160;&#160;&#160;&#160;&#160;&#160;&#160;</text>
</g>
<!-- CODE ERROR&#45;&gt;REOPEN -->
<g id="edge30" class="edge">
<title>CODE ERROR&#45;&gt;REOPEN</title>
<path fill="none" stroke="black" stroke-width="1" d="M76.14,-434.18C69.14,-451.07 60,-477.77 60,-502 60,-678 60,-678 60,-678 60,-704.16 80.35,-725.45 100.65,-740.18"/>
<polygon fill="black" stroke="black" stroke-width="1" points="98.76,-743.13 108.99,-745.89 102.72,-737.35 98.76,-743.13"/>
<text text-anchor="middle" x="62.5" y="-586.3" font-family="Sans Not-Rotated 14" font-size="14.00"> </text>
</g>
<!-- CODE ERROR&#45;&gt;RELEASE -->
<g id="edge31" class="edge">
<title>CODE ERROR&#45;&gt;RELEASE</title>
<path fill="none" stroke="black" stroke-width="1" d="M125.72,-434.13C158.99,-447.79 205.69,-466.97 240.97,-481.46"/>
<polygon fill="black" stroke="black" stroke-width="1" points="240.02,-484.85 250.6,-485.41 242.68,-478.37 240.02,-484.85"/>
<text text-anchor="middle" x="201.5" y="-455.8" font-family="Sans Not-Rotated 14" font-size="14.00"> </text>
</g>
<!-- CODE NOK&#45;&gt;REOPEN -->
<g id="edge34" class="edge">
<title>CODE NOK&#45;&gt;REOPEN</title>
<path fill="none" stroke="black" stroke-width="1.01" d="M181.53,-434.09C163.27,-449.55 141,-474.11 141,-502 141,-678 141,-678 141,-678 141,-697.25 141,-718.95 141,-735.6"/>
<polygon fill="black" stroke="black" stroke-width="1.01" points="137.5,-735.74 141,-745.74 144.5,-735.74 137.5,-735.74"/>
<text text-anchor="middle" x="150.5" y="-586.3" font-family="Sans Not-Rotated 14" font-size="14.00"> &#160;&#160;&#160;</text>
</g>
<!-- CODE NOK&#45;&gt;BILLED -->
<g id="edge32" class="edge">
<title>CODE NOK&#45;&gt;BILLED</title>
<path fill="none" stroke="black" stroke-width="1.02" d="M176.56,-397.86C153.78,-382.31 123.48,-357.1 110,-326 95.01,-291.41 119.43,-251.26 139.87,-225.99"/>
<polygon fill="black" stroke="black" stroke-width="1.02" points="142.82,-227.92 146.59,-218.02 137.47,-223.41 142.82,-227.92"/>
<text text-anchor="middle" x="119.5" y="-304.3" font-family="Sans Not-Rotated 14" font-size="14.00"> &#160;&#160;&#160;</text>
</g>
<!-- CODE NOK&#45;&gt;SET STATUS -->
<g id="edge3" class="edge">
<title>CODE NOK&#45;&gt;SET STATUS</title>
<path fill="none" stroke="black" stroke-width="1.02" d="M212.68,-397.97C226.64,-367.6 256.37,-305.8 274,-290 280.74,-283.96 288.67,-278.87 296.92,-274.61"/>
<polygon fill="black" stroke="black" stroke-width="1.02" points="298.43,-277.77 305.95,-270.31 295.42,-271.45 298.43,-277.77"/>
<text text-anchor="middle" x="247.5" y="-358.3" font-family="Sans Not-Rotated 14" font-size="14.00"> &#160;&#160;&#160;</text>
</g>
<!-- CODE NOK&#45;&gt;DELETE -->
<g id="edge35" class="edge">
<title>CODE NOK&#45;&gt;DELETE</title>
<path fill="none" stroke="black" stroke-width="1.01" d="M251.75,-401C256.53,-399.86 261.35,-398.83 266,-398 315.17,-389.26 447.79,-406.68 490,-380 505.89,-369.96 516.3,-351.38 522.65,-335.75"/>
<polygon fill="black" stroke="black" stroke-width="1.01" points="526.06,-336.61 526.26,-326.02 519.5,-334.18 526.06,-336.61"/>
<text text-anchor="middle" x="527.5" y="-358.3" font-family="Sans Not-Rotated 14" font-size="14.00"> &#160;&#160;&#160;</text>
</g>
<!-- CODE NOK&#45;&gt;CODE OK -->
<g id="edge33" class="edge">
<title>CODE NOK&#45;&gt;CODE OK</title>
<path fill="none" stroke="black" stroke-width="1.02" d="M200.98,-397.97C197.05,-381.3 191,-355.65 186.41,-336.16"/>
<polygon fill="black" stroke="black" stroke-width="1.02" points="189.79,-335.27 184.09,-326.34 182.98,-336.88 189.79,-335.27"/>
<text text-anchor="middle" x="205.5" y="-358.3" font-family="Sans Not-Rotated 14" font-size="14.00"> &#160;&#160;&#160;</text>
</g>
<!-- CODE OK&#45;&gt;REOPEN -->
<g id="edge9" class="edge">
<title>CODE OK&#45;&gt;REOPEN</title>
<path fill="none" stroke="black" stroke-width="1.17" d="M138.25,-324.24C85.08,-344.95 0,-383.09 0,-415 0,-678 0,-678 0,-678 0,-722.63 52.44,-744.43 93.36,-754.66"/>
<polygon fill="black" stroke="black" stroke-width="1.17" points="92.68,-758.09 103.21,-756.96 94.27,-751.28 92.68,-758.09"/>
<text text-anchor="middle" x="20.5" y="-542.8" font-family="Sans Not-Rotated 14" font-size="14.00"> &#160;&#160;&#160;&#160;&#160;&#160;&#160;&#160;</text>
</g>
<!-- CODE OK&#45;&gt;BILLED -->
<g id="edge4" class="edge">
<title>CODE OK&#45;&gt;BILLED</title>
<path fill="none" stroke="black" stroke-width="3.74" d="M170.38,-289.69C167.8,-284.2 165.35,-278 164,-272 160.8,-257.77 160.34,-241.52 160.78,-228.16"/>
<polygon fill="black" stroke="black" stroke-width="3.74" points="164.27,-228.32 161.28,-218.16 157.28,-227.97 164.27,-228.32"/>
<text text-anchor="middle" x="220.5" y="-250.3" font-family="Sans Not-Rotated 14" font-size="14.00"> &#160;&#160;&#160;&#160;&#160;&#160;&#160;&#160;&#160;&#160;&#160;&#160;&#160;&#160;&#160;&#160;&#160;&#160;&#160;&#160;&#160;&#160;&#160;&#160;</text>
</g>
<!-- MANUAL -->
<g id="node18" class="node">
<title>MANUAL</title>
<polygon fill="#ffffff" stroke="black" points="491.5,-218 414.5,-218 414.5,-182 491.5,-182 491.5,-218"/>
<text text-anchor="middle" x="453" y="-196.3" font-family="Sans Not-Rotated 14" font-size="14.00">MANUAL</text>
</g>
<!-- CODE OK&#45;&gt;MANUAL -->
<g id="edge8" class="edge">
<title>CODE OK&#45;&gt;MANUAL</title>
<path fill="none" stroke="black" stroke-width="1.01" d="M221.57,-299.04C237.89,-296.03 256.79,-292.68 274,-290 304.34,-285.27 385.38,-288.92 411,-272 413.23,-270.53 427.15,-246.61 438.37,-226.93"/>
<polygon fill="black" stroke="black" stroke-width="1.01" points="441.54,-228.44 443.43,-218.01 435.45,-224.98 441.54,-228.44"/>
<text text-anchor="middle" x="441.5" y="-250.3" font-family="Sans Not-Rotated 14" font-size="14.00"> &#160;&#160;&#160;</text>
</g>
<!-- NEW -->
<g id="node12" class="node">
<title>NEW</title>
<polygon fill="#1d2559" stroke="black" points="459,-869 405,-869 405,-833 459,-833 459,-869"/>
<text text-anchor="middle" x="432" y="-847.3" font-family="Sans Not-Rotated 14" font-size="14.00" fill="white">NEW</text>
</g>
<!-- NEW&#45;&gt;DELETE -->
<g id="edge12" class="edge">
<title>NEW&#45;&gt;DELETE</title>
<path fill="none" stroke="black" stroke-width="1.23" d="M459.06,-850.73C515.17,-850.7 639,-841.92 639,-765 639,-765 639,-765 639,-589 639,-530.23 609.31,-521.77 588,-467 570.23,-421.34 551.24,-367.56 540.28,-335.99"/>
<polygon fill="black" stroke="black" stroke-width="1.23" points="543.46,-334.48 536.88,-326.17 536.84,-336.77 543.46,-334.48"/>
<text text-anchor="middle" x="675.5" y="-586.3" font-family="Sans Not-Rotated 14" font-size="14.00"> &#160;&#160;&#160;&#160;&#160;&#160;&#160;&#160;&#160;&#160;&#160;&#160;&#160;&#160;&#160;</text>
</g>
<!-- CHANGE DIAGN -->
<g id="node13" class="node">
<title>CHANGE DIAGN</title>
<polygon fill="#7d7fd2" stroke="black" points="496.5,-782 367.5,-782 367.5,-746 496.5,-746 496.5,-782"/>
<text text-anchor="middle" x="432" y="-760.3" font-family="Sans Not-Rotated 14" font-size="14.00">CHANGE DIAGN</text>
</g>
<!-- NEW&#45;&gt;CHANGE DIAGN -->
<g id="edge15" class="edge">
<title>NEW&#45;&gt;CHANGE DIAGN</title>
<path fill="none" stroke="black" stroke-width="2.84" d="M432,-832.8C432,-821.16 432,-805.55 432,-792.24"/>
<polygon fill="black" stroke="black" stroke-width="2.84" points="435.5,-792.18 432,-782.18 428.5,-792.18 435.5,-792.18"/>
<text text-anchor="middle" x="468.5" y="-803.8" font-family="Sans Not-Rotated 14" font-size="14.00"> &#160;&#160;&#160;&#160;&#160;&#160;&#160;&#160;&#160;&#160;&#160;&#160;&#160;&#160;&#160;</text>
</g>
<!-- NEW&#45;&gt;CHANGE END -->
<g id="edge17" class="edge">
<title>NEW&#45;&gt;CHANGE END</title>
<path fill="none" stroke="black" stroke-width="1" d="M404.98,-833.93C387.4,-821.94 365.65,-803.89 354,-782 341.42,-758.36 339.01,-727.54 339.23,-705.6"/>
<polygon fill="black" stroke="black" stroke-width="1" points="342.74,-705.42 339.53,-695.32 335.74,-705.21 342.74,-705.42"/>
<text text-anchor="middle" x="356.5" y="-760.3" font-family="Sans Not-Rotated 14" font-size="14.00"> </text>
</g>
<!-- JOIN&#45;PAT -->
<g id="node16" class="node">
<title>JOIN&#45;PAT</title>
<polygon fill="#ffffff" stroke="black" points="608,-695 528,-695 528,-659 608,-659 608,-695"/>
<text text-anchor="middle" x="568" y="-673.3" font-family="Sans Not-Rotated 14" font-size="14.00">JOIN&#45;PAT</text>
</g>
<!-- NEW&#45;&gt;JOIN&#45;PAT -->
<g id="edge20" class="edge">
<title>NEW&#45;&gt;JOIN&#45;PAT</title>
<path fill="none" stroke="black" stroke-width="1" d="M459.07,-845.05C490.98,-837.59 542.51,-820.07 565,-782 578.66,-758.88 577.46,-727.54 574.06,-705.32"/>
<polygon fill="black" stroke="black" stroke-width="1" points="577.46,-704.46 572.27,-695.22 570.57,-705.68 577.46,-704.46"/>
<text text-anchor="middle" x="584.5" y="-760.3" font-family="Sans Not-Rotated 14" font-size="14.00"> &#160;&#160;&#160;</text>
</g>
<!-- NEW&#45;&gt;FIN -->
<g id="edge23" class="edge">
<title>NEW&#45;&gt;FIN</title>
<path fill="none" stroke="black" stroke-width="2.19" d="M404.84,-840.51C364.26,-824.61 289.63,-788.27 262,-728 244.95,-690.81 266.54,-644.59 284.01,-616.47"/>
<polygon fill="black" stroke="black" stroke-width="2.19" points="286.99,-618.31 289.49,-608.01 281.12,-614.51 286.99,-618.31"/>
<text text-anchor="middle" x="298.5" y="-716.8" font-family="Sans Not-Rotated 14" font-size="14.00"> &#160;&#160;&#160;&#160;&#160;&#160;&#160;&#160;&#160;&#160;&#160;&#160;&#160;&#160;&#160;</text>
</g>
<!-- CHANGE DIAGN&#45;&gt;CHANGE DIAGN -->
<g id="edge42" class="edge">
<title>CHANGE DIAGN&#45;&gt;CHANGE DIAGN</title>
<path fill="none" stroke="black" stroke-width="1.12" d="M496.68,-771.29C507.24,-770.24 514.5,-767.81 514.5,-764 514.5,-761.56 511.52,-759.68 506.6,-758.38"/>
<polygon fill="black" stroke="black" stroke-width="1.12" points="507.12,-754.91 496.68,-756.71 505.96,-761.82 507.12,-754.91"/>
<text text-anchor="middle" x="535" y="-760.3" font-family="Sans Not-Rotated 14" font-size="14.00"> &#160;&#160;&#160;&#160;&#160;&#160;&#160;&#160;</text>
</g>
<!-- CHANGE DIAGN&#45;&gt;CHANGE END -->
<g id="edge18" class="edge">
<title>CHANGE DIAGN&#45;&gt;CHANGE END</title>
<path fill="none" stroke="black" stroke-width="1" d="M413.58,-745.8C400.14,-733.24 381.74,-716.05 366.82,-702.12"/>
<polygon fill="black" stroke="black" stroke-width="1" points="369.08,-699.44 359.39,-695.18 364.31,-704.56 369.08,-699.44"/>
<text text-anchor="middle" x="393.5" y="-716.8" font-family="Sans Not-Rotated 14" font-size="14.00"> </text>
</g>
<!-- CHANGE DIAGN&#45;&gt;JOIN&#45;PAT -->
<g id="edge21" class="edge">
<title>CHANGE DIAGN&#45;&gt;JOIN&#45;PAT</title>
<path fill="none" stroke="black" stroke-width="1" d="M459.52,-745.8C480.35,-732.78 509.15,-714.78 531.84,-700.6"/>
<polygon fill="black" stroke="black" stroke-width="1" points="533.89,-703.44 540.52,-695.18 530.18,-697.51 533.89,-703.44"/>
<text text-anchor="middle" x="517.5" y="-716.8" font-family="Sans Not-Rotated 14" font-size="14.00"> &#160;&#160;&#160;</text>
</g>
<!-- CHANGE DIAGN&#45;&gt;FIN -->
<g id="edge22" class="edge">
<title>CHANGE DIAGN&#45;&gt;FIN</title>
<path fill="none" stroke="black" stroke-width="2.78" d="M431.69,-745.94C430.51,-723.94 425.67,-685.37 407,-659 389.91,-634.85 361.27,-617.15 338.22,-605.87"/>
<polygon fill="black" stroke="black" stroke-width="2.78" points="339.59,-602.65 329.05,-601.57 336.62,-608.99 339.59,-602.65"/>
<text text-anchor="middle" x="459.5" y="-673.3" font-family="Sans Not-Rotated 14" font-size="14.00"> &#160;&#160;&#160;&#160;&#160;&#160;&#160;&#160;&#160;&#160;&#160;&#160;&#160;&#160;&#160;</text>
</g>
<!-- ZDBC_BEHAN&#45;&gt;BILLED -->
<g id="edge36" class="edge">
<title>ZDBC_BEHAN&#45;&gt;BILLED</title>
<path fill="none" stroke="black" d="M359.88,-343.78C333.92,-309.72 278.38,-236.96 277,-236 256.28,-221.61 229.46,-212.99 207.04,-207.91"/>
<polygon fill="black" stroke="black" points="207.59,-204.45 197.09,-205.81 206.15,-211.3 207.59,-204.45"/>
<text text-anchor="middle" x="347.5" y="-304.3" font-family="Sans Not-Rotated 14" font-size="14.00"> </text>
</g>
<!-- CHANGE END&#45;&gt;FIN -->
<g id="edge37" class="edge">
<title>CHANGE END&#45;&gt;FIN</title>
<path fill="none" stroke="black" stroke-width="1" d="M333.11,-658.8C327.66,-646.93 320.32,-630.93 314.14,-617.45"/>
<polygon fill="black" stroke="black" stroke-width="1" points="317.23,-615.8 309.88,-608.18 310.87,-618.72 317.23,-615.8"/>
<text text-anchor="middle" x="325.5" y="-629.8" font-family="Sans Not-Rotated 14" font-size="14.00"> </text>
</g>
<!-- JOIN&#45;PAT&#45;&gt;FIN -->
<g id="edge39" class="edge">
<title>JOIN&#45;PAT&#45;&gt;FIN</title>
<path fill="none" stroke="black" stroke-width="1" d="M531.28,-658.91C507.81,-648.43 476.54,-635.3 448,-626 411.64,-614.15 369.01,-604.39 339.23,-598.21"/>
<polygon fill="black" stroke="black" stroke-width="1" points="339.77,-594.75 329.27,-596.18 338.37,-601.61 339.77,-594.75"/>
<text text-anchor="middle" x="497.5" y="-629.8" font-family="Sans Not-Rotated 14" font-size="14.00"> &#160;&#160;&#160;</text>
</g>
<!-- JOIN&#45;PAT&#45;&gt;end -->
<g id="edge38" class="edge">
<title>JOIN&#45;PAT&#45;&gt;end</title>
<path fill="none" stroke="black" stroke-dasharray="5,2" d="M577.15,-658.68C601.84,-609.96 667.08,-467.25 653,-344 644.6,-270.42 648.68,-247.44 614,-182 596.92,-149.76 558.38,-130.09 530.84,-119.63"/>
<polygon fill="black" stroke="black" points="531.85,-116.28 521.26,-116.19 529.48,-122.87 531.85,-116.28"/>
<text text-anchor="middle" x="663.5" y="-412.3" font-family="Sans Not-Rotated 14" font-size="14.00"> &#160;&#160;&#160;</text>
</g>
<!-- FIN&#45;&gt;RELEASE -->
<g id="edge5" class="edge">
<title>FIN&#45;&gt;RELEASE</title>
<path fill="none" stroke="black" stroke-width="4.05" d="M299.77,-571.8C298.27,-560.16 296.25,-544.55 294.52,-531.24"/>
<polygon fill="black" stroke="black" stroke-width="4.05" points="298.02,-530.64 293.22,-521.18 290.99,-531.55 298.02,-530.64"/>
<text text-anchor="middle" x="353.5" y="-542.8" font-family="Sans Not-Rotated 14" font-size="14.00"> &#160;&#160;&#160;&#160;&#160;&#160;&#160;&#160;&#160;&#160;&#160;&#160;&#160;&#160;&#160;&#160;&#160;&#160;&#160;&#160;&#160;&#160;&#160;&#160;</text>
</g>
<!-- MANUAL&#45;&gt;RELEASE -->
<g id="edge40" class="edge">
<title>MANUAL&#45;&gt;RELEASE</title>
<path fill="none" stroke="black" stroke-width="1.01" d="M454.07,-218.08C455.88,-258.02 456.36,-359.71 421,-434 413.53,-449.7 413.76,-456.38 400,-467 382.97,-480.14 360.87,-488.43 341.01,-493.61"/>
<polygon fill="black" stroke="black" stroke-width="1.01" points="340.08,-490.24 331.18,-495.99 341.72,-497.04 340.08,-490.24"/>
<text text-anchor="middle" x="456.5" y="-358.3" font-family="Sans Not-Rotated 14" font-size="14.00"> &#160;&#160;&#160;</text>
</g>
<!-- MANUAL&#45;&gt;end -->
<g id="edge41" class="edge">
<title>MANUAL&#45;&gt;end</title>
<path fill="none" stroke="black" stroke-dasharray="5,2" d="M462.06,-181.84C468.63,-169.41 477.65,-152.33 485.24,-137.95"/>
<polygon fill="black" stroke="black" points="488.41,-139.43 489.99,-128.96 482.22,-136.16 488.41,-139.43"/>
<text text-anchor="middle" x="488.5" y="-152.8" font-family="Sans Not-Rotated 14" font-size="14.00"> &#160;&#160;&#160;</text>
</g>
<!-- start -->
<g id="node19" class="node">
<title>start</title>
<ellipse fill="#95d600" stroke="black" cx="432" cy="-947.3" rx="27.1" ry="27.1"/>
<text text-anchor="middle" x="432" y="-943.6" font-family="Sans Not-Rotated 14" font-size="14.00">start</text>
</g>
<!-- start&#45;&gt;NEW -->
<g id="edge14" class="edge">
<title>start&#45;&gt;NEW</title>
<path fill="none" stroke="black" stroke-dasharray="5,2" d="M432,-919.78C432,-907.1 432,-891.93 432,-879.17"/>
<polygon fill="black" stroke="black" points="435.5,-879.12 432,-869.12 428.5,-879.12 435.5,-879.12"/>
<text text-anchor="middle" x="488.5" y="-890.8" font-family="Sans Not-Rotated 14" font-size="14.00"> &#160;&#160;&#160;&#160;&#160;&#160;&#160;&#160;&#160;&#160;&#160;&#160;&#160;&#160;&#160;&#160;&#160;&#160;&#160;&#160;&#160;&#160;&#160;&#160;</text>
</g>
</g>
</svg>
