<?xml version="1.0" encoding="UTF-8" standalone="no"?>
<!DOCTYPE svg PUBLIC "-//W3C//DTD SVG 1.1//EN"
 "http://www.w3.org/Graphics/SVG/1.1/DTD/svg11.dtd">
<!-- Generated by graphviz version 3.0.0 (20220226.1711)
 -->
<!-- Pages: 1 -->
<svg width="1087pt" height="983pt"
 viewBox="0.00 0.00 1087.00 982.60" xmlns="http://www.w3.org/2000/svg" xmlns:xlink="http://www.w3.org/1999/xlink">
<g id="graph0" class="graph" transform="scale(1 1) rotate(0) translate(4 978.6)">
<polygon fill="white" stroke="transparent" points="-4,4 -4,-978.6 1083,-978.6 1083,4 -4,4"/>
<!-- REOPEN -->
<g id="node1" class="node">
<title>REOPEN</title>
<polygon fill="#ffffff" stroke="black" points="417.5,-782 342.5,-782 342.5,-746 417.5,-746 417.5,-782"/>
<text text-anchor="middle" x="380" y="-760.3" font-family="Sans Not-Rotated 14" font-size="14.00">REOPEN</text>
</g>
<!-- DELETE -->
<g id="node6" class="node">
<title>DELETE</title>
<polygon fill="#ffffff" stroke="black" points="686,-326 614,-326 614,-290 686,-290 686,-326"/>
<text text-anchor="middle" x="650" y="-304.3" font-family="Sans Not-Rotated 14" font-size="14.00">DELETE</text>
</g>
<!-- REOPEN&#45;&gt;DELETE -->
<g id="edge27" class="edge">
<title>REOPEN&#45;&gt;DELETE</title>
<path fill="none" stroke="black" stroke-width="1.06" d="M384.37,-745.85C390.31,-724.42 402.27,-687.15 420,-659 447.83,-614.81 459.72,-606.42 499,-572 509.57,-562.74 514.52,-563.36 525,-554 563.29,-519.79 568.59,-506.82 601,-467 612.62,-452.73 616.41,-449.7 626,-434 639.89,-411.27 646.07,-405.97 652,-380 655.56,-364.4 652.46,-359.99 652,-344 651.93,-341.44 651.82,-338.79 651.7,-336.13"/>
<polygon fill="black" stroke="black" stroke-width="1.06" points="655.2,-335.88 651.17,-326.08 648.21,-336.25 655.2,-335.88"/>
<text text-anchor="middle" x="561.5" y="-542.8" font-family="Sans Not-Rotated 14" font-size="14.00"> &#160;&#160;&#160;&#160;&#160;&#160;&#160;&#160;</text>
</g>
<!-- CHANGE END -->
<g id="node15" class="node">
<title>CHANGE END</title>
<polygon fill="#ffffff" stroke="black" points="674.5,-695 561.5,-695 561.5,-659 674.5,-659 674.5,-695"/>
<text text-anchor="middle" x="618" y="-673.3" font-family="Sans Not-Rotated 14" font-size="14.00">CHANGE END</text>
</g>
<!-- REOPEN&#45;&gt;CHANGE END -->
<g id="edge19" class="edge">
<title>REOPEN&#45;&gt;CHANGE END</title>
<path fill="none" stroke="black" stroke-width="1" d="M417.74,-750.99C436.17,-744.75 458.51,-736.64 478,-728 490.91,-722.28 492.98,-718.46 506,-713 520.48,-706.92 536.4,-701.33 551.58,-696.48"/>
<polygon fill="black" stroke="black" stroke-width="1" points="552.92,-699.73 561.43,-693.41 550.84,-693.05 552.92,-699.73"/>
<text text-anchor="middle" x="508.5" y="-716.8" font-family="Sans Not-Rotated 14" font-size="14.00"> </text>
</g>
<!-- FIN -->
<g id="node17" class="node">
<title>FIN</title>
<polygon fill="#1f3b98" stroke="black" points="620,-608 566,-608 566,-572 620,-572 620,-608"/>
<text text-anchor="middle" x="593" y="-586.3" font-family="Sans Not-Rotated 14" font-size="14.00" fill="white">FIN</text>
</g>
<!-- REOPEN&#45;&gt;FIN -->
<g id="edge2" class="edge">
<title>REOPEN&#45;&gt;FIN</title>
<path fill="none" stroke="black" stroke-width="1.17" d="M409.6,-745.97C417.36,-740.76 425.4,-734.63 432,-728 458,-701.88 453.13,-686.2 478,-659 493.78,-641.73 499.18,-638.42 519,-626 530.69,-618.68 544.15,-611.87 556.36,-606.25"/>
<polygon fill="black" stroke="black" stroke-width="1.17" points="558.13,-609.29 565.83,-602.01 555.27,-602.91 558.13,-609.29"/>
<text text-anchor="middle" x="498.5" y="-673.3" font-family="Sans Not-Rotated 14" font-size="14.00"> &#160;&#160;&#160;&#160;&#160;&#160;&#160;&#160;</text>
</g>
<!-- RELEASE -->
<g id="node2" class="node">
<title>RELEASE</title>
<polygon fill="#1f3b98" stroke="black" points="462,-521 382,-521 382,-485 462,-485 462,-521"/>
<text text-anchor="middle" x="422" y="-499.3" font-family="Sans Not-Rotated 14" font-size="14.00" fill="white">RELEASE</text>
</g>
<!-- EMPTY -->
<g id="node4" class="node">
<title>EMPTY</title>
<polygon fill="#ffffff" stroke="black" points="608.5,-380 543.5,-380 543.5,-344 608.5,-344 608.5,-380"/>
<text text-anchor="middle" x="576" y="-358.3" font-family="Sans Not-Rotated 14" font-size="14.00">EMPTY</text>
</g>
<!-- RELEASE&#45;&gt;EMPTY -->
<g id="edge11" class="edge">
<title>RELEASE&#45;&gt;EMPTY</title>
<path fill="none" stroke="black" d="M462.06,-500.48C506.69,-496.36 576.82,-482.09 609,-434 617.9,-420.7 614.9,-412.87 609,-398 607.62,-394.54 605.73,-391.22 603.53,-388.1"/>
<polygon fill="black" stroke="black" points="606.21,-385.85 597.17,-380.34 600.8,-390.29 606.21,-385.85"/>
<text text-anchor="middle" x="594.5" y="-455.8" font-family="Sans Not-Rotated 14" font-size="14.00"> </text>
</g>
<!-- CODE ERROR -->
<g id="node9" class="node">
<title>CODE ERROR</title>
<polygon fill="#ffffff" stroke="black" points="600,-434 488,-434 488,-398 600,-398 600,-434"/>
<text text-anchor="middle" x="544" y="-412.3" font-family="Sans Not-Rotated 14" font-size="14.00">CODE ERROR</text>
</g>
<!-- RELEASE&#45;&gt;CODE ERROR -->
<g id="edge7" class="edge">
<title>RELEASE&#45;&gt;CODE ERROR</title>
<path fill="none" stroke="black" stroke-width="1" d="M447.75,-484.87C456.15,-479.23 465.5,-472.89 474,-467 486.54,-458.3 500.23,-448.58 512.14,-440.04"/>
<polygon fill="black" stroke="black" stroke-width="1" points="514.38,-442.74 520.46,-434.06 510.3,-437.05 514.38,-442.74"/>
<text text-anchor="middle" x="498.5" y="-455.8" font-family="Sans Not-Rotated 14" font-size="14.00"> </text>
</g>
<!-- CODE NOK -->
<g id="node10" class="node">
<title>CODE NOK</title>
<polygon fill="#ffffff" stroke="black" points="393.5,-434 300.5,-434 300.5,-398 393.5,-398 393.5,-434"/>
<text text-anchor="middle" x="347" y="-412.3" font-family="Sans Not-Rotated 14" font-size="14.00">CODE NOK</text>
</g>
<!-- RELEASE&#45;&gt;CODE NOK -->
<g id="edge6" class="edge">
<title>RELEASE&#45;&gt;CODE NOK</title>
<path fill="none" stroke="black" stroke-width="1.08" d="M387.67,-484.81C380.13,-479.85 372.71,-473.88 367,-467 361.4,-460.25 357.22,-451.72 354.17,-443.64"/>
<polygon fill="black" stroke="black" stroke-width="1.08" points="357.48,-442.51 350.99,-434.14 350.84,-444.74 357.48,-442.51"/>
<text text-anchor="middle" x="387.5" y="-455.8" font-family="Sans Not-Rotated 14" font-size="14.00"> &#160;&#160;&#160;&#160;&#160;&#160;&#160;&#160;</text>
</g>
<!-- CODE OK -->
<g id="node11" class="node">
<title>CODE OK</title>
<polygon fill="#1f3b98" stroke="black" points="210.5,-326 127.5,-326 127.5,-290 210.5,-290 210.5,-326"/>
<text text-anchor="middle" x="169" y="-304.3" font-family="Sans Not-Rotated 14" font-size="14.00" fill="white">CODE OK</text>
</g>
<!-- RELEASE&#45;&gt;CODE OK -->
<g id="edge10" class="edge">
<title>RELEASE&#45;&gt;CODE OK</title>
<path fill="none" stroke="black" stroke-width="3.95" d="M381.79,-496.44C319.39,-486.92 203.71,-465.45 178,-434 155.65,-406.67 158.02,-363.76 162.75,-336.01"/>
<polygon fill="black" stroke="black" stroke-width="3.95" points="166.19,-336.66 164.63,-326.18 159.31,-335.34 166.19,-336.66"/>
<text text-anchor="middle" x="234.5" y="-412.3" font-family="Sans Not-Rotated 14" font-size="14.00"> &#160;&#160;&#160;&#160;&#160;&#160;&#160;&#160;&#160;&#160;&#160;&#160;&#160;&#160;&#160;&#160;&#160;&#160;&#160;&#160;&#160;&#160;&#160;&#160;</text>
</g>
<!-- ZDBC_BEHAN -->
<g id="node14" class="node">
<title>ZDBC_BEHAN</title>
<polygon fill="#ffffff" stroke="black" points="129,-380 15,-380 15,-344 129,-344 129,-380"/>
<text text-anchor="middle" x="72" y="-358.3" font-family="Sans Not-Rotated 14" font-size="14.00">ZDBC_BEHAN</text>
</g>
<!-- RELEASE&#45;&gt;ZDBC_BEHAN -->
<g id="edge16" class="edge">
<title>RELEASE&#45;&gt;ZDBC_BEHAN</title>
<path fill="none" stroke="black" d="M381.72,-502.63C333.18,-501.93 250.16,-496.02 186,-467 146.74,-449.25 111.82,-412.76 91.28,-388.08"/>
<polygon fill="black" stroke="black" points="93.9,-385.75 84.88,-380.2 88.47,-390.17 93.9,-385.75"/>
<text text-anchor="middle" x="188.5" y="-455.8" font-family="Sans Not-Rotated 14" font-size="14.00"> </text>
</g>
<!-- MANUAL -->
<g id="node18" class="node">
<title>MANUAL</title>
<polygon fill="#ffffff" stroke="black" points="500.5,-218 423.5,-218 423.5,-182 500.5,-182 500.5,-218"/>
<text text-anchor="middle" x="462" y="-196.3" font-family="Sans Not-Rotated 14" font-size="14.00">MANUAL</text>
</g>
<!-- RELEASE&#45;&gt;MANUAL -->
<g id="edge25" class="edge">
<title>RELEASE&#45;&gt;MANUAL</title>
<path fill="none" stroke="black" stroke-width="1.01" d="M429.97,-484.87C432.27,-479.28 434.54,-472.98 436,-467 456.83,-381.5 461.07,-276.69 461.86,-228.11"/>
<polygon fill="black" stroke="black" stroke-width="1.01" points="465.36,-228.13 461.99,-218.08 458.36,-228.04 465.36,-228.13"/>
<text text-anchor="middle" x="465.5" y="-358.3" font-family="Sans Not-Rotated 14" font-size="14.00"> &#160;&#160;&#160;</text>
</g>
<!-- BILLED -->
<g id="node3" class="node">
<title>BILLED</title>
<polygon fill="#1946ba" stroke="black" points="171,-218 103,-218 103,-182 171,-182 171,-218"/>
<text text-anchor="middle" x="137" y="-196.3" font-family="Sans Not-Rotated 14" font-size="14.00" fill="white">BILLED</text>
</g>
<!-- STORNO -->
<g id="node7" class="node">
<title>STORNO</title>
<polygon fill="#ffffff" stroke="black" points="110.5,-131 33.5,-131 33.5,-95 110.5,-95 110.5,-131"/>
<text text-anchor="middle" x="72" y="-109.3" font-family="Sans Not-Rotated 14" font-size="14.00">STORNO</text>
</g>
<!-- BILLED&#45;&gt;STORNO -->
<g id="edge1" class="edge">
<title>BILLED&#45;&gt;STORNO</title>
<path fill="none" stroke="black" stroke-width="1.15" d="M102.7,-196.82C80,-193.38 51.79,-184.85 37,-164 31.21,-155.83 34.46,-146.88 40.87,-138.84"/>
<polygon fill="black" stroke="black" stroke-width="1.15" points="43.8,-140.84 48.11,-131.16 38.7,-136.03 43.8,-140.84"/>
<text text-anchor="middle" x="57.5" y="-152.8" font-family="Sans Not-Rotated 14" font-size="14.00"> &#160;&#160;&#160;&#160;&#160;&#160;&#160;&#160;</text>
</g>
<!-- JOIN&#45;PAT -->
<g id="node16" class="node">
<title>JOIN&#45;PAT</title>
<polygon fill="#ffffff" stroke="black" points="776,-131 696,-131 696,-95 776,-95 776,-131"/>
<text text-anchor="middle" x="736" y="-109.3" font-family="Sans Not-Rotated 14" font-size="14.00">JOIN&#45;PAT</text>
</g>
<!-- BILLED&#45;&gt;JOIN&#45;PAT -->
<g id="edge22" class="edge">
<title>BILLED&#45;&gt;JOIN&#45;PAT</title>
<path fill="none" stroke="black" stroke-width="1" d="M171.43,-195.3C225.81,-189.35 334.86,-177.01 427,-164 518.31,-151.11 624.33,-133.34 685.44,-122.82"/>
<polygon fill="black" stroke="black" stroke-width="1" points="686.33,-126.22 695.59,-121.07 685.14,-119.32 686.33,-126.22"/>
<text text-anchor="middle" x="523.5" y="-152.8" font-family="Sans Not-Rotated 14" font-size="14.00"> </text>
</g>
<!-- end -->
<g id="node20" class="node">
<title>end</title>
<ellipse fill="#ea4126" stroke="black" cx="576" cy="-22" rx="18" ry="18"/>
<ellipse fill="none" stroke="black" cx="576" cy="-22" rx="22" ry="22"/>
</g>
<!-- BILLED&#45;&gt;end -->
<g id="edge26" class="edge">
<title>BILLED&#45;&gt;end</title>
<path fill="none" stroke="black" stroke-dasharray="5,2" d="M152.03,-181.67C172.91,-158.64 212.9,-118.18 255,-95 351.05,-42.12 483.56,-28.06 543.83,-24.34"/>
<polygon fill="black" stroke="black" points="544.09,-27.83 553.88,-23.77 543.7,-20.84 544.09,-27.83"/>
<text text-anchor="middle" x="311.5" y="-109.3" font-family="Sans Not-Rotated 14" font-size="14.00"> &#160;&#160;&#160;&#160;&#160;&#160;&#160;&#160;&#160;&#160;&#160;&#160;&#160;&#160;&#160;&#160;&#160;&#160;&#160;&#160;&#160;&#160;&#160;&#160;</text>
</g>
<!-- EMPTY&#45;&gt;end -->
<g id="edge28" class="edge">
<title>EMPTY&#45;&gt;end</title>
<path fill="none" stroke="black" stroke-dasharray="5,2" d="M576,-343.74C576,-322.76 576,-286.28 576,-255 576,-255 576,-255 576,-112 576,-92.99 576,-71.69 576,-54.7"/>
<polygon fill="black" stroke="black" points="579.5,-54.22 576,-44.22 572.5,-54.22 579.5,-54.22"/>
<text text-anchor="middle" x="578.5" y="-196.3" font-family="Sans Not-Rotated 14" font-size="14.00"> </text>
</g>
<!-- SET STATUS -->
<g id="node5" class="node">
<title>SET STATUS</title>
<polygon fill="#ffffff" stroke="black" points="407,-272 303,-272 303,-236 407,-236 407,-272"/>
<text text-anchor="middle" x="355" y="-250.3" font-family="Sans Not-Rotated 14" font-size="14.00">SET STATUS</text>
</g>
<!-- SET STATUS&#45;&gt;end -->
<g id="edge29" class="edge">
<title>SET STATUS&#45;&gt;end</title>
<path fill="none" stroke="black" stroke-dasharray="5,2" d="M355.7,-235.93C357.37,-213.92 363.02,-175.33 382,-149 424.26,-90.36 502.99,-51.89 546.02,-34.22"/>
<polygon fill="black" stroke="black" points="547.41,-37.43 555.39,-30.47 544.8,-30.94 547.41,-37.43"/>
<text text-anchor="middle" x="402.5" y="-152.8" font-family="Sans Not-Rotated 14" font-size="14.00"> &#160;&#160;&#160;&#160;&#160;&#160;&#160;&#160;</text>
</g>
<!-- DELETE&#45;&gt;end -->
<g id="edge30" class="edge">
<title>DELETE&#45;&gt;end</title>
<path fill="none" stroke="black" stroke-dasharray="5,2" d="M646.46,-289.9C638,-249.76 615.44,-146.49 590,-62 589.05,-58.83 587.98,-55.54 586.88,-52.28"/>
<polygon fill="black" stroke="black" points="590.14,-50.99 583.53,-42.71 583.53,-53.3 590.14,-50.99"/>
<text text-anchor="middle" x="654.5" y="-152.8" font-family="Sans Not-Rotated 14" font-size="14.00"> &#160;&#160;&#160;&#160;&#160;&#160;&#160;&#160;&#160;&#160;&#160;&#160;&#160;&#160;&#160;</text>
</g>
<!-- STORNO&#45;&gt;BILLED -->
<g id="edge31" class="edge">
<title>STORNO&#45;&gt;BILLED</title>
<path fill="none" stroke="black" stroke-width="1.07" d="M80.57,-131.4C85.85,-141.37 93.1,-153.87 101,-164 103.79,-167.58 106.93,-171.14 110.17,-174.56"/>
<polygon fill="black" stroke="black" stroke-width="1.07" points="107.77,-177.11 117.31,-181.74 112.74,-172.18 107.77,-177.11"/>
<text text-anchor="middle" x="121.5" y="-152.8" font-family="Sans Not-Rotated 14" font-size="14.00"> &#160;&#160;&#160;&#160;&#160;&#160;&#160;&#160;</text>
</g>
<!-- REJECT -->
<g id="node8" class="node">
<title>REJECT</title>
<polygon fill="#ffffff" stroke="black" points="106,-40 38,-40 38,-4 106,-4 106,-40"/>
<text text-anchor="middle" x="72" y="-18.3" font-family="Sans Not-Rotated 14" font-size="14.00">REJECT</text>
</g>
<!-- STORNO&#45;&gt;REJECT -->
<g id="edge13" class="edge">
<title>STORNO&#45;&gt;REJECT</title>
<path fill="none" stroke="black" stroke-width="1.08" d="M72,-94.84C72,-82.28 72,-64.98 72,-50.5"/>
<polygon fill="black" stroke="black" stroke-width="1.08" points="75.5,-50.11 72,-40.11 68.5,-50.11 75.5,-50.11"/>
<text text-anchor="middle" x="92.5" y="-65.8" font-family="Sans Not-Rotated 14" font-size="14.00"> &#160;&#160;&#160;&#160;&#160;&#160;&#160;&#160;</text>
</g>
<!-- REJECT&#45;&gt;REOPEN -->
<g id="edge33" class="edge">
<title>REJECT&#45;&gt;REOPEN</title>
<path fill="none" stroke="black" stroke-width="1.02" d="M46.01,-40.17C25.38,-56.08 0,-81.79 0,-112 0,-678 0,-678 0,-678 0,-745.32 229.99,-759.34 332.12,-762.25"/>
<polygon fill="black" stroke="black" stroke-width="1.02" points="332.09,-765.75 342.17,-762.51 332.27,-758.75 332.09,-765.75"/>
<text text-anchor="middle" x="9.5" y="-412.3" font-family="Sans Not-Rotated 14" font-size="14.00"> &#160;&#160;&#160;</text>
</g>
<!-- REJECT&#45;&gt;BILLED -->
<g id="edge32" class="edge">
<title>REJECT&#45;&gt;BILLED</title>
<path fill="none" stroke="black" stroke-width="1.05" d="M96.97,-40.25C104.31,-46.38 111.77,-53.81 117,-62 142.12,-101.34 145.31,-117.44 142,-164 141.82,-166.57 141.56,-169.24 141.26,-171.91"/>
<polygon fill="black" stroke="black" stroke-width="1.05" points="137.77,-171.59 139.93,-181.96 144.71,-172.51 137.77,-171.59"/>
<text text-anchor="middle" x="163.5" y="-109.3" font-family="Sans Not-Rotated 14" font-size="14.00"> &#160;&#160;&#160;&#160;&#160;&#160;&#160;&#160;</text>
</g>
<!-- CODE ERROR&#45;&gt;REOPEN -->
<g id="edge34" class="edge">
<title>CODE ERROR&#45;&gt;REOPEN</title>
<path fill="none" stroke="black" stroke-width="1" d="M574.09,-434.17C580.11,-439.11 585.61,-445.07 589,-452 608.92,-492.72 613.04,-515.57 589,-554 579.3,-569.5 567.25,-561.91 552,-572 502.87,-604.5 491.29,-615.11 452,-659 429.96,-683.62 408.95,-715.24 395.37,-737.12"/>
<polygon fill="black" stroke="black" stroke-width="1" points="392.27,-735.49 390.03,-745.85 398.24,-739.14 392.27,-735.49"/>
<text text-anchor="middle" x="554.5" y="-586.3" font-family="Sans Not-Rotated 14" font-size="14.00"> </text>
</g>
<!-- CODE ERROR&#45;&gt;RELEASE -->
<g id="edge35" class="edge">
<title>CODE ERROR&#45;&gt;RELEASE</title>
<path fill="none" stroke="black" stroke-width="1" d="M533.85,-434.13C526.85,-444.75 516.71,-458.03 505,-467 495.11,-474.58 483.33,-480.83 471.8,-485.85"/>
<polygon fill="black" stroke="black" stroke-width="1" points="470.15,-482.74 462.22,-489.77 472.8,-489.22 470.15,-482.74"/>
<text text-anchor="middle" x="522.5" y="-455.8" font-family="Sans Not-Rotated 14" font-size="14.00"> </text>
</g>
<!-- CODE NOK&#45;&gt;REOPEN -->
<g id="edge38" class="edge">
<title>CODE NOK&#45;&gt;REOPEN</title>
<path fill="none" stroke="black" stroke-width="1.01" d="M300.34,-432.7C298.54,-433.16 296.76,-433.6 295,-434 265.93,-440.66 181.62,-429.54 162,-452 157.61,-457.02 159.92,-460.67 162,-467 200.29,-583.55 303.98,-691.95 353.28,-738.74"/>
<polygon fill="black" stroke="black" stroke-width="1.01" points="351.01,-741.42 360.7,-745.71 355.81,-736.31 351.01,-741.42"/>
<text text-anchor="middle" x="246.5" y="-586.3" font-family="Sans Not-Rotated 14" font-size="14.00"> &#160;&#160;&#160;</text>
</g>
<!-- CODE NOK&#45;&gt;BILLED -->
<g id="edge36" class="edge">
<title>CODE NOK&#45;&gt;BILLED</title>
<path fill="none" stroke="black" stroke-width="1.02" d="M342.12,-397.74C330.38,-357.33 299.62,-258.33 274,-236 248.42,-213.71 210.53,-205.29 181.08,-202.25"/>
<polygon fill="black" stroke="black" stroke-width="1.02" points="181.31,-198.76 171.05,-201.39 180.71,-205.73 181.31,-198.76"/>
<text text-anchor="middle" x="328.5" y="-304.3" font-family="Sans Not-Rotated 14" font-size="14.00"> &#160;&#160;&#160;</text>
</g>
<!-- CODE NOK&#45;&gt;SET STATUS -->
<g id="edge3" class="edge">
<title>CODE NOK&#45;&gt;SET STATUS</title>
<path fill="none" stroke="black" stroke-width="1.02" d="M347.86,-397.88C349.23,-370.35 351.95,-316.01 353.61,-282.85"/>
<polygon fill="black" stroke="black" stroke-width="1.02" points="357.12,-282.65 354.13,-272.48 350.13,-282.3 357.12,-282.65"/>
<text text-anchor="middle" x="360.5" y="-358.3" font-family="Sans Not-Rotated 14" font-size="14.00"> &#160;&#160;&#160;</text>
</g>
<!-- CODE NOK&#45;&gt;DELETE -->
<g id="edge39" class="edge">
<title>CODE NOK&#45;&gt;DELETE</title>
<path fill="none" stroke="black" stroke-width="1.01" d="M393.78,-408.91C469.07,-399.08 608.89,-380.75 610,-380 614.3,-377.09 626.85,-354.12 636.75,-335.09"/>
<polygon fill="black" stroke="black" stroke-width="1.01" points="639.88,-336.65 641.36,-326.16 633.66,-333.45 639.88,-336.65"/>
<text text-anchor="middle" x="641.5" y="-358.3" font-family="Sans Not-Rotated 14" font-size="14.00"> &#160;&#160;&#160;</text>
</g>
<!-- CODE NOK&#45;&gt;CODE OK -->
<g id="edge37" class="edge">
<title>CODE NOK&#45;&gt;CODE OK</title>
<path fill="none" stroke="black" stroke-width="1.02" d="M300.26,-400.57C285.32,-395.09 269.03,-388.16 255,-380 232.56,-366.95 210.04,-348.1 193.68,-333.1"/>
<polygon fill="black" stroke="black" stroke-width="1.02" points="195.86,-330.35 186.16,-326.09 191.09,-335.47 195.86,-330.35"/>
<text text-anchor="middle" x="264.5" y="-358.3" font-family="Sans Not-Rotated 14" font-size="14.00"> &#160;&#160;&#160;</text>
</g>
<!-- CODE OK&#45;&gt;REOPEN -->
<g id="edge9" class="edge">
<title>CODE OK&#45;&gt;REOPEN</title>
<path fill="none" stroke="black" stroke-width="1.17" d="M159.91,-326.41C146.51,-353.76 123,-408.81 123,-458.5 123,-678 123,-678 123,-678 123,-721.59 257.97,-746.64 332.29,-757.13"/>
<polygon fill="black" stroke="black" stroke-width="1.17" points="331.97,-760.62 342.35,-758.52 332.92,-753.69 331.97,-760.62"/>
<text text-anchor="middle" x="143.5" y="-542.8" font-family="Sans Not-Rotated 14" font-size="14.00"> &#160;&#160;&#160;&#160;&#160;&#160;&#160;&#160;</text>
</g>
<!-- CODE OK&#45;&gt;BILLED -->
<g id="edge4" class="edge">
<title>CODE OK&#45;&gt;BILLED</title>
<path fill="none" stroke="black" stroke-width="3.74" d="M134.86,-289.82C128.48,-284.97 122.67,-279.05 119,-272 111.75,-258.07 115.68,-241.06 121.7,-227.18"/>
<polygon fill="black" stroke="black" stroke-width="3.74" points="124.86,-228.67 126.08,-218.14 118.57,-225.61 124.86,-228.67"/>
<text text-anchor="middle" x="175.5" y="-250.3" font-family="Sans Not-Rotated 14" font-size="14.00"> &#160;&#160;&#160;&#160;&#160;&#160;&#160;&#160;&#160;&#160;&#160;&#160;&#160;&#160;&#160;&#160;&#160;&#160;&#160;&#160;&#160;&#160;&#160;&#160;</text>
</g>
<!-- CODE OK&#45;&gt;MANUAL -->
<g id="edge8" class="edge">
<title>CODE OK&#45;&gt;MANUAL</title>
<path fill="none" stroke="black" stroke-width="1.01" d="M202.41,-289.98C212.18,-284.6 222.72,-278.38 232,-272 252.54,-257.88 252.46,-246.64 275,-236 319.01,-215.23 374.3,-206.77 413.31,-203.34"/>
<polygon fill="black" stroke="black" stroke-width="1.01" points="413.67,-206.82 423.36,-202.53 413.11,-199.84 413.67,-206.82"/>
<text text-anchor="middle" x="284.5" y="-250.3" font-family="Sans Not-Rotated 14" font-size="14.00"> &#160;&#160;&#160;</text>
</g>
<!-- NEW -->
<g id="node12" class="node">
<title>NEW</title>
<polygon fill="#1d2559" stroke="black" points="844,-869 790,-869 790,-833 844,-833 844,-869"/>
<text text-anchor="middle" x="817" y="-847.3" font-family="Sans Not-Rotated 14" font-size="14.00" fill="white">NEW</text>
</g>
<!-- NEW&#45;&gt;DELETE -->
<g id="edge12" class="edge">
<title>NEW&#45;&gt;DELETE</title>
<path fill="none" stroke="black" stroke-width="1.23" d="M835.96,-832.74C840.44,-827.52 844.61,-821.46 847,-815 849.31,-808.75 847.11,-806.67 847,-800 845.67,-722.63 874.03,-518.81 835,-452 804.01,-398.95 764.73,-418.68 717,-380 699.89,-366.13 682.89,-348.05 670.29,-333.61"/>
<polygon fill="black" stroke="black" stroke-width="1.23" points="672.94,-331.32 663.78,-326.01 667.63,-335.88 672.94,-331.32"/>
<text text-anchor="middle" x="891.5" y="-586.3" font-family="Sans Not-Rotated 14" font-size="14.00"> &#160;&#160;&#160;&#160;&#160;&#160;&#160;&#160;&#160;&#160;&#160;&#160;&#160;&#160;&#160;</text>
</g>
<!-- CHANGE DIAGN -->
<g id="node13" class="node">
<title>CHANGE DIAGN</title>
<polygon fill="#7d7fd2" stroke="black" points="773.5,-782 644.5,-782 644.5,-746 773.5,-746 773.5,-782"/>
<text text-anchor="middle" x="709" y="-760.3" font-family="Sans Not-Rotated 14" font-size="14.00">CHANGE DIAGN</text>
</g>
<!-- NEW&#45;&gt;CHANGE DIAGN -->
<g id="edge15" class="edge">
<title>NEW&#45;&gt;CHANGE DIAGN</title>
<path fill="none" stroke="black" stroke-width="2.84" d="M795.14,-832.8C779.04,-820.13 756.94,-802.73 739.16,-788.74"/>
<polygon fill="black" stroke="black" stroke-width="2.84" points="740.85,-785.61 730.82,-782.18 736.52,-791.11 740.85,-785.61"/>
<text text-anchor="middle" x="806.5" y="-803.8" font-family="Sans Not-Rotated 14" font-size="14.00"> &#160;&#160;&#160;&#160;&#160;&#160;&#160;&#160;&#160;&#160;&#160;&#160;&#160;&#160;&#160;</text>
</g>
<!-- NEW&#45;&gt;CHANGE END -->
<g id="edge17" class="edge">
<title>NEW&#45;&gt;CHANGE END</title>
<path fill="none" stroke="black" stroke-width="1" d="M789.95,-848.7C748.33,-845.12 669.29,-831.75 630,-782 612.98,-760.45 611.87,-728.12 613.82,-705.23"/>
<polygon fill="black" stroke="black" stroke-width="1" points="617.31,-705.47 614.92,-695.15 610.35,-704.71 617.31,-705.47"/>
<text text-anchor="middle" x="632.5" y="-760.3" font-family="Sans Not-Rotated 14" font-size="14.00"> </text>
</g>
<!-- NEW&#45;&gt;JOIN&#45;PAT -->
<g id="edge20" class="edge">
<title>NEW&#45;&gt;JOIN&#45;PAT</title>
<path fill="none" stroke="black" stroke-width="1" d="M844.04,-846.22C885.24,-838.76 959,-818.01 959,-765 959,-765 959,-765 959,-199 959,-162.28 852.08,-135.66 786.31,-122.75"/>
<polygon fill="black" stroke="black" stroke-width="1" points="786.61,-119.25 776.13,-120.8 785.29,-126.12 786.61,-119.25"/>
<text text-anchor="middle" x="968.5" y="-499.3" font-family="Sans Not-Rotated 14" font-size="14.00"> &#160;&#160;&#160;</text>
</g>
<!-- NEW&#45;&gt;FIN -->
<g id="edge24" class="edge">
<title>NEW&#45;&gt;FIN</title>
<path fill="none" stroke="black" stroke-width="2.19" d="M789.7,-848.81C728.65,-844.42 582.89,-823.9 537,-728 518.63,-689.61 547.48,-643.54 570.13,-615.8"/>
<polygon fill="black" stroke="black" stroke-width="2.19" points="572.82,-618.04 576.61,-608.15 567.48,-613.52 572.82,-618.04"/>
<text text-anchor="middle" x="573.5" y="-716.8" font-family="Sans Not-Rotated 14" font-size="14.00"> &#160;&#160;&#160;&#160;&#160;&#160;&#160;&#160;&#160;&#160;&#160;&#160;&#160;&#160;&#160;</text>
</g>
<!-- NEW&#45;&gt;end -->
<g id="edge40" class="edge">
<title>NEW&#45;&gt;end</title>
<path fill="none" stroke="black" stroke-dasharray="5,2" d="M844.08,-849.77C896.34,-847.75 1006,-835.16 1006,-765 1006,-765 1006,-765 1006,-112 1006,-30.81 708.35,-23.11 608.34,-22.82"/>
<polygon fill="black" stroke="black" points="608.22,-19.32 598.21,-22.81 608.21,-26.32 608.22,-19.32"/>
<text text-anchor="middle" x="1042.5" y="-455.8" font-family="Sans Not-Rotated 14" font-size="14.00"> &#160;&#160;&#160;&#160;&#160;&#160;&#160;&#160;&#160;&#160;&#160;&#160;&#160;&#160;&#160;</text>
</g>
<!-- CHANGE DIAGN&#45;&gt;CHANGE DIAGN -->
<g id="edge47" class="edge">
<title>CHANGE DIAGN&#45;&gt;CHANGE DIAGN</title>
<path fill="none" stroke="black" stroke-width="1.12" d="M773.68,-771.29C784.24,-770.24 791.5,-767.81 791.5,-764 791.5,-761.56 788.52,-759.68 783.6,-758.38"/>
<polygon fill="black" stroke="black" stroke-width="1.12" points="784.12,-754.91 773.68,-756.71 782.96,-761.82 784.12,-754.91"/>
<text text-anchor="middle" x="812" y="-760.3" font-family="Sans Not-Rotated 14" font-size="14.00"> &#160;&#160;&#160;&#160;&#160;&#160;&#160;&#160;</text>
</g>
<!-- CHANGE DIAGN&#45;&gt;CHANGE END -->
<g id="edge18" class="edge">
<title>CHANGE DIAGN&#45;&gt;CHANGE END</title>
<path fill="none" stroke="black" stroke-width="1" d="M690.58,-745.8C677.14,-733.24 658.74,-716.05 643.82,-702.12"/>
<polygon fill="black" stroke="black" stroke-width="1" points="646.08,-699.44 636.39,-695.18 641.31,-704.56 646.08,-699.44"/>
<text text-anchor="middle" x="671.5" y="-716.8" font-family="Sans Not-Rotated 14" font-size="14.00"> </text>
</g>
<!-- CHANGE DIAGN&#45;&gt;JOIN&#45;PAT -->
<g id="edge21" class="edge">
<title>CHANGE DIAGN&#45;&gt;JOIN&#45;PAT</title>
<path fill="none" stroke="black" stroke-width="1" d="M754.48,-745.86C782.07,-732.2 812,-709.99 812,-678 812,-678 812,-678 812,-199 812,-173.54 792.81,-152.2 773.72,-137.28"/>
<polygon fill="black" stroke="black" stroke-width="1" points="775.72,-134.41 765.6,-131.28 771.57,-140.04 775.72,-134.41"/>
<text text-anchor="middle" x="821.5" y="-455.8" font-family="Sans Not-Rotated 14" font-size="14.00"> &#160;&#160;&#160;</text>
</g>
<!-- CHANGE DIAGN&#45;&gt;FIN -->
<g id="edge23" class="edge">
<title>CHANGE DIAGN&#45;&gt;FIN</title>
<path fill="none" stroke="black" stroke-width="2.78" d="M708.17,-745.76C706.39,-723.91 700.76,-685.85 683,-659 669.48,-638.55 647.66,-621.84 628.89,-610.11"/>
<polygon fill="black" stroke="black" stroke-width="2.78" points="630.63,-607.06 620.25,-604.91 627.02,-613.06 630.63,-607.06"/>
<text text-anchor="middle" x="735.5" y="-673.3" font-family="Sans Not-Rotated 14" font-size="14.00"> &#160;&#160;&#160;&#160;&#160;&#160;&#160;&#160;&#160;&#160;&#160;&#160;&#160;&#160;&#160;</text>
</g>
<!-- ZDBC_BEHAN&#45;&gt;BILLED -->
<g id="edge41" class="edge">
<title>ZDBC_BEHAN&#45;&gt;BILLED</title>
<path fill="none" stroke="black" d="M75.72,-343.77C81.44,-319.04 93.71,-272.46 112,-236 113.59,-232.83 115.45,-229.64 117.42,-226.54"/>
<polygon fill="black" stroke="black" points="120.41,-228.36 123.16,-218.13 114.63,-224.41 120.41,-228.36"/>
<text text-anchor="middle" x="93.5" y="-304.3" font-family="Sans Not-Rotated 14" font-size="14.00"> </text>
</g>
<!-- CHANGE END&#45;&gt;FIN -->
<g id="edge42" class="edge">
<title>CHANGE END&#45;&gt;FIN</title>
<path fill="none" stroke="black" stroke-width="1" d="M612.94,-658.8C609.48,-647.05 604.83,-631.24 600.89,-617.84"/>
<polygon fill="black" stroke="black" stroke-width="1" points="604.23,-616.78 598.05,-608.18 597.52,-618.76 604.23,-616.78"/>
<text text-anchor="middle" x="609.5" y="-629.8" font-family="Sans Not-Rotated 14" font-size="14.00"> </text>
</g>
<!-- JOIN&#45;PAT&#45;&gt;FIN -->
<g id="edge44" class="edge">
<title>JOIN&#45;PAT&#45;&gt;FIN</title>
<path fill="none" stroke="black" stroke-width="1" d="M736,-131.26C736,-148.43 736,-175.54 736,-199 736,-504 736,-504 736,-504 736,-553.23 672.61,-574.58 630.24,-583.36"/>
<polygon fill="black" stroke="black" stroke-width="1" points="629.39,-579.96 620.23,-585.28 630.71,-586.83 629.39,-579.96"/>
<text text-anchor="middle" x="745.5" y="-358.3" font-family="Sans Not-Rotated 14" font-size="14.00"> &#160;&#160;&#160;</text>
</g>
<!-- JOIN&#45;PAT&#45;&gt;end -->
<g id="edge43" class="edge">
<title>JOIN&#45;PAT&#45;&gt;end</title>
<path fill="none" stroke="black" stroke-dasharray="5,2" d="M707.88,-94.96C691.42,-85.11 670.17,-72.61 651,-62 635.77,-53.57 618.55,-44.58 604.45,-37.35"/>
<polygon fill="black" stroke="black" points="605.76,-34.09 595.26,-32.67 602.58,-40.33 605.76,-34.09"/>
<text text-anchor="middle" x="686.5" y="-65.8" font-family="Sans Not-Rotated 14" font-size="14.00"> &#160;&#160;&#160;</text>
</g>
<!-- FIN&#45;&gt;RELEASE -->
<g id="edge5" class="edge">
<title>FIN&#45;&gt;RELEASE</title>
<path fill="none" stroke="black" stroke-width="4.05" d="M566,-582.5C551.76,-579.17 533.98,-575.16 518,-572 494.56,-567.36 427.42,-572.25 412,-554 406.5,-547.49 406.55,-538.8 408.76,-530.49"/>
<polygon fill="black" stroke="black" stroke-width="4.05" points="412.1,-531.68 412.14,-521.07 405.43,-529.29 412.1,-531.68"/>
<text text-anchor="middle" x="468.5" y="-542.8" font-family="Sans Not-Rotated 14" font-size="14.00"> &#160;&#160;&#160;&#160;&#160;&#160;&#160;&#160;&#160;&#160;&#160;&#160;&#160;&#160;&#160;&#160;&#160;&#160;&#160;&#160;&#160;&#160;&#160;&#160;</text>
</g>
<!-- MANUAL&#45;&gt;RELEASE -->
<g id="edge45" class="edge">
<title>MANUAL&#45;&gt;RELEASE</title>
<path fill="none" stroke="black" stroke-width="1.01" d="M456.89,-218.42C449.3,-245.16 435.27,-298.05 429,-344 422.79,-389.51 421.71,-443.01 421.7,-474.62"/>
<polygon fill="black" stroke="black" stroke-width="1.01" points="418.2,-474.85 421.74,-484.84 425.2,-474.83 418.2,-474.85"/>
<text text-anchor="middle" x="438.5" y="-358.3" font-family="Sans Not-Rotated 14" font-size="14.00"> &#160;&#160;&#160;</text>
</g>
<!-- MANUAL&#45;&gt;end -->
<g id="edge46" class="edge">
<title>MANUAL&#45;&gt;end</title>
<path fill="none" stroke="black" stroke-dasharray="5,2" d="M473.26,-181.93C477,-176.23 481.19,-169.85 485,-164 510.97,-124.13 540.84,-77.74 559.07,-49.38"/>
<polygon fill="black" stroke="black" points="562.09,-51.14 564.55,-40.84 556.21,-47.36 562.09,-51.14"/>
<text text-anchor="middle" x="539.5" y="-109.3" font-family="Sans Not-Rotated 14" font-size="14.00"> &#160;&#160;&#160;</text>
</g>
<!-- start -->
<g id="node19" class="node">
<title>start</title>
<ellipse fill="#95d600" stroke="black" cx="817" cy="-947.3" rx="27.1" ry="27.1"/>
<text text-anchor="middle" x="817" y="-943.6" font-family="Sans Not-Rotated 14" font-size="14.00">start</text>
</g>
<!-- start&#45;&gt;NEW -->
<g id="edge14" class="edge">
<title>start&#45;&gt;NEW</title>
<path fill="none" stroke="black" stroke-dasharray="5,2" d="M817,-919.78C817,-907.1 817,-891.93 817,-879.17"/>
<polygon fill="black" stroke="black" points="820.5,-879.12 817,-869.12 813.5,-879.12 820.5,-879.12"/>
<text text-anchor="middle" x="873.5" y="-890.8" font-family="Sans Not-Rotated 14" font-size="14.00"> &#160;&#160;&#160;&#160;&#160;&#160;&#160;&#160;&#160;&#160;&#160;&#160;&#160;&#160;&#160;&#160;&#160;&#160;&#160;&#160;&#160;&#160;&#160;&#160;</text>
</g>
</g>
</svg>
