<?xml version="1.0" encoding="UTF-8" standalone="no"?>
<!DOCTYPE svg PUBLIC "-//W3C//DTD SVG 1.1//EN"
 "http://www.w3.org/Graphics/SVG/1.1/DTD/svg11.dtd">
<!-- Generated by graphviz version 3.0.0 (20220226.1711)
 -->
<!-- Pages: 1 -->
<svg width="713pt" height="896pt"
 viewBox="0.00 0.00 713.00 895.60" xmlns="http://www.w3.org/2000/svg" xmlns:xlink="http://www.w3.org/1999/xlink">
<g id="graph0" class="graph" transform="scale(1 1) rotate(0) translate(4 891.6)">
<polygon fill="white" stroke="transparent" points="-4,4 -4,-891.6 709,-891.6 709,4 -4,4"/>
<!-- REOPEN -->
<g id="node1" class="node">
<title>REOPEN</title>
<polygon fill="#ffffff" stroke="black" points="505.5,-587 430.5,-587 430.5,-551 505.5,-551 505.5,-587"/>
<text text-anchor="middle" x="468" y="-565.3" font-family="Sans Not-Rotated 14" font-size="14.00">REOPEN</text>
</g>
<!-- FIN -->
<g id="node17" class="node">
<title>FIN</title>
<polygon fill="#1f3b98" stroke="black" points="370,-500 316,-500 316,-464 370,-464 370,-500"/>
<text text-anchor="middle" x="343" y="-478.3" font-family="Sans Not-Rotated 14" font-size="14.00" fill="white">FIN</text>
</g>
<!-- REOPEN&#45;&gt;FIN -->
<g id="edge2" class="edge">
<title>REOPEN&#45;&gt;FIN</title>
<path fill="none" stroke="black" stroke-width="1.17" d="M439,-550.83C429.93,-545.3 419.96,-539.03 411,-533 398.48,-524.57 385.02,-514.83 373.42,-506.2"/>
<polygon fill="black" stroke="black" stroke-width="1.17" points="375.43,-503.34 365.33,-500.15 371.24,-508.94 375.43,-503.34"/>
<text text-anchor="middle" x="431.5" y="-521.8" font-family="Sans Not-Rotated 14" font-size="14.00"> &#160;&#160;&#160;&#160;&#160;&#160;&#160;&#160;</text>
</g>
<!-- RELEASE -->
<g id="node2" class="node">
<title>RELEASE</title>
<polygon fill="#1f3b98" stroke="black" points="370,-413 290,-413 290,-377 370,-377 370,-413"/>
<text text-anchor="middle" x="330" y="-391.3" font-family="Sans Not-Rotated 14" font-size="14.00" fill="white">RELEASE</text>
</g>
<!-- EMPTY -->
<g id="node4" class="node">
<title>EMPTY</title>
<polygon fill="#ffffff" stroke="black" points="451.5,-272 386.5,-272 386.5,-236 451.5,-236 451.5,-272"/>
<text text-anchor="middle" x="419" y="-250.3" font-family="Sans Not-Rotated 14" font-size="14.00">EMPTY</text>
</g>
<!-- RELEASE&#45;&gt;EMPTY -->
<g id="edge11" class="edge">
<title>RELEASE&#45;&gt;EMPTY</title>
<path fill="none" stroke="black" d="M364.94,-376.88C372.37,-371.95 379.59,-365.97 385,-359 402.5,-336.46 411.17,-304.56 415.34,-282.05"/>
<polygon fill="black" stroke="black" points="418.8,-282.58 417.01,-272.14 411.9,-281.42 418.8,-282.58"/>
<text text-anchor="middle" x="397.5" y="-347.8" font-family="Sans Not-Rotated 14" font-size="14.00"> </text>
</g>
<!-- CODE ERROR -->
<g id="node9" class="node">
<title>CODE ERROR</title>
<polygon fill="#ffffff" stroke="black" points="558,-326 446,-326 446,-290 558,-290 558,-326"/>
<text text-anchor="middle" x="502" y="-304.3" font-family="Sans Not-Rotated 14" font-size="14.00">CODE ERROR</text>
</g>
<!-- RELEASE&#45;&gt;CODE ERROR -->
<g id="edge7" class="edge">
<title>RELEASE&#45;&gt;CODE ERROR</title>
<path fill="none" stroke="black" stroke-width="1" d="M370.13,-381.19C387.1,-375.23 406.86,-367.56 424,-359 439.58,-351.22 455.94,-341.07 469.62,-331.96"/>
<polygon fill="black" stroke="black" stroke-width="1" points="471.88,-334.66 478.2,-326.15 467.95,-328.86 471.88,-334.66"/>
<text text-anchor="middle" x="453.5" y="-347.8" font-family="Sans Not-Rotated 14" font-size="14.00"> </text>
</g>
<!-- CODE NOK -->
<g id="node10" class="node">
<title>CODE NOK</title>
<polygon fill="#ffffff" stroke="black" points="225.5,-326 132.5,-326 132.5,-290 225.5,-290 225.5,-326"/>
<text text-anchor="middle" x="179" y="-304.3" font-family="Sans Not-Rotated 14" font-size="14.00">CODE NOK</text>
</g>
<!-- RELEASE&#45;&gt;CODE NOK -->
<g id="edge6" class="edge">
<title>RELEASE&#45;&gt;CODE NOK</title>
<path fill="none" stroke="black" stroke-width="1.08" d="M289.86,-393.04C260.73,-390.27 222.18,-382.05 197,-359 190.42,-352.98 186.24,-344.37 183.59,-335.99"/>
<polygon fill="black" stroke="black" stroke-width="1.08" points="186.92,-334.9 181.06,-326.07 180.14,-336.63 186.92,-334.9"/>
<text text-anchor="middle" x="217.5" y="-347.8" font-family="Sans Not-Rotated 14" font-size="14.00"> &#160;&#160;&#160;&#160;&#160;&#160;&#160;&#160;</text>
</g>
<!-- CODE OK -->
<g id="node11" class="node">
<title>CODE OK</title>
<polygon fill="#1f3b98" stroke="black" points="330.5,-326 247.5,-326 247.5,-290 330.5,-290 330.5,-326"/>
<text text-anchor="middle" x="289" y="-304.3" font-family="Sans Not-Rotated 14" font-size="14.00" fill="white">CODE OK</text>
</g>
<!-- RELEASE&#45;&gt;CODE OK -->
<g id="edge10" class="edge">
<title>RELEASE&#45;&gt;CODE OK</title>
<path fill="none" stroke="black" stroke-width="3.95" d="M289.89,-387.84C272.75,-383.01 254.35,-374.38 244,-359 237.91,-349.95 242.26,-340.85 250.23,-332.93"/>
<polygon fill="black" stroke="black" stroke-width="3.95" points="253.01,-335.17 258.38,-326.04 248.49,-329.83 253.01,-335.17"/>
<text text-anchor="middle" x="300.5" y="-347.8" font-family="Sans Not-Rotated 14" font-size="14.00"> &#160;&#160;&#160;&#160;&#160;&#160;&#160;&#160;&#160;&#160;&#160;&#160;&#160;&#160;&#160;&#160;&#160;&#160;&#160;&#160;&#160;&#160;&#160;&#160;</text>
</g>
<!-- ZDBC_BEHAN -->
<g id="node14" class="node">
<title>ZDBC_BEHAN</title>
<polygon fill="#ffffff" stroke="black" points="114,-326 0,-326 0,-290 114,-290 114,-326"/>
<text text-anchor="middle" x="57" y="-304.3" font-family="Sans Not-Rotated 14" font-size="14.00">ZDBC_BEHAN</text>
</g>
<!-- RELEASE&#45;&gt;ZDBC_BEHAN -->
<g id="edge16" class="edge">
<title>RELEASE&#45;&gt;ZDBC_BEHAN</title>
<path fill="none" stroke="black" d="M289.78,-386.52C259.08,-380.36 215.92,-370.76 179,-359 153.52,-350.88 125.89,-339.77 103.38,-330.07"/>
<polygon fill="black" stroke="black" points="104.64,-326.8 94.07,-326.02 101.84,-333.22 104.64,-326.8"/>
<text text-anchor="middle" x="181.5" y="-347.8" font-family="Sans Not-Rotated 14" font-size="14.00"> </text>
</g>
<!-- BILLED -->
<g id="node3" class="node">
<title>BILLED</title>
<polygon fill="#1946ba" stroke="black" points="156,-218 88,-218 88,-182 156,-182 156,-218"/>
<text text-anchor="middle" x="122" y="-196.3" font-family="Sans Not-Rotated 14" font-size="14.00" fill="white">BILLED</text>
</g>
<!-- STORNO -->
<g id="node7" class="node">
<title>STORNO</title>
<polygon fill="#ffffff" stroke="black" points="96.5,-127 19.5,-127 19.5,-91 96.5,-91 96.5,-127"/>
<text text-anchor="middle" x="58" y="-105.3" font-family="Sans Not-Rotated 14" font-size="14.00">STORNO</text>
</g>
<!-- BILLED&#45;&gt;STORNO -->
<g id="edge1" class="edge">
<title>BILLED&#45;&gt;STORNO</title>
<path fill="none" stroke="black" stroke-width="1.15" d="M95.62,-181.83C89.2,-176.69 82.81,-170.64 78,-164 72.21,-156 67.9,-146.13 64.81,-137.03"/>
<polygon fill="black" stroke="black" stroke-width="1.15" points="68.08,-135.75 61.81,-127.21 61.38,-137.8 68.08,-135.75"/>
<text text-anchor="middle" x="98.5" y="-152.8" font-family="Sans Not-Rotated 14" font-size="14.00"> &#160;&#160;&#160;&#160;&#160;&#160;&#160;&#160;</text>
</g>
<!-- end -->
<g id="node20" class="node">
<title>end</title>
<ellipse fill="#ea4126" stroke="black" cx="419" cy="-109" rx="18" ry="18"/>
<ellipse fill="none" stroke="black" cx="419" cy="-109" rx="22" ry="22"/>
</g>
<!-- BILLED&#45;&gt;end -->
<g id="edge22" class="edge">
<title>BILLED&#45;&gt;end</title>
<path fill="none" stroke="black" stroke-dasharray="5,2" d="M143.9,-181.85C159.11,-170.81 180.27,-157.05 201,-149 264.07,-124.49 343.45,-115.25 386.91,-111.87"/>
<polygon fill="black" stroke="black" points="387.18,-115.36 396.9,-111.14 386.67,-108.37 387.18,-115.36"/>
<text text-anchor="middle" x="257.5" y="-152.8" font-family="Sans Not-Rotated 14" font-size="14.00"> &#160;&#160;&#160;&#160;&#160;&#160;&#160;&#160;&#160;&#160;&#160;&#160;&#160;&#160;&#160;&#160;&#160;&#160;&#160;&#160;&#160;&#160;&#160;&#160;</text>
</g>
<!-- EMPTY&#45;&gt;end -->
<g id="edge23" class="edge">
<title>EMPTY&#45;&gt;end</title>
<path fill="none" stroke="black" stroke-dasharray="5,2" d="M419,-235.75C419,-212.33 419,-170.07 419,-141.05"/>
<polygon fill="black" stroke="black" points="422.5,-141.02 419,-131.02 415.5,-141.02 422.5,-141.02"/>
<text text-anchor="middle" x="421.5" y="-196.3" font-family="Sans Not-Rotated 14" font-size="14.00"> </text>
</g>
<!-- SET STATUS -->
<g id="node5" class="node">
<title>SET STATUS</title>
<polygon fill="#ffffff" stroke="black" points="281,-218 177,-218 177,-182 281,-182 281,-218"/>
<text text-anchor="middle" x="229" y="-196.3" font-family="Sans Not-Rotated 14" font-size="14.00">SET STATUS</text>
</g>
<!-- SET STATUS&#45;&gt;end -->
<g id="edge24" class="edge">
<title>SET STATUS&#45;&gt;end</title>
<path fill="none" stroke="black" stroke-dasharray="5,2" d="M275.62,-181.84C289.41,-176.45 304.44,-170.27 318,-164 343.4,-152.26 371.39,-137.11 391.45,-125.85"/>
<polygon fill="black" stroke="black" points="393.36,-128.79 400.35,-120.82 389.92,-122.7 393.36,-128.79"/>
<text text-anchor="middle" x="367.5" y="-152.8" font-family="Sans Not-Rotated 14" font-size="14.00"> &#160;&#160;&#160;&#160;&#160;&#160;&#160;&#160;</text>
</g>
<!-- DELETE -->
<g id="node6" class="node">
<title>DELETE</title>
<polygon fill="#ffffff" stroke="black" points="663,-641 591,-641 591,-605 663,-605 663,-641"/>
<text text-anchor="middle" x="627" y="-619.3" font-family="Sans Not-Rotated 14" font-size="14.00">DELETE</text>
</g>
<!-- DELETE&#45;&gt;end -->
<g id="edge25" class="edge">
<title>DELETE&#45;&gt;end</title>
<path fill="none" stroke="black" stroke-dasharray="5,2" d="M628.45,-604.76C629.92,-585.65 632,-553.89 632,-526.5 632,-526.5 632,-526.5 632,-199 632,-121.68 511.04,-110.35 451.43,-109.46"/>
<polygon fill="black" stroke="black" points="451.41,-105.96 441.39,-109.41 451.37,-112.96 451.41,-105.96"/>
<text text-anchor="middle" x="668.5" y="-391.3" font-family="Sans Not-Rotated 14" font-size="14.00"> &#160;&#160;&#160;&#160;&#160;&#160;&#160;&#160;&#160;&#160;&#160;&#160;&#160;&#160;&#160;</text>
</g>
<!-- REJECT -->
<g id="node8" class="node">
<title>REJECT</title>
<polygon fill="#ffffff" stroke="black" points="130,-36 62,-36 62,0 130,0 130,-36"/>
<text text-anchor="middle" x="96" y="-14.3" font-family="Sans Not-Rotated 14" font-size="14.00">REJECT</text>
</g>
<!-- STORNO&#45;&gt;REJECT -->
<g id="edge13" class="edge">
<title>STORNO&#45;&gt;REJECT</title>
<path fill="none" stroke="black" stroke-width="1.08" d="M63.79,-90.77C67.53,-80.06 72.68,-66.08 78,-54 79.25,-51.15 80.63,-48.21 82.05,-45.3"/>
<polygon fill="black" stroke="black" stroke-width="1.08" points="85.24,-46.75 86.61,-36.25 78.98,-43.6 85.24,-46.75"/>
<text text-anchor="middle" x="98.5" y="-57.8" font-family="Sans Not-Rotated 14" font-size="14.00"> &#160;&#160;&#160;&#160;&#160;&#160;&#160;&#160;</text>
</g>
<!-- REJECT&#45;&gt;BILLED -->
<g id="edge26" class="edge">
<title>REJECT&#45;&gt;BILLED</title>
<path fill="none" stroke="black" stroke-width="1.05" d="M110.02,-36.18C113.64,-41.57 117.06,-47.75 119,-54 131.3,-93.62 129.01,-142.31 125.82,-171.97"/>
<polygon fill="black" stroke="black" stroke-width="1.05" points="122.33,-171.65 124.62,-181.99 129.28,-172.48 122.33,-171.65"/>
<text text-anchor="middle" x="149.5" y="-105.3" font-family="Sans Not-Rotated 14" font-size="14.00"> &#160;&#160;&#160;&#160;&#160;&#160;&#160;&#160;</text>
</g>
<!-- CODE ERROR&#45;&gt;REOPEN -->
<g id="edge27" class="edge">
<title>CODE ERROR&#45;&gt;REOPEN</title>
<path fill="none" stroke="black" stroke-width="1" d="M504.96,-326.42C508.92,-352.57 514.68,-403.43 508,-446 502.68,-479.87 489.32,-517.08 479.49,-541.39"/>
<polygon fill="black" stroke="black" stroke-width="1" points="476.25,-540.08 475.66,-550.66 482.72,-542.75 476.25,-540.08"/>
<text text-anchor="middle" x="512.5" y="-434.8" font-family="Sans Not-Rotated 14" font-size="14.00"> </text>
</g>
<!-- CODE NOK&#45;&gt;BILLED -->
<g id="edge28" class="edge">
<title>CODE NOK&#45;&gt;BILLED</title>
<path fill="none" stroke="black" stroke-width="1.02" d="M149.49,-289.9C143.14,-284.9 137.11,-278.9 133,-272 125.22,-258.93 122.36,-242.21 121.49,-228.27"/>
<polygon fill="black" stroke="black" stroke-width="1.02" points="124.99,-228.15 121.17,-218.27 117.99,-228.38 124.99,-228.15"/>
<text text-anchor="middle" x="142.5" y="-250.3" font-family="Sans Not-Rotated 14" font-size="14.00"> &#160;&#160;&#160;</text>
</g>
<!-- CODE NOK&#45;&gt;SET STATUS -->
<g id="edge3" class="edge">
<title>CODE NOK&#45;&gt;SET STATUS</title>
<path fill="none" stroke="black" stroke-width="1.02" d="M167.29,-289.85C158.57,-274.75 149.78,-252.64 160,-236 162.74,-231.54 166.25,-227.62 170.23,-224.19"/>
<polygon fill="black" stroke="black" stroke-width="1.02" points="172.41,-226.93 178.37,-218.17 168.25,-221.3 172.41,-226.93"/>
<text text-anchor="middle" x="169.5" y="-250.3" font-family="Sans Not-Rotated 14" font-size="14.00"> &#160;&#160;&#160;</text>
</g>
<!-- CODE OK&#45;&gt;REOPEN -->
<g id="edge9" class="edge">
<title>CODE OK&#45;&gt;REOPEN</title>
<path fill="none" stroke="black" stroke-width="1.17" d="M330.82,-319.15C340.7,-321.47 351.21,-323.88 361,-326 401.29,-334.74 424.71,-313.1 452,-344 458.41,-351.26 464.51,-482.19 466.92,-540.44"/>
<polygon fill="black" stroke="black" stroke-width="1.17" points="463.43,-540.9 467.34,-550.75 470.43,-540.61 463.43,-540.9"/>
<text text-anchor="middle" x="483.5" y="-434.8" font-family="Sans Not-Rotated 14" font-size="14.00"> &#160;&#160;&#160;&#160;&#160;&#160;&#160;&#160;</text>
</g>
<!-- CODE OK&#45;&gt;BILLED -->
<g id="edge4" class="edge">
<title>CODE OK&#45;&gt;BILLED</title>
<path fill="none" stroke="black" stroke-width="3.74" d="M247.14,-294.07C227.1,-287.26 205.78,-278.91 198,-272 184.47,-259.99 191.37,-249.2 179,-236 174.73,-231.44 169.73,-227.25 164.51,-223.48"/>
<polygon fill="black" stroke="black" stroke-width="3.74" points="166.43,-220.56 156.18,-217.9 162.54,-226.37 166.43,-220.56"/>
<text text-anchor="middle" x="254.5" y="-250.3" font-family="Sans Not-Rotated 14" font-size="14.00"> &#160;&#160;&#160;&#160;&#160;&#160;&#160;&#160;&#160;&#160;&#160;&#160;&#160;&#160;&#160;&#160;&#160;&#160;&#160;&#160;&#160;&#160;&#160;&#160;</text>
</g>
<!-- MANUAL -->
<g id="node18" class="node">
<title>MANUAL</title>
<polygon fill="#ffffff" stroke="black" points="378.5,-218 301.5,-218 301.5,-182 378.5,-182 378.5,-218"/>
<text text-anchor="middle" x="340" y="-196.3" font-family="Sans Not-Rotated 14" font-size="14.00">MANUAL</text>
</g>
<!-- CODE OK&#45;&gt;MANUAL -->
<g id="edge8" class="edge">
<title>CODE OK&#45;&gt;MANUAL</title>
<path fill="none" stroke="black" stroke-width="1.01" d="M303.31,-289.88C307.45,-284.4 311.73,-278.15 315,-272 322.38,-258.12 328.35,-241.6 332.6,-227.99"/>
<polygon fill="black" stroke="black" stroke-width="1.01" points="336,-228.82 335.51,-218.24 329.29,-226.82 336,-228.82"/>
<text text-anchor="middle" x="339.5" y="-250.3" font-family="Sans Not-Rotated 14" font-size="14.00"> &#160;&#160;&#160;</text>
</g>
<!-- NEW -->
<g id="node12" class="node">
<title>NEW</title>
<polygon fill="#1d2559" stroke="black" points="519,-782 465,-782 465,-746 519,-746 519,-782"/>
<text text-anchor="middle" x="492" y="-760.3" font-family="Sans Not-Rotated 14" font-size="14.00" fill="white">NEW</text>
</g>
<!-- NEW&#45;&gt;DELETE -->
<g id="edge12" class="edge">
<title>NEW&#45;&gt;DELETE</title>
<path fill="none" stroke="black" stroke-width="1.23" d="M519.3,-752.26C532,-746.38 546.76,-738.19 558,-728 582.44,-705.85 602.22,-673.26 614.23,-650.48"/>
<polygon fill="black" stroke="black" stroke-width="1.23" points="617.45,-651.88 618.9,-641.38 611.22,-648.69 617.45,-651.88"/>
<text text-anchor="middle" x="607.5" y="-716.8" font-family="Sans Not-Rotated 14" font-size="14.00"> &#160;&#160;&#160;&#160;&#160;&#160;&#160;&#160;&#160;&#160;&#160;&#160;&#160;&#160;&#160;</text>
</g>
<!-- CHANGE DIAGN -->
<g id="node13" class="node">
<title>CHANGE DIAGN</title>
<polygon fill="#7d7fd2" stroke="black" points="432.5,-695 303.5,-695 303.5,-659 432.5,-659 432.5,-695"/>
<text text-anchor="middle" x="368" y="-673.3" font-family="Sans Not-Rotated 14" font-size="14.00">CHANGE DIAGN</text>
</g>
<!-- NEW&#45;&gt;CHANGE DIAGN -->
<g id="edge15" class="edge">
<title>NEW&#45;&gt;CHANGE DIAGN</title>
<path fill="none" stroke="black" stroke-width="2.84" d="M466.91,-745.8C448.08,-732.9 422.12,-715.1 401.52,-700.98"/>
<polygon fill="black" stroke="black" stroke-width="2.84" points="403.28,-697.94 393.06,-695.18 399.33,-703.72 403.28,-697.94"/>
<text text-anchor="middle" x="474.5" y="-716.8" font-family="Sans Not-Rotated 14" font-size="14.00"> &#160;&#160;&#160;&#160;&#160;&#160;&#160;&#160;&#160;&#160;&#160;&#160;&#160;&#160;&#160;</text>
</g>
<!-- CHANGE END -->
<g id="node15" class="node">
<title>CHANGE END</title>
<polygon fill="#ffffff" stroke="black" points="412.5,-587 299.5,-587 299.5,-551 412.5,-551 412.5,-587"/>
<text text-anchor="middle" x="356" y="-565.3" font-family="Sans Not-Rotated 14" font-size="14.00">CHANGE END</text>
</g>
<!-- NEW&#45;&gt;CHANGE END -->
<g id="edge17" class="edge">
<title>NEW&#45;&gt;CHANGE END</title>
<path fill="none" stroke="black" stroke-width="1" d="M464.92,-763.15C419.68,-761.75 329.71,-751.57 289,-695 265.47,-662.3 299.38,-620.34 326.93,-594.31"/>
<polygon fill="black" stroke="black" stroke-width="1" points="329.45,-596.74 334.47,-587.41 324.73,-591.58 329.45,-596.74"/>
<text text-anchor="middle" x="291.5" y="-673.3" font-family="Sans Not-Rotated 14" font-size="14.00"> </text>
</g>
<!-- JOIN&#45;PAT -->
<g id="node16" class="node">
<title>JOIN&#45;PAT</title>
<polygon fill="#ffffff" stroke="black" points="604,-587 524,-587 524,-551 604,-551 604,-587"/>
<text text-anchor="middle" x="564" y="-565.3" font-family="Sans Not-Rotated 14" font-size="14.00">JOIN&#45;PAT</text>
</g>
<!-- NEW&#45;&gt;JOIN&#45;PAT -->
<g id="edge19" class="edge">
<title>NEW&#45;&gt;JOIN&#45;PAT</title>
<path fill="none" stroke="black" stroke-width="1" d="M504.71,-745.76C508.37,-740.27 512.14,-734.05 515,-728 535.71,-684.13 550.42,-629.37 558.04,-597.19"/>
<polygon fill="black" stroke="black" stroke-width="1" points="561.5,-597.72 560.34,-587.19 554.68,-596.14 561.5,-597.72"/>
<text text-anchor="middle" x="549.5" y="-673.3" font-family="Sans Not-Rotated 14" font-size="14.00"> &#160;&#160;&#160;</text>
</g>
<!-- CHANGE DIAGN&#45;&gt;CHANGE DIAGN -->
<g id="edge33" class="edge">
<title>CHANGE DIAGN&#45;&gt;CHANGE DIAGN</title>
<path fill="none" stroke="black" stroke-width="1.12" d="M432.68,-684.29C443.24,-683.24 450.5,-680.81 450.5,-677 450.5,-674.56 447.52,-672.68 442.6,-671.38"/>
<polygon fill="black" stroke="black" stroke-width="1.12" points="443.12,-667.91 432.68,-669.71 441.96,-674.82 443.12,-667.91"/>
<text text-anchor="middle" x="471" y="-673.3" font-family="Sans Not-Rotated 14" font-size="14.00"> &#160;&#160;&#160;&#160;&#160;&#160;&#160;&#160;</text>
</g>
<!-- CHANGE DIAGN&#45;&gt;CHANGE END -->
<g id="edge18" class="edge">
<title>CHANGE DIAGN&#45;&gt;CHANGE END</title>
<path fill="none" stroke="black" stroke-width="1" d="M366.07,-658.97C364.19,-642.38 361.31,-616.88 359.11,-597.43"/>
<polygon fill="black" stroke="black" stroke-width="1" points="362.57,-596.88 357.96,-587.34 355.61,-597.67 362.57,-596.88"/>
<text text-anchor="middle" x="366.5" y="-619.3" font-family="Sans Not-Rotated 14" font-size="14.00"> </text>
</g>
<!-- CHANGE DIAGN&#45;&gt;JOIN&#45;PAT -->
<g id="edge20" class="edge">
<title>CHANGE DIAGN&#45;&gt;JOIN&#45;PAT</title>
<path fill="none" stroke="black" stroke-width="1" d="M399.49,-658.97C433.11,-640.79 486.5,-611.91 523.29,-592.02"/>
<polygon fill="black" stroke="black" stroke-width="1" points="525.13,-595 532.26,-587.16 521.8,-588.84 525.13,-595"/>
<text text-anchor="middle" x="505.5" y="-619.3" font-family="Sans Not-Rotated 14" font-size="14.00"> &#160;&#160;&#160;</text>
</g>
<!-- CHANGE DIAGN&#45;&gt;FIN -->
<g id="edge21" class="edge">
<title>CHANGE DIAGN&#45;&gt;FIN</title>
<path fill="none" stroke="black" stroke-width="2.78" d="M311.97,-658.9C277.95,-645.3 237.3,-622.54 217,-587 192.29,-543.75 260.77,-510.9 306.22,-494.53"/>
<polygon fill="black" stroke="black" stroke-width="2.78" points="307.51,-497.79 315.81,-491.2 305.21,-491.18 307.51,-497.79"/>
<text text-anchor="middle" x="253.5" y="-565.3" font-family="Sans Not-Rotated 14" font-size="14.00"> &#160;&#160;&#160;&#160;&#160;&#160;&#160;&#160;&#160;&#160;&#160;&#160;&#160;&#160;&#160;</text>
</g>
<!-- ZDBC_BEHAN&#45;&gt;BILLED -->
<g id="edge29" class="edge">
<title>ZDBC_BEHAN&#45;&gt;BILLED</title>
<path fill="none" stroke="black" d="M67.44,-289.97C77.85,-272.99 93.98,-246.7 106,-227.09"/>
<polygon fill="black" stroke="black" points="109.12,-228.7 111.37,-218.34 103.16,-225.04 109.12,-228.7"/>
<text text-anchor="middle" x="102.5" y="-250.3" font-family="Sans Not-Rotated 14" font-size="14.00"> </text>
</g>
<!-- CHANGE END&#45;&gt;FIN -->
<g id="edge30" class="edge">
<title>CHANGE END&#45;&gt;FIN</title>
<path fill="none" stroke="black" stroke-width="1" d="M353.37,-550.8C351.59,-539.16 349.2,-523.55 347.17,-510.24"/>
<polygon fill="black" stroke="black" stroke-width="1" points="350.6,-509.53 345.63,-500.18 343.68,-510.59 350.6,-509.53"/>
<text text-anchor="middle" x="353.5" y="-521.8" font-family="Sans Not-Rotated 14" font-size="14.00"> </text>
</g>
<!-- JOIN&#45;PAT&#45;&gt;end -->
<g id="edge31" class="edge">
<title>JOIN&#45;PAT&#45;&gt;end</title>
<path fill="none" stroke="black" stroke-dasharray="5,2" d="M571.2,-550.76C577.62,-533.82 586,-507.08 586,-483 586,-483 586,-483 586,-199 586,-138.55 499.73,-119.02 451.2,-112.82"/>
<polygon fill="black" stroke="black" points="451.51,-109.33 441.18,-111.65 450.71,-116.28 451.51,-109.33"/>
<text text-anchor="middle" x="595.5" y="-347.8" font-family="Sans Not-Rotated 14" font-size="14.00"> &#160;&#160;&#160;</text>
</g>
<!-- FIN&#45;&gt;RELEASE -->
<g id="edge5" class="edge">
<title>FIN&#45;&gt;RELEASE</title>
<path fill="none" stroke="black" stroke-width="4.05" d="M335.93,-463.83C333.95,-458.24 332.05,-451.95 331,-446 329.72,-438.76 329.18,-430.84 329.02,-423.49"/>
<polygon fill="black" stroke="black" stroke-width="4.05" points="332.57,-423.26 329.04,-413.25 325.48,-423.25 332.57,-423.26"/>
<text text-anchor="middle" x="387.5" y="-434.8" font-family="Sans Not-Rotated 14" font-size="14.00"> &#160;&#160;&#160;&#160;&#160;&#160;&#160;&#160;&#160;&#160;&#160;&#160;&#160;&#160;&#160;&#160;&#160;&#160;&#160;&#160;&#160;&#160;&#160;&#160;</text>
</g>
<!-- MANUAL&#45;&gt;RELEASE -->
<g id="edge32" class="edge">
<title>MANUAL&#45;&gt;RELEASE</title>
<path fill="none" stroke="black" stroke-width="1.01" d="M347.6,-218.13C349.74,-223.72 351.81,-230.02 353,-236 393.59,-440.08 363.41,-340.2 357,-359 355.91,-362.2 354.4,-365.33 352.64,-368.32"/>
<polygon fill="black" stroke="black" stroke-width="1.01" points="349.58,-366.6 346.81,-376.82 355.35,-370.56 349.58,-366.6"/>
<text text-anchor="middle" x="379.5" y="-304.3" font-family="Sans Not-Rotated 14" font-size="14.00"> &#160;&#160;&#160;</text>
</g>
<!-- start -->
<g id="node19" class="node">
<title>start</title>
<ellipse fill="#95d600" stroke="black" cx="492" cy="-860.3" rx="27.1" ry="27.1"/>
<text text-anchor="middle" x="492" y="-856.6" font-family="Sans Not-Rotated 14" font-size="14.00">start</text>
</g>
<!-- start&#45;&gt;NEW -->
<g id="edge14" class="edge">
<title>start&#45;&gt;NEW</title>
<path fill="none" stroke="black" stroke-dasharray="5,2" d="M492,-832.78C492,-820.1 492,-804.93 492,-792.17"/>
<polygon fill="black" stroke="black" points="495.5,-792.12 492,-782.12 488.5,-792.12 495.5,-792.12"/>
<text text-anchor="middle" x="548.5" y="-803.8" font-family="Sans Not-Rotated 14" font-size="14.00"> &#160;&#160;&#160;&#160;&#160;&#160;&#160;&#160;&#160;&#160;&#160;&#160;&#160;&#160;&#160;&#160;&#160;&#160;&#160;&#160;&#160;&#160;&#160;&#160;</text>
</g>
</g>
</svg>
