<?xml version="1.0" encoding="UTF-8" standalone="no"?>
<!DOCTYPE svg PUBLIC "-//W3C//DTD SVG 1.1//EN"
 "http://www.w3.org/Graphics/SVG/1.1/DTD/svg11.dtd">
<!-- Generated by graphviz version 3.0.0 (20220226.1711)
 -->
<!-- Pages: 1 -->
<svg width="1114pt" height="1136pt"
 viewBox="0.00 0.00 1114.00 1135.60" xmlns="http://www.w3.org/2000/svg" xmlns:xlink="http://www.w3.org/1999/xlink">
<g id="graph0" class="graph" transform="scale(1 1) rotate(0) translate(4 1131.6)">
<polygon fill="white" stroke="transparent" points="-4,4 -4,-1131.6 1110,-1131.6 1110,4 -4,4"/>
<!-- REOPEN -->
<g id="node1" class="node">
<title>REOPEN</title>
<polygon fill="#ffffff" stroke="black" points="640.5,-935 565.5,-935 565.5,-899 640.5,-899 640.5,-935"/>
<text text-anchor="middle" x="603" y="-913.3" font-family="Sans Not-Rotated 14" font-size="14.00">REOPEN</text>
</g>
<!-- DELETE -->
<g id="node6" class="node">
<title>DELETE</title>
<polygon fill="#ffffff" stroke="black" points="305,-848 233,-848 233,-812 305,-812 305,-848"/>
<text text-anchor="middle" x="269" y="-826.3" font-family="Sans Not-Rotated 14" font-size="14.00">DELETE</text>
</g>
<!-- REOPEN&#45;&gt;DELETE -->
<g id="edge20" class="edge">
<title>REOPEN&#45;&gt;DELETE</title>
<path fill="none" stroke="black" stroke-width="1.06" d="M565.43,-911.51C501,-903.68 374.47,-887.74 355,-881 336.17,-874.48 316.85,-863.68 301.3,-853.79"/>
<polygon fill="black" stroke="black" stroke-width="1.06" points="302.9,-850.65 292.62,-848.1 299.07,-856.51 302.9,-850.65"/>
<text text-anchor="middle" x="375.5" y="-869.8" font-family="Sans Not-Rotated 14" font-size="14.00"> &#160;&#160;&#160;&#160;&#160;&#160;&#160;&#160;</text>
</g>
<!-- CHANGE END -->
<g id="node15" class="node">
<title>CHANGE END</title>
<polygon fill="#ffffff" stroke="black" points="474.5,-848 361.5,-848 361.5,-812 474.5,-812 474.5,-848"/>
<text text-anchor="middle" x="418" y="-826.3" font-family="Sans Not-Rotated 14" font-size="14.00">CHANGE END</text>
</g>
<!-- REOPEN&#45;&gt;CHANGE END -->
<g id="edge27" class="edge">
<title>REOPEN&#45;&gt;CHANGE END</title>
<path fill="none" stroke="black" stroke-width="1" d="M565.23,-908.58C541.16,-902.98 509.76,-894 484,-881 470.06,-873.97 456.06,-863.9 444.57,-854.64"/>
<polygon fill="black" stroke="black" stroke-width="1" points="446.61,-851.79 436.68,-848.09 442.14,-857.17 446.61,-851.79"/>
<text text-anchor="middle" x="486.5" y="-869.8" font-family="Sans Not-Rotated 14" font-size="14.00"> </text>
</g>
<!-- FIN -->
<g id="node17" class="node">
<title>FIN</title>
<polygon fill="#1f3b98" stroke="black" points="429,-674 375,-674 375,-638 429,-638 429,-674"/>
<text text-anchor="middle" x="402" y="-652.3" font-family="Sans Not-Rotated 14" font-size="14.00" fill="white">FIN</text>
</g>
<!-- REOPEN&#45;&gt;FIN -->
<g id="edge2" class="edge">
<title>REOPEN&#45;&gt;FIN</title>
<path fill="none" stroke="black" stroke-width="1.17" d="M600.3,-898.83C595.45,-871.69 583.39,-817.96 559,-779 529.31,-731.57 513.37,-724.75 468,-692 458.74,-685.32 448.04,-679.09 437.99,-673.8"/>
<polygon fill="black" stroke="black" stroke-width="1.17" points="439.5,-670.64 429,-669.21 436.32,-676.87 439.5,-670.64"/>
<text text-anchor="middle" x="587.5" y="-782.8" font-family="Sans Not-Rotated 14" font-size="14.00"> &#160;&#160;&#160;&#160;&#160;&#160;&#160;&#160;</text>
</g>
<!-- RELEASE -->
<g id="node2" class="node">
<title>RELEASE</title>
<polygon fill="#1f3b98" stroke="black" points="533,-587 453,-587 453,-551 533,-551 533,-587"/>
<text text-anchor="middle" x="493" y="-565.3" font-family="Sans Not-Rotated 14" font-size="14.00" fill="white">RELEASE</text>
</g>
<!-- RELEASE&#45;&gt;REOPEN -->
<g id="edge12" class="edge">
<title>RELEASE&#45;&gt;REOPEN</title>
<path fill="none" stroke="black" stroke-width="1.02" d="M533.1,-580C562.29,-589.6 599.76,-607.31 618,-638 665.93,-718.63 632.57,-836.77 613.63,-889.21"/>
<polygon fill="black" stroke="black" stroke-width="1.02" points="610.27,-888.2 610.06,-898.8 616.83,-890.65 610.27,-888.2"/>
<text text-anchor="middle" x="651.5" y="-739.3" font-family="Sans Not-Rotated 14" font-size="14.00"> &#160;&#160;&#160;</text>
</g>
<!-- EMPTY -->
<g id="node4" class="node">
<title>EMPTY</title>
<polygon fill="#ffffff" stroke="black" points="1017.5,-446 952.5,-446 952.5,-410 1017.5,-410 1017.5,-446"/>
<text text-anchor="middle" x="985" y="-424.3" font-family="Sans Not-Rotated 14" font-size="14.00">EMPTY</text>
</g>
<!-- RELEASE&#45;&gt;EMPTY -->
<g id="edge14" class="edge">
<title>RELEASE&#45;&gt;EMPTY</title>
<path fill="none" stroke="black" d="M533.25,-567.4C634.49,-565.09 896.26,-553.93 961,-500 973.92,-489.24 979.91,-471.26 982.67,-456.09"/>
<polygon fill="black" stroke="black" points="986.14,-456.55 984.12,-446.15 979.22,-455.54 986.14,-456.55"/>
<text text-anchor="middle" x="930.5" y="-521.8" font-family="Sans Not-Rotated 14" font-size="14.00"> </text>
</g>
<!-- SET STATUS -->
<g id="node5" class="node">
<title>SET STATUS</title>
<polygon fill="#ffffff" stroke="black" points="833,-131 729,-131 729,-95 833,-95 833,-131"/>
<text text-anchor="middle" x="781" y="-109.3" font-family="Sans Not-Rotated 14" font-size="14.00">SET STATUS</text>
</g>
<!-- RELEASE&#45;&gt;SET STATUS -->
<g id="edge15" class="edge">
<title>RELEASE&#45;&gt;SET STATUS</title>
<path fill="none" stroke="black" stroke-width="1" d="M533.24,-563.08C638.46,-550.03 914.61,-514.55 928,-500 965.71,-459.01 937,-430.7 937,-375 937,-375 937,-375 937,-199 937,-154.22 886.82,-132.89 843.38,-122.82"/>
<polygon fill="black" stroke="black" stroke-width="1" points="843.89,-119.35 833.38,-120.66 842.42,-126.19 843.89,-119.35"/>
<text text-anchor="middle" x="946.5" y="-326.8" font-family="Sans Not-Rotated 14" font-size="14.00"> &#160;&#160;&#160;</text>
</g>
<!-- CODE ERROR -->
<g id="node9" class="node">
<title>CODE ERROR</title>
<polygon fill="#ffffff" stroke="black" points="710,-500 598,-500 598,-464 710,-464 710,-500"/>
<text text-anchor="middle" x="654" y="-478.3" font-family="Sans Not-Rotated 14" font-size="14.00">CODE ERROR</text>
</g>
<!-- RELEASE&#45;&gt;CODE ERROR -->
<g id="edge7" class="edge">
<title>RELEASE&#45;&gt;CODE ERROR</title>
<path fill="none" stroke="black" stroke-width="1" d="M512.1,-550.78C524.51,-540.26 541.41,-527.12 558,-518 567.64,-512.7 578.24,-507.91 588.78,-503.7"/>
<polygon fill="black" stroke="black" stroke-width="1" points="590.33,-506.86 598.4,-500 587.81,-500.32 590.33,-506.86"/>
<text text-anchor="middle" x="560.5" y="-521.8" font-family="Sans Not-Rotated 14" font-size="14.00"> </text>
</g>
<!-- CODE NOK -->
<g id="node10" class="node">
<title>CODE NOK</title>
<polygon fill="#ffffff" stroke="black" points="859.5,-500 766.5,-500 766.5,-464 859.5,-464 859.5,-500"/>
<text text-anchor="middle" x="813" y="-478.3" font-family="Sans Not-Rotated 14" font-size="14.00">CODE NOK</text>
</g>
<!-- RELEASE&#45;&gt;CODE NOK -->
<g id="edge6" class="edge">
<title>RELEASE&#45;&gt;CODE NOK</title>
<path fill="none" stroke="black" stroke-width="1.08" d="M533.12,-554.96C566.39,-544.36 615.02,-529.35 658,-518 690.33,-509.46 726.79,-501.16 756.23,-494.79"/>
<polygon fill="black" stroke="black" stroke-width="1.08" points="757.29,-498.14 766.33,-492.62 755.81,-491.3 757.29,-498.14"/>
<text text-anchor="middle" x="678.5" y="-521.8" font-family="Sans Not-Rotated 14" font-size="14.00"> &#160;&#160;&#160;&#160;&#160;&#160;&#160;&#160;</text>
</g>
<!-- CODE OK -->
<g id="node11" class="node">
<title>CODE OK</title>
<polygon fill="#1f3b98" stroke="black" points="631.5,-392 548.5,-392 548.5,-356 631.5,-356 631.5,-392"/>
<text text-anchor="middle" x="590" y="-370.3" font-family="Sans Not-Rotated 14" font-size="14.00" fill="white">CODE OK</text>
</g>
<!-- RELEASE&#45;&gt;CODE OK -->
<g id="edge10" class="edge">
<title>RELEASE&#45;&gt;CODE OK</title>
<path fill="none" stroke="black" stroke-width="3.95" d="M482.8,-550.73C470.95,-528.14 455.46,-488.56 476,-464 504.97,-429.35 543.8,-477.67 576,-446 587.39,-434.8 590.92,-417.21 591.59,-402.34"/>
<polygon fill="black" stroke="black" stroke-width="3.95" points="595.09,-402.15 591.64,-392.13 588.09,-402.11 595.09,-402.15"/>
<text text-anchor="middle" x="532.5" y="-478.3" font-family="Sans Not-Rotated 14" font-size="14.00"> &#160;&#160;&#160;&#160;&#160;&#160;&#160;&#160;&#160;&#160;&#160;&#160;&#160;&#160;&#160;&#160;&#160;&#160;&#160;&#160;&#160;&#160;&#160;&#160;</text>
</g>
<!-- ZDBC_BEHAN -->
<g id="node14" class="node">
<title>ZDBC_BEHAN</title>
<polygon fill="#ffffff" stroke="black" points="441,-446 327,-446 327,-410 441,-410 441,-446"/>
<text text-anchor="middle" x="384" y="-424.3" font-family="Sans Not-Rotated 14" font-size="14.00">ZDBC_BEHAN</text>
</g>
<!-- RELEASE&#45;&gt;ZDBC_BEHAN -->
<g id="edge24" class="edge">
<title>RELEASE&#45;&gt;ZDBC_BEHAN</title>
<path fill="none" stroke="black" d="M452.68,-563.83C415.26,-557.41 362.76,-541.15 345,-500 338.66,-485.31 338.48,-478.61 345,-464 346.66,-460.27 348.94,-456.78 351.56,-453.55"/>
<polygon fill="black" stroke="black" points="354.3,-455.75 358.65,-446.09 349.23,-450.93 354.3,-455.75"/>
<text text-anchor="middle" x="373.5" y="-521.8" font-family="Sans Not-Rotated 14" font-size="14.00"> </text>
</g>
<!-- MANUAL -->
<g id="node18" class="node">
<title>MANUAL</title>
<polygon fill="#ffffff" stroke="black" points="430.5,-500 353.5,-500 353.5,-464 430.5,-464 430.5,-500"/>
<text text-anchor="middle" x="392" y="-478.3" font-family="Sans Not-Rotated 14" font-size="14.00">MANUAL</text>
</g>
<!-- RELEASE&#45;&gt;MANUAL -->
<g id="edge36" class="edge">
<title>RELEASE&#45;&gt;MANUAL</title>
<path fill="none" stroke="black" stroke-width="1.01" d="M459.83,-550.96C451.03,-545.75 441.81,-539.63 434,-533 425.35,-525.66 417.05,-516.42 410.15,-507.89"/>
<polygon fill="black" stroke="black" stroke-width="1.01" points="412.9,-505.74 403.99,-500.01 407.39,-510.05 412.9,-505.74"/>
<text text-anchor="middle" x="443.5" y="-521.8" font-family="Sans Not-Rotated 14" font-size="14.00"> &#160;&#160;&#160;</text>
</g>
<!-- BILLED -->
<g id="node3" class="node">
<title>BILLED</title>
<polygon fill="#1946ba" stroke="black" points="499,-305 431,-305 431,-269 499,-269 499,-305"/>
<text text-anchor="middle" x="465" y="-283.3" font-family="Sans Not-Rotated 14" font-size="14.00" fill="white">BILLED</text>
</g>
<!-- STORNO -->
<g id="node7" class="node">
<title>STORNO</title>
<polygon fill="#ffffff" stroke="black" points="507.5,-218 430.5,-218 430.5,-182 507.5,-182 507.5,-218"/>
<text text-anchor="middle" x="469" y="-196.3" font-family="Sans Not-Rotated 14" font-size="14.00">STORNO</text>
</g>
<!-- BILLED&#45;&gt;STORNO -->
<g id="edge1" class="edge">
<title>BILLED&#45;&gt;STORNO</title>
<path fill="none" stroke="black" stroke-width="1.15" d="M465.81,-268.8C466.36,-257.16 467.09,-241.55 467.72,-228.24"/>
<polygon fill="black" stroke="black" stroke-width="1.15" points="471.22,-228.33 468.19,-218.18 464.23,-228 471.22,-228.33"/>
<text text-anchor="middle" x="487.5" y="-239.8" font-family="Sans Not-Rotated 14" font-size="14.00"> &#160;&#160;&#160;&#160;&#160;&#160;&#160;&#160;</text>
</g>
<!-- JOIN&#45;PAT -->
<g id="node16" class="node">
<title>JOIN&#45;PAT</title>
<polygon fill="#ffffff" stroke="black" points="227,-761 147,-761 147,-725 227,-725 227,-761"/>
<text text-anchor="middle" x="187" y="-739.3" font-family="Sans Not-Rotated 14" font-size="14.00">JOIN&#45;PAT</text>
</g>
<!-- BILLED&#45;&gt;JOIN&#45;PAT -->
<g id="edge30" class="edge">
<title>BILLED&#45;&gt;JOIN&#45;PAT</title>
<path fill="none" stroke="black" stroke-width="1" d="M439.82,-305.15C408.8,-327.07 355.6,-367.32 318,-410 236.08,-502.98 202.2,-653.31 191.3,-714.63"/>
<polygon fill="black" stroke="black" stroke-width="1" points="187.82,-714.24 189.58,-724.68 194.72,-715.42 187.82,-714.24"/>
<text text-anchor="middle" x="251.5" y="-521.8" font-family="Sans Not-Rotated 14" font-size="14.00"> </text>
</g>
<!-- BILLED&#45;&gt;MANUAL -->
<g id="edge37" class="edge">
<title>BILLED&#45;&gt;MANUAL</title>
<path fill="none" stroke="black" stroke-width="1" d="M464.21,-305.06C462.28,-340.9 456.4,-422.64 442,-446 439.43,-450.18 436.15,-453.99 432.5,-457.43"/>
<polygon fill="black" stroke="black" stroke-width="1" points="430.08,-454.89 424.61,-463.97 434.55,-460.28 430.08,-454.89"/>
<text text-anchor="middle" x="469.5" y="-370.3" font-family="Sans Not-Rotated 14" font-size="14.00"> &#160;&#160;&#160;</text>
</g>
<!-- end -->
<g id="node20" class="node">
<title>end</title>
<ellipse fill="#ea4126" stroke="black" cx="537" cy="-22" rx="18" ry="18"/>
<ellipse fill="none" stroke="black" cx="537" cy="-22" rx="22" ry="22"/>
</g>
<!-- BILLED&#45;&gt;end -->
<g id="edge38" class="edge">
<title>BILLED&#45;&gt;end</title>
<path fill="none" stroke="black" stroke-dasharray="5,2" d="M495.65,-268.64C501.96,-263.71 507.92,-257.8 512,-251 531.45,-218.59 535.8,-108.86 536.75,-54.32"/>
<polygon fill="black" stroke="black" points="540.25,-54.23 536.9,-44.18 533.25,-54.13 540.25,-54.23"/>
<text text-anchor="middle" x="588.5" y="-152.8" font-family="Sans Not-Rotated 14" font-size="14.00"> &#160;&#160;&#160;&#160;&#160;&#160;&#160;&#160;&#160;&#160;&#160;&#160;&#160;&#160;&#160;&#160;&#160;&#160;&#160;&#160;&#160;&#160;&#160;&#160;</text>
</g>
<!-- EMPTY&#45;&gt;end -->
<g id="edge41" class="edge">
<title>EMPTY&#45;&gt;end</title>
<path fill="none" stroke="black" stroke-dasharray="5,2" d="M983.55,-409.76C982.08,-390.65 980,-358.89 980,-331.5 980,-331.5 980,-331.5 980,-112 980,-28.18 671.34,-22.28 569.31,-22.62"/>
<polygon fill="black" stroke="black" points="569.25,-19.12 559.27,-22.68 569.29,-26.12 569.25,-19.12"/>
<text text-anchor="middle" x="982.5" y="-239.8" font-family="Sans Not-Rotated 14" font-size="14.00"> </text>
</g>
<!-- SET STATUS&#45;&gt;end -->
<g id="edge42" class="edge">
<title>SET STATUS&#45;&gt;end</title>
<path fill="none" stroke="black" stroke-dasharray="5,2" d="M734.24,-94.95C685.03,-76.99 609,-49.26 567.17,-34"/>
<polygon fill="black" stroke="black" points="568.15,-30.64 557.55,-30.5 565.75,-37.21 568.15,-30.64"/>
<text text-anchor="middle" x="700.5" y="-65.8" font-family="Sans Not-Rotated 14" font-size="14.00"> &#160;&#160;&#160;&#160;&#160;&#160;&#160;&#160;</text>
</g>
<!-- DELETE&#45;&gt;JOIN&#45;PAT -->
<g id="edge33" class="edge">
<title>DELETE&#45;&gt;JOIN&#45;PAT</title>
<path fill="none" stroke="black" stroke-width="1" d="M252.41,-811.8C240.4,-799.36 224.01,-782.36 210.64,-768.5"/>
<polygon fill="black" stroke="black" stroke-width="1" points="213.03,-765.94 203.57,-761.18 207.99,-770.8 213.03,-765.94"/>
<text text-anchor="middle" x="234.5" y="-782.8" font-family="Sans Not-Rotated 14" font-size="14.00"> </text>
</g>
<!-- DELETE&#45;&gt;end -->
<g id="edge40" class="edge">
<title>DELETE&#45;&gt;end</title>
<path fill="none" stroke="black" stroke-dasharray="5,2" d="M232.86,-813.78C231.22,-813.16 229.6,-812.57 228,-812 128.36,-776.59 0,-849.74 0,-744 0,-744 0,-744 0,-112 0,-59.11 56.91,-75.71 108,-62 251.94,-23.38 431.73,-21.25 504.34,-22.21"/>
<polygon fill="black" stroke="black" points="504.6,-25.71 514.66,-22.37 504.72,-18.71 504.6,-25.71"/>
<text text-anchor="middle" x="36.5" y="-424.3" font-family="Sans Not-Rotated 14" font-size="14.00"> &#160;&#160;&#160;&#160;&#160;&#160;&#160;&#160;&#160;&#160;&#160;&#160;&#160;&#160;&#160;</text>
</g>
<!-- STORNO&#45;&gt;BILLED -->
<g id="edge43" class="edge">
<title>STORNO&#45;&gt;BILLED</title>
<path fill="none" stroke="black" stroke-width="1.07" d="M436.45,-218.21C430.23,-223.09 424.55,-229.01 421,-236 416.23,-245.39 420.42,-254.43 427.81,-262.18"/>
<polygon fill="black" stroke="black" stroke-width="1.07" points="425.54,-264.84 435.33,-268.91 430.21,-259.63 425.54,-264.84"/>
<text text-anchor="middle" x="441.5" y="-239.8" font-family="Sans Not-Rotated 14" font-size="14.00"> &#160;&#160;&#160;&#160;&#160;&#160;&#160;&#160;</text>
</g>
<!-- STORNO&#45;&gt;SET STATUS -->
<g id="edge17" class="edge">
<title>STORNO&#45;&gt;SET STATUS</title>
<path fill="none" stroke="black" stroke-width="1" d="M507.76,-193.84C545.54,-188.3 604.38,-178.32 654,-164 681.01,-156.2 710.27,-144.89 733.88,-135"/>
<polygon fill="black" stroke="black" stroke-width="1" points="735.46,-138.13 743.3,-131.01 732.73,-131.69 735.46,-138.13"/>
<text text-anchor="middle" x="705.5" y="-152.8" font-family="Sans Not-Rotated 14" font-size="14.00"> &#160;&#160;&#160;</text>
</g>
<!-- REJECT -->
<g id="node8" class="node">
<title>REJECT</title>
<polygon fill="#ffffff" stroke="black" points="321,-131 253,-131 253,-95 321,-95 321,-131"/>
<text text-anchor="middle" x="287" y="-109.3" font-family="Sans Not-Rotated 14" font-size="14.00">REJECT</text>
</g>
<!-- STORNO&#45;&gt;REJECT -->
<g id="edge21" class="edge">
<title>STORNO&#45;&gt;REJECT</title>
<path fill="none" stroke="black" stroke-width="1.08" d="M432.17,-181.8C402.71,-168.04 361.33,-148.72 330.29,-134.22"/>
<polygon fill="black" stroke="black" stroke-width="1.08" points="331.55,-130.94 321.01,-129.88 328.59,-137.29 331.55,-130.94"/>
<text text-anchor="middle" x="408.5" y="-152.8" font-family="Sans Not-Rotated 14" font-size="14.00"> &#160;&#160;&#160;&#160;&#160;&#160;&#160;&#160;</text>
</g>
<!-- STORNO&#45;&gt;JOIN&#45;PAT -->
<g id="edge31" class="edge">
<title>STORNO&#45;&gt;JOIN&#45;PAT</title>
<path fill="none" stroke="black" stroke-width="1" d="M431.68,-218.07C388.59,-238.92 316.98,-277.12 265,-323 191.87,-387.55 178,-426.95 178,-524.5 178,-657 178,-657 178,-657 178,-676.36 180.34,-698.05 182.63,-714.68"/>
<polygon fill="black" stroke="black" stroke-width="1" points="179.2,-715.41 184.1,-724.8 186.12,-714.4 179.2,-715.41"/>
<text text-anchor="middle" x="182.5" y="-478.3" font-family="Sans Not-Rotated 14" font-size="14.00"> </text>
</g>
<!-- REJECT&#45;&gt;REOPEN -->
<g id="edge11" class="edge">
<title>REJECT&#45;&gt;REOPEN</title>
<path fill="none" stroke="black" stroke-width="1.02" d="M257.4,-131.28C236.06,-146.19 211,-169.9 211,-199 211,-483 211,-483 211,-483 211,-505.66 205.32,-516.64 221,-533 222.46,-534.52 514.69,-603.34 516,-605 568.05,-670.93 497.3,-712.34 517,-794 527.16,-836.12 534.02,-847.09 561,-881 564.02,-884.79 567.5,-888.46 571.15,-891.91"/>
<polygon fill="black" stroke="black" stroke-width="1.02" points="568.95,-894.64 578.76,-898.65 573.59,-889.4 568.95,-894.64"/>
<text text-anchor="middle" x="230.5" y="-521.8" font-family="Sans Not-Rotated 14" font-size="14.00"> &#160;&#160;&#160;</text>
</g>
<!-- REJECT&#45;&gt;RELEASE -->
<g id="edge45" class="edge">
<title>REJECT&#45;&gt;RELEASE</title>
<path fill="none" stroke="black" stroke-width="1" d="M287,-131.26C287,-148.43 287,-175.54 287,-199 287,-483 287,-483 287,-483 287,-519.45 319.17,-517.16 352,-533 380.63,-546.81 415.24,-555.51 443.01,-560.78"/>
<polygon fill="black" stroke="black" stroke-width="1" points="442.44,-564.23 452.9,-562.57 443.69,-557.34 442.44,-564.23"/>
<text text-anchor="middle" x="296.5" y="-326.8" font-family="Sans Not-Rotated 14" font-size="14.00"> &#160;&#160;&#160;</text>
</g>
<!-- REJECT&#45;&gt;BILLED -->
<g id="edge44" class="edge">
<title>REJECT&#45;&gt;BILLED</title>
<path fill="none" stroke="black" stroke-width="1.05" d="M300.6,-131.36C322.58,-158.77 368.11,-212.86 414,-251 418.93,-255.1 424.34,-259.19 429.73,-263.05"/>
<polygon fill="black" stroke="black" stroke-width="1.05" points="427.91,-266.06 438.12,-268.91 431.92,-260.31 427.91,-266.06"/>
<text text-anchor="middle" x="396.5" y="-196.3" font-family="Sans Not-Rotated 14" font-size="14.00"> &#160;&#160;&#160;&#160;&#160;&#160;&#160;&#160;</text>
</g>
<!-- REJECT&#45;&gt;JOIN&#45;PAT -->
<g id="edge32" class="edge">
<title>REJECT&#45;&gt;JOIN&#45;PAT</title>
<path fill="none" stroke="black" stroke-width="1" d="M252.89,-117.94C208.07,-125.22 135,-145.33 135,-199 135,-331.5 135,-331.5 135,-331.5 135,-417.29 132,-438.71 132,-524.5 132,-657 132,-657 132,-657 132,-679.9 146.25,-701.51 160.24,-717.21"/>
<polygon fill="black" stroke="black" stroke-width="1" points="158.05,-719.98 167.45,-724.85 163.14,-715.18 158.05,-719.98"/>
<text text-anchor="middle" x="136.5" y="-424.3" font-family="Sans Not-Rotated 14" font-size="14.00"> </text>
</g>
<!-- CODE ERROR&#45;&gt;REOPEN -->
<g id="edge46" class="edge">
<title>CODE ERROR&#45;&gt;REOPEN</title>
<path fill="none" stroke="black" stroke-width="1" d="M642.43,-500.37C637.44,-510.1 633.63,-522.38 638,-533 673.38,-618.99 766,-605.51 766,-698.5 766,-831 766,-831 766,-831 766,-883.44 698.85,-903.58 650.75,-911.28"/>
<polygon fill="black" stroke="black" stroke-width="1" points="650.19,-907.83 640.81,-912.74 651.21,-914.75 650.19,-907.83"/>
<text text-anchor="middle" x="768.5" y="-695.8" font-family="Sans Not-Rotated 14" font-size="14.00"> </text>
</g>
<!-- CODE ERROR&#45;&gt;RELEASE -->
<g id="edge47" class="edge">
<title>CODE ERROR&#45;&gt;RELEASE</title>
<path fill="none" stroke="black" stroke-width="1" d="M623.41,-500.19C605.83,-509.98 583.27,-522.37 563,-533 554.52,-537.45 545.4,-542.1 536.63,-546.51"/>
<polygon fill="black" stroke="black" stroke-width="1" points="535.05,-543.39 527.67,-551 538.18,-549.65 535.05,-543.39"/>
<text text-anchor="middle" x="592.5" y="-521.8" font-family="Sans Not-Rotated 14" font-size="14.00"> </text>
</g>
<!-- CODE NOK&#45;&gt;REOPEN -->
<g id="edge50" class="edge">
<title>CODE NOK&#45;&gt;REOPEN</title>
<path fill="none" stroke="black" stroke-width="1.01" d="M811.71,-500.25C810.54,-517.41 809,-544.51 809,-568 809,-831 809,-831 809,-831 809,-899.03 711.82,-913.7 650.96,-916.23"/>
<polygon fill="black" stroke="black" stroke-width="1.01" points="650.67,-912.73 640.78,-916.55 650.89,-919.73 650.67,-912.73"/>
<text text-anchor="middle" x="818.5" y="-695.8" font-family="Sans Not-Rotated 14" font-size="14.00"> &#160;&#160;&#160;</text>
</g>
<!-- CODE NOK&#45;&gt;BILLED -->
<g id="edge48" class="edge">
<title>CODE NOK&#45;&gt;BILLED</title>
<path fill="none" stroke="black" stroke-width="1.02" d="M807.03,-463.84C801.11,-448.53 790.91,-426.11 777,-410 733.24,-359.32 715.69,-349.04 654,-323 606.87,-303.11 548.41,-294.49 509.09,-290.78"/>
<polygon fill="black" stroke="black" stroke-width="1.02" points="509.3,-287.28 499.03,-289.89 508.69,-294.25 509.3,-287.28"/>
<text text-anchor="middle" x="769.5" y="-370.3" font-family="Sans Not-Rotated 14" font-size="14.00"> &#160;&#160;&#160;</text>
</g>
<!-- CODE NOK&#45;&gt;SET STATUS -->
<g id="edge3" class="edge">
<title>CODE NOK&#45;&gt;SET STATUS</title>
<path fill="none" stroke="black" stroke-width="1.02" d="M816.68,-463.83C820.83,-442.95 827,-406.56 827,-375 827,-375 827,-375 827,-199 827,-177.06 814.99,-155.35 803.25,-139.36"/>
<polygon fill="black" stroke="black" stroke-width="1.02" points="805.73,-136.85 796.83,-131.11 800.21,-141.15 805.73,-136.85"/>
<text text-anchor="middle" x="836.5" y="-283.3" font-family="Sans Not-Rotated 14" font-size="14.00"> &#160;&#160;&#160;</text>
</g>
<!-- CODE NOK&#45;&gt;DELETE -->
<g id="edge51" class="edge">
<title>CODE NOK&#45;&gt;DELETE</title>
<path fill="none" stroke="black" stroke-width="1.01" d="M794.44,-500.03C764.37,-527.91 703.55,-585.46 656,-638 596.19,-704.08 608.37,-751.56 530,-794 495.24,-812.83 392.09,-806.07 353,-812 340.7,-813.87 327.48,-816.32 315.25,-818.79"/>
<polygon fill="black" stroke="black" stroke-width="1.01" points="314.33,-815.41 305.25,-820.85 315.75,-822.26 314.33,-815.41"/>
<text text-anchor="middle" x="665.5" y="-652.3" font-family="Sans Not-Rotated 14" font-size="14.00"> &#160;&#160;&#160;</text>
</g>
<!-- CODE NOK&#45;&gt;CODE NOK -->
<g id="edge62" class="edge">
<title>CODE NOK&#45;&gt;CODE NOK</title>
<path fill="none" stroke="black" stroke-width="1.04" d="M859.67,-489.66C869.99,-488.94 877.5,-486.39 877.5,-482 877.5,-479.26 874.57,-477.23 869.85,-475.92"/>
<polygon fill="black" stroke="black" stroke-width="1.04" points="870.09,-472.42 859.67,-474.34 869.02,-479.33 870.09,-472.42"/>
<text text-anchor="middle" x="898" y="-478.3" font-family="Sans Not-Rotated 14" font-size="14.00"> &#160;&#160;&#160;&#160;&#160;&#160;&#160;&#160;</text>
</g>
<!-- CODE NOK&#45;&gt;CODE OK -->
<g id="edge49" class="edge">
<title>CODE NOK&#45;&gt;CODE OK</title>
<path fill="none" stroke="black" stroke-width="1.02" d="M780.99,-463.93C772.96,-458.79 764.73,-452.72 758,-446 744.56,-432.59 750.46,-421.03 735,-410 707.84,-390.63 671.3,-381.89 641.7,-377.99"/>
<polygon fill="black" stroke="black" stroke-width="1.02" points="641.88,-374.49 631.54,-376.8 641.07,-381.44 641.88,-374.49"/>
<text text-anchor="middle" x="767.5" y="-424.3" font-family="Sans Not-Rotated 14" font-size="14.00"> &#160;&#160;&#160;</text>
</g>
<!-- CODE OK&#45;&gt;REOPEN -->
<g id="edge9" class="edge">
<title>CODE OK&#45;&gt;REOPEN</title>
<path fill="none" stroke="black" stroke-width="1.17" d="M631.7,-391.13C661.98,-405.32 700.72,-429.19 719,-464 767.66,-556.68 697,-593.82 697,-698.5 697,-831 697,-831 697,-831 697,-859.29 673.29,-880.6 649.68,-894.81"/>
<polygon fill="black" stroke="black" stroke-width="1.17" points="647.66,-891.93 640.69,-899.91 651.12,-898.02 647.66,-891.93"/>
<text text-anchor="middle" x="724.5" y="-652.3" font-family="Sans Not-Rotated 14" font-size="14.00"> &#160;&#160;&#160;&#160;&#160;&#160;&#160;&#160;</text>
</g>
<!-- CODE OK&#45;&gt;BILLED -->
<g id="edge4" class="edge">
<title>CODE OK&#45;&gt;BILLED</title>
<path fill="none" stroke="black" stroke-width="3.74" d="M565.03,-355.83C550.95,-346.15 533.01,-333.87 517,-323 511.19,-319.06 505.01,-314.88 499.01,-310.84"/>
<polygon fill="black" stroke="black" stroke-width="3.74" points="500.67,-307.73 490.42,-305.05 496.76,-313.54 500.67,-307.73"/>
<text text-anchor="middle" x="593.5" y="-326.8" font-family="Sans Not-Rotated 14" font-size="14.00"> &#160;&#160;&#160;&#160;&#160;&#160;&#160;&#160;&#160;&#160;&#160;&#160;&#160;&#160;&#160;&#160;&#160;&#160;&#160;&#160;&#160;&#160;&#160;&#160;</text>
</g>
<!-- CODE OK&#45;&gt;SET STATUS -->
<g id="edge16" class="edge">
<title>CODE OK&#45;&gt;SET STATUS</title>
<path fill="none" stroke="black" stroke-width="1" d="M629.59,-355.82C638.27,-350.89 646.96,-344.93 654,-338 713.82,-279.09 754.22,-186.07 771.5,-140.68"/>
<polygon fill="black" stroke="black" stroke-width="1" points="774.8,-141.83 775.02,-131.24 768.25,-139.38 774.8,-141.83"/>
<text text-anchor="middle" x="735.5" y="-239.8" font-family="Sans Not-Rotated 14" font-size="14.00"> &#160;&#160;&#160;</text>
</g>
<!-- CODE OK&#45;&gt;MANUAL -->
<g id="edge8" class="edge">
<title>CODE OK&#45;&gt;MANUAL</title>
<path fill="none" stroke="black" stroke-width="1.01" d="M548.17,-389.49C536.61,-394.77 524.62,-401.57 515,-410 500.72,-422.51 506.89,-434.22 492,-446 489.69,-447.83 464.69,-456.58 440.26,-464.87"/>
<polygon fill="black" stroke="black" stroke-width="1.01" points="438.97,-461.61 430.62,-468.13 441.22,-468.24 438.97,-461.61"/>
<text text-anchor="middle" x="524.5" y="-424.3" font-family="Sans Not-Rotated 14" font-size="14.00"> &#160;&#160;&#160;</text>
</g>
<!-- NEW -->
<g id="node12" class="node">
<title>NEW</title>
<polygon fill="#1d2559" stroke="black" points="240,-1022 186,-1022 186,-986 240,-986 240,-1022"/>
<text text-anchor="middle" x="213" y="-1000.3" font-family="Sans Not-Rotated 14" font-size="14.00" fill="white">NEW</text>
</g>
<!-- NEW&#45;&gt;DELETE -->
<g id="edge18" class="edge">
<title>NEW&#45;&gt;DELETE</title>
<path fill="none" stroke="black" stroke-width="1.23" d="M185.79,-988.19C153.81,-968.77 107.63,-933.13 129,-899 139.86,-881.65 186.88,-861.03 223.46,-847.08"/>
<polygon fill="black" stroke="black" stroke-width="1.23" points="224.86,-850.29 232.99,-843.51 222.4,-843.74 224.86,-850.29"/>
<text text-anchor="middle" x="165.5" y="-913.3" font-family="Sans Not-Rotated 14" font-size="14.00"> &#160;&#160;&#160;&#160;&#160;&#160;&#160;&#160;&#160;&#160;&#160;&#160;&#160;&#160;&#160;</text>
</g>
<!-- NEW&#45;&gt;NEW -->
<g id="edge60" class="edge">
<title>NEW&#45;&gt;NEW</title>
<path fill="none" stroke="black" stroke-width="1.25" d="M240.24,-1011.87C250.02,-1012.04 258,-1009.41 258,-1004 258,-1000.7 255.04,-998.44 250.51,-997.21"/>
<polygon fill="black" stroke="black" stroke-width="1.25" points="250.55,-993.7 240.24,-996.13 249.82,-1000.66 250.55,-993.7"/>
<text text-anchor="middle" x="294.5" y="-1000.3" font-family="Sans Not-Rotated 14" font-size="14.00"> &#160;&#160;&#160;&#160;&#160;&#160;&#160;&#160;&#160;&#160;&#160;&#160;&#160;&#160;&#160;</text>
</g>
<!-- CHANGE DIAGN -->
<g id="node13" class="node">
<title>CHANGE DIAGN</title>
<polygon fill="#7d7fd2" stroke="black" points="339.5,-935 210.5,-935 210.5,-899 339.5,-899 339.5,-935"/>
<text text-anchor="middle" x="275" y="-913.3" font-family="Sans Not-Rotated 14" font-size="14.00">CHANGE DIAGN</text>
</g>
<!-- NEW&#45;&gt;CHANGE DIAGN -->
<g id="edge23" class="edge">
<title>NEW&#45;&gt;CHANGE DIAGN</title>
<path fill="none" stroke="black" stroke-width="2.84" d="M225.55,-985.8C234.45,-973.59 246.56,-956.99 256.56,-943.28"/>
<polygon fill="black" stroke="black" stroke-width="2.84" points="259.41,-945.32 262.47,-935.18 253.75,-941.19 259.41,-945.32"/>
<text text-anchor="middle" x="283.5" y="-956.8" font-family="Sans Not-Rotated 14" font-size="14.00"> &#160;&#160;&#160;&#160;&#160;&#160;&#160;&#160;&#160;&#160;&#160;&#160;&#160;&#160;&#160;</text>
</g>
<!-- NEW&#45;&gt;CHANGE END -->
<g id="edge25" class="edge">
<title>NEW&#45;&gt;CHANGE END</title>
<path fill="none" stroke="black" stroke-width="1" d="M240.29,-1001.99C283.2,-998.82 365.9,-986.03 408,-935 425.44,-913.86 425.78,-881.45 423.13,-858.44"/>
<polygon fill="black" stroke="black" stroke-width="1" points="426.56,-857.71 421.7,-848.29 419.63,-858.68 426.56,-857.71"/>
<text text-anchor="middle" x="424.5" y="-913.3" font-family="Sans Not-Rotated 14" font-size="14.00"> </text>
</g>
<!-- NEW&#45;&gt;JOIN&#45;PAT -->
<g id="edge28" class="edge">
<title>NEW&#45;&gt;JOIN&#45;PAT</title>
<path fill="none" stroke="black" stroke-width="1" d="M185.81,-994.46C170.77,-988.74 152.45,-980.04 139,-968 92.31,-926.21 82.09,-908.28 65,-848 60.64,-832.61 57.42,-826.09 65,-812 79.74,-784.62 110.33,-767.6 137.19,-757.44"/>
<polygon fill="black" stroke="black" stroke-width="1" points="138.63,-760.65 146.88,-754 136.29,-754.05 138.63,-760.65"/>
<text text-anchor="middle" x="85.5" y="-869.8" font-family="Sans Not-Rotated 14" font-size="14.00"> &#160;&#160;&#160;</text>
</g>
<!-- NEW&#45;&gt;FIN -->
<g id="edge35" class="edge">
<title>NEW&#45;&gt;FIN</title>
<path fill="none" stroke="black" stroke-width="2.19" d="M207.87,-985.74C200.97,-964.19 187.29,-926.8 168,-899 149.37,-872.14 127.8,-878.08 115,-848 108.74,-833.28 106.15,-825.33 115,-812 147.27,-763.38 184.22,-787.91 236,-761 283.92,-736.09 336.27,-702.07 369.11,-679.82"/>
<polygon fill="black" stroke="black" stroke-width="2.19" points="371.14,-682.67 377.43,-674.15 367.19,-676.89 371.14,-682.67"/>
<text text-anchor="middle" x="151.5" y="-826.3" font-family="Sans Not-Rotated 14" font-size="14.00"> &#160;&#160;&#160;&#160;&#160;&#160;&#160;&#160;&#160;&#160;&#160;&#160;&#160;&#160;&#160;</text>
</g>
<!-- NEW&#45;&gt;end -->
<g id="edge39" class="edge">
<title>NEW&#45;&gt;end</title>
<path fill="none" stroke="black" stroke-dasharray="5,2" d="M240.28,-1003.1C382.57,-1003.27 1033,-999.58 1033,-918 1033,-918 1033,-918 1033,-112 1033,-72.31 996.38,-75.36 959,-62 887.16,-36.33 654.78,-26.66 569.11,-23.91"/>
<polygon fill="black" stroke="black" points="569.05,-20.4 558.94,-23.59 568.83,-27.4 569.05,-20.4"/>
<text text-anchor="middle" x="1069.5" y="-521.8" font-family="Sans Not-Rotated 14" font-size="14.00"> &#160;&#160;&#160;&#160;&#160;&#160;&#160;&#160;&#160;&#160;&#160;&#160;&#160;&#160;&#160;</text>
</g>
<!-- CHANGE DIAGN&#45;&gt;DELETE -->
<g id="edge19" class="edge">
<title>CHANGE DIAGN&#45;&gt;DELETE</title>
<path fill="none" stroke="black" stroke-width="1.06" d="M272.14,-898.96C271.3,-893.26 270.48,-886.87 270,-881 269.41,-873.67 269.1,-865.73 268.95,-858.37"/>
<polygon fill="black" stroke="black" stroke-width="1.06" points="272.44,-858.11 268.83,-848.15 265.44,-858.19 272.44,-858.11"/>
<text text-anchor="middle" x="290.5" y="-869.8" font-family="Sans Not-Rotated 14" font-size="14.00"> &#160;&#160;&#160;&#160;&#160;&#160;&#160;&#160;</text>
</g>
<!-- CHANGE DIAGN&#45;&gt;CHANGE DIAGN -->
<g id="edge61" class="edge">
<title>CHANGE DIAGN&#45;&gt;CHANGE DIAGN</title>
<path fill="none" stroke="black" stroke-width="1.12" d="M339.68,-924.29C350.24,-923.24 357.5,-920.81 357.5,-917 357.5,-914.56 354.52,-912.68 349.6,-911.38"/>
<polygon fill="black" stroke="black" stroke-width="1.12" points="350.12,-907.91 339.68,-909.71 348.96,-914.82 350.12,-907.91"/>
<text text-anchor="middle" x="378" y="-913.3" font-family="Sans Not-Rotated 14" font-size="14.00"> &#160;&#160;&#160;&#160;&#160;&#160;&#160;&#160;</text>
</g>
<!-- CHANGE DIAGN&#45;&gt;CHANGE END -->
<g id="edge26" class="edge">
<title>CHANGE DIAGN&#45;&gt;CHANGE END</title>
<path fill="none" stroke="black" stroke-width="1" d="M339.62,-909.87C361.04,-904.96 383.58,-896.27 400,-881 406.53,-874.93 410.7,-866.31 413.35,-857.93"/>
<polygon fill="black" stroke="black" stroke-width="1" points="416.8,-858.58 415.9,-848.03 410.02,-856.84 416.8,-858.58"/>
<text text-anchor="middle" x="411.5" y="-869.8" font-family="Sans Not-Rotated 14" font-size="14.00"> </text>
</g>
<!-- CHANGE DIAGN&#45;&gt;JOIN&#45;PAT -->
<g id="edge29" class="edge">
<title>CHANGE DIAGN&#45;&gt;JOIN&#45;PAT</title>
<path fill="none" stroke="black" stroke-width="1" d="M250.71,-898.89C235.12,-886.56 215.83,-868.53 205,-848 192.41,-824.16 188.35,-793.36 187.17,-771.49"/>
<polygon fill="black" stroke="black" stroke-width="1" points="190.66,-771.1 186.79,-761.24 183.66,-771.36 190.66,-771.1"/>
<text text-anchor="middle" x="214.5" y="-826.3" font-family="Sans Not-Rotated 14" font-size="14.00"> &#160;&#160;&#160;</text>
</g>
<!-- CHANGE DIAGN&#45;&gt;FIN -->
<g id="edge34" class="edge">
<title>CHANGE DIAGN&#45;&gt;FIN</title>
<path fill="none" stroke="black" stroke-width="2.78" d="M296.61,-898.8C301.99,-893.59 307.28,-887.51 311,-881 334.19,-840.49 319.2,-822.55 336,-779 349.45,-744.14 370.84,-706.71 385.61,-682.64"/>
<polygon fill="black" stroke="black" stroke-width="2.78" points="388.61,-684.44 390.91,-674.1 382.66,-680.75 388.61,-684.44"/>
<text text-anchor="middle" x="372.5" y="-782.8" font-family="Sans Not-Rotated 14" font-size="14.00"> &#160;&#160;&#160;&#160;&#160;&#160;&#160;&#160;&#160;&#160;&#160;&#160;&#160;&#160;&#160;</text>
</g>
<!-- ZDBC_BEHAN&#45;&gt;BILLED -->
<g id="edge52" class="edge">
<title>ZDBC_BEHAN&#45;&gt;BILLED</title>
<path fill="none" stroke="black" d="M390.61,-409.65C399.1,-388.35 415.04,-351.53 434,-323 436.26,-319.6 438.83,-316.18 441.5,-312.89"/>
<polygon fill="black" stroke="black" points="444.38,-314.9 448.22,-305.03 439.06,-310.35 444.38,-314.9"/>
<text text-anchor="middle" x="416.5" y="-370.3" font-family="Sans Not-Rotated 14" font-size="14.00"> </text>
</g>
<!-- CHANGE END&#45;&gt;FIN -->
<g id="edge53" class="edge">
<title>CHANGE END&#45;&gt;FIN</title>
<path fill="none" stroke="black" stroke-width="1" d="M416.41,-811.88C413.63,-782 407.87,-720.11 404.54,-684.27"/>
<polygon fill="black" stroke="black" stroke-width="1" points="408,-683.68 403.59,-674.05 401.03,-684.33 408,-683.68"/>
<text text-anchor="middle" x="413.5" y="-739.3" font-family="Sans Not-Rotated 14" font-size="14.00"> </text>
</g>
<!-- JOIN&#45;PAT&#45;&gt;FIN -->
<g id="edge55" class="edge">
<title>JOIN&#45;PAT&#45;&gt;FIN</title>
<path fill="none" stroke="black" stroke-width="1" d="M206.51,-724.95C221.35,-712.28 240.75,-696.45 250,-692 286.83,-674.27 333.07,-665.28 364.82,-660.89"/>
<polygon fill="black" stroke="black" stroke-width="1" points="365.53,-664.33 375,-659.57 364.63,-657.38 365.53,-664.33"/>
<text text-anchor="middle" x="259.5" y="-695.8" font-family="Sans Not-Rotated 14" font-size="14.00"> &#160;&#160;&#160;</text>
</g>
<!-- JOIN&#45;PAT&#45;&gt;end -->
<g id="edge54" class="edge">
<title>JOIN&#45;PAT&#45;&gt;end</title>
<path fill="none" stroke="black" stroke-dasharray="5,2" d="M146.73,-726.16C119.32,-712.44 88,-689.62 88,-657 88,-657 88,-657 88,-112 88,-27 401.55,-21.91 504.61,-22.53"/>
<polygon fill="black" stroke="black" points="504.71,-26.03 514.73,-22.62 504.76,-19.03 504.71,-26.03"/>
<text text-anchor="middle" x="97.5" y="-370.3" font-family="Sans Not-Rotated 14" font-size="14.00"> &#160;&#160;&#160;</text>
</g>
<!-- FIN&#45;&gt;REOPEN -->
<g id="edge13" class="edge">
<title>FIN&#45;&gt;REOPEN</title>
<path fill="none" stroke="black" stroke-width="1.02" d="M415.44,-674.32C450.06,-718.93 542.42,-837.94 583.19,-890.47"/>
<polygon fill="black" stroke="black" stroke-width="1.02" points="580.6,-892.85 589.5,-898.6 586.13,-888.56 580.6,-892.85"/>
<text text-anchor="middle" x="516.5" y="-782.8" font-family="Sans Not-Rotated 14" font-size="14.00"> &#160;&#160;&#160;</text>
</g>
<!-- FIN&#45;&gt;RELEASE -->
<g id="edge5" class="edge">
<title>FIN&#45;&gt;RELEASE</title>
<path fill="none" stroke="black" stroke-width="4.05" d="M420.42,-637.8C433.86,-625.24 452.26,-608.05 467.18,-594.12"/>
<polygon fill="black" stroke="black" stroke-width="4.05" points="469.72,-596.59 474.61,-587.18 464.89,-591.41 469.72,-596.59"/>
<text text-anchor="middle" x="508.5" y="-608.8" font-family="Sans Not-Rotated 14" font-size="14.00"> &#160;&#160;&#160;&#160;&#160;&#160;&#160;&#160;&#160;&#160;&#160;&#160;&#160;&#160;&#160;&#160;&#160;&#160;&#160;&#160;&#160;&#160;&#160;&#160;</text>
</g>
<!-- MANUAL&#45;&gt;RELEASE -->
<g id="edge56" class="edge">
<title>MANUAL&#45;&gt;RELEASE</title>
<path fill="none" stroke="black" stroke-width="1.01" d="M389,-500.4C388.18,-510.86 389.02,-523.86 396,-533 407.26,-547.75 425.31,-556.29 442.8,-561.24"/>
<polygon fill="black" stroke="black" stroke-width="1.01" points="442.43,-564.75 452.97,-563.75 444.11,-557.96 442.43,-564.75"/>
<text text-anchor="middle" x="405.5" y="-521.8" font-family="Sans Not-Rotated 14" font-size="14.00"> &#160;&#160;&#160;</text>
</g>
<!-- MANUAL&#45;&gt;BILLED -->
<g id="edge59" class="edge">
<title>MANUAL&#45;&gt;BILLED</title>
<path fill="none" stroke="black" stroke-width="1" d="M430.55,-467.67C441.55,-462.34 452.78,-455.22 461,-446 497.64,-404.89 488.42,-376.65 476,-323 475.39,-320.36 474.68,-317.62 473.91,-314.91"/>
<polygon fill="black" stroke="black" stroke-width="1" points="477.25,-313.87 471.02,-305.3 470.55,-315.89 477.25,-313.87"/>
<text text-anchor="middle" x="488.5" y="-370.3" font-family="Sans Not-Rotated 14" font-size="14.00"> </text>
</g>
<!-- MANUAL&#45;&gt;CODE OK -->
<g id="edge58" class="edge">
<title>MANUAL&#45;&gt;CODE OK</title>
<path fill="none" stroke="black" stroke-width="1" d="M430.64,-468.06C435.45,-466.61 440.32,-465.22 445,-464 484.05,-453.82 500.71,-468.82 534,-446 549.66,-435.27 545.33,-424.97 557,-410 559.66,-406.59 562.59,-403.13 565.58,-399.78"/>
<polygon fill="black" stroke="black" stroke-width="1" points="568.33,-401.95 572.54,-392.23 563.19,-397.21 568.33,-401.95"/>
<text text-anchor="middle" x="566.5" y="-424.3" font-family="Sans Not-Rotated 14" font-size="14.00"> &#160;&#160;&#160;</text>
</g>
<!-- MANUAL&#45;&gt;end -->
<g id="edge57" class="edge">
<title>MANUAL&#45;&gt;end</title>
<path fill="none" stroke="black" stroke-dasharray="5,2" d="M353.36,-469.07C342.63,-463.78 332.22,-456.34 326,-446 317.75,-432.29 323,-425.72 326,-410 355.02,-258.12 469.68,-104.9 516.71,-47.07"/>
<polygon fill="black" stroke="black" points="519.5,-49.19 523.14,-39.25 514.09,-44.75 519.5,-49.19"/>
<text text-anchor="middle" x="399.5" y="-239.8" font-family="Sans Not-Rotated 14" font-size="14.00"> &#160;&#160;&#160;</text>
</g>
<!-- start -->
<g id="node19" class="node">
<title>start</title>
<ellipse fill="#95d600" stroke="black" cx="213" cy="-1100.3" rx="27.1" ry="27.1"/>
<text text-anchor="middle" x="213" y="-1096.6" font-family="Sans Not-Rotated 14" font-size="14.00">start</text>
</g>
<!-- start&#45;&gt;NEW -->
<g id="edge22" class="edge">
<title>start&#45;&gt;NEW</title>
<path fill="none" stroke="black" stroke-dasharray="5,2" d="M213,-1072.78C213,-1060.1 213,-1044.93 213,-1032.17"/>
<polygon fill="black" stroke="black" points="216.5,-1032.12 213,-1022.12 209.5,-1032.12 216.5,-1032.12"/>
<text text-anchor="middle" x="269.5" y="-1043.8" font-family="Sans Not-Rotated 14" font-size="14.00"> &#160;&#160;&#160;&#160;&#160;&#160;&#160;&#160;&#160;&#160;&#160;&#160;&#160;&#160;&#160;&#160;&#160;&#160;&#160;&#160;&#160;&#160;&#160;&#160;</text>
</g>
</g>
</svg>
