<?xml version="1.0" encoding="UTF-8" standalone="no"?>
<!DOCTYPE svg PUBLIC "-//W3C//DTD SVG 1.1//EN"
 "http://www.w3.org/Graphics/SVG/1.1/DTD/svg11.dtd">
<!-- Generated by graphviz version 3.0.0 (20220226.1711)
 -->
<!-- Pages: 1 -->
<svg width="1054pt" height="983pt"
 viewBox="0.00 0.00 1054.00 982.60" xmlns="http://www.w3.org/2000/svg" xmlns:xlink="http://www.w3.org/1999/xlink">
<g id="graph0" class="graph" transform="scale(1 1) rotate(0) translate(4 978.6)">
<polygon fill="white" stroke="transparent" points="-4,4 -4,-978.6 1050,-978.6 1050,4 -4,4"/>
<!-- REOPEN -->
<g id="node1" class="node">
<title>REOPEN</title>
<polygon fill="#ffffff" stroke="black" points="600.5,-782 525.5,-782 525.5,-746 600.5,-746 600.5,-782"/>
<text text-anchor="middle" x="563" y="-760.3" font-family="Sans Not-Rotated 14" font-size="14.00">REOPEN</text>
</g>
<!-- DELETE -->
<g id="node6" class="node">
<title>DELETE</title>
<polygon fill="#ffffff" stroke="black" points="281,-326 209,-326 209,-290 281,-290 281,-326"/>
<text text-anchor="middle" x="245" y="-304.3" font-family="Sans Not-Rotated 14" font-size="14.00">DELETE</text>
</g>
<!-- REOPEN&#45;&gt;DELETE -->
<g id="edge14" class="edge">
<title>REOPEN&#45;&gt;DELETE</title>
<path fill="none" stroke="black" stroke-width="1.06" d="M561.73,-745.79C559.4,-723.96 552.91,-685.94 535,-659 500.11,-606.51 480.23,-598.4 423,-572 387.15,-555.46 368.2,-576.85 336,-554 285.28,-518 285.07,-492.52 264,-434 252.35,-401.65 247.85,-362.1 246.1,-336.26"/>
<polygon fill="black" stroke="black" stroke-width="1.06" points="249.58,-335.87 245.51,-326.09 242.6,-336.28 249.58,-335.87"/>
<text text-anchor="middle" x="356.5" y="-542.8" font-family="Sans Not-Rotated 14" font-size="14.00"> &#160;&#160;&#160;&#160;&#160;&#160;&#160;&#160;</text>
</g>
<!-- CHANGE END -->
<g id="node15" class="node">
<title>CHANGE END</title>
<polygon fill="#ffffff" stroke="black" points="419.5,-695 306.5,-695 306.5,-659 419.5,-659 419.5,-695"/>
<text text-anchor="middle" x="363" y="-673.3" font-family="Sans Not-Rotated 14" font-size="14.00">CHANGE END</text>
</g>
<!-- REOPEN&#45;&gt;CHANGE END -->
<g id="edge21" class="edge">
<title>REOPEN&#45;&gt;CHANGE END</title>
<path fill="none" stroke="black" stroke-width="1" d="M525.5,-755.92C499.84,-750.28 465.44,-741.13 437,-728 421.41,-720.8 405.46,-710.47 392.38,-701.07"/>
<polygon fill="black" stroke="black" stroke-width="1" points="394.36,-698.18 384.23,-695.07 390.21,-703.82 394.36,-698.18"/>
<text text-anchor="middle" x="439.5" y="-716.8" font-family="Sans Not-Rotated 14" font-size="14.00"> </text>
</g>
<!-- FIN -->
<g id="node17" class="node">
<title>FIN</title>
<polygon fill="#1f3b98" stroke="black" points="335,-608 281,-608 281,-572 335,-572 335,-608"/>
<text text-anchor="middle" x="308" y="-586.3" font-family="Sans Not-Rotated 14" font-size="14.00" fill="white">FIN</text>
</g>
<!-- REOPEN&#45;&gt;FIN -->
<g id="edge2" class="edge">
<title>REOPEN&#45;&gt;FIN</title>
<path fill="none" stroke="black" stroke-width="1.17" d="M536.78,-745.98C528.43,-740.4 519.23,-734.07 511,-728 492.17,-714.12 487.99,-709.95 470,-695 451.09,-679.29 448.12,-673.13 428,-659 401.06,-640.09 368.46,-621.88 344.04,-609.08"/>
<polygon fill="black" stroke="black" stroke-width="1.17" points="345.6,-605.94 335.11,-604.44 342.38,-612.16 345.6,-605.94"/>
<text text-anchor="middle" x="490.5" y="-673.3" font-family="Sans Not-Rotated 14" font-size="14.00"> &#160;&#160;&#160;&#160;&#160;&#160;&#160;&#160;</text>
</g>
<!-- RELEASE -->
<g id="node2" class="node">
<title>RELEASE</title>
<polygon fill="#1f3b98" stroke="black" points="453,-521 373,-521 373,-485 453,-485 453,-521"/>
<text text-anchor="middle" x="413" y="-499.3" font-family="Sans Not-Rotated 14" font-size="14.00" fill="white">RELEASE</text>
</g>
<!-- EMPTY -->
<g id="node4" class="node">
<title>EMPTY</title>
<polygon fill="#ffffff" stroke="black" points="177.5,-380 112.5,-380 112.5,-344 177.5,-344 177.5,-380"/>
<text text-anchor="middle" x="145" y="-358.3" font-family="Sans Not-Rotated 14" font-size="14.00">EMPTY</text>
</g>
<!-- RELEASE&#45;&gt;EMPTY -->
<g id="edge11" class="edge">
<title>RELEASE&#45;&gt;EMPTY</title>
<path fill="none" stroke="black" d="M372.9,-485.13C342.58,-472.02 300.14,-452.95 264,-434 235.28,-418.94 203.82,-400.06 180.46,-385.55"/>
<polygon fill="black" stroke="black" points="182.26,-382.55 171.93,-380.22 178.56,-388.49 182.26,-382.55"/>
<text text-anchor="middle" x="333.5" y="-455.8" font-family="Sans Not-Rotated 14" font-size="14.00"> </text>
</g>
<!-- CODE ERROR -->
<g id="node9" class="node">
<title>CODE ERROR</title>
<polygon fill="#ffffff" stroke="black" points="385,-434 273,-434 273,-398 385,-398 385,-434"/>
<text text-anchor="middle" x="329" y="-412.3" font-family="Sans Not-Rotated 14" font-size="14.00">CODE ERROR</text>
</g>
<!-- RELEASE&#45;&gt;CODE ERROR -->
<g id="edge7" class="edge">
<title>RELEASE&#45;&gt;CODE ERROR</title>
<path fill="none" stroke="black" stroke-width="1" d="M389.95,-484.65C383.27,-479.26 376.14,-473.11 370,-467 362.37,-459.39 354.69,-450.46 348.08,-442.27"/>
<polygon fill="black" stroke="black" stroke-width="1" points="350.81,-440.07 341.87,-434.39 345.32,-444.41 350.81,-440.07"/>
<text text-anchor="middle" x="372.5" y="-455.8" font-family="Sans Not-Rotated 14" font-size="14.00"> </text>
</g>
<!-- CODE NOK -->
<g id="node10" class="node">
<title>CODE NOK</title>
<polygon fill="#ffffff" stroke="black" points="721.5,-434 628.5,-434 628.5,-398 721.5,-398 721.5,-434"/>
<text text-anchor="middle" x="675" y="-412.3" font-family="Sans Not-Rotated 14" font-size="14.00">CODE NOK</text>
</g>
<!-- RELEASE&#45;&gt;CODE NOK -->
<g id="edge6" class="edge">
<title>RELEASE&#45;&gt;CODE NOK</title>
<path fill="none" stroke="black" stroke-width="1.08" d="M453.08,-489C497.29,-474.65 568.77,-451.46 618.62,-435.29"/>
<polygon fill="black" stroke="black" stroke-width="1.08" points="619.86,-438.57 628.29,-432.15 617.7,-431.91 619.86,-438.57"/>
<text text-anchor="middle" x="579.5" y="-455.8" font-family="Sans Not-Rotated 14" font-size="14.00"> &#160;&#160;&#160;&#160;&#160;&#160;&#160;&#160;</text>
</g>
<!-- CODE OK -->
<g id="node11" class="node">
<title>CODE OK</title>
<polygon fill="#1f3b98" stroke="black" points="679.5,-326 596.5,-326 596.5,-290 679.5,-290 679.5,-326"/>
<text text-anchor="middle" x="638" y="-304.3" font-family="Sans Not-Rotated 14" font-size="14.00" fill="white">CODE OK</text>
</g>
<!-- RELEASE&#45;&gt;CODE OK -->
<g id="edge10" class="edge">
<title>RELEASE&#45;&gt;CODE OK</title>
<path fill="none" stroke="black" stroke-width="3.95" d="M443.06,-484.97C450.73,-479.79 458.61,-473.69 465,-467 489.8,-441.04 482.26,-424.01 507,-398 532.88,-370.79 568.43,-347.29 595.96,-331.28"/>
<polygon fill="black" stroke="black" stroke-width="3.95" points="598.02,-334.13 604.97,-326.14 594.55,-328.05 598.02,-334.13"/>
<text text-anchor="middle" x="563.5" y="-412.3" font-family="Sans Not-Rotated 14" font-size="14.00"> &#160;&#160;&#160;&#160;&#160;&#160;&#160;&#160;&#160;&#160;&#160;&#160;&#160;&#160;&#160;&#160;&#160;&#160;&#160;&#160;&#160;&#160;&#160;&#160;</text>
</g>
<!-- ZDBC_BEHAN -->
<g id="node14" class="node">
<title>ZDBC_BEHAN</title>
<polygon fill="#ffffff" stroke="black" points="920,-380 806,-380 806,-344 920,-344 920,-380"/>
<text text-anchor="middle" x="863" y="-358.3" font-family="Sans Not-Rotated 14" font-size="14.00">ZDBC_BEHAN</text>
</g>
<!-- RELEASE&#45;&gt;ZDBC_BEHAN -->
<g id="edge18" class="edge">
<title>RELEASE&#45;&gt;ZDBC_BEHAN</title>
<path fill="none" stroke="black" d="M453.13,-502.29C524.79,-501.23 677.77,-491.71 790,-434 811.42,-422.98 830.72,-403.58 844.09,-387.84"/>
<polygon fill="black" stroke="black" points="846.88,-389.96 850.51,-380.01 841.47,-385.52 846.88,-389.96"/>
<text text-anchor="middle" x="751.5" y="-455.8" font-family="Sans Not-Rotated 14" font-size="14.00"> </text>
</g>
<!-- MANUAL -->
<g id="node18" class="node">
<title>MANUAL</title>
<polygon fill="#ffffff" stroke="black" points="498.5,-131 421.5,-131 421.5,-95 498.5,-95 498.5,-131"/>
<text text-anchor="middle" x="460" y="-109.3" font-family="Sans Not-Rotated 14" font-size="14.00">MANUAL</text>
</g>
<!-- RELEASE&#45;&gt;MANUAL -->
<g id="edge27" class="edge">
<title>RELEASE&#45;&gt;MANUAL</title>
<path fill="none" stroke="black" stroke-width="1.01" d="M410.78,-484.89C403.02,-422.57 379.15,-208.25 410,-149 412.12,-144.92 414.96,-141.23 418.21,-137.89"/>
<polygon fill="black" stroke="black" stroke-width="1.01" points="420.66,-140.4 425.86,-131.18 416.04,-135.14 420.66,-140.4"/>
<text text-anchor="middle" x="406.5" y="-304.3" font-family="Sans Not-Rotated 14" font-size="14.00"> &#160;&#160;&#160;</text>
</g>
<!-- BILLED -->
<g id="node3" class="node">
<title>BILLED</title>
<polygon fill="#1946ba" stroke="black" points="748,-218 680,-218 680,-182 748,-182 748,-218"/>
<text text-anchor="middle" x="714" y="-196.3" font-family="Sans Not-Rotated 14" font-size="14.00" fill="white">BILLED</text>
</g>
<!-- STORNO -->
<g id="node7" class="node">
<title>STORNO</title>
<polygon fill="#ffffff" stroke="black" points="816.5,-131 739.5,-131 739.5,-95 816.5,-95 816.5,-131"/>
<text text-anchor="middle" x="778" y="-109.3" font-family="Sans Not-Rotated 14" font-size="14.00">STORNO</text>
</g>
<!-- BILLED&#45;&gt;STORNO -->
<g id="edge1" class="edge">
<title>BILLED&#45;&gt;STORNO</title>
<path fill="none" stroke="black" stroke-width="1.15" d="M710.26,-181.61C709.01,-171.41 709.18,-158.67 715,-149 718.86,-142.59 724.35,-137.26 730.51,-132.86"/>
<polygon fill="black" stroke="black" stroke-width="1.15" points="732.59,-135.69 739.22,-127.43 728.89,-129.75 732.59,-135.69"/>
<text text-anchor="middle" x="735.5" y="-152.8" font-family="Sans Not-Rotated 14" font-size="14.00"> &#160;&#160;&#160;&#160;&#160;&#160;&#160;&#160;</text>
</g>
<!-- JOIN&#45;PAT -->
<g id="node16" class="node">
<title>JOIN&#45;PAT</title>
<polygon fill="#ffffff" stroke="black" points="128,-131 48,-131 48,-95 128,-95 128,-131"/>
<text text-anchor="middle" x="88" y="-109.3" font-family="Sans Not-Rotated 14" font-size="14.00">JOIN&#45;PAT</text>
</g>
<!-- BILLED&#45;&gt;JOIN&#45;PAT -->
<g id="edge24" class="edge">
<title>BILLED&#45;&gt;JOIN&#45;PAT</title>
<path fill="none" stroke="black" stroke-width="1" d="M679.92,-194.21C615.88,-185.22 473.23,-165.27 353,-149 278.41,-138.91 191.97,-127.56 138.63,-120.59"/>
<polygon fill="black" stroke="black" stroke-width="1" points="138.79,-117.08 128.42,-119.26 137.88,-124.02 138.79,-117.08"/>
<text text-anchor="middle" x="465.5" y="-152.8" font-family="Sans Not-Rotated 14" font-size="14.00"> </text>
</g>
<!-- BILLED&#45;&gt;MANUAL -->
<g id="edge28" class="edge">
<title>BILLED&#45;&gt;MANUAL</title>
<path fill="none" stroke="black" stroke-width="1" d="M679.96,-191.1C657.04,-185.14 626.47,-175.96 601,-164 589.95,-158.81 589.08,-154.12 578,-149 555.97,-138.81 530.25,-130.77 508.46,-124.98"/>
<polygon fill="black" stroke="black" stroke-width="1" points="509.31,-121.59 498.75,-122.48 507.56,-128.37 509.31,-121.59"/>
<text text-anchor="middle" x="610.5" y="-152.8" font-family="Sans Not-Rotated 14" font-size="14.00"> &#160;&#160;&#160;</text>
</g>
<!-- end -->
<g id="node20" class="node">
<title>end</title>
<ellipse fill="#ea4126" stroke="black" cx="460" cy="-22" rx="18" ry="18"/>
<ellipse fill="none" stroke="black" cx="460" cy="-22" rx="22" ry="22"/>
</g>
<!-- BILLED&#45;&gt;end -->
<g id="edge29" class="edge">
<title>BILLED&#45;&gt;end</title>
<path fill="none" stroke="black" stroke-dasharray="5,2" d="M686.99,-181.73C667.22,-168.65 640.1,-149.78 618,-131 585.19,-103.11 585.52,-86.34 550,-62 531.63,-49.41 508.54,-39.51 490.35,-32.83"/>
<polygon fill="black" stroke="black" points="491.4,-29.49 480.81,-29.45 489.07,-36.09 491.4,-29.49"/>
<text text-anchor="middle" x="674.5" y="-109.3" font-family="Sans Not-Rotated 14" font-size="14.00"> &#160;&#160;&#160;&#160;&#160;&#160;&#160;&#160;&#160;&#160;&#160;&#160;&#160;&#160;&#160;&#160;&#160;&#160;&#160;&#160;&#160;&#160;&#160;&#160;</text>
</g>
<!-- EMPTY&#45;&gt;end -->
<g id="edge31" class="edge">
<title>EMPTY&#45;&gt;end</title>
<path fill="none" stroke="black" stroke-dasharray="5,2" d="M150.78,-343.97C157.3,-323.21 167,-286.95 167,-255 167,-255 167,-255 167,-112 167,-57.92 352.02,-33.59 428.01,-25.88"/>
<polygon fill="black" stroke="black" points="428.37,-29.36 437.98,-24.9 427.68,-22.39 428.37,-29.36"/>
<text text-anchor="middle" x="169.5" y="-196.3" font-family="Sans Not-Rotated 14" font-size="14.00"> </text>
</g>
<!-- SET STATUS -->
<g id="node5" class="node">
<title>SET STATUS</title>
<polygon fill="#ffffff" stroke="black" points="615,-272 511,-272 511,-236 615,-236 615,-272"/>
<text text-anchor="middle" x="563" y="-250.3" font-family="Sans Not-Rotated 14" font-size="14.00">SET STATUS</text>
</g>
<!-- SET STATUS&#45;&gt;end -->
<g id="edge32" class="edge">
<title>SET STATUS&#45;&gt;end</title>
<path fill="none" stroke="black" stroke-dasharray="5,2" d="M557.13,-235.75C543.62,-196.14 511.27,-101.57 508,-95 499.88,-78.67 488.66,-61.63 479.12,-48.24"/>
<polygon fill="black" stroke="black" points="481.84,-46.03 473.13,-40 476.18,-50.15 481.84,-46.03"/>
<text text-anchor="middle" x="551.5" y="-152.8" font-family="Sans Not-Rotated 14" font-size="14.00"> &#160;&#160;&#160;&#160;&#160;&#160;&#160;&#160;</text>
</g>
<!-- DELETE&#45;&gt;end -->
<g id="edge33" class="edge">
<title>DELETE&#45;&gt;end</title>
<path fill="none" stroke="black" stroke-dasharray="5,2" d="M248.96,-289.97C256.66,-259.46 275.87,-194.43 309,-149 343.48,-101.72 399.47,-61.27 432.72,-39.7"/>
<polygon fill="black" stroke="black" points="434.91,-42.46 441.45,-34.13 431.14,-36.55 434.91,-42.46"/>
<text text-anchor="middle" x="345.5" y="-152.8" font-family="Sans Not-Rotated 14" font-size="14.00"> &#160;&#160;&#160;&#160;&#160;&#160;&#160;&#160;&#160;&#160;&#160;&#160;&#160;&#160;&#160;</text>
</g>
<!-- STORNO&#45;&gt;BILLED -->
<g id="edge34" class="edge">
<title>STORNO&#45;&gt;BILLED</title>
<path fill="none" stroke="black" stroke-width="1.07" d="M772.65,-131.26C768.97,-141.41 763.41,-154.15 756,-164 753.09,-167.87 749.66,-171.59 746.05,-175.07"/>
<polygon fill="black" stroke="black" stroke-width="1.07" points="743.61,-172.56 738.47,-181.82 748.26,-177.78 743.61,-172.56"/>
<text text-anchor="middle" x="784.5" y="-152.8" font-family="Sans Not-Rotated 14" font-size="14.00"> &#160;&#160;&#160;&#160;&#160;&#160;&#160;&#160;</text>
</g>
<!-- REJECT -->
<g id="node8" class="node">
<title>REJECT</title>
<polygon fill="#ffffff" stroke="black" points="893,-40 825,-40 825,-4 893,-4 893,-40"/>
<text text-anchor="middle" x="859" y="-18.3" font-family="Sans Not-Rotated 14" font-size="14.00">REJECT</text>
</g>
<!-- STORNO&#45;&gt;REJECT -->
<g id="edge15" class="edge">
<title>STORNO&#45;&gt;REJECT</title>
<path fill="none" stroke="black" stroke-width="1.08" d="M784.62,-94.56C789.07,-84.33 795.64,-71.59 804,-62 808.97,-56.3 814.94,-50.99 821.08,-46.24"/>
<polygon fill="black" stroke="black" stroke-width="1.08" points="823.46,-48.83 829.48,-40.12 819.34,-43.17 823.46,-48.83"/>
<text text-anchor="middle" x="824.5" y="-65.8" font-family="Sans Not-Rotated 14" font-size="14.00"> &#160;&#160;&#160;&#160;&#160;&#160;&#160;&#160;</text>
</g>
<!-- REJECT&#45;&gt;REOPEN -->
<g id="edge36" class="edge">
<title>REJECT&#45;&gt;REOPEN</title>
<path fill="none" stroke="black" stroke-width="1.02" d="M869.07,-40.12C876.92,-54.33 887.41,-75.32 893,-95 937.3,-251.05 926,-296.28 926,-458.5 926,-678 926,-678 926,-678 926,-742 709.4,-757.84 610.83,-761.74"/>
<polygon fill="black" stroke="black" stroke-width="1.02" points="610.68,-758.24 600.82,-762.11 610.94,-765.24 610.68,-758.24"/>
<text text-anchor="middle" x="935.5" y="-412.3" font-family="Sans Not-Rotated 14" font-size="14.00"> &#160;&#160;&#160;</text>
</g>
<!-- REJECT&#45;&gt;BILLED -->
<g id="edge35" class="edge">
<title>REJECT&#45;&gt;BILLED</title>
<path fill="none" stroke="black" stroke-width="1.05" d="M858.07,-40.24C855.5,-70.13 845.77,-131.48 809,-164 794.8,-176.56 775.71,-184.74 758.36,-190.02"/>
<polygon fill="black" stroke="black" stroke-width="1.05" points="757.09,-186.74 748.4,-192.79 758.97,-193.48 757.09,-186.74"/>
<text text-anchor="middle" x="868.5" y="-109.3" font-family="Sans Not-Rotated 14" font-size="14.00"> &#160;&#160;&#160;&#160;&#160;&#160;&#160;&#160;</text>
</g>
<!-- CODE ERROR&#45;&gt;REOPEN -->
<g id="edge37" class="edge">
<title>CODE ERROR&#45;&gt;REOPEN</title>
<path fill="none" stroke="black" stroke-width="1" d="M309.42,-434.17C304.79,-439.38 300.48,-445.47 298,-452 281.73,-494.91 286.91,-516.96 314,-554 321.32,-564.01 502.35,-650.12 511,-659 522.48,-670.78 540.42,-709.72 551.94,-736.45"/>
<polygon fill="black" stroke="black" stroke-width="1" points="548.73,-737.85 555.87,-745.68 555.17,-735.11 548.73,-737.85"/>
<text text-anchor="middle" x="416.5" y="-586.3" font-family="Sans Not-Rotated 14" font-size="14.00"> </text>
</g>
<!-- CODE ERROR&#45;&gt;RELEASE -->
<g id="edge38" class="edge">
<title>CODE ERROR&#45;&gt;RELEASE</title>
<path fill="none" stroke="black" stroke-width="1" d="M351.01,-434.1C357.65,-439.58 364.81,-445.84 371,-452 378.71,-459.68 386.54,-468.63 393.33,-476.82"/>
<polygon fill="black" stroke="black" stroke-width="1" points="390.69,-479.13 399.71,-484.68 396.12,-474.71 390.69,-479.13"/>
<text text-anchor="middle" x="387.5" y="-455.8" font-family="Sans Not-Rotated 14" font-size="14.00"> </text>
</g>
<!-- CODE NOK&#45;&gt;REOPEN -->
<g id="edge41" class="edge">
<title>CODE NOK&#45;&gt;REOPEN</title>
<path fill="none" stroke="black" stroke-width="1.01" d="M721.55,-428.4C757.08,-440.22 800,-462.63 800,-502 800,-678 800,-678 800,-678 800,-717.81 680.02,-744 610.79,-755.8"/>
<polygon fill="black" stroke="black" stroke-width="1.01" points="609.84,-752.41 600.55,-757.5 610.99,-759.31 609.84,-752.41"/>
<text text-anchor="middle" x="809.5" y="-586.3" font-family="Sans Not-Rotated 14" font-size="14.00"> &#160;&#160;&#160;</text>
</g>
<!-- CODE NOK&#45;&gt;BILLED -->
<g id="edge39" class="edge">
<title>CODE NOK&#45;&gt;BILLED</title>
<path fill="none" stroke="black" stroke-width="1.02" d="M688.05,-397.69C706.57,-371.92 739.59,-321.21 752,-272 755.91,-256.49 758.43,-250.65 752,-236 750.38,-232.32 748.17,-228.85 745.61,-225.64"/>
<polygon fill="black" stroke="black" stroke-width="1.02" points="748.08,-223.14 738.71,-218.19 742.94,-227.9 748.08,-223.14"/>
<text text-anchor="middle" x="755.5" y="-304.3" font-family="Sans Not-Rotated 14" font-size="14.00"> &#160;&#160;&#160;</text>
</g>
<!-- CODE NOK&#45;&gt;SET STATUS -->
<g id="edge3" class="edge">
<title>CODE NOK&#45;&gt;SET STATUS</title>
<path fill="none" stroke="black" stroke-width="1.02" d="M649.01,-397.75C641.85,-392.46 634.32,-386.34 628,-380 606.91,-358.85 602,-352.38 588,-326 580.63,-312.11 574.66,-295.59 570.41,-281.99"/>
<polygon fill="black" stroke="black" stroke-width="1.02" points="573.71,-280.82 567.5,-272.24 567.01,-282.82 573.71,-280.82"/>
<text text-anchor="middle" x="637.5" y="-358.3" font-family="Sans Not-Rotated 14" font-size="14.00"> &#160;&#160;&#160;</text>
</g>
<!-- CODE NOK&#45;&gt;DELETE -->
<g id="edge42" class="edge">
<title>CODE NOK&#45;&gt;DELETE</title>
<path fill="none" stroke="black" stroke-width="1.01" d="M628.47,-401.65C623.59,-400.36 618.7,-399.12 614,-398 574.33,-388.52 563.78,-389.03 524,-380 441.64,-361.3 346.44,-336.35 291.24,-321.55"/>
<polygon fill="black" stroke="black" stroke-width="1.01" points="291.98,-318.12 281.41,-318.91 290.16,-324.88 291.98,-318.12"/>
<text text-anchor="middle" x="533.5" y="-358.3" font-family="Sans Not-Rotated 14" font-size="14.00"> &#160;&#160;&#160;</text>
</g>
<!-- CODE NOK&#45;&gt;CODE NOK -->
<g id="edge50" class="edge">
<title>CODE NOK&#45;&gt;CODE NOK</title>
<path fill="none" stroke="black" stroke-width="1.04" d="M721.67,-423.66C731.99,-422.94 739.5,-420.39 739.5,-416 739.5,-413.26 736.57,-411.23 731.85,-409.92"/>
<polygon fill="black" stroke="black" stroke-width="1.04" points="732.09,-406.42 721.67,-408.34 731.02,-413.33 732.09,-406.42"/>
<text text-anchor="middle" x="760" y="-412.3" font-family="Sans Not-Rotated 14" font-size="14.00"> &#160;&#160;&#160;&#160;&#160;&#160;&#160;&#160;</text>
</g>
<!-- CODE NOK&#45;&gt;CODE OK -->
<g id="edge40" class="edge">
<title>CODE NOK&#45;&gt;CODE OK</title>
<path fill="none" stroke="black" stroke-width="1.02" d="M669.06,-397.97C663.21,-381.22 654.2,-355.41 647.39,-335.89"/>
<polygon fill="black" stroke="black" stroke-width="1.02" points="650.65,-334.63 644.05,-326.34 644.04,-336.94 650.65,-334.63"/>
<text text-anchor="middle" x="670.5" y="-358.3" font-family="Sans Not-Rotated 14" font-size="14.00"> &#160;&#160;&#160;</text>
</g>
<!-- CODE OK&#45;&gt;REOPEN -->
<g id="edge9" class="edge">
<title>CODE OK&#45;&gt;REOPEN</title>
<path fill="none" stroke="black" stroke-width="1.17" d="M674.41,-326.16C734.28,-355.6 847,-416.56 847,-458.5 847,-678 847,-678 847,-678 847,-726.74 691.55,-749.89 610.66,-758.63"/>
<polygon fill="black" stroke="black" stroke-width="1.17" points="610.29,-755.15 600.71,-759.67 611.02,-762.11 610.29,-755.15"/>
<text text-anchor="middle" x="867.5" y="-542.8" font-family="Sans Not-Rotated 14" font-size="14.00"> &#160;&#160;&#160;&#160;&#160;&#160;&#160;&#160;</text>
</g>
<!-- CODE OK&#45;&gt;BILLED -->
<g id="edge4" class="edge">
<title>CODE OK&#45;&gt;BILLED</title>
<path fill="none" stroke="black" stroke-width="3.74" d="M633.44,-289.76C630.42,-274.4 628.69,-251.94 639,-236 646.2,-224.86 657.97,-217.2 670.06,-211.97"/>
<polygon fill="black" stroke="black" stroke-width="3.74" points="671.66,-215.1 679.75,-208.27 669.16,-208.56 671.66,-215.1"/>
<text text-anchor="middle" x="695.5" y="-250.3" font-family="Sans Not-Rotated 14" font-size="14.00"> &#160;&#160;&#160;&#160;&#160;&#160;&#160;&#160;&#160;&#160;&#160;&#160;&#160;&#160;&#160;&#160;&#160;&#160;&#160;&#160;&#160;&#160;&#160;&#160;</text>
</g>
<!-- CODE OK&#45;&gt;MANUAL -->
<g id="edge8" class="edge">
<title>CODE OK&#45;&gt;MANUAL</title>
<path fill="none" stroke="black" stroke-width="1.01" d="M596.4,-305.62C568.58,-302.54 533,-294.11 510,-272 491.05,-253.79 473.69,-181.12 465.29,-140.98"/>
<polygon fill="black" stroke="black" stroke-width="1.01" points="468.7,-140.16 463.26,-131.06 461.84,-141.56 468.7,-140.16"/>
<text text-anchor="middle" x="493.5" y="-196.3" font-family="Sans Not-Rotated 14" font-size="14.00"> &#160;&#160;&#160;</text>
</g>
<!-- NEW -->
<g id="node12" class="node">
<title>NEW</title>
<polygon fill="#1d2559" stroke="black" points="266,-869 212,-869 212,-833 266,-833 266,-869"/>
<text text-anchor="middle" x="239" y="-847.3" font-family="Sans Not-Rotated 14" font-size="14.00" fill="white">NEW</text>
</g>
<!-- NEW&#45;&gt;DELETE -->
<g id="edge12" class="edge">
<title>NEW&#45;&gt;DELETE</title>
<path fill="none" stroke="black" stroke-width="1.23" d="M211.97,-848.96C170.5,-845.74 92.29,-832.85 57,-782 47.88,-768.85 55.37,-761.92 57,-746 69.09,-627.88 63.84,-592.62 114,-485 141.74,-425.48 191.53,-366.31 221.08,-334.01"/>
<polygon fill="black" stroke="black" stroke-width="1.23" points="223.91,-336.11 228.14,-326.39 218.78,-331.35 223.91,-336.11"/>
<text text-anchor="middle" x="117.5" y="-586.3" font-family="Sans Not-Rotated 14" font-size="14.00"> &#160;&#160;&#160;&#160;&#160;&#160;&#160;&#160;&#160;&#160;&#160;&#160;&#160;&#160;&#160;</text>
</g>
<!-- CHANGE DIAGN -->
<g id="node13" class="node">
<title>CHANGE DIAGN</title>
<polygon fill="#7d7fd2" stroke="black" points="195.5,-782 66.5,-782 66.5,-746 195.5,-746 195.5,-782"/>
<text text-anchor="middle" x="131" y="-760.3" font-family="Sans Not-Rotated 14" font-size="14.00">CHANGE DIAGN</text>
</g>
<!-- NEW&#45;&gt;CHANGE DIAGN -->
<g id="edge17" class="edge">
<title>NEW&#45;&gt;CHANGE DIAGN</title>
<path fill="none" stroke="black" stroke-width="2.84" d="M217.14,-832.8C201.04,-820.13 178.94,-802.73 161.16,-788.74"/>
<polygon fill="black" stroke="black" stroke-width="2.84" points="162.85,-785.61 152.82,-782.18 158.52,-791.11 162.85,-785.61"/>
<text text-anchor="middle" x="228.5" y="-803.8" font-family="Sans Not-Rotated 14" font-size="14.00"> &#160;&#160;&#160;&#160;&#160;&#160;&#160;&#160;&#160;&#160;&#160;&#160;&#160;&#160;&#160;</text>
</g>
<!-- NEW&#45;&gt;CHANGE END -->
<g id="edge19" class="edge">
<title>NEW&#45;&gt;CHANGE END</title>
<path fill="none" stroke="black" stroke-width="1" d="M266.23,-837.02C276.62,-831.22 288.09,-823.72 297,-815 329.68,-782.99 334.6,-770.31 352,-728 354.97,-720.77 357.2,-712.6 358.85,-704.99"/>
<polygon fill="black" stroke="black" stroke-width="1" points="362.3,-705.59 360.75,-695.11 355.42,-704.27 362.3,-705.59"/>
<text text-anchor="middle" x="347.5" y="-760.3" font-family="Sans Not-Rotated 14" font-size="14.00"> </text>
</g>
<!-- NEW&#45;&gt;JOIN&#45;PAT -->
<g id="edge22" class="edge">
<title>NEW&#45;&gt;JOIN&#45;PAT</title>
<path fill="none" stroke="black" stroke-width="1" d="M211.9,-847.87C177.63,-844.4 117.36,-835.71 70,-815 34.97,-799.68 0,-803.23 0,-765 0,-765 0,-765 0,-199 0,-172 21.7,-150.85 43.55,-136.41"/>
<polygon fill="black" stroke="black" stroke-width="1" points="45.57,-139.27 52.21,-131.01 41.87,-133.33 45.57,-139.27"/>
<text text-anchor="middle" x="9.5" y="-499.3" font-family="Sans Not-Rotated 14" font-size="14.00"> &#160;&#160;&#160;</text>
</g>
<!-- NEW&#45;&gt;FIN -->
<g id="edge26" class="edge">
<title>NEW&#45;&gt;FIN</title>
<path fill="none" stroke="black" stroke-width="2.19" d="M257.71,-832.64C262.19,-827.43 266.42,-821.38 269,-815 286,-772.89 267.7,-757.82 275,-713 280.43,-679.65 291.27,-642.27 299.05,-617.79"/>
<polygon fill="black" stroke="black" stroke-width="2.19" points="302.42,-618.72 302.17,-608.13 295.76,-616.57 302.42,-618.72"/>
<text text-anchor="middle" x="311.5" y="-716.8" font-family="Sans Not-Rotated 14" font-size="14.00"> &#160;&#160;&#160;&#160;&#160;&#160;&#160;&#160;&#160;&#160;&#160;&#160;&#160;&#160;&#160;</text>
</g>
<!-- NEW&#45;&gt;end -->
<g id="edge30" class="edge">
<title>NEW&#45;&gt;end</title>
<path fill="none" stroke="black" stroke-dasharray="5,2" d="M266.43,-849.76C399.68,-848.26 973,-837.56 973,-765 973,-765 973,-765 973,-253 973,-174.29 949.87,-149.42 893,-95 835.39,-39.88 582.68,-26.76 492.29,-23.81"/>
<polygon fill="black" stroke="black" points="492.2,-20.31 482.1,-23.5 491.98,-27.3 492.2,-20.31"/>
<text text-anchor="middle" x="1009.5" y="-455.8" font-family="Sans Not-Rotated 14" font-size="14.00"> &#160;&#160;&#160;&#160;&#160;&#160;&#160;&#160;&#160;&#160;&#160;&#160;&#160;&#160;&#160;</text>
</g>
<!-- CHANGE DIAGN&#45;&gt;DELETE -->
<g id="edge13" class="edge">
<title>CHANGE DIAGN&#45;&gt;DELETE</title>
<path fill="none" stroke="black" stroke-width="1.06" d="M135.42,-745.82C142.74,-717.25 157.8,-658.15 170,-608 198.48,-490.89 197.17,-459.38 232,-344 232.8,-341.36 233.69,-338.62 234.62,-335.91"/>
<polygon fill="black" stroke="black" stroke-width="1.06" points="237.99,-336.9 238.09,-326.3 231.4,-334.52 237.99,-336.9"/>
<text text-anchor="middle" x="206.5" y="-542.8" font-family="Sans Not-Rotated 14" font-size="14.00"> &#160;&#160;&#160;&#160;&#160;&#160;&#160;&#160;</text>
</g>
<!-- CHANGE DIAGN&#45;&gt;CHANGE DIAGN -->
<g id="edge49" class="edge">
<title>CHANGE DIAGN&#45;&gt;CHANGE DIAGN</title>
<path fill="none" stroke="black" stroke-width="1.12" d="M195.68,-771.29C206.24,-770.24 213.5,-767.81 213.5,-764 213.5,-761.56 210.52,-759.68 205.6,-758.38"/>
<polygon fill="black" stroke="black" stroke-width="1.12" points="206.12,-754.91 195.68,-756.71 204.96,-761.82 206.12,-754.91"/>
<text text-anchor="middle" x="234" y="-760.3" font-family="Sans Not-Rotated 14" font-size="14.00"> &#160;&#160;&#160;&#160;&#160;&#160;&#160;&#160;</text>
</g>
<!-- CHANGE DIAGN&#45;&gt;CHANGE END -->
<g id="edge20" class="edge">
<title>CHANGE DIAGN&#45;&gt;CHANGE END</title>
<path fill="none" stroke="black" stroke-width="1" d="M169.29,-745.99C192.68,-735.86 223.32,-723.07 251,-713 265.61,-707.69 281.45,-702.43 296.5,-697.67"/>
<polygon fill="black" stroke="black" stroke-width="1" points="297.76,-700.95 306.26,-694.62 295.67,-694.27 297.76,-700.95"/>
<text text-anchor="middle" x="253.5" y="-716.8" font-family="Sans Not-Rotated 14" font-size="14.00"> </text>
</g>
<!-- CHANGE DIAGN&#45;&gt;JOIN&#45;PAT -->
<g id="edge23" class="edge">
<title>CHANGE DIAGN&#45;&gt;JOIN&#45;PAT</title>
<path fill="none" stroke="black" stroke-width="1" d="M119.14,-745.73C95.99,-710.28 47,-626 47,-547.5 47,-547.5 47,-547.5 47,-199 47,-177.43 57.84,-155.57 68.37,-139.42"/>
<polygon fill="black" stroke="black" stroke-width="1" points="71.33,-141.3 74.12,-131.08 65.56,-137.33 71.33,-141.3"/>
<text text-anchor="middle" x="56.5" y="-455.8" font-family="Sans Not-Rotated 14" font-size="14.00"> &#160;&#160;&#160;</text>
</g>
<!-- CHANGE DIAGN&#45;&gt;FIN -->
<g id="edge25" class="edge">
<title>CHANGE DIAGN&#45;&gt;FIN</title>
<path fill="none" stroke="black" stroke-width="2.78" d="M137.64,-745.73C146.88,-723.5 165.39,-684.69 191,-659 214.09,-635.84 246.67,-617.76 271.58,-606.08"/>
<polygon fill="black" stroke="black" stroke-width="2.78" points="273.07,-609.25 280.72,-601.92 270.17,-602.88 273.07,-609.25"/>
<text text-anchor="middle" x="227.5" y="-673.3" font-family="Sans Not-Rotated 14" font-size="14.00"> &#160;&#160;&#160;&#160;&#160;&#160;&#160;&#160;&#160;&#160;&#160;&#160;&#160;&#160;&#160;</text>
</g>
<!-- ZDBC_BEHAN&#45;&gt;BILLED -->
<g id="edge43" class="edge">
<title>ZDBC_BEHAN&#45;&gt;BILLED</title>
<path fill="none" stroke="black" d="M855.01,-343.68C842.26,-317.58 815.14,-267.83 780,-236 773.3,-229.93 765.35,-224.56 757.33,-219.98"/>
<polygon fill="black" stroke="black" points="758.77,-216.78 748.3,-215.13 755.46,-222.95 758.77,-216.78"/>
<text text-anchor="middle" x="847.5" y="-304.3" font-family="Sans Not-Rotated 14" font-size="14.00"> </text>
</g>
<!-- CHANGE END&#45;&gt;FIN -->
<g id="edge44" class="edge">
<title>CHANGE END&#45;&gt;FIN</title>
<path fill="none" stroke="black" stroke-width="1" d="M351.87,-658.8C344.04,-646.7 333.43,-630.3 324.61,-616.67"/>
<polygon fill="black" stroke="black" stroke-width="1" points="327.48,-614.67 319.11,-608.18 321.61,-618.47 327.48,-614.67"/>
<text text-anchor="middle" x="341.5" y="-629.8" font-family="Sans Not-Rotated 14" font-size="14.00"> </text>
</g>
<!-- JOIN&#45;PAT&#45;&gt;FIN -->
<g id="edge46" class="edge">
<title>JOIN&#45;PAT&#45;&gt;FIN</title>
<path fill="none" stroke="black" stroke-width="1" d="M84.69,-131.17C77.07,-174 60.7,-288.71 84,-380 105.79,-465.37 109.83,-499.42 179,-554 205.25,-574.71 242.82,-583.2 270.65,-586.66"/>
<polygon fill="black" stroke="black" stroke-width="1" points="270.47,-590.16 280.79,-587.75 271.23,-583.2 270.47,-590.16"/>
<text text-anchor="middle" x="93.5" y="-358.3" font-family="Sans Not-Rotated 14" font-size="14.00"> &#160;&#160;&#160;</text>
</g>
<!-- JOIN&#45;PAT&#45;&gt;end -->
<g id="edge45" class="edge">
<title>JOIN&#45;PAT&#45;&gt;end</title>
<path fill="none" stroke="black" stroke-dasharray="5,2" d="M99.07,-94.65C107.27,-83.37 119.51,-69.42 134,-62 184.8,-36 355.55,-26.81 427.55,-24.04"/>
<polygon fill="black" stroke="black" points="427.96,-27.53 437.83,-23.67 427.71,-20.54 427.96,-27.53"/>
<text text-anchor="middle" x="143.5" y="-65.8" font-family="Sans Not-Rotated 14" font-size="14.00"> &#160;&#160;&#160;</text>
</g>
<!-- FIN&#45;&gt;RELEASE -->
<g id="edge5" class="edge">
<title>FIN&#45;&gt;RELEASE</title>
<path fill="none" stroke="black" stroke-width="4.05" d="M335.09,-580.17C349.84,-574.4 367.74,-565.73 381,-554 388.6,-547.28 395.08,-538.34 400.19,-529.88"/>
<polygon fill="black" stroke="black" stroke-width="4.05" points="403.36,-531.46 405.17,-521.01 397.18,-527.99 403.36,-531.46"/>
<text text-anchor="middle" x="450.5" y="-542.8" font-family="Sans Not-Rotated 14" font-size="14.00"> &#160;&#160;&#160;&#160;&#160;&#160;&#160;&#160;&#160;&#160;&#160;&#160;&#160;&#160;&#160;&#160;&#160;&#160;&#160;&#160;&#160;&#160;&#160;&#160;</text>
</g>
<!-- MANUAL&#45;&gt;RELEASE -->
<g id="edge47" class="edge">
<title>MANUAL&#45;&gt;RELEASE</title>
<path fill="none" stroke="black" stroke-width="1.01" d="M459.04,-131.03C455.98,-182.21 445.22,-339.03 422,-467 421.54,-469.54 420.99,-472.17 420.4,-474.79"/>
<polygon fill="black" stroke="black" stroke-width="1.01" points="416.96,-474.12 417.99,-484.66 423.76,-475.78 416.96,-474.12"/>
<text text-anchor="middle" x="455.5" y="-304.3" font-family="Sans Not-Rotated 14" font-size="14.00"> &#160;&#160;&#160;</text>
</g>
<!-- MANUAL&#45;&gt;end -->
<g id="edge48" class="edge">
<title>MANUAL&#45;&gt;end</title>
<path fill="none" stroke="black" stroke-dasharray="5,2" d="M460,-94.84C460,-83.44 460,-68.13 460,-54.58"/>
<polygon fill="black" stroke="black" points="463.5,-54.19 460,-44.19 456.5,-54.19 463.5,-54.19"/>
<text text-anchor="middle" x="469.5" y="-65.8" font-family="Sans Not-Rotated 14" font-size="14.00"> &#160;&#160;&#160;</text>
</g>
<!-- start -->
<g id="node19" class="node">
<title>start</title>
<ellipse fill="#95d600" stroke="black" cx="239" cy="-947.3" rx="27.1" ry="27.1"/>
<text text-anchor="middle" x="239" y="-943.6" font-family="Sans Not-Rotated 14" font-size="14.00">start</text>
</g>
<!-- start&#45;&gt;NEW -->
<g id="edge16" class="edge">
<title>start&#45;&gt;NEW</title>
<path fill="none" stroke="black" stroke-dasharray="5,2" d="M239,-919.78C239,-907.1 239,-891.93 239,-879.17"/>
<polygon fill="black" stroke="black" points="242.5,-879.12 239,-869.12 235.5,-879.12 242.5,-879.12"/>
<text text-anchor="middle" x="295.5" y="-890.8" font-family="Sans Not-Rotated 14" font-size="14.00"> &#160;&#160;&#160;&#160;&#160;&#160;&#160;&#160;&#160;&#160;&#160;&#160;&#160;&#160;&#160;&#160;&#160;&#160;&#160;&#160;&#160;&#160;&#160;&#160;</text>
</g>
</g>
</svg>
