<?xml version="1.0" encoding="UTF-8" standalone="no"?>
<!DOCTYPE svg PUBLIC "-//W3C//DTD SVG 1.1//EN"
 "http://www.w3.org/Graphics/SVG/1.1/DTD/svg11.dtd">
<!-- Generated by graphviz version 3.0.0 (20220226.1711)
 -->
<!-- Pages: 1 -->
<svg width="700pt" height="1004pt"
 viewBox="0.00 0.00 700.00 1003.60" xmlns="http://www.w3.org/2000/svg" xmlns:xlink="http://www.w3.org/1999/xlink">
<g id="graph0" class="graph" transform="scale(1 1) rotate(0) translate(4 999.6)">
<polygon fill="white" stroke="transparent" points="-4,4 -4,-999.6 696,-999.6 696,4 -4,4"/>
<!-- REOPEN -->
<g id="node1" class="node">
<title>REOPEN</title>
<polygon fill="#ffffff" stroke="black" points="121.5,-695 46.5,-695 46.5,-659 121.5,-659 121.5,-695"/>
<text text-anchor="middle" x="84" y="-673.3" font-family="Sans Not-Rotated 14" font-size="14.00">REOPEN</text>
</g>
<!-- FIN -->
<g id="node17" class="node">
<title>FIN</title>
<polygon fill="#1f3b98" stroke="black" points="394,-608 340,-608 340,-572 394,-572 394,-608"/>
<text text-anchor="middle" x="367" y="-586.3" font-family="Sans Not-Rotated 14" font-size="14.00" fill="white">FIN</text>
</g>
<!-- REOPEN&#45;&gt;FIN -->
<g id="edge2" class="edge">
<title>REOPEN&#45;&gt;FIN</title>
<path fill="none" stroke="black" stroke-width="1.17" d="M121.58,-664.71C175.96,-648.38 275.98,-618.34 330.02,-602.11"/>
<polygon fill="black" stroke="black" stroke-width="1.17" points="331.31,-605.38 339.88,-599.15 329.29,-598.67 331.31,-605.38"/>
<text text-anchor="middle" x="262.5" y="-629.8" font-family="Sans Not-Rotated 14" font-size="14.00"> &#160;&#160;&#160;&#160;&#160;&#160;&#160;&#160;</text>
</g>
<!-- RELEASE -->
<g id="node2" class="node">
<title>RELEASE</title>
<polygon fill="#1f3b98" stroke="black" points="407,-521 327,-521 327,-485 407,-485 407,-521"/>
<text text-anchor="middle" x="367" y="-499.3" font-family="Sans Not-Rotated 14" font-size="14.00" fill="white">RELEASE</text>
</g>
<!-- EMPTY -->
<g id="node4" class="node">
<title>EMPTY</title>
<polygon fill="#ffffff" stroke="black" points="556.5,-380 491.5,-380 491.5,-344 556.5,-344 556.5,-380"/>
<text text-anchor="middle" x="524" y="-358.3" font-family="Sans Not-Rotated 14" font-size="14.00">EMPTY</text>
</g>
<!-- RELEASE&#45;&gt;EMPTY -->
<g id="edge11" class="edge">
<title>RELEASE&#45;&gt;EMPTY</title>
<path fill="none" stroke="black" d="M407.1,-498.27C431.11,-494.12 460.79,-485.39 481,-467 503.05,-446.93 514.1,-413.82 519.42,-390.36"/>
<polygon fill="black" stroke="black" points="522.89,-390.84 521.48,-380.34 516.03,-389.43 522.89,-390.84"/>
<text text-anchor="middle" x="495.5" y="-455.8" font-family="Sans Not-Rotated 14" font-size="14.00"> </text>
</g>
<!-- CODE ERROR -->
<g id="node9" class="node">
<title>CODE ERROR</title>
<polygon fill="#ffffff" stroke="black" points="140,-434 28,-434 28,-398 140,-398 140,-434"/>
<text text-anchor="middle" x="84" y="-412.3" font-family="Sans Not-Rotated 14" font-size="14.00">CODE ERROR</text>
</g>
<!-- RELEASE&#45;&gt;CODE ERROR -->
<g id="edge7" class="edge">
<title>RELEASE&#45;&gt;CODE ERROR</title>
<path fill="none" stroke="black" stroke-width="1" d="M326.67,-502.44C279.88,-501.48 201.44,-495.22 141,-467 128.01,-460.94 115.76,-450.98 105.97,-441.55"/>
<polygon fill="black" stroke="black" stroke-width="1" points="108.2,-438.82 98.68,-434.18 103.22,-443.75 108.2,-438.82"/>
<text text-anchor="middle" x="143.5" y="-455.8" font-family="Sans Not-Rotated 14" font-size="14.00"> </text>
</g>
<!-- CODE NOK -->
<g id="node10" class="node">
<title>CODE NOK</title>
<polygon fill="#ffffff" stroke="black" points="438.5,-434 345.5,-434 345.5,-398 438.5,-398 438.5,-434"/>
<text text-anchor="middle" x="392" y="-412.3" font-family="Sans Not-Rotated 14" font-size="14.00">CODE NOK</text>
</g>
<!-- RELEASE&#45;&gt;CODE NOK -->
<g id="edge6" class="edge">
<title>RELEASE&#45;&gt;CODE NOK</title>
<path fill="none" stroke="black" stroke-width="1.08" d="M372.06,-484.8C375.52,-473.05 380.17,-457.24 384.11,-443.84"/>
<polygon fill="black" stroke="black" stroke-width="1.08" points="387.48,-444.76 386.95,-434.18 380.77,-442.78 387.48,-444.76"/>
<text text-anchor="middle" x="400.5" y="-455.8" font-family="Sans Not-Rotated 14" font-size="14.00"> &#160;&#160;&#160;&#160;&#160;&#160;&#160;&#160;</text>
</g>
<!-- CODE OK -->
<g id="node11" class="node">
<title>CODE OK</title>
<polygon fill="#1f3b98" stroke="black" points="255.5,-326 172.5,-326 172.5,-290 255.5,-290 255.5,-326"/>
<text text-anchor="middle" x="214" y="-304.3" font-family="Sans Not-Rotated 14" font-size="14.00" fill="white">CODE OK</text>
</g>
<!-- RELEASE&#45;&gt;CODE OK -->
<g id="edge10" class="edge">
<title>RELEASE&#45;&gt;CODE OK</title>
<path fill="none" stroke="black" stroke-width="3.95" d="M326.78,-494.4C293.38,-485.81 247.63,-468.29 224,-434 204.15,-405.2 205.28,-363.31 208.87,-336.11"/>
<polygon fill="black" stroke="black" stroke-width="3.95" points="212.35,-336.53 210.39,-326.12 205.43,-335.48 212.35,-336.53"/>
<text text-anchor="middle" x="280.5" y="-412.3" font-family="Sans Not-Rotated 14" font-size="14.00"> &#160;&#160;&#160;&#160;&#160;&#160;&#160;&#160;&#160;&#160;&#160;&#160;&#160;&#160;&#160;&#160;&#160;&#160;&#160;&#160;&#160;&#160;&#160;&#160;</text>
</g>
<!-- ZDBC_BEHAN -->
<g id="node14" class="node">
<title>ZDBC_BEHAN</title>
<polygon fill="#ffffff" stroke="black" points="193,-380 79,-380 79,-344 193,-344 193,-380"/>
<text text-anchor="middle" x="136" y="-358.3" font-family="Sans Not-Rotated 14" font-size="14.00">ZDBC_BEHAN</text>
</g>
<!-- RELEASE&#45;&gt;ZDBC_BEHAN -->
<g id="edge16" class="edge">
<title>RELEASE&#45;&gt;ZDBC_BEHAN</title>
<path fill="none" stroke="black" d="M326.95,-497.72C282.92,-492.35 215.66,-481.99 195,-467 181.17,-456.97 160.74,-416.84 147.91,-389.47"/>
<polygon fill="black" stroke="black" points="151.08,-388 143.71,-380.39 144.73,-390.94 151.08,-388"/>
<text text-anchor="middle" x="197.5" y="-455.8" font-family="Sans Not-Rotated 14" font-size="14.00"> </text>
</g>
<!-- BILLED -->
<g id="node3" class="node">
<title>BILLED</title>
<polygon fill="#1946ba" stroke="black" points="197,-218 129,-218 129,-182 197,-182 197,-218"/>
<text text-anchor="middle" x="163" y="-196.3" font-family="Sans Not-Rotated 14" font-size="14.00" fill="white">BILLED</text>
</g>
<!-- STORNO -->
<g id="node7" class="node">
<title>STORNO</title>
<polygon fill="#ffffff" stroke="black" points="171.5,-127 94.5,-127 94.5,-91 171.5,-91 171.5,-127"/>
<text text-anchor="middle" x="133" y="-105.3" font-family="Sans Not-Rotated 14" font-size="14.00">STORNO</text>
</g>
<!-- BILLED&#45;&gt;STORNO -->
<g id="edge1" class="edge">
<title>BILLED&#45;&gt;STORNO</title>
<path fill="none" stroke="black" stroke-width="1.15" d="M128.73,-191.54C113.84,-186.42 97.82,-177.93 89,-164 82.4,-153.58 88.05,-142.89 97.22,-133.8"/>
<polygon fill="black" stroke="black" stroke-width="1.15" points="99.56,-136.41 104.79,-127.19 94.96,-131.13 99.56,-136.41"/>
<text text-anchor="middle" x="109.5" y="-152.8" font-family="Sans Not-Rotated 14" font-size="14.00"> &#160;&#160;&#160;&#160;&#160;&#160;&#160;&#160;</text>
</g>
<!-- end -->
<g id="node20" class="node">
<title>end</title>
<ellipse fill="#ea4126" stroke="black" cx="534" cy="-109" rx="18" ry="18"/>
<ellipse fill="none" stroke="black" cx="534" cy="-109" rx="22" ry="22"/>
</g>
<!-- BILLED&#45;&gt;end -->
<g id="edge23" class="edge">
<title>BILLED&#45;&gt;end</title>
<path fill="none" stroke="black" stroke-dasharray="5,2" d="M190.7,-181.84C199.74,-176.19 209.82,-169.86 219,-164 229.29,-157.43 230.56,-153.25 242,-149 331.91,-115.64 446.75,-110.22 501.78,-109.72"/>
<polygon fill="black" stroke="black" points="501.98,-113.22 511.96,-109.67 501.95,-106.22 501.98,-113.22"/>
<text text-anchor="middle" x="298.5" y="-152.8" font-family="Sans Not-Rotated 14" font-size="14.00"> &#160;&#160;&#160;&#160;&#160;&#160;&#160;&#160;&#160;&#160;&#160;&#160;&#160;&#160;&#160;&#160;&#160;&#160;&#160;&#160;&#160;&#160;&#160;&#160;</text>
</g>
<!-- EMPTY&#45;&gt;end -->
<g id="edge24" class="edge">
<title>EMPTY&#45;&gt;end</title>
<path fill="none" stroke="black" stroke-dasharray="5,2" d="M524.69,-343.75C526.35,-301.99 530.61,-194.98 532.75,-141.46"/>
<polygon fill="black" stroke="black" points="536.25,-141.33 533.16,-131.2 529.26,-141.06 536.25,-141.33"/>
<text text-anchor="middle" x="530.5" y="-250.3" font-family="Sans Not-Rotated 14" font-size="14.00"> </text>
</g>
<!-- SET STATUS -->
<g id="node5" class="node">
<title>SET STATUS</title>
<polygon fill="#ffffff" stroke="black" points="452,-272 348,-272 348,-236 452,-236 452,-272"/>
<text text-anchor="middle" x="400" y="-250.3" font-family="Sans Not-Rotated 14" font-size="14.00">SET STATUS</text>
</g>
<!-- SET STATUS&#45;&gt;end -->
<g id="edge25" class="edge">
<title>SET STATUS&#45;&gt;end</title>
<path fill="none" stroke="black" stroke-dasharray="5,2" d="M387.4,-235.82C377.99,-220.7 368.42,-198.58 379,-182 406.02,-139.66 465.09,-121.83 502,-114.61"/>
<polygon fill="black" stroke="black" points="503.01,-117.99 512.23,-112.77 501.77,-111.1 503.01,-117.99"/>
<text text-anchor="middle" x="399.5" y="-196.3" font-family="Sans Not-Rotated 14" font-size="14.00"> &#160;&#160;&#160;&#160;&#160;&#160;&#160;&#160;</text>
</g>
<!-- DELETE -->
<g id="node6" class="node">
<title>DELETE</title>
<polygon fill="#ffffff" stroke="black" points="655,-749 583,-749 583,-713 655,-713 655,-749"/>
<text text-anchor="middle" x="619" y="-727.3" font-family="Sans Not-Rotated 14" font-size="14.00">DELETE</text>
</g>
<!-- DELETE&#45;&gt;end -->
<g id="edge26" class="edge">
<title>DELETE&#45;&gt;end</title>
<path fill="none" stroke="black" stroke-dasharray="5,2" d="M619,-712.75C619,-693.62 619,-661.86 619,-634.5 619,-634.5 619,-634.5 619,-199 619,-165.51 587.13,-139.66 562.42,-124.66"/>
<polygon fill="black" stroke="black" points="564.12,-121.6 553.71,-119.63 560.62,-127.66 564.12,-121.6"/>
<text text-anchor="middle" x="655.5" y="-455.8" font-family="Sans Not-Rotated 14" font-size="14.00"> &#160;&#160;&#160;&#160;&#160;&#160;&#160;&#160;&#160;&#160;&#160;&#160;&#160;&#160;&#160;</text>
</g>
<!-- STORNO&#45;&gt;BILLED -->
<g id="edge27" class="edge">
<title>STORNO&#45;&gt;BILLED</title>
<path fill="none" stroke="black" stroke-width="1.07" d="M138.77,-127.11C143.08,-139.9 149.06,-157.63 154,-172.29"/>
<polygon fill="black" stroke="black" stroke-width="1.07" points="150.7,-173.48 157.22,-181.84 157.34,-171.25 150.7,-173.48"/>
<text text-anchor="middle" x="170.5" y="-152.8" font-family="Sans Not-Rotated 14" font-size="14.00"> &#160;&#160;&#160;&#160;&#160;&#160;&#160;&#160;</text>
</g>
<!-- REJECT -->
<g id="node8" class="node">
<title>REJECT</title>
<polygon fill="#ffffff" stroke="black" points="205,-36 137,-36 137,0 205,0 205,-36"/>
<text text-anchor="middle" x="171" y="-14.3" font-family="Sans Not-Rotated 14" font-size="14.00">REJECT</text>
</g>
<!-- STORNO&#45;&gt;REJECT -->
<g id="edge13" class="edge">
<title>STORNO&#45;&gt;REJECT</title>
<path fill="none" stroke="black" stroke-width="1.08" d="M138.79,-90.77C142.53,-80.06 147.68,-66.08 153,-54 154.25,-51.15 155.63,-48.21 157.05,-45.3"/>
<polygon fill="black" stroke="black" stroke-width="1.08" points="160.24,-46.75 161.61,-36.25 153.98,-43.6 160.24,-46.75"/>
<text text-anchor="middle" x="173.5" y="-57.8" font-family="Sans Not-Rotated 14" font-size="14.00"> &#160;&#160;&#160;&#160;&#160;&#160;&#160;&#160;</text>
</g>
<!-- REJECT&#45;&gt;BILLED -->
<g id="edge28" class="edge">
<title>REJECT&#45;&gt;BILLED</title>
<path fill="none" stroke="black" stroke-width="1.05" d="M185.1,-36.16C188.72,-41.54 192.12,-47.73 194,-54 208.01,-100.84 211.33,-118.29 194,-164 192.72,-167.37 190.96,-170.62 188.91,-173.69"/>
<polygon fill="black" stroke="black" stroke-width="1.05" points="185.96,-171.79 182.58,-181.83 191.48,-176.09 185.96,-171.79"/>
<text text-anchor="middle" x="225.5" y="-105.3" font-family="Sans Not-Rotated 14" font-size="14.00"> &#160;&#160;&#160;&#160;&#160;&#160;&#160;&#160;</text>
</g>
<!-- CODE ERROR&#45;&gt;REOPEN -->
<g id="edge29" class="edge">
<title>CODE ERROR&#45;&gt;REOPEN</title>
<path fill="none" stroke="black" stroke-width="1" d="M84,-434.32C84,-478.38 84,-595.01 84,-648.49"/>
<polygon fill="black" stroke="black" stroke-width="1" points="80.5,-648.6 84,-658.6 87.5,-648.6 80.5,-648.6"/>
<text text-anchor="middle" x="86.5" y="-542.8" font-family="Sans Not-Rotated 14" font-size="14.00"> </text>
</g>
<!-- CODE NOK&#45;&gt;BILLED -->
<g id="edge30" class="edge">
<title>CODE NOK&#45;&gt;BILLED</title>
<path fill="none" stroke="black" stroke-width="1.02" d="M387.25,-397.99C375.67,-357.66 345.01,-258 319,-236 302.33,-221.9 247.25,-211.91 207.25,-206.31"/>
<polygon fill="black" stroke="black" stroke-width="1.02" points="207.56,-202.82 197.18,-204.94 206.62,-209.76 207.56,-202.82"/>
<text text-anchor="middle" x="372.5" y="-304.3" font-family="Sans Not-Rotated 14" font-size="14.00"> &#160;&#160;&#160;</text>
</g>
<!-- CODE NOK&#45;&gt;SET STATUS -->
<g id="edge3" class="edge">
<title>CODE NOK&#45;&gt;SET STATUS</title>
<path fill="none" stroke="black" stroke-width="1.02" d="M392.86,-397.88C394.23,-370.35 396.95,-316.01 398.61,-282.85"/>
<polygon fill="black" stroke="black" stroke-width="1.02" points="402.12,-282.65 399.13,-272.48 395.13,-282.3 402.12,-282.65"/>
<text text-anchor="middle" x="404.5" y="-358.3" font-family="Sans Not-Rotated 14" font-size="14.00"> &#160;&#160;&#160;</text>
</g>
<!-- CODE NOK&#45;&gt;CODE OK -->
<g id="edge31" class="edge">
<title>CODE NOK&#45;&gt;CODE OK</title>
<path fill="none" stroke="black" stroke-width="1.02" d="M345.26,-400.57C330.32,-395.09 314.03,-388.16 300,-380 277.56,-366.95 255.04,-348.1 238.68,-333.1"/>
<polygon fill="black" stroke="black" stroke-width="1.02" points="240.86,-330.35 231.16,-326.09 236.09,-335.47 240.86,-330.35"/>
<text text-anchor="middle" x="309.5" y="-358.3" font-family="Sans Not-Rotated 14" font-size="14.00"> &#160;&#160;&#160;</text>
</g>
<!-- CODE OK&#45;&gt;REOPEN -->
<g id="edge9" class="edge">
<title>CODE OK&#45;&gt;REOPEN</title>
<path fill="none" stroke="black" stroke-width="1.17" d="M172.39,-320.73C165.59,-322.55 158.61,-324.37 152,-326 75.99,-344.75 0,-336.72 0,-415 0,-591 0,-591 0,-591 0,-617.44 20.82,-638.62 41.73,-653.23"/>
<polygon fill="black" stroke="black" stroke-width="1.17" points="40.04,-656.31 50.32,-658.88 43.89,-650.46 40.04,-656.31"/>
<text text-anchor="middle" x="20.5" y="-499.3" font-family="Sans Not-Rotated 14" font-size="14.00"> &#160;&#160;&#160;&#160;&#160;&#160;&#160;&#160;</text>
</g>
<!-- CODE OK&#45;&gt;BILLED -->
<g id="edge4" class="edge">
<title>CODE OK&#45;&gt;BILLED</title>
<path fill="none" stroke="black" stroke-width="3.74" d="M180.19,-289.98C173.71,-285.09 167.77,-279.12 164,-272 156.97,-258.72 156.4,-241.98 157.75,-228.1"/>
<polygon fill="black" stroke="black" stroke-width="3.74" points="161.22,-228.51 159.07,-218.14 154.28,-227.59 161.22,-228.51"/>
<text text-anchor="middle" x="220.5" y="-250.3" font-family="Sans Not-Rotated 14" font-size="14.00"> &#160;&#160;&#160;&#160;&#160;&#160;&#160;&#160;&#160;&#160;&#160;&#160;&#160;&#160;&#160;&#160;&#160;&#160;&#160;&#160;&#160;&#160;&#160;&#160;</text>
</g>
<!-- MANUAL -->
<g id="node18" class="node">
<title>MANUAL</title>
<polygon fill="#ffffff" stroke="black" points="505.5,-218 428.5,-218 428.5,-182 505.5,-182 505.5,-218"/>
<text text-anchor="middle" x="467" y="-196.3" font-family="Sans Not-Rotated 14" font-size="14.00">MANUAL</text>
</g>
<!-- CODE OK&#45;&gt;MANUAL -->
<g id="edge8" class="edge">
<title>CODE OK&#45;&gt;MANUAL</title>
<path fill="none" stroke="black" stroke-width="1.01" d="M247.41,-289.98C257.18,-284.6 267.72,-278.38 277,-272 297.54,-257.88 297.48,-246.69 320,-236 358.43,-217.76 372.78,-228.52 414,-218 415.46,-217.63 416.94,-217.24 418.44,-216.83"/>
<polygon fill="black" stroke="black" stroke-width="1.01" points="419.72,-220.1 428.37,-213.99 417.79,-213.37 419.72,-220.1"/>
<text text-anchor="middle" x="329.5" y="-250.3" font-family="Sans Not-Rotated 14" font-size="14.00"> &#160;&#160;&#160;</text>
</g>
<!-- NEW -->
<g id="node12" class="node">
<title>NEW</title>
<polygon fill="#1d2559" stroke="black" points="528,-890 474,-890 474,-854 528,-854 528,-890"/>
<text text-anchor="middle" x="501" y="-868.3" font-family="Sans Not-Rotated 14" font-size="14.00" fill="white">NEW</text>
</g>
<!-- NEW&#45;&gt;DELETE -->
<g id="edge12" class="edge">
<title>NEW&#45;&gt;DELETE</title>
<path fill="none" stroke="black" stroke-width="1.23" d="M528.32,-865.16C545.79,-860.14 567.76,-851.21 582,-836 601.78,-814.86 611.1,-782.45 615.42,-759.44"/>
<polygon fill="black" stroke="black" stroke-width="1.23" points="618.92,-759.73 617.11,-749.29 612.01,-758.58 618.92,-759.73"/>
<text text-anchor="middle" x="628.5" y="-824.8" font-family="Sans Not-Rotated 14" font-size="14.00"> &#160;&#160;&#160;&#160;&#160;&#160;&#160;&#160;&#160;&#160;&#160;&#160;&#160;&#160;&#160;</text>
</g>
<!-- CHANGE DIAGN -->
<g id="node13" class="node">
<title>CHANGE DIAGN</title>
<polygon fill="#7d7fd2" stroke="black" points="413.5,-803 284.5,-803 284.5,-767 413.5,-767 413.5,-803"/>
<text text-anchor="middle" x="349" y="-781.3" font-family="Sans Not-Rotated 14" font-size="14.00">CHANGE DIAGN</text>
</g>
<!-- NEW&#45;&gt;CHANGE DIAGN -->
<g id="edge15" class="edge">
<title>NEW&#45;&gt;CHANGE DIAGN</title>
<path fill="none" stroke="black" stroke-width="2.84" d="M473.85,-862.24C456.23,-856.04 433.08,-846.9 414,-836 400.77,-828.44 387.24,-818.46 375.98,-809.41"/>
<polygon fill="black" stroke="black" stroke-width="2.84" points="378.16,-806.67 368.21,-803.03 373.72,-812.08 378.16,-806.67"/>
<text text-anchor="middle" x="450.5" y="-824.8" font-family="Sans Not-Rotated 14" font-size="14.00"> &#160;&#160;&#160;&#160;&#160;&#160;&#160;&#160;&#160;&#160;&#160;&#160;&#160;&#160;&#160;</text>
</g>
<!-- CHANGE END -->
<g id="node15" class="node">
<title>CHANGE END</title>
<polygon fill="#ffffff" stroke="black" points="330.5,-695 217.5,-695 217.5,-659 330.5,-659 330.5,-695"/>
<text text-anchor="middle" x="274" y="-673.3" font-family="Sans Not-Rotated 14" font-size="14.00">CHANGE END</text>
</g>
<!-- NEW&#45;&gt;CHANGE END -->
<g id="edge17" class="edge">
<title>NEW&#45;&gt;CHANGE END</title>
<path fill="none" stroke="black" stroke-width="1" d="M473.89,-867.06C418.52,-858.41 295.55,-835.86 271,-803 250.03,-774.94 256.69,-732.58 264.48,-705.1"/>
<polygon fill="black" stroke="black" stroke-width="1" points="267.88,-705.95 267.47,-695.36 261.19,-703.9 267.88,-705.95"/>
<text text-anchor="middle" x="273.5" y="-781.3" font-family="Sans Not-Rotated 14" font-size="14.00"> </text>
</g>
<!-- JOIN&#45;PAT -->
<g id="node16" class="node">
<title>JOIN&#45;PAT</title>
<polygon fill="#ffffff" stroke="black" points="590,-695 510,-695 510,-659 590,-659 590,-695"/>
<text text-anchor="middle" x="550" y="-673.3" font-family="Sans Not-Rotated 14" font-size="14.00">JOIN&#45;PAT</text>
</g>
<!-- NEW&#45;&gt;JOIN&#45;PAT -->
<g id="edge19" class="edge">
<title>NEW&#45;&gt;JOIN&#45;PAT</title>
<path fill="none" stroke="black" stroke-width="1" d="M511.09,-853.97C524.03,-831.05 545.78,-788.57 554,-749 556.97,-734.69 556.34,-718.44 554.8,-705.1"/>
<polygon fill="black" stroke="black" stroke-width="1" points="558.26,-704.54 553.43,-695.11 551.33,-705.5 558.26,-704.54"/>
<text text-anchor="middle" x="558.5" y="-781.3" font-family="Sans Not-Rotated 14" font-size="14.00"> &#160;&#160;&#160;</text>
</g>
<!-- NEW&#45;&gt;FIN -->
<g id="edge22" class="edge">
<title>NEW&#45;&gt;FIN</title>
<path fill="none" stroke="black" stroke-width="2.19" d="M499.01,-853.8C496.33,-832.96 490.85,-796.92 482,-767 467.24,-717.14 466.25,-702 437,-659 425.85,-642.61 410.26,-626.99 396.63,-614.87"/>
<polygon fill="black" stroke="black" stroke-width="2.19" points="398.73,-612.05 388.87,-608.15 394.14,-617.34 398.73,-612.05"/>
<text text-anchor="middle" x="512.5" y="-727.3" font-family="Sans Not-Rotated 14" font-size="14.00"> &#160;&#160;&#160;&#160;&#160;&#160;&#160;&#160;&#160;&#160;&#160;&#160;&#160;&#160;&#160;</text>
</g>
<!-- CHANGE DIAGN&#45;&gt;CHANGE DIAGN -->
<g id="edge37" class="edge">
<title>CHANGE DIAGN&#45;&gt;CHANGE DIAGN</title>
<path fill="none" stroke="black" stroke-width="1.12" d="M413.68,-792.29C424.24,-791.24 431.5,-788.81 431.5,-785 431.5,-782.56 428.52,-780.68 423.6,-779.38"/>
<polygon fill="black" stroke="black" stroke-width="1.12" points="424.12,-775.91 413.68,-777.71 422.96,-782.82 424.12,-775.91"/>
<text text-anchor="middle" x="452" y="-781.3" font-family="Sans Not-Rotated 14" font-size="14.00"> &#160;&#160;&#160;&#160;&#160;&#160;&#160;&#160;</text>
</g>
<!-- CHANGE DIAGN&#45;&gt;CHANGE END -->
<g id="edge18" class="edge">
<title>CHANGE DIAGN&#45;&gt;CHANGE END</title>
<path fill="none" stroke="black" stroke-width="1" d="M336.95,-766.97C324.83,-749.84 306,-723.22 292.08,-703.56"/>
<polygon fill="black" stroke="black" stroke-width="1" points="294.9,-701.48 286.27,-695.34 289.19,-705.53 294.9,-701.48"/>
<text text-anchor="middle" x="324.5" y="-727.3" font-family="Sans Not-Rotated 14" font-size="14.00"> </text>
</g>
<!-- CHANGE DIAGN&#45;&gt;JOIN&#45;PAT -->
<g id="edge20" class="edge">
<title>CHANGE DIAGN&#45;&gt;JOIN&#45;PAT</title>
<path fill="none" stroke="black" stroke-width="1" d="M366.58,-766.91C383.79,-751.01 411.38,-727.61 439,-713 458.02,-702.93 480.43,-695.19 500.11,-689.57"/>
<polygon fill="black" stroke="black" stroke-width="1" points="501.11,-692.93 509.83,-686.9 499.26,-686.18 501.11,-692.93"/>
<text text-anchor="middle" x="448.5" y="-727.3" font-family="Sans Not-Rotated 14" font-size="14.00"> &#160;&#160;&#160;</text>
</g>
<!-- CHANGE DIAGN&#45;&gt;FIN -->
<g id="edge21" class="edge">
<title>CHANGE DIAGN&#45;&gt;FIN</title>
<path fill="none" stroke="black" stroke-width="2.78" d="M350.6,-766.87C353.73,-733.32 360.69,-658.71 364.46,-618.29"/>
<polygon fill="black" stroke="black" stroke-width="2.78" points="367.96,-618.37 365.41,-608.09 360.99,-617.72 367.96,-618.37"/>
<text text-anchor="middle" x="396.5" y="-673.3" font-family="Sans Not-Rotated 14" font-size="14.00"> &#160;&#160;&#160;&#160;&#160;&#160;&#160;&#160;&#160;&#160;&#160;&#160;&#160;&#160;&#160;</text>
</g>
<!-- ZDBC_BEHAN&#45;&gt;BILLED -->
<g id="edge32" class="edge">
<title>ZDBC_BEHAN&#45;&gt;BILLED</title>
<path fill="none" stroke="black" d="M137.54,-343.88C139.9,-319.68 145,-274.15 153,-236 153.53,-233.46 154.15,-230.83 154.82,-228.2"/>
<polygon fill="black" stroke="black" points="158.26,-228.89 157.52,-218.32 151.51,-227.05 158.26,-228.89"/>
<text text-anchor="middle" x="145.5" y="-304.3" font-family="Sans Not-Rotated 14" font-size="14.00"> </text>
</g>
<!-- CHANGE END&#45;&gt;FIN -->
<g id="edge33" class="edge">
<title>CHANGE END&#45;&gt;FIN</title>
<path fill="none" stroke="black" stroke-width="1" d="M292.82,-658.8C306.56,-646.24 325.37,-629.05 340.61,-615.12"/>
<polygon fill="black" stroke="black" stroke-width="1" points="343.19,-617.51 348.21,-608.18 338.47,-612.34 343.19,-617.51"/>
<text text-anchor="middle" x="328.5" y="-629.8" font-family="Sans Not-Rotated 14" font-size="14.00"> </text>
</g>
<!-- JOIN&#45;PAT&#45;&gt;FIN -->
<g id="edge35" class="edge">
<title>JOIN&#45;PAT&#45;&gt;FIN</title>
<path fill="none" stroke="black" stroke-width="1" d="M534.88,-658.93C524.4,-648.06 509.57,-634.48 494,-626 465.81,-610.64 430.35,-601.6 404.07,-596.57"/>
<polygon fill="black" stroke="black" stroke-width="1" points="404.59,-593.11 394.13,-594.77 403.35,-600 404.59,-593.11"/>
<text text-anchor="middle" x="523.5" y="-629.8" font-family="Sans Not-Rotated 14" font-size="14.00"> &#160;&#160;&#160;</text>
</g>
<!-- JOIN&#45;PAT&#45;&gt;end -->
<g id="edge34" class="edge">
<title>JOIN&#45;PAT&#45;&gt;end</title>
<path fill="none" stroke="black" stroke-dasharray="5,2" d="M557.2,-658.76C563.62,-641.82 572,-615.08 572,-591 572,-591 572,-591 572,-199 572,-176.6 561.7,-153.4 551.82,-136.3"/>
<polygon fill="black" stroke="black" points="554.63,-134.19 546.44,-127.47 548.65,-137.83 554.63,-134.19"/>
<text text-anchor="middle" x="581.5" y="-412.3" font-family="Sans Not-Rotated 14" font-size="14.00"> &#160;&#160;&#160;</text>
</g>
<!-- FIN&#45;&gt;RELEASE -->
<g id="edge5" class="edge">
<title>FIN&#45;&gt;RELEASE</title>
<path fill="none" stroke="black" stroke-width="4.05" d="M367,-571.8C367,-560.16 367,-544.55 367,-531.24"/>
<polygon fill="black" stroke="black" stroke-width="4.05" points="370.54,-531.18 367,-521.18 363.46,-531.18 370.54,-531.18"/>
<text text-anchor="middle" x="423.5" y="-542.8" font-family="Sans Not-Rotated 14" font-size="14.00"> &#160;&#160;&#160;&#160;&#160;&#160;&#160;&#160;&#160;&#160;&#160;&#160;&#160;&#160;&#160;&#160;&#160;&#160;&#160;&#160;&#160;&#160;&#160;&#160;</text>
</g>
<!-- MANUAL&#45;&gt;RELEASE -->
<g id="edge36" class="edge">
<title>MANUAL&#45;&gt;RELEASE</title>
<path fill="none" stroke="black" stroke-width="1.01" d="M466.75,-218.31C465.9,-265.29 462.28,-394.28 448,-434 441.95,-450.82 438.05,-454.78 425,-467 420.27,-471.43 414.88,-475.58 409.35,-479.35"/>
<polygon fill="black" stroke="black" stroke-width="1.01" points="407.12,-476.63 400.6,-484.98 410.9,-482.52 407.12,-476.63"/>
<text text-anchor="middle" x="470.5" y="-358.3" font-family="Sans Not-Rotated 14" font-size="14.00"> &#160;&#160;&#160;</text>
</g>
<!-- start -->
<g id="node19" class="node">
<title>start</title>
<ellipse fill="#95d600" stroke="black" cx="501" cy="-968.3" rx="27.1" ry="27.1"/>
<text text-anchor="middle" x="501" y="-964.6" font-family="Sans Not-Rotated 14" font-size="14.00">start</text>
</g>
<!-- start&#45;&gt;NEW -->
<g id="edge14" class="edge">
<title>start&#45;&gt;NEW</title>
<path fill="none" stroke="black" stroke-dasharray="5,2" d="M501,-940.78C501,-928.1 501,-912.93 501,-900.17"/>
<polygon fill="black" stroke="black" points="504.5,-900.12 501,-890.12 497.5,-900.12 504.5,-900.12"/>
<text text-anchor="middle" x="557.5" y="-911.8" font-family="Sans Not-Rotated 14" font-size="14.00"> &#160;&#160;&#160;&#160;&#160;&#160;&#160;&#160;&#160;&#160;&#160;&#160;&#160;&#160;&#160;&#160;&#160;&#160;&#160;&#160;&#160;&#160;&#160;&#160;</text>
</g>
</g>
</svg>
