<?xml version="1.0" encoding="UTF-8" standalone="no"?>
<!DOCTYPE svg PUBLIC "-//W3C//DTD SVG 1.1//EN"
 "http://www.w3.org/Graphics/SVG/1.1/DTD/svg11.dtd">
<!-- Generated by graphviz version 3.0.0 (20220226.1711)
 -->
<!-- Pages: 1 -->
<svg width="1083pt" height="983pt"
 viewBox="0.00 0.00 1083.00 982.60" xmlns="http://www.w3.org/2000/svg" xmlns:xlink="http://www.w3.org/1999/xlink">
<g id="graph0" class="graph" transform="scale(1 1) rotate(0) translate(4 978.6)">
<polygon fill="white" stroke="transparent" points="-4,4 -4,-978.6 1079,-978.6 1079,4 -4,4"/>
<!-- REOPEN -->
<g id="node1" class="node">
<title>REOPEN</title>
<polygon fill="#ffffff" stroke="black" points="515.5,-782 440.5,-782 440.5,-746 515.5,-746 515.5,-782"/>
<text text-anchor="middle" x="478" y="-760.3" font-family="Sans Not-Rotated 14" font-size="14.00">REOPEN</text>
</g>
<!-- DELETE -->
<g id="node6" class="node">
<title>DELETE</title>
<polygon fill="#ffffff" stroke="black" points="434,-326 362,-326 362,-290 434,-290 434,-326"/>
<text text-anchor="middle" x="398" y="-304.3" font-family="Sans Not-Rotated 14" font-size="14.00">DELETE</text>
</g>
<!-- REOPEN&#45;&gt;DELETE -->
<g id="edge26" class="edge">
<title>REOPEN&#45;&gt;DELETE</title>
<path fill="none" stroke="black" stroke-width="1.06" d="M486.33,-745.95C488.64,-740.36 490.84,-734.04 492,-728 498.14,-696.12 481.23,-688.65 468,-659 447.17,-612.31 434.01,-603.45 421,-554 400.72,-476.93 397.79,-382.09 397.68,-336.3"/>
<polygon fill="black" stroke="black" stroke-width="1.06" points="401.18,-336.27 397.71,-326.26 394.18,-336.26 401.18,-336.27"/>
<text text-anchor="middle" x="441.5" y="-542.8" font-family="Sans Not-Rotated 14" font-size="14.00"> &#160;&#160;&#160;&#160;&#160;&#160;&#160;&#160;</text>
</g>
<!-- CHANGE END -->
<g id="node15" class="node">
<title>CHANGE END</title>
<polygon fill="#ffffff" stroke="black" points="372.5,-695 259.5,-695 259.5,-659 372.5,-659 372.5,-695"/>
<text text-anchor="middle" x="316" y="-673.3" font-family="Sans Not-Rotated 14" font-size="14.00">CHANGE END</text>
</g>
<!-- REOPEN&#45;&gt;CHANGE END -->
<g id="edge19" class="edge">
<title>REOPEN&#45;&gt;CHANGE END</title>
<path fill="none" stroke="black" stroke-width="1" d="M440.38,-750.08C424.48,-744.1 405.99,-736.45 390,-728 375.3,-720.23 359.93,-710.19 347.03,-701.15"/>
<polygon fill="black" stroke="black" stroke-width="1" points="348.71,-698.05 338.53,-695.09 344.64,-703.75 348.71,-698.05"/>
<text text-anchor="middle" x="392.5" y="-716.8" font-family="Sans Not-Rotated 14" font-size="14.00"> </text>
</g>
<!-- FIN -->
<g id="node17" class="node">
<title>FIN</title>
<polygon fill="#1f3b98" stroke="black" points="369,-608 315,-608 315,-572 369,-572 369,-608"/>
<text text-anchor="middle" x="342" y="-586.3" font-family="Sans Not-Rotated 14" font-size="14.00" fill="white">FIN</text>
</g>
<!-- REOPEN&#45;&gt;FIN -->
<g id="edge2" class="edge">
<title>REOPEN&#45;&gt;FIN</title>
<path fill="none" stroke="black" stroke-width="1.17" d="M463.9,-745.74C452.73,-732.04 436.78,-712.36 423,-695 401.74,-668.22 377.71,-637.27 361.38,-616.14"/>
<polygon fill="black" stroke="black" stroke-width="1.17" points="363.98,-613.78 355.09,-608.01 358.43,-618.06 363.98,-613.78"/>
<text text-anchor="middle" x="443.5" y="-673.3" font-family="Sans Not-Rotated 14" font-size="14.00"> &#160;&#160;&#160;&#160;&#160;&#160;&#160;&#160;</text>
</g>
<!-- RELEASE -->
<g id="node2" class="node">
<title>RELEASE</title>
<polygon fill="#1f3b98" stroke="black" points="665,-521 585,-521 585,-485 665,-485 665,-521"/>
<text text-anchor="middle" x="625" y="-499.3" font-family="Sans Not-Rotated 14" font-size="14.00" fill="white">RELEASE</text>
</g>
<!-- EMPTY -->
<g id="node4" class="node">
<title>EMPTY</title>
<polygon fill="#ffffff" stroke="black" points="490.5,-272 425.5,-272 425.5,-236 490.5,-236 490.5,-272"/>
<text text-anchor="middle" x="458" y="-250.3" font-family="Sans Not-Rotated 14" font-size="14.00">EMPTY</text>
</g>
<!-- RELEASE&#45;&gt;EMPTY -->
<g id="edge11" class="edge">
<title>RELEASE&#45;&gt;EMPTY</title>
<path fill="none" stroke="black" d="M584.88,-496.04C548.7,-488.37 497.26,-471.27 471,-434 439.15,-388.79 445.21,-320.23 451.93,-282.43"/>
<polygon fill="black" stroke="black" points="455.45,-282.67 453.9,-272.19 448.57,-281.34 455.45,-282.67"/>
<text text-anchor="middle" x="473.5" y="-412.3" font-family="Sans Not-Rotated 14" font-size="14.00"> </text>
</g>
<!-- CODE ERROR -->
<g id="node9" class="node">
<title>CODE ERROR</title>
<polygon fill="#ffffff" stroke="black" points="597,-434 485,-434 485,-398 597,-398 597,-434"/>
<text text-anchor="middle" x="541" y="-412.3" font-family="Sans Not-Rotated 14" font-size="14.00">CODE ERROR</text>
</g>
<!-- RELEASE&#45;&gt;CODE ERROR -->
<g id="edge7" class="edge">
<title>RELEASE&#45;&gt;CODE ERROR</title>
<path fill="none" stroke="black" stroke-width="1" d="M608,-484.8C595.7,-472.36 578.91,-455.36 565.22,-441.5"/>
<polygon fill="black" stroke="black" stroke-width="1" points="567.49,-438.83 557.97,-434.18 562.51,-443.75 567.49,-438.83"/>
<text text-anchor="middle" x="591.5" y="-455.8" font-family="Sans Not-Rotated 14" font-size="14.00"> </text>
</g>
<!-- CODE NOK -->
<g id="node10" class="node">
<title>CODE NOK</title>
<polygon fill="#ffffff" stroke="black" points="784.5,-434 691.5,-434 691.5,-398 784.5,-398 784.5,-434"/>
<text text-anchor="middle" x="738" y="-412.3" font-family="Sans Not-Rotated 14" font-size="14.00">CODE NOK</text>
</g>
<!-- RELEASE&#45;&gt;CODE NOK -->
<g id="edge6" class="edge">
<title>RELEASE&#45;&gt;CODE NOK</title>
<path fill="none" stroke="black" stroke-width="1.08" d="M651.52,-484.85C659.8,-479.31 668.88,-473.04 677,-467 688.1,-458.75 699.93,-449.22 710.2,-440.72"/>
<polygon fill="black" stroke="black" stroke-width="1.08" points="712.62,-443.25 718.05,-434.15 708.13,-437.88 712.62,-443.25"/>
<text text-anchor="middle" x="716.5" y="-455.8" font-family="Sans Not-Rotated 14" font-size="14.00"> &#160;&#160;&#160;&#160;&#160;&#160;&#160;&#160;</text>
</g>
<!-- CODE OK -->
<g id="node11" class="node">
<title>CODE OK</title>
<polygon fill="#1f3b98" stroke="black" points="874.5,-326 791.5,-326 791.5,-290 874.5,-290 874.5,-326"/>
<text text-anchor="middle" x="833" y="-304.3" font-family="Sans Not-Rotated 14" font-size="14.00" fill="white">CODE OK</text>
</g>
<!-- RELEASE&#45;&gt;CODE OK -->
<g id="edge10" class="edge">
<title>RELEASE&#45;&gt;CODE OK</title>
<path fill="none" stroke="black" stroke-width="3.95" d="M665.18,-497.3C704.3,-490.45 762.23,-473.85 793,-434 815.37,-405.02 825.42,-363.18 829.8,-336.04"/>
<polygon fill="black" stroke="black" stroke-width="3.95" points="833.27,-336.47 831.26,-326.07 826.35,-335.45 833.27,-336.47"/>
<text text-anchor="middle" x="869.5" y="-412.3" font-family="Sans Not-Rotated 14" font-size="14.00"> &#160;&#160;&#160;&#160;&#160;&#160;&#160;&#160;&#160;&#160;&#160;&#160;&#160;&#160;&#160;&#160;&#160;&#160;&#160;&#160;&#160;&#160;&#160;&#160;</text>
</g>
<!-- ZDBC_BEHAN -->
<g id="node14" class="node">
<title>ZDBC_BEHAN</title>
<polygon fill="#ffffff" stroke="black" points="1041,-380 927,-380 927,-344 1041,-344 1041,-380"/>
<text text-anchor="middle" x="984" y="-358.3" font-family="Sans Not-Rotated 14" font-size="14.00">ZDBC_BEHAN</text>
</g>
<!-- RELEASE&#45;&gt;ZDBC_BEHAN -->
<g id="edge16" class="edge">
<title>RELEASE&#45;&gt;ZDBC_BEHAN</title>
<path fill="none" stroke="black" d="M665.08,-497.56C739.53,-488.64 895.43,-466.56 938,-434 953.12,-422.43 964.72,-404.38 972.49,-389.37"/>
<polygon fill="black" stroke="black" points="975.8,-390.57 977.04,-380.05 969.51,-387.5 975.8,-390.57"/>
<text text-anchor="middle" x="900.5" y="-455.8" font-family="Sans Not-Rotated 14" font-size="14.00"> </text>
</g>
<!-- MANUAL -->
<g id="node18" class="node">
<title>MANUAL</title>
<polygon fill="#ffffff" stroke="black" points="705.5,-218 628.5,-218 628.5,-182 705.5,-182 705.5,-218"/>
<text text-anchor="middle" x="667" y="-196.3" font-family="Sans Not-Rotated 14" font-size="14.00">MANUAL</text>
</g>
<!-- RELEASE&#45;&gt;MANUAL -->
<g id="edge24" class="edge">
<title>RELEASE&#45;&gt;MANUAL</title>
<path fill="none" stroke="black" stroke-width="1.01" d="M634.16,-484.84C645.9,-461.78 665.62,-419.14 673,-380 682.99,-326.97 676.68,-263.58 671.58,-228.24"/>
<polygon fill="black" stroke="black" stroke-width="1.01" points="675.02,-227.58 670.05,-218.22 668.1,-228.63 675.02,-227.58"/>
<text text-anchor="middle" x="687.5" y="-358.3" font-family="Sans Not-Rotated 14" font-size="14.00"> &#160;&#160;&#160;</text>
</g>
<!-- BILLED -->
<g id="node3" class="node">
<title>BILLED</title>
<polygon fill="#1946ba" stroke="black" points="867,-218 799,-218 799,-182 867,-182 867,-218"/>
<text text-anchor="middle" x="833" y="-196.3" font-family="Sans Not-Rotated 14" font-size="14.00" fill="white">BILLED</text>
</g>
<!-- STORNO -->
<g id="node7" class="node">
<title>STORNO</title>
<polygon fill="#ffffff" stroke="black" points="953.5,-127 876.5,-127 876.5,-91 953.5,-91 953.5,-127"/>
<text text-anchor="middle" x="915" y="-105.3" font-family="Sans Not-Rotated 14" font-size="14.00">STORNO</text>
</g>
<!-- BILLED&#45;&gt;STORNO -->
<g id="edge1" class="edge">
<title>BILLED&#45;&gt;STORNO</title>
<path fill="none" stroke="black" stroke-width="1.15" d="M836.16,-181.81C838.75,-171.43 843.3,-158.43 851,-149 856.03,-142.83 862.31,-137.39 868.96,-132.67"/>
<polygon fill="black" stroke="black" stroke-width="1.15" points="871.05,-135.48 877.51,-127.08 867.22,-129.62 871.05,-135.48"/>
<text text-anchor="middle" x="871.5" y="-152.8" font-family="Sans Not-Rotated 14" font-size="14.00"> &#160;&#160;&#160;&#160;&#160;&#160;&#160;&#160;</text>
</g>
<!-- end -->
<g id="node20" class="node">
<title>end</title>
<ellipse fill="#ea4126" stroke="black" cx="528" cy="-109" rx="18" ry="18"/>
<ellipse fill="none" stroke="black" cx="528" cy="-109" rx="22" ry="22"/>
</g>
<!-- BILLED&#45;&gt;end -->
<g id="edge25" class="edge">
<title>BILLED&#45;&gt;end</title>
<path fill="none" stroke="black" stroke-dasharray="5,2" d="M798.99,-191.5C769.89,-184.89 726.96,-174.66 690,-164 643.61,-150.61 590.67,-132.4 558.3,-120.92"/>
<polygon fill="black" stroke="black" points="559.14,-117.51 548.54,-117.45 556.79,-124.1 559.14,-117.51"/>
<text text-anchor="middle" x="746.5" y="-152.8" font-family="Sans Not-Rotated 14" font-size="14.00"> &#160;&#160;&#160;&#160;&#160;&#160;&#160;&#160;&#160;&#160;&#160;&#160;&#160;&#160;&#160;&#160;&#160;&#160;&#160;&#160;&#160;&#160;&#160;&#160;</text>
</g>
<!-- EMPTY&#45;&gt;end -->
<g id="edge27" class="edge">
<title>EMPTY&#45;&gt;end</title>
<path fill="none" stroke="black" stroke-dasharray="5,2" d="M466.44,-235.75C478.27,-211.59 499.91,-167.38 514.12,-138.35"/>
<polygon fill="black" stroke="black" points="517.38,-139.65 518.63,-129.13 511.09,-136.57 517.38,-139.65"/>
<text text-anchor="middle" x="494.5" y="-196.3" font-family="Sans Not-Rotated 14" font-size="14.00"> </text>
</g>
<!-- SET STATUS -->
<g id="node5" class="node">
<title>SET STATUS</title>
<polygon fill="#ffffff" stroke="black" points="600,-272 496,-272 496,-236 600,-236 600,-272"/>
<text text-anchor="middle" x="548" y="-250.3" font-family="Sans Not-Rotated 14" font-size="14.00">SET STATUS</text>
</g>
<!-- SET STATUS&#45;&gt;end -->
<g id="edge28" class="edge">
<title>SET STATUS&#45;&gt;end</title>
<path fill="none" stroke="black" stroke-dasharray="5,2" d="M545.59,-235.75C542.31,-212.33 536.4,-170.07 532.34,-141.05"/>
<polygon fill="black" stroke="black" points="535.79,-140.44 530.94,-131.02 528.86,-141.41 535.79,-140.44"/>
<text text-anchor="middle" x="563.5" y="-196.3" font-family="Sans Not-Rotated 14" font-size="14.00"> &#160;&#160;&#160;&#160;&#160;&#160;&#160;&#160;</text>
</g>
<!-- DELETE&#45;&gt;end -->
<g id="edge29" class="edge">
<title>DELETE&#45;&gt;end</title>
<path fill="none" stroke="black" stroke-dasharray="5,2" d="M393.05,-289.8C386.77,-264.29 378.98,-215.79 399,-182 420.08,-146.41 465.8,-127.09 496.74,-117.66"/>
<polygon fill="black" stroke="black" points="497.96,-120.95 506.61,-114.83 496.04,-114.22 497.96,-120.95"/>
<text text-anchor="middle" x="435.5" y="-196.3" font-family="Sans Not-Rotated 14" font-size="14.00"> &#160;&#160;&#160;&#160;&#160;&#160;&#160;&#160;&#160;&#160;&#160;&#160;&#160;&#160;&#160;</text>
</g>
<!-- STORNO&#45;&gt;BILLED -->
<g id="edge30" class="edge">
<title>STORNO&#45;&gt;BILLED</title>
<path fill="none" stroke="black" stroke-width="1.07" d="M910.75,-127.1C907.22,-138.55 901.26,-153.42 892,-164 887.41,-169.24 881.85,-173.91 875.99,-178"/>
<polygon fill="black" stroke="black" stroke-width="1.07" points="873.81,-175.24 867.27,-183.57 877.58,-181.14 873.81,-175.24"/>
<text text-anchor="middle" x="921.5" y="-152.8" font-family="Sans Not-Rotated 14" font-size="14.00"> &#160;&#160;&#160;&#160;&#160;&#160;&#160;&#160;</text>
</g>
<!-- REJECT -->
<g id="node8" class="node">
<title>REJECT</title>
<polygon fill="#ffffff" stroke="black" points="949,-36 881,-36 881,0 949,0 949,-36"/>
<text text-anchor="middle" x="915" y="-14.3" font-family="Sans Not-Rotated 14" font-size="14.00">REJECT</text>
</g>
<!-- STORNO&#45;&gt;REJECT -->
<g id="edge13" class="edge">
<title>STORNO&#45;&gt;REJECT</title>
<path fill="none" stroke="black" stroke-width="1.08" d="M915,-90.84C915,-78.28 915,-60.98 915,-46.5"/>
<polygon fill="black" stroke="black" stroke-width="1.08" points="918.5,-46.11 915,-36.11 911.5,-46.11 918.5,-46.11"/>
<text text-anchor="middle" x="935.5" y="-57.8" font-family="Sans Not-Rotated 14" font-size="14.00"> &#160;&#160;&#160;&#160;&#160;&#160;&#160;&#160;</text>
</g>
<!-- REJECT&#45;&gt;REOPEN -->
<g id="edge32" class="edge">
<title>REJECT&#45;&gt;REOPEN</title>
<path fill="none" stroke="black" stroke-width="1.02" d="M949.13,-25.04C990.86,-34.62 1056,-57.63 1056,-108 1056,-678 1056,-678 1056,-678 1056,-736.19 991.6,-714.5 935,-728 858.38,-746.28 626.91,-757.22 525.96,-761.24"/>
<polygon fill="black" stroke="black" stroke-width="1.02" points="525.59,-757.75 515.74,-761.64 525.87,-764.74 525.59,-757.75"/>
<text text-anchor="middle" x="1065.5" y="-412.3" font-family="Sans Not-Rotated 14" font-size="14.00"> &#160;&#160;&#160;</text>
</g>
<!-- REJECT&#45;&gt;BILLED -->
<g id="edge31" class="edge">
<title>REJECT&#45;&gt;BILLED</title>
<path fill="none" stroke="black" stroke-width="1.05" d="M880.97,-35.3C861.28,-46.76 838.23,-64.12 827,-87 813.92,-113.64 818.54,-148.27 824.43,-171.93"/>
<polygon fill="black" stroke="black" stroke-width="1.05" points="821.07,-172.91 827.07,-181.64 827.82,-171.08 821.07,-172.91"/>
<text text-anchor="middle" x="847.5" y="-105.3" font-family="Sans Not-Rotated 14" font-size="14.00"> &#160;&#160;&#160;&#160;&#160;&#160;&#160;&#160;</text>
</g>
<!-- CODE ERROR&#45;&gt;REOPEN -->
<g id="edge33" class="edge">
<title>CODE ERROR&#45;&gt;REOPEN</title>
<path fill="none" stroke="black" stroke-width="1" d="M517.9,-434.17C499.92,-449.67 478,-474.26 478,-502 478,-678 478,-678 478,-678 478,-697.25 478,-718.95 478,-735.6"/>
<polygon fill="black" stroke="black" stroke-width="1" points="474.5,-735.74 478,-745.74 481.5,-735.74 474.5,-735.74"/>
<text text-anchor="middle" x="480.5" y="-586.3" font-family="Sans Not-Rotated 14" font-size="14.00"> </text>
</g>
<!-- CODE ERROR&#45;&gt;RELEASE -->
<g id="edge34" class="edge">
<title>CODE ERROR&#45;&gt;RELEASE</title>
<path fill="none" stroke="black" stroke-width="1" d="M547.97,-434.14C552.78,-444.5 559.94,-457.49 569,-467 573.15,-471.36 577.96,-475.4 582.98,-479.08"/>
<polygon fill="black" stroke="black" stroke-width="1" points="581.31,-482.17 591.54,-484.9 585.25,-476.39 581.31,-482.17"/>
<text text-anchor="middle" x="571.5" y="-455.8" font-family="Sans Not-Rotated 14" font-size="14.00"> </text>
</g>
<!-- CODE NOK&#45;&gt;REOPEN -->
<g id="edge37" class="edge">
<title>CODE NOK&#45;&gt;REOPEN</title>
<path fill="none" stroke="black" stroke-width="1.01" d="M784.6,-432.89C786.08,-433.28 787.55,-433.65 789,-434 865.71,-452.49 953,-423.09 953,-502 953,-678 953,-678 953,-678 953,-721.09 646.16,-749.82 525.71,-759.44"/>
<polygon fill="black" stroke="black" stroke-width="1.01" points="525.36,-755.96 515.67,-760.23 525.91,-762.94 525.36,-755.96"/>
<text text-anchor="middle" x="962.5" y="-586.3" font-family="Sans Not-Rotated 14" font-size="14.00"> &#160;&#160;&#160;</text>
</g>
<!-- CODE NOK&#45;&gt;BILLED -->
<g id="edge35" class="edge">
<title>CODE NOK&#45;&gt;BILLED</title>
<path fill="none" stroke="black" stroke-width="1.02" d="M738.92,-397.64C740.8,-372.76 746.42,-325.98 763,-290 774.1,-265.91 792.95,-242.49 808.29,-225.73"/>
<polygon fill="black" stroke="black" stroke-width="1.02" points="811.19,-227.75 815.49,-218.06 806.09,-222.96 811.19,-227.75"/>
<text text-anchor="middle" x="772.5" y="-304.3" font-family="Sans Not-Rotated 14" font-size="14.00"> &#160;&#160;&#160;</text>
</g>
<!-- CODE NOK&#45;&gt;SET STATUS -->
<g id="edge3" class="edge">
<title>CODE NOK&#45;&gt;SET STATUS</title>
<path fill="none" stroke="black" stroke-width="1.02" d="M691.15,-401.29C678.2,-396.03 664.77,-389.04 654,-380 639.46,-367.79 642.63,-359 631,-344 613.15,-320.98 590.45,-296.94 573.3,-279.65"/>
<polygon fill="black" stroke="black" stroke-width="1.02" points="575.4,-276.8 565.85,-272.22 570.46,-281.76 575.4,-276.8"/>
<text text-anchor="middle" x="663.5" y="-358.3" font-family="Sans Not-Rotated 14" font-size="14.00"> &#160;&#160;&#160;</text>
</g>
<!-- CODE NOK&#45;&gt;DELETE -->
<g id="edge38" class="edge">
<title>CODE NOK&#45;&gt;DELETE</title>
<path fill="none" stroke="black" stroke-width="1.01" d="M691.42,-407.7C657.37,-401.78 610.29,-392.4 570,-380 525.83,-366.41 477.32,-345.84 443.11,-330.33"/>
<polygon fill="black" stroke="black" stroke-width="1.01" points="444.4,-327.08 433.85,-326.1 441.49,-333.44 444.4,-327.08"/>
<text text-anchor="middle" x="579.5" y="-358.3" font-family="Sans Not-Rotated 14" font-size="14.00"> &#160;&#160;&#160;</text>
</g>
<!-- CODE NOK&#45;&gt;CODE OK -->
<g id="edge36" class="edge">
<title>CODE NOK&#45;&gt;CODE OK</title>
<path fill="none" stroke="black" stroke-width="1.02" d="M751.77,-397.78C756.11,-392.19 760.85,-385.9 765,-380 775.92,-364.47 775.21,-358.03 788,-344 791.58,-340.08 795.63,-336.26 799.8,-332.68"/>
<polygon fill="black" stroke="black" stroke-width="1.02" points="802.32,-335.14 807.88,-326.12 797.91,-329.71 802.32,-335.14"/>
<text text-anchor="middle" x="797.5" y="-358.3" font-family="Sans Not-Rotated 14" font-size="14.00"> &#160;&#160;&#160;</text>
</g>
<!-- CODE OK&#45;&gt;REOPEN -->
<g id="edge9" class="edge">
<title>CODE OK&#45;&gt;REOPEN</title>
<path fill="none" stroke="black" stroke-width="1.17" d="M855.52,-326.11C901.11,-361.14 1000,-439.34 1000,-458.5 1000,-678 1000,-678 1000,-678 1000,-745.33 922.97,-714.55 857,-728 739.44,-751.96 597.98,-759.54 525.67,-761.92"/>
<polygon fill="black" stroke="black" stroke-width="1.17" points="525.4,-758.43 515.51,-762.24 525.62,-765.42 525.4,-758.43"/>
<text text-anchor="middle" x="1020.5" y="-542.8" font-family="Sans Not-Rotated 14" font-size="14.00"> &#160;&#160;&#160;&#160;&#160;&#160;&#160;&#160;</text>
</g>
<!-- CODE OK&#45;&gt;BILLED -->
<g id="edge4" class="edge">
<title>CODE OK&#45;&gt;BILLED</title>
<path fill="none" stroke="black" stroke-width="3.74" d="M833,-289.97C833,-273.38 833,-247.88 833,-228.43"/>
<polygon fill="black" stroke="black" stroke-width="3.74" points="836.5,-228.34 833,-218.34 829.5,-228.34 836.5,-228.34"/>
<text text-anchor="middle" x="889.5" y="-250.3" font-family="Sans Not-Rotated 14" font-size="14.00"> &#160;&#160;&#160;&#160;&#160;&#160;&#160;&#160;&#160;&#160;&#160;&#160;&#160;&#160;&#160;&#160;&#160;&#160;&#160;&#160;&#160;&#160;&#160;&#160;</text>
</g>
<!-- CODE OK&#45;&gt;MANUAL -->
<g id="edge8" class="edge">
<title>CODE OK&#45;&gt;MANUAL</title>
<path fill="none" stroke="black" stroke-width="1.01" d="M806.33,-289.97C778.22,-272.02 733.79,-243.65 702.67,-223.78"/>
<polygon fill="black" stroke="black" stroke-width="1.01" points="704.19,-220.6 693.88,-218.16 700.42,-226.5 704.19,-220.6"/>
<text text-anchor="middle" x="784.5" y="-250.3" font-family="Sans Not-Rotated 14" font-size="14.00"> &#160;&#160;&#160;</text>
</g>
<!-- NEW -->
<g id="node12" class="node">
<title>NEW</title>
<polygon fill="#1d2559" stroke="black" points="195,-869 141,-869 141,-833 195,-833 195,-869"/>
<text text-anchor="middle" x="168" y="-847.3" font-family="Sans Not-Rotated 14" font-size="14.00" fill="white">NEW</text>
</g>
<!-- NEW&#45;&gt;DELETE -->
<g id="edge12" class="edge">
<title>NEW&#45;&gt;DELETE</title>
<path fill="none" stroke="black" stroke-width="1.23" d="M140.63,-848.38C93.03,-843.93 0,-827.27 0,-765 0,-765 0,-765 0,-415 0,-342.93 246.77,-318.64 351.69,-311.56"/>
<polygon fill="black" stroke="black" stroke-width="1.23" points="352.23,-315.04 361.98,-310.89 351.77,-308.05 352.23,-315.04"/>
<text text-anchor="middle" x="36.5" y="-586.3" font-family="Sans Not-Rotated 14" font-size="14.00"> &#160;&#160;&#160;&#160;&#160;&#160;&#160;&#160;&#160;&#160;&#160;&#160;&#160;&#160;&#160;</text>
</g>
<!-- CHANGE DIAGN -->
<g id="node13" class="node">
<title>CHANGE DIAGN</title>
<polygon fill="#7d7fd2" stroke="black" points="232.5,-782 103.5,-782 103.5,-746 232.5,-746 232.5,-782"/>
<text text-anchor="middle" x="168" y="-760.3" font-family="Sans Not-Rotated 14" font-size="14.00">CHANGE DIAGN</text>
</g>
<!-- NEW&#45;&gt;CHANGE DIAGN -->
<g id="edge15" class="edge">
<title>NEW&#45;&gt;CHANGE DIAGN</title>
<path fill="none" stroke="black" stroke-width="2.84" d="M168,-832.8C168,-821.16 168,-805.55 168,-792.24"/>
<polygon fill="black" stroke="black" stroke-width="2.84" points="171.5,-792.18 168,-782.18 164.5,-792.18 171.5,-792.18"/>
<text text-anchor="middle" x="204.5" y="-803.8" font-family="Sans Not-Rotated 14" font-size="14.00"> &#160;&#160;&#160;&#160;&#160;&#160;&#160;&#160;&#160;&#160;&#160;&#160;&#160;&#160;&#160;</text>
</g>
<!-- NEW&#45;&gt;CHANGE END -->
<g id="edge17" class="edge">
<title>NEW&#45;&gt;CHANGE END</title>
<path fill="none" stroke="black" stroke-width="1" d="M195.23,-844.24C226.26,-836.11 275.78,-818.06 300,-782 315.23,-759.32 318.13,-727.66 317.9,-705.24"/>
<polygon fill="black" stroke="black" stroke-width="1" points="321.4,-704.94 317.58,-695.05 314.4,-705.16 321.4,-704.94"/>
<text text-anchor="middle" x="317.5" y="-760.3" font-family="Sans Not-Rotated 14" font-size="14.00"> </text>
</g>
<!-- JOIN&#45;PAT -->
<g id="node16" class="node">
<title>JOIN&#45;PAT</title>
<polygon fill="#ffffff" stroke="black" points="132,-695 52,-695 52,-659 132,-659 132,-695"/>
<text text-anchor="middle" x="92" y="-673.3" font-family="Sans Not-Rotated 14" font-size="14.00">JOIN&#45;PAT</text>
</g>
<!-- NEW&#45;&gt;JOIN&#45;PAT -->
<g id="edge20" class="edge">
<title>NEW&#45;&gt;JOIN&#45;PAT</title>
<path fill="none" stroke="black" stroke-width="1" d="M140.8,-838.66C118.57,-827.75 88.67,-808.93 75,-782 62.65,-757.67 70.46,-726.38 79.13,-704.51"/>
<polygon fill="black" stroke="black" stroke-width="1" points="82.41,-705.75 83.11,-695.18 75.97,-703.01 82.41,-705.75"/>
<text text-anchor="middle" x="84.5" y="-760.3" font-family="Sans Not-Rotated 14" font-size="14.00"> &#160;&#160;&#160;</text>
</g>
<!-- NEW&#45;&gt;FIN -->
<g id="edge23" class="edge">
<title>NEW&#45;&gt;FIN</title>
<path fill="none" stroke="black" stroke-width="2.19" d="M195.08,-849.1C270.83,-845.96 482.04,-832.73 524,-782 580.74,-713.4 446.42,-638.87 378.44,-606.96"/>
<polygon fill="black" stroke="black" stroke-width="2.19" points="379.86,-603.76 369.32,-602.74 376.93,-610.11 379.86,-603.76"/>
<text text-anchor="middle" x="570.5" y="-716.8" font-family="Sans Not-Rotated 14" font-size="14.00"> &#160;&#160;&#160;&#160;&#160;&#160;&#160;&#160;&#160;&#160;&#160;&#160;&#160;&#160;&#160;</text>
</g>
<!-- CHANGE DIAGN&#45;&gt;CHANGE DIAGN -->
<g id="edge45" class="edge">
<title>CHANGE DIAGN&#45;&gt;CHANGE DIAGN</title>
<path fill="none" stroke="black" stroke-width="1.12" d="M232.68,-771.29C243.24,-770.24 250.5,-767.81 250.5,-764 250.5,-761.56 247.52,-759.68 242.6,-758.38"/>
<polygon fill="black" stroke="black" stroke-width="1.12" points="243.12,-754.91 232.68,-756.71 241.96,-761.82 243.12,-754.91"/>
<text text-anchor="middle" x="271" y="-760.3" font-family="Sans Not-Rotated 14" font-size="14.00"> &#160;&#160;&#160;&#160;&#160;&#160;&#160;&#160;</text>
</g>
<!-- CHANGE DIAGN&#45;&gt;CHANGE END -->
<g id="edge18" class="edge">
<title>CHANGE DIAGN&#45;&gt;CHANGE END</title>
<path fill="none" stroke="black" stroke-width="1" d="M197.95,-745.8C220.89,-732.62 252.72,-714.34 277.55,-700.08"/>
<polygon fill="black" stroke="black" stroke-width="1" points="279.42,-703.05 286.35,-695.03 275.93,-696.98 279.42,-703.05"/>
<text text-anchor="middle" x="253.5" y="-716.8" font-family="Sans Not-Rotated 14" font-size="14.00"> </text>
</g>
<!-- CHANGE DIAGN&#45;&gt;JOIN&#45;PAT -->
<g id="edge21" class="edge">
<title>CHANGE DIAGN&#45;&gt;JOIN&#45;PAT</title>
<path fill="none" stroke="black" stroke-width="1" d="M151.39,-745.7C146.1,-740.1 140.25,-733.83 135,-728 127.76,-719.96 120.01,-711.04 113.1,-702.99"/>
<polygon fill="black" stroke="black" stroke-width="1" points="115.69,-700.63 106.54,-695.29 110.36,-705.17 115.69,-700.63"/>
<text text-anchor="middle" x="144.5" y="-716.8" font-family="Sans Not-Rotated 14" font-size="14.00"> &#160;&#160;&#160;</text>
</g>
<!-- CHANGE DIAGN&#45;&gt;FIN -->
<g id="edge22" class="edge">
<title>CHANGE DIAGN&#45;&gt;FIN</title>
<path fill="none" stroke="black" stroke-width="2.78" d="M164.44,-745.65C160.89,-723.33 158.34,-684.42 177,-659 206.91,-618.25 265.72,-601.82 304.44,-595.26"/>
<polygon fill="black" stroke="black" stroke-width="2.78" points="305.44,-598.65 314.79,-593.66 304.37,-591.73 305.44,-598.65"/>
<text text-anchor="middle" x="213.5" y="-673.3" font-family="Sans Not-Rotated 14" font-size="14.00"> &#160;&#160;&#160;&#160;&#160;&#160;&#160;&#160;&#160;&#160;&#160;&#160;&#160;&#160;&#160;</text>
</g>
<!-- ZDBC_BEHAN&#45;&gt;BILLED -->
<g id="edge39" class="edge">
<title>ZDBC_BEHAN&#45;&gt;BILLED</title>
<path fill="none" stroke="black" d="M984.3,-343.93C983.82,-317.24 978.89,-265.63 950,-236 931.02,-216.54 901.72,-207.8 877.18,-203.91"/>
<polygon fill="black" stroke="black" points="877.38,-200.41 867,-202.53 876.44,-207.34 877.38,-200.41"/>
<text text-anchor="middle" x="985.5" y="-304.3" font-family="Sans Not-Rotated 14" font-size="14.00"> </text>
</g>
<!-- CHANGE END&#45;&gt;FIN -->
<g id="edge40" class="edge">
<title>CHANGE END&#45;&gt;FIN</title>
<path fill="none" stroke="black" stroke-width="1" d="M321.26,-658.8C324.86,-647.05 329.69,-631.24 333.79,-617.84"/>
<polygon fill="black" stroke="black" stroke-width="1" points="337.17,-618.76 336.75,-608.18 330.47,-616.71 337.17,-618.76"/>
<text text-anchor="middle" x="333.5" y="-629.8" font-family="Sans Not-Rotated 14" font-size="14.00"> </text>
</g>
<!-- JOIN&#45;PAT&#45;&gt;FIN -->
<g id="edge42" class="edge">
<title>JOIN&#45;PAT&#45;&gt;FIN</title>
<path fill="none" stroke="black" stroke-width="1" d="M102.22,-658.88C109.82,-647.69 121.24,-633.77 135,-626 163.43,-609.95 253.45,-599.22 304.93,-594.23"/>
<polygon fill="black" stroke="black" stroke-width="1" points="305.36,-597.7 314.99,-593.28 304.7,-590.73 305.36,-597.7"/>
<text text-anchor="middle" x="144.5" y="-629.8" font-family="Sans Not-Rotated 14" font-size="14.00"> &#160;&#160;&#160;</text>
</g>
<!-- JOIN&#45;PAT&#45;&gt;end -->
<g id="edge41" class="edge">
<title>JOIN&#45;PAT&#45;&gt;end</title>
<path fill="none" stroke="black" stroke-dasharray="5,2" d="M94.9,-658.8C97.53,-641.67 101,-614.59 101,-591 101,-591 101,-591 101,-199 101,-118.36 396.57,-110.3 495.89,-109.86"/>
<polygon fill="black" stroke="black" points="495.95,-113.36 505.94,-109.84 495.93,-106.36 495.95,-113.36"/>
<text text-anchor="middle" x="110.5" y="-412.3" font-family="Sans Not-Rotated 14" font-size="14.00"> &#160;&#160;&#160;</text>
</g>
<!-- FIN&#45;&gt;RELEASE -->
<g id="edge5" class="edge">
<title>FIN&#45;&gt;RELEASE</title>
<path fill="none" stroke="black" stroke-width="4.05" d="M369.16,-581.58C394.33,-574.65 432.77,-563.91 466,-554 502.66,-543.07 543.85,-530.09 575.13,-520.1"/>
<polygon fill="black" stroke="black" stroke-width="4.05" points="576.47,-523.39 584.91,-516.97 574.31,-516.64 576.47,-523.39"/>
<text text-anchor="middle" x="571.5" y="-542.8" font-family="Sans Not-Rotated 14" font-size="14.00"> &#160;&#160;&#160;&#160;&#160;&#160;&#160;&#160;&#160;&#160;&#160;&#160;&#160;&#160;&#160;&#160;&#160;&#160;&#160;&#160;&#160;&#160;&#160;&#160;</text>
</g>
<!-- MANUAL&#45;&gt;RELEASE -->
<g id="edge43" class="edge">
<title>MANUAL&#45;&gt;RELEASE</title>
<path fill="none" stroke="black" stroke-width="1.01" d="M657.21,-218.35C643.03,-244.58 617.45,-296.32 608,-344 603.17,-368.37 613.55,-436.63 620.13,-474.98"/>
<polygon fill="black" stroke="black" stroke-width="1.01" points="616.7,-475.69 621.87,-484.94 623.59,-474.49 616.7,-475.69"/>
<text text-anchor="middle" x="617.5" y="-358.3" font-family="Sans Not-Rotated 14" font-size="14.00"> &#160;&#160;&#160;</text>
</g>
<!-- MANUAL&#45;&gt;end -->
<g id="edge44" class="edge">
<title>MANUAL&#45;&gt;end</title>
<path fill="none" stroke="black" stroke-dasharray="5,2" d="M640.2,-181.84C615.61,-166.09 579.37,-142.89 554.78,-127.15"/>
<polygon fill="black" stroke="black" points="556.61,-124.16 546.3,-121.72 552.83,-130.06 556.61,-124.16"/>
<text text-anchor="middle" x="619.5" y="-152.8" font-family="Sans Not-Rotated 14" font-size="14.00"> &#160;&#160;&#160;</text>
</g>
<!-- start -->
<g id="node19" class="node">
<title>start</title>
<ellipse fill="#95d600" stroke="black" cx="168" cy="-947.3" rx="27.1" ry="27.1"/>
<text text-anchor="middle" x="168" y="-943.6" font-family="Sans Not-Rotated 14" font-size="14.00">start</text>
</g>
<!-- start&#45;&gt;NEW -->
<g id="edge14" class="edge">
<title>start&#45;&gt;NEW</title>
<path fill="none" stroke="black" stroke-dasharray="5,2" d="M168,-919.78C168,-907.1 168,-891.93 168,-879.17"/>
<polygon fill="black" stroke="black" points="171.5,-879.12 168,-869.12 164.5,-879.12 171.5,-879.12"/>
<text text-anchor="middle" x="224.5" y="-890.8" font-family="Sans Not-Rotated 14" font-size="14.00"> &#160;&#160;&#160;&#160;&#160;&#160;&#160;&#160;&#160;&#160;&#160;&#160;&#160;&#160;&#160;&#160;&#160;&#160;&#160;&#160;&#160;&#160;&#160;&#160;</text>
</g>
</g>
</svg>
