<?xml version="1.0" encoding="UTF-8" standalone="no"?>
<!DOCTYPE svg PUBLIC "-//W3C//DTD SVG 1.1//EN"
 "http://www.w3.org/Graphics/SVG/1.1/DTD/svg11.dtd">
<!-- Generated by graphviz version 3.0.0 (20220226.1711)
 -->
<!-- Pages: 1 -->
<svg width="791pt" height="1004pt"
 viewBox="0.00 0.00 791.00 1003.60" xmlns="http://www.w3.org/2000/svg" xmlns:xlink="http://www.w3.org/1999/xlink">
<g id="graph0" class="graph" transform="scale(1 1) rotate(0) translate(4 999.6)">
<polygon fill="white" stroke="transparent" points="-4,4 -4,-999.6 787,-999.6 787,4 -4,4"/>
<!-- REOPEN -->
<g id="node1" class="node">
<title>REOPEN</title>
<polygon fill="#ffffff" stroke="black" points="235.5,-695 160.5,-695 160.5,-659 235.5,-659 235.5,-695"/>
<text text-anchor="middle" x="198" y="-673.3" font-family="Sans Not-Rotated 14" font-size="14.00">REOPEN</text>
</g>
<!-- FIN -->
<g id="node17" class="node">
<title>FIN</title>
<polygon fill="#1f3b98" stroke="black" points="422,-608 368,-608 368,-572 422,-572 422,-608"/>
<text text-anchor="middle" x="395" y="-586.3" font-family="Sans Not-Rotated 14" font-size="14.00" fill="white">FIN</text>
</g>
<!-- REOPEN&#45;&gt;FIN -->
<g id="edge2" class="edge">
<title>REOPEN&#45;&gt;FIN</title>
<path fill="none" stroke="black" stroke-width="1.17" d="M235.52,-659.81C270.82,-644.58 323.37,-621.91 358.38,-606.8"/>
<polygon fill="black" stroke="black" stroke-width="1.17" points="359.96,-609.93 367.76,-602.75 357.19,-603.5 359.96,-609.93"/>
<text text-anchor="middle" x="328.5" y="-629.8" font-family="Sans Not-Rotated 14" font-size="14.00"> &#160;&#160;&#160;&#160;&#160;&#160;&#160;&#160;</text>
</g>
<!-- RELEASE -->
<g id="node2" class="node">
<title>RELEASE</title>
<polygon fill="#1f3b98" stroke="black" points="435,-521 355,-521 355,-485 435,-485 435,-521"/>
<text text-anchor="middle" x="395" y="-499.3" font-family="Sans Not-Rotated 14" font-size="14.00" fill="white">RELEASE</text>
</g>
<!-- EMPTY -->
<g id="node4" class="node">
<title>EMPTY</title>
<polygon fill="#ffffff" stroke="black" points="647.5,-380 582.5,-380 582.5,-344 647.5,-344 647.5,-380"/>
<text text-anchor="middle" x="615" y="-358.3" font-family="Sans Not-Rotated 14" font-size="14.00">EMPTY</text>
</g>
<!-- RELEASE&#45;&gt;EMPTY -->
<g id="edge11" class="edge">
<title>RELEASE&#45;&gt;EMPTY</title>
<path fill="none" stroke="black" d="M435.34,-498.44C480.95,-493.66 551.54,-483.79 572,-467 595.29,-447.89 606.12,-414.08 611.06,-390.2"/>
<polygon fill="black" stroke="black" points="614.51,-390.8 612.88,-380.33 607.62,-389.53 614.51,-390.8"/>
<text text-anchor="middle" x="587.5" y="-455.8" font-family="Sans Not-Rotated 14" font-size="14.00"> </text>
</g>
<!-- CODE ERROR -->
<g id="node9" class="node">
<title>CODE ERROR</title>
<polygon fill="#ffffff" stroke="black" points="269,-434 157,-434 157,-398 269,-398 269,-434"/>
<text text-anchor="middle" x="213" y="-412.3" font-family="Sans Not-Rotated 14" font-size="14.00">CODE ERROR</text>
</g>
<!-- RELEASE&#45;&gt;CODE ERROR -->
<g id="edge7" class="edge">
<title>RELEASE&#45;&gt;CODE ERROR</title>
<path fill="none" stroke="black" stroke-width="1" d="M354.83,-492.11C333.76,-486.19 307.86,-477.71 286,-467 270.98,-459.64 255.53,-449.5 242.74,-440.27"/>
<polygon fill="black" stroke="black" stroke-width="1" points="244.47,-437.19 234.34,-434.07 240.31,-442.83 244.47,-437.19"/>
<text text-anchor="middle" x="288.5" y="-455.8" font-family="Sans Not-Rotated 14" font-size="14.00"> </text>
</g>
<!-- CODE NOK -->
<g id="node10" class="node">
<title>CODE NOK</title>
<polygon fill="#ffffff" stroke="black" points="529.5,-434 436.5,-434 436.5,-398 529.5,-398 529.5,-434"/>
<text text-anchor="middle" x="483" y="-412.3" font-family="Sans Not-Rotated 14" font-size="14.00">CODE NOK</text>
</g>
<!-- RELEASE&#45;&gt;CODE NOK -->
<g id="edge6" class="edge">
<title>RELEASE&#45;&gt;CODE NOK</title>
<path fill="none" stroke="black" stroke-width="1.08" d="M412.81,-484.8C425.69,-472.36 443.28,-455.36 457.63,-441.5"/>
<polygon fill="black" stroke="black" stroke-width="1.08" points="460.46,-443.64 465.22,-434.18 455.59,-438.61 460.46,-443.64"/>
<text text-anchor="middle" x="464.5" y="-455.8" font-family="Sans Not-Rotated 14" font-size="14.00"> &#160;&#160;&#160;&#160;&#160;&#160;&#160;&#160;</text>
</g>
<!-- CODE OK -->
<g id="node11" class="node">
<title>CODE OK</title>
<polygon fill="#1f3b98" stroke="black" points="346.5,-326 263.5,-326 263.5,-290 346.5,-290 346.5,-326"/>
<text text-anchor="middle" x="305" y="-304.3" font-family="Sans Not-Rotated 14" font-size="14.00" fill="white">CODE OK</text>
</g>
<!-- RELEASE&#45;&gt;CODE OK -->
<g id="edge10" class="edge">
<title>RELEASE&#45;&gt;CODE OK</title>
<path fill="none" stroke="black" stroke-width="3.95" d="M364.99,-484.94C347.21,-473.09 326.05,-455.58 315,-434 299.31,-403.34 299.19,-362.84 301.39,-336.37"/>
<polygon fill="black" stroke="black" stroke-width="3.95" points="304.89,-336.58 302.4,-326.29 297.92,-335.89 304.89,-336.58"/>
<text text-anchor="middle" x="371.5" y="-412.3" font-family="Sans Not-Rotated 14" font-size="14.00"> &#160;&#160;&#160;&#160;&#160;&#160;&#160;&#160;&#160;&#160;&#160;&#160;&#160;&#160;&#160;&#160;&#160;&#160;&#160;&#160;&#160;&#160;&#160;&#160;</text>
</g>
<!-- ZDBC_BEHAN -->
<g id="node14" class="node">
<title>ZDBC_BEHAN</title>
<polygon fill="#ffffff" stroke="black" points="114,-380 0,-380 0,-344 114,-344 114,-380"/>
<text text-anchor="middle" x="57" y="-358.3" font-family="Sans Not-Rotated 14" font-size="14.00">ZDBC_BEHAN</text>
</g>
<!-- RELEASE&#45;&gt;ZDBC_BEHAN -->
<g id="edge16" class="edge">
<title>RELEASE&#45;&gt;ZDBC_BEHAN</title>
<path fill="none" stroke="black" d="M354.96,-496.46C304.4,-488.27 215.83,-469.86 148,-434 123.88,-421.25 99.68,-401.98 82.3,-386.73"/>
<polygon fill="black" stroke="black" points="84.61,-384.1 74.82,-380.05 79.95,-389.32 84.61,-384.1"/>
<text text-anchor="middle" x="228.5" y="-455.8" font-family="Sans Not-Rotated 14" font-size="14.00"> </text>
</g>
<!-- BILLED -->
<g id="node3" class="node">
<title>BILLED</title>
<polygon fill="#1946ba" stroke="black" points="310,-218 242,-218 242,-182 310,-182 310,-218"/>
<text text-anchor="middle" x="276" y="-196.3" font-family="Sans Not-Rotated 14" font-size="14.00" fill="white">BILLED</text>
</g>
<!-- STORNO -->
<g id="node7" class="node">
<title>STORNO</title>
<polygon fill="#ffffff" stroke="black" points="396.5,-127 319.5,-127 319.5,-91 396.5,-91 396.5,-127"/>
<text text-anchor="middle" x="358" y="-105.3" font-family="Sans Not-Rotated 14" font-size="14.00">STORNO</text>
</g>
<!-- BILLED&#45;&gt;STORNO -->
<g id="edge1" class="edge">
<title>BILLED&#45;&gt;STORNO</title>
<path fill="none" stroke="black" stroke-width="1.15" d="M291.81,-181.84C304.18,-168.42 321.53,-149.58 335.37,-134.56"/>
<polygon fill="black" stroke="black" stroke-width="1.15" points="338.04,-136.83 342.24,-127.11 332.89,-132.09 338.04,-136.83"/>
<text text-anchor="middle" x="341.5" y="-152.8" font-family="Sans Not-Rotated 14" font-size="14.00"> &#160;&#160;&#160;&#160;&#160;&#160;&#160;&#160;</text>
</g>
<!-- end -->
<g id="node20" class="node">
<title>end</title>
<ellipse fill="#ea4126" stroke="black" cx="625" cy="-109" rx="18" ry="18"/>
<ellipse fill="none" stroke="black" cx="625" cy="-109" rx="22" ry="22"/>
</g>
<!-- BILLED&#45;&gt;end -->
<g id="edge22" class="edge">
<title>BILLED&#45;&gt;end</title>
<path fill="none" stroke="black" stroke-dasharray="5,2" d="M310.18,-186.21C340.34,-175.26 385.65,-159.63 426,-149 484.32,-133.63 553.69,-121.37 593.21,-114.94"/>
<polygon fill="black" stroke="black" points="593.98,-118.36 603.3,-113.32 592.87,-111.45 593.98,-118.36"/>
<text text-anchor="middle" x="482.5" y="-152.8" font-family="Sans Not-Rotated 14" font-size="14.00"> &#160;&#160;&#160;&#160;&#160;&#160;&#160;&#160;&#160;&#160;&#160;&#160;&#160;&#160;&#160;&#160;&#160;&#160;&#160;&#160;&#160;&#160;&#160;&#160;</text>
</g>
<!-- EMPTY&#45;&gt;end -->
<g id="edge23" class="edge">
<title>EMPTY&#45;&gt;end</title>
<path fill="none" stroke="black" stroke-dasharray="5,2" d="M615.69,-343.75C617.35,-301.99 621.61,-194.98 623.75,-141.46"/>
<polygon fill="black" stroke="black" points="627.25,-141.33 624.16,-131.2 620.26,-141.06 627.25,-141.33"/>
<text text-anchor="middle" x="621.5" y="-250.3" font-family="Sans Not-Rotated 14" font-size="14.00"> </text>
</g>
<!-- SET STATUS -->
<g id="node5" class="node">
<title>SET STATUS</title>
<polygon fill="#ffffff" stroke="black" points="602,-272 498,-272 498,-236 602,-236 602,-272"/>
<text text-anchor="middle" x="550" y="-250.3" font-family="Sans Not-Rotated 14" font-size="14.00">SET STATUS</text>
</g>
<!-- SET STATUS&#45;&gt;end -->
<g id="edge24" class="edge">
<title>SET STATUS&#45;&gt;end</title>
<path fill="none" stroke="black" stroke-dasharray="5,2" d="M552.91,-235.99C555.88,-221.18 561.3,-199.41 570,-182 578.79,-164.41 592.12,-146.82 603.45,-133.43"/>
<polygon fill="black" stroke="black" points="606.27,-135.52 610.19,-125.68 600.99,-130.93 606.27,-135.52"/>
<text text-anchor="middle" x="590.5" y="-196.3" font-family="Sans Not-Rotated 14" font-size="14.00"> &#160;&#160;&#160;&#160;&#160;&#160;&#160;&#160;</text>
</g>
<!-- DELETE -->
<g id="node6" class="node">
<title>DELETE</title>
<polygon fill="#ffffff" stroke="black" points="741,-749 669,-749 669,-713 741,-713 741,-749"/>
<text text-anchor="middle" x="705" y="-727.3" font-family="Sans Not-Rotated 14" font-size="14.00">DELETE</text>
</g>
<!-- DELETE&#45;&gt;end -->
<g id="edge25" class="edge">
<title>DELETE&#45;&gt;end</title>
<path fill="none" stroke="black" stroke-dasharray="5,2" d="M706.45,-712.76C707.92,-693.65 710,-661.89 710,-634.5 710,-634.5 710,-634.5 710,-199 710,-165.51 678.13,-139.66 653.42,-124.66"/>
<polygon fill="black" stroke="black" points="655.12,-121.6 644.71,-119.63 651.62,-127.66 655.12,-121.6"/>
<text text-anchor="middle" x="746.5" y="-455.8" font-family="Sans Not-Rotated 14" font-size="14.00"> &#160;&#160;&#160;&#160;&#160;&#160;&#160;&#160;&#160;&#160;&#160;&#160;&#160;&#160;&#160;</text>
</g>
<!-- REJECT -->
<g id="node8" class="node">
<title>REJECT</title>
<polygon fill="#ffffff" stroke="black" points="310,-36 242,-36 242,0 310,0 310,-36"/>
<text text-anchor="middle" x="276" y="-14.3" font-family="Sans Not-Rotated 14" font-size="14.00">REJECT</text>
</g>
<!-- STORNO&#45;&gt;REJECT -->
<g id="edge13" class="edge">
<title>STORNO&#45;&gt;REJECT</title>
<path fill="none" stroke="black" stroke-width="1.08" d="M342.19,-90.84C329.82,-77.42 312.47,-58.58 298.63,-43.56"/>
<polygon fill="black" stroke="black" stroke-width="1.08" points="301.11,-41.09 291.76,-36.11 295.96,-45.83 301.11,-41.09"/>
<text text-anchor="middle" x="341.5" y="-57.8" font-family="Sans Not-Rotated 14" font-size="14.00"> &#160;&#160;&#160;&#160;&#160;&#160;&#160;&#160;</text>
</g>
<!-- REJECT&#45;&gt;BILLED -->
<g id="edge26" class="edge">
<title>REJECT&#45;&gt;BILLED</title>
<path fill="none" stroke="black" stroke-width="1.05" d="M274.08,-36.02C272.63,-49.76 270.77,-69.6 270,-87 269.14,-106.54 269.14,-111.46 270,-131 270.59,-144.46 271.84,-159.38 273.05,-171.8"/>
<polygon fill="black" stroke="black" stroke-width="1.05" points="269.59,-172.38 274.08,-181.98 276.55,-171.68 269.59,-172.38"/>
<text text-anchor="middle" x="290.5" y="-105.3" font-family="Sans Not-Rotated 14" font-size="14.00"> &#160;&#160;&#160;&#160;&#160;&#160;&#160;&#160;</text>
</g>
<!-- CODE ERROR&#45;&gt;REOPEN -->
<g id="edge27" class="edge">
<title>CODE ERROR&#45;&gt;REOPEN</title>
<path fill="none" stroke="black" stroke-width="1" d="M212,-434.32C209.45,-478.38 202.69,-595.01 199.59,-648.49"/>
<polygon fill="black" stroke="black" stroke-width="1" points="196.09,-648.42 199.01,-658.6 203.08,-648.82 196.09,-648.42"/>
<text text-anchor="middle" x="207.5" y="-542.8" font-family="Sans Not-Rotated 14" font-size="14.00"> </text>
</g>
<!-- CODE NOK&#45;&gt;BILLED -->
<g id="edge28" class="edge">
<title>CODE NOK&#45;&gt;BILLED</title>
<path fill="none" stroke="black" stroke-width="1.02" d="M476.27,-397.7C469.4,-379.84 458.56,-351.11 450,-326 436.49,-286.35 452.59,-264.62 422,-236 407.39,-222.33 357.77,-212.46 320.4,-206.76"/>
<polygon fill="black" stroke="black" stroke-width="1.02" points="320.63,-203.25 310.23,-205.26 319.61,-210.18 320.63,-203.25"/>
<text text-anchor="middle" x="459.5" y="-304.3" font-family="Sans Not-Rotated 14" font-size="14.00"> &#160;&#160;&#160;</text>
</g>
<!-- CODE NOK&#45;&gt;SET STATUS -->
<g id="edge3" class="edge">
<title>CODE NOK&#45;&gt;SET STATUS</title>
<path fill="none" stroke="black" stroke-width="1.02" d="M490.17,-397.88C501.8,-370.11 524.85,-315.06 538.7,-281.99"/>
<polygon fill="black" stroke="black" stroke-width="1.02" points="542.04,-283.06 542.68,-272.48 535.59,-280.36 542.04,-283.06"/>
<text text-anchor="middle" x="521.5" y="-358.3" font-family="Sans Not-Rotated 14" font-size="14.00"> &#160;&#160;&#160;</text>
</g>
<!-- CODE NOK&#45;&gt;CODE OK -->
<g id="edge29" class="edge">
<title>CODE NOK&#45;&gt;CODE OK</title>
<path fill="none" stroke="black" stroke-width="1.02" d="M439.41,-397.94C427.35,-392.69 414.45,-386.55 403,-380 378.54,-366 352.8,-347.18 333.85,-332.43"/>
<polygon fill="black" stroke="black" stroke-width="1.02" points="335.92,-329.61 325.9,-326.18 331.6,-335.11 335.92,-329.61"/>
<text text-anchor="middle" x="412.5" y="-358.3" font-family="Sans Not-Rotated 14" font-size="14.00"> &#160;&#160;&#160;</text>
</g>
<!-- CODE OK&#45;&gt;REOPEN -->
<g id="edge9" class="edge">
<title>CODE OK&#45;&gt;REOPEN</title>
<path fill="none" stroke="black" stroke-width="1.17" d="M263.29,-315.37C211.24,-325.97 129,-352.58 129,-415 129,-591 129,-591 129,-591 129,-615.56 146.58,-636.98 163.99,-652.18"/>
<polygon fill="black" stroke="black" stroke-width="1.17" points="161.97,-655.05 171.91,-658.71 166.42,-649.65 161.97,-655.05"/>
<text text-anchor="middle" x="149.5" y="-499.3" font-family="Sans Not-Rotated 14" font-size="14.00"> &#160;&#160;&#160;&#160;&#160;&#160;&#160;&#160;</text>
</g>
<!-- CODE OK&#45;&gt;BILLED -->
<g id="edge4" class="edge">
<title>CODE OK&#45;&gt;BILLED</title>
<path fill="none" stroke="black" stroke-width="3.74" d="M280.29,-289.81C274.91,-284.75 269.95,-278.74 267,-272 260.96,-258.22 262.65,-241.58 266.11,-227.88"/>
<polygon fill="black" stroke="black" stroke-width="3.74" points="269.53,-228.65 269,-218.07 262.81,-226.67 269.53,-228.65"/>
<text text-anchor="middle" x="323.5" y="-250.3" font-family="Sans Not-Rotated 14" font-size="14.00"> &#160;&#160;&#160;&#160;&#160;&#160;&#160;&#160;&#160;&#160;&#160;&#160;&#160;&#160;&#160;&#160;&#160;&#160;&#160;&#160;&#160;&#160;&#160;&#160;</text>
</g>
<!-- MANUAL -->
<g id="node18" class="node">
<title>MANUAL</title>
<polygon fill="#ffffff" stroke="black" points="477.5,-218 400.5,-218 400.5,-182 477.5,-182 477.5,-218"/>
<text text-anchor="middle" x="439" y="-196.3" font-family="Sans Not-Rotated 14" font-size="14.00">MANUAL</text>
</g>
<!-- CODE OK&#45;&gt;MANUAL -->
<g id="edge8" class="edge">
<title>CODE OK&#45;&gt;MANUAL</title>
<path fill="none" stroke="black" stroke-width="1.01" d="M346.57,-291.54C358,-286.27 369.99,-279.72 380,-272 396.55,-259.23 411.55,-241.05 422.28,-226.28"/>
<polygon fill="black" stroke="black" stroke-width="1.01" points="425.19,-228.24 428.09,-218.05 419.46,-224.2 425.19,-228.24"/>
<text text-anchor="middle" x="423.5" y="-250.3" font-family="Sans Not-Rotated 14" font-size="14.00"> &#160;&#160;&#160;</text>
</g>
<!-- NEW -->
<g id="node12" class="node">
<title>NEW</title>
<polygon fill="#1d2559" stroke="black" points="629,-890 575,-890 575,-854 629,-854 629,-890"/>
<text text-anchor="middle" x="602" y="-868.3" font-family="Sans Not-Rotated 14" font-size="14.00" fill="white">NEW</text>
</g>
<!-- NEW&#45;&gt;DELETE -->
<g id="edge12" class="edge">
<title>NEW&#45;&gt;DELETE</title>
<path fill="none" stroke="black" stroke-width="1.23" d="M629.07,-859.18C639.8,-853.43 651.57,-845.65 660,-836 679.53,-813.65 691.67,-781.51 698.35,-758.89"/>
<polygon fill="black" stroke="black" stroke-width="1.23" points="701.73,-759.81 701.04,-749.24 694.98,-757.93 701.73,-759.81"/>
<text text-anchor="middle" x="706.5" y="-824.8" font-family="Sans Not-Rotated 14" font-size="14.00"> &#160;&#160;&#160;&#160;&#160;&#160;&#160;&#160;&#160;&#160;&#160;&#160;&#160;&#160;&#160;</text>
</g>
<!-- CHANGE DIAGN -->
<g id="node13" class="node">
<title>CHANGE DIAGN</title>
<polygon fill="#7d7fd2" stroke="black" points="550.5,-803 421.5,-803 421.5,-767 550.5,-767 550.5,-803"/>
<text text-anchor="middle" x="486" y="-781.3" font-family="Sans Not-Rotated 14" font-size="14.00">CHANGE DIAGN</text>
</g>
<!-- NEW&#45;&gt;CHANGE DIAGN -->
<g id="edge15" class="edge">
<title>NEW&#45;&gt;CHANGE DIAGN</title>
<path fill="none" stroke="black" stroke-width="2.84" d="M578.53,-853.8C560.99,-840.95 536.85,-823.26 517.62,-809.17"/>
<polygon fill="black" stroke="black" stroke-width="2.84" points="519.57,-806.26 509.44,-803.18 515.44,-811.91 519.57,-806.26"/>
<text text-anchor="middle" x="586.5" y="-824.8" font-family="Sans Not-Rotated 14" font-size="14.00"> &#160;&#160;&#160;&#160;&#160;&#160;&#160;&#160;&#160;&#160;&#160;&#160;&#160;&#160;&#160;</text>
</g>
<!-- CHANGE END -->
<g id="node15" class="node">
<title>CHANGE END</title>
<polygon fill="#ffffff" stroke="black" points="451.5,-695 338.5,-695 338.5,-659 451.5,-659 451.5,-695"/>
<text text-anchor="middle" x="395" y="-673.3" font-family="Sans Not-Rotated 14" font-size="14.00">CHANGE END</text>
</g>
<!-- NEW&#45;&gt;CHANGE END -->
<g id="edge17" class="edge">
<title>NEW&#45;&gt;CHANGE END</title>
<path fill="none" stroke="black" stroke-width="1" d="M574.96,-870.16C532.02,-867.25 448.93,-854.81 408,-803 386.15,-775.34 386.7,-732.81 390.08,-705.19"/>
<polygon fill="black" stroke="black" stroke-width="1" points="393.58,-705.45 391.53,-695.05 386.65,-704.46 393.58,-705.45"/>
<text text-anchor="middle" x="410.5" y="-781.3" font-family="Sans Not-Rotated 14" font-size="14.00"> </text>
</g>
<!-- JOIN&#45;PAT -->
<g id="node16" class="node">
<title>JOIN&#45;PAT</title>
<polygon fill="#ffffff" stroke="black" points="682,-695 602,-695 602,-659 682,-659 682,-695"/>
<text text-anchor="middle" x="642" y="-673.3" font-family="Sans Not-Rotated 14" font-size="14.00">JOIN&#45;PAT</text>
</g>
<!-- NEW&#45;&gt;JOIN&#45;PAT -->
<g id="edge19" class="edge">
<title>NEW&#45;&gt;JOIN&#45;PAT</title>
<path fill="none" stroke="black" stroke-width="1" d="M616.94,-853.88C620.86,-848.49 624.65,-842.3 627,-836 643.28,-792.4 644.61,-737.55 643.63,-705.28"/>
<polygon fill="black" stroke="black" stroke-width="1" points="647.12,-705.1 643.22,-695.25 640.13,-705.38 647.12,-705.1"/>
<text text-anchor="middle" x="650.5" y="-781.3" font-family="Sans Not-Rotated 14" font-size="14.00"> &#160;&#160;&#160;</text>
</g>
<!-- CHANGE DIAGN&#45;&gt;CHANGE DIAGN -->
<g id="edge34" class="edge">
<title>CHANGE DIAGN&#45;&gt;CHANGE DIAGN</title>
<path fill="none" stroke="black" stroke-width="1.12" d="M550.68,-792.29C561.24,-791.24 568.5,-788.81 568.5,-785 568.5,-782.56 565.52,-780.68 560.6,-779.38"/>
<polygon fill="black" stroke="black" stroke-width="1.12" points="561.12,-775.91 550.68,-777.71 559.96,-782.82 561.12,-775.91"/>
<text text-anchor="middle" x="589" y="-781.3" font-family="Sans Not-Rotated 14" font-size="14.00"> &#160;&#160;&#160;&#160;&#160;&#160;&#160;&#160;</text>
</g>
<!-- CHANGE DIAGN&#45;&gt;CHANGE END -->
<g id="edge18" class="edge">
<title>CHANGE DIAGN&#45;&gt;CHANGE END</title>
<path fill="none" stroke="black" stroke-width="1" d="M471.38,-766.97C456.54,-749.69 433.41,-722.74 416.49,-703.03"/>
<polygon fill="black" stroke="black" stroke-width="1" points="419.06,-700.65 409.89,-695.34 413.74,-705.21 419.06,-700.65"/>
<text text-anchor="middle" x="455.5" y="-727.3" font-family="Sans Not-Rotated 14" font-size="14.00"> </text>
</g>
<!-- CHANGE DIAGN&#45;&gt;JOIN&#45;PAT -->
<g id="edge20" class="edge">
<title>CHANGE DIAGN&#45;&gt;JOIN&#45;PAT</title>
<path fill="none" stroke="black" stroke-width="1" d="M511.06,-766.97C537.37,-749.1 578.88,-720.89 608.1,-701.04"/>
<polygon fill="black" stroke="black" stroke-width="1" points="610.44,-703.68 616.74,-695.16 606.5,-697.89 610.44,-703.68"/>
<text text-anchor="middle" x="596.5" y="-727.3" font-family="Sans Not-Rotated 14" font-size="14.00"> &#160;&#160;&#160;</text>
</g>
<!-- CHANGE DIAGN&#45;&gt;FIN -->
<g id="edge21" class="edge">
<title>CHANGE DIAGN&#45;&gt;FIN</title>
<path fill="none" stroke="black" stroke-width="2.78" d="M485.6,-766.81C484.36,-741.73 479.53,-694.26 461,-659 452.25,-642.36 438.16,-627.02 425.24,-615.14"/>
<polygon fill="black" stroke="black" stroke-width="2.78" points="427.22,-612.22 417.41,-608.21 422.58,-617.46 427.22,-612.22"/>
<text text-anchor="middle" x="510.5" y="-673.3" font-family="Sans Not-Rotated 14" font-size="14.00"> &#160;&#160;&#160;&#160;&#160;&#160;&#160;&#160;&#160;&#160;&#160;&#160;&#160;&#160;&#160;</text>
</g>
<!-- ZDBC_BEHAN&#45;&gt;BILLED -->
<g id="edge30" class="edge">
<title>ZDBC_BEHAN&#45;&gt;BILLED</title>
<path fill="none" stroke="black" d="M80.44,-343.88C119.93,-315.02 199.78,-256.68 244.26,-224.19"/>
<polygon fill="black" stroke="black" points="246.39,-226.97 252.4,-218.24 242.26,-221.31 246.39,-226.97"/>
<text text-anchor="middle" x="155.5" y="-304.3" font-family="Sans Not-Rotated 14" font-size="14.00"> </text>
</g>
<!-- CHANGE END&#45;&gt;FIN -->
<g id="edge31" class="edge">
<title>CHANGE END&#45;&gt;FIN</title>
<path fill="none" stroke="black" stroke-width="1" d="M395,-658.8C395,-647.16 395,-631.55 395,-618.24"/>
<polygon fill="black" stroke="black" stroke-width="1" points="398.5,-618.18 395,-608.18 391.5,-618.18 398.5,-618.18"/>
<text text-anchor="middle" x="397.5" y="-629.8" font-family="Sans Not-Rotated 14" font-size="14.00"> </text>
</g>
<!-- JOIN&#45;PAT&#45;&gt;end -->
<g id="edge32" class="edge">
<title>JOIN&#45;PAT&#45;&gt;end</title>
<path fill="none" stroke="black" stroke-dasharray="5,2" d="M648.88,-658.73C655,-641.77 663,-615.02 663,-591 663,-591 663,-591 663,-199 663,-176.6 652.7,-153.4 642.82,-136.3"/>
<polygon fill="black" stroke="black" points="645.63,-134.19 637.44,-127.47 639.65,-137.83 645.63,-134.19"/>
<text text-anchor="middle" x="672.5" y="-412.3" font-family="Sans Not-Rotated 14" font-size="14.00"> &#160;&#160;&#160;</text>
</g>
<!-- FIN&#45;&gt;RELEASE -->
<g id="edge5" class="edge">
<title>FIN&#45;&gt;RELEASE</title>
<path fill="none" stroke="black" stroke-width="4.05" d="M395,-571.8C395,-560.16 395,-544.55 395,-531.24"/>
<polygon fill="black" stroke="black" stroke-width="4.05" points="398.54,-531.18 395,-521.18 391.46,-531.18 398.54,-531.18"/>
<text text-anchor="middle" x="451.5" y="-542.8" font-family="Sans Not-Rotated 14" font-size="14.00"> &#160;&#160;&#160;&#160;&#160;&#160;&#160;&#160;&#160;&#160;&#160;&#160;&#160;&#160;&#160;&#160;&#160;&#160;&#160;&#160;&#160;&#160;&#160;&#160;</text>
</g>
<!-- MANUAL&#45;&gt;RELEASE -->
<g id="edge33" class="edge">
<title>MANUAL&#45;&gt;RELEASE</title>
<path fill="none" stroke="black" stroke-width="1.01" d="M452.24,-218.26C476.31,-250 525.63,-316.87 535,-344 536.75,-349.07 544.5,-423.79 539,-434 520.52,-468.35 478.67,-485.49 444.83,-493.96"/>
<polygon fill="black" stroke="black" stroke-width="1.01" points="444.02,-490.55 435.07,-496.22 445.61,-497.37 444.02,-490.55"/>
<text text-anchor="middle" x="548.5" y="-358.3" font-family="Sans Not-Rotated 14" font-size="14.00"> &#160;&#160;&#160;</text>
</g>
<!-- start -->
<g id="node19" class="node">
<title>start</title>
<ellipse fill="#95d600" stroke="black" cx="602" cy="-968.3" rx="27.1" ry="27.1"/>
<text text-anchor="middle" x="602" y="-964.6" font-family="Sans Not-Rotated 14" font-size="14.00">start</text>
</g>
<!-- start&#45;&gt;NEW -->
<g id="edge14" class="edge">
<title>start&#45;&gt;NEW</title>
<path fill="none" stroke="black" stroke-dasharray="5,2" d="M602,-940.78C602,-928.1 602,-912.93 602,-900.17"/>
<polygon fill="black" stroke="black" points="605.5,-900.12 602,-890.12 598.5,-900.12 605.5,-900.12"/>
<text text-anchor="middle" x="658.5" y="-911.8" font-family="Sans Not-Rotated 14" font-size="14.00"> &#160;&#160;&#160;&#160;&#160;&#160;&#160;&#160;&#160;&#160;&#160;&#160;&#160;&#160;&#160;&#160;&#160;&#160;&#160;&#160;&#160;&#160;&#160;&#160;</text>
</g>
</g>
</svg>
