<?xml version="1.0" encoding="UTF-8" standalone="no"?>
<!DOCTYPE svg PUBLIC "-//W3C//DTD SVG 1.1//EN"
 "http://www.w3.org/Graphics/SVG/1.1/DTD/svg11.dtd">
<!-- Generated by graphviz version 3.0.0 (20220226.1711)
 -->
<!-- Pages: 1 -->
<svg width="171pt" height="332pt"
 viewBox="0.00 0.00 171.00 331.60" xmlns="http://www.w3.org/2000/svg" xmlns:xlink="http://www.w3.org/1999/xlink">
<g id="graph0" class="graph" transform="scale(1 1) rotate(0) translate(4 327.6)">
<polygon fill="white" stroke="transparent" points="-4,4 -4,-327.6 167,-327.6 167,4 -4,4"/>
<!-- Triage -->
<g id="node1" class="node">
<title>Triage</title>
<polygon fill="#1d2559" stroke="black" points="60,-218 0,-218 0,-182 60,-182 60,-218"/>
<text text-anchor="middle" x="30" y="-196.3" font-family="Sans Not-Rotated 14" font-size="14.00" fill="white">Triage</text>
</g>
<!-- Register -->
<g id="node2" class="node">
<title>Register</title>
<polygon fill="#1d2559" stroke="black" points="131,-131 57,-131 57,-95 131,-95 131,-131"/>
<text text-anchor="middle" x="94" y="-109.3" font-family="Sans Not-Rotated 14" font-size="14.00" fill="white">Register</text>
</g>
<!-- Triage&#45;&gt;Register -->
<g id="edge1" class="edge">
<title>Triage&#45;&gt;Register</title>
<path fill="none" stroke="black" stroke-width="5" d="M26.26,-181.61C25.01,-171.41 25.18,-158.67 31,-149 35.17,-142.07 41.26,-136.4 48.03,-131.81"/>
<polygon fill="black" stroke="black" stroke-width="5" points="50.51,-135.42 56.87,-126.55 46.04,-127.9 50.51,-135.42"/>
<text text-anchor="middle" x="87.5" y="-152.8" font-family="Sans Not-Rotated 14" font-size="14.00"> &#160;&#160;&#160;&#160;&#160;&#160;&#160;&#160;&#160;&#160;&#160;&#160;&#160;&#160;&#160;&#160;&#160;&#160;&#160;&#160;&#160;&#160;&#160;&#160;</text>
</g>
<!-- end -->
<g id="node4" class="node">
<title>end</title>
<ellipse fill="#ea4126" stroke="black" cx="94" cy="-22" rx="18" ry="18"/>
<ellipse fill="none" stroke="black" cx="94" cy="-22" rx="22" ry="22"/>
</g>
<!-- Register&#45;&gt;end -->
<g id="edge2" class="edge">
<title>Register&#45;&gt;end</title>
<path fill="none" stroke="black" stroke-dasharray="5,2" d="M94,-94.84C94,-83.44 94,-68.13 94,-54.58"/>
<polygon fill="black" stroke="black" points="97.5,-54.19 94,-44.19 90.5,-54.19 97.5,-54.19"/>
<text text-anchor="middle" x="114.5" y="-65.8" font-family="Sans Not-Rotated 14" font-size="14.00"> &#160;&#160;&#160;&#160;&#160;&#160;&#160;&#160;</text>
</g>
<!-- start -->
<g id="node3" class="node">
<title>start</title>
<ellipse fill="#95d600" stroke="black" cx="94" cy="-296.3" rx="27.1" ry="27.1"/>
<text text-anchor="middle" x="94" y="-292.6" font-family="Sans Not-Rotated 14" font-size="14.00">start</text>
</g>
<!-- start&#45;&gt;Triage -->
<g id="edge3" class="edge">
<title>start&#45;&gt;Triage</title>
<path fill="none" stroke="black" stroke-dasharray="5,2" d="M69.17,-284.82C55.28,-277.53 39.16,-266.34 31,-251 27.36,-244.15 26.13,-235.99 26.09,-228.27"/>
<polygon fill="black" stroke="black" points="29.59,-228.35 26.64,-218.17 22.6,-227.97 29.59,-228.35"/>
<text text-anchor="middle" x="87.5" y="-239.8" font-family="Sans Not-Rotated 14" font-size="14.00"> &#160;&#160;&#160;&#160;&#160;&#160;&#160;&#160;&#160;&#160;&#160;&#160;&#160;&#160;&#160;&#160;&#160;&#160;&#160;&#160;&#160;&#160;&#160;&#160;</text>
</g>
<!-- start&#45;&gt;Register -->
<g id="edge4" class="edge">
<title>start&#45;&gt;Register</title>
<path fill="none" stroke="black" stroke-dasharray="5,2" d="M117.03,-281.44C127.32,-273.87 138.38,-263.48 144,-251 162.61,-209.66 164.94,-189.21 144,-149 141.88,-144.92 139.04,-141.23 135.79,-137.89"/>
<polygon fill="black" stroke="black" points="137.96,-135.14 128.14,-131.18 133.34,-140.4 137.96,-135.14"/>
<text text-anchor="middle" x="160.5" y="-196.3" font-family="Sans Not-Rotated 14" font-size="14.00"> </text>
</g>
</g>
</svg>
