<?xml version="1.0" encoding="UTF-8" standalone="no"?>
<!DOCTYPE svg PUBLIC "-//W3C//DTD SVG 1.1//EN"
 "http://www.w3.org/Graphics/SVG/1.1/DTD/svg11.dtd">
<!-- Generated by graphviz version 3.0.0 (20220226.1711)
 -->
<!-- Pages: 1 -->
<svg width="158pt" height="332pt"
 viewBox="0.00 0.00 158.00 331.60" xmlns="http://www.w3.org/2000/svg" xmlns:xlink="http://www.w3.org/1999/xlink">
<g id="graph0" class="graph" transform="scale(1 1) rotate(0) translate(4 327.6)">
<polygon fill="white" stroke="transparent" points="-4,4 -4,-327.6 154,-327.6 154,4 -4,4"/>
<!-- Triage -->
<g id="node1" class="node">
<title>Triage</title>
<polygon fill="#1d2559" stroke="black" points="67,-218 7,-218 7,-182 67,-182 67,-218"/>
<text text-anchor="middle" x="37" y="-196.3" font-family="Sans Not-Rotated 14" font-size="14.00" fill="white">Triage</text>
</g>
<!-- Register -->
<g id="node2" class="node">
<title>Register</title>
<polygon fill="#1d2559" stroke="black" points="74,-131 0,-131 0,-95 74,-95 74,-131"/>
<text text-anchor="middle" x="37" y="-109.3" font-family="Sans Not-Rotated 14" font-size="14.00" fill="white">Register</text>
</g>
<!-- Triage&#45;&gt;Register -->
<g id="edge2" class="edge">
<title>Triage&#45;&gt;Register</title>
<path fill="none" stroke="black" stroke-width="5" d="M37,-181.8C37,-170.16 37,-154.55 37,-141.24"/>
<polygon fill="black" stroke="black" stroke-width="5" points="41.38,-141.18 37,-131.18 32.63,-141.18 41.38,-141.18"/>
<text text-anchor="middle" x="93.5" y="-152.8" font-family="Sans Not-Rotated 14" font-size="14.00"> &#160;&#160;&#160;&#160;&#160;&#160;&#160;&#160;&#160;&#160;&#160;&#160;&#160;&#160;&#160;&#160;&#160;&#160;&#160;&#160;&#160;&#160;&#160;&#160;</text>
</g>
<!-- end -->
<g id="node4" class="node">
<title>end</title>
<ellipse fill="#ea4126" stroke="black" cx="37" cy="-22" rx="18" ry="18"/>
<ellipse fill="none" stroke="black" cx="37" cy="-22" rx="22" ry="22"/>
</g>
<!-- Register&#45;&gt;end -->
<g id="edge3" class="edge">
<title>Register&#45;&gt;end</title>
<path fill="none" stroke="black" stroke-dasharray="5,2" d="M37,-94.84C37,-83.44 37,-68.13 37,-54.58"/>
<polygon fill="black" stroke="black" points="40.5,-54.19 37,-44.19 33.5,-54.19 40.5,-54.19"/>
<text text-anchor="middle" x="57.5" y="-65.8" font-family="Sans Not-Rotated 14" font-size="14.00"> &#160;&#160;&#160;&#160;&#160;&#160;&#160;&#160;</text>
</g>
<!-- start -->
<g id="node3" class="node">
<title>start</title>
<ellipse fill="#95d600" stroke="black" cx="37" cy="-296.3" rx="27.1" ry="27.1"/>
<text text-anchor="middle" x="37" y="-292.6" font-family="Sans Not-Rotated 14" font-size="14.00">start</text>
</g>
<!-- start&#45;&gt;Triage -->
<g id="edge1" class="edge">
<title>start&#45;&gt;Triage</title>
<path fill="none" stroke="black" stroke-dasharray="5,2" d="M37,-268.78C37,-256.1 37,-240.93 37,-228.17"/>
<polygon fill="black" stroke="black" points="40.5,-228.12 37,-218.12 33.5,-228.12 40.5,-228.12"/>
<text text-anchor="middle" x="93.5" y="-239.8" font-family="Sans Not-Rotated 14" font-size="14.00"> &#160;&#160;&#160;&#160;&#160;&#160;&#160;&#160;&#160;&#160;&#160;&#160;&#160;&#160;&#160;&#160;&#160;&#160;&#160;&#160;&#160;&#160;&#160;&#160;</text>
</g>
</g>
</svg>
