<?xml version="1.0" encoding="UTF-8" standalone="no"?>
<!DOCTYPE svg PUBLIC "-//W3C//DTD SVG 1.1//EN"
 "http://www.w3.org/Graphics/SVG/1.1/DTD/svg11.dtd">
<!-- Generated by graphviz version 3.0.0 (20220226.1711)
 -->
<!-- Pages: 1 -->
<svg width="1360pt" height="767pt"
 viewBox="0.00 0.00 1360.00 766.60" xmlns="http://www.w3.org/2000/svg" xmlns:xlink="http://www.w3.org/1999/xlink">
<g id="graph0" class="graph" transform="scale(1 1) rotate(0) translate(4 762.6)">
<polygon fill="white" stroke="transparent" points="-4,4 -4,-762.6 1356,-762.6 1356,4 -4,4"/>
<!-- Red zone operator -->
<g id="node1" class="node">
<title>Red zone operator</title>
<polygon fill="#1d2559" stroke="black" points="654.5,-653 509.5,-653 509.5,-617 654.5,-617 654.5,-653"/>
<text text-anchor="middle" x="582" y="-631.3" font-family="Sans Not-Rotated 14" font-size="14.00" fill="white">Red zone operator</text>
</g>
<!-- Red zone operator&#45;&gt;Red zone operator -->
<g id="edge54" class="edge">
<title>Red zone operator&#45;&gt;Red zone operator</title>
<path fill="none" stroke="black" stroke-width="1.51" d="M654.79,-642.11C665.37,-640.98 672.5,-638.61 672.5,-635 672.5,-632.69 669.57,-630.88 664.69,-629.59"/>
<polygon fill="black" stroke="black" stroke-width="1.51" points="665.24,-626.13 654.79,-627.89 664.05,-633.03 665.24,-626.13"/>
<text text-anchor="middle" x="693" y="-631.3" font-family="Sans Not-Rotated 14" font-size="14.00"> &#160;&#160;&#160;&#160;&#160;&#160;&#160;&#160;</text>
</g>
<!-- Red zone doctor FD -->
<g id="node2" class="node">
<title>Red zone doctor FD</title>
<polygon fill="#1d2559" stroke="black" points="562.5,-566 409.5,-566 409.5,-530 562.5,-530 562.5,-566"/>
<text text-anchor="middle" x="486" y="-544.3" font-family="Sans Not-Rotated 14" font-size="14.00" fill="white">Red zone doctor FD</text>
</g>
<!-- Red zone operator&#45;&gt;Red zone doctor FD -->
<g id="edge9" class="edge">
<title>Red zone operator&#45;&gt;Red zone doctor FD</title>
<path fill="none" stroke="black" stroke-width="3.34" d="M509.34,-620.31C498.99,-615.26 489.63,-608.38 483,-599 478.39,-592.48 477.47,-584.21 478.19,-576.28"/>
<polygon fill="black" stroke="black" stroke-width="3.34" points="481.67,-576.68 479.91,-566.23 474.77,-575.5 481.67,-576.68"/>
<text text-anchor="middle" x="519.5" y="-587.8" font-family="Sans Not-Rotated 14" font-size="14.00"> &#160;&#160;&#160;&#160;&#160;&#160;&#160;&#160;&#160;&#160;&#160;&#160;&#160;&#160;&#160;</text>
</g>
<!-- Yellow zone doctor FD -->
<g id="node3" class="node">
<title>Yellow zone doctor FD</title>
<polygon fill="#a09dde" stroke="black" points="776.5,-479 603.5,-479 603.5,-443 776.5,-443 776.5,-479"/>
<text text-anchor="middle" x="690" y="-457.3" font-family="Sans Not-Rotated 14" font-size="14.00">Yellow zone doctor FD</text>
</g>
<!-- Red zone operator&#45;&gt;Yellow zone doctor FD -->
<g id="edge17" class="edge">
<title>Red zone operator&#45;&gt;Yellow zone doctor FD</title>
<path fill="none" stroke="black" stroke-width="1.06" d="M624.33,-616.88C632.91,-612.02 641.33,-606.08 648,-599 676.39,-568.82 685.62,-519.93 688.6,-489.44"/>
<polygon fill="black" stroke="black" stroke-width="1.06" points="692.12,-489.36 689.44,-479.11 685.14,-488.79 692.12,-489.36"/>
<text text-anchor="middle" x="690.5" y="-544.3" font-family="Sans Not-Rotated 14" font-size="14.00"> &#160;&#160;&#160;</text>
</g>
<!-- Red zone doctor -->
<g id="node4" class="node">
<title>Red zone doctor</title>
<polygon fill="#1f3b98" stroke="black" points="759.5,-36 630.5,-36 630.5,0 759.5,0 759.5,-36"/>
<text text-anchor="middle" x="695" y="-14.3" font-family="Sans Not-Rotated 14" font-size="14.00" fill="white">Red zone doctor</text>
</g>
<!-- Red zone operator&#45;&gt;Red zone doctor -->
<g id="edge19" class="edge">
<title>Red zone operator&#45;&gt;Red zone doctor</title>
<path fill="none" stroke="black" stroke-width="5" d="M654.53,-632.18C826.56,-626.9 1245,-608 1245,-549 1245,-549 1245,-549 1245,-104 1245,-56.48 920.19,-31.8 769.79,-22.92"/>
<polygon fill="black" stroke="black" stroke-width="5" points="769.95,-18.54 759.71,-22.33 769.44,-27.28 769.95,-18.54"/>
<text text-anchor="middle" x="1281.5" y="-326.8" font-family="Sans Not-Rotated 14" font-size="14.00"> &#160;&#160;&#160;&#160;&#160;&#160;&#160;&#160;&#160;&#160;&#160;&#160;&#160;&#160;&#160;</text>
</g>
<!-- Notification operator -->
<g id="node6" class="node">
<title>Notification operator</title>
<polygon fill="#5661c6" stroke="black" points="366.5,-305 207.5,-305 207.5,-269 366.5,-269 366.5,-305"/>
<text text-anchor="middle" x="287" y="-283.3" font-family="Sans Not-Rotated 14" font-size="14.00" fill="white">Notification operator</text>
</g>
<!-- Red zone operator&#45;&gt;Notification operator -->
<g id="edge35" class="edge">
<title>Red zone operator&#45;&gt;Notification operator</title>
<path fill="none" stroke="black" stroke-width="1.02" d="M509.25,-632.13C382.48,-628.36 131.17,-618.53 96,-599 80.15,-590.2 80.94,-581.78 72,-566 18.7,-471.92 -6.64,-381.97 84,-323 102.81,-310.76 151.97,-302.11 197.2,-296.47"/>
<polygon fill="black" stroke="black" stroke-width="1.02" points="197.87,-299.92 207.38,-295.24 197.03,-292.97 197.87,-299.92"/>
<text text-anchor="middle" x="42.5" y="-457.3" font-family="Sans Not-Rotated 14" font-size="14.00"> &#160;&#160;&#160;</text>
</g>
<!-- Yellow zone doctor -->
<g id="node8" class="node">
<title>Yellow zone doctor</title>
<polygon fill="#a09dde" stroke="black" points="415.5,-392 266.5,-392 266.5,-356 415.5,-356 415.5,-392"/>
<text text-anchor="middle" x="341" y="-370.3" font-family="Sans Not-Rotated 14" font-size="14.00">Yellow zone doctor</text>
</g>
<!-- Red zone operator&#45;&gt;Yellow zone doctor -->
<g id="edge43" class="edge">
<title>Red zone operator&#45;&gt;Yellow zone doctor</title>
<path fill="none" stroke="black" stroke-width="1.2" d="M509.21,-633.67C430.73,-631.94 312.17,-624.94 276,-599 236.3,-570.53 216.78,-542.34 235,-497 251.52,-455.87 275.43,-458.88 304,-425 310.54,-417.24 317.27,-408.44 323.16,-400.4"/>
<polygon fill="black" stroke="black" stroke-width="1.2" points="326.16,-402.23 329.18,-392.07 320.49,-398.13 326.16,-402.23"/>
<text text-anchor="middle" x="255.5" y="-500.8" font-family="Sans Not-Rotated 14" font-size="14.00"> &#160;&#160;&#160;&#160;&#160;&#160;&#160;&#160;</text>
</g>
<!-- Red zone doctor FD&#45;&gt;Red zone operator -->
<g id="edge3" class="edge">
<title>Red zone doctor FD&#45;&gt;Red zone operator</title>
<path fill="none" stroke="black" stroke-width="3.44" d="M535.06,-566.09C544.14,-570.86 552.96,-576.77 560,-584 566.37,-590.55 571.06,-599.24 574.43,-607.55"/>
<polygon fill="black" stroke="black" stroke-width="3.44" points="571.14,-608.73 577.81,-616.96 577.73,-606.37 571.14,-608.73"/>
<text text-anchor="middle" x="607.5" y="-587.8" font-family="Sans Not-Rotated 14" font-size="14.00"> &#160;&#160;&#160;&#160;&#160;&#160;&#160;&#160;&#160;&#160;&#160;&#160;&#160;&#160;&#160;</text>
</g>
<!-- Red zone doctor FD&#45;&gt;Red zone doctor FD -->
<g id="edge55" class="edge">
<title>Red zone doctor FD&#45;&gt;Red zone doctor FD</title>
<path fill="none" stroke="black" stroke-width="2.54" d="M562.75,-555.03C573.39,-553.87 580.5,-551.53 580.5,-548 580.5,-545.74 577.58,-543.97 572.69,-542.68"/>
<polygon fill="black" stroke="black" stroke-width="2.54" points="573.2,-539.22 562.75,-540.97 572.02,-546.12 573.2,-539.22"/>
<text text-anchor="middle" x="617" y="-544.3" font-family="Sans Not-Rotated 14" font-size="14.00"> &#160;&#160;&#160;&#160;&#160;&#160;&#160;&#160;&#160;&#160;&#160;&#160;&#160;&#160;&#160;</text>
</g>
<!-- Red zone doctor FD&#45;&gt;Yellow zone doctor FD -->
<g id="edge14" class="edge">
<title>Red zone doctor FD&#45;&gt;Yellow zone doctor FD</title>
<path fill="none" stroke="black" stroke-width="1.49" d="M497.35,-529.61C505.43,-518.6 517.27,-504.99 531,-497 549.96,-485.96 572.03,-478.4 593.6,-473.22"/>
<polygon fill="black" stroke="black" stroke-width="1.49" points="594.47,-476.61 603.46,-471 592.93,-469.78 594.47,-476.61"/>
<text text-anchor="middle" x="551.5" y="-500.8" font-family="Sans Not-Rotated 14" font-size="14.00"> &#160;&#160;&#160;&#160;&#160;&#160;&#160;&#160;</text>
</g>
<!-- Red zone doctor FD&#45;&gt;Red zone doctor -->
<g id="edge20" class="edge">
<title>Red zone doctor FD&#45;&gt;Red zone doctor</title>
<path fill="none" stroke="black" stroke-width="1.72" d="M562.59,-539.15C594.53,-536.04 632.04,-532.59 666,-530 750.67,-523.55 1042,-546.91 1042,-462 1042,-462 1042,-462 1042,-329.5 1042,-167.4 950.55,-121.12 803,-54 791.13,-48.6 778.19,-43.66 765.52,-39.29"/>
<polygon fill="black" stroke="black" stroke-width="1.72" points="766.5,-35.93 755.9,-36.07 764.27,-42.57 766.5,-35.93"/>
<text text-anchor="middle" x="1061.5" y="-283.3" font-family="Sans Not-Rotated 14" font-size="14.00"> &#160;&#160;&#160;&#160;&#160;&#160;&#160;&#160;</text>
</g>
<!-- Meas missing operator -->
<g id="node5" class="node">
<title>Meas missing operator</title>
<polygon fill="#e0ddf4" stroke="black" points="780.5,-123 609.5,-123 609.5,-87 780.5,-87 780.5,-123"/>
<text text-anchor="middle" x="695" y="-101.3" font-family="Sans Not-Rotated 14" font-size="14.00">Meas missing operator</text>
</g>
<!-- Red zone doctor FD&#45;&gt;Meas missing operator -->
<g id="edge28" class="edge">
<title>Red zone doctor FD&#45;&gt;Meas missing operator</title>
<path fill="none" stroke="black" stroke-width="1.07" d="M562.77,-539.22C625.32,-530.66 714.63,-513.28 786,-479 899.7,-424.39 930.17,-374.67 955,-251 970.83,-172.16 871.37,-135.59 790.92,-119.03"/>
<polygon fill="black" stroke="black" stroke-width="1.07" points="791.2,-115.52 780.71,-117.02 789.84,-122.39 791.2,-115.52"/>
<text text-anchor="middle" x="945.5" y="-326.8" font-family="Sans Not-Rotated 14" font-size="14.00"> &#160;&#160;&#160;</text>
</g>
<!-- Red zone doctor FD&#45;&gt;Notification operator -->
<g id="edge31" class="edge">
<title>Red zone doctor FD&#45;&gt;Notification operator</title>
<path fill="none" stroke="black" stroke-width="1.57" d="M409.2,-530.39C395.25,-525.63 381.25,-519.6 369,-512 307.01,-473.54 283.75,-459.87 257,-392 246.8,-366.11 258.44,-335.37 270.06,-314.06"/>
<polygon fill="black" stroke="black" stroke-width="1.57" points="273.17,-315.67 275.15,-305.26 267.11,-312.17 273.17,-315.67"/>
<text text-anchor="middle" x="292.5" y="-413.8" font-family="Sans Not-Rotated 14" font-size="14.00"> &#160;&#160;&#160;&#160;&#160;&#160;&#160;&#160;</text>
</g>
<!-- Red zone doctor FD&#45;&gt;Yellow zone doctor -->
<g id="edge39" class="edge">
<title>Red zone doctor FD&#45;&gt;Yellow zone doctor</title>
<path fill="none" stroke="black" stroke-width="2.05" d="M471.8,-529.96C454.51,-509.27 424.34,-473.38 398,-443 390.99,-434.91 388.95,-433.14 382,-425 375.18,-417.02 367.88,-408.19 361.35,-400.21"/>
<polygon fill="black" stroke="black" stroke-width="2.05" points="363.9,-397.81 354.87,-392.26 358.48,-402.23 363.9,-397.81"/>
<text text-anchor="middle" x="448.5" y="-457.3" font-family="Sans Not-Rotated 14" font-size="14.00"> &#160;&#160;&#160;&#160;&#160;&#160;&#160;&#160;</text>
</g>
<!-- end -->
<g id="node10" class="node">
<title>end</title>
<ellipse fill="#ea4126" stroke="black" cx="834" cy="-196" rx="18" ry="18"/>
<ellipse fill="none" stroke="black" cx="834" cy="-196" rx="22" ry="22"/>
</g>
<!-- Red zone doctor FD&#45;&gt;end -->
<g id="edge48" class="edge">
<title>Red zone doctor FD&#45;&gt;end</title>
<path fill="none" stroke="black" stroke-dasharray="5,2" d="M562.59,-539.21C594.54,-536.1 632.05,-532.65 666,-530 698.52,-527.47 936.3,-535.42 959,-512 986.01,-484.14 958.86,-296.76 911,-236 899.4,-221.28 880.77,-211.64 864.73,-205.62"/>
<polygon fill="black" stroke="black" points="865.76,-202.27 855.17,-202.33 863.49,-208.89 865.76,-202.27"/>
<text text-anchor="middle" x="972.5" y="-370.3" font-family="Sans Not-Rotated 14" font-size="14.00"> &#160;&#160;&#160;</text>
</g>
<!-- Yellow zone doctor FD&#45;&gt;Red zone operator -->
<g id="edge5" class="edge">
<title>Yellow zone doctor FD&#45;&gt;Red zone operator</title>
<path fill="none" stroke="black" stroke-width="1.68" d="M699.12,-479.09C713.22,-508.12 735.57,-567.01 704,-599 693.14,-610 679.08,-617.6 664.38,-622.84"/>
<polygon fill="black" stroke="black" stroke-width="1.68" points="663.11,-619.57 654.65,-625.95 665.24,-626.23 663.11,-619.57"/>
<text text-anchor="middle" x="740.5" y="-544.3" font-family="Sans Not-Rotated 14" font-size="14.00"> &#160;&#160;&#160;&#160;&#160;&#160;&#160;&#160;</text>
</g>
<!-- Yellow zone doctor FD&#45;&gt;Red zone doctor FD -->
<g id="edge10" class="edge">
<title>Yellow zone doctor FD&#45;&gt;Red zone doctor FD</title>
<path fill="none" stroke="black" stroke-width="1.32" d="M649.13,-479.03C616.78,-492.51 571.43,-511.4 536.76,-525.85"/>
<polygon fill="black" stroke="black" stroke-width="1.32" points="535.17,-522.72 527.28,-529.8 537.86,-529.18 535.17,-522.72"/>
<text text-anchor="middle" x="621.5" y="-500.8" font-family="Sans Not-Rotated 14" font-size="14.00"> &#160;&#160;&#160;&#160;&#160;&#160;&#160;&#160;</text>
</g>
<!-- Yellow zone doctor FD&#45;&gt;Red zone doctor -->
<g id="edge21" class="edge">
<title>Yellow zone doctor FD&#45;&gt;Red zone doctor</title>
<path fill="none" stroke="black" stroke-width="1.27" d="M776.64,-445.67C794.92,-440.66 813.62,-433.96 830,-425 904.51,-384.25 896.2,-334.96 909,-251 921.34,-170.04 885.52,-142.17 825,-87 803.38,-67.3 775,-51.59 750.28,-40.25"/>
<polygon fill="black" stroke="black" stroke-width="1.27" points="751.56,-36.99 741,-36.13 748.71,-43.39 751.56,-36.99"/>
<text text-anchor="middle" x="930.5" y="-239.8" font-family="Sans Not-Rotated 14" font-size="14.00"> &#160;&#160;&#160;&#160;&#160;&#160;&#160;&#160;</text>
</g>
<!-- Yellow zone doctor FD&#45;&gt;Meas missing operator -->
<g id="edge26" class="edge">
<title>Yellow zone doctor FD&#45;&gt;Meas missing operator</title>
<path fill="none" stroke="black" stroke-width="1.14" d="M705.94,-442.75C710.31,-437.36 714.74,-431.2 718,-425 731.05,-400.21 745.22,-321.46 747,-305 752.64,-252.7 735.22,-143.4 734,-141 732.15,-137.36 729.75,-133.93 727.06,-130.73"/>
<polygon fill="black" stroke="black" stroke-width="1.14" points="729.34,-128.06 719.87,-123.31 724.31,-132.93 729.34,-128.06"/>
<text text-anchor="middle" x="768.5" y="-283.3" font-family="Sans Not-Rotated 14" font-size="14.00"> &#160;&#160;&#160;&#160;&#160;&#160;&#160;&#160;</text>
</g>
<!-- Yellow zone doctor FD&#45;&gt;Notification operator -->
<g id="edge30" class="edge">
<title>Yellow zone doctor FD&#45;&gt;Notification operator</title>
<path fill="none" stroke="black" stroke-width="1.93" d="M675.5,-442.85C665.78,-432.23 652.2,-418.95 638,-410 618.72,-397.85 611.12,-400.54 590,-392 552.72,-376.94 544.66,-370.1 507,-356 461.59,-339 449.33,-337.34 403,-323 387.11,-318.08 369.96,-312.86 353.86,-308"/>
<polygon fill="black" stroke="black" stroke-width="1.93" points="354.57,-304.55 343.99,-305.02 352.55,-311.26 354.57,-304.55"/>
<text text-anchor="middle" x="610.5" y="-370.3" font-family="Sans Not-Rotated 14" font-size="14.00"> &#160;&#160;&#160;&#160;&#160;&#160;&#160;&#160;</text>
</g>
<!-- Meas missing doctor -->
<g id="node7" class="node">
<title>Meas missing doctor</title>
<polygon fill="#ffffff" stroke="black" points="617.5,-214 462.5,-214 462.5,-178 617.5,-178 617.5,-214"/>
<text text-anchor="middle" x="540" y="-192.3" font-family="Sans Not-Rotated 14" font-size="14.00">Meas missing doctor</text>
</g>
<!-- Yellow zone doctor FD&#45;&gt;Meas missing doctor -->
<g id="edge38" class="edge">
<title>Yellow zone doctor FD&#45;&gt;Meas missing doctor</title>
<path fill="none" stroke="black" stroke-width="1.01" d="M690.12,-442.79C689.61,-407.56 684.48,-325.75 650,-269 636.62,-246.98 613.65,-230.38 592.16,-218.71"/>
<polygon fill="black" stroke="black" stroke-width="1.01" points="593.56,-215.49 583.07,-214 590.34,-221.71 593.56,-215.49"/>
<text text-anchor="middle" x="686.5" y="-326.8" font-family="Sans Not-Rotated 14" font-size="14.00"> &#160;&#160;&#160;</text>
</g>
<!-- Yellow zone doctor FD&#45;&gt;Yellow zone doctor -->
<g id="edge40" class="edge">
<title>Yellow zone doctor FD&#45;&gt;Yellow zone doctor</title>
<path fill="none" stroke="black" stroke-width="2.15" d="M603.4,-459.01C553.84,-455.75 491.49,-446.99 440,-425 430.11,-420.77 430.23,-415.53 421,-410 412.8,-405.08 403.78,-400.46 394.85,-396.29"/>
<polygon fill="black" stroke="black" stroke-width="2.15" points="396.16,-393.04 385.61,-392.11 393.28,-399.42 396.16,-393.04"/>
<text text-anchor="middle" x="476.5" y="-413.8" font-family="Sans Not-Rotated 14" font-size="14.00"> &#160;&#160;&#160;&#160;&#160;&#160;&#160;&#160;&#160;&#160;&#160;&#160;&#160;&#160;&#160;</text>
</g>
<!-- Yellow zone doctor FD&#45;&gt;end -->
<g id="edge47" class="edge">
<title>Yellow zone doctor FD&#45;&gt;end</title>
<path fill="none" stroke="black" stroke-dasharray="5,2" d="M764.73,-442.82C773.79,-438.22 782.23,-432.39 789,-425 839.06,-370.39 840.46,-276.82 837.25,-228.28"/>
<polygon fill="black" stroke="black" points="840.72,-227.77 836.46,-218.07 833.74,-228.31 840.72,-227.77"/>
<text text-anchor="middle" x="842.5" y="-326.8" font-family="Sans Not-Rotated 14" font-size="14.00"> &#160;&#160;&#160;</text>
</g>
<!-- Red zone doctor&#45;&gt;Red zone operator -->
<g id="edge2" class="edge">
<title>Red zone doctor&#45;&gt;Red zone operator</title>
<path fill="none" stroke="black" stroke-width="3.46" d="M759.56,-24.48C884.91,-35.98 1149,-64.86 1149,-104 1149,-288 1149,-288 1149,-288 1149,-310.23 1148.79,-315.81 1150,-338 1151.91,-372.98 1157,-381.47 1157,-416.5 1157,-549 1157,-549 1157,-549 1157,-598.16 823.9,-621.73 664.76,-630.18"/>
<polygon fill="black" stroke="black" stroke-width="3.46" points="664.34,-626.7 654.53,-630.72 664.7,-633.69 664.34,-626.7"/>
<text text-anchor="middle" x="1186.5" y="-326.8" font-family="Sans Not-Rotated 14" font-size="14.00"> &#160;&#160;&#160;&#160;&#160;&#160;&#160;&#160;&#160;&#160;&#160;&#160;&#160;&#160;&#160;</text>
</g>
<!-- Red zone doctor&#45;&gt;Red zone doctor FD -->
<g id="edge8" class="edge">
<title>Red zone doctor&#45;&gt;Red zone doctor FD</title>
<path fill="none" stroke="black" stroke-width="3.5" d="M630.29,-20.23C501.08,-23.13 215.36,-31.89 120,-54 63.71,-67.05 0,-46.22 0,-104 0,-331.5 0,-331.5 0,-331.5 0,-387.44 154.8,-452.38 204,-479 223.67,-489.64 230.27,-488.59 251,-497 266.68,-503.36 269.78,-507.18 286,-512 322.29,-522.79 363.33,-530.69 398.75,-536.22"/>
<polygon fill="black" stroke="black" stroke-width="3.5" points="398.65,-539.75 409.06,-537.79 399.7,-532.83 398.65,-539.75"/>
<text text-anchor="middle" x="36.5" y="-283.3" font-family="Sans Not-Rotated 14" font-size="14.00"> &#160;&#160;&#160;&#160;&#160;&#160;&#160;&#160;&#160;&#160;&#160;&#160;&#160;&#160;&#160;</text>
</g>
<!-- Red zone doctor&#45;&gt;Yellow zone doctor FD -->
<g id="edge16" class="edge">
<title>Red zone doctor&#45;&gt;Yellow zone doctor FD</title>
<path fill="none" stroke="black" stroke-width="1.1" d="M722.51,-36.16C742.21,-49.04 768.89,-67.71 790,-87 827.69,-121.43 847.22,-126.15 865,-174 871.81,-192.33 865.73,-198.46 865,-218 861.43,-313.36 885.93,-369.93 808,-425 800.16,-430.54 791.45,-435.21 782.4,-439.15"/>
<polygon fill="black" stroke="black" stroke-width="1.1" points="780.83,-436 772.87,-442.99 783.46,-442.5 780.83,-436"/>
<text text-anchor="middle" x="884.5" y="-239.8" font-family="Sans Not-Rotated 14" font-size="14.00"> &#160;&#160;&#160;&#160;&#160;&#160;&#160;&#160;</text>
</g>
<!-- Red zone doctor&#45;&gt;Red zone doctor -->
<g id="edge56" class="edge">
<title>Red zone doctor&#45;&gt;Red zone doctor</title>
<path fill="none" stroke="black" stroke-width="1.24" d="M759.68,-25.29C770.24,-24.24 777.5,-21.81 777.5,-18 777.5,-15.56 774.52,-13.68 769.6,-12.38"/>
<polygon fill="black" stroke="black" stroke-width="1.24" points="770.12,-8.91 759.68,-10.71 768.96,-15.82 770.12,-8.91"/>
<text text-anchor="middle" x="798" y="-14.3" font-family="Sans Not-Rotated 14" font-size="14.00"> &#160;&#160;&#160;&#160;&#160;&#160;&#160;&#160;</text>
</g>
<!-- Red zone doctor&#45;&gt;Notification operator -->
<g id="edge36" class="edge">
<title>Red zone doctor&#45;&gt;Notification operator</title>
<path fill="none" stroke="black" stroke-width="1.01" d="M630.28,-18.99C496.59,-19.58 199.53,-24.27 165,-54 109.7,-101.62 113.88,-159.13 157,-218 172.55,-239.22 196.71,-254.39 220.01,-264.93"/>
<polygon fill="black" stroke="black" stroke-width="1.01" points="218.65,-268.16 229.22,-268.89 221.41,-261.73 218.65,-268.16"/>
<text text-anchor="middle" x="136.5" y="-144.8" font-family="Sans Not-Rotated 14" font-size="14.00"> &#160;&#160;&#160;</text>
</g>
<!-- Red zone doctor&#45;&gt;Yellow zone doctor -->
<g id="edge42" class="edge">
<title>Red zone doctor&#45;&gt;Yellow zone doctor</title>
<path fill="none" stroke="black" stroke-width="1.25" d="M630.43,-22.99C491.98,-32.42 179,-58.75 179,-104 179,-288 179,-288 179,-288 179,-327.38 217,-348.55 256.2,-359.92"/>
<polygon fill="black" stroke="black" stroke-width="1.25" points="255.6,-363.38 266.16,-362.6 257.42,-356.62 255.6,-363.38"/>
<text text-anchor="middle" x="199.5" y="-192.3" font-family="Sans Not-Rotated 14" font-size="14.00"> &#160;&#160;&#160;&#160;&#160;&#160;&#160;&#160;</text>
</g>
<!-- Meas missing operator&#45;&gt;Red zone operator -->
<g id="edge49" class="edge">
<title>Meas missing operator&#45;&gt;Red zone operator</title>
<path fill="none" stroke="black" stroke-width="1.09" d="M780.73,-113.81C817.62,-118.93 860.73,-127.33 898,-141 993.24,-175.94 1040.27,-178.95 1087,-269 1117.2,-327.19 1088,-350.94 1088,-416.5 1088,-549 1088,-549 1088,-549 1088,-591.38 808.37,-617.72 664.86,-628.45"/>
<polygon fill="black" stroke="black" stroke-width="1.09" points="664.48,-624.97 654.77,-629.2 665,-631.95 664.48,-624.97"/>
<text text-anchor="middle" x="1115.5" y="-370.3" font-family="Sans Not-Rotated 14" font-size="14.00"> &#160;&#160;&#160;&#160;&#160;&#160;&#160;&#160;</text>
</g>
<!-- Meas missing operator&#45;&gt;Yellow zone doctor FD -->
<g id="edge18" class="edge">
<title>Meas missing operator&#45;&gt;Yellow zone doctor FD</title>
<path fill="none" stroke="black" stroke-width="1.01" d="M709.47,-123.15C713.24,-128.54 716.85,-134.73 719,-141 723.77,-154.9 720.2,-159.33 721,-174 727.09,-285.68 729.35,-316.31 703,-425 702.35,-427.68 701.56,-430.44 700.68,-433.18"/>
<polygon fill="black" stroke="black" stroke-width="1.01" points="697.31,-432.21 697.3,-442.81 703.92,-434.53 697.31,-432.21"/>
<text text-anchor="middle" x="733.5" y="-283.3" font-family="Sans Not-Rotated 14" font-size="14.00"> &#160;&#160;&#160;</text>
</g>
<!-- Meas missing operator&#45;&gt;Red zone doctor -->
<g id="edge50" class="edge">
<title>Meas missing operator&#45;&gt;Red zone doctor</title>
<path fill="none" stroke="black" stroke-width="1.01" d="M695,-86.8C695,-75.16 695,-59.55 695,-46.24"/>
<polygon fill="black" stroke="black" stroke-width="1.01" points="698.5,-46.18 695,-36.18 691.5,-46.18 698.5,-46.18"/>
<text text-anchor="middle" x="704.5" y="-57.8" font-family="Sans Not-Rotated 14" font-size="14.00"> &#160;&#160;&#160;</text>
</g>
<!-- Meas missing operator&#45;&gt;Notification operator -->
<g id="edge34" class="edge">
<title>Meas missing operator&#45;&gt;Notification operator</title>
<path fill="none" stroke="black" stroke-width="1.46" d="M609.32,-119.27C538.04,-131.63 443.34,-151.48 412,-174 392.57,-187.96 400.5,-204.15 381,-218 357.26,-234.86 341.23,-218.45 318,-236 309.86,-242.15 303.35,-251.11 298.45,-259.75"/>
<polygon fill="black" stroke="black" stroke-width="1.46" points="295.22,-258.37 293.74,-268.86 301.44,-261.58 295.22,-258.37"/>
<text text-anchor="middle" x="432.5" y="-192.3" font-family="Sans Not-Rotated 14" font-size="14.00"> &#160;&#160;&#160;&#160;&#160;&#160;&#160;&#160;</text>
</g>
<!-- Meas missing operator&#45;&gt;Meas missing doctor -->
<g id="edge1" class="edge">
<title>Meas missing operator&#45;&gt;Meas missing doctor</title>
<path fill="none" stroke="black" stroke-width="2.58" d="M609.31,-114.59C575.53,-119.9 542.32,-128.22 532,-141 525.92,-148.52 525.96,-158.63 528.21,-168.07"/>
<polygon fill="black" stroke="black" stroke-width="2.58" points="524.96,-169.42 531.33,-177.89 531.64,-167.3 524.96,-169.42"/>
<text text-anchor="middle" x="568.5" y="-144.8" font-family="Sans Not-Rotated 14" font-size="14.00"> &#160;&#160;&#160;&#160;&#160;&#160;&#160;&#160;&#160;&#160;&#160;&#160;&#160;&#160;&#160;</text>
</g>
<!-- Meas missing operator&#45;&gt;Yellow zone doctor -->
<g id="edge44" class="edge">
<title>Meas missing operator&#45;&gt;Yellow zone doctor</title>
<path fill="none" stroke="black" stroke-width="1.1" d="M689.82,-123.06C681.13,-148.47 661.04,-195.64 626,-218 586.45,-243.23 558.71,-206.79 522,-236 495.97,-256.71 516.25,-281.21 493,-305 471.94,-326.54 442.84,-341.82 415.73,-352.35"/>
<polygon fill="black" stroke="black" stroke-width="1.1" points="414.39,-349.12 406.24,-355.89 416.84,-355.68 414.39,-349.12"/>
<text text-anchor="middle" x="542.5" y="-239.8" font-family="Sans Not-Rotated 14" font-size="14.00"> &#160;&#160;&#160;&#160;&#160;&#160;&#160;&#160;</text>
</g>
<!-- Notification operator&#45;&gt;Red zone operator -->
<g id="edge6" class="edge">
<title>Notification operator&#45;&gt;Red zone operator</title>
<path fill="none" stroke="black" stroke-width="1.36" d="M207.23,-289.3C147.48,-295.02 76,-314.16 76,-373 76,-549 76,-549 76,-549 76,-596.32 124.61,-585.61 170,-599 229.58,-616.57 396.88,-626.38 499.04,-630.89"/>
<polygon fill="black" stroke="black" stroke-width="1.36" points="499.19,-634.4 509.33,-631.34 499.49,-627.41 499.19,-634.4"/>
<text text-anchor="middle" x="96.5" y="-457.3" font-family="Sans Not-Rotated 14" font-size="14.00"> &#160;&#160;&#160;&#160;&#160;&#160;&#160;&#160;</text>
</g>
<!-- Notification operator&#45;&gt;Red zone doctor FD -->
<g id="edge12" class="edge">
<title>Notification operator&#45;&gt;Red zone doctor FD</title>
<path fill="none" stroke="black" stroke-width="1.07" d="M244.62,-305.12C236.57,-309.92 228.85,-315.84 223,-323 166.11,-392.54 180.38,-396.12 196,-425 229.6,-487.13 263.92,-484.54 329,-512 351.06,-521.31 375.96,-528.31 399.32,-533.5"/>
<polygon fill="black" stroke="black" stroke-width="1.07" points="398.71,-536.95 409.22,-535.62 400.17,-530.11 398.71,-536.95"/>
<text text-anchor="middle" x="205.5" y="-413.8" font-family="Sans Not-Rotated 14" font-size="14.00"> &#160;&#160;&#160;</text>
</g>
<!-- Notification operator&#45;&gt;Yellow zone doctor FD -->
<g id="edge15" class="edge">
<title>Notification operator&#45;&gt;Yellow zone doctor FD</title>
<path fill="none" stroke="black" stroke-width="1.3" d="M337.48,-305.17C350.63,-310.3 364.58,-316.35 377,-323 399.5,-335.05 403.84,-340.34 424,-356 443.42,-371.08 443.5,-382.08 466,-392 526.23,-418.55 551.14,-387.5 613,-410 622.44,-413.43 641.25,-425.6 657.91,-437.08"/>
<polygon fill="black" stroke="black" stroke-width="1.3" points="656.16,-440.12 666.37,-442.96 660.16,-434.38 656.16,-440.12"/>
<text text-anchor="middle" x="486.5" y="-370.3" font-family="Sans Not-Rotated 14" font-size="14.00"> &#160;&#160;&#160;&#160;&#160;&#160;&#160;&#160;</text>
</g>
<!-- Notification operator&#45;&gt;Red zone doctor -->
<g id="edge23" class="edge">
<title>Notification operator&#45;&gt;Red zone doctor</title>
<path fill="none" stroke="black" stroke-width="1.14" d="M280.49,-268.65C270.63,-239.04 255.91,-178.34 285,-141 326.23,-88.08 513.48,-49.09 620.1,-30.73"/>
<polygon fill="black" stroke="black" stroke-width="1.14" points="620.89,-34.14 630.16,-29.01 619.72,-27.24 620.89,-34.14"/>
<text text-anchor="middle" x="305.5" y="-144.8" font-family="Sans Not-Rotated 14" font-size="14.00"> &#160;&#160;&#160;&#160;&#160;&#160;&#160;&#160;</text>
</g>
<!-- Notification operator&#45;&gt;Meas missing operator -->
<g id="edge25" class="edge">
<title>Notification operator&#45;&gt;Meas missing operator</title>
<path fill="none" stroke="black" stroke-width="2.76" d="M285.29,-268.98C283.84,-244.9 284.9,-200.84 308,-174 333.36,-144.54 351.23,-150.2 389,-141 474.42,-120.19 498.74,-133.78 586,-123 590.4,-122.46 594.89,-121.87 599.42,-121.26"/>
<polygon fill="black" stroke="black" stroke-width="2.76" points="599.97,-124.72 609.39,-119.88 599,-117.79 599.97,-124.72"/>
<text text-anchor="middle" x="344.5" y="-192.3" font-family="Sans Not-Rotated 14" font-size="14.00"> &#160;&#160;&#160;&#160;&#160;&#160;&#160;&#160;&#160;&#160;&#160;&#160;&#160;&#160;&#160;</text>
</g>
<!-- Notification operator&#45;&gt;Notification operator -->
<g id="edge57" class="edge">
<title>Notification operator&#45;&gt;Notification operator</title>
<path fill="none" stroke="black" stroke-width="2.05" d="M366.57,-293.99C377.33,-292.82 384.5,-290.49 384.5,-287 384.5,-284.77 381.56,-283.01 376.62,-281.72"/>
<polygon fill="black" stroke="black" stroke-width="2.05" points="377.02,-278.24 366.57,-280.01 375.84,-285.14 377.02,-278.24"/>
<text text-anchor="middle" x="405" y="-283.3" font-family="Sans Not-Rotated 14" font-size="14.00"> &#160;&#160;&#160;&#160;&#160;&#160;&#160;&#160;</text>
</g>
<!-- Notification operator&#45;&gt;Meas missing doctor -->
<g id="edge37" class="edge">
<title>Notification operator&#45;&gt;Meas missing doctor</title>
<path fill="none" stroke="black" stroke-width="1.09" d="M361.42,-268.95C378.08,-264.05 395.42,-258.08 411,-251 422.11,-245.95 423.09,-241.48 434,-236 447.46,-229.25 462.38,-223.03 476.67,-217.65"/>
<polygon fill="black" stroke="black" stroke-width="1.09" points="478.26,-220.79 486.44,-214.05 475.85,-214.22 478.26,-220.79"/>
<text text-anchor="middle" x="454.5" y="-239.8" font-family="Sans Not-Rotated 14" font-size="14.00"> &#160;&#160;&#160;&#160;&#160;&#160;&#160;&#160;</text>
</g>
<!-- Notification operator&#45;&gt;Yellow zone doctor -->
<g id="edge41" class="edge">
<title>Notification operator&#45;&gt;Yellow zone doctor</title>
<path fill="none" stroke="black" stroke-width="1.67" d="M278.91,-305.24C275.39,-315.39 273.24,-328.13 279,-338 281.52,-342.31 284.78,-346.13 288.5,-349.51"/>
<polygon fill="black" stroke="black" stroke-width="1.67" points="286.61,-352.48 296.66,-355.84 290.9,-346.95 286.61,-352.48"/>
<text text-anchor="middle" x="299.5" y="-326.8" font-family="Sans Not-Rotated 14" font-size="14.00"> &#160;&#160;&#160;&#160;&#160;&#160;&#160;&#160;</text>
</g>
<!-- Notification operator&#45;&gt;end -->
<g id="edge46" class="edge">
<title>Notification operator&#45;&gt;end</title>
<path fill="none" stroke="black" stroke-dasharray="5,2" d="M366.58,-277.66C422.75,-271.39 499.67,-262 567,-251 652.84,-236.97 753.15,-215.23 802.83,-204.1"/>
<polygon fill="black" stroke="black" points="803.66,-207.5 812.64,-201.89 802.12,-200.67 803.66,-207.5"/>
<text text-anchor="middle" x="669.5" y="-239.8" font-family="Sans Not-Rotated 14" font-size="14.00"> &#160;&#160;&#160;&#160;&#160;&#160;&#160;&#160;</text>
</g>
<!-- Meas missing doctor&#45;&gt;Red zone operator -->
<g id="edge51" class="edge">
<title>Meas missing doctor&#45;&gt;Red zone operator</title>
<path fill="none" stroke="black" stroke-width="1.05" d="M552.48,-214.09C578.09,-251.4 630.42,-340.87 584,-392 556.09,-422.75 425.91,-379.25 398,-410 393.52,-414.94 393.87,-419.76 398,-425 419.22,-451.92 451.78,-416.08 473,-443 482.91,-455.56 480.4,-464.81 473,-479 454.71,-514.1 418.29,-494.9 400,-530 392.6,-544.19 391.26,-552.6 400,-566 421.74,-599.32 462.09,-616.37 499.28,-625.07"/>
<polygon fill="black" stroke="black" stroke-width="1.05" points="498.65,-628.52 509.16,-627.21 500.13,-621.68 498.65,-628.52"/>
<text text-anchor="middle" x="407.5" y="-413.8" font-family="Sans Not-Rotated 14" font-size="14.00"> &#160;&#160;&#160;</text>
</g>
<!-- Meas missing doctor&#45;&gt;Yellow zone doctor FD -->
<g id="edge53" class="edge">
<title>Meas missing doctor&#45;&gt;Yellow zone doctor FD</title>
<path fill="none" stroke="black" d="M564.37,-214.16C572.64,-220.54 581.63,-228.15 589,-236 601.23,-249.04 603.46,-253.3 612,-269 642.43,-324.94 668.21,-395.3 681.13,-433.07"/>
<polygon fill="black" stroke="black" points="677.9,-434.47 684.42,-442.82 684.54,-432.23 677.9,-434.47"/>
<text text-anchor="middle" x="654.5" y="-326.8" font-family="Sans Not-Rotated 14" font-size="14.00"> &#160;&#160;&#160;</text>
</g>
<!-- Meas missing doctor&#45;&gt;Red zone doctor -->
<g id="edge52" class="edge">
<title>Meas missing doctor&#45;&gt;Red zone doctor</title>
<path fill="none" stroke="black" stroke-width="1.01" d="M528.25,-177.64C522.5,-166.88 517.82,-152.9 523,-141 544.26,-92.16 596.91,-59.43 638.41,-40.27"/>
<polygon fill="black" stroke="black" stroke-width="1.01" points="639.91,-43.43 647.61,-36.16 637.05,-37.04 639.91,-43.43"/>
<text text-anchor="middle" x="572.5" y="-101.3" font-family="Sans Not-Rotated 14" font-size="14.00"> &#160;&#160;&#160;</text>
</g>
<!-- Meas missing doctor&#45;&gt;Meas missing operator -->
<g id="edge27" class="edge">
<title>Meas missing doctor&#45;&gt;Meas missing operator</title>
<path fill="none" stroke="black" stroke-width="1.35" d="M568.94,-177.95C580.25,-171.21 593.29,-163.33 605,-156 615.35,-149.53 617.47,-147.17 628,-141 635.49,-136.62 643.58,-132.16 651.46,-127.97"/>
<polygon fill="black" stroke="black" stroke-width="1.35" points="653.34,-130.93 660.57,-123.18 650.09,-124.73 653.34,-130.93"/>
<text text-anchor="middle" x="648.5" y="-144.8" font-family="Sans Not-Rotated 14" font-size="14.00"> &#160;&#160;&#160;&#160;&#160;&#160;&#160;&#160;</text>
</g>
<!-- Meas missing doctor&#45;&gt;Notification operator -->
<g id="edge32" class="edge">
<title>Meas missing doctor&#45;&gt;Notification operator</title>
<path fill="none" stroke="black" stroke-width="2.14" d="M467.27,-214.04C460.77,-215.43 454.27,-216.77 448,-218 399.38,-227.52 382.19,-213.62 338,-236 326.07,-242.04 315.15,-251.86 306.49,-261.21"/>
<polygon fill="black" stroke="black" stroke-width="2.14" points="303.75,-259.03 299.79,-268.85 309.01,-263.64 303.75,-259.03"/>
<text text-anchor="middle" x="374.5" y="-239.8" font-family="Sans Not-Rotated 14" font-size="14.00"> &#160;&#160;&#160;&#160;&#160;&#160;&#160;&#160;&#160;&#160;&#160;&#160;&#160;&#160;&#160;</text>
</g>
<!-- Meas missing doctor&#45;&gt;Yellow zone doctor -->
<g id="edge45" class="edge">
<title>Meas missing doctor&#45;&gt;Yellow zone doctor</title>
<path fill="none" stroke="black" stroke-width="1.06" d="M523.9,-214.07C499.04,-240.31 452.28,-289.19 434,-305 415.41,-321.08 393.24,-337.39 375.2,-350.01"/>
<polygon fill="black" stroke="black" stroke-width="1.06" points="372.94,-347.31 366.72,-355.89 376.93,-353.07 372.94,-347.31"/>
<text text-anchor="middle" x="479.5" y="-283.3" font-family="Sans Not-Rotated 14" font-size="14.00"> &#160;&#160;&#160;</text>
</g>
<!-- Yellow zone doctor&#45;&gt;Red zone operator -->
<g id="edge7" class="edge">
<title>Yellow zone doctor&#45;&gt;Red zone operator</title>
<path fill="none" stroke="black" stroke-width="1.19" d="M321.63,-392.22C309.76,-402.37 294.01,-415.11 279,-425 222.88,-461.99 180.31,-439.2 146,-497 120.33,-540.25 152.77,-571.69 195,-599 219.9,-615.1 393.16,-625.6 499.23,-630.59"/>
<polygon fill="black" stroke="black" stroke-width="1.19" points="499.13,-634.09 509.28,-631.06 499.45,-627.1 499.13,-634.09"/>
<text text-anchor="middle" x="166.5" y="-500.8" font-family="Sans Not-Rotated 14" font-size="14.00"> &#160;&#160;&#160;&#160;&#160;&#160;&#160;&#160;</text>
</g>
<!-- Yellow zone doctor&#45;&gt;Red zone doctor FD -->
<g id="edge11" class="edge">
<title>Yellow zone doctor&#45;&gt;Red zone doctor FD</title>
<path fill="none" stroke="black" stroke-width="1.27" d="M339.62,-392.29C338.71,-414.2 340.07,-452.31 357,-479 370.59,-500.42 393.3,-515.49 415.92,-525.9"/>
<polygon fill="black" stroke="black" stroke-width="1.27" points="414.67,-529.17 425.23,-529.94 417.45,-522.75 414.67,-529.17"/>
<text text-anchor="middle" x="377.5" y="-457.3" font-family="Sans Not-Rotated 14" font-size="14.00"> &#160;&#160;&#160;&#160;&#160;&#160;&#160;&#160;</text>
</g>
<!-- Yellow zone doctor&#45;&gt;Yellow zone doctor FD -->
<g id="edge13" class="edge">
<title>Yellow zone doctor&#45;&gt;Yellow zone doctor FD</title>
<path fill="none" stroke="black" stroke-width="3.62" d="M415.61,-389.51C462.45,-398.67 514.48,-408.97 517,-410 528.3,-414.61 528.78,-420.21 540,-425 556.89,-432.21 575.5,-438.07 593.71,-442.79"/>
<polygon fill="black" stroke="black" stroke-width="3.62" points="592.92,-446.2 603.47,-445.22 594.62,-439.41 592.92,-446.2"/>
<text text-anchor="middle" x="576.5" y="-413.8" font-family="Sans Not-Rotated 14" font-size="14.00"> &#160;&#160;&#160;&#160;&#160;&#160;&#160;&#160;&#160;&#160;&#160;&#160;&#160;&#160;&#160;</text>
</g>
<!-- Yellow zone doctor&#45;&gt;Red zone doctor -->
<g id="edge24" class="edge">
<title>Yellow zone doctor&#45;&gt;Red zone doctor</title>
<path fill="none" stroke="black" stroke-width="1.05" d="M266.14,-364.97C225.68,-359.32 180.83,-350.51 165,-338 65.76,-259.59 35.03,-112.81 147,-54 187.81,-32.57 479.75,-23.54 620.06,-20.41"/>
<polygon fill="black" stroke="black" stroke-width="1.05" points="620.39,-23.9 630.31,-20.19 620.23,-16.91 620.39,-23.9"/>
<text text-anchor="middle" x="92.5" y="-192.3" font-family="Sans Not-Rotated 14" font-size="14.00"> &#160;&#160;&#160;</text>
</g>
<!-- Yellow zone doctor&#45;&gt;Meas missing operator -->
<g id="edge29" class="edge">
<title>Yellow zone doctor&#45;&gt;Meas missing operator</title>
<path fill="none" stroke="black" stroke-width="1" d="M415.83,-356.78C417.23,-356.52 418.62,-356.26 420,-356 548.24,-332.27 627.27,-363.05 694,-251 715.55,-214.82 709.36,-164.01 702.49,-133.14"/>
<polygon fill="black" stroke="black" stroke-width="1" points="705.82,-132.01 700.07,-123.11 699.01,-133.65 705.82,-132.01"/>
<text text-anchor="middle" x="710.5" y="-239.8" font-family="Sans Not-Rotated 14" font-size="14.00"> &#160;&#160;&#160;</text>
</g>
<!-- Yellow zone doctor&#45;&gt;Notification operator -->
<g id="edge33" class="edge">
<title>Yellow zone doctor&#45;&gt;Notification operator</title>
<path fill="none" stroke="black" stroke-width="1.36" d="M337.38,-355.88C334.72,-345.77 330.44,-333.03 324,-323 321.69,-319.4 318.93,-315.91 315.98,-312.62"/>
<polygon fill="black" stroke="black" stroke-width="1.36" points="318.34,-310.03 308.85,-305.34 313.34,-314.93 318.34,-310.03"/>
<text text-anchor="middle" x="352.5" y="-326.8" font-family="Sans Not-Rotated 14" font-size="14.00"> &#160;&#160;&#160;&#160;&#160;&#160;&#160;&#160;</text>
</g>
<!-- start -->
<g id="node9" class="node">
<title>start</title>
<ellipse fill="#95d600" stroke="black" cx="964" cy="-731.3" rx="27.1" ry="27.1"/>
<text text-anchor="middle" x="964" y="-727.6" font-family="Sans Not-Rotated 14" font-size="14.00">start</text>
</g>
<!-- start&#45;&gt;Red zone operator -->
<g id="edge4" class="edge">
<title>start&#45;&gt;Red zone operator</title>
<path fill="none" stroke="black" stroke-dasharray="5,2" d="M937.74,-723.82C881.5,-709.93 747.5,-676.85 660.96,-655.49"/>
<polygon fill="black" stroke="black" points="661.72,-652.07 651.17,-653.08 660.04,-658.87 661.72,-652.07"/>
<text text-anchor="middle" x="804.5" y="-674.8" font-family="Sans Not-Rotated 14" font-size="14.00"> &#160;&#160;&#160;&#160;&#160;&#160;&#160;&#160;</text>
</g>
<!-- start&#45;&gt;Red zone doctor -->
<g id="edge22" class="edge">
<title>start&#45;&gt;Red zone doctor</title>
<path fill="none" stroke="black" stroke-dasharray="5,2" d="M991.43,-729.19C1076.95,-724.98 1333,-706.5 1333,-636 1333,-636 1333,-636 1333,-104 1333,-47.74 938.18,-27.39 769.72,-21.27"/>
<polygon fill="black" stroke="black" points="769.8,-17.77 759.69,-20.92 769.55,-24.77 769.8,-17.77"/>
<text text-anchor="middle" x="1342.5" y="-370.3" font-family="Sans Not-Rotated 14" font-size="14.00"> &#160;&#160;&#160;</text>
</g>
</g>
</svg>
