<?xml version="1.0" encoding="UTF-8" standalone="no"?>
<!DOCTYPE svg PUBLIC "-//W3C//DTD SVG 1.1//EN"
 "http://www.w3.org/Graphics/SVG/1.1/DTD/svg11.dtd">
<!-- Generated by graphviz version 3.0.0 (20220226.1711)
 -->
<!-- Pages: 1 -->
<svg width="436pt" height="767pt"
 viewBox="0.00 0.00 435.50 766.60" xmlns="http://www.w3.org/2000/svg" xmlns:xlink="http://www.w3.org/1999/xlink">
<g id="graph0" class="graph" transform="scale(1 1) rotate(0) translate(4 762.6)">
<polygon fill="white" stroke="transparent" points="-4,4 -4,-762.6 431.5,-762.6 431.5,4 -4,4"/>
<!-- Red zone operator -->
<g id="node1" class="node">
<title>Red zone operator</title>
<polygon fill="#1d2559" stroke="black" points="242,-653 97,-653 97,-617 242,-617 242,-653"/>
<text text-anchor="middle" x="169.5" y="-631.3" font-family="Sans Not-Rotated 14" font-size="14.00" fill="white">Red zone operator</text>
</g>
<!-- Red zone doctor FD -->
<g id="node2" class="node">
<title>Red zone doctor FD</title>
<polygon fill="#1d2559" stroke="black" points="288,-479 135,-479 135,-443 288,-443 288,-479"/>
<text text-anchor="middle" x="211.5" y="-457.3" font-family="Sans Not-Rotated 14" font-size="14.00" fill="white">Red zone doctor FD</text>
</g>
<!-- Red zone operator&#45;&gt;Red zone doctor FD -->
<g id="edge4" class="edge">
<title>Red zone operator&#45;&gt;Red zone doctor FD</title>
<path fill="none" stroke="black" stroke-width="3.29" d="M129.43,-616.92C91,-597.96 41.91,-565.35 64.5,-530 78.54,-508.04 101.68,-493.07 125.5,-482.9"/>
<polygon fill="black" stroke="black" stroke-width="3.29" points="127.01,-486.06 135,-479.1 124.42,-479.56 127.01,-486.06"/>
<text text-anchor="middle" x="101" y="-544.3" font-family="Sans Not-Rotated 14" font-size="14.00"> &#160;&#160;&#160;&#160;&#160;&#160;&#160;&#160;&#160;&#160;&#160;&#160;&#160;&#160;&#160;</text>
</g>
<!-- Red zone doctor -->
<g id="node4" class="node">
<title>Red zone doctor</title>
<polygon fill="#1f3b98" stroke="black" points="276,-566 147,-566 147,-530 276,-530 276,-566"/>
<text text-anchor="middle" x="211.5" y="-544.3" font-family="Sans Not-Rotated 14" font-size="14.00" fill="white">Red zone doctor</text>
</g>
<!-- Red zone operator&#45;&gt;Red zone doctor -->
<g id="edge6" class="edge">
<title>Red zone operator&#45;&gt;Red zone doctor</title>
<path fill="none" stroke="black" stroke-width="5" d="M134.1,-616.79C120.53,-607.79 110.1,-596.13 118.5,-584 123.51,-576.76 130.22,-571.02 137.75,-566.46"/>
<polygon fill="black" stroke="black" stroke-width="5" points="140.1,-570.17 146.91,-561.64 136.03,-562.42 140.1,-570.17"/>
<text text-anchor="middle" x="155" y="-587.8" font-family="Sans Not-Rotated 14" font-size="14.00"> &#160;&#160;&#160;&#160;&#160;&#160;&#160;&#160;&#160;&#160;&#160;&#160;&#160;&#160;&#160;</text>
</g>
<!-- Red zone doctor FD&#45;&gt;Red zone operator -->
<g id="edge12" class="edge">
<title>Red zone doctor FD&#45;&gt;Red zone operator</title>
<path fill="none" stroke="black" stroke-width="3.39" d="M269.41,-479.11C276.97,-483.73 283.73,-489.59 288.5,-497 313.14,-535.26 309.05,-564.39 279.5,-599 271.95,-607.84 262.18,-614.47 251.57,-619.44"/>
<polygon fill="black" stroke="black" stroke-width="3.39" points="249.96,-616.32 242.07,-623.4 252.65,-622.79 249.96,-616.32"/>
<text text-anchor="middle" x="341" y="-544.3" font-family="Sans Not-Rotated 14" font-size="14.00"> &#160;&#160;&#160;&#160;&#160;&#160;&#160;&#160;&#160;&#160;&#160;&#160;&#160;&#160;&#160;</text>
</g>
<!-- Red zone doctor FD&#45;&gt;Red zone doctor FD -->
<g id="edge16" class="edge">
<title>Red zone doctor FD&#45;&gt;Red zone doctor FD</title>
<path fill="none" stroke="black" stroke-width="2.47" d="M288.25,-468.03C298.89,-466.87 306,-464.53 306,-461 306,-458.74 303.08,-456.97 298.19,-455.68"/>
<polygon fill="black" stroke="black" stroke-width="2.47" points="298.7,-452.22 288.25,-453.97 297.52,-459.12 298.7,-452.22"/>
<text text-anchor="middle" x="342.5" y="-457.3" font-family="Sans Not-Rotated 14" font-size="14.00"> &#160;&#160;&#160;&#160;&#160;&#160;&#160;&#160;&#160;&#160;&#160;&#160;&#160;&#160;&#160;</text>
</g>
<!-- Notification operator -->
<g id="node6" class="node">
<title>Notification operator</title>
<polygon fill="#5661c6" stroke="black" points="291,-218 132,-218 132,-182 291,-182 291,-218"/>
<text text-anchor="middle" x="211.5" y="-196.3" font-family="Sans Not-Rotated 14" font-size="14.00" fill="white">Notification operator</text>
</g>
<!-- Red zone doctor FD&#45;&gt;Notification operator -->
<g id="edge9" class="edge">
<title>Red zone doctor FD&#45;&gt;Notification operator</title>
<path fill="none" stroke="black" stroke-width="1.46" d="M211.5,-442.6C211.5,-398.46 211.5,-281.83 211.5,-228.42"/>
<polygon fill="black" stroke="black" stroke-width="1.46" points="215,-228.32 211.5,-218.32 208,-228.32 215,-228.32"/>
<text text-anchor="middle" x="232" y="-326.8" font-family="Sans Not-Rotated 14" font-size="14.00"> &#160;&#160;&#160;&#160;&#160;&#160;&#160;&#160;</text>
</g>
<!-- Yellow zone doctor -->
<g id="node8" class="node">
<title>Yellow zone doctor</title>
<polygon fill="#a09dde" stroke="black" points="373,-392 224,-392 224,-356 373,-356 373,-392"/>
<text text-anchor="middle" x="298.5" y="-370.3" font-family="Sans Not-Rotated 14" font-size="14.00">Yellow zone doctor</text>
</g>
<!-- Red zone doctor FD&#45;&gt;Yellow zone doctor -->
<g id="edge10" class="edge">
<title>Red zone doctor FD&#45;&gt;Yellow zone doctor</title>
<path fill="none" stroke="black" stroke-width="1.95" d="M229.11,-442.8C241.84,-430.36 259.23,-413.36 273.42,-399.5"/>
<polygon fill="black" stroke="black" stroke-width="1.95" points="276.21,-401.67 280.92,-392.18 271.32,-396.66 276.21,-401.67"/>
<text text-anchor="middle" x="281" y="-413.8" font-family="Sans Not-Rotated 14" font-size="14.00"> &#160;&#160;&#160;&#160;&#160;&#160;&#160;&#160;</text>
</g>
<!-- Yellow zone doctor FD -->
<g id="node3" class="node">
<title>Yellow zone doctor FD</title>
<polygon fill="#a09dde" stroke="black" points="397,-305 224,-305 224,-269 397,-269 397,-305"/>
<text text-anchor="middle" x="310.5" y="-283.3" font-family="Sans Not-Rotated 14" font-size="14.00">Yellow zone doctor FD</text>
</g>
<!-- Yellow zone doctor FD&#45;&gt;Notification operator -->
<g id="edge8" class="edge">
<title>Yellow zone doctor FD&#45;&gt;Notification operator</title>
<path fill="none" stroke="black" stroke-width="1.84" d="M290.47,-268.8C275.71,-256.13 255.45,-238.73 239.15,-224.74"/>
<polygon fill="black" stroke="black" stroke-width="1.84" points="241.37,-222.03 231.5,-218.18 236.81,-227.35 241.37,-222.03"/>
<text text-anchor="middle" x="288" y="-239.8" font-family="Sans Not-Rotated 14" font-size="14.00"> &#160;&#160;&#160;&#160;&#160;&#160;&#160;&#160;</text>
</g>
<!-- Yellow zone doctor FD&#45;&gt;Yellow zone doctor -->
<g id="edge13" class="edge">
<title>Yellow zone doctor FD&#45;&gt;Yellow zone doctor</title>
<path fill="none" stroke="black" stroke-width="2.06" d="M338.97,-305.22C350.17,-314.31 359,-326.05 352.5,-338 350.19,-342.25 347.11,-346.07 343.59,-349.48"/>
<polygon fill="black" stroke="black" stroke-width="2.06" points="341.32,-346.82 335.86,-355.9 345.79,-352.2 341.32,-346.82"/>
<text text-anchor="middle" x="391" y="-326.8" font-family="Sans Not-Rotated 14" font-size="14.00"> &#160;&#160;&#160;&#160;&#160;&#160;&#160;&#160;&#160;&#160;&#160;&#160;&#160;&#160;&#160;</text>
</g>
<!-- Red zone doctor&#45;&gt;Red zone operator -->
<g id="edge2" class="edge">
<title>Red zone doctor&#45;&gt;Red zone operator</title>
<path fill="none" stroke="black" stroke-width="3.42" d="M207.5,-566.22C204.83,-576.12 200.83,-588.62 195.5,-599 193.86,-602.19 191.94,-605.41 189.89,-608.52"/>
<polygon fill="black" stroke="black" stroke-width="3.42" points="186.85,-606.76 183.92,-616.94 192.56,-610.8 186.85,-606.76"/>
<text text-anchor="middle" x="239" y="-587.8" font-family="Sans Not-Rotated 14" font-size="14.00"> &#160;&#160;&#160;&#160;&#160;&#160;&#160;&#160;&#160;&#160;&#160;&#160;&#160;&#160;&#160;</text>
</g>
<!-- Red zone doctor&#45;&gt;Red zone doctor FD -->
<g id="edge3" class="edge">
<title>Red zone doctor&#45;&gt;Red zone doctor FD</title>
<path fill="none" stroke="black" stroke-width="3.46" d="M211.5,-529.8C211.5,-518.16 211.5,-502.55 211.5,-489.24"/>
<polygon fill="black" stroke="black" stroke-width="3.46" points="215,-489.18 211.5,-479.18 208,-489.18 215,-489.18"/>
<text text-anchor="middle" x="248" y="-500.8" font-family="Sans Not-Rotated 14" font-size="14.00"> &#160;&#160;&#160;&#160;&#160;&#160;&#160;&#160;&#160;&#160;&#160;&#160;&#160;&#160;&#160;</text>
</g>
<!-- Meas missing operator -->
<g id="node5" class="node">
<title>Meas missing operator</title>
<polygon fill="#e0ddf4" stroke="black" points="171,-127 0,-127 0,-91 171,-91 171,-127"/>
<text text-anchor="middle" x="85.5" y="-105.3" font-family="Sans Not-Rotated 14" font-size="14.00">Meas missing operator</text>
</g>
<!-- Meas missing doctor -->
<g id="node7" class="node">
<title>Meas missing doctor</title>
<polygon fill="#ffffff" stroke="black" points="255,-36 100,-36 100,0 255,0 255,-36"/>
<text text-anchor="middle" x="177.5" y="-14.3" font-family="Sans Not-Rotated 14" font-size="14.00">Meas missing doctor</text>
</g>
<!-- Meas missing operator&#45;&gt;Meas missing doctor -->
<g id="edge1" class="edge">
<title>Meas missing operator&#45;&gt;Meas missing doctor</title>
<path fill="none" stroke="black" stroke-width="2.51" d="M103.24,-90.84C117.24,-77.3 136.94,-58.24 152.53,-43.15"/>
<polygon fill="black" stroke="black" stroke-width="2.51" points="155.06,-45.58 159.82,-36.11 150.2,-40.54 155.06,-45.58"/>
<text text-anchor="middle" x="177" y="-57.8" font-family="Sans Not-Rotated 14" font-size="14.00"> &#160;&#160;&#160;&#160;&#160;&#160;&#160;&#160;&#160;&#160;&#160;&#160;&#160;&#160;&#160;</text>
</g>
<!-- Notification operator&#45;&gt;Meas missing operator -->
<g id="edge7" class="edge">
<title>Notification operator&#45;&gt;Meas missing operator</title>
<path fill="none" stroke="black" stroke-width="2.7" d="M165.82,-181.93C155.07,-176.94 143.99,-170.92 134.5,-164 123.47,-155.96 113.04,-145.11 104.66,-135.25"/>
<polygon fill="black" stroke="black" stroke-width="2.7" points="107.18,-132.8 98.14,-127.28 101.77,-137.23 107.18,-132.8"/>
<text text-anchor="middle" x="171" y="-152.8" font-family="Sans Not-Rotated 14" font-size="14.00"> &#160;&#160;&#160;&#160;&#160;&#160;&#160;&#160;&#160;&#160;&#160;&#160;&#160;&#160;&#160;</text>
</g>
<!-- end -->
<g id="node10" class="node">
<title>end</title>
<ellipse fill="#ea4126" stroke="black" cx="211.5" cy="-109" rx="18" ry="18"/>
<ellipse fill="none" stroke="black" cx="211.5" cy="-109" rx="22" ry="22"/>
</g>
<!-- Notification operator&#45;&gt;end -->
<g id="edge11" class="edge">
<title>Notification operator&#45;&gt;end</title>
<path fill="none" stroke="black" stroke-dasharray="5,2" d="M211.5,-181.84C211.5,-170.44 211.5,-155.13 211.5,-141.58"/>
<polygon fill="black" stroke="black" points="215,-141.19 211.5,-131.19 208,-141.19 215,-141.19"/>
<text text-anchor="middle" x="232" y="-152.8" font-family="Sans Not-Rotated 14" font-size="14.00"> &#160;&#160;&#160;&#160;&#160;&#160;&#160;&#160;</text>
</g>
<!-- Meas missing doctor&#45;&gt;Notification operator -->
<g id="edge14" class="edge">
<title>Meas missing doctor&#45;&gt;Notification operator</title>
<path fill="none" stroke="black" stroke-width="2.05" d="M198.59,-36.04C204.92,-41.52 211.71,-47.79 217.5,-54 230.04,-67.46 234.87,-70.26 242.5,-87 254.17,-112.62 252.6,-121 255.5,-149 256.19,-155.63 258.4,-158 255.5,-164 253.64,-167.86 251.12,-171.42 248.23,-174.68"/>
<polygon fill="black" stroke="black" stroke-width="2.05" points="245.71,-172.25 240.94,-181.71 250.57,-177.29 245.71,-172.25"/>
<text text-anchor="middle" x="291" y="-105.3" font-family="Sans Not-Rotated 14" font-size="14.00"> &#160;&#160;&#160;&#160;&#160;&#160;&#160;&#160;&#160;&#160;&#160;&#160;&#160;&#160;&#160;</text>
</g>
<!-- Yellow zone doctor&#45;&gt;Yellow zone doctor FD -->
<g id="edge5" class="edge">
<title>Yellow zone doctor&#45;&gt;Yellow zone doctor FD</title>
<path fill="none" stroke="black" stroke-width="3.58" d="M285.57,-355.88C279.89,-346.22 275.35,-333.94 279.5,-323 280.78,-319.63 282.54,-316.38 284.59,-313.31"/>
<polygon fill="black" stroke="black" stroke-width="3.58" points="287.54,-315.21 290.92,-305.17 282.02,-310.91 287.54,-315.21"/>
<text text-anchor="middle" x="316" y="-326.8" font-family="Sans Not-Rotated 14" font-size="14.00"> &#160;&#160;&#160;&#160;&#160;&#160;&#160;&#160;&#160;&#160;&#160;&#160;&#160;&#160;&#160;</text>
</g>
<!-- start -->
<g id="node9" class="node">
<title>start</title>
<ellipse fill="#95d600" stroke="black" cx="169.5" cy="-731.3" rx="27.1" ry="27.1"/>
<text text-anchor="middle" x="169.5" y="-727.6" font-family="Sans Not-Rotated 14" font-size="14.00">start</text>
</g>
<!-- start&#45;&gt;Red zone operator -->
<g id="edge15" class="edge">
<title>start&#45;&gt;Red zone operator</title>
<path fill="none" stroke="black" stroke-dasharray="5,2" d="M169.5,-703.78C169.5,-691.1 169.5,-675.93 169.5,-663.17"/>
<polygon fill="black" stroke="black" points="173,-663.12 169.5,-653.12 166,-663.12 173,-663.12"/>
<text text-anchor="middle" x="190" y="-674.8" font-family="Sans Not-Rotated 14" font-size="14.00"> &#160;&#160;&#160;&#160;&#160;&#160;&#160;&#160;</text>
</g>
</g>
</svg>
